<svg xmlns="http://www.w3.org/2000/svg" width="177" height="177" viewBox="0 0 177 177">
  <g fill="none" fill-rule="evenodd">
    <circle cx="88.5" cy="88.5" r="88.5" fill="#F3F6F7" fill-rule="nonzero"/>
    <path fill="#FFF" d="M116.79683,114.482 L121.774943,128.342 C122.21117,129.557 121.304,130.8335 120.007396,130.8335 C119.531925,130.8335 119.076075,130.655 118.727396,130.3325 L108.463245,120.8255"/>
    <path fill="#FFF" fill-rule="nonzero" stroke="#07C39F" stroke-width="2" d="M116.316889,116.10408 L110.015784,120.900462 L119.406406,129.598371 C119.570311,129.749969 119.783698,129.8335 120.007396,129.8335 C120.614458,129.8335 121.035158,129.24084 120.833808,128.680029 L116.316889,116.10408 Z"/>
    <path fill="#FFF" d="M60.6514717,114.482 L55.6718491,128.342 C55.2371321,129.557 56.1427925,130.8335 57.4393962,130.8335 C57.9163774,130.8335 58.3722264,130.655 58.7209057,130.3325 L68.9835472,120.8255"/>
    <path fill="#FFF" fill-rule="nonzero" stroke="#07C39F" stroke-width="2" d="M61.1312611 116.104114L56.6133973 128.678878C56.4123286 129.24085 56.8327844 129.8335 57.4393962 129.8335 57.6645107 129.8335 57.8779235 129.750032 58.0413224 129.598902L67.4311562 120.900444 61.1312611 116.104114zM124.349953 65.9932144C127.672052 62.5483616 127.627256 57.083137 124.215566 53.6927699 120.803415 50.3019446 115.298404 50.2545386 111.829034 53.5505517L124.349953 65.9932144zM53.0991114 65.9924569L65.6200084 53.5498156C62.1507348 50.2545444 56.6461862 50.3021536 53.2341062 53.692908 49.8216553 57.0827023 49.7763111 62.5465117 53.0991114 65.9924569z"/>
    <path fill="#FFF" d="M116.905962,58.57775 C132.439547,74.01575 132.439547,99.04475 116.905962,114.48275 C101.370868,129.91925 76.1844528,129.91925 60.6508679,114.48275 C45.1157736,99.04475 45.1157736,74.01575 60.6508679,58.57775 C76.1844528,43.14125 101.370868,43.14125 116.905962,58.57775"/>
    <path fill="#FFF" fill-rule="nonzero" stroke="#07C39F" stroke-width="2" d="M117.610814,57.8683958 L117.610883,57.8684643 C133.537907,73.6974818 133.537907,99.3630182 117.610814,115.192104 C101.685711,131.016138 75.8695714,131.016138 59.9459812,115.19207 C44.0174025,99.3630448 44.0174025,73.6974552 59.9459812,57.8684301 C75.8695714,42.0443624 101.685711,42.0443624 117.610814,57.8683958 Z"/>
    <path fill="#FFF" d="M122.778566,86.52995 C122.778566,105.18995 107.555925,120.31745 88.778566,120.31745 C69.9996981,120.31745 54.7770566,105.18995 54.7770566,86.52995 C54.7770566,67.86995 69.9996981,52.74245 88.778566,52.74245 C107.555925,52.74245 122.778566,67.86995 122.778566,86.52995"/>
    <path stroke="#07C39F" stroke-width="2" d="M123.778566,86.52995 C123.778566,105.743643 108.106811,121.31745 88.778566,121.31745 C69.4490522,121.31745 53.7770566,105.743882 53.7770566,86.52995 C53.7770566,67.3160181 69.4490522,51.74245 88.778566,51.74245 C108.106811,51.74245 123.778566,67.3162569 123.778566,86.52995 Z"/>
    <path fill="#FFF" d="M88.7234717,116.9372 L88.7234717,111.7607"/>
    <path stroke="#07C39F" stroke-linecap="round" stroke-linejoin="round" d="M88.7234717,116.9372 L88.7234717,111.7607"/>
    <path fill="#FFF" d="M119.377962,86.47565 L114.167396,86.47565"/>
    <path stroke="#07C39F" stroke-linecap="round" stroke-linejoin="round" d="M119.377962,86.47565 L114.167396,86.47565"/>
    <path fill="#FFF" d="M88.8324528,56.1227 L88.8324528,61.2992"/>
    <path stroke="#07C39F" stroke-linecap="round" stroke-linejoin="round" d="M88.8324528,56.1227 L88.8324528,61.2992"/>
    <path fill="#FFF" d="M88.8324528 86.53865L88.8324528 99.66965M58.1794717 86.5241L63.3885283 86.5346"/>
    <path stroke="#07C39F" stroke-linecap="round" stroke-linejoin="round" d="M58.1794717,86.5241 L63.3885283,86.5346"/>
    <path fill="#FFF" d="M80.9639245 86.5241L88.725434 86.5391M110.375849 108.0689L106.69283 104.4089"/>
    <path stroke="#07C39F" stroke-linecap="round" stroke-linejoin="round" d="M110.375849,108.0689 L106.69283,104.4089"/>
    <path fill="#FFF" d="M110.375849,64.98935 L106.69283,68.64935"/>
    <path stroke="#07C39F" stroke-linecap="round" stroke-linejoin="round" d="M110.375849,64.98935 L106.69283,68.64935"/>
    <path fill="#FFF" d="M67.1800755,64.98935 L70.8630943,68.64935"/>
    <path stroke="#07C39F" stroke-linecap="round" stroke-linejoin="round" d="M67.1800755,64.98935 L70.8630943,68.64935"/>
    <path fill="#FFF" d="M67.1373585,108.02795 L70.8279245,104.37245"/>
    <path stroke="#07C39F" stroke-linecap="round" stroke-linejoin="round" d="M67.1373585,108.02795 L70.8279245,104.37245"/>
    <path fill="#07C39F" d="M82 84.9466944L82 79.1836882 80.0318823 81.1363054C78.6627674 79.8151913 76.7982349 79 74.7524283 79 70.4713124 79 67 82.2526012 67 86.5 67 90.7473988 70.4713124 94 74.7524283 94 77.4328149 94 79.8048662 92.6222187 81.1548614 90.4986393L78.9178579 89.1210981C78.0499693 90.4794301 76.5073252 91.397871 74.7524283 91.397871 72.0330763 91.397871 69.8347962 89.2169041 69.8347962 86.5 69.8347962 83.8023051 72.0330763 81.6210981 74.7524283 81.6210981 76.0799155 81.6210981 77.2856659 82.1363855 78.1700119 82.9835121L76.2047985 84.933248 82 84.9466944zM85.5684419 89.9816117C86.5096547 90.8807543 87.8819799 91.4163983 89.4307363 91.4163983 92.1559472 91.4163983 93.3914582 88.5660324 90.3719491 87.7626864L87.8622944 87.1312458C85.7251877 86.5763945 84.2549272 85.1608152 84.2549272 83.15221 84.1958707 80.8566955 86.6664005 78.9436467 89.4307363 79.0012686 91.3326013 79.0012686 93.1165994 79.5940545 94.4500457 80.6079607L92.9010432 82.750537C91.9600765 82.0045728 90.8030615 81.621867 89.4307363 81.621867 87.1368838 81.621867 85.9801149 83.8984143 88.5682655 84.6251711L90.9206823 85.2184371C93.1756559 85.7730484 94.999025 87.1886277 94.999025 89.5225568 95.0575894 92.0094242 92.4696848 94.056204 89.4307363 93.9988221 87.3327545 93.9988221 85.4114501 93.3102398 84 92.1431552L85.5684419 89.9816117zM107.787471 83.897871C106.929316 82.5203298 105.40331 81.6210981 103.667613 81.6210981 100.978251 81.6210981 98.8037821 83.8023051 98.8037821 86.5 98.8037821 89.216664 100.978251 91.397871 103.667613 91.397871 105.40331 91.397871 106.929316 90.4796702 107.787471 89.1210981L110 90.4986393C108.664774 92.6222187 106.318914 94 103.667613 94 99.4333345 94 96 90.7473988 96 86.5 96 82.2526012 99.4333345 79 103.667613 79 106.318914 79 108.664774 80.3965103 110 82.5013607L107.787471 83.897871zM103.583333 84.1923077C104.872033 84.1923077 105.916667 85.2254617 105.916667 86.5 105.916667 87.7745383 104.872033 88.8076923 103.583333 88.8076923 102.294633 88.8076923 101.25 87.7745383 101.25 86.5 101.25 85.2254617 102.294633 84.1923077 103.583333 84.1923077z"/>
  </g>
</svg>
