<svg xmlns="http://www.w3.org/2000/svg" width="16" height="18" viewBox="0 0 18 20">
    <path fill="#CBDDEE" fill-rule="evenodd" stroke="#CBDDEE" d="M9 7.082c-.931-.62-2.097-.908-3.261-.805-2.2.075-3.079 2.772-2.708 5.882.37 3.11 2.21 5.655 4.364 5.601a2.34 2.34 0 0 0 1.193-.249 4.09 4.09 0 0 1-1.625.467c-2.865.28-5.517-2.202-5.913-5.503-.396-3.302 1.605-6.198 4.475-6.46C6.805 5.917 8.07 6.306 9 7.081zm2.877-.832a5.463 5.463 0 0 1 1.957.475c2.256 1.024 3.426 3.56 3.117 6.37-.41 3.507-2.955 6.157-5.715 5.886a3.656 3.656 0 0 1-1.546-.51c.347.199.748.292 1.15.267 2.075.057 3.846-2.664 4.203-5.99.274-2.545-.162-4.833-1.659-5.813a3.238 3.238 0 0 0-1.683-.504c-1.894-.09-2.774-1.347-2.696-2.855.078-1.508 1.076-2.63 2.236-2.574.518.036.995.285 1.311.685a1.89 1.89 0 0 0-1.242-.556c-.881-.1-1.43 1.037-1.507 2.44-.08 1.404.489 2.64 2.074 2.679z"/>
</svg>
