<?xml version="1.0" encoding="UTF-8"?>
<svg width="21px" height="21px" viewBox="0 0 21 21" version="1.1" xmlns="http://www.w3.org/2000/svg" xmlns:xlink="http://www.w3.org/1999/xlink">
    <!-- Generator: Sketch 48.1 (47250) - http://www.bohemiancoding.com/sketch -->
    <title>icon-twitter</title>
    <desc>Created with Sketch.</desc>
    <defs></defs>
    <g id="redisign-1.1-copy-10" stroke="none" stroke-width="1" fill="none" fill-rule="evenodd" transform="translate(-1233.000000, -4257.000000)">
        <g id="Group-28" transform="translate(125.000000, 4257.000000)" fill="#BBC9D3">
            <g id="Group-12" transform="translate(0.000000, 1.000000)">
                <g id="Group-19-Copy" transform="translate(1045.000000, 0.000000)">
                    <path d="M80.8795563,3.37144302 C81.6423666,2.90343782 82.2276809,2.16134624 82.5023772,1.27733641 C81.7881669,1.71175791 80.9989435,2.02592807 80.1568938,2.19601329 C79.4849445,1.45933844 78.5245642,1 77.461701,1 C75.4226096,1 73.770206,2.6954355 73.770206,4.78629207 C73.770206,5.0831287 73.8008452,5.37238192 73.8642367,5.64863498 C70.7960909,5.49046656 68.0755415,3.9846165 66.2530375,1.69225769 C65.9350238,2.25343059 65.7533016,2.90343782 65.7533016,3.59677885 C65.7533016,4.90979344 66.405177,6.06897299 67.3961965,6.74931388 C66.7908082,6.72981366 66.2213418,6.55756175 65.7226624,6.27589195 L65.7226624,6.32247581 C65.7226624,8.15766286 66.9947174,9.68842987 68.6862124,10.0351004 C68.3755943,10.1239347 68.0501849,10.1683519 67.7120972,10.1683519 C67.4743793,10.1683519 67.241944,10.1456016 67.0179609,10.1011845 C67.4870576,11.6048678 68.8510301,12.7012133 70.4675119,12.7304637 C69.2028526,13.7466416 67.6106709,14.3511483 65.881141,14.3511483 C65.5832013,14.3511483 65.2884311,14.3348982 65,14.2991478 C66.6344427,15.372743 68.5752773,16 70.6608558,16 C77.4543053,16 81.1669308,10.2301026 81.1669308,5.22613029 C81.1669308,5.06146179 81.1648177,4.89787664 81.1574221,4.73645818 C81.879028,4.20236892 82.5066033,3.53502817 83,2.77560306 C82.3375594,3.07677308 81.6254622,3.280442 80.8795563,3.37144302 Z" id="Shape"></path>
                </g>
            </g>
        </g>
    </g>
</svg>