<?xml version="1.0" encoding="utf-8"?>
<!-- Generator: Adobe Illustrator 16.0.0, SVG Export Plug-In . SVG Version: 6.00 Build 0)  -->
<!DOCTYPE svg PUBLIC "-//W3C//DTD SVG 1.1//EN" "http://www.w3.org/Graphics/SVG/1.1/DTD/svg11.dtd">
<svg version="1.1" id="Layer_1" xmlns="http://www.w3.org/2000/svg" xmlns:xlink="http://www.w3.org/1999/xlink" x="0px" y="0px"
	 width="500px" height="700px" viewBox="0 0 500 700" style="enable-background:new 0 0 500 700;" xml:space="preserve">
<rect style="fill:#50859F;" width="500" height="700"/>
<path style="fill:#FFFFFF;" d="M145.298,499.374c-13.894-6.942-22.865-16.255-28.662-25.838
	c-14.768,27.797-37.804,90.646-2.492,170.312L145.298,499.374z"/>
<path style="fill:#FFFFFF;" d="M386.125,473.536c-5.787,9.583-14.769,18.896-28.663,25.838l31.144,144.474
	C423.948,564.182,400.902,501.303,386.125,473.536z"/>
<path style="fill:#FFFFFF;" d="M351.435,493.668c37.773-17.169,37.773-52.331,37.102-61.402l-54.25-23.106
	c-24.19,12.057-52.813,18.496-82.901,18.496c-30.088,0-58.719-6.39-82.9-18.496l-54.25,23.106
	c-0.673,9.042-0.673,44.203,37.101,61.402l2.843,1.296l-34.017,157.725h262.447l-34.007-157.735L351.435,493.668z M225.708,536.464
	l-22.182-0.05l7.514-7.515c-7.5-7.233-19.443-7.019-26.677,0.481c-7.234,7.5-7.019,19.443,0.48,26.677
	c7.5,7.234,19.443,7.02,26.678-0.48c0.896-0.929,1.693-1.946,2.381-3.038l8.56,5.314c-5.299,8.418-14.555,13.519-24.502,13.501
	c-16.385,0-29.667-12.547-29.667-28.933s13.281-28.933,29.667-28.933c7.553,0.005,14.804,2.966,20.203,8.248l7.545-7.546V536.464z
	 M251.405,571.385c-7.446,0.099-14.687-2.439-20.444-7.163l5.907-8.338c3.937,3.673,9.155,5.659,14.537,5.535
	c10.257,0,14.909-11,3.546-14.064l-9.442-2.432c-8.037-2.14-13.583-7.604-13.583-15.35c-0.221-8.861,9.042-16.235,19.49-16.014
	c6.81-0.076,13.453,2.103,18.896,6.198l-5.827,8.268c-3.705-2.942-8.33-4.483-13.06-4.35c-8.64,0-12.99,8.78-3.245,11.583l8.86,2.29
	c8.49,2.141,15.351,7.605,15.351,16.607c0.191,9.503-9.554,17.399-20.996,17.178L251.405,571.385z M308.268,523.636
	c-10.414-0.015-18.868,8.417-18.881,18.832c-0.015,10.414,8.417,18.867,18.831,18.881c6.488,0.009,12.526-3.319,15.981-8.81
	l8.561,5.314c-5.299,8.418-14.556,13.519-24.503,13.501c-16.386,0-29.667-12.547-29.667-28.933s13.281-28.933,29.667-28.933
	c9.938,0.015,19.182,5.107,24.503,13.501l-8.561,5.385c-3.437-5.49-9.465-8.813-15.942-8.79L308.268,523.636z M317.118,542.492
	c0,4.871-3.949,8.82-8.821,8.82s-8.82-3.949-8.82-8.82s3.948-8.82,8.82-8.82S317.118,537.621,317.118,542.492L317.118,542.492z"/>
<path style="fill:#FFFFFF;" d="M406.639,230.66c0-1.899-0.08-3.788-0.161-5.667c-0.08-1.587-0.184-3.171-0.311-4.751l0,0
	c-61.584-1.457-99.949-51.466-120.333-75.648c-24.725,34.278-57.464,53.386-89.17,63.834c18.816,3.435,35.573,13.421,38.577,30.892
	c10.477-3.469,21.792-3.469,32.269,0c3.816-22.102,29.666-32.248,53.827-32.248c26.12,0,54.311,11.884,54.311,37.984
	c0,34.157-27.326,52.019-54.321,52.019c-26.34,0-52.982-17.028-54.248-49.588c-4.97-2.08-10.316-3.106-15.703-3.014
	c-5.401-0.081-10.762,0.945-15.752,3.014c-0.583,14.969-6.39,27.606-17.008,36.618c-9.845,8.358-23.045,12.949-37.171,12.949l0,0
	c-26.994,0-54.319-17.872-54.319-52.019c0-10.95,4.962-19.389,12.648-25.507c-7.444,0.563-14.386,0.793-20.584,0.793
	c-9.374,0-17.078-0.482-22.503-1.004l0,0c-0.161,1.802-0.292,3.606-0.392,5.415c-0.091,2.009-0.161,3.938-0.161,5.927
	c0,70.403,56.952,128.731,131.344,139.159c-2.813,25.005-22.102,34.318-46.916,36.357c21.197,9.042,45.439,13.723,70.825,13.723
	c25.387,0,49.609-4.722,70.796-13.702c-25.115-2.01-44.123-11.192-46.886-36.378C349.687,359.391,406.639,301.053,406.639,230.66z
	 M159.091,315.891c-2.602,0-4.711-2.109-4.711-4.711c0-2.603,2.109-4.712,4.711-4.712c2.603,0,4.712,2.109,4.712,4.712
	c0.006,2.596-2.095,4.706-4.691,4.711C159.104,315.891,159.098,315.891,159.091,315.891z M170.614,334.356
	c-2.602,0-4.712-2.109-4.712-4.712c0-2.602,2.11-4.711,4.712-4.711c2.603,0,4.711,2.109,4.711,4.711
	c0.006,2.603-2.099,4.716-4.701,4.722l0,0L170.614,334.356z M182.137,315.891c-2.602,0-4.712-2.109-4.712-4.711
	c0-2.603,2.11-4.712,4.712-4.712c2.603,0,4.711,2.109,4.711,4.712c0,2.598-2.103,4.706-4.701,4.711H182.137z M254.771,270.744v7.746
	c-5.762,0-10.434,4.671-10.434,10.433c0,5.762,4.671,10.433,10.434,10.433v7.745c-10.04-0.239-17.985-8.572-17.746-18.611
	c0.231-9.707,8.048-17.52,17.755-17.746H254.771z M251.375,338.856c-14.225,0-26.12-7.675-27.737-17.842l7.655-1.195
	c1.005,6.339,9.815,11.292,20.092,11.292c10.277,0,19.088-4.962,20.094-11.292l7.654,1.195
	c-1.607,10.177-13.531,17.842-27.748,17.842H251.375z M320.613,315.891c-2.603,0-4.712-2.109-4.712-4.711
	c0-2.603,2.109-4.712,4.712-4.712s4.712,2.109,4.712,4.712C325.325,313.782,323.216,315.891,320.613,315.891L320.613,315.891z
	 M332.137,334.356c-2.603,0.005-4.716-2.1-4.723-4.702c-0.004-2.603,2.1-4.716,4.703-4.722c2.602-0.006,4.715,2.099,4.722,4.702
	c0,0.003,0,0.007,0,0.01c0.004,2.603-2.1,4.716-4.702,4.722l0,0V334.356z M343.659,315.891c-2.602,0.006-4.717-2.099-4.722-4.701
	c-0.006-2.602,2.1-4.716,4.702-4.722c2.603-0.005,4.716,2.1,4.721,4.702c0,0.003,0,0.006,0,0.01
	c0.002,2.594-2.097,4.701-4.691,4.711H343.659z"/>
<path style="fill:#FFFFFF;" d="M181.434,289.329L181.434,289.329c12.296,0,23.719-3.948,32.148-11.111
	c9.413-8.037,14.396-19.459,14.396-33.152c0-20.775-24.11-30.238-46.584-30.238c-22.473,0-46.554,9.463-46.554,30.238
	C134.86,275.435,159.001,289.329,181.434,289.329z M155.907,245.227c0.279,14.096,11.933,25.295,26.029,25.016
	c13.702-0.271,24.744-11.314,25.016-25.016h7.746c-0.319,18.373-15.473,33.009-33.846,32.689
	c-17.923-0.312-32.378-14.767-32.689-32.689H155.907z"/>
<path style="fill:#FFFFFF;" d="M321.326,289.329c22.434,0,46.575-13.854,46.575-44.273c0-20.776-24.111-30.239-46.555-30.239
	s-46.583,9.463-46.583,30.239C274.764,275.445,298.903,289.329,321.326,289.329z M295.81,245.257
	c0.279,14.095,11.933,25.295,26.028,25.016c13.702-0.272,24.744-11.314,25.017-25.016h7.775
	c-0.318,18.373-15.473,33.009-33.846,32.69c-17.924-0.312-32.379-14.767-32.69-32.69h7.746H295.81z"/>
<path style="fill:#FFFFFF;" d="M286.999,44.414c-39.18-15.069-76.149-20.645-113.803-2.01
	C109.925,77.275,66.054,153.093,66.054,241.107c0,54.591,22.784,99.768,79.927,102.802c-35.202-27.315-57.574-67.932-57.574-113.25
	c0-3.687,0.19-7.615,0.573-12.056l0.683-7.735l7.735,0.703c4.752,0.432,12.397,0.944,21.811,0.944
	c40.365,0,114.877-9.413,160.377-72.493l5.815-8.037l6.399,7.605l3.376,4.018c21.097,25.266,56.35,67.56,111.211,68.856l6.982,0.161
	l0.532,6.982c0.332,4.169,0.493,7.675,0.493,11.051c0,45.318-22.404,85.935-57.616,113.21
	C515.106,335.451,409.583,3.536,286.999,44.414z"/>
</svg>
