<svg xmlns="http://www.w3.org/2000/svg" xmlns:xlink="http://www.w3.org/1999/xlink" width="22" height="12" viewBox="0 0 22 12">
  <defs>
    <path id="combined-shape-copy-3-a" d="M2,0 L13,0 C14.1045695,-2.02906125e-16 15,0.8954305 15,2 L15,10 C15,11.1045695 14.1045695,12 13,12 L2,12 C0.8954305,12 1.3527075e-16,11.1045695 0,10 L0,2 C-1.3527075e-16,0.8954305 0.8954305,2.02906125e-16 2,0 Z M17.2680804,3.56373022 L20.2680804,0.341265455 C20.6444023,-0.062962553 21.277163,-0.0855849334 21.6813911,0.290736954 C21.8845883,0.479906376 22,0.745034103 22,1.02265651 L22,10.9773435 C22,11.5296282 21.5522847,11.9773435 21,11.9773435 C20.7223776,11.9773435 20.4572499,11.8619318 20.2680804,11.6587345 L17.2680804,8.43626978 C17.0957876,8.25120056 17,8.00773332 17,7.75487872 L17,4.24512128 C17,3.99226668 17.0957876,3.74879944 17.2680804,3.56373022 Z"/>
  </defs>
  <use fill="#CED8DD" fill-rule="evenodd" xlink:href="#combined-shape-copy-3-a"/>
</svg>
