<svg id="Layer_1" data-name="Layer 1" xmlns="http://www.w3.org/2000/svg" width="30" height="36" viewBox="0 0 30 36"><defs><style>.cls-1{fill:#010101;}</style></defs><title>Artboard 1</title><g id="g2414"><g id="path2416"><path class="cls-1" d="M15.38,12.7a8.31,8.31,0,0,0-6.44-2.26c-5.32.56-9,6.68-8.3,13.67s5.64,12.21,11,11.65a6.91,6.91,0,0,0,3-1,3.9,3.9,0,0,1-2.21.52C8.42,35.41,5,30,4.32,23.44s1-12.29,5-12.45a8.56,8.56,0,0,1,6.05,1.71"/></g><g id="path2418"><path class="cls-1" d="M10.83,36C5.71,36,1.15,30.79.45,24.13a15.09,15.09,0,0,1,1.91-9.37,8.83,8.83,0,0,1,6.57-4.52,8.49,8.49,0,0,1,6.59,2.3l-.26.3h0l.06-.07-.06.07A8.25,8.25,0,0,0,9.9,11.18H9.34A3.86,3.86,0,0,0,6.5,12.61c-1.74,2-2.49,6.06-2,10.81.7,6.66,4,11.68,7.77,11.68h.12a4.68,4.68,0,0,0,1.75-.29l.37-.21.22.33a2.51,2.51,0,0,1-.41.23,7.09,7.09,0,0,1-2.69.79A7.73,7.73,0,0,1,10.83,36ZM9.72,10.6a7.34,7.34,0,0,0-.76,0A8.45,8.45,0,0,0,2.7,15,14.7,14.7,0,0,0,.84,24.09c.68,6.46,5.06,11.51,10,11.51a7.31,7.31,0,0,0,.76,0l.55-.07c-3.87-.13-7.3-5.26-8-12-.51-4.86.27-9,2.08-11.11a4.24,4.24,0,0,1,3.13-1.56,11.62,11.62,0,0,1,2.83.21A7.68,7.68,0,0,0,9.72,10.6Z"/></g><g id="path2420"><path class="cls-1" d="M19.63,10.58a10.27,10.27,0,0,1,3.72.92c4.34,2,6.59,7,6,12.61-.73,7-5.64,12.21-11,11.65a6.91,6.91,0,0,1-3-1,3.89,3.89,0,0,0,2.21.52c4,.12,7.4-5.27,8.09-11.86.53-5-.31-9.57-3.19-11.51a6.1,6.1,0,0,0-3.24-1c-3.65-.18-5.34-2.66-5.18-5.61S16.17.08,18.41.2a3.49,3.49,0,0,1,2.52,1.36A3.59,3.59,0,0,0,18.54.45c-1.69-.2-2.75,2.06-2.9,4.83s.91,5.23,4,5.3"/></g><g id="path2422"><path class="cls-1" d="M19.18,36a7.73,7.73,0,0,1-.8,0,7.09,7.09,0,0,1-2.69-.79,2.51,2.51,0,0,1-.41-.23l.22-.33.37.21a4.66,4.66,0,0,0,1.75.29h.12c3.73,0,7.07-5,7.77-11.68.58-5.48-.56-9.61-3.1-11.33a5.93,5.93,0,0,0-3.13-1A5.69,5.69,0,0,1,15.19,9.4a5.58,5.58,0,0,1-1.31-4.09C14,2.26,16.05-.11,18.42,0a3.68,3.68,0,0,1,2.66,1.43l-.3.25a3.42,3.42,0,0,0-2.27-1C16.85.46,16,2.89,15.84,5.29a5.51,5.51,0,0,0,1.11,4,3.62,3.62,0,0,0,2.69,1.09,10.5,10.5,0,0,1,3.8.94c4.32,2,6.72,7,6.11,12.81C28.85,30.79,24.29,36,19.18,36Zm-1.31-.51.55.08a7.31,7.31,0,0,0,.76,0c4.92,0,9.3-5.06,10-11.51.59-5.6-1.72-10.48-5.89-12.41a9.92,9.92,0,0,0-3-.84,6,6,0,0,1,2.31.92c2.71,1.83,3.88,6,3.28,11.69C25.17,30.24,21.74,35.36,17.87,35.49Zm-.51-35c-1.67.51-3,2.44-3.09,4.8a5.19,5.19,0,0,0,1.21,3.8,5.09,5.09,0,0,0,3.24,1.55,3.72,3.72,0,0,1-2.06-1.12,5.88,5.88,0,0,1-1.22-4.29C15.57,2.93,16.3,1.18,17.36.53Z"/></g></g></svg>