<?xml version="1.0" encoding="utf-8"?>
<!-- Generator: Adobe Illustrator 19.0.0, SVG Export Plug-In . SVG Version: 6.00 Build 0)  -->
<svg version="1.1" id="Layer_2" xmlns="http://www.w3.org/2000/svg" xmlns:xlink="http://www.w3.org/1999/xlink" x="0px" y="0px"
     viewBox="0 0 200 126.4" style="enable-background:new 0 0 200 126.4;" xml:space="preserve">
<style type="text/css">
    .st0{fill:#1d1d1d;}
</style>
<g id="XMLID_391_">
    <g id="XMLID_160_">
        <path id="XMLID_207_" class="st0" d="M128.5,51.4l0.2,0.2l1.4,0.9c2.5,1.8,5.2,3.9,8.2,4.7c2,0.5,2.7,0.2,4.5-0.2c-0.2-0.2-0.7-0.4-1.4-1.1
            c-0.5-0.4-0.9-0.7-1.4-1.1c-2-1.6-3.9-2.9-6.6-3.4C131.4,51,130.1,51.2,128.5,51.4z"/>
        <path id="XMLID_161_" class="st0" d="M84.7,37.9l2.9-0.4l-0.4,0.7c-0.4,0.5-1.1,1.6-1.3,2.2l2.5-1.1L88,42.2l0.7-0.9c0.2-0.2,0.4-0.7,0.7-0.7
            l0.2,2.9c0.5-0.5,0.5-0.7,0.7-1.4c0-0.4,0.4-1.4,0.5-1.6l0.7,1.6l0.5,1.3c0,0.2,0.2,0.2,0.2,0.4c0.2-0.2,0.2-0.2,0.2-0.4
            c0-0.4,0-0.9,0-1.1c0-0.4-0.2-1.1,0-1.6c0.5,0.4,1.8,1.4,2.5,1.6l-1.3-2.2l2.5,0.7l-0.4-0.5c-0.4-0.4-1.1-1.1-1.3-1.6h1.8
            c0-0.2,0-0.2,0-0.2c-0.2-0.2-0.4-0.4-0.5-0.5c-0.2-0.2-0.7-0.4-0.9-0.7c0.7,0,2,0.2,2.7,0c0.4,0,0.5,0,0.7-0.2L98,36.9
            c-0.7-0.4-2.7-0.4-3-0.9c0.7-0.7,0.4-0.4,1.3-0.9c0.4-0.2,1.1-0.5,1.3-0.9c-0.2,0-2.5,0.5-2.7,0.5c-0.4,0-0.4-0.2-0.4-0.2l1.4-2.9
            l-0.7,0.2c-0.9,0.4-1.3,1.6-2.3,1.3c0-0.7,1.1-2.2,0.7-2.7c-0.5,0.5-0.5,0.7-0.9,1.4c-0.2,0.4-0.5,1.3-1.1,1.3l-0.5-2
            c-0.2-0.4-0.4-1.6-0.9-1.6l-0.2,3.2c-0.2,0.2-0.2,0-0.2,0c-0.5,0-2.2-1.8-2.3-2c0.5,0.9,0.7,1.3,1.3,2.2c0.2,0.4,0.4,0.4,0.4,0.7
            h-1.8c-0.4,0-1.4-0.4-1.6-0.4c0.5,0.4,2.3,1.4,2.3,2l-3.8,0.2l1.4,0.7c0.4,0.2,1.3,0.4,1.4,0.5c-0.4,0.2-1.8,0.9-2.2,1.1
            C84.7,37.9,84.7,37.8,84.7,37.9z M90.5,34c1.6-0.4,2.9,0.9,3,2.2c0.4,1.6-0.7,2.9-2,3.2c-1.6,0.4-2.9-0.7-3-2.2
            C88.3,35.6,89.2,34.4,90.5,34z"/>
    </g>
    <g id="XMLID_158_">
        <path id="XMLID_159_" class="st0" d="M88.5,122.6v-3.1H74.9c4.8-4,10.1-8.1,12.3-14.2c0.2-0.7,0.3-1.5,0.3-2.3c0-1.9-0.7-3.3-2.1-4.3
            c-1.4-1-3.4-1.6-5.7-1.6l0,0c-1,0-2.1,0.1-3,0.5c-0.9,0.3-1.7,0.8-2.4,1.3c-0.7,0.6-1.2,1.2-1.5,1.7c-0.3,0.6-0.6,1.3-0.6,1.9
            c0,0.7,0.1,1.3,0.5,1.6c0.3,0.3,0.8,0.6,1.4,0.6c0.7,0,1.3-0.2,1.6-0.5c0.3-0.3,0.6-0.7,0.6-1.2c0-0.5-0.1-1-0.2-1.5
            c-0.1-0.5-0.2-0.9-0.3-1.4c0.3-0.6,0.8-0.9,1.5-1.3c0.7-0.3,1.4-0.5,2.2-0.5c1.3,0,2.2,0.3,3,1c0.8,0.7,1.2,1.7,1.2,3.3
            c0,1-0.1,1.7-0.2,2.3c-0.6,6.2-8.6,11.9-11.4,15.1v2.4h16.5V122.6z"/>
    </g>
    <g id="XMLID_153_">
        <path id="XMLID_154_" class="st0" d="M125.1,107.2c0-2.8-0.5-4.9-1.4-6.5c-0.9-1.5-2.1-2.3-3.6-2.3c-1.4,0-2.6,0.6-3.4,1.9
            c-0.8,1.2-1.3,2.9-1.3,5c0,1.9,0.5,3.5,1.3,4.7c0.9,1.2,2.1,1.7,3.5,1.7c0.9,0,1.7-0.1,2.6-0.5c0.8-0.3,1.5-0.9,2.1-1.6
            c0,0,0-0.1,0-0.2s0-0.3,0-0.6c0-0.1,0-0.3,0-0.6C125.1,107.7,125.1,107.5,125.1,107.2z M128.9,107.5c0,2.1-0.3,4-0.9,5.8
            c-0.7,1.9-1.6,3.4-2.8,4.8s-2.7,2.4-4.3,3.4c-1.7,0.9-3.6,1.5-5.7,1.7l-0.3-1.6l1.6-0.2c2.6-0.8,4.5-2,5.9-3.7
            c1.4-1.6,2.3-3.7,2.8-6.3c-0.9,0.8-2,1.4-2.9,1.9c-0.9,0.3-2.1,0.6-3.3,0.6c-2,0-3.6-0.7-5-2.2c-1.4-1.5-2.1-3.4-2.1-5.7
            c0-2.4,0.8-4.5,2.4-6.2c1.6-1.6,3.7-2.6,6-2.6c2.7,0,4.8,0.9,6.3,2.8C128,101.6,128.9,104.2,128.9,107.5z M91.3,117.9L91.3,117.9
            c0,0.7,0.2,1.3,0.6,2c0.3,0.6,0.8,1.2,1.5,1.6s1.5,0.8,2.3,1.2c0.9,0.2,2,0.5,3,0.5c2.7,0,5-0.7,6.9-2.1c1.9-1.4,2.7-3.3,2.7-5.5
            c0-1.2-0.2-2.1-0.6-2.9c-0.3-0.8-0.9-1.4-1.5-1.9c-0.6-0.5-1.3-0.8-2-1c-0.7-0.2-1.5-0.3-2.1-0.5v-0.2c1-0.2,1.9-0.7,2.6-1.2
            c0.7-0.5,1.3-0.9,1.6-1.5c0.3-0.5,0.7-1,0.8-1.6c0.1-0.6,0.2-1.2,0.2-1.7c0-0.5-0.1-1-0.3-1.7c-0.2-0.7-0.6-1.3-1-1.9
            c-0.6-0.6-1.3-1.2-2.2-1.5c-0.9-0.5-2.1-0.7-3.6-0.7c-1.3,0-2.3,0.1-3.4,0.5c-0.9,0.3-1.7,0.8-2.4,1.4c-0.7,0.6-1.2,1.2-1.5,1.7
            c-0.3,0.6-0.5,1.3-0.5,1.9c0,0.6,0.1,1,0.5,1.5c0.2,0.5,0.7,0.7,1.4,0.7c0.7,0,1.3-0.1,1.6-0.6c0.3-0.3,0.6-0.7,0.6-1.2
            c0-0.5-0.1-1-0.2-1.5c-0.1-0.6-0.2-1-0.3-1.4c0.1-0.1,0.2-0.2,0.5-0.5c0.2-0.2,0.5-0.3,0.7-0.6c0.2-0.1,0.6-0.2,0.9-0.5
            c0.3-0.1,0.9-0.2,1.5-0.2c1.3,0,2.2,0.3,2.9,1.2c0.7,0.7,1,1.9,1,3.4c0,1.9-0.3,3.1-1,4.1c-0.7,0.9-1.9,1.4-3.5,1.4h-1.5v2h2.3
            c0.9,0,1.7,0.1,2.4,0.3c0.6,0.2,1.2,0.6,1.5,1c0.3,0.5,0.6,1,0.7,1.6c0.1,0.6,0.2,1.3,0.2,1.9c0,1.2-0.1,2.1-0.5,2.9
            c-0.2,0.7-0.7,1.4-1.2,1.9c-0.5,0.5-1,0.9-1.7,1.2s-1.3,0.3-2.1,0.3c-0.7,0-1.4,0-1.7-0.1c-0.5-0.1-0.8-0.2-1.2-0.5
            c-0.3-0.1-0.6-0.3-0.8-0.5c-0.2-0.2-0.3-0.3-0.5-0.5c0.1-0.2,0.1-0.7,0.2-1.3c0.1-0.6,0.2-1,0.2-1.4c0-0.5-0.2-0.8-0.6-1.2
            c-0.3-0.3-0.9-0.6-1.6-0.6c-0.6,0-1,0.2-1.4,0.7C91.5,116.9,91.3,117.3,91.3,117.9z"/>
    </g>
</g>
<g id="XMLID_1_">
    <path id="XMLID_4_" class="st0" d="M128.3,55.7c-0.2-0.4-1.6-2-1.8-2.3c-2.3-2.3-5.7-3.6-9.1-2.5c0,1.1,1.1,2,1.6,2.3c0.7,0.5,1.6,1.1,2.5,1.6
        C123.7,55.5,125.8,55.9,128.3,55.7z"/>
    <path id="XMLID_11_" class="st0" d="M126.9,48.7c2.9,0.7,6.8,0.9,9.9,0.5s6.3-0.7,9-2c-0.9-0.4-3.2-1.8-4.5-2.2c-3.6-0.7-8.2,1.8-12,2.9
        L126.9,48.7z"/>
    <path id="XMLID_14_" class="st0" d="M108.6,38.1l-1.1,0.9c-0.4,0.2-1.1,0.5-1.3,0.9l3.6-0.5l-0.2,0.4c-0.2,0.4-1.4,2-1.3,2.5l1.3-1.1
        c0.2-0.2,0.9-0.9,1.4-0.9l0.2,3c0.5-0.9,0.4-0.7,0.7-1.6c0.2-0.4,0.4-1.4,0.5-1.8l0.7,0.5c0.4,0.4,0.9,2,1.4,2l-0.2-2.9
        c0.7,0,1.4,2,2.2,1.6c0.2-0.2,0-0.4,0-0.5c-0.4-0.9-1.3-2.2-1.3-2.7l2.9,0.7c-0.5-0.4-2.5-1.4-2.5-1.6l3.4-1.3l-3.2-0.2
        c0.7-0.4,1.4-0.7,2.2-1.3l-2.5-0.2l0.9-1.1c0.4-0.4,0.7-0.7,0.7-1.1l-2.3,0.5c0.4-0.4,1.3-1.4,1.3-1.8c-0.7,0.4-1.3,0.5-2,1.1
        c-0.7,0.5-0.9,0.7-1.1,0.7c-0.2-0.7,0.4-2.2,0-2.9l-1.3,3c-0.4-0.9-0.5-1.4-0.9-2.3c-0.2-0.4-0.2-0.5-0.5-0.5l-0.2,3l-0.9-0.9
        c-0.2-0.4-0.4-0.9-0.7-0.9l0.5,2.7l-2.5-1.3l0.7,1.6c0.4,0.5,0.9,1.1,0.7,1.4l-2.9-0.4l2.3,1.3l-2.7,1.3L108.6,38.1z M111.6,34.4
        c1.6-0.4,2.7,1.1,2.9,2.3c0.2,1.6-0.9,2.9-2.2,3c-1.6,0.2-2.7-1.1-2.9-2.3C109.3,35.8,110.4,34.5,111.6,34.4z"/>
    <path id="XMLID_15_" class="st0" d="M123.7,47.8c3.8-1.3,7-3.6,9.9-6.1c-0.2-0.2-0.9-0.2-1.3-0.2c-4.5,0-9.7,3-12.6,6.1c0,0.4-0.4,0.5-0.5,0.9
        C120.2,48.9,122.8,48.2,123.7,47.8z"/>
    <path id="XMLID_18_" class="st0" d="M176.2,29.7l-3.9-0.4c0.2-0.2,0.4-0.4,0.5-0.5c1.1-1.1,2.5-2.9,3.4-4.1c0.5-0.7,1.4-2.2,1.1-3.2
        c-0.2-0.5-0.5-0.9-1.1-1.1h-2c0.2-0.5,0.7-1.3,1.1-1.8c0.7-1.3,1.8-2.7,1.8-4.1c0-0.9-0.5-1.6-1.3-1.8c-1.4-0.4-3.8,0.4-4.8,0.9
        l-2.5,1.1c-7.2,3.4-14.2,7.9-21,12.2c-1.1,0.7-2,0.9-3,1.4c-3.9,1.8-8.2,3.6-11.8,5.9c-3.2,2.1-5.5,3.7-7.3,7.2
        c-0.2,0.1-0.3,0.1-0.5,0.2c-0.3,0.2-0.6,0.3-0.8,0.4c0,0-0.1,0-0.1,0.1c0-0.1,0-0.2,0-0.3c0.4-3.2,0.2-7-1.6-9.7
        c-0.5-0.9-1.1-1.3-1.6-1.8c-0.4-0.4-0.7-0.7-1.3-0.9c-0.2,0-0.2,0-0.2,0c-0.2-0.2-0.4-0.2-0.5-0.4l-5.6-1.1
        c0.7-1.4,7.7-4.5,8.4-5.2l0.9-0.9c-0.4-0.5-2.3-0.5-3-0.5c-4.7,0-10,2-13.6,4.5c-2,1.4-2.2,1.8-3.6,3.6c-0.2-0.2-1.4-1.4-1.8-1.8
        c-0.7-0.7-1.3-1.3-2-1.8c-2.9-2.3-6.3-4.1-10-4.8c-1.1-0.2-2.2-0.4-3.2-0.5L82,20.5c0,0.7,1.4,1.6,2,2c1.6,1.1,3.2,2.2,4.7,3.2
        c0.2,0.2,0.4,0.2,0.5,0.4c0.2,0,0.4,0.2,0.5,0.4c0.4,0.2,0.5,0.5,0.9,0.9c-0.4,0-0.9,0.2-1.3,0.2c-2.7,0.4-5.6,1.6-7.4,3.4
        c-0.2,0.2-0.2,0.2-0.4,0.4C81,32,80.4,33.1,79.9,34c-2.7,5.4-0.5,13.5,1.8,19c0.2,0.4,1.1,2.3,1.1,2.5c0,0.2-0.2,0.4-0.2,0.5
        l-0.2,1.3c-0.4,0-0.7-0.7-0.9-0.9c-0.7-1.1-1.3-2.7-1.8-3.8c-0.7-1.6-1.6-3-2.2-5c-1.1-4.1-1.8-7-4.5-10c-0.5-0.7-1.1-1.3-1.8-1.8
        c-0.7-0.5-1.4-0.9-2.2-1.4c-3.6-2.3-5.6-3.4-9.3-5c-2.5-1.3-5.2-2.2-7.7-3.2c-0.4-0.2-0.7-0.5-1.1-0.7c-3.2-2.2-6.6-4.1-10-6.1
        c-3.4-2-10.8-6.1-14.5-7c-2.5-0.5-4.3,0.4-3.2,3c0.4,0.7,0.9,1.6,1.3,2.3l1.4,2.2c-0.9,0-2.2-0.2-2.9,0.5c-0.2,0.2-0.2,0.4-0.4,0.7
        v0.7l0.2,0.5c0.7,2,3.4,4.7,4.8,6.3c-1.3,0-2.7-0.2-3.8,0.4c-1.1,0.7-1.1,1.8-0.4,2.9c0.9,1.4,2.9,3,4.3,4.1
        c-0.9,0.4-2.5,0.2-2.9,1.6c-0.4,1.4,1.1,2.5,1.6,2.9c1.1,0.9,2.5,2,3.9,2.7c0.2,0.2,0.5,0.2,0.7,0.4c0.2,0,0.2,0.2,0.4,0.2
        c0.4,0.2,0.2,0,0.4,0.2c-1.3,0.2-2.7,0.5-3.6,1.3c-1.1,0.9-0.4,2.5,0.7,3l6.6,2.9c-0.7,0.4-3.9,1.1-3.6,3c0.2,0.5,0.5,1.1,1.1,1.3
        c2,1.1,5.4,1.4,7.5,1.8c-0.2,0.2-1.6,1.1-2,1.3c-0.2,0.2-0.4,0.4-0.5,0.5c-0.7,0.9-0.9,2.2,0.4,2.7c1.8,0.7,5.7,0.7,7.9,0.5
        c-0.9,0.7-2.5,1.8-2.7,3c-0.4,2.2,2.7,1.8,3.9,1.8c1.1,0,2.3-0.2,3.4-0.4c-0.5,0.2-2.7,2.7-0.7,3.6c1.3,0.7,5.2-0.4,6.6-0.9
        l1.4-0.5c-0.2,0.4-0.4,0.5-0.5,0.7c-0.5,0.7-1.1,1.3-1.4,2.2c-0.5,1.6,0.5,2.3,2.2,2c1.3-0.4,2.3-0.7,3.4-1.3c1.1-0.5,2-1.3,3-1.8
        c0,0.2-0.2,0.5-0.4,0.7c0,0.2-0.2,0.5-0.4,0.7c-0.2,0.4-0.5,0.9-0.7,1.4c-0.5,1.3,0.2,2.7,1.8,2.2c2-0.7,3.9-2.2,5.6-3.4
        c-0.4,1.1-1.4,2.3-1.1,3.6c0.2,0.5,0.7,1.1,1.4,0.9c0.9,0,2.3-1.1,3-1.6c0.4-0.4,0.9-0.7,1.3-1.1c0.4-0.5,0.7-0.7,1.1-1.3l1.1-1.3
        c-0.4,1.1-2.2,4.3-1.1,5.4c1.3,1.4,4.3-2,5-3c0.7-1.1,1.3-2.2,1.8-3.4c0.5-1.8,0.9-3.8,1.3-5.7l1.1,0.5c0,2,0,3.4,0.5,5.2
        c0.5,2,1.3,3.4,2.2,5C88.9,76,89,76,89,76.5c0,0.9,0.2,1.6,0.5,2.3c0.2,0.7,0.5,1.3,0.9,2l0.9,2c-0.2,0.2-0.4,0.4-0.5,0.5
        c-0.7,0.5-1.3,1.1-1.8,1.6c-0.7,0.9-1.4,1.6-1.8,2.9c0,0.4-0.4,1.6-0.2,2c0.2,0.5,0.7,1.3,1.1,1.3c1.4,0,2.5-1.1,3.4-1.3
        c0.2,0.4,0.5,0.9,0.9,1.1c0.4,0.4,1.1,0.4,1.6,0.2c0.9-0.5,1.6-1.3,2.2-2c0.2,0,0.5,0.4,0.7,0.5c0.7,0.5,1.1,1.4,2,1.8
        c1.3,0.4,1.8-1.1,1.8-2v-1.1h0.4c0,0.4-0.4,1.1-0.4,1.8c0,0.7,0.4,1.3,1.1,1.1c0.7-0.2,1.8-1.4,2.3-2c0.7,0.2,1.3,2,2,2
        c1.6-0.2,1.6-1.1,2.3-1.6c1.1,0.2,2.5,1.3,3.8,1.1c0.5,0,1.1-0.5,0.9-1.3c0-2.7-1.6-4.7-5-7c0.2-0.4,1.3-2.2,1.6-3.8l0.9-4.5
        c0.2-0.2,0.5-0.4,0.7-0.7c0.7-0.7,1.6-2,1.8-3l0.7-5.6l0.7-0.5c0.2,0.4,0.4,1.3,0.4,1.8c0,0.7,0.2,1.3,0.4,2c0.4,2.2,1.6,4.8,3,6.3
        c0.7,0.7,1.4,1.4,2.5,2.2c1.4,0.9,2.5,0,2.2-1.8c-0.2-0.5-0.5-1.3-0.7-1.8c-0.4-0.9-0.4-1.1-0.5-1.4c1.1,1.8,2.7,3.4,5.7,4.8
        c0.5,0.4,1.8,1.1,2.5,0.5c0.9-0.5,0.5-2,0.2-2.7l-0.7-1.4c0.2,0.2,0.2,0.2,0.4,0.4c1.4,1.3,3.8,2.5,5.4,3c0.9,0.2,1.4-0.2,1.6-0.9
        c0.4-1.4-0.7-3-1.6-4.3c0.2,0.2,0.4,0.4,0.7,0.5c0.7,0.7,4.3,2.2,5.2,2.3c0.9,0.4,1.8,0.5,2.3,0c0.7-0.5,0.5-1.3,0.2-2
        c-0.7-1.1-0.7-1.3-1.6-2.3c1.4,0.7,6.3,2.3,8.1,1.6c1.4-0.5,0.7-2,0-2.9c-0.4-0.4-0.4-0.4-0.7-0.7c1.6,0,4.3,1.4,6.8,0
        c1.6-1.3-0.4-3-1.4-3.8l-1.3-0.9c1.6,0,2.2,0.2,4.3,0.2c1.3,0,2.9,0,3.9-0.5c1.4-0.7,1.1-2,0.2-2.9l-2.9-1.8
        c0.7-0.2,1.4-0.2,2.2-0.2c1.8-0.2,4.3-0.7,5.7-1.4c1.4-0.7,1.6-2,0.4-2.9l-3.2-1.6c1.4-0.5,2-0.5,3.8-1.3c1.3-0.5,3.9-1.6,4.5-2.9
        c0.2-0.7-0.2-1.4-0.5-1.8c-0.9-0.7-2.3-1.1-3.4-1.3l-0.4-0.2h0.2l1.3-0.7c1.4-0.7,2.9-1.8,4.1-2.7c0.5-0.5,2-1.6,1.6-2.9l-3-1.6
        l0.4-0.2c0.9-0.7,1.6-1.4,2.5-2.2c0.7-0.5,1.1-0.9,1.6-1.6C177.3,31.5,177.3,30.2,176.2,29.7z M80.1,64.8h0.5
        c-0.2,0.4-0.4,0.7-0.5,1.1c-0.2,0.5-0.5,1.1-0.7,1.3L80.1,64.8z M24.1,13.6c3-0.5,15.1,6.6,17.4,8.1l5.9,3.6
        c1.3,0.7,1.3,0.7,1.6,1.6c1.4,3,2.7,5.7,4.3,8.6c-0.9-0.2-3.9-1.3-4.8-1.4c-1.6-0.5-3-1.1-4.7-1.8c-1.4-0.7-3-1.3-4.3-2.2
        c-2-1.3-3.9-2.3-5.7-3.9c-1.3-1.1-3-2.7-4.1-3.9c-0.9-1.1-1.3-1.4-2.2-2.7C26.8,18.6,24.1,14.8,24.1,13.6z M27.7,26.6L26.3,25
        c-0.4-0.4-2.3-2.9-2.3-3.6c0.5-0.4,2.2,0,2.7,0.2c0.5,0.2,0.5,0.4,0.9,0.7c0.9,1.3,2.3,2.5,3.4,3.6c0.7,0.7,1.3,1.3,2.2,1.8
        c6.3,5,13.3,7.7,21,9.9c0.9,0.2,0.5,0,1.4,1.6C53,39,47.4,37.8,45.3,37c-4.5-1.3-8.8-3.2-12.6-5.9c-0.5-0.4-1.3-0.9-1.8-1.4
        C29.9,28.6,28.8,27.9,27.7,26.6z M24.1,30.4c0.9-0.5,3.8,0,4.8,0c0.5,0,1.1,0.7,1.6,1.1c0.5,0.4,1.1,0.7,1.6,1.1
        c4.8,3.2,9.5,5.2,15.2,6.5c3,0.7,5.9,1.3,9.1,1.6l0.5,0.7c-6.3,0.4-13.8-0.2-19.7-2.3c-2.9-1.1-5.2-2.2-7.4-3.8
        C29.1,35.3,24.1,31.5,24.1,30.4z M30.4,41.2c-1.1-0.7-3.9-2.5-4.3-3.2c0.5-0.2,3-0.7,3.6-0.4c0.9,0.5,1.6,1.1,2.7,1.6
        c2,0.9,3.8,1.8,6.1,2.5l15.1,2l4.7-0.2l0.7,1.1l-11.1,1.1c-4.7,0-8.6-0.7-12.6-2.2C33.4,42.8,31.8,42.1,30.4,41.2z M30.8,47.4
        c-0.7-0.5-1.1-0.7-1.6-1.1c0.9-0.7,4.8-1.3,5.4-1.3c0.4,0.2,1.1,0.4,1.6,0.5c5,1.6,10.6,2,15.8,1.4c1.3-0.2,2.7-0.2,3.9-0.4
        l3.9-0.5l0.5,0.7c-0.4,0.4-2.9,1.1-3.6,1.3C49.9,50.3,43,51.4,36,49.4C34.2,48.9,32.4,48.2,30.8,47.4z M37.8,55l-4.3-1.3
        c0-0.2,0-0.2,0.2-0.2l0.2-0.2c1.1-0.7,2.9-1.3,4.1-1.6c0.7-0.2,0.5-0.2,1.3-0.2c4.7,0.7,9.5,0.2,13.8-0.9c2.9-0.7,5.4-1.6,8.2-2.5
        l0.5,0.9c-0.4,0.4-3.8,2-4.1,2.2c-4.5,2.5-9.5,4.3-14.9,4.3C41.3,55.5,39,55.3,37.8,55z M43.7,60.7c-0.4,0-4.1-0.4-4.7-0.5
        c0.4-0.7,4.7-2.9,5.4-3c2.5-0.2,4.8-0.5,7.2-1.3l11.7-5.2l0.9,1.1c-0.5,0.5-3.6,2.7-4.1,3.2c-1.4,0.9-2.9,2-4.5,2.7
        C51.9,59.5,48.2,60.7,43.7,60.7z M45.6,65.4h-0.5c0.4-0.7,4.5-3.6,5-3.9c0.5-0.2,1.4-0.4,2.3-0.7c2.9-1.1,5.6-2.5,7.9-4.1
        c0.9-0.5,1.6-1.1,2.3-1.6c1.1-0.9,1.1-0.9,2.3-1.6l0.9,1.3l-2,2c-3.4,3.4-6.8,6.3-11.8,7.9C50.7,65,47.8,65.6,45.6,65.4z
         M57.1,67.2c-1.6,0.9-4.1,1.4-5.9,1.6c0.2-0.7,2.5-2.5,3.2-3.2c0.2-0.2,0.2-0.2,0.5-0.4c2.7-1.3,5.6-3,7.7-5
        c0.4-0.4,0.7-0.5,0.9-0.9c0.4-0.4,1.6-1.6,2-1.8l2.3-1.4c0.2,0.4,0.7,0.7,0.9,0.9c-0.2,0.4-2.2,2.7-2.3,3l-0.9,0.9
        c-0.2,0.2-0.2,0.4-0.4,0.5c-0.7,0.9-2.5,2.3-3.4,3C60.5,65.6,58.9,66.5,57.1,67.2z M62.5,70.2c-1.1,0.4-3,1.4-4.5,1.6
        c0.2-0.5,1.6-2.2,2-2.7c0.2-0.2,0.2-0.4,0.4-0.4c0.2-0.2,0.4-0.2,0.4-0.4c1.1-1.3,5.4-5.4,6.8-6.6c0.2-0.2,0.2-0.2,0.4-0.4
        c0.2-0.2,0.4-0.2,0.4-0.4c0.7-0.7,1.4-1.3,2.2-1.8l0.9,0.7c-0.2,0.5-2.2,3.4-2.3,3.9C67.3,66.3,65,68.8,62.5,70.2z M71.1,69.3
        c-1.3,1.4-2.5,2.7-4.3,3.6c-0.4,0.2-1.4,0.9-1.8,0.9c0.5-1.8,5.2-7.4,6.6-9.1c0.7-0.9,1.6-2,2.3-2.9l0.9,0.5c0,0.5-1.3,3-1.6,3.8
        C72.7,67.4,71.8,68.4,71.1,69.3z M77.6,68.1c-0.9,2.3-1.8,3.4-3.4,5.2c-0.7,0-2,1.1-2.7,1.4c0.2-0.7,1.1-2.2,1.4-2.7
        c0.5-0.9,1.1-1.8,1.6-2.5c1.1-1.8,2.2-3.4,3.4-5l0.7,0.4C78.6,65.6,77.7,67.4,77.6,68.1z M82,68.1c-0.5,1.8-1.3,3.4-2.3,4.8
        c-0.5,0.7-1.3,1.4-1.8,1.8c0.4-1.8,3.9-8.1,4.7-9.7C82.6,65.7,82.2,67.4,82,68.1z M146.4,34.2c1.3-2.2,2.7-5.2,3.6-7.4
        c0.5-1.4,0.4-1.1,1.4-1.8c0.7-0.4,1.3-0.9,2-1.3c1.3-0.7,2.7-1.6,3.9-2.3c2.7-1.6,5.2-3,8.1-4.5l9.1-3.4c0.2,1.3-3.9,6.8-4.8,7.9
        c-5.6,6.6-13.1,10.8-21.3,13.3c-0.7,0-1.6,0.4-2.5,0.5C146.1,34.9,146.3,34.5,146.4,34.2z M144.5,37.9c0.4-0.5,0.2-0.5,0.9-0.7
        c0.7-0.2,1.6-0.4,2.3-0.7c6.8-2,12.9-4.7,18.3-9.1c0.2-0.2,1.4-1.3,1.6-1.4l1.6-1.4c0.9-0.9,1.6-1.8,2.5-2.9
        c0.2-0.2,0.2-0.2,0.5-0.2l2.7-0.2c0,0.7-1.3,2.2-1.8,2.9c-0.5,0.5-1.6,2-2.2,2.5c-0.2,0.2-0.2,0.2-0.4,0.4
        c-6.1,6.6-15.2,9.9-24.2,11.5c-0.5,0-1.6,0.4-2.5,0.4C144.1,38.7,144.3,38.1,144.5,37.9z M111.5,28.8c4.7-0.4,8.4,3.4,8.6,7.7
        c0.2,4.5-3.2,8.6-7.5,8.8c-4.7,0.4-8.2-3.4-8.6-7.7C103.6,32.9,107.2,29.2,111.5,28.8z M101.2,38.8l0.5,0.7l2.3,4.1
        c0.4,0.7,0.4,0.4-0.2,1.8c-0.1,0.1-0.2,0.4-0.5,1l0,0L102,50l0,0c-0.6,1.5-1.1,2.9-1.2,3c-0.2-0.2-2.9-7-3-7.5
        c-0.5-1.4-0.4-0.7,1.3-3.4c0.4-0.5,0.7-1.1,1.1-1.6L101.2,38.8z M90.1,28.4c4.8-0.5,8.4,3.2,9,7.5c0.5,4.8-3,8.6-7.4,9
        c-4.8,0.7-8.6-3-9-7.4C82.4,32.9,86,29,90.1,28.4z M84.2,54.3c-0.5,0.4-0.5,0.4-1.1,0c-0.5-0.4-1.3-1.1-1.3-2
        c0.4-0.2,2.9-1.4,3.6-1.8c2.5-1.3,5.4-2.5,8.1-2.9l4.8-0.5l0.9,2.5c-0.9-0.2-4.3,0.5-5.4,0.7c-1.6,0.4-3.2,0.9-4.7,1.4
        c-1.4,0.5-2.9,1.3-4.1,2C84.7,53.9,84.4,54.1,84.2,54.3z M98,90c-0.5-0.5-1.4-1.8-2.2-1.8c-0.7,0-1.4,1.4-2,1.8
        c-0.2,0.2-0.7,0.2-0.9,0c-0.4,0-0.9-1.1-1.1-1.4c-0.5-0.5-1.1,0-1.6,0.4c-0.4,0.2-0.4,0.4-0.7,0.5c-0.2,0-0.7,0.5-0.9,0.5
        c-0.7-0.4-0.2-1.4,0-1.8c0.9-1.8,3.8-4.5,6.3-3.6c0.5,0.2,1.3,0.7,1.6,0.9c0.9,0.7,1.6,1.6,2.3,2.9c0.2,0.4,0.2,0.4,0.2,0.9
        C98.9,90.1,98.7,90.7,98,90z M100.3,78.1c-1.8-2.3-2.2,6.1-5.4,2.7c-1.1-1.1-1.6-2.7-2.3-4.1c-0.2-0.5-0.5-0.9-0.5-1.6
        c0-2.3,2.9,0.7,3.2,1.3c1.1,1.3,1.8-1.3,3.2-2.5c1.1-0.9,2.2,0.4,2.7,0.9c0.5,0.7,1.3,1.8,1.8,2.3c1.3,1.1,1.8-0.4,2.3-1.3
        c0.5-0.4,1.4-1.8,2.3-1.8c1.1,1.1-1.6,5.2-2,5.9C103.2,83.7,102.1,80.3,100.3,78.1z M111.3,89.8c0,0.5-1.6-0.2-2-0.4
        c-0.5-0.4-1.1-0.9-1.3-1.1c-0.5-0.2-1.4,2.2-2.3,2c-0.4,0-0.5-0.4-0.5-0.5c-0.2-0.2-0.4-0.4-0.5-0.5c-1.4-1.6-1.8-0.4-2.5,0.2
        c0,0.4-0.7,1.1-1.1,1.1c-0.4-1.3,0.7-3,1.3-3.8c0.5-0.9,1.8-1.8,3.4-1.8c0.9,0,1.4,0.2,2.2,0.4C109.5,85.8,111.6,88,111.3,89.8z
         M106.4,72.6c-1.8-1.6-2-8.2-4.8-2c-0.5,1.4-1.6,3.2-3,1.3c-0.5-0.7-1.1-2-1.6-2.9c-0.9-1.6-1.8-0.2-2.2,0.9
        c-0.4,0.7-0.7,1.4-1.1,2c-1.3,1.3-2.7-0.4-3.4-1.6c-0.5-0.4-2.2-3.2-2.2-3.9c-0.2-2.5,2.5,0,3,0.5c0.9,0.9,0.7,1.3,2.5-0.5
        c1.6-2,2.3-2.7,3.9,0.2c2.2,3.6,2.7,2,4.5-0.4c0.4-0.4,1.1-1.3,1.6-1.4c1.8-0.7,2.2,2.3,3.2,2.5c0.7,0.2,1.4-0.9,1.8-1.1
        c0.2-0.2,1.6-1.4,2-0.7C111.3,66.6,108.2,74,106.4,72.6z M113.4,58.7c-0.4,1.1-0.9,2.2-1.4,2.9c-0.5,0.7-1.3,1.8-2.3,2
        c-1.4,0.2-2.7-2.2-3.2-3.2c-0.2-0.5-0.5-1.4-1.1-0.9c-1.1,0.9-2.2,5.6-4.1,3.6c-1.4-1.4-1.8-5.7-3.8-2.3c-0.4,0.7-1.1,2.3-2,2.3
        c-1.8,0-2.7-5.6-4.3-3c-0.5,0.9-0.9,2.2-1.4,2.9c-1.1,1.4-1.8,0-2.5-0.7c-0.5-0.7-1.3-1.6-1.6-2.7c0-0.5-0.9-2.7-0.4-3.4
        c0.5,0,1.1,0.9,1.4,1.3c0.7,0.7,1.8,2,2.7-0.2c0.5-1.1,1.3-3.4,2.5-2.7c1.3,0.7,2.5,3.2,3.2,4.3c0.9,1.3,2.2-2.2,2.3-2.9
        c0.2-0.7,1.1-2,2-1.3c1.6,1.3,2.5,6.6,3.9,3.4c0.4-1.1,1.4-2.9,2.3-3.4c1.6-0.7,1.6,2.9,3.8,3.4c1.1,0.2,2-0.4,2.7-1.1
        c1.3-1.1,0.4-0.5,2-1.8C114.5,56.1,113.8,57.9,113.4,58.7z M114.1,52.1c-0.2-0.2-0.4-0.4-0.7-0.5c-0.9-0.5-2.2-1.1-3.2-1.4
        l-7.8-0.8c0.1-0.3,0.3-0.6,0.5-1c0.2-0.5,0.3-0.9,0.4-1.3c0-0.1,0-0.1,0-0.2c1.3,0,3.3,0.4,4.3,0.6c1.4,0.2,3,0.7,4.5,1.1
        c1.4,0.4,1.3,0.5,2,0.2c2-1.1,3.2-2,5-3.4c1.4-1.2,2.9-2.2,4.7-3.1c0.2-0.1,0.6-0.3,1-0.4c0.6-0.3,1.2-0.5,1.2-0.5l0,0
        c0,0,0.1,0,0.1,0c3.4-1.1,6.3-1.4,9.9-1.3c0.2,2.5-2.2,3.6-4.1,4.5l-1.4,0.7c0.5,0.5,0.4,0.5,0.2,0.7c0.9-0.2,3.6-1.3,4.5-1.6
        c3.8-1.4,6.1-1.6,9.9,0.4c0.7,0.4,1.3,0.9,1.8,1.3c0.5,0.4,1.3,0.9,1.8,1.4c-0.2,0.5-1.8,1.6-2.5,2c-1.1,0.5-2.3,0.7-3.6,0.9
        c-2.7,0.4-5.7,0.4-8.4,0.5c2.3,0.2,4.8,1.8,6.3,2.9c0.9,0.7,1.6,1.4,2.5,2.2c1.1,0.7,1.4,1.3,2.5,2.2c-0.7,0.4-4.1,1.3-5,1.3
        c-2,0.2-3.8-0.2-5.4-0.9c-2.2-1.1-3.9-2.5-5.7-3.9l-2-1.4c0.2,0.4,1.4,1.4,1.6,1.8l1.4,2c-0.5,0.4-3,0.7-3.9,0.7
        c-1.4,0-2.9-0.2-4.1-0.5C119,55.9,116.3,54.3,114.1,52.1z M119.5,67.2c-0.2-0.2-0.2-0.5-0.4-0.7c-0.4-0.5-0.5-0.9-0.9-1.4
        c0.2,0,0.4,0,0.5,0C119,65.7,119.4,66.5,119.5,67.2z M119,72.7c-0.5-0.5-0.9-1.4-1.3-2.2c-0.7-1.8-1.1-3.2-1.4-5.4
        c0.4,0.2,2,3.8,2.3,4.3c1.1,2.2,1.4,2.9,2.2,5C120.2,74.2,119.4,73.3,119,72.7z M124.9,72.6c-1.4-1.4-2.5-3-3.2-5
        c-0.2-0.5-0.4-1.1-0.5-1.4c-0.2-0.4-0.5-1.3-0.5-1.6l0.4-0.2c1.1,1.4,3.9,5.9,4.8,7.4l1.4,2.7C126.5,74,125.3,72.9,124.9,72.6z
         M130.5,71.7c-2.7-2-4.8-5.9-5.9-9.3l0.4-0.2c0.2,0.2,0.2,0.2,0.4,0.4c0.2,0.2,0.2,0.2,0.4,0.4c0.2,0.2,0.4,0.4,0.5,0.7
        c1.1,1.4,2.3,2.7,3.4,4.1c0.7,0.9,1.4,1.8,2.2,2.9l2,3C132.8,73.5,131,72.2,130.5,71.7z M136.6,69.9c-1.1-0.7-2.5-1.8-3.4-2.9
        c-1.1-1.3-1.6-2-2.7-3.4c-0.7-1.3-1.4-2.2-2.2-3.2c-0.2-0.4-0.4-0.4-0.4-0.5l0.4-0.4l0.9,0.7c0.4,0.2,0.5,0.5,0.9,0.7
        c0.4,0.2,0.5,0.5,0.9,0.7c0.2,0.2,0.5,0.5,0.9,0.7c0.2,0.2,0.2,0.2,0.4,0.4c1.6,1.4,5.9,5.6,7,6.8c0.9,1.1,0.9,0.9,1.6,2.2
        C139.4,71.5,137.6,70.4,136.6,69.9z M142.3,67.2c-1.6-0.7-3-1.8-4.3-2.7c-0.2-0.2-0.4-0.2-0.5-0.4c-0.2-0.2-0.4-0.2-0.5-0.4
        c-0.5-0.4-2.2-2.2-2.7-2.5l-3.2-3.8l0.7-0.4l-0.2-0.4c0.2,0,1.8,1.1,2.2,1.3c2.2,1.4,2.5,2.3,4.5,3.8c0.7,0.5,2.7,1.6,3.4,2.2
        l2.3,1.3c0.5,0.4,1.4,1.3,2,1.6c0.2,0.2,0.4,0.2,0.5,0.4l1.3,1.4C146.1,68.6,143.6,67.7,142.3,67.2z M153.8,65.2
        c-2.3,0.2-6.1-0.7-8.1-1.6c-1.4-0.7-3.2-1.6-4.7-2.7c-0.4-0.2-0.9-0.5-1.3-0.9c0.4,0,0.9,0,1.3-0.2c1.4-0.2,3-0.7,3.2-0.7
        c0.2,0,1.4,0.7,1.8,0.7c1.1,0.5,4.1,2.3,4.8,3L153.8,65.2z M159.9,60c-0.5,0.4-2.9,0.4-3.6,0.4c-1.3,0-2.5,0-3.8-0.4
        c-1.6-0.2-3.2-0.7-4.7-1.3l-1.4-0.7c0.2,0,0.2,0,0.4-0.2h0.2l0.2-0.2c-0.4-0.2-0.5-0.4-0.7-0.5c-0.5-0.5-2.2-1.8-2.5-2.3l-1.1-0.9
        c-0.7-0.2-1.1-0.5-1.8-1.1c0.7,0.2,1.4,0.5,2.3,0.9c2.2,0.9,5,1.8,7.4,2.3c0.5,0.2,0.9,0.2,1.3,0.4c0.4,0,0.9,0.2,1.4,0.2
        c0.2,0,2,0.9,2.3,0.9L159.9,60z M165.3,53.7l-8.2,1.4c-2.9,0-5.7-0.5-8.4-1.3c-1.6-0.5-3.8-1.3-5.4-2c-0.2-0.2-1.4-0.5-1.6-0.7
        c1.3-0.2,2.3-0.2,3.6-0.5c0.9-0.2,0.5-0.4,1.6-0.2c0.5,0.2,1.1,0.2,1.8,0.4l7.7,0.7c2.5,0,2.7-0.4,5,0.4L165.3,53.7z M169.6,46.2
        c-0.9,0.9-4.5,2.2-5.9,2.7c-2.5,0.7-5,1.1-7.7,1.1c-2.3,0-4.5-0.2-6.8-0.7c-0.4,0-0.7,0-0.9-0.2c0.2-0.2,0.4-0.4,0.5-0.5
        c0.4-0.4,1.1-1.3,1.4-1.8h0.9c3.4,0,6.5-0.4,9.7-1.1c0.7-0.2,1.4-0.4,2.2-0.5c0.9-0.4,1.1-0.4,2.3,0L169.6,46.2z M172.3,37.6
        c-0.4,0.7-3,2.5-4.1,3c-5,3.4-10.4,4.5-17,4.5h-2c-1.4,0-0.9-0.2-2.7-1.3l-1.3-0.7c4.7-0.2,9-0.5,13.3-1.6c2.9-0.7,5.6-1.6,8.1-3
        c0.4-0.2,2.3-1.3,2.5-1.3L172.3,37.6z M173.5,31.7c-0.5,0.5-2.3,2-2.9,2.5c-2.5,2-5.6,3.6-9,4.7c-5.6,2.2-13.5,2.9-19.4,2.7
        l0.5-0.9c0.7-0.2,1.6-0.2,2.3-0.4c0.7-0.2,1.4-0.2,2.2-0.4c7.9-1.4,15.2-3.9,21.5-9c0.4-0.4,0.4-0.4,0.9-0.5l4.8-0.2
        C174.6,30.6,173.7,31.5,173.5,31.7z"/>
</g>
</svg>
