<?xml version="1.0" encoding="utf-8"?>
<!-- Generator: Adobe Illustrator 19.0.0, SVG Export Plug-In . SVG Version: 6.00 Build 0)  -->
<svg version="1.1" id="Layer_1" xmlns="http://www.w3.org/2000/svg" xmlns:xlink="http://www.w3.org/1999/xlink" x="0px" y="0px"
	 viewBox="-625 697.7 200 97.3" style="enable-background:new -625 697.7 200 97.3;" xml:space="preserve">
<style type="text/css">
	.st0{fill:#666667;}
	.st1{fill:#F18825;}
</style>
<g>
	<path class="st0" d="M-430.7,738c-4-2.2-5.6-3.1-8-3.1c-2.2,0-3.3,1.1-3.3,2.9c0,5.2,12.6,3.8,12.6,15.9c0,6.6-3.7,10.6-9.9,10.6
		c-3.8,0-5.6-1.6-8.4-3.5v-7.5c4,3.3,5.6,4.5,8.7,4.5c2.3,0,3.3-1.2,3.3-3.3c0-5.7-12.5-3.6-12.5-16.2c0-6,2.5-10,9-10
		c3.1,0,5.1,0.8,8.6,2.8L-430.7,738L-430.7,738L-430.7,738z"/>
	<path class="st0" d="M-527.7,728.8c5.7,0,8.2,4.8,8.2,10c0,3.8-1.6,6.6-4.7,8.5c-0.9,0.4-1.3,0.5-2,0.7l9.6,15.7h-6.8l-9.1-14.2
		v14.2h-6.1v-34.9L-527.7,728.8L-527.7,728.8z M-532.5,743.1h2.8c2,0,3.8-1,3.8-4c0-2.7-1.4-4-4-4h-2.7V743.1z"/>
	<path class="st0" d="M-487.5,763.6h-6.6l-2.3-7h-10.8l-2,7h-6.5l10.4-34.9h6.4L-487.5,763.6z M-502.1,737.1l-3.3,13.6h6.9
		L-502.1,737.1z"/>
	<path class="st0" d="M-479.3,763.6h-6.1v-34.9h6.1C-479.3,728.8-479.3,763.6-479.3,763.6z"/>
	<path class="st0" d="M-450.9,763.6h-5.1l-12.9-22.4v22.4h-6.1v-34.9h5.5L-457,750v-21.3h6.1C-450.9,728.8-450.9,763.6-450.9,763.6z
		"/>
	<path class="st0" d="M-547.4,744.4c2.4-1.4,3.8-4,3.8-7c0-1.5-0.3-3.2-1.1-4.7c-2.2,2-4.7,4.2-5.5,4.8c0.1,0.4,0.2,0.8,0.2,1.2
		c0,1.8-1,3.8-3.5,3.8h-2v-1.8v-5.7v-0.8l7.3-4.8c-1.1-0.4-2.3-0.7-3.8-0.7h-9.6v34.9h10.2c8.2,0,9.9-6.2,9.9-10.2
		C-541.4,749.3-543.4,745.7-547.4,744.4z M-553.2,757.2h-2.3V749h3.2c2.5,0,4.3,1.3,4.3,3.9C-547.9,756-549.3,757.2-553.2,757.2z"/>
	<path class="st1" d="M-538.7,724.7c-0.4-0.2-4.9,2.5-7.7,4.5l-1,0.7l-7.2,4.8v5.4c1.5-1.1,2.8-2,3.7-2.9l5.4-4.6
		c0,0,2.7-2.4,4.1-3.8l0.5-0.5c0.4-0.4,0.7-0.6,0.7-0.9c0,0,0,0,0-0.1C-540.2,727-538.5,724.8-538.7,724.7z"/>
	<path class="st1" d="M-566.9,747.4l4.4-3v-5.4l-3.9,2.6c0,0-3.5,2.3-4.7,3.1c0.1-0.7,0.2-1.4,0.2-1.4c0.6-4.6,1.2-9.1,1.2-12.1
		c0-1.5-0.1-2.6-0.5-3.2c-0.2-0.4-0.6-0.7-1-0.8c-0.6-0.1-1.2,0.1-1.9,0.6c-2,1.4-3,5.5-3,12.4c0,2.2,0.1,4.8,0.3,7.6
		c-0.2,0.2-1.4,1.3-1.4,1.3c0,0-2,1.7-2,1.7c0,0-0.1,0.1-0.1,0.1c-1.9,1.6-3,2.6-3.5,2.7c-0.6,0.2-1,0.3-1.5,0.2
		c2.5-1.9,4.6-5.8,4.6-8.2c0-0.3,0-0.5-0.1-0.7c-0.4-1.6-1.2-2.8-2.4-3.4c-1.1-0.6-2.5-0.6-4-0.1l-0.6,0.2c-2.8,1.3-11.2,6-13.9,7.5
		c0.3-3.7,1.8-20.6,2.3-29.5c0.3-5.8,0-2.2,0-3.3c0-4.2-5.3,0-8.2,2.9c-1.2,1.2-5,4.7-3.7,7.4c1.5,2.9,3.1,1.9,3.9,6.8
		c1.4,8.6,0.3,17.5,0.3,18.1c-0.5,0.2-4.1,1.9-4.1,1.9c-6.2,2.9-11,5.1-11,8.7c0,0.6,0.1,1.2,0.4,1.8c5.2,13.5,12.2,20.8,15,20.1
		c4-1.1,4.2-6.4,4.4-14.4c0.1-4,0.3-8.5,0.9-13.6c0.3-0.2,7.1-5.3,8.4-6.1c-0.6,1.2-0.6,2.4-0.6,3.1c0,1.6,0.2,2.9,0.6,3.6
		c0.5,1.1,1,2,2.3,2.6c1.6,0.8,3,1,5.7-0.1c1.2-0.5,3.3-1.9,5.6-3.9c0.5,0.8,2.5,4.2,2.5,4.2l1.8,3.1c0.8,1.5,2.1,1.9,3.6,1.1
		c1.1-0.6,1.8-1,2.1-1.8c0-0.1,0.1-0.3,0.1-0.4c0-0.5-0.2-0.9-0.4-1.3c-2.1-3.7-2.2-7-2.2-9.5c0-0.2,0-0.3,0-0.5
		C-570.7,750.1-566.9,747.4-566.9,747.4z M-608.1,773.1c-1.7-1.3-2.4-2.5-3.7-5.4c-2.1-5,0.8-6.5,5.9-9.4
		C-606.4,763.5-606.9,774.3-608.1,773.1z M-587.6,751.9c-0.1-1.9-0.5-4.3,1.9-5.5c0.9-0.5,1.5-0.2,1.8,0.1
		C-583.3,747.1-584.7,750.1-587.6,751.9z"/>
</g>
</svg>
