<?xml version="1.0" encoding="utf-8"?>
<!-- Generator: Adobe Illustrator 19.0.0, SVG Export Plug-In . SVG Version: 6.00 Build 0)  -->
<svg version="1.1" id="Layer_4" xmlns="http://www.w3.org/2000/svg" xmlns:xlink="http://www.w3.org/1999/xlink" x="0px" y="0px"
	 viewBox="0 0 200 126.4" style="enable-background:new 0 0 200 126.4;" xml:space="preserve">
<style type="text/css">
	.st0{fill:#666667;}
	.st1{fill:#F18825;}
</style>
<g id="XMLID_335_">
	<path id="XMLID_352_" class="st0" d="M194.5,58.8c-4-2.2-5.6-3.1-8-3.1c-2.2,0-3.3,1.1-3.3,2.9c0,5.2,12.6,3.8,12.6,15.9
		c0,6.6-3.7,10.6-9.9,10.6c-3.8,0-5.6-1.6-8.4-3.5v-7.5c4,3.3,5.6,4.5,8.7,4.5c2.3,0,3.3-1.2,3.3-3.3c0-5.7-12.5-3.6-12.5-16.1
		c0-6,2.5-10,9-10c3.1,0,5.1,0.8,8.6,2.8L194.5,58.8L194.5,58.8L194.5,58.8z"/>
	<path id="XMLID_349_" class="st0" d="M97.5,49.6c5.7,0,8.2,4.8,8.2,10c0,3.8-1.6,6.6-4.7,8.5c-0.9,0.4-1.3,0.5-2,0.7l9.6,15.7h-6.8
		l-9.1-14.2v14.2h-6.1V49.6L97.5,49.6L97.5,49.6z M92.8,63.9h2.8c2,0,3.8-1,3.8-4c0-2.7-1.4-4-4-4h-2.7V63.9z"/>
	<path id="XMLID_346_" class="st0" d="M137.8,84.5h-6.6l-2.3-7h-10.8l-2,7h-6.5l10.4-34.9h6.4L137.8,84.5z M123.2,57.9l-3.3,13.6
		h6.9L123.2,57.9z"/>
	<path id="XMLID_345_" class="st0" d="M146,84.5h-6.1V49.6h6.1V84.5z"/>
	<path id="XMLID_344_" class="st0" d="M174.4,84.5h-5.1l-12.9-22.4v22.4h-6.1V49.6h5.5l12.4,21.3V49.6h6.1V84.5z"/>
	<path id="XMLID_341_" class="st0" d="M77.9,65.3c2.4-1.4,3.8-4,3.8-7c0-1.5-0.3-3.2-1.1-4.7c-2.2,2-4.7,4.2-5.5,4.8
		c0.1,0.4,0.2,0.8,0.2,1.2c0,1.8-1,3.8-3.5,3.8h-2v-1.8V56v-0.8l7.3-4.8c-1.1-0.4-2.3-0.7-3.8-0.7h-9.6v34.9H74
		c8.2,0,9.9-6.2,9.9-10.2C83.9,70.2,81.9,66.6,77.9,65.3z M72.1,78h-2.3v-8.2h3.2c2.5,0,4.3,1.3,4.3,3.9C77.4,76.8,76,78,72.1,78z"
		/>
	<path id="XMLID_340_" class="st1" d="M86.6,45.5c-0.4-0.2-4.9,2.5-7.7,4.5l-1,0.7l-7.2,4.8v5.4c1.5-1.1,2.8-2,3.7-2.9l5.4-4.6
		c0,0,2.7-2.4,4.1-3.8l0.5-0.5c0.4-0.4,0.7-0.6,0.7-0.9c0,0,0,0,0-0.1C85,47.9,86.8,45.6,86.6,45.5z"/>
	<path id="XMLID_336_" class="st1" d="M58.4,68.3l4.4-3v-5.4l-3.9,2.6c0,0-3.5,2.3-4.7,3.1c0.1-0.7,0.2-1.4,0.2-1.4
		c0.6-4.6,1.2-9.1,1.2-12.1c0-1.5-0.1-2.6-0.5-3.2c-0.2-0.4-0.6-0.7-1-0.8c-0.6-0.1-1.2,0.1-1.9,0.6c-2,1.4-3,5.5-3,12.4
		c0,2.2,0.1,4.8,0.3,7.6C49.2,68.9,48,70,48,70c0,0-2,1.7-2,1.7c0,0-0.1,0.1-0.1,0.1c-1.9,1.6-3,2.6-3.5,2.7c-0.6,0.2-1,0.3-1.5,0.2
		c2.5-1.9,4.6-5.8,4.6-8.2c0-0.3,0-0.5-0.1-0.7c-0.4-1.6-1.2-2.8-2.4-3.4c-1.1-0.6-2.5-0.6-4-0.1l-0.6,0.2c-2.8,1.3-11.2,6-13.9,7.5
		c0.3-3.7,1.8-20.6,2.3-29.5c0.3-5.8,0-2.2,0-3.3c0-4.2-5.3,0-8.2,2.9c-1.2,1.2-5,4.7-3.7,7.4c1.5,2.9,3.1,1.9,3.9,6.8
		c1.4,8.6,0.3,17.5,0.3,18.1c-0.5,0.2-4.1,1.9-4.1,1.9c-6.2,2.9-11,5.1-11,8.7c0,0.6,0.1,1.2,0.4,1.8c5.2,13.5,12.2,20.8,15,20.1
		c4-1.1,4.2-6.4,4.4-14.4c0.1-4,0.3-8.5,0.9-13.6c0.3-0.2,7.1-5.3,8.4-6.1c-0.6,1.2-0.6,2.4-0.6,3.1c0,1.6,0.2,2.9,0.6,3.6
		c0.5,1.1,1,2,2.3,2.6c1.6,0.8,3,1,5.7-0.1c1.2-0.5,3.3-1.9,5.6-3.9c0.5,0.8,2.5,4.2,2.5,4.2l1.8,3.1c0.8,1.5,2.1,1.9,3.6,1.1
		c1.1-0.6,1.8-1,2.1-1.8c0-0.1,0.1-0.3,0.1-0.4c0-0.5-0.2-0.9-0.4-1.3c-2.1-3.7-2.2-7-2.2-9.5c0-0.2,0-0.3,0-0.5
		C54.6,70.9,58.4,68.3,58.4,68.3z M17.2,93.9c-1.7-1.3-2.4-2.5-3.7-5.4c-2.1-5,0.8-6.5,5.9-9.4C18.8,84.4,18.4,95.2,17.2,93.9z
		 M37.7,72.7c-0.1-1.9-0.5-4.3,1.9-5.5c0.9-0.5,1.5-0.2,1.8,0.1C42,68,40.6,70.9,37.7,72.7z"/>
</g>
</svg>
