<?xml version="1.0" encoding="UTF-8"?>
<!DOCTYPE svg PUBLIC "-//W3C//DTD SVG 1.1//EN" "http://www.w3.org/Graphics/SVG/1.1/DTD/svg11.dtd">
<svg version="1.1" xmlns="http://www.w3.org/2000/svg" xmlns:xlink="http://www.w3.org/1999/xlink" x="0" y="0" width="284.525" height="121.859" viewBox="0, 0, 284.525, 121.859">
  <g id="Layer_1">
    <path d="M144.95,3.116 C124.029,3.116 107.074,20.075 107.074,40.992 C107.074,61.914 124.029,78.873 144.95,78.873 C165.871,78.873 182.826,61.914 182.826,40.992 C182.826,20.075 165.871,3.116 144.95,3.116" fill="#DA2F2A"/>
    <path d="M213.073,76.252 L283.592,76.252 L283.592,5.737 L213.073,5.737 z" fill="#1A1919"/>
    <path d="M22.791,38.129 L0.724,76.252 L44.862,76.252 L89.001,76.252 L66.934,38.129 L44.862,0 z" fill="#FACA22"/>
    <path d="M7.02,117.003 L7.02,104.412 L8.999,104.412 L8.999,117.003 L14.06,117.003 L14.06,104.412 L16.019,104.412 L16.019,118.696 L0,118.696 L0,104.412 L1.959,104.412 L1.959,117.003 z" fill="#1A1919"/>
    <path d="M22.58,110.228 L23.07,110.228 C23.763,110.228 24.6,110.147 25.253,109.575 C25.682,109.188 25.988,108.575 26.274,107.902 L26.784,106.677 C27.008,106.126 27.294,105.391 27.804,104.881 C28.58,104.106 29.498,104.085 30.192,104.085 L30.253,104.085 L30.376,105.677 C30.029,105.677 29.518,105.82 29.212,106.085 C28.947,106.33 28.804,106.718 28.538,107.33 L27.947,108.738 C27.743,109.228 27.396,109.841 27.07,110.187 C26.702,110.575 26.131,110.861 25.498,110.942 L25.498,111.023 C26.253,111.147 26.906,111.493 27.314,111.881 C27.784,112.329 28.11,112.982 28.355,113.574 L29.233,115.635 C29.539,116.35 29.702,116.738 29.947,116.982 C30.273,117.288 30.661,117.35 30.988,117.35 L31.049,117.35 L30.926,118.983 C30.192,119.084 29.212,119.003 28.538,118.37 C28.09,117.941 27.804,117.267 27.457,116.472 L26.478,114.248 C25.926,113.023 25.396,112.534 25.335,112.493 C24.723,111.962 24.029,111.901 23.417,111.901 L22.58,111.901 L22.58,118.697 L20.621,118.697 L20.621,104.412 L22.58,104.412 z" fill="#1A1919"/>
    <path d="M36.717,107.044 C35.717,108.166 35.288,109.962 35.288,111.554 C35.288,113.146 35.717,114.941 36.717,116.064 C37.309,116.738 38.247,117.33 39.656,117.33 C41.064,117.33 42.003,116.738 42.594,116.064 C43.594,114.941 44.023,113.146 44.023,111.554 C44.023,109.962 43.594,108.166 42.594,107.044 C42.003,106.371 41.064,105.779 39.656,105.779 C38.247,105.779 37.309,106.371 36.717,107.044 M44.124,117.391 C42.696,118.798 40.982,119.023 39.656,119.023 C38.329,119.023 36.615,118.798 35.187,117.391 C33.493,115.717 33.208,113.369 33.208,111.554 C33.208,109.737 33.493,107.391 35.187,105.718 C36.615,104.31 38.329,104.085 39.656,104.085 C40.982,104.085 42.696,104.31 44.124,105.718 C45.819,107.391 46.104,109.737 46.104,111.574 C46.104,113.369 45.819,115.717 44.124,117.391" fill="#1A1919"/>
    <path d="M53.198,106.105 L53.198,106.657 C53.198,108.514 53.117,109.881 53.035,111.37 C52.912,113.369 52.75,116.512 51.28,117.961 C50.77,118.472 49.852,119.023 48.423,119.003 L48.137,117.37 C48.81,117.35 49.423,117.084 49.831,116.717 C50.648,115.961 50.995,114.308 51.198,111.003 C51.259,110.084 51.301,108.819 51.301,106.636 L51.301,104.412 L59.484,104.412 L59.484,118.697 L57.525,118.697 L57.525,106.105 z" fill="#1A1919"/>
    <path d="M69.353,106.881 L66.884,113.125 L71.822,113.125 z M64.701,118.696 L62.537,118.696 L68.476,104.411 L70.231,104.411 L76.169,118.696 L74.006,118.696 L72.517,114.819 L66.19,114.819 z" fill="#1A1919"/>
    <path d="M90.586,106.881 L88.117,113.125 L93.055,113.125 z M85.934,118.696 L83.77,118.696 L89.709,104.411 L91.464,104.411 L97.402,118.696 L95.239,118.696 L93.749,114.819 L87.423,114.819 z" fill="#1A1919"/>
    <path d="M102.416,118.696 L100.457,118.696 L100.457,104.411 L102.416,104.411 L102.416,110.451 L108.926,110.451 L108.926,104.411 L110.885,104.411 L110.885,118.696 L108.926,118.696 L108.926,112.146 L102.416,112.146 z" fill="#1A1919"/>
    <path d="M120.754,106.881 L118.285,113.125 L123.223,113.125 z M116.102,118.696 L113.938,118.696 L119.877,104.411 L121.632,104.411 L127.57,118.696 L125.407,118.696 L123.917,114.819 L117.591,114.819 z" fill="#1A1919"/>
    <path d="M134.48,106.105 L134.48,106.657 C134.48,108.514 134.399,109.881 134.317,111.37 C134.194,113.369 134.032,116.512 132.562,117.961 C132.052,118.472 131.134,119.023 129.705,119.003 L129.419,117.37 C130.092,117.35 130.705,117.084 131.113,116.717 C131.93,115.961 132.277,114.308 132.48,111.003 C132.541,110.084 132.583,108.819 132.583,106.636 L132.583,104.412 L140.766,104.412 L140.766,118.697 L138.807,118.697 L138.807,106.105 z" fill="#1A1919"/>
    <path d="M153.819,105.799 L153.819,104.412 L155.778,104.412 L155.778,118.697 L153.819,118.697 L153.819,108.37 L147.33,117.227 L147.33,118.697 L145.371,118.697 L145.371,104.412 L147.33,104.412 L147.33,114.655 z" fill="#1A1919"/>
    <path d="M159.934,105.718 C160.812,104.984 162.26,104.085 164.567,104.085 C166.302,104.085 167.608,104.534 168.403,105.29 C169.321,106.146 169.506,107.208 169.506,108.003 C169.506,108.819 169.301,109.616 168.628,110.248 C168.2,110.656 167.567,110.962 166.995,111.126 L166.995,111.289 C167.669,111.39 168.464,111.697 169.015,112.228 C169.526,112.737 169.934,113.513 169.934,114.676 C169.934,116.411 169.076,117.452 168.464,117.941 C167.261,118.92 165.628,119.023 164.649,119.023 C162.812,119.023 161.71,118.676 161.26,118.492 C160.261,118.105 159.587,117.513 159.281,117.207 L160.343,115.799 C160.628,116.024 161.22,116.493 162.037,116.839 C162.852,117.186 163.669,117.33 164.464,117.33 C165.322,117.33 166.241,117.146 166.811,116.717 C167.342,116.329 167.79,115.615 167.79,114.574 C167.79,113.595 167.322,113.043 166.894,112.717 C166.2,112.207 165.097,112.064 163.526,112.064 L163.077,112.064 L163.077,110.431 L163.546,110.431 C164.057,110.431 165.342,110.391 166.158,110.003 C167.18,109.514 167.444,108.697 167.444,107.943 C167.444,107.126 167.036,106.636 166.648,106.351 C165.894,105.779 164.689,105.779 164.525,105.779 C163.24,105.779 161.913,106.29 160.832,107.044 z" fill="#1A1919"/>
    <path d="M178.989,106.881 L176.519,113.125 L181.457,113.125 z M174.337,118.696 L172.173,118.696 L178.111,104.411 L179.867,104.411 L185.805,118.696 L183.641,118.696 L182.152,114.819 L175.825,114.819 z" fill="#1A1919"/>
    <path d="M198.774,106.105 L198.774,106.575 C198.774,110.187 198.508,112.105 198.182,113.472 C197.896,114.738 197.488,115.819 196.835,117.003 L202.978,117.003 L202.978,106.105 z M194.917,117.003 C195.243,116.411 195.998,114.982 196.426,113.166 C196.815,111.452 196.896,109.472 196.896,106.697 L196.896,104.412 L204.937,104.412 L204.937,117.003 L206.651,117.003 L206.651,121.859 L204.814,121.859 L204.814,118.697 L195.203,118.697 L195.203,121.859 L193.366,121.859 L193.366,117.003 z" fill="#1A1919"/>
    <path d="M215.295,106.881 L212.827,113.125 L217.765,113.125 z M210.643,118.696 L208.479,118.696 L214.417,104.411 L216.173,104.411 L222.111,118.696 L219.947,118.696 L218.458,114.819 L212.132,114.819 z" fill="#1A1919"/>
    <path d="M227.124,118.696 L225.165,118.696 L225.165,104.411 L227.124,104.411 L227.124,110.451 L233.634,110.451 L233.634,104.411 L235.593,104.411 L235.593,118.696 L233.634,118.696 L233.634,112.146 L227.124,112.146 z" fill="#1A1919"/>
    <path d="M242.157,118.696 L240.198,118.696 L240.198,104.411 L242.157,104.411 L242.157,110.451 L248.667,110.451 L248.667,104.411 L250.626,104.411 L250.626,118.696 L248.667,118.696 L248.667,112.146 L242.157,112.146 z" fill="#1A1919"/>
    <path d="M267.148,104.411 L269.107,104.411 L269.107,118.696 L267.148,118.696 z M259.72,117.003 C260.393,117.003 261.618,116.981 262.413,116.247 C263.066,115.634 263.147,114.859 263.147,114.349 C263.147,113.86 263.087,113.002 262.373,112.39 C261.638,111.757 260.393,111.676 259.659,111.676 L257.189,111.676 L257.189,117.003 z M257.189,109.982 L259.781,109.982 C261.454,109.982 263.026,110.207 264.086,111.248 C264.78,111.921 265.23,112.921 265.23,114.288 C265.23,115.675 264.76,116.737 264.107,117.41 C262.924,118.593 261.067,118.696 259.637,118.696 L255.23,118.696 L255.23,104.411 L257.189,104.411 z" fill="#1A1919"/>
    <path d="M278.403,112.716 L274.568,118.696 L272.282,118.696 L277.22,111.166 L272.873,104.411 L275.016,104.411 L278.403,109.615 L281.791,104.411 L283.933,104.411 L279.587,111.166 L284.525,118.696 L282.24,118.696 z" fill="#1A1919"/>
  </g>
</svg>
