<?xml version="1.0" encoding="utf-8"?>
<!-- Generator: Adobe Illustrator 19.0.0, SVG Export Plug-In . SVG Version: 6.00 Build 0)  -->
<svg version="1.1" id="Layer_3" xmlns="http://www.w3.org/2000/svg" xmlns:xlink="http://www.w3.org/1999/xlink" x="0px" y="0px"
	 viewBox="0 0 200 126.4" style="enable-background:new 0 0 200 126.4;" xml:space="preserve">
<style type="text/css">
	.st0{fill:#DA2F2A;}
	.st1{fill:#1A1919;}
	.st2{fill:#FACA22;}
</style>
<g id="Layer_1_2_">
	<path id="XMLID_295_" class="st0" d="M102,29.4c-13.7,0-24.8,11.1-24.8,24.8c0,13.7,11.1,24.8,24.8,24.8s24.8-11.1,24.8-24.8
		C126.8,40.4,115.7,29.4,102,29.4"/>
	<path id="XMLID_294_" class="st1" d="M146.5,77.2h46.1V31.1h-46.1V77.2z"/>
	<path id="XMLID_293_" class="st2" d="M22.2,52.2L7.8,77.2h28.8h28.8L51,52.2L36.6,27.3L22.2,52.2z"/>
	<path id="XMLID_292_" class="st1" d="M11.9,103.8v-8.2h1.3v8.2h3.3v-8.2h1.3v9.3H7.3v-9.3h1.3v8.2H11.9z"/>
	<path id="XMLID_291_" class="st1" d="M22.1,99.4h0.3c0.5,0,1-0.1,1.4-0.4c0.3-0.3,0.5-0.7,0.7-1.1l0.3-0.8c0.1-0.4,0.3-0.8,0.7-1.2
		c0.5-0.5,1.1-0.5,1.6-0.5h0l0.1,1c-0.2,0-0.6,0.1-0.8,0.3c-0.2,0.2-0.3,0.4-0.4,0.8l-0.4,0.9c-0.1,0.3-0.4,0.7-0.6,0.9
		c-0.2,0.3-0.6,0.4-1,0.5v0.1c0.5,0.1,0.9,0.3,1.2,0.6c0.3,0.3,0.5,0.7,0.7,1.1l0.6,1.3c0.2,0.5,0.3,0.7,0.5,0.9
		c0.2,0.2,0.5,0.2,0.7,0.2h0l-0.1,1.1c-0.5,0.1-1.1,0-1.6-0.4c-0.3-0.3-0.5-0.7-0.7-1.2l-0.6-1.5c-0.4-0.8-0.7-1.1-0.7-1.1
		c-0.4-0.3-0.9-0.4-1.3-0.4h-0.5v4.4h-1.3v-9.3h1.3V99.4z"/>
	<path id="XMLID_288_" class="st1" d="M31.3,97.3c-0.7,0.7-0.9,1.9-0.9,2.9c0,1,0.3,2.2,0.9,2.9c0.4,0.4,1,0.8,1.9,0.8
		c0.9,0,1.5-0.4,1.9-0.8c0.7-0.7,0.9-1.9,0.9-2.9c0-1-0.3-2.2-0.9-2.9c-0.4-0.4-1-0.8-1.9-0.8C32.3,96.5,31.7,96.8,31.3,97.3
		 M36.1,104c-0.9,0.9-2.1,1.1-2.9,1.1c-0.9,0-2-0.1-2.9-1.1c-1.1-1.1-1.3-2.6-1.3-3.8c0-1.2,0.2-2.7,1.3-3.8
		c0.9-0.9,2.1-1.1,2.9-1.1c0.9,0,2,0.1,2.9,1.1c1.1,1.1,1.3,2.6,1.3,3.8C37.4,101.4,37.2,102.9,36.1,104"/>
	<path id="XMLID_287_" class="st1" d="M42.1,96.7V97c0,1.2-0.1,2.1-0.1,3.1c-0.1,1.3-0.2,3.4-1.1,4.3c-0.3,0.3-0.9,0.7-1.9,0.7
		l-0.2-1.1c0.4,0,0.8-0.2,1.1-0.4c0.5-0.5,0.8-1.6,0.9-3.7c0-0.6,0.1-1.4,0.1-2.9v-1.5h5.3v9.3h-1.3v-8.2H42.1z"/>
	<path id="XMLID_284_" class="st1" d="M52.6,97.2l-1.6,4.1h3.2L52.6,97.2z M49.6,104.9h-1.4l3.9-9.3h1.1l3.9,9.3h-1.4l-1-2.5h-4.1
		L49.6,104.9z"/>
	<path id="XMLID_281_" class="st1" d="M66.5,97.2l-1.6,4.1h3.2L66.5,97.2z M63.5,104.9H62l3.9-9.3h1.1l3.9,9.3h-1.4l-1-2.5h-4.1
		L63.5,104.9z"/>
	<path id="XMLID_279_" class="st1" d="M74.2,104.9h-1.3v-9.3h1.3v3.9h4.3v-3.9h1.3v9.3h-1.3v-4.3h-4.3V104.9z"/>
	<path id="XMLID_275_" class="st1" d="M86.2,97.2l-1.6,4.1h3.2L86.2,97.2z M83.2,104.9h-1.4l3.9-9.3h1.1l3.9,9.3h-1.4l-1-2.5h-4.1
		L83.2,104.9z"/>
	<path id="XMLID_274_" class="st1" d="M95.2,96.7V97c0,1.2-0.1,2.1-0.1,3.1c-0.1,1.3-0.2,3.4-1.1,4.3c-0.3,0.3-0.9,0.7-1.9,0.7
		l-0.2-1.1c0.4,0,0.8-0.2,1.1-0.4c0.5-0.5,0.8-1.6,0.9-3.7c0-0.6,0.1-1.4,0.1-2.9v-1.5h5.3v9.3H98v-8.2H95.2z"/>
	<path id="XMLID_272_" class="st1" d="M107.8,96.5v-0.9h1.3v9.3h-1.3v-6.7l-4.2,5.8v1h-1.3v-9.3h1.3v6.7L107.8,96.5z"/>
	<path id="XMLID_271_" class="st1" d="M111.8,96.4c0.6-0.5,1.5-1.1,3-1.1c1.1,0,2,0.3,2.5,0.8c0.6,0.6,0.7,1.3,0.7,1.8
		c0,0.5-0.1,1.1-0.6,1.5c-0.3,0.3-0.7,0.5-1.1,0.6v0.1c0.4,0.1,1,0.3,1.3,0.6c0.3,0.3,0.6,0.8,0.6,1.6c0,1.1-0.6,1.8-1,2.1
		c-0.8,0.6-1.9,0.7-2.5,0.7c-1.2,0-1.9-0.2-2.2-0.3c-0.7-0.3-1.1-0.6-1.3-0.8l0.7-0.9c0.2,0.1,0.6,0.5,1.1,0.7
		c0.5,0.2,1.1,0.3,1.6,0.3c0.6,0,1.2-0.1,1.5-0.4c0.3-0.3,0.6-0.7,0.6-1.4c0-0.6-0.3-1-0.6-1.2c-0.5-0.3-1.2-0.4-2.2-0.4h-0.3v-1.1
		h0.3c0.3,0,1.2,0,1.7-0.3c0.7-0.3,0.8-0.9,0.8-1.3c0-0.5-0.3-0.9-0.5-1c-0.5-0.4-1.3-0.4-1.4-0.4c-0.8,0-1.7,0.3-2.4,0.8
		L111.8,96.4z"/>
	<path id="XMLID_267_" class="st1" d="M124.3,97.2l-1.6,4.1h3.2L124.3,97.2z M121.2,104.9h-1.4l3.9-9.3h1.1l3.9,9.3h-1.4l-1-2.5
		h-4.1L121.2,104.9z"/>
	<path id="XMLID_264_" class="st1" d="M137.2,96.7V97c0,2.4-0.2,3.6-0.4,4.5c-0.2,0.8-0.5,1.5-0.9,2.3h4v-7.1H137.2z M134.7,103.8
		c0.2-0.4,0.7-1.3,1-2.5c0.3-1.1,0.3-2.4,0.3-4.2v-1.5h5.3v8.2h1.1v3.2h-1.2v-2.1h-6.3v2.1h-1.2v-3.2H134.7z"/>
	<path id="XMLID_259_" class="st1" d="M148,97.2l-1.6,4.1h3.2L148,97.2z M144.9,104.9h-1.4l3.9-9.3h1.1l3.9,9.3H151l-1-2.5h-4.1
		L144.9,104.9z"/>
	<path id="XMLID_258_" class="st1" d="M155.7,104.9h-1.3v-9.3h1.3v3.9h4.3v-3.9h1.3v9.3H160v-4.3h-4.3V104.9z"/>
	<path id="XMLID_256_" class="st1" d="M165.5,104.9h-1.3v-9.3h1.3v3.9h4.3v-3.9h1.3v9.3h-1.3v-4.3h-4.3V104.9z"/>
	<path id="XMLID_252_" class="st1" d="M181.9,95.6h1.3v9.3h-1.3V95.6z M177,103.8c0.4,0,1.2,0,1.8-0.5c0.4-0.4,0.5-0.9,0.5-1.2
		c0-0.3,0-0.9-0.5-1.3c-0.5-0.4-1.3-0.5-1.8-0.5h-1.6v3.5H177z M175.4,99.2h1.7c1.1,0,2.1,0.1,2.8,0.8c0.5,0.4,0.7,1.1,0.7,2
		c0,0.9-0.3,1.6-0.7,2c-0.8,0.8-2,0.8-2.9,0.8h-2.9v-9.3h1.3V99.2z"/>
	<path id="XMLID_250_" class="st1" d="M189.2,101l-2.5,3.9h-1.5l3.2-4.9l-2.8-4.4h1.4l2.2,3.4l2.2-3.4h1.4L190,100l3.2,4.9h-1.5
		L189.2,101z"/>
</g>
</svg>
