<?xml version="1.0" encoding="UTF-8"?>
<svg width="54px" height="44px" viewBox="0 0 54 44" version="1.1" xmlns="http://www.w3.org/2000/svg" xmlns:xlink="http://www.w3.org/1999/xlink">
    <!-- Generator: Sketch 50.2 (55047) - http://www.bohemiancoding.com/sketch -->
    <title>more-letters_svg</title>
    <desc>Created with Sketch.</desc>
    <defs>
        <rect id="path-1" x="0" y="0" width="24" height="15" rx="3"></rect>
    </defs>
    <g id="Page-1" stroke="none" stroke-width="1" fill="none" fill-rule="evenodd">
        <g id="achieves" transform="translate(-53.000000, -374.000000)">
            <g id="Group-48" transform="translate(60.000000, 376.000000)">
                <g id="Group-29-Copy-5" fill="#237691" stroke="#323232" stroke-opacity="0.5">
                    <g id="Group-28">
                        <g id="Group-21-Copy-4">
                            <g id="Group-8-Copy-8">
                                <g id="Group-9">
                                    <circle id="Oval-3-Copy" cx="20" cy="20" r="19.5"></circle>
                                </g>
                            </g>
                        </g>
                    </g>
                </g>
                <g id="Group-38-Copy-2" transform="translate(8.000000, 13.000000)">
                    <rect id="Rectangle-7" stroke="#222121" fill="#FFFFFF" x="-0.5" y="-0.5" width="25" height="16" rx="3"></rect>
                    <mask id="mask-2" fill="white">
                        <use xlink:href="#path-1"></use>
                    </mask>
                    <rect stroke="#222121" x="-0.5" y="-0.5" width="25" height="16" rx="3"></rect>
                    <g id="Group-4" mask="url(#mask-2)" fill="#FFFFFF" stroke="#222121">
                        <g transform="translate(0.000000, -13.000000)" id="Rectangle-8">
                            <rect transform="translate(12.020815, 28.020815) rotate(45.000000) translate(-12.020815, -28.020815) " x="3.02081528" y="19.0208153" width="18" height="18" rx="2"></rect>
                            <rect transform="translate(12.020815, 12.020815) rotate(45.000000) translate(-12.020815, -12.020815) " x="3.02081528" y="3.02081528" width="18" height="18" rx="1"></rect>
                        </g>
                    </g>
                </g>
                <rect id="Rectangle-10-Copy" stroke="#292929" fill="#D41616" x="21.5" y="5.5" width="17" height="12" rx="6"></rect>
                <path d="M30.2298013,13.5665526 C30.1636323,13.630584 30.0968722,13.6937499 30.029521,13.7560497 C29.8197667,13.9500725 29.5962288,14.1210132 29.3591509,14.2685283 C29.1147799,14.4205814 28.8519018,14.5425352 28.5713694,14.6342477 C28.2763971,14.7306809 27.953514,14.778 27.604,14.778 C27.1383319,14.778 26.7109396,14.6980363 26.3252702,14.5359433 C25.9399047,14.3739781 25.6086499,14.1474791 25.3359,13.8576823 C25.0660466,13.5709631 24.8584225,13.2342754 24.7141147,12.8513046 C24.571085,12.4717259 24.5,12.0643541 24.5,11.632 C24.5,11.2101966 24.5683321,10.8111369 24.7057107,10.4374672 C24.8447633,10.0592443 25.0470263,9.72494847 25.311322,9.43815949 C25.5786503,9.14807984 25.9024255,8.92086922 26.2783885,8.75813894 C26.6565977,8.59443646 27.0809693,8.514 27.548,8.514 C27.9078804,8.514 28.2410776,8.56397958 28.5461139,8.66565835 C28.8383107,8.7630573 29.1103277,8.89362544 29.3611339,9.0571947 C29.6033617,9.21516937 29.8317699,9.39894606 30.0461619,9.60810903 C30.1101012,9.67048879 30.1728326,9.73339122 30.2343549,9.79681655 C30.2934497,9.73486934 30.3534805,9.67341269 30.4144466,9.61244661 C30.6236949,9.40319831 30.8491612,9.2170575 31.0905733,9.05436679 C31.3439674,8.88360121 31.621372,8.74901875 31.9214805,8.65080144 C32.2297007,8.54992936 32.5597892,8.5 32.91,8.5 C33.3770307,8.5 33.8014023,8.58043646 34.1796115,8.74413894 C34.5555745,8.90686922 34.8793497,9.13407984 35.146678,9.42415949 C35.4109737,9.71094847 35.6132367,10.0452443 35.7522893,10.4234672 C35.8896679,10.7971369 35.958,11.1961966 35.958,11.618 C35.958,12.0386247 35.890057,12.4408473 35.753871,12.8221682 C35.6161312,13.2078395 35.418157,13.5480206 35.1604983,13.8392869 C34.8963985,14.1378345 34.5679989,14.3719977 34.1803631,14.540535 C33.7931529,14.7088873 33.3637371,14.792 32.896,14.792 C32.556171,14.792 32.2364026,14.7447299 31.9382862,14.6491077 C31.6550593,14.5582613 31.3870974,14.4376785 31.1350974,14.2875508 C30.8854787,14.1388417 30.6520265,13.9637526 30.4351177,13.7627151 C30.365243,13.6979533 30.2968036,13.6325659 30.2298013,13.5665526 Z M31.9760945,11.6708988 C32.0771147,11.7597048 32.1840487,11.8442858 32.2969656,11.9246673 C32.4883866,12.0609331 32.688235,12.126 32.91,12.126 C33.0485485,12.126 33.1272442,12.0925125 33.1870303,12.0221758 C33.2666566,11.9284978 33.306,11.8150963 33.306,11.66 C33.306,11.4870753 33.264673,11.3666367 33.1847117,11.2752523 C33.1217958,11.2033484 33.0293584,11.166 32.868,11.166 C32.7892691,11.166 32.7079094,11.1837974 32.6204094,11.2220787 C32.504041,11.2729899 32.3928071,11.3368126 32.2862549,11.4139711 C32.1776974,11.4925817 32.0743431,11.5781908 31.9760945,11.6708988 Z M28.4547727,11.6737601 C28.3493994,11.5817898 28.2409105,11.4967652 28.1292688,11.418616 C28.0195606,11.3418202 27.9078633,11.2805669 27.7938115,11.2342333 C27.7022493,11.1970362 27.6209999,11.18 27.548,11.18 C27.4206822,11.18 27.3435483,11.2140053 27.2772823,11.2916312 C27.192824,11.390568 27.152,11.5060416 27.152,11.66 C27.152,11.8250807 27.1902141,11.9301695 27.262363,12.0043225 C27.3309752,12.0748406 27.4293973,12.112 27.59,12.112 C27.7788441,12.112 27.9638929,12.0473081 28.1565071,11.9069283 C28.2609558,11.8308047 28.360369,11.7530779 28.4547727,11.6737601 Z" id="∞" stroke="#222121" fill="#FFFFFF"></path>
            </g>
        </g>
    </g>
</svg>