<?xml version="1.0" encoding="UTF-8"?>
<svg width="54px" height="44px" viewBox="0 0 54 44" version="1.1" xmlns="http://www.w3.org/2000/svg" xmlns:xlink="http://www.w3.org/1999/xlink">
    <!-- Generator: Sketch 50.2 (55047) - http://www.bohemiancoding.com/sketch -->
    <title>grampycat_svg</title>
    <desc>Created with Sketch.</desc>
    <defs>
        <polygon id="path-1" points="0 0.0246 27.9266455 0.0246 27.9266455 23.999925 0 23.999925"></polygon>
        <polygon id="path-3" points="0 0.0246 27.9266455 0.0246 27.9266455 25 0 25"></polygon>
    </defs>
    <g id="Page-1" stroke="none" stroke-width="1" fill="none" fill-rule="evenodd">
        <g id="achieves" transform="translate(-53.000000, -441.000000)">
            <g id="Group-41" transform="translate(59.000000, 443.000000)">
                <g id="Group-31">
                    <g id="Group-25" fill="#FFFFFF" stroke="#323232" stroke-opacity="0.5">
                        <g id="Group-8-Copy-7">
                            <g id="Group-9">
                                <circle id="Oval-3-Copy" cx="20" cy="20" r="19.5"></circle>
                            </g>
                        </g>
                    </g>
                    <g id="Group" transform="translate(7.000000, 9.000000)">
                        <g id="Group-3">
                            <mask id="mask-2" fill="white">
                                <use xlink:href="#path-1"></use>
                            </mask>
                            <g id="Clip-2"></g>
                            <path d="M0.587791489,0.03705 C1.04621702,0.07905 4.83813191,2.72295 5.46277021,3.10065 C6.08800426,3.47835 7.96311064,4.52745 7.96311064,4.52745 C7.96311064,4.52745 9.71311064,3.81405 10.5882596,3.68805 C11.4634085,3.56205 12.754983,3.93975 13.7135362,3.98175 C14.6717915,4.02405 16.6717064,3.77205 17.5468553,3.85605 C18.4220043,3.94005 19.7326426,4.27335 19.7326426,4.27335 C19.7326426,4.27335 21.2672809,3.31005 21.892217,2.84835 C22.5174511,2.38665 26.7540894,0.16305 27.3808128,0.16305 C27.8389404,0.16305 27.9524298,0.22785 27.9220468,0.62475 C27.8806426,1.17015 26.4863021,4.54125 26.2360894,4.96095 C25.9858766,5.38035 26.2792809,5.82435 26.1121745,6.28605 C25.9456638,6.74775 25.4750255,7.06635 25.392217,7.48605 C25.3085149,7.90545 25.5983447,8.36475 25.6403447,9.03615 C25.6817489,9.70755 25.2971957,10.82265 25.2971957,10.82265 C25.2971957,10.82265 26.6721745,13.42455 26.6721745,15.18705 C26.6721745,16.94955 24.9641745,19.55145 24.0470255,20.60055 C23.1304723,21.64965 20.3799191,22.90875 19.3802596,22.99245 C18.3803021,23.07675 17.6719617,22.61475 17.171834,22.86675 C16.6714085,23.11845 16.6714085,23.49645 16.0467702,23.79015 C15.4215362,24.08385 11.921834,24.04185 11.1717915,23.83215 C10.4217489,23.62245 10.0050255,22.74075 9.50519574,22.69935 C9.00506809,22.65705 8.96366383,22.99275 8.38013191,22.95105 C7.79689787,22.90905 5.79668511,22.27965 4.7133234,21.56625 C3.6299617,20.85255 1.12991915,16.94985 1.04651489,15.14565 C0.963408511,13.34085 2.33808936,10.94895 2.33808936,10.94895 C2.33808936,10.94895 1.50494043,9.31245 1.54634468,8.80875 C1.58834468,8.30505 1.96306809,7.63365 1.8379617,7.04625 C1.71315319,6.45885 1.25472766,6.66855 1.21302553,6.16515 C1.1713234,5.66145 1.42153617,5.66145 1.21302553,5.11575 C1.00451489,4.57005 -0.0788468085,1.12815 0.00455744681,0.54075 C0.0760468085,0.03525 0.129365957,-0.00495 0.587791489,0.03705" id="Fill-1" fill="#FEFEFE" mask="url(#mask-2)"></path>
                        </g>
                        <g id="Group-6">
                            <mask id="mask-4" fill="white">
                                <use xlink:href="#path-3"></use>
                            </mask>
                            <g id="Clip-5"></g>
                            <path d="M0.587791489,0.03705 C1.04621702,0.07905 4.83813191,2.72295 5.46277021,3.10065 C6.08800426,3.47835 7.96311064,4.52745 7.96311064,4.52745 C7.96311064,4.52745 9.71311064,3.81405 10.5882596,3.68805 C11.4634085,3.56205 12.754983,3.93975 13.7135362,3.98175 C14.6717915,4.02405 16.6717064,3.77205 17.5468553,3.85605 C18.4220043,3.94005 19.7326426,4.27335 19.7326426,4.27335 C19.7326426,4.27335 21.2672809,3.31005 21.892217,2.84835 C22.5174511,2.38665 26.7540894,0.16305 27.3808128,0.16305 C27.8389404,0.16305 27.9524298,0.22785 27.9220468,0.62475 C27.8806426,1.17015 26.4863021,4.54125 26.2360894,4.96095 C25.9858766,5.38035 26.2792809,5.82435 26.1121745,6.28605 C25.9456638,6.74775 25.4750255,7.06635 25.392217,7.48605 C25.3085149,7.90545 25.5983447,8.36475 25.6403447,9.03615 C25.6817489,9.70755 25.2971957,10.82265 25.2971957,10.82265 C25.2971957,10.82265 26.6721745,13.42455 26.6721745,15.18705 C26.6721745,16.94955 24.9641745,19.55145 24.0470255,20.60055 C23.1304723,21.64965 20.3799191,22.90875 19.3802596,22.99245 C18.3803021,23.07675 17.6719617,22.61475 17.171834,22.86675 C16.6714085,23.11845 16.6714085,23.49645 16.0467702,23.79015 C15.4215362,24.08385 11.921834,24.04185 11.1717915,23.83215 C10.4217489,23.62245 10.0050255,22.74075 9.50519574,22.69935 C9.00506809,22.65705 8.96366383,22.99275 8.38013191,22.95105 C7.79689787,22.90905 5.79668511,22.27965 4.7133234,21.56625 C3.6299617,20.85255 1.12991915,16.94985 1.04651489,15.14565 C0.963408511,13.34085 2.33808936,10.94895 2.33808936,10.94895 C2.33808936,10.94895 1.50494043,9.31245 1.54634468,8.80875 C1.58834468,8.30505 1.96306809,7.63365 1.8379617,7.04625 C1.71315319,6.45885 1.25472766,6.66855 1.21302553,6.16515 C1.1713234,5.66145 1.42153617,5.66145 1.21302553,5.11575 C1.00451489,4.57005 -0.0788468085,1.12815 0.00455744681,0.54075 C0.0760468085,0.03525 0.129365957,-0.00495 0.587791489,0.03705 Z" id="Path" stroke="#1B1A1A" fill="#533F31" mask="url(#mask-4)"></path>
                            <path d="M13.6214235,8.64320914 C14.388497,8.72352294 14.7455142,9.7151195 15.0336941,11.6576279 C15.0881771,12.024876 15.2400484,13.1982513 15.246799,13.2471005 C15.3118026,13.717482 15.36551,14.0103804 15.4228482,14.1857155 C15.7839574,15.286366 16.4200426,16.6031961 16.8828529,17.1687682 C16.9151801,17.2082074 16.9667751,17.2535534 17.0380575,17.3038056 C17.2436807,17.4487642 18.4881739,18.0605074 18.5134261,18.0739796 C19.582989,18.6446 20.2106736,19.2317019 20.3934115,20.0642592 C20.6984571,21.4542105 19.5226806,22.492467 18.2144109,22.7142127 C18.0422904,22.7434786 17.9266684,22.743393 17.7091167,22.7267349 C17.6940727,22.7255824 17.6940727,22.7255824 17.6793561,22.7244708 C17.3986307,22.7034316 17.2429037,22.7278362 16.9284316,22.8813032 C16.777773,22.9550315 16.7175501,23.0116395 16.6034343,23.1635107 C16.5252339,23.2675837 16.4903948,23.3106063 16.4291498,23.3718012 C16.2854843,23.5153493 16.1006544,23.629237 15.8319866,23.7302143 C15.2485618,23.949135 11.4791453,23.9306623 10.8750381,23.733915 C10.6250709,23.6526987 10.4365714,23.5200315 9.9842239,23.1515356 C9.97072954,23.1405431 9.97072954,23.1405431 9.95726955,23.1295842 C9.57240917,22.8163072 9.38277763,22.6883748 9.21668753,22.6479018 C9.05456361,22.6082775 8.98803338,22.6106531 8.87687746,22.6428278 C8.85519309,22.6491913 8.85519309,22.6491913 8.83051547,22.6565258 C8.6253634,22.7170965 8.46298717,22.732827 8.18848709,22.6946332 C6.95755052,22.5222222 5.51434417,21.2960087 5.78551193,19.8206139 C5.95453031,18.9019427 6.66892112,18.3733382 8.01235177,17.8687323 C8.19687779,17.7994224 8.80665747,17.5832994 8.89576631,17.5504927 C9.3193256,17.3945536 9.57895105,17.2747394 9.7501845,17.1473731 C10.1012258,16.8862009 10.3878776,16.5062108 10.7869728,15.8235398 C10.778785,15.8375454 11.2261909,15.056689 11.3656396,14.8271178 C11.4543945,14.6810026 11.5397366,14.5463516 11.6255494,14.4178708 C11.7934437,14.1665642 11.9156476,13.5990303 12.0942839,12.3755043 C12.0968796,12.3577258 12.1627693,11.9032645 12.182466,11.7698305 C12.5250969,9.44870736 12.8148107,8.55875551 13.6214235,8.64320914 Z" id="Path" stroke="#1B1A1A" stroke-width="0.5" fill="#F0EBEE" mask="url(#mask-4)"></path>
                            <path d="M16.6434085,6.75165 C16.6434085,6.75165 16.9630255,6.19185 17.3380468,6.20625 C17.7130681,6.22065 19.2405574,7.10145 19.8380894,7.54935 C20.4356213,7.99725 22.0045149,9.28365 22.4632383,9.60555 C22.921366,9.92775 24.8110681,10.78035 25.1300894,13.71795 C25.4494085,16.65585 22.8385574,19.98495 22.2967277,20.43255 C21.7551957,20.88045 20.8663447,20.93655 20.3939191,21.46815 C19.9214936,21.99945 18.9355362,22.64265 18.9355362,22.64265 C18.9355362,22.64265 19.5640468,22.76685 20.4913234,22.44735 C21.3620043,22.14735 22.5180468,21.41565 23.0050681,21.06255 C24.3386426,20.09745 26.449366,17.07585 26.3659617,15.24345 C26.2581319,12.86475 24.8798766,10.69695 24.8798766,10.69695 C24.8798766,10.69695 24.5587702,10.40985 24.5355362,10.19295 C24.2004298,7.04295 19.806217,4.66695 19.806217,4.66695 C19.6817064,4.66695 18.490217,4.34535 17.5459617,4.23345 C16.6014085,4.12185 15.2955362,4.31715 14.2961745,4.31745 C13.2959191,4.31745 11.9209404,3.95355 10.8792809,4.02375 C9.8373234,4.09365 8.25413191,4.82085 8.25413191,4.82085 C3.51528085,6.64905 2.34404681,11.57805 2.75481277,10.34715 C2.75481277,10.34715 2.62642979,10.63575 2.63000426,10.69695 C2.65770638,11.18685 1.40783404,13.21485 1.33842979,14.85165 C1.26902553,16.48875 3.35234468,19.84545 4.58851489,20.93655 C5.82468511,22.02795 7.08885532,22.22355 7.08885532,22.22355 C7.08885532,22.22355 6.88034468,21.76215 6.57472766,21.44055 C6.26851489,21.11805 6.10170638,20.86635 5.75468511,20.62845 C5.40736596,20.39115 5.07404681,20.55825 4.50451489,20.01285 C3.93498298,19.46775 2.60170638,15.96945 2.62970638,14.51535 C2.65740851,13.06065 3.99098298,11.71755 4.6713234,10.73865 C4.6713234,10.73865 6.55983404,8.43075 7.75489787,7.80105 C8.50345106,7.40685 10.5605574,6.49995 10.9632809,6.45795 C11.3660043,6.41595 11.5331106,7.05945 11.5331106,7.05945 C11.5331106,7.05945 12.2319191,6.31785 14.1576638,6.31785 C16.0834085,6.31785 16.6434085,6.75165 16.6434085,6.75165 Z" id="Path" stroke="#1B1A1A" stroke-width="0.5" fill="#C0B2A4" mask="url(#mask-4)"></path>
                            <g id="Group-30" mask="url(#mask-4)">
                                <g transform="translate(17.230769, 9.818182)">
                                    <path d="M3.64456572,0.803919044 L5.0814535,1.17290662 C5.44823584,1.26701687 5.68956742,1.62059113 5.65849165,2.0058357 C5.54476402,3.42122243 4.91024021,4.54206438 3.47464949,4.8068078 C1.5769838,5.15607427 -0.031595362,4.68346583 -0.185746224,3.81682096 C-0.296162937,3.19019121 0.0138609711,2.55733161 0.583119431,1.94232953 C0.749401005,1.76268615 0.926831808,1.59754577 1.10432509,1.45005223 C1.21143004,1.36105006 1.29571848,1.29701354 1.3460212,1.26148507 L1.69545552,1.01468199 L1.73895241,1.44026879 C1.74436276,1.49320535 1.75866939,1.59137883 1.78471696,1.71921375 C1.82821401,1.9326863 1.88895848,2.14582226 1.96897234,2.34247969 C2.18841272,2.88181845 2.49560102,3.17461268 2.90845664,3.15692365 C3.26894465,3.14124393 3.44263824,2.82312067 3.45953702,2.21984288 C3.46661763,1.96706855 3.44320879,1.69217045 3.39968585,1.4188775 C3.37675612,1.27489521 3.35401897,1.16498071 3.33946576,1.10514424 L3.24099712,0.700284091 L3.64456572,0.803919044 Z" id="Path" stroke="#1B1A1A" stroke-width="0.5" fill="#A8B7E4" fill-rule="evenodd"></path>
                                    <path d="M2.10725661,0.935003107 C3.38852263,3.33942263 3.44960546,3.28913808 1.90107422,1.04819558" id="Path-6" stroke="#141414" stroke-width="1" fill="none"></path>
                                </g>
                            </g>
                            <g id="Group-30-Copy" mask="url(#mask-4)">
                                <g transform="translate(7.769231, 12.318182) scale(-1, 1) translate(-7.769231, -12.318182) translate(4.769231, 9.818182)">
                                    <path d="M3.64456572,0.803919044 L5.0814535,1.17290662 C5.44823584,1.26701687 5.68956742,1.62059113 5.65849165,2.0058357 C5.54476402,3.42122243 4.91024021,4.54206438 3.47464949,4.8068078 C1.5769838,5.15607427 -0.031595362,4.68346583 -0.185746224,3.81682096 C-0.296162937,3.19019121 0.0138609711,2.55733161 0.583119431,1.94232953 C0.749401005,1.76268615 0.926831808,1.59754577 1.10432509,1.45005223 C1.21143004,1.36105006 1.29571848,1.29701354 1.3460212,1.26148507 L1.69545552,1.01468199 L1.73895241,1.44026879 C1.74436276,1.49320535 1.75866939,1.59137883 1.78471696,1.71921375 C1.82821401,1.9326863 1.88895848,2.14582226 1.96897234,2.34247969 C2.18841272,2.88181845 2.49560102,3.17461268 2.90845664,3.15692365 C3.26894465,3.14124393 3.44263824,2.82312067 3.45953702,2.21984288 C3.46661763,1.96706855 3.44320879,1.69217045 3.39968585,1.4188775 C3.37675612,1.27489521 3.35401897,1.16498071 3.33946576,1.10514424 L3.24099712,0.700284091 L3.64456572,0.803919044 Z" id="Path" stroke="#1B1A1A" stroke-width="0.5" fill="#A8B7E4" fill-rule="evenodd"></path>
                                    <path d="M2.10725661,0.935003107 C3.38852263,3.33942263 3.44960546,3.28913808 1.90107422,1.04819558" id="Path-6" stroke="#141414" stroke-width="1" fill="none"></path>
                                </g>
                            </g>
                        </g>
                        <path d="M11.1415931,20.8523241 C11.4278758,19.4182746 12.3313534,20.056271 13.7567714,20 C15.5677716,19.9285128 16.1127933,19.4983747 16.8569784,20.8523241 C16.9881288,21.0906146 18.1113406,20.9858242 17.9783166,20.7438015 C17.6819166,20.2054946 17.4151192,19.7030749 16.7522474,19.3772198 C15.7678697,18.8937484 14.873049,18.9962421 13.7567714,19.0401679 C13.0762879,19.067155 12.2612816,18.9528904 11.6081525,19.1165357 C10.7635436,19.3278391 10.1280261,20.1130494 10.0021216,20.7438015 C9.96789763,20.9151027 10.3477215,20.9512769 11.1415931,20.8523241 Z" id="Fill-7" fill="#010202"></path>
                        <path d="M13,19 C13,19.2304278 14,19.2306796 14,19 L14,18.1728209 C14,17.9426449 13,17.9421413 13,18.1728209 L13,19 Z" id="Fill-9" fill="#010202"></path>
                        <path d="M12.5092468,17.4311082 C12.6132925,17.4531466 12.7246033,17.4404056 12.8185299,17.5041103 C12.9713551,17.6077597 13.0167616,17.8660222 13.1262561,18.0416406 C13.1386033,18.0614537 13.485943,18.2330991 13.5,18.25 C13.7125245,18.5055204 14.25,18.25 14.25,18.25 C14.25,18.2698855 14.6103996,17.6087927 14.7450623,17.4824163 C14.8018853,17.4286977 14.8779087,17.3143735 14.9409589,17.1848979 C15.0574589,16.9469521 14.9954466,16.6208527 14.8086314,16.4820797 C13.9760061,15.8646602 12.3966387,15.9335302 12.213456,16.1745752 C12.0302732,16.4156201 12.0025104,16.5595584 12.0025104,16.5595584 C11.9729313,16.9617592 12.2085261,17.3670591 12.5092468,17.4311082 Z" id="Fill-11" stroke="#131313" stroke-width="0.5" fill="#E7B4BD"></path>
                    </g>
                </g>
            </g>
        </g>
    </g>
</svg>