<?xml version="1.0" encoding="UTF-8"?>
<svg width="54px" height="46px" viewBox="0 0 54 46" version="1.1" xmlns="http://www.w3.org/2000/svg" xmlns:xlink="http://www.w3.org/1999/xlink">
    <!-- Generator: Sketch 50.2 (55047) - http://www.bohemiancoding.com/sketch -->
    <title>nsk_svg</title>
    <desc>Created with Sketch.</desc>
    <defs>
        <circle id="path-1" cx="20" cy="22" r="20"></circle>
    </defs>
    <g id="Page-1" stroke="none" stroke-width="1" fill="none" fill-rule="evenodd">
        <g id="achieves" transform="translate(-53.000000, -878.000000)">
            <g id="Group-43-Copy" transform="translate(60.000000, 881.000000)">
                <g id="Group-19-Copy">
                    <g id="Group-8-Copy-2">
                        <g id="Group-9"></g>
                    </g>
                </g>
            </g>
            <g id="Group-5" transform="translate(60.000000, 879.000000)">
                <circle id="Oval-3-Copy" stroke-opacity="0.5" stroke="#323232" fill="#DEDEDD" cx="20" cy="22" r="19.5"></circle>
                <mask id="mask-2" fill="white">
                    <use xlink:href="#path-1"></use>
                </mask>
                <circle stroke-opacity="0.5" stroke="#323232" cx="20" cy="22" r="19.5"></circle>
                <g id="Group-49" mask="url(#mask-2)">
                    <g transform="translate(-35.000000, 0.000000)">
                        <path d="M57.5681858,17.7687027 C57.5681858,18.5996686 55.1032575,19.3274845 54.1955049,19.3274845 C52.9738296,19.3274845 51.5976583,19.0370439 50.2497679,19.0032046 C50.1663893,19.0011114 50.0831189,19 50,19 C49,19 48.044225,19.7426471 45.6338382,19.7426471 C43.6887683,19.7426471 42,19.208222 42,17.664912 C42,17.0795455 43.833118,17.4566901 45,17.4566901 C48,17.4566901 50.183695,14 52,14 C54.5944929,14 53.417317,17.664912 56.7899979,17.664912 C57.049927,17.664912 57.4386211,17.664912 57.5681858,17.4566901 L57.5681858,17.7687027 Z" id="Fill-48" fill="#EC1D24"></path>
                        <ellipse id="Oval" fill="#FFFFFF" cx="56.512572" cy="10.5983385" rx="4.98140388" ry="4.00938144"></ellipse>
                        <path d="M55.4282967,9.88343558 C55.0633355,9.88343558 54.8192771,10.0401773 54.8192771,10.5104024 C54.8192771,10.6681117 55.0633355,10.9815951 55.4282967,10.9815951 C55.5499505,10.9815951 55.9156627,10.6681117 55.9156627,10.5104024 C55.9156627,10.0401773 55.5499505,9.88343558 55.4282967,9.88343558 M52,11.4283279 C54.6065293,12.625171 54.8068413,12.4259022 55.6093259,12.4259022 C54.8068413,12.0261344 54.2059053,12.0261344 54.0055932,10.6300224 C54.0055932,9.23268026 55.2087019,8.43560483 56.2114985,8.03583706 C57.4146072,8.03583706 58.8180278,8.63487369 58.6177158,10.4307535 C58.2170918,11.8268656 57.2142951,12.4259022 57.2142951,12.4259022 C57.6161557,12.4259022 58.0167797,12.0261344 58.2170918,12.0261344 C59.4202004,11.229059 60.623309,9.83171689 60.222685,7.83656821 C58.6177158,7.63729935 58.0167797,7.63729935 56.2114985,7.83656821 C54.0055932,8.03583706 53.4034207,8.63487369 52,11.4283279 M87.3294243,46.5198548 C87.3294243,51.0382166 85.3719347,55.5558257 85.7385397,60.0734347 C87.2064683,77.2901849 91,94.1395641 91,110.989696 C91,116.239789 87.3294243,124.909141 81.4562013,124.909141 C75.9510921,124.909141 75.0949261,121.246724 71.1791927,119.292431 L71.1791927,120.757398 C71.1791927,123.688085 73.7491992,126.496816 73.7491992,130.525852 C73.7491992,133.823157 72.6478756,137.119709 72.6478756,140.171598 C72.6478756,148.353131 80.3556321,149.207569 81.5791573,151.283065 C81.7021133,151.64893 82.9248842,166.790185 82.9248842,167.644624 C82.9248842,171.918322 79.6216678,179 74.9727245,179 C72.8922789,179 63.9609972,176.925257 63.9609972,174.115773 C63.9609972,164.225363 75.9510921,173.993818 75.9510921,162.516486 C75.9510921,151.16111 60.6577808,155.556764 54.1727953,150.062008 C46.9545998,144.079432 49.4016503,131.502999 49.4016503,122.955601 C49.4016503,100.366803 29.3364397,94.2615192 27.8677568,74.9700264 C29.3364397,73.3823515 30.5599649,71.1849009 31.0487716,69.1086527 C28.8468787,72.1620475 23.2188135,79.3656803 19.0594311,79.3656803 C13.3091642,79.3656803 13.3121815,69.0010009 10.2533684,66.0710669 C9.27424643,65.8264038 5.68664712,64.921527 4.58532353,64.921527 C1.64946641,64.921527 -1.15362842,57.1088714 0.484778996,55.6386347 C0.484778996,54.9061512 7.3771034,55.4278481 7.85987538,55.4278481 C14.8336676,55.4278481 16.2450213,66.1787186 19.4260361,66.1787186 C20.771763,66.1787186 28.2358704,47.0084281 31.4161309,43.2233026 C34.7193473,39.1942669 55.3970748,24.0537649 55.3970748,21.2450331 C55.3970748,18.8029196 52.3382617,20.2686394 50.8703332,20.2686394 C50.0134129,20.2686394 50,19.9771466 50,19 C50.8703332,18.1912596 51.5301205,18.1912596 51.6035431,15.9949406 C51.6769657,13.7986216 51,15.3844122 50,15.9949406 C48.7147574,16.7796177 47.9337217,17.0940423 46.5872405,17.0940423 L46.2198812,16.9720872 L45.7310745,16.605469 L45.3644696,15.9949406 L44.9963559,15.3844122 C44.8741543,15.0177941 44.6297509,14.6511759 44.5075493,14.1633554 C44.5075493,13.6747821 43.650629,13.4301191 43.650629,12.2098151 C43.650629,9.76770153 52.4604634,6.71505955 54.5401546,5.25009252 C55.3970748,4.76151925 56.4976441,4.39490108 57.2316084,3.90708061 C57.5982134,3.54046245 58.0885287,0.609775587 59.4342556,0.609775587 C60.5348248,0.609775587 61.1473418,1.46421422 61.8805517,2.19745054 C62.1257094,2.31940566 62.1257094,2.68527101 62.2486654,2.68527101 C63.104077,0.732483514 64.5727599,0 66.0406884,0 C69.7112642,0 70.4459828,4.88347436 70.2008251,7.56949818 C70.8125878,6.83701467 70.9347894,5.12813741 70.5681844,4.27294597 C74.9727245,5.61595788 76.5628547,10.2562748 76.5628547,14.5292208 C76.5628547,30.6468693 51.6035431,40.4153237 51.6035431,64.9576618 C51.6035431,82.7841876 69.1002559,96.5816777 71.1791927,110.989696 C72.6478756,112.577371 74.6046108,115.508058 76.9294597,115.508058 C80.7229914,115.508058 81.0895964,110.501123 81.0895964,107.693144 C81.0895964,89.6219551 65.0623208,91.8201585 65.0623208,66.789247 C65.0623208,60.1961426 67.2642137,53.6022853 69.7112642,47.4970014 C69.9556675,46.6425627 70.5681844,45.9093264 71.1791927,45.298798 C72.6478756,43.7118759 74.4824092,42.1249537 75.7059344,40.1706606 C77.0524157,38.0951652 77.7863799,35.4091414 79.4994661,33.210938 C80.6007897,31.9898812 81.5791573,31.1354426 83.1692876,30.6468693 C87.4523802,31.5020608 87.3294243,42.9793924 87.3294243,46.5198548 Z" id="Fill-80" fill="#231F20"></path>
                        <path d="M56.7818005,19.7426471 C57.7321804,19.7426471 59.3478261,20.3369479 59.3478261,21.6253858 L59.3478261,22.6151011 C59.3478261,24.8940405 50.6986154,28.3607954 48.7971014,28.9558824 C50.4135014,28.1626951 51.7440332,26.9740934 53.1696029,25.6864416 C54.8802866,24.2006895 57.1619525,22.5168371 56.7818005,19.7426471" id="Fill-83" fill="#FEFEFE"></path>
                    </g>
                </g>
                <g id="Group-49" transform="translate(22.000000, 0.000000)" fill="#231F20">
                    <path d="M0.00786345006,3.86210113 C0.387001795,3.49970358 0.894079828,0.602755667 2.285814,0.602755667 C3.42400915,0.602755667 4.05746664,1.44735774 4.81574333,2.17215283 C5.06928234,2.29270396 5.06928234,2.65435736 5.19644191,2.65435736 L5.32282136,2.29270396 C6.08109805,0.724050943 7.59999179,0 9.11810541,0 C12.9141696,0 13.6740065,4.82725434 13.4204675,7.48235584 C14.0531449,6.7583049 14.1795243,5.06910075 13.800386,4.22375453 C18.3555069,5.55130528 20,10.1382015 20,14.361956 C20,15.1756796 20,18.4584629 18.8881641,20.6300467 C17.0651842,24.1906022 16.1358809,25.183833 15.5526562,24.9732145 C11.5927019,23.5431654 6.45907437,13.1313735 3.3224608,7.48235584 C2.16843901,5.40397119 -0.15209775,3.96371936 0.00786345006,3.86210113 Z" id="Fill-80"></path>
                </g>
            </g>
            <path d="M89,883 C88,883 89,881 91,881 C92.3333333,881 93,882.111111 93,884.333333 L93,885 C92.7353525,884.46734 92.4020192,884.134006 92,884 C90.8577474,883.619249 90,883 89,883 Z" id="Path-15" fill="#FFFFFF"></path>
        </g>
    </g>
</svg>