<svg xmlns="http://www.w3.org/2000/svg" viewBox="0 0 36 36"><defs><style>.cls-1{fill:#662d91;}.cls-2{fill:#fff;}</style></defs><title>15</title><g id="Layer_2" data-name="Layer 2"><g id="Текст"><rect class="cls-1" width="36" height="36" rx="18" ry="18"/><path class="cls-2" d="M25.58,15a1.9,1.9,0,0,1-2,2,2,2,0,0,1-1.5-.65A1.85,1.85,0,0,1,21.6,15V12.85a2,2,0,1,1,4,0Zm-1.06-2.17a.93.93,0,1,0-1.85,0v2c0,.59.29,1.1.93,1.1s.92-.48.92-1.07Z"/><path class="cls-2" d="M30.06,15a1.9,1.9,0,0,1-2,2,2,2,0,0,1-1.5-.65A1.85,1.85,0,0,1,26.08,15V12.85a2,2,0,1,1,4,0ZM29,12.85a.93.93,0,1,0-1.85,0v2c0,.59.29,1.1.93,1.1s.92-.48.92-1.07Z"/><path class="cls-2" d="M7.5,24.89V14.58H5.94V12.46h3.8V24.89Z"/><path class="cls-2" d="M16.88,25.14a4.28,4.28,0,0,1-4.25-3.95h2.23a2,2,0,0,0,2,1.83,2.2,2.2,0,0,0,0-4.4,2,2,0,0,0-1.68.89l-2-.55,1.18-6.5H20v2.12H16l-.4,2.29a4,4,0,0,1,1.6-.35,4.16,4.16,0,0,1,4,4.3A4.31,4.31,0,0,1,16.88,25.14Z"/></g></g></svg>