<svg id="Layer_1" data-name="Layer 1" xmlns="http://www.w3.org/2000/svg" viewBox="0 0 500 700"><defs><style>.cls-1{fill:#4f86a0;}.cls-2{fill:#f7f4ec;}.cls-3{fill:#60899b;}</style></defs><title>для мальчиков</title><rect class="cls-1" x="-188.22" y="-211.24" width="903.09" height="1056.11"/><rect class="cls-2" x="45" y="13.07" width="412.8" height="631.63"/><rect class="cls-3" x="110.3" y="574.9" width="8.99" height="70.8"/><rect class="cls-3" x="381.51" y="574.9" width="8.99" height="70.8"/><path class="cls-3" d="M222.76,568.23V543.47l-8.39,8.39a32.21,32.21,0,0,0-22.5-9.18c-18.25,0-33,14-33,32.22s14.79,32.22,33,32.22a32.17,32.17,0,0,0,27.29-15l-9.53-5.92a21,21,0,1,1-3.19-26.36l-8.37,8.37Z"/><path class="cls-3" d="M235.18,589.86A23,23,0,0,0,251.37,596c11.42,0,16.6-12.25,3.94-15.7l-10.52-2.71c-9-2.38-15.12-8.46-15.12-17.09-0.25-9.86,10.11-18.08,21.7-17.83a34.36,34.36,0,0,1,21,6.9l-6.49,9.2a22.35,22.35,0,0,0-14.55-4.85c-9.62,0-14.46,9.78-3.62,12.9l9.86,2.55c9.45,2.38,17.09,8.46,17.09,18.49,0.25,10.68-10.6,19.48-23.34,19.23a35.16,35.16,0,0,1-22.76-8Z"/><path class="cls-3" d="M332.44,563.72a21,21,0,1,0,0,22.44l9.53,5.92a32.17,32.17,0,0,1-27.29,15c-18.25,0-33-14-33-32.22s14.79-32.22,33-32.22a32.36,32.36,0,0,1,27.29,15Z"/><circle class="cls-3" cx="314.72" cy="574.94" r="9.82"/><path class="cls-1" d="M44-139.63v706A136.62,136.62,0,0,1,171.66,430a78.75,78.75,0,0,0,157.49,0A136.62,136.62,0,0,1,456.8,566.32V645.7h861.12V-139.63H44Z"/><path class="cls-2" d="M310,188.39a39.36,39.36,0,1,0,39.36,39.35A39.4,39.4,0,0,0,310,188.39Zm0,68.42a30.61,30.61,0,0,1-30.57-30.57h9a21.58,21.58,0,0,0,43.17,0h9A30.61,30.61,0,0,1,310,256.81Z"/><path class="cls-2" d="M190.82,188.39a39.36,39.36,0,1,0,39.36,39.35A39.4,39.4,0,0,0,190.82,188.39Zm0,68.42a30.61,30.61,0,0,1-30.57-30.57h9a21.58,21.58,0,0,0,43.17,0h9A30.61,30.61,0,0,1,190.82,256.81Z"/><path class="cls-2" d="M128.12,195.17l17.48,15.64a48.27,48.27,0,0,1,93,9.84h23.63a48.27,48.27,0,0,1,93-9.84l18-16.08A146.23,146.23,0,0,0,361,178.25a69,69,0,0,0,50.9-66.58H363.26c-1.36,0-2.7,0-4,.13a68.68,68.68,0,0,0,14.41-42.17H255.51A131.35,131.35,0,0,0,181.2,92.54V69.62A74.38,74.38,0,0,0,106.81,144C106.81,162.66,114,182.55,128.12,195.17Z"/><path class="cls-2" d="M422.54,229.2A27.51,27.51,0,0,0,395,201.69H378.89l-21.15,18.93a48.29,48.29,0,1,1-96,9H239.07a48.31,48.31,0,1,1-96-9l-21.14-18.93H105.78a27.51,27.51,0,0,0,0,55h0a147,147,0,0,0-.9,16,145.45,145.45,0,0,0,75.73,127.7v29.25h0a69.76,69.76,0,1,0,139.53,0V400.43a145.45,145.45,0,0,0,75.73-127.7,147,147,0,0,0-.9-16h0A27.51,27.51,0,0,0,422.54,229.2ZM136.32,293a5.67,5.67,0,1,1,5.67-5.67A5.66,5.66,0,0,1,136.32,293Zm13.87,22.23a5.67,5.67,0,1,1,5.67-5.67A5.67,5.67,0,0,1,150.19,315.2Zm106.6-56.8v9a13.27,13.27,0,0,0,0,26.54v9A22.26,22.26,0,0,1,256.79,258.4ZM164.06,293a5.67,5.67,0,1,1,5.67-5.67A5.67,5.67,0,0,1,164.06,293Zm156.5,9.94H308a57.77,57.77,0,0,1-115.19,0H180.24v-9H214v9H201.84a48.77,48.77,0,0,0,97.13,0H286.82v-9h33.74v9ZM336.74,293a5.67,5.67,0,1,1,5.67-5.67A5.66,5.66,0,0,1,336.74,293Zm13.87,22.23a5.67,5.67,0,1,1,5.66-5.67A5.67,5.67,0,0,1,350.61,315.2ZM364.48,293a5.67,5.67,0,1,1,5.66-5.67A5.67,5.67,0,0,1,364.48,293Z"/></svg>