<svg xmlns="http://www.w3.org/2000/svg" width="72" height="58" viewBox="0 0 72 58">
  <g fill="none" fill-rule="evenodd">
    <path fill="#8B9CA7" fill-rule="nonzero" d="M59,30.5143242 C58.3857846,30.0070678 57.7155634,29.5652116 57,29.1994192 L57,3 C57,2.44771525 56.5522847,2 56,2 L3,2 C2.44771525,2 2,2.44771525 2,3 L2,44 C2,44.5522847 2.44771525,45 3,45 L42.7789307,45 C43.2559286,45.7315752 43.8176312,46.4028801 44.4501238,47 L3,47 C1.34314575,47 2.22044605e-16,45.6568542 0,44 L0,3 C-2.22044605e-16,1.34314575 1.34314575,3.33066907e-16 3,0 L56,0 C57.6568542,-3.33066907e-16 59,1.34314575 59,3 L59,30.5143242 Z M53.5,7 C52.6715729,7 52,6.32842712 52,5.5 C52,4.67157288 52.6715729,4 53.5,4 C54.3284271,4 55,4.67157288 55,5.5 C55,6.32842712 54.3284271,7 53.5,7 Z M48.5,7 C47.6715729,7 47,6.32842712 47,5.5 C47,4.67157288 47.6715729,4 48.5,4 C49.3284271,4 50,4.67157288 50,5.5 C50,6.32842712 49.3284271,7 48.5,7 Z M43.5,7 C42.6715729,7 42,6.32842712 42,5.5 C42,4.67157288 42.6715729,4 43.5,4 C44.3284271,4 45,4.67157288 45,5.5 C45,6.32842712 44.3284271,7 43.5,7 Z" transform="translate(7 6)"/>
    <path fill="#314451" fill-rule="nonzero" d="M26,30 L30,30 L30,41 L26,41 L26,30 Z M42,20 L46,20 L46,41 L42,41 L42,20 Z M34,24 L38,24 L38,41 L34,41 L34,24 Z"/>
    <path fill="#314451" fill-rule="nonzero" d="M60.20427,52.6480299 C55.7036098,52.1512559 52.2027958,48.3358553 52.2027958,43.7027958 C52.2027958,38.732233 56.232233,34.7027958 61.2027958,34.7027958 C66.1733585,34.7027958 70.2027958,38.732233 70.2027958,43.7027958 C70.2027958,48.3358553 66.7019818,52.1512559 62.2013216,52.6480299 C62.2023002,52.666161 62.2027958,52.6844205 62.2027958,52.7027958 L62.2027958,58.7027958 C62.2027958,59.2550805 61.7550805,59.7027958 61.2027958,59.7027958 C60.650511,59.7027958 60.2027958,59.2550805 60.2027958,58.7027958 L60.2027958,52.7027958 C60.2027958,52.6844205 60.2032914,52.666161 60.20427,52.6480299 Z M61.2027958,50.7027958 C65.068789,50.7027958 68.2027958,47.568789 68.2027958,43.7027958 C68.2027958,39.8368025 65.068789,36.7027958 61.2027958,36.7027958 C57.3368025,36.7027958 54.2027958,39.8368025 54.2027958,43.7027958 C54.2027958,47.568789 57.3368025,50.7027958 61.2027958,50.7027958 Z" transform="rotate(-45 61.203 47.203)"/>
  </g>
</svg>
