<svg xmlns="http://www.w3.org/2000/svg" viewBox="0 0 71.24 57.96"><defs><style>.cls-1{fill:#29abe2;}</style></defs><title>projects</title><g id="Layer_2" data-name="Layer 2"><g id="Текст"><path class="cls-1" d="M26.63,11.71a7.33,7.33,0,0,1,5.45,2.23l3.47,3.47,3.63-3.47a7.46,7.46,0,0,1,5.45-2.23,7.72,7.72,0,1,1,0,15.43,7.53,7.53,0,0,1-5.45-2.31l-3.63-3.47-3.47,3.47a7.39,7.39,0,0,1-5.45,2.31,7.72,7.72,0,1,1,0-15.43Zm0,12.63a4.8,4.8,0,0,0,3.47-1.49l3.47-3.47-3.47-3.47a4.8,4.8,0,0,0-3.47-1.49,5,5,0,0,0-4.87,5A5,5,0,0,0,26.63,24.34Zm14.52-1.49a4.8,4.8,0,0,0,3.47,1.49,5,5,0,0,0,4.87-5,5,5,0,0,0-4.87-5,4.8,4.8,0,0,0-3.47,1.49l-3.63,3.47Z"/><path class="cls-1" d="M63.59,37.11V0H7.66V37.11L0,51.79V58H71.24V51.79ZM10.46,2.8H60.79V36.06H10.46Zm58,52.36H2.8V52.47l7.1-13.62H61.34l7.1,13.62Z"/><path class="cls-1" d="M46.28,52.47H25l4.38-8.4H41.89Zm-16.69-2.8H41.66l-1.46-2.8H31Z"/></g></g></svg>