<svg xmlns="http://www.w3.org/2000/svg" viewBox="0 0 353.86 121.24"><defs><style>.cls-1{fill:#4f86a0;}.cls-2{fill:#fff;}</style></defs><title>rules-new</title><g id="Layer_2" data-name="Layer 2"><g id="Текст"><path class="cls-1" d="M353.86,17,312.26,0,270.67,17l21.12,8.63V48.36a4.76,4.76,0,0,0,.27,8.88l-3.65,10.15h10.48l-3.65-10.15a4.76,4.76,0,0,0,.1-8.95V44.36c3.63,2.63,9.73,4.29,16.92,4.29,11.67,0,20.48-4.36,20.48-10.15V25.61ZM312.26,3.84,344.46,17,312.25,30.14l-13.93-5.69,14.61-5.81-1.31-3.3-18,7.17L280.07,17ZM329.19,38.5c0,3.11-7.24,6.6-16.92,6.6s-16.92-3.48-16.92-6.6V27.07L312.25,34l16.94-6.92Z"/><rect class="cls-1" y="3.39" width="64" height="64" rx="32" ry="32"/><rect class="cls-1" x="135" y="1.39" width="64" height="64" rx="32" ry="32"/><polygon class="cls-1" points="111.91 34.13 101.11 34.13 101.11 23.33 98.29 23.33 98.29 34.13 87.49 34.13 87.49 36.95 98.29 36.95 98.29 47.75 101.11 47.75 101.11 36.95 111.91 36.95 111.91 34.13"/><rect class="cls-1" x="224.18" y="30.91" width="22.1" height="2.83"/><rect class="cls-1" x="224.18" y="37.91" width="22.1" height="2.83"/><path class="cls-2" d="M22.48,34.67V23.05H20.06V19.87h6.2v14.8Z"/><path class="cls-2" d="M31.36,34.67V31.73a21.83,21.83,0,0,0,4.52-3.6c.86-.94,2-2.46,2-3.78a1.34,1.34,0,0,0-1.4-1.44c-1.36,0-1.64,1.24-1.7,2.34h-3.6a6.14,6.14,0,0,1,.88-3.4,5.3,5.3,0,0,1,4.56-2.26,4.94,4.94,0,0,1,4.66,2.6,4.22,4.22,0,0,1,.38,1.7c0,3.2-2.7,5.66-4.92,7.6h5v3.18Z"/><path class="cls-2" d="M13.58,43.79h1.66v2.33h0l1.5-2.33h1.8l-1.93,2.7,2.21,2.85H16.92L15.26,47h0v2.35H13.58Z"/><path class="cls-2" d="M24.72,43.79l-2.78,7.4H20.19l.88-2.13L19,43.79h1.77L21.89,47h0L23,43.79Z"/><path class="cls-2" d="M25.45,43.79H27v.62h0a2.08,2.08,0,0,1,1.73-.8,3,3,0,0,1,0,5.91,2.11,2.11,0,0,1-1.67-.68v2.35H25.45Zm4.37,2.79a1.39,1.39,0,1,0-2.78,0,1.39,1.39,0,1,0,2.78,0Z"/><path class="cls-2" d="M38,47.23a3,3,0,0,1-5.88-.68A3,3,0,0,1,38,45.93H36.34a1.26,1.26,0,0,0-1.2-.77,1.41,1.41,0,0,0,0,2.81,1.27,1.27,0,0,0,1.2-.74Z"/><path class="cls-2" d="M41.7,43.61a3,3,0,1,1-3,2.95A2.9,2.9,0,0,1,41.7,43.61Zm0,4.36a1.41,1.41,0,1,0-1.33-1.41A1.36,1.36,0,0,0,41.7,48Z"/><path class="cls-2" d="M48.27,43.79a1.83,1.83,0,0,1,1.39.44,1.34,1.34,0,0,1,.43,1,1.15,1.15,0,0,1-.23.73,1.28,1.28,0,0,1-.41.34,1.66,1.66,0,0,1,.57.36,1.5,1.5,0,0,1,0,2.08,2.59,2.59,0,0,1-1.93.57H45.64V43.79ZM47.84,46a.68.68,0,0,0,.5-.16.48.48,0,0,0,.12-.33.46.46,0,0,0-.11-.3.68.68,0,0,0-.51-.17H47.2v1Zm.21,2.15a.76.76,0,0,0,.56-.17.56.56,0,0,0,.15-.4.51.51,0,0,0-.14-.37.79.79,0,0,0-.57-.17H47.2v1.11Z"/><path class="cls-2" d="M165.33,33.45a5.65,5.65,0,0,1-4.62-2.08,5.53,5.53,0,0,1-.82-2.62h3.82a1.61,1.61,0,0,0,1.72,1.38,1.51,1.51,0,0,0,1.6-1.66c0-1.76-2.14-1.5-3.32-1.5V24.19c1.08,0,2.5,0,2.5-1.48,0-.64-.3-1.3-1-1.3s-1.14.52-1.16,1.28h-3.72c0-2.94,2.28-4.6,5.06-4.6,2.34,0,4.64,1.5,4.64,4a3.28,3.28,0,0,1-2,3.1,3.65,3.65,0,0,1,2.78,3.58C170.81,31.67,167.95,33.45,165.33,33.45Z"/><path class="cls-2" d="M142.83,41.29h5v5.55h-1.66V42.69h-1.66v4.15h-1.66Z"/><path class="cls-2" d="M149,41.29h1.56v.62h0a2.08,2.08,0,0,1,1.73-.8,3,3,0,0,1,0,5.91,2.11,2.11,0,0,1-1.67-.68v2.35H149Zm4.37,2.79a1.39,1.39,0,1,0-2.78,0,1.39,1.39,0,1,0,2.78,0Z"/><path class="cls-2" d="M161.8,46.84h-1.66v-.61h0a1.8,1.8,0,0,1-1.62.79,3,3,0,0,1,0-5.91,1.83,1.83,0,0,1,1.62.8h0v-.62h1.66Zm-3-1.37a1.4,1.4,0,0,0,0-2.81,1.4,1.4,0,0,0,0,2.81Z"/><path class="cls-2" d="M163,41.29h1.66v2.33h0l1.5-2.33H168L166.06,44l2.21,2.85h-1.91l-1.67-2.35h0v2.35H163Z"/><path class="cls-2" d="M169.7,42.69h-1.26v-1.4h4.15v1.4h-1.23v4.15H169.7Z"/><path class="cls-2" d="M178.68,46.84h-1.62l.06-3.28-2.38,3.28h-1.44V41.29h1.62l-.06,3.21,2.38-3.21h1.44Z"/><path class="cls-2" d="M179.89,41.29h1.66v2.33h0l1.5-2.33h1.8L182.93,44l2.21,2.85h-1.91l-1.67-2.35h0v2.35h-1.66Z"/><path class="cls-2" d="M191.17,46.84h-1.62l.06-3.28-2.38,3.28H185.8V41.29h1.62l-.06,3.21,2.38-3.21h1.44Z"/><path class="cls-1" d="M49.58,120.79V118h.66l1.82-4.15h1.7L55.6,118h.66v2.8H54.8v-1.4H51v1.4Zm2.26-2.8H54l-1.07-2.47h0Z"/><path class="cls-1" d="M59.62,113.84a1.83,1.83,0,0,1,1.39.44,1.34,1.34,0,0,1,.43,1,1.15,1.15,0,0,1-.23.73,1.28,1.28,0,0,1-.41.34,1.66,1.66,0,0,1,.57.36,1.5,1.5,0,0,1,0,2.08,2.59,2.59,0,0,1-1.93.57H57v-5.55ZM59.19,116a.68.68,0,0,0,.5-.16.48.48,0,0,0,.12-.33.46.46,0,0,0-.11-.3.68.68,0,0,0-.51-.17h-.65v1Zm.21,2.15A.76.76,0,0,0,60,118a.56.56,0,0,0,.15-.4.51.51,0,0,0-.14-.37.79.79,0,0,0-.57-.17h-.86v1.11Z"/><path class="cls-1" d="M68.55,119.39H66.89v-.61h0a1.8,1.8,0,0,1-1.62.79,3,3,0,0,1,0-5.91,1.83,1.83,0,0,1,1.62.8h0v-.62h1.66Zm-3-1.37a1.4,1.4,0,0,0,0-2.81,1.4,1.4,0,0,0,0,2.81Z"/><path class="cls-1" d="M72.84,113.84h3.67v1.4h-2v4.15H72.84Z"/><path class="cls-1" d="M80,113.66a3,3,0,1,1-3,2.95A2.9,2.9,0,0,1,80,113.66ZM80,118a1.41,1.41,0,1,0-1.33-1.41A1.36,1.36,0,0,0,80,118Z"/><path class="cls-1" d="M83.46,120.79V118h.66l1.82-4.15h1.7L89.48,118h.66v2.8H88.68v-1.4H84.92v1.4Zm2.26-2.8h2.14l-1.07-2.47h0Z"/><path class="cls-1" d="M96.69,119.39H95v-.61h0a1.8,1.8,0,0,1-1.62.79,3,3,0,0,1,0-5.91,1.83,1.83,0,0,1,1.62.8h0v-.62h1.66Zm-3-1.37a1.4,1.4,0,0,0,0-2.81,1.4,1.4,0,0,0,0,2.81Z"/><path class="cls-1" d="M103.71,113.66a3,3,0,1,1-3,2.95A2.9,2.9,0,0,1,103.71,113.66Zm0,4.36a1.41,1.41,0,1,0-1.33-1.41A1.36,1.36,0,0,0,103.71,118Z"/><path class="cls-1" d="M113,113.37c-.71.06-1.47,0-2.13.09a2.51,2.51,0,0,0-1.72.63,2.14,2.14,0,0,0-.5,1.14h0a2.36,2.36,0,0,1,2-1.13,2.59,2.59,0,0,1,2,.87,2.65,2.65,0,0,1,.64,1.74,3,3,0,0,1-.82,2,3.12,3.12,0,0,1-4.17,0,3.66,3.66,0,0,1-1-2.73,4,4,0,0,1,1.06-3.11,3.69,3.69,0,0,1,2.28-.9c.64-.06,1.41-.1,2.25-.13ZM110.39,118a1.26,1.26,0,0,0,1.29-1.27,1.29,1.29,0,0,0-2.58,0A1.27,1.27,0,0,0,110.39,118Z"/><path class="cls-1" d="M119.52,113.84l-2.78,7.4H115l.88-2.13-2.06-5.27h1.77l1.11,3.22h0l1.06-3.22Z"/><path class="cls-1" d="M124.71,119.39H123v-1.91h-.88a2.34,2.34,0,0,1-1.77-.57,1.76,1.76,0,0,1-.42-1.31v-1.76h1.66v1.44a.86.86,0,0,0,.15.61.7.7,0,0,0,.54.19H123v-2.24h1.66Z"/><path class="cls-1" d="M131.3,117.65a3.2,3.2,0,0,1-1.13,1.42,2.68,2.68,0,0,1-1.58.5,3,3,0,1,1,2.9-2.89,1.64,1.64,0,0,1,0,.44h-4.16a1.24,1.24,0,0,0,1.3,1,1.18,1.18,0,0,0,1-.52ZM129.83,116a1.31,1.31,0,0,0-2.52,0Z"/><path class="cls-1" d="M132.43,113.84h1.66v2h1.72v-2h1.66v5.55h-1.66v-2.16h-1.72v2.16h-1.66Z"/><path class="cls-1" d="M144,119.39h-1.62l.06-3.28-2.38,3.28h-1.44v-5.55h1.62l-.06,3.21,2.38-3.21H144Z"/><path class="cls-1" d="M144.93,119.39l1.64-2a1.89,1.89,0,0,1-.9-.44,1.61,1.61,0,0,1-.48-1.2,1.84,1.84,0,0,1,.51-1.28,2.56,2.56,0,0,1,1.83-.6h2.29v5.54h-1.66v-1.88l-1.33,1.88Zm2.71-4.32a.79.79,0,0,0-.61.23.7.7,0,0,0,0,.94.88.88,0,0,0,.6.22h.53v-1.39Z"/><path class="cls-1" d="M151.82,93.36q-3.34,1.84-10.31,1.7l-19.94-.38a40.17,40.17,0,0,0-12.63,1.47,16.23,16.23,0,0,0-8.69,6.93l-2.45,0a6.44,6.44,0,0,0-2.13-3.65,16,16,0,0,0-4.6-2.91,29.83,29.83,0,0,0-6.33-1.89,41.76,41.76,0,0,0-7.2-.76l-20.06-.38q-7-.13-10.12-2.09t-3-7.1l.12-6.11,2.44,0-.11,5.87a5.46,5.46,0,0,0,2.65,5.26Q52.13,90.88,59.72,91l19.94.38a36.28,36.28,0,0,1,5.75.6,28.06,28.06,0,0,1,5.84,1.7,21.27,21.27,0,0,1,5,2.85,9.62,9.62,0,0,1,3.1,4q2-4,7.65-6.28a31.54,31.54,0,0,1,12.58-2.14l19.82.38a43,43,0,0,0,6.68-.3,13.25,13.25,0,0,0,4.12-1.15,4.32,4.32,0,0,0,2.06-2,7.55,7.55,0,0,0,.61-3l.12-5.87,2.44,0-.12,6.11Q155.15,91.52,151.82,93.36Z"/><path class="cls-1" d="M294.84,101.84a1.83,1.83,0,0,1,1.39.44,1.34,1.34,0,0,1,.43,1,1.15,1.15,0,0,1-.23.73,1.27,1.27,0,0,1-.41.34,1.65,1.65,0,0,1,.57.36,1.47,1.47,0,0,1,.4,1,1.48,1.48,0,0,1-.44,1.06,2.59,2.59,0,0,1-1.93.57H292.2v-5.55Zm-.43,2.18a.68.68,0,0,0,.5-.16.48.48,0,0,0,.12-.33.47.47,0,0,0-.11-.3.68.68,0,0,0-.51-.17h-.65v1Zm.21,2.15a.76.76,0,0,0,.56-.17.56.56,0,0,0,.15-.4.52.52,0,0,0-.14-.37.8.8,0,0,0-.57-.17h-.86v1.11Z"/><path class="cls-1" d="M300.56,103.58a2.14,2.14,0,0,1,1.57.56,1.87,1.87,0,0,1,.48,1.34,1.81,1.81,0,0,1-.48,1.32,2.77,2.77,0,0,1-2,.59h-2.16v-5.55h1.66v1.74Zm-.37,2.59a.83.83,0,0,0,.61-.2.68.68,0,0,0,.19-.47.72.72,0,0,0-.2-.53.84.84,0,0,0-.58-.19h-.61v1.39Zm4.44,1.22H303v-5.55h1.66Z"/><path class="cls-1" d="M305.83,101.84h5v5.55h-1.66v-4.15h-1.66v4.15h-1.66Z"/><path class="cls-1" d="M317.25,101.84l-2.78,7.4h-1.76l.88-2.13-2.06-5.27h1.77l1.11,3.22h0l1.06-3.22Z"/><path class="cls-1" d="M323.59,105.28a3,3,0,0,1-5.88-.68,3,3,0,0,1,5.87-.62H321.9a1.26,1.26,0,0,0-1.2-.77,1.41,1.41,0,0,0,0,2.81,1.27,1.27,0,0,0,1.2-.74Z"/><path class="cls-1" d="M324.53,101.84h1.66v2.33h0l1.5-2.33h1.8l-1.93,2.7,2.21,2.85h-1.91L326.21,105h0v2.35h-1.66Z"/><path class="cls-1" d="M283.44,119.39h-1.62l.06-3.28-2.38,3.28h-1.44v-5.55h1.62l-.06,3.21,2.38-3.21h1.44Z"/><path class="cls-1" d="M286.37,116.07a.64.64,0,0,0,.49-.17.57.57,0,0,0,.16-.42.5.5,0,0,0-.14-.36.47.47,0,0,0-.34-.13.51.51,0,0,0-.53.55h-1.6a1.85,1.85,0,0,1,.52-1.25,2.59,2.59,0,0,1,3.21-.14,1.5,1.5,0,0,1,.49,1.16,1.3,1.3,0,0,1-.85,1.16,1.4,1.4,0,0,1,1.06,1.33,1.6,1.6,0,0,1-.79,1.41,2.79,2.79,0,0,1-1.55.36,2.32,2.32,0,0,1-1.76-.69,2.07,2.07,0,0,1-.54-1.39h1.65a.72.72,0,0,0,1.17.59.51.51,0,0,0,.16-.39.52.52,0,0,0-.17-.4.83.83,0,0,0-.58-.16h-.23v-1.06Z"/><path class="cls-1" d="M296.5,119.53a3.84,3.84,0,1,1,3.24-5.94,3.14,3.14,0,0,1,.5,1.21h-2a1.92,1.92,0,0,0-1.79-1.29,2,2,0,0,0-2,2.16,2.08,2.08,0,0,0,2,2.2,2,2,0,0,0,1.78-1.25h2A3.79,3.79,0,0,1,296.5,119.53Z"/><path class="cls-1" d="M303.47,119.53c-1.49,0-2.67-.77-2.67-2.35v-.24h1.88c0,.48.22,1,.77,1a.71.71,0,0,0,.72-.71c0-.48-.4-.64-.79-.81l-.66-.28c-1-.4-1.81-1-1.81-2.12a2.39,2.39,0,0,1,2.59-2.18,2.64,2.64,0,0,1,2,.84,2.17,2.17,0,0,1,.49,1.46h-1.87c-.06-.41-.2-.72-.68-.72a.62.62,0,0,0-.65.58.54.54,0,0,0,.07.31c.18.3,1.15.68,1.46.82,1,.45,1.73,1,1.73,2.12C306.05,118.81,304.93,119.53,303.47,119.53Z"/><path class="cls-1" d="M311.63,113.84V118h1.62v-4.15h1.66V118h.89v2.8h-1.46v-1.4H310v-5.55Z"/><path class="cls-1" d="M321.91,117.65a3.2,3.2,0,0,1-1.13,1.42,2.67,2.67,0,0,1-1.58.5,3,3,0,1,1,2.9-2.89,1.61,1.61,0,0,1,0,.44H317.9a1.24,1.24,0,0,0,1.3,1,1.18,1.18,0,0,0,1-.52ZM320.44,116a1.31,1.31,0,0,0-2.52,0Z"/><path class="cls-1" d="M323,113.84h1.66v2h1.72v-2h1.66v5.55h-1.66v-2.16H324.7v2.16H323Z"/><path class="cls-1" d="M330.06,115.24H328.8v-1.4H333v1.4h-1.23v4.15h-1.66Z"/><path class="cls-1" d="M333.67,113.84h1.56v.62h0a2.08,2.08,0,0,1,1.73-.8,3,3,0,0,1,0,5.91,2.11,2.11,0,0,1-1.67-.68v2.35h-1.66Zm4.37,2.79a1.39,1.39,0,1,0-2.78,0,1.39,1.39,0,1,0,2.78,0Z"/><path class="cls-1" d="M346.47,119.39h-1.66v-.61h0a1.8,1.8,0,0,1-1.62.79,3,3,0,0,1,0-5.91,1.83,1.83,0,0,1,1.62.8h0v-.62h1.66Zm-3-1.37a1.4,1.4,0,0,0,0-2.81,1.4,1.4,0,0,0,0,2.81Z"/></g></g></svg>