<svg width="80" height="80" xmlns="http://www.w3.org/2000/svg"><g fill="none" fill-rule="evenodd"><path d="M71.15 37.78l-10.6 10.206a4.603 4.603 0 00-1.348 4.065L61.6 66.57c.622 3.763-3.34 6.605-6.706 4.81L41.913 64.45a4.604 4.604 0 00-4.283-.026l-13.066 6.767c-3.387 1.754-7.314-1.136-6.647-4.892l2.577-14.486a4.6 4.6 0 00-1.299-4.081L8.722 37.397c-2.715-2.679-1.18-7.308 2.598-7.833l14.574-2.027a4.6 4.6 0 003.481-2.495l6.592-13.155c1.71-3.41 6.587-3.38 8.253.05l6.431 13.235a4.6 4.6 0 003.449 2.539l14.549 2.205c3.77.572 5.249 5.219 2.501 7.865" fill="#F69C1E"/><path d="M71.15 37.78l-10.6 10.206a4.603 4.603 0 00-1.348 4.065L61.6 66.57c.622 3.763-3.34 6.605-6.706 4.81L41.913 64.45a4.604 4.604 0 00-4.283-.026l-13.066 6.767c-3.387 1.754-7.314-1.136-6.647-4.892l2.577-14.486a4.6 4.6 0 00-1.299-4.081L8.722 37.397c-2.715-2.679-1.18-7.308 2.598-7.833l14.574-2.027a4.6 4.6 0 003.481-2.495l6.592-13.155c1.71-3.41 6.587-3.38 8.253.05l6.431 13.235a4.6 4.6 0 003.449 2.539l14.549 2.205c3.77.572 5.249 5.219 2.501 7.865z" stroke="#394349" stroke-width="2.084"/></g></svg>