<svg xmlns="http://www.w3.org/2000/svg" viewBox="0 0 85.92 85.95"><defs><style>.cls-1{fill:#f7931e;}</style></defs><title>csc</title><g id="Layer_2" data-name="Layer 2"><g id="Текст"><path class="cls-1" d="M41.24,86H0V44.71H41.24ZM3.47,82.48h34.3V48.18H3.47Z"/><path class="cls-1" d="M22.47,63.62l-3.06-.79c-3.37-1-1.86-4,1.12-4A6.94,6.94,0,0,1,25,60.33l2-2.86a10.66,10.66,0,0,0-6.53-2.15c-3.6-.08-6.81,2.48-6.74,5.54,0,2.68,1.91,4.57,4.7,5.31l3.27.84c3.93,1.07,2.32,4.87-1.23,4.87a7.12,7.12,0,0,1-5-1.91l-2,2.89a10.92,10.92,0,0,0,7.07,2.48c4,.08,7.32-2.65,7.25-6C27.78,66.25,25.41,64.36,22.47,63.62Z"/><path class="cls-1" d="M85.92,86H44.68V44.71H85.92ZM48.15,82.48h34.3V48.18H48.15Z"/><path class="cls-1" d="M65.29,71.85a6.52,6.52,0,1,1,5.51-10l3-1.86a10,10,0,1,0,0,10.67l-3-1.84A6.54,6.54,0,0,1,65.29,71.85Z"/><circle class="cls-1" cx="65.3" cy="65.33" r="3.05"/><path class="cls-1" d="M63.58,41.24H22.34V0H63.58ZM25.81,37.77h34.3V3.47H25.81Z"/><path class="cls-1" d="M52.56,18.54H44.87l2.62-2.62a6.53,6.53,0,1,0,1,8.19l3,1.83A10,10,0,1,1,50,13.45l2.6-2.6Z"/></g></g></svg>