<svg xmlns="http://www.w3.org/2000/svg" viewBox="0 0 75.56 68.93"><defs><style>.cls-1{fill:#662d91;}</style></defs><title>history</title><g id="Layer_2" data-name="Layer 2"><g id="Текст"><path class="cls-1" d="M8.93,33.75a7.44,7.44,0,0,1,7.44-7.44h1v4.21h-1a3.29,3.29,0,0,0-3.3,3.17,3.44,3.44,0,0,1,.84-.06,4.92,4.92,0,1,1-5,5Zm11.9,0a7.4,7.4,0,0,1,7.44-7.44h1v4.21h-1A3.19,3.19,0,0,0,25,33.68a2.92,2.92,0,0,1,.78-.06,4.92,4.92,0,1,1-5,5Z"/><path class="cls-1" d="M66.63,36a7.44,7.44,0,0,1-7.44,7.44h-1V39.25h1a3.29,3.29,0,0,0,3.3-3.17,3.44,3.44,0,0,1-.84.06,4.92,4.92,0,1,1,5-5Zm-11.9,0a7.4,7.4,0,0,1-7.44,7.44h-1V39.25h1a3.19,3.19,0,0,0,3.24-3.17,2.92,2.92,0,0,1-.78.06,4.92,4.92,0,1,1,5-5Z"/><path class="cls-1" d="M73.61,0c-19.45,0-32,7.79-35.83,10.59C33.91,7.79,21.4,0,2,0H0V63.11l1.92,0c.24,0,23.88.42,33.9,5.79h3.9c10-5.37,33.66-5.79,33.9-5.79l1.92,0V0ZM3.9,59.29V3.93C21.66,4.45,33,11.94,35.83,14V64.61C26.14,60.43,9.56,59.49,3.9,59.29Zm67.75,0c-5.66.2-22.24,1.14-31.93,5.33V14C42.54,11.94,53.9,4.45,71.65,3.93Z"/></g></g></svg>