<svg xmlns="http://www.w3.org/2000/svg" width="72" height="58" viewBox="0 0 72 58">
  <g fill="none" fill-rule="evenodd">
    <path fill="#8899A4" fill-rule="nonzero" d="M52,45 L52,46 C52,47.6568542 50.6568542,49 49,49 L48,49 L48,50 C48,51.6568542 46.6568542,53 45,53 L19,53 C17.3431458,53 16,51.6568542 16,50 L16,16 C16,14.3431458 17.3431458,13 19,13 L20,13 L20,12 C20,10.3431458 21.3431458,9 23,9 L24,9 L24,8 C24,6.34314575 25.3431458,5 27,5 L53,5 C54.6568542,5 56,6.34314575 56,8 L56,42 C56,43.6568542 54.6568542,45 53,45 L52,45 Z M24,11 L23,11 C22.4477153,11 22,11.4477153 22,12 L22,46 C22,46.5522847 22.4477153,47 23,47 L49,47 C49.5522847,47 50,46.5522847 50,46 L50,45 L27,45 C25.3431458,45 24,43.6568542 24,42 L24,11 Z M20,15 L19,15 C18.4477153,15 18,15.4477153 18,16 L18,50 C18,50.5522847 18.4477153,51 19,51 L45,51 C45.5522847,51 46,50.5522847 46,50 L46,49 L23,49 C21.3431458,49 20,47.6568542 20,46 L20,15 Z M27,7 C26.4477153,7 26,7.44771525 26,8 L26,42 C26,42.5522847 26.4477153,43 27,43 L53,43 C53.5522847,43 54,42.5522847 54,42 L54,8 C54,7.44771525 53.5522847,7 53,7 L27,7 Z"/>
    <path fill="#D8D8D8" stroke="#374148" d="M43,9.5 C42.7238576,9.5 42.5,9.72385763 42.5,10 C42.5,10.2761424 42.7238576,10.5 43,10.5 L51,10.5 C51.2761424,10.5 51.5,10.2761424 51.5,10 C51.5,9.72385763 51.2761424,9.5 51,9.5 L43,9.5 Z M43,13.5 C42.7238576,13.5 42.5,13.7238576 42.5,14 C42.5,14.2761424 42.7238576,14.5 43,14.5 L51,14.5 C51.2761424,14.5 51.5,14.2761424 51.5,14 C51.5,13.7238576 51.2761424,13.5 51,13.5 L43,13.5 Z M43,17.5 C42.7238576,17.5 42.5,17.7238576 42.5,18 C42.5,18.2761424 42.7238576,18.5 43,18.5 L51,18.5 C51.2761424,18.5 51.5,18.2761424 51.5,18 C51.5,17.7238576 51.2761424,17.5 51,17.5 L43,17.5 Z M29,23.5 C28.7238576,23.5 28.5,23.7238576 28.5,24 C28.5,24.2761424 28.7238576,24.5 29,24.5 L51,24.5 C51.2761424,24.5 51.5,24.2761424 51.5,24 C51.5,23.7238576 51.2761424,23.5 51,23.5 L29,23.5 Z M29,27.5 C28.7238576,27.5 28.5,27.7238576 28.5,28 C28.5,28.2761424 28.7238576,28.5 29,28.5 L51,28.5 C51.2761424,28.5 51.5,28.2761424 51.5,28 C51.5,27.7238576 51.2761424,27.5 51,27.5 L29,27.5 Z M29,31.5 C28.7238576,31.5 28.5,31.7238576 28.5,32 C28.5,32.2761424 28.7238576,32.5 29,32.5 L43,32.5 C43.2761424,32.5 43.5,32.2761424 43.5,32 C43.5,31.7238576 43.2761424,31.5 43,31.5 L29,31.5 Z M29,9.5 C28.7238576,9.5 28.5,9.72385763 28.5,10 L28.5,20 C28.5,20.2761424 28.7238576,20.5 29,20.5 L39,20.5 C39.2761424,20.5 39.5,20.2761424 39.5,20 L39.5,10 C39.5,9.72385763 39.2761424,9.5 39,9.5 L29,9.5 Z M29.5,10.5 L38.5,10.5 L38.5,19.5 L29.5,19.5 L29.5,10.5 Z"/>
  </g>
</svg>
