<svg xmlns="http://www.w3.org/2000/svg" width="73" height="59" viewBox="0 0 73 59">
  <g fill="none" fill-rule="evenodd">
    <path fill="#374148" fill-rule="nonzero" d="M38,44 C46.836556,44 54,36.836556 54,28 C54,19.163444 46.836556,12 38,12 C29.163444,12 22,19.163444 22,28 C22,36.836556 29.163444,44 38,44 Z M38,42 C30.2680135,42 24,35.7319865 24,28 C24,20.2680135 30.2680135,14 38,14 C45.7319865,14 52,20.2680135 52,28 C52,35.7319865 45.7319865,42 38,42 Z"/>
    <g fill="#8899A4" fill-rule="nonzero" transform="rotate(72 31 37.635)">
      <path d="M14.8132255,5.82136042 L15.5792998,7.66882631 C12.9106647,8.77540838 10.4860534,10.4012483 8.44365081,12.4436508 C4.34382875,16.5434729 2,22.0849064 2,28 C2,40.1502645 11.8497355,50 24,50 L24,52 C10.745166,52 -1.18234311e-11,41.254834 -1.18234311e-11,28 C-1.18234311e-11,21.5490213 2.55826062,15.5006139 7.02943725,11.0294373 C9.25668263,8.80219188 11.9012984,7.02882651 14.8132255,5.82136042 Z M33.1867745,50.1786396 L32.4207002,48.3311737 C35.0893353,47.2245916 37.5139466,45.5987517 39.5563492,43.5563492 C43.6561712,39.4565271 46,33.9150936 46,28 C46,15.8497355 36.1502645,6 24,6 L24,4 C37.254834,4 48,14.745166 48,28 C48,34.4509787 45.4417394,40.4993861 40.9705627,44.9705627 C38.7433174,47.1978081 36.0987016,48.9711735 33.1867745,50.1786396 Z"/>
      <polygon points="25.237 3.513 30.237 3.513 30.237 1.513 23.237 1.513 23.237 8.513 25.237 8.513" transform="rotate(-45 26.737 5.013)"/>
      <polygon points="19 49 24 49 24 47 17 47 17 54 19 54" transform="scale(-1 1) rotate(-45 0 99.991)"/>
    </g>
    <path fill="#374148" fill-rule="nonzero" d="M37,17 C37.5522847,17 38,17.4477153 38,18 L38,29 C38,29.5522847 37.5522847,30 37,30 C36.4477153,30 36,29.5522847 36,29 L36,18 C36,17.4477153 36.4477153,17 37,17 Z M37,23.5 L37,29 L37,23.5 Z"/>
    <path fill="#374148" fill-rule="nonzero" d="M41.5,23.5 C42.0522847,23.5 42.5,23.9477153 42.5,24.5 L42.5,33.5 C42.5,34.0522847 42.0522847,34.5 41.5,34.5 C40.9477153,34.5 40.5,34.0522847 40.5,33.5 L40.5,24.5 C40.5,23.9477153 40.9477153,23.5 41.5,23.5 Z M41.5,29 L41.5,33.5 L41.5,29 Z" transform="rotate(90 41.5 29)"/>
  </g>
</svg>
