<svg xmlns="http://www.w3.org/2000/svg" width="24" height="24" viewBox="0 0 24 24">
  <path d="M17,20 L16,20 L15.5,20 L7,20 C6.44771525,20 6,19.5929861 6,19.0909091 L6,6 L4,6 L4,22 L17,22 L17,20 Z M21,13 L21,2 L8,2 L8,18.0690918 L16,18.0690918 L16,14.7142857 C16,13.7675119 16.7675119,13 17.7142857,13 L21,13 Z M21,15.067627 L21,15 L18,15 L18,18 L18.0582536,18 L21,15.1352539 L21,15.067627 Z M6,4 L6,0.909090909 C6,0.407013864 6.44771525,0 7,0 L22,0 C22.5522847,-1.00929366e-15 23,0.407013864 23,0.909090909 L23,15.570553 C23,15.8049629 22.9003989,16.0303129 22.7219913,16.1995549 L19.0109822,19.719911 C19.0073481,19.7233584 19.0036872,19.726777 19,19.7301664 L19,22.8421053 C19,23.4815929 18.5243025,24 17.9375,24 L3.0625,24 C2.47569745,24 2,23.4815929 2,22.8421053 L2,5.15789474 C2,4.51840713 2.47569745,4 3.0625,4 L6,4 Z M10,4 L19,4 L19,6 L10,6 L10,4 Z M10,8 L19,8 L19,10 L10,10 L10,8 Z"/>
</svg>
