<svg xmlns="http://www.w3.org/2000/svg" width="24" height="24" viewBox="0 0 24 24">
  <path fill-rule="evenodd" d="M4.4408921e-16,10.6403 L4.4408921e-16,1.0213 L6.717,5.8303 L4.4408921e-16,10.6403 Z M1.4166,-0.0004 L18.5836,-0.0004 L13.4336,3.7136 L11.9246,4.8096 L10.5086,5.8226 L10.0336,6.1686 L9.5576,5.8306 L8.1416,4.8096 L7.1746,4.1176 L1.4166,-0.0004 Z M13.3335,5.8226 L19.9995,1.0216 L19.9995,10.6326 L13.3335,5.8226 Z M10.0334,8.2021 L11.9164,6.8441 L20.0004,12.6661 L20.0004,13.1771 C20.0004,13.6291 19.6254,14.0001 19.1664,14.0001 L0.8334,14.0001 C0.3664,14.0001 0.0004,13.6291 0.0004,13.1771 L0.0004,12.6741 L8.1334,6.8441 L10.0334,8.2021 Z" transform="translate(2 5)"/>
</svg>
