<svg xmlns="http://www.w3.org/2000/svg" width="24" height="24" viewBox="0 0 24 24">
  <path fill-rule="evenodd" d="M9,6 L10,6 C10.5522847,6 11,6.44771525 11,7 L11,17 C11,17.5522847 10.5522847,18 10,18 L9,18 C8.44771525,18 8,17.5522847 8,17 L8,7 C8,6.44771525 8.44771525,6 9,6 Z M14,6 L15,6 C15.5522847,6 16,6.44771525 16,7 L16,17 C16,17.5522847 15.5522847,18 15,18 L14,18 C13.4477153,18 13,17.5522847 13,17 L13,7 C13,6.44771525 13.4477153,6 14,6 Z M12,24 C5.372583,24 0,18.627417 0,12 C0,5.372583 5.372583,0 12,0 C18.627417,0 24,5.372583 24,12 C24,18.627417 18.627417,24 12,24 Z M12,23 C18.0751322,23 23,18.0751322 23,12 C23,5.92486775 18.0751322,1 12,1 C5.92486775,1 1,5.92486775 1,12 C1,18.0751322 5.92486775,23 12,23 Z"/>
</svg>
