<svg xmlns="http://www.w3.org/2000/svg" width="24" height="24" viewBox="0 0 24 24">
  <path fill-rule="evenodd" d="M11.0669714,3 C4.84297143,3 0,4.95937346 0,10.9794906 C0,12.2371927 1.02331429,12.45981 2.28571429,12.45981 C3.54811429,12.45981 4.57142857,12.2371927 4.57142857,10.9794906 C4.57142857,8.4778648 5.41851429,7.17677796 7.42857143,6.67494971 L7.42857143,8.81594696 C7.42857143,8.83929046 7.4296,8.86263396 7.43165714,8.8854081 C6.46571429,9.75731619 5.74308571,10.9054747 5.39451429,12.2295634 L3.98765714,17.5738578 C3.92811429,17.8001189 3.89794286,18.0330984 3.89794286,18.2672166 C3.89794286,19.7764591 5.12594286,21 6.6408,21 L17.3874286,21 C17.6150857,21 17.8420571,20.9718739 18.0627429,20.9158495 C19.5309714,20.5441755 20.4187429,19.0569101 20.0457143,17.5941268 L18.6802286,12.2396979 C18.3444571,10.9234662 17.6365714,9.77929324 16.6857143,8.90749902 L16.6857143,6.73051862 C18.5806857,7.26912712 19.4285714,8.56531751 19.4285714,10.9794906 C19.4285714,12.2371927 20.4518857,12.45981 21.7142857,12.45981 C22.9766857,12.45981 24,12.2371927 24,10.9794906 C24,4.95937346 19.1570286,3 12.9329143,3 L11.0669714,3 Z M9.02857143,6.44925794 C9.31188571,6.43263282 9.61028571,6.42466187 9.92411429,6.42466187 L13.9614857,6.42466187 C14.3596571,6.42466187 14.7342857,6.43752926 15.0857143,6.46463049 L15.0857143,7.81263206 C14.1662857,7.35919886 13.0782857,7.35296631 12,7.35296631 C10.9228571,7.35296631 9.94948571,7.35692144 9.02857143,7.80636917 L9.02857143,6.44925794 Z M12,9.72679884 C14.4616,9.72679884 16.4571429,11.7150955 16.4571429,14.1678707 C16.4571429,16.6205322 14.4616,18.6088288 12,18.6088288 C9.5384,18.6088288 7.54285714,16.6205322 7.54285714,14.1678707 C7.54285714,11.7150955 9.5384,9.72679884 12,9.72679884 Z M12,17.2423802 C13.7041143,17.2423802 15.0857143,15.865797 15.0857143,14.1678707 C15.0857143,12.4698306 13.7041143,11.0933613 12,11.0933613 C10.2957714,11.0933613 8.91428571,12.4698306 8.91428571,14.1678707 C8.91428571,15.865797 10.2957714,17.2423802 12,17.2423802 Z"/>
</svg>
