<svg xmlns="http://www.w3.org/2000/svg" width="16" height="16" viewBox="0 0 16 16">
  <path fill-rule="evenodd" d="M8,11 C5.23857625,11 3,8.76142375 3,6 C3,3.23857625 5.23857625,1 8,1 C10.7614237,1 13,3.23857625 13,6 C13,8.76142375 10.7614237,11 8,11 Z M8,9 C9.65685425,9 11,7.65685425 11,6 C11,4.34314575 9.65685425,3 8,3 C6.34314575,3 5,4.34314575 5,6 C5,7.65685425 6.34314575,9 8,9 Z M2.6401844,15.7682213 C2.2159075,16.1217854 1.5853428,16.0644613 1.23177872,15.6401844 C0.878214639,15.2159075 0.935538703,14.5853428 1.3598156,14.2317787 C3.14695822,12.7424932 5.37443783,12 8,12 C10.6255622,12 12.8530418,12.7424932 14.6401844,14.2317787 C15.0644613,14.5853428 15.1217854,15.2159075 14.7682213,15.6401844 C14.4146572,16.0644613 13.7840925,16.1217854 13.3598156,15.7682213 C11.9469582,14.5908401 10.1744378,14 8,14 C5.82556217,14 4.05304178,14.5908401 2.6401844,15.7682213 Z"/>
</svg>
