<svg xmlns="http://www.w3.org/2000/svg" width="16" height="16" viewBox="0 0 16 16">
  <path fill-rule="evenodd" d="M1,4 L10,4 C10.5522847,4 11,4.44771525 11,5 L11,12 C11,12.5522847 10.5522847,13 10,13 L1,13 C0.44771525,13 6.76353751e-17,12.5522847 0,12 L0,5 C-6.76353751e-17,4.44771525 0.44771525,4 1,4 Z M12.2904242,6.59630456 L14.2904242,4.58226408 C14.6795801,4.19037619 15.3127412,4.18816149 15.7046291,4.57731741 C15.8936805,4.76505088 16,5.02046442 16,5.2868932 L16,11.7131068 C16,12.2653916 15.5522847,12.7131068 15,12.7131068 C14.7335712,12.7131068 14.4781577,12.6067873 14.2904242,12.4177359 L12.2904242,10.4036954 C12.1043989,10.2163642 12,9.96307095 12,9.69906632 L12,7.30093368 C12,7.03692905 12.1043989,6.78363585 12.2904242,6.59630456 Z"/>
</svg>
