<svg width="80" height="28" id="Layer_1" data-name="Layer 1" xmlns="http://www.w3.org/2000/svg" viewBox="0 0 160 56"><defs><style>.cls-1{fill:#fff;}</style></defs><title>Artboard 1</title><path class="cls-1" d="M57,22V1.43l-7,7A26.83,26.83,0,0,0,31.28.77C16.08.77,3.76,12.41,3.76,27.61S16.08,54.44,31.28,54.44A26.79,26.79,0,0,0,54,41.91L46.06,37a17.48,17.48,0,1,1-2.65-22l-7,7Z"/><path class="cls-1" d="M67.35,40.06A19.12,19.12,0,0,0,80.83,45.2c9.51,0,13.83-10.2,3.29-13.07l-8.76-2.26c-7.46-2-12.59-7-12.59-14.24C62.56,7.41,71.18.57,80.83.77A28.62,28.62,0,0,1,98.35,6.52l-5.41,7.67a18.61,18.61,0,0,0-12.11-4c-8,0-12,8.15-3,10.75L86,23c7.87,2,14.24,7,14.24,15.4.21,8.9-8.83,16.22-19.44,16a29.28,29.28,0,0,1-19-6.64Z"/><path class="cls-1" d="M148.35,18.3a17.49,17.49,0,1,0,0,18.69l7.94,4.93a26.79,26.79,0,0,1-22.72,12.53C118.37,54.44,106,42.8,106,27.61S118.37.77,133.56.77A27,27,0,0,1,156.29,13.3Z"/><path class="cls-1" d="M133.6,19.46a8.18,8.18,0,1,0,8.18,8.18,8.18,8.18,0,0,0-8.18-8.18Z"/></svg>