<?xml version="1.0" encoding="UTF-8"?>
<svg width="14px" height="14px" viewBox="0 0 14 14" version="1.1" xmlns="http://www.w3.org/2000/svg" xmlns:xlink="http://www.w3.org/1999/xlink">
    <!-- Generator: Sketch 47 (45396) - http://www.bohemiancoding.com/sketch -->
    <title>search-icon</title>
    <desc>Created with Sketch.</desc>
    <defs></defs>
    <g id="experimental" stroke="none" stroke-width="1" fill="none" fill-rule="evenodd">
        <g id="spb-2017-updt2" transform="translate(-673.000000, -308.000000)" fill="#A0A0A0">
            <g id="Group-2" transform="translate(665.000000, 301.000000)">
                <path d="M13.1972306,16.0933505 C10.9125781,15.6319532 9.19238816,13.6130566 9.19238816,11.1923882 C9.19238816,8.43096441 11.4309644,6.19238816 14.1923882,6.19238816 C16.9538119,6.19238816 19.1923882,8.43096441 19.1923882,11.1923882 C19.1923882,13.6130566 17.4721982,15.6319532 15.1875457,16.0933505 C15.1907487,16.1259294 15.1923882,16.1589673 15.1923882,16.1923882 L15.1923882,21.1923882 C15.1923882,21.7446729 14.7446729,22.1923882 14.1923882,22.1923882 C13.6401034,22.1923882 13.1923882,21.7446729 13.1923882,21.1923882 L13.1923882,16.1923882 C13.1923882,16.1589673 13.1940277,16.1259294 13.1972306,16.0933505 Z M14.1923882,14.1923882 C15.8492424,14.1923882 17.1923882,12.8492424 17.1923882,11.1923882 C17.1923882,9.53553391 15.8492424,8.19238816 14.1923882,8.19238816 C12.5355339,8.19238816 11.1923882,9.53553391 11.1923882,11.1923882 C11.1923882,12.8492424 12.5355339,14.1923882 14.1923882,14.1923882 Z" id="search-icon" transform="translate(14.192388, 14.192388) rotate(45.000000) translate(-14.192388, -14.192388) "></path>
            </g>
        </g>
    </g>
</svg>