<svg id="online-education" xmlns="http://www.w3.org/2000/svg" viewBox="0 0 977.75 741.86"><defs><style>.cls-1{fill:#f49b20}.cls-2{fill:#394349}.cls-3{fill:#e08526}.cls-4{fill:#fff}.cls-5{fill:#2e383d}.cls-6{fill:#f69c1e}.cls-7{fill:#30b797}.cls-8{fill:#33b596}.cls-9{fill:#eaedef}.cls-10{fill:#edf0f2}.cls-11{fill:none}.cls-12{fill:#2ab598}.cls-13{fill:#384349}.cls-14{fill:#f69c1c}</style></defs><path class="cls-1" d="M333.25 515.3a5.11 5.11 0 005-5.54c-1-11.39-3.44-37.72-6.83-49.84-1.76-6.29-3-15.7-4.54-24.47a8.83 8.83 0 00-14.59-5.06c-4 3.65-14.4 17.73-16.31 17.73h-19.51c-1.9 0-12.18-14-16.19-17.62a8.75 8.75 0 00-14.49 4.94c-1.52 8.48-3.08 15.7-4.75 24.48-2.34 12.3-5.37 38.28-6.65 49.7a5.1 5.1 0 005 5.68z"/><path class="cls-2" d="M332.86 459.52a134.73 134.73 0 01-2.67-13.22c-.22-1.29-.43-2.61-.65-3.94-.39-2.39-.78-4.8-1.19-7.17a10.32 10.32 0 00-17.06-5.91 100.58 100.58 0 00-7.48 8.44c-2.73 3.26-6.8 8.15-8.05 8.9h-19.07c-1.25-.75-5.31-5.63-8-8.89a100.1 100.1 0 00-7.37-8.34 10.25 10.25 0 00-17 5.79c-.9 5-1.81 9.58-2.77 14.39-.64 3.22-1.3 6.52-2 10.07-1.8 9.42-4 26.94-5.48 39.59l-.18 1.49c-.06.51-.12 1-.17 1.49-.33 2.81-.61 5.28-.83 7.24a6.61 6.61 0 006.48 7.35h93.89a6.63 6.63 0 004.79-2.19 7 7 0 001-1.4 5.87 5.87 0 00.53-1.45 6.25 6.25 0 00.18-2.11c-.94-10.98-3.46-37.82-6.9-50.13zm3.7 51.87a3.52 3.52 0 01-.72 1.22 1.7 1.7 0 01-.19.19 3.62 3.62 0 01-2.42 1h-93.82a3.62 3.62 0 01-3.53-4c.22-1.95.5-4.42.83-7.22 0-.49.11-1 .17-1.49s.11-1 .17-1.49c1.49-12.6 3.68-30 5.46-39.37.67-3.55 1.33-6.84 2-10.06 1-4.82 1.87-9.38 2.78-14.45a7.18 7.18 0 014.81-5.59 7.51 7.51 0 012.37-.4 7.17 7.17 0 014.83 1.9 101.09 101.09 0 017.08 8c6.64 8 8.52 10 10.12 10H296c1.59 0 3.48-2 10.13-10a105.39 105.39 0 017.19-8.14 7.18 7.18 0 017.25-1.47 7.27 7.27 0 014.85 5.68c.41 2.35.8 4.75 1.18 7.13.46 2.85.91 5.64 1.39 8.26.61 3.43 1.26 6.57 2 9.23 3.38 12.06 5.87 38.67 6.78 49.56a3.44 3.44 0 01-.21 1.51z"/><path class="cls-2" d="M314.4 474a8.6 8.6 0 00-15.32 0l-3.56-1.82a12.6 12.6 0 0122.44 0zM273.37 474a8.59 8.59 0 00-15.31 0l-3.56-1.82a12.59 12.59 0 0122.43 0z"/><path class="cls-1" d="M283.74 478.45l2.46 3.56 2.6-3.56h-5.06z"/><path class="cls-2" d="M286.2 485a3 3 0 01-2.43-1.3l-2.45-3.56a3 3 0 014.93-3.41l.06.09.11-.15a3 3 0 114.85 3.54l-2.61 3.56a3 3 0 01-2.46 1.23z"/><path class="cls-3" d="M253.79 444.64l3.96 1.76.36-4.4-4.32 2.64z"/><path class="cls-3" d="M257.75 449.29a2.88 2.88 0 01-1.18-.25l-3.95-1.76A2.89 2.89 0 11255 442l.23.1v-.33a2.89 2.89 0 115.76.48l-.36 4.39a2.9 2.9 0 01-1.41 2.25 2.85 2.85 0 01-1.47.4zM318.36 444.64l-3.96 1.76-.36-4.4 4.32 2.64z"/><path class="cls-3" d="M314.4 449.29a2.88 2.88 0 001.18-.25l3.95-1.76a2.89 2.89 0 10-2.35-5.28l-.23.1v-.33a2.89 2.89 0 10-5.77.48l.37 4.39a2.9 2.9 0 001.41 2.25 2.85 2.85 0 001.44.4z"/><path class="cls-2" d="M280.3 492.1a7.82 7.82 0 01-6.5-3.47l3.32-2.23a3.83 3.83 0 007-2.13h4a7.84 7.84 0 01-7.82 7.83z"/><path class="cls-2" d="M292 492.1a7.83 7.83 0 01-7.82-7.83h4a3.83 3.83 0 007 2.13l3.32 2.23a7.83 7.83 0 01-6.5 3.47z"/><path class="cls-1" d="M311.26 479.09l-7.95 3.56 6.43 2.27 1.52-5.83z"/><path class="cls-2" d="M309.41 485.86l-8.8-3.09 10.24-4.59.82 1.83-5.67 2.53 4.07 1.44-.66 1.88z"/><path class="cls-1" d="M261.76 479.09l7.95 3.56-6.43 2.27-1.52-5.83z"/><path class="cls-2" d="M263.61 485.86l-.66-1.88 4.07-1.44-5.67-2.53.82-1.83 10.24 4.59-8.8 3.09z"/><path class="cls-3" d="M277.36 449.09h4.26v7.83a2.06 2.06 0 01-2.06 2.06h-.14a2.06 2.06 0 01-2.06-2.06v-7.83zM284 449.09h4.26v7.83a2.06 2.06 0 01-2.06 2.08h-.14a2.06 2.06 0 01-2.06-2.06v-7.83-.02zM290.63 449.09h4.26v7.83a2.06 2.06 0 01-2.06 2.06h-.14a2.06 2.06 0 01-2.06-2.06v-7.83z"/><path class="cls-2" d="M408 648.25c-1.55 14.87-21 25.9-48.23 29.61-4.13.56-8.44 1-12.89 1.17a175.6 175.6 0 01-26.41-.79c-46.11-4.82-81.68-33.82-79.44-55.2 1.12-10.79 11.67-17.58 27.76-21 15.79-3.39 36.93-3.58 59.76-1.19A169.58 169.58 0 01363 608c28.11 9.09 46.66 24.63 45 40.25z"/><path class="cls-2" d="M363.42 608.1l-.47.17-1.85.67 1.46.46h.13l.74.25h.15v-.12l.32-1.35zm0 0l-.47.17-1.85.67 1.46.46h.13l.74.25h.15v-.12l.32-1.35zm0 0l-.47.17-1.85.67 1.46.46h.13l.74.25h.15v-.12l.32-1.35zm8.13 1.34l-1.43-.56c-.6-.23-1.21-.46-1.83-.68l-.36-.13c-.73-.27-1.47-.53-2.22-.79l-1.42-.47c-.26-.1-.53-.18-.8-.27h-.13q-3-1-6.1-1.83-5.5-1.53-11.27-2.7-8.06-1.65-16.53-2.56l-.71-.08-2.76-.27c-1.19-.12-2.36-.23-3.53-.32-20.89-1.79-39.1-1.23-53 1.61l-.91.19c-.8.17-1.59.35-2.36.54-16.34 4-25.51 11.5-26.58 21.8-1.16 11 7.14 24.16 22.19 35.18a102.36 102.36 0 009.75 6.31c.68.39 1.36.77 2.05 1.13s1.4.76 2.11 1.12a126.92 126.92 0 0044.67 13.11 180.25 180.25 0 0018.71 1c2.67 0 5.32-.07 7.93-.19 4.22-.2 8.43-.58 12.54-1.12l.48-.06 2.05-.29 2.45-.4c19.74-3.38 34.27-10.6 41-20 .32-.46.63-.93.92-1.4s.56-.94.81-1.41a20.37 20.37 0 002.29-7.43c1.44-14.39-13.22-29.21-38.01-39.03zm35 38.65a18.14 18.14 0 01-2.49 7.37c-.29.47-.59.94-.92 1.4s-.67.93-1 1.38c-7.06 8.7-22 15.26-42 18.06l-.47.07c-1.52.21-3.07.39-4.62.54-2.55.28-5.14.47-7.72.6h-.42a173.86 173.86 0 01-26.18-.78 126.12 126.12 0 01-40-11.08c-.77-.35-1.52-.72-2.27-1.09s-1.46-.73-2.18-1.11a99.42 99.42 0 01-12.65-7.83c-14.18-10.38-22-22.51-21-32.45 1.2-11.54 14.43-17 25.69-19.51l.89-.2c.79-.17 1.6-.33 2.42-.49a154.65 154.65 0 0128.17-2.28q5.28 0 10.91.25 3.21.15 6.52.37l2.08.16.88.06 2.75.23c1.83.16 3.68.33 5.55.53a173.67 173.67 0 0118.7 3q3.87.81 7.62 1.82 3.22.85 6.35 1.84l1.46.46h.13l.74.25h.15c.72.24 1.44.48 2.14.73s1.63.58 2.43.88c24.79 9.35 39.72 23.45 38.33 36.82zm-43.12-40l-.47.17-1.85.67 1.46.46h.13l.74.25h.15v-.12l.32-1.35zm0 0l-.47.17-1.85.67 1.46.46h.13l.74.25h.15v-.12l.32-1.35z"/><path class="cls-2" d="M341.68 421.44c19.07-35 51.25-55.62 87.39-43.5a69 69 0 0143.5 87.39l-57.15 182.44C419 613.09 380.2 587 332.84 582c-37.79-3.94-58.41-8.45-72.43 15.2z"/><path class="cls-2" d="M359.8 677.86c-4.13.56-8.44 1-12.89 1.17l1.71-7.53L363 608l4.11-18.11L388.2 497l4.63-120.46c8.5-3.21 54-5.69 113-7.39 32.59-.94 69.27-1.64 106.05-2.12s73.79-.69 106.81-.68c34.57 0 65 24 71.84 57.86 1.14 5.65 3.41 15 6.17 26.13C779.58 598.42 653.73 713.43 501 713.43a296.27 296.27 0 01-141.2-35.57z"/><path class="cls-4" d="M612.22 368.22l-10.12-34.49c-22.32 23-55.52 33.81-89.62 28.48-.41-.06-.81-.15-1.22-.22-2.69-.43-5.36-.95-8-1.58L514 397.05a51.44 51.44 0 0098.2-28.83z"/><path class="cls-2" d="M614 369.73c-.1-.6-.2-1.19-.31-1.79l-.29-1-10.59-36.12-1.81 1.87-1 1-.15.15a91.76 91.76 0 01-11.7 9.87q-2.9 2.06-5.93 3.89c-2.23 1.34-4.51 2.6-6.84 3.76l-.13.07a101.06 101.06 0 01-29.53 9.31c-1.14.18-2.28.34-3.43.48h-.13a108.46 108.46 0 01-25.34 0c-1.35-.16-2.71-.35-4.07-.56l-.61-.11-.6-.11c-1.71-.27-3.37-.58-5-.91l-1.6-.35-1.3-.3-.34-.08-2.18-.53.29 1 .47 1.6.48 1.63 1.93 6.59.78 2.63 7.54 25.69v.14a52.71 52.71 0 0048.87 33 53.39 53.39 0 0015-2.17A52.76 52.76 0 00614 369.73zm-98.57 26.82l-7.29-24.84-.78-2.66-1.74-5.92-.2-.7q2.71.58 5.6 1l.51.09.72.13c1.44.22 2.88.42 4.32.59a.14.14 0 00.09 0 109.41 109.41 0 0030.66-.73 100.64 100.64 0 0053.37-26.32l.68-.65L610.3 367l.46 1.57c.08.41.15.82.21 1.22a49.94 49.94 0 01-95.54 26.76z"/><path class="cls-5" d="M728.56 607.66a297.24 297.24 0 01-22.45 23.82l5.15-76.94 10.49 8.54zM362.44 614.56l28.08-117.6 15.9 17.91 10.56 69.09-54.54 30.6z"/><path class="cls-2" d="M727.08 607.89l-6.74-44.15-8.54-9.86 2.27-1.96 9.1 10.5 6.87 45.01-2.96.46z"/><path class="cls-2" d="M748.74 578.14l-1.11 1.67c-1 1.5-2 3-3 4.46l2.2-.58c.46-.65.9-1.31 1.34-2s.75-1.1 1.11-1.66zm-501.58-320.8c-.27.42-.54.84-.79 1.26s-.55.87-.81 1.31a294.86 294.86 0 00-22.73 45.45c-.45 1.12-.89 2.24-1.32 3.37q-3.09 8.08-5.72 16.36c-.16.53-.33 1.05-.49 1.58s-.31 1-.46 1.5-.31 1-.46 1.51a299 299 0 00-7.64 31.89c-.09.5-.18 1-.26 1.5s-.18 1-.27 1.5h3l.27-1.5.27-1.5a294.09 294.09 0 017.6-31.49l.72-2.32c.23-.78.48-1.55.73-2.32a2.24 2.24 0 01.11-.34 291.86 291.86 0 0128.92-63.21l.81-1.33c.26-.42.52-.84.79-1.26q-1.08-1.02-2.27-1.96zm470.32-48c-.77-.81-1.54-1.61-2.32-2.41-.48-.49-1-1-1.47-1.48-.06 1.42-.06 2.84 0 4.26.54.54 1.06 1.09 1.58 1.64s1.22 1.28 1.82 1.92 1 1 1.46 1.57c0-1.37.14-2.72.3-4.07-.46-.5-.91-.98-1.37-1.45zm-96.34-67.67a294.23 294.23 0 00-38.45-13.78c-1.73-.49-3.45-1-5.2-1.42-2-.53-4-1-6.05-1.52-2.25-.54-4.51-1.06-6.78-1.54q-10.22-2.2-20.63-3.69c-2.24-.33-4.49-.62-6.74-.89-5.29-.64-10.59-1.13-15.93-1.48q-9.57-.64-19.23-.67H501c-2 0-4.07 0-6.09.06q-3.09.06-6.17.19a298.13 298.13 0 00-96 19.85q-3.84 1.48-7.65 3.09-10.53 4.41-20.69 9.65l-.09.05c.33.95.69 1.89 1.08 2.81l.1-.05a290.32 290.32 0 0127.81-12.57c2.93-1.14 5.84-2.23 8.8-3.27a295 295 0 0176.83-16c1.65-.12 3.3-.23 4.95-.32s3.5-.18 5.26-.25q5.87-.23 11.76-.23 12.71 0 25.24 1.06 6.53.54 13 1.37c1.64.21 3.28.43 4.91.67a295.9 295.9 0 0132.14 6.5q2.55.66 5.08 1.38a274.262 274.262 0 0110.32 3.09 288.7 288.7 0 0130.14 11.53 292.23 292.23 0 0144.88 25l2.3-2.06a295.7 295.7 0 00-47.86-26.52zm167.34 190.86h-3.12A299.68 299.68 0 01795.63 446c-.13 1.36-.28 2.72-.44 4.08a296.08 296.08 0 01-7.89 41.74l-.45 1.7c-.39 1.41-.78 2.8-1.18 4.2-.42 1.46-.85 2.92-1.29 4.37-.21.7-.43 1.4-.65 2.1s-.49 1.56-.75 2.34c-.24.77-.49 1.55-.75 2.32-.39 1.19-.8 2.39-1.21 3.58-.16.47-.32 1-.49 1.42s-.33.94-.5 1.42q-2.5 7-5.37 13.92c-.24.58-.48 1.17-.73 1.75l-.75 1.75q-1.92 4.49-4 8.9c-.27.6-.55 1.19-.84 1.78s-.57 1.19-.86 1.78q-1.77 3.66-3.66 7.26c-.31.6-.62 1.2-.94 1.8l-1 1.8q-3.3 6.12-6.89 12.08c-.37.61-.74 1.23-1.12 1.84s-.76 1.23-1.15 1.85q-1.43 2.31-2.91 4.59l-1.1 1.69-1.11 1.67c-1 1.5-2 3-3 4.46-.44.64-.89 1.27-1.34 1.91s-.9 1.28-1.36 1.91q-3.69 5.14-7.6 10.14l-1.16 1.46-1.14 1.53c-.8 1-1.62 2-2.44 3l-1.28 1.54-.85 1-.44.51a289 289 0 01-20.71 22c-.39.39-.79.77-1.18 1.14a296 296 0 01-82.1 55.43l-1.59.71c-.53.24-1.06.48-1.59.7q-6.75 3-13.66 5.58c-3.17 1.21-6.38 2.36-9.59 3.45q-6.75 2.29-13.61 4.26a295.51 295.51 0 01-46.77 9.4c-4.72.56-9.48 1-14.25 1.33-3.43.25-6.88.43-10.33.55q-4.61.15-9.22.17h-3a297.11 297.11 0 01-89.1-14.23c-2.33-.74-4.64-1.51-6.95-2.33q-3.14-1.08-6.24-2.25a292.38 292.38 0 01-32.48-14.44c-.74-.38-1.47-.77-2.2-1.17l-1.8-1-.44-.24c-3.54-1.92-7.13-4-10.68-6.09l-.5-.16q-10.58-6.33-20.54-13.49c-.56-.39-1.11-.79-1.66-1.2s-1.11-.8-1.66-1.21q-10-7.35-19.25-15.5l-1.17-1-.15-.13-1.16-1q-6.08-5.46-11.86-11.25c-.58-.58-1.15-1.15-1.72-1.74q-9.57-9.74-18.25-20.39l-1.07-1.32-.49-.6c-.19-.24-.39-.48-.57-.72-1.88-2.34-3.78-4.79-5.65-7.29l-.29-.39-.1-.13-.48-.65A293.92 293.92 0 01217 500.23c-.16-.53-.31-1.05-.46-1.57s-.31-1-.46-1.56a297.17 297.17 0 01-11.24-81.32q0-11 .8-21.93h-3q-.79 10.89-.79 21.93a299.48 299.48 0 0011 80.93c.13.53.28 1.05.43 1.57l.45 1.56a297.27 297.27 0 0047.2 94.5l.13.17.24.32.11.14.2.27c1.5 2 3 4 4.49 5.84.35.44.69.87 1 1.29.15.19.3.39.46.58l.59.73a299.35 299.35 0 0052.88 51.15l1.62 1.22 1.64 1.2q11.33 8.29 23.47 15.54l.42.25q3.35 2 6.71 3.87l2.27 1.27 1.84 1 .43.23q12.62 6.78 25.84 12.31c1.73.73 3.45 1.44 5.2 2.12 1.87.75 3.76 1.48 5.65 2.18a296.25 296.25 0 0028.26 9c4.07 1.08 8.18 2.07 12.3 3a300.32 300.32 0 0057.94 6.88h8.6q4.26 0 8.51-.18a298.49 298.49 0 0095.27-19.1c2.62-1 5.21-2 7.8-3.09h.06q3-1.23 6.06-2.57l1.59-.7a301.07 301.07 0 00107.16-80.61q1.63-1.93 3.23-3.9.6-.72 1.17-1.44l1.16-1.45q5.84-7.32 11.16-15l1.31-1.89c.31-.44.61-.9.92-1.35.13-.18.25-.35.37-.54l.74-1.09 1.11-1.66q3.14-4.76 6.09-9.6l1.1-1.84c.37-.61.73-1.22 1.09-1.83q3.5-6 6.7-12l.94-1.79c.31-.6.62-1.2.92-1.8 1.23-2.4 2.43-4.83 3.59-7.26l.84-1.78.81-1.77q2-4.41 3.91-8.87c.24-.58.49-1.15.72-1.74.25-.58.48-1.16.71-1.74q2.51-6.13 4.71-12.38c.21-.58.42-1.15.61-1.74.34-1 .68-2 1-2.95.26-.77.51-1.54.76-2.31a298.15 298.15 0 0012.77-58.42 302.72 302.72 0 00-9.69-117.93zM327.12 172.3a304.67 304.67 0 00-64.48 62.7l2.57 1.58a301.81 301.81 0 0163.57-61.75z"/><path class="cls-5" d="M504.21 371.79c-7.9.14-24.39.87-31.85 1l11.12 33.37a76 76 0 0091.7 44.16C612 439.55 635.5 406.42 630 369.5c-9 .02-125.79 2.29-125.79 2.29z"/><path class="cls-4" d="M612.22 368.22l-10.12-34.49c-22.32 23-55.19 14.42-89.29 9.09-.41-.06-6.91 18.22-9.55 17.59L514 397.05a51.44 51.44 0 0098.2-28.83z"/><path class="cls-2" d="M614 369.73c-.1-.6-.2-1.19-.31-1.79l-.29-1-10.59-36.12-1.81 1.87-1 1-.15.14a46 46 0 01-4.81 4 44.41 44.41 0 01-9 5.11 48.5 48.5 0 01-5.65 2c-13.11 3.76-28.12 2.5-43.91.13-4.2-.64-8.45-1.35-12.74-2.06-3.54-.59-7.1-1.18-10.67-1.74-1.28-.2-1.46.23-3.17 4.34-1.24 3-4.93 11.81-6.6 13.19l-2.18-.53.29 1 .47 1.6.48 1.63 1.93 6.59.78 2.63 7.54 25.69v.14a52.71 52.71 0 0048.87 33 53.39 53.39 0 0015-2.17A52.76 52.76 0 00614 369.73zm-98.57 26.82l-7.29-24.84-.78-2.66-1.74-5.92-.2-.7-.27-.91-.08-.26.39-.36a6.07 6.07 0 00.63-.74c.14-.17.28-.36.42-.56 1.52-2.22 3.39-6.21 6.12-12.76.37-.87.73-1.75 1-2.37 3.21.51 6.41 1 9.59 1.57 5.12.86 10.2 1.7 15.19 2.42 11.74 1.69 23.05 2.67 33.51 1.35 1.49-.19 3-.42 4.41-.7 1.73-.34 3.42-.75 5.09-1.23l.75-.23a49.38 49.38 0 006.69-2.58 47.6 47.6 0 0011.77-7.87l.68-.62L610.3 367l.46 1.57c.08.41.15.82.21 1.22a49.94 49.94 0 01-95.54 26.76z"/><path class="cls-6" d="M395.33 176.54l18.43 30.66 6.17-26.38-24.6-4.28z"/><path class="cls-4" d="M412.69 225.57a109.54 109.54 0 01219-5.53l.77 30.63a109.54 109.54 0 01-219 5.52z"/><path class="cls-2" d="M634 250.63l-.8-30.63a110.46 110.46 0 00-34.49-77.68A112.85 112.85 0 00586.13 132q-4.21-3-8.65-5.54A110.28 110.28 0 00552.66 116h-.1c-3.27-.93-6.6-1.71-10-2.32-1.15-.22-2.31-.42-3.48-.59s-2.53-.37-3.8-.52c-2.21-.25-4.44-.45-6.68-.56-3.06-.18-6.13-.23-9.23-.15a110.64 110.64 0 00-30.66 5.09q-4.94 1.53-9.69 3.55a111.69 111.69 0 00-59.66 60.28c-.81 1.95-1.55 3.93-2.23 5.92a108.1 108.1 0 00-4.61 18.52c-.26 1.58-.48 3.15-.66 4.75a112.44 112.44 0 00-.72 11.65v4.54l.14 5.45.62 24.63c0 1.78.13 3.56.26 5.32q.21 3 .59 5.95a111.13 111.13 0 0089.52 95.06l1.65.3c.54.1 1.09.19 1.64.27a104.68 104.68 0 0011 1.15.14.14 0 00.09 0c2.07.12 4.14.18 6.23.18h2.88a112.92 112.92 0 0016.31-1.6c1.44-.24 2.86-.51 4.28-.83a109.07 109.07 0 0028.82-10.51l.13-.07c2.07-1.11 4.1-2.28 6.09-3.53q2.72-1.68 5.33-3.52c2.84-2 5.61-4.15 8.27-6.45 1.62-1.37 3.2-2.81 4.75-4.3q1.86-1.78 3.66-3.67a110.72 110.72 0 0030.6-79.36zm-32.71 77.24c-.77.81-1.54 1.6-2.33 2.37a108.06 108.06 0 01-18.6 14.76c-1.44.92-2.91 1.79-4.39 2.62s-2.69 1.48-4.05 2.18a106.34 106.34 0 01-27.14 9.45 107.94 107.94 0 01-19.09 2.17q-4.49.12-8.91-.14a102.7 102.7 0 01-10.69-1.13c-.58-.08-1.14-.17-1.72-.28-1-.16-2-.35-3-.55a108.15 108.15 0 01-85-88.21q-.42-2.43-.69-4.89-.6-5-.73-10.08l-.73-29v-1.59-2.91-1.12a108.17 108.17 0 016.19-34.92 108.53 108.53 0 0168.9-66.71 102.72 102.72 0 0112.82-3.22 105.89 105.89 0 0113.19-1.67c1.37-.09 2.75-.15 4.14-.19a107.9 107.9 0 0114.64.62c1.61.17 3.19.38 4.78.63.48.07 1 .14 1.42.23 1.09.17 2.16.37 3.23.59a106.81 106.81 0 0121.06 6.51 107.45 107.45 0 0111.65 5.85 109.3 109.3 0 0142.19 44.42 107.78 107.78 0 0111.72 46.41l.85 30.63a107.78 107.78 0 01-29.71 77.17z"/><path class="cls-2" d="M483.59 308a27.36 27.36 0 01-25.19-15.74l2.72-1.27a25.15 25.15 0 0045.63-1.15l2.78 1.14a27.48 27.48 0 01-25.19 17zM442.85 251.2c.09 3.83-2.27 7-5.29 7.07s-5.54-3-5.64-6.79 2.28-7 5.29-7.06 5.54 2.96 5.64 6.78zM523.73 249.16c.1 3.83-2.27 7-5.28 7.07s-5.54-3-5.64-6.79 2.27-7 5.29-7.07 5.54 2.97 5.63 6.79z"/><path class="cls-6" d="M622.65 154a45.36 45.36 0 01-1.65 11.1c-.36 1.44-.78 3-1.24 4.53-.2.68-.41 1.37-.63 2.08s-.4 1.29-.62 1.95a248.72 248.72 0 01-17.28 40.15c-.5.91-1 1.79-1.49 2.62-1 1.67-1.93 3.18-2.84 4.51-.35.51-.69 1-1 1.45-.46.62-.9 1.18-1.33 1.68l-.23.27-7.06.18-.21-.07a37.28 37.28 0 01-5-2.19c-.32-.16-.64-.34-1-.52-.72-.41-1.43-.85-2.14-1.33-10.91-7.34-19.87-22.49-20.08-53.73a17 17 0 01-16.53 16.8l-122 3.09H417.12A56.8 56.8 0 01371 162.49l-.46-.67c-.11-.17-.25-.38-.39-.62a53.59 53.59 0 01-4.71-8.86c-.39-.92-.75-1.86-1.08-2.81a54.37 54.37 0 01-1.72-6 .43.43 0 010-.05 53.45 53.45 0 01-1.16-8c-.06-.89-.1-1.78-.13-2.68 0 0 32.57-.77 45-1-15.62-10.35-21.92-27.38-22.26-41L493.86 88l33.84-.85a29.66 29.66 0 0130.41 28.91l-.61-24.31a63.65 63.65 0 0163.64 49.89c.26 1.18.49 2.38.68 3.59a64.37 64.37 0 01.83 8.77z"/><path class="cls-2" d="M448.12 220.64l-44.35 1.12a12.26 12.26 0 0111.94-12.56l32.1-.81a6.14 6.14 0 016.28 6 6.12 6.12 0 01-5.97 6.25zM554.07 218l-44.34 1.12a6.12 6.12 0 01-6.28-6 6.12 6.12 0 016-6.28l32.1-.81A12.25 12.25 0 01554.07 218zM483.41 284.58a14.85 14.85 0 01-.37-29.7l.07 3a11.85 11.85 0 00.6 23.7l.08 3z"/><path class="cls-6" d="M525 113.16a108.67 108.67 0 00-11.91 1l11.33 4.41 55.07 64.8 7.69 39.29 13-.33A24.2 24.2 0 01625 245.86c.33 13.35-9.71 24.44-26.59 24.87l14.46 48.87c18-19.91 25.78-45.9 25.2-69.07l-.77-30.63A109.54 109.54 0 00525 113.16z"/><path class="cls-2" d="M596.17 272.28l-.08-3 5.27-.13a22.69 22.69 0 10-1.14-45.36l-21.62 1.09-.15-3 21.65-1.09a25.69 25.69 0 111.34 51.36z"/><path class="cls-2" d="M595 253.55a1.63 1.63 0 01-.31 0 1.52 1.52 0 01-1.19-1.53c.16-4 1.4-7 3.69-8.94a10.43 10.43 0 017.44-2.33 1.5 1.5 0 01-.32 3 7.52 7.52 0 00-5.18 1.64 6.41 6.41 0 00-1.35 1.65 8 8 0 012.87-.84 1.5 1.5 0 01.31 3 6 6 0 00-4.57 3.49 1.5 1.5 0 01-1.39.86z"/><path class="cls-7" d="M555 235.18l-1.29-2.71 39.57-18.84c.26-.11 4.58-1.81 7.92.16 1.92 1.13 3.07 3.16 3.42 6l-3 .37c-.23-1.9-.89-3.18-2-3.81-2-1.21-5.16 0-5.19 0z"/><path class="cls-7" d="M557.14 243a33.31 33.31 0 00-1.32-8.23c-.28-1-.61-1.93-1-2.86a33.63 33.63 0 00-32.39-21.29 33.59 33.59 0 00-32.4 33.09V245.31c0 .39 0 .93.08 1.4a33.59 33.59 0 0033.44 31h1.17A33.6 33.6 0 00557.14 243zm-32.49 31.69a30.54 30.54 0 1129.49-31.59 30.57 30.57 0 01-29.49 31.59zM471.94 244.66c0-.47 0-.94-.08-1.41a33.57 33.57 0 00-18-27.19 33.52 33.52 0 00-38.58 5.41c-.39.37-.78.75-1.15 1.15l-.28.29c-.42.45-.82.9-1.21 1.37s-1 1.23-1.46 1.87a33.25 33.25 0 00-6.36 19.63v1.19a33.35 33.35 0 007.95 20.53c.57.68 1.17 1.33 1.79 2s1.17 1.13 1.78 1.66a33.47 33.47 0 0022 8.25h1.17a33.55 33.55 0 0032.4-33.1c.09-.59.09-1.12.03-1.65zm-11.2 22a30.52 30.52 0 01-45.05-.44 26.82 26.82 0 01-1.74-2.12 26.1 26.1 0 01-1.73-2.56 30.54 30.54 0 01-.88-30 27.37 27.37 0 011.44-2.44c.45-.7.93-1.38 1.45-2a26.78 26.78 0 011.83-2.16 29.24 29.24 0 014-3.61 30.51 30.51 0 0132.35-2.67 30.56 30.56 0 018.29 48z"/><path class="cls-7" transform="rotate(-88.53 481.026 244.977)" d="M479.5 234.42h3v21.13h-3z"/><path class="cls-2" d="M541.4 130.78a21.25 21.25 0 00-21.89-20.56l-109.12 3.41-.1-3 109.12-3.41a24.16 24.16 0 0117.36 6.56 24.61 24.61 0 014.1 5 21.24 21.24 0 00-21.66-18l-127.12 4-.09-3 127.12-4a24.27 24.27 0 0125 23.48l.29 9.38z"/><path class="cls-2" transform="rotate(-1.79 403.784 137.886)" d="M385.07 136.4h37.19v3h-37.19z"/><path class="cls-4" d="M604.46 352.2l-14.33-56.89-57.1 44.03 24.79 42.02 46.64-29.16zM621.8 682.82l-270.99-32.17-123.72 23.79 270.99 32.17 123.72-23.79z"/><path class="cls-2" d="M623.28 682.64a.39.39 0 000-.15.81.81 0 00-.08-.25.75.75 0 00-.1-.2.75.75 0 00-.14-.17.86.86 0 00-.14-.13l-.12-.09h-.07l-.19-.1h-.06a1 1 0 00-.25-.06h-.08L494 666.13l-1.58-.19-1.57-.18-83.6-9.92-1.59-.19-1.59-.19-50.44-6-2.63-.31a1.42 1.42 0 00-.46 0l-25.41 4.89-4 .77-44.94 8.64-2.34.45-2.33.45-43.26 8.32-1.38.27a.2.2 0 00-.1 0 1.41 1.41 0 00-.22.06 1.67 1.67 0 00-.23.12.8.8 0 00-.21.15 1.2 1.2 0 00-.33.41.91.91 0 00-.11.25 2.68 2.68 0 00-.07.27 1.69 1.69 0 000 .23 2.48 2.48 0 000 .27 1.52 1.52 0 001.25 1.16l1.49.18 161 19.11 6.82.81 6.41.76 7.52.9 87.72 10.41h.17a1.43 1.43 0 00.29 0l1.4-.27 1.55-.3 1.55-.29h.09l118.65-22.82.47-.09a1.51 1.51 0 001.2-1.22V683a1.28 1.28 0 000-.19.44.44 0 00.09-.17zM397 693.1l-6.13-.73-5.49-.65-148.5-17.63 38.81-7.47 2.46-.47 2.5-.48 43.75-8.42 4.05-.78 22.43-4.31 2.09.25 49.14 5.83 1.72.21 1.69.2 86 10.21 1.57.19 1.58.18L612 683.17l-109.68 21.09-1.48.29-1.46.28-1.35.26z"/><path class="cls-8" d="M227.09 674.44L501.38 707l-36.84-168.5a15.33 15.33 0 00-13.19-12L202.91 497a10.75 10.75 0 00-11.77 13z"/><path class="cls-2" d="M503.17 708.16l-.21-1-.1-.46a1 1 0 000-.17l-.17-.8-.11-.49-.21-1-7.66-35-.34-1.55-.34-1.55-28-128a16.85 16.85 0 00-12.27-12.72 16 16 0 00-2.21-.42l-44.35-5.26-21.5-2.56-2-.24-44.1-5.23-1.48-.18-1.52-.18-34.6-4.06-64.94-7.71-1.48-.17-1.49-.18-18-2.13-3.21-.39-9.81-1.16a12.25 12.25 0 00-13.42 14.78l35.9 164.19.05.24.23 1 1 .12 1.49.18 161 19.11 6.82.81 6.41.76 7.51.89 87.72 10.41 1.8.21 1.48.18 1.49.18.61.07zm-112.31-15.79l-5.49-.65-148.5-17.63-4.91-.58-3.6-.43-.08-.39-35.65-163a9.25 9.25 0 0110.13-11.16l11.05 1.31 3.25.39 16.7 2 1.48.18 1.5.17 64 7.6 30.7 3.64 4.73.56 2 .24 44.83 5.31 2 .23 22.67 2.69 43.5 5.15a15.34 15.34 0 011.67.3 13.87 13.87 0 0110.24 10.5l27.75 126.94.34 1.55.34 1.55 7.87 36 .09.43-1.44-.17-101-12z"/><path class="cls-8" d="M621.8 682.82L501.38 707l-1.01 8.52 120.42-24.19 1.01-8.51z"/><path class="cls-2" d="M511.53 711.75c3.45-.12 6.9-.3 10.33-.55l74.63-15c3.21-1.09 6.42-2.24 9.59-3.45zm-10.33-3.26l-.4 3.44h1.5l.39-3.25zm10.33 3.26c3.45-.12 6.9-.3 10.33-.55l74.63-15c3.21-1.09 6.42-2.24 9.59-3.45zm-10.73.18h1.5l.39-3.25-1.49-.18zm122.48-29.29a.39.39 0 000-.15.81.81 0 00-.08-.25.75.75 0 00-.1-.2.75.75 0 00-.14-.17l-.07-.08a.18.18 0 00-.07-.05l-.12-.09h-.07l-.19-.1h-.06a1 1 0 00-.25-.06 1.32 1.32 0 00-.56 0l-4.49.9-114.48 23-1.2.24h-.24a1.46 1.46 0 00-.95.68 1.4 1.4 0 00-.22.6l-.12 1-.06.5-.42 3.61-.18 1.49-.05.44-.13 1.06-.05.43a1.53 1.53 0 00.47 1.28 1.51 1.51 0 001 .4h.3l11.21-2.25 10.16-2h.05l14-2.82 46.77-9.4 13.93-2.8 10.18-2 14.05-2.82a1.5 1.5 0 001.2-1.29l.27-2.27.21-1.77.2-1.71.32-2.69v-.3a1.28 1.28 0 000-.19.44.44 0 00-.02-.17zm-3.5 4.53l-.21 1.71-.14 1.2-5.13 1-8.17 1.64-94.59 19-8.28 1.67-1.11.22v-.22l.17-1.5.39-3.25.05-.42.43-.09 116.9-23.47zM501.2 708.49l-.4 3.44h1.5l.39-3.25zm10.33 3.26c3.45-.12 6.9-.3 10.33-.55l74.63-15c3.21-1.09 6.42-2.24 9.59-3.45zm-10.33-3.26l-.4 3.44h1.5l.39-3.25zm10.33 3.26c3.45-.12 6.9-.3 10.33-.55l74.63-15c3.21-1.09 6.42-2.24 9.59-3.45z"/><path class="cls-8" transform="rotate(-83.23 363.733 694.98)" d="M359.44 556.87h8.58v276.22h-8.58z"/><path class="cls-2" d="M502.86 706.74a1 1 0 000-.17 1.38 1.38 0 00-.25-.46 1.44 1.44 0 00-.28-.27 1.4 1.4 0 00-.72-.29h-.52l-1.57-.19-1.44-.17-101-12-6.13-.73-5.49-.65-148.5-17.63-4.91-.58-3.6-.43-1.07-.13a1 1 0 00-.39 0 .2.2 0 00-.1 0 1.41 1.41 0 00-.22.06 1.67 1.67 0 00-.23.12.54.54 0 00-.16.1 1.2 1.2 0 00-.33.41.91.91 0 00-.11.25 2.68 2.68 0 00-.07.27v.26l-1 8.26a1.5 1.5 0 001.31 1.67L500.19 717h.48a1.5 1.5 0 001.19-1.3l.06-.48v-.29l.15-1.28v-.22l.18-1.5.38-3.25.05-.42.13-1a1.3 1.3 0 00.05-.52zm-3.57 5.18l-.18 1.49-.05.44-4.13-.49-58.28-6.92-12.14-1.44-196.77-23.36.66-5.53 161 19.11 6.82.81 6.41.76 7.51.89 87.72 10.41h.17l1.63.2z"/><path class="cls-4" transform="rotate(-19.81 344.06 604.572)" d="M321.07 593.25h46.03v22.69h-46.03z"/><path class="cls-2" d="M371 607l-.23-.62-.55-1.54-3.28-9.12-.7-1.91-1.74-4.84-.41-1.14-.56-1.55-.22-.61a1.51 1.51 0 00-1.19-1H362a1.15 1.15 0 00-.45 0 .47.47 0 00-.16 0l-4.86 1.75-34.08 12.28L319 600l-.77.28-.17.06a1.55 1.55 0 00-.85.78 2.25 2.25 0 00-.08.24 1.19 1.19 0 000 .53 1.53 1.53 0 00.08.37l.39 1.1 6.9 19.15.4 1.1a1.23 1.23 0 00.17.32 1.5 1.5 0 001.24.68 1.52 1.52 0 00.51-.09l.16-.06 35.21-12.68 1-.37 2.53-.91 2.22-.8 2.16-.78a1.19 1.19 0 00.25-.13 1.3 1.3 0 00.23-.18 1.35 1.35 0 00.33-.45A1.46 1.46 0 00371 607zm-7 .91l-.6.22-.47.17-1.85.67-33.92 12.22-6.67-18.53 2.36-.85 3.3-1.2 3.26-1.17L361 588l4 11.15.66 1.81 2 5.57-2 .71-1.67.6z"/><path class="cls-8" d="M390.06 588.04l-20.47 19.44-7.69-21.35 28.16 1.91z"/><path class="cls-2" d="M391.47 587.53a1.49 1.49 0 00-1.31-1l-20.7-1.41-1.23-.09-6.1-.41H362a1.35 1.35 0 00-.45 0 1.54 1.54 0 00-.85.55 1.52 1.52 0 00-.21 1.41l.4 1.1.11.31 4 11.15.66 1.81 2 5.57.51 1.41a1.47 1.47 0 00.1.22 1.45 1.45 0 001 .73 1.41 1.41 0 00.35.05 1.3 1.3 0 00.52-.1 1.19 1.19 0 00.25-.13 1.3 1.3 0 00.23-.18L382.8 597l8.29-7.86a1.51 1.51 0 00.38-1.61zm-21.25 17.28l-3.28-9.12-.7-1.91-1.74-4.84-.41-1.14 3.46.24 1.2.08 17.8 1.21-6.53 6.2z"/><path class="cls-6" d="M357.66 599.71a6 6 0 11-7.7-3.62 6 6 0 017.7 3.62zM318.59 601.72l-25.74 2.41 15.97 7.41-17.54 12.08 20-.08-6.9 14.2 21.9-14.66-7.69-21.36z"/><path class="cls-2" d="M327.69 622.57l-.51-1.4-6.67-18.53-.39-1.08-.12-.33a1.51 1.51 0 00-1.55-1h-.2l-7.62.71-17.92 1.68a1.5 1.5 0 00-.49 2.85l13.59 6.3-15.38 10.6a1.49 1.49 0 00-.58 1.68 1.51 1.51 0 001.43 1h.24l17.36-.07-5.5 11.32-.35.72a1.5 1.5 0 002.19 1.9l.64-.43L327 624.43l.17-.11a1.49 1.49 0 00.52-1.75zm-15.06 1.62a1.5 1.5 0 00-1.35-2.15l-15.15.06 13.54-9.33a1.49 1.49 0 00.65-1.36 1.51 1.51 0 00-.87-1.23l-10.93-5.07 19.05-1.78 6.9 19.15-16.32 10.93z"/><path class="cls-9" d="M508 512.87c-15.64 0-28.33 12-28.33 27.62s12.69 27.63 28.33 27.63a27.6 27.6 0 0023.4-12.9l-8.18-5.07a18 18 0 11-2.73-22.61l-7.18 7.18h21.18v-21.18l-7.2 7.2a27.64 27.64 0 00-19.29-7.87zM613.3 568.12a27.59 27.59 0 0023.39-12.9l-8.17-5.07a18 18 0 110-19.24l8.17-5.15a27.74 27.74 0 00-23.39-12.89c-15.65 0-28.33 12-28.33 27.62s12.68 27.63 28.33 27.63z"/><path class="cls-9" d="M604.91 540.53a8.42 8.42 0 108.42-8.42 8.42 8.42 0 00-8.42 8.42zM540.41 528.16c0 7.4 5.28 12.61 13 14.66l9 2.32c10.85 3 6.41 13.46-3.38 13.46a19.68 19.68 0 01-13.88-5.28l-5.64 8a30.14 30.14 0 0019.49 6.8c10.92.21 20.22-7.33 20-16.49 0-8.6-6.55-13.82-14.66-15.86l-8.45-2.18c-9.3-2.68-5.15-11.07 3.1-11.07a19.15 19.15 0 0112.47 4.16l5.57-7.89a29.44 29.44 0 00-18-5.92c-9.96-.21-18.84 6.83-18.62 15.29z"/><path class="cls-10" d="M269.84 304.38v85.83a1.52 1.52 0 01-.81 1.34 1.55 1.55 0 01-.69.16 1.52 1.52 0 01-.87-.27l-37.86-26.87H96.38c-1.06 0-2.11 0-3.16-.08V244.27c1-.05 2.1-.08 3.16-.08h113.27a59.85 59.85 0 0137.51 13.15q1.18.95 2.31 2a60 60 0 0120.37 45.04zM872 254.15a45.27 45.27 0 01-1.13 10.32c-1.92 8.11-6.07 13.43-11.69 15a13 13 0 01-3.34.44 14.89 14.89 0 01-5.59-1.14c-3.4-.75-7-3.3-10.41-7.48a56.81 56.81 0 01-8.69-15.58q-.23-.56-.42-1.11c-.13-.33-.25-.68-.37-1-.25-.72-.5-1.44-.73-2.18-.15-.48-.3-1-.44-1.44s-.25-.84-.36-1.26c-.05-.14-.09-.29-.13-.44-2.5-9.14-3.26-18.2-2.14-25.5 1.16-7.5 4.21-12.39 8.6-13.8a12.83 12.83 0 014.18-2l.53-.13-2.81-10.27A46.55 46.55 0 00780 163.93l-27.22 7.44a46.58 46.58 0 00-33.91 39.38c-.16 1.35-.27 2.7-.3 4.07a46.09 46.09 0 001.62 13.69l2.81 10.41a11.27 11.27 0 011.82-.66c5.62-1.54 11.9.92 17.68 6.93 5.55 5.77 10 14.2 12.66 23.74a64 64 0 012.35 16.7c0 12.92-4.68 22.91-12.85 25.14a11.94 11.94 0 01-2.29.4 8.31 8.31 0 01-3.93 1c-8.77 0-19-13.33-24.11-32.07-.2-.73-.38-1.45-.56-2.18-4.66-18.88-2-35.21 6.3-38.33l-4.23-15.45a61.34 61.34 0 01-2.17-14.45v-4.26a61.46 61.46 0 0145.14-56.65l4.38-1.2a61.35 61.35 0 0175.36 43l4.36 15.91c4.64.07 9.53 2.61 14.12 7.38 5.55 5.77 10.05 14.2 12.66 23.73a63.42 63.42 0 012.31 16.55z"/><ellipse class="cls-6" cx="734.74" cy="274.51" rx="19.66" ry="36.09" transform="rotate(-15.3 734.677 274.484)"/><path class="cls-2" d="M755.16 268.93c-2.61-9.54-7.11-18-12.66-23.74-5.78-6-12.06-8.47-17.68-6.93a11.27 11.27 0 00-1.82.66l-.36.16a9.87 9.87 0 00-1 .55 11.2 11.2 0 00-1.31.89 13.29 13.29 0 00-2 1.89l-.07.07a20.17 20.17 0 00-3.25 5.09.36.36 0 000 .09c-3.39 7.48-4 18.45-1.17 30.26.18.73.36 1.45.56 2.18 2.61 9.53 7.1 18 12.65 23.74a29 29 0 003.63 3.24l.21.17a20.65 20.65 0 006.16 3.28 14.49 14.49 0 004.3.68 9.23 9.23 0 001-.05 11.94 11.94 0 002.29-.4c8.17-2.23 12.85-12.22 12.85-25.14a64 64 0 00-2.33-16.69zm-8.44 37.64a9.39 9.39 0 01-2.6 1.23l-.25.08a9.41 9.41 0 01-2.37.33c-3.92.07-8.22-2.15-12.36-6.45-4.57-4.76-8.4-11.49-10.94-19.2-.17-.51-.33-1-.49-1.56s-.33-1.12-.49-1.69-.37-1.38-.53-2.07c-3.46-14.47-1.48-27.83 4.5-33.54a12.29 12.29 0 011.27-1 8.29 8.29 0 01.92-.58 4.36 4.36 0 01.42-.23 9.68 9.68 0 011.81-.7l.23-.06a9.37 9.37 0 012.31-.28h.6c3.71.21 7.72 2.43 11.58 6.44a43.61 43.61 0 017 9.86 61.57 61.57 0 014.94 12.59c4.49 16.44 1.95 31.87-5.55 36.83z"/><ellipse class="cls-4" cx="730.71" cy="275.62" rx="15.49" ry="36.09" transform="rotate(-15.3 730.66 275.612)"/><path class="cls-2" d="M747.1 271.13c-4-14.72-11.2-26.1-18.34-30.3a13.1 13.1 0 00-2.86-1.29 9.67 9.67 0 00-2.86-.47h-.4a7 7 0 00-1.12.12 6.36 6.36 0 00-.73.16c-.24.07-.48.14-.72.23-8.29 3.12-11 19.45-6.3 38.33.18.73.36 1.45.56 2.18 5.12 18.74 15.34 32.07 24.11 32.07a8.31 8.31 0 003.93-1 9.41 9.41 0 002.57-2.06 13 13 0 001.78-2.54c2.11-3.79 3.22-9.28 3.22-15.77a75.72 75.72 0 00-2.84-19.66zm-5.6 37.08a5.57 5.57 0 01-1.66.77 5.41 5.41 0 01-2.34.12 12 12 0 01-6.11-3.32c-4.92-4.46-9.87-12.93-13.12-23.17-.17-.51-.33-1-.49-1.56s-.33-1.12-.49-1.69-.37-1.38-.53-2.07c-2.69-10.91-2.84-21.22-.81-27.82v-.06a12 12 0 013.67-6.08 6 6 0 011.28-.75 4.41 4.41 0 01.72-.26 6.1 6.1 0 01.72-.14 6.3 6.3 0 01.75-.05 1.72 1.72 0 01.32 0 2.77 2.77 0 01.49 0c7.06.91 15.88 13.54 20.33 29.81 4.52 16.61 3.2 32.3-2.73 36.27zM869.71 237.59c-2.61-9.53-7.11-18-12.66-23.73-4.59-4.77-9.48-7.31-14.12-7.38a11.34 11.34 0 00-1.54.07 9.44 9.44 0 00-1.49.24l-.53.13a12.83 12.83 0 00-4.18 2c-8.29 6-11.12 22.14-6.33 39.74q.17.63.36 1.26c.14.49.29 1 .44 1.44.23.74.48 1.46.73 2.18.12.34.24.69.37 1s.27.74.42 1.11a51.6 51.6 0 0010.35 16.82 25.9 25.9 0 008.75 6.24 14.89 14.89 0 005.59 1.14 13 13 0 003.34-.44c5.62-1.54 9.77-6.86 11.69-15a45.27 45.27 0 001.1-10.26 63.42 63.42 0 00-2.29-16.56zM868 263.78c-1.65 7-5.05 11.53-9.56 12.76a9.59 9.59 0 01-3.12.32 12 12 0 01-4.16-1 23.25 23.25 0 01-7.44-5.42 48.59 48.59 0 01-9.72-15.68c-.13-.32-.25-.64-.37-1a61.9 61.9 0 01-1.9-5.82c0-.13-.07-.27-.1-.4a.65.65 0 010-.13c-4.16-15.7-1.9-30.37 4.94-35.78a9.79 9.79 0 012.63-1.52 7.76 7.76 0 011-.33 9.23 9.23 0 012-.31 4.35 4.35 0 01.51 0c3.87 0 8.11 2.22 12.18 6.46a44 44 0 017 9.86 61.57 61.57 0 014.94 12.59c2.46 9.07 2.87 18.08 1.17 25.4z"/><ellipse class="cls-6" cx="845.12" cy="243.75" rx="15.49" ry="34.71" transform="rotate(-15.3 845.035 243.717)"/><path class="cls-2" d="M861.5 239.26c-2.5-9.14-6.46-17.32-11.14-23a23.06 23.06 0 00-8.16-6.73 4.07 4.07 0 00-.38-.17 9.72 9.72 0 00-1.07-.37 9.29 9.29 0 00-5.19-.14l-.37.11c-4.39 1.41-7.44 6.3-8.6 13.8-1.12 7.3-.36 16.36 2.14 25.5 0 .15.08.3.13.44q.17.63.36 1.26c.14.49.29 1 .44 1.44.23.74.48 1.46.73 2.18.12.34.24.69.37 1s.27.74.42 1.11a56.81 56.81 0 008.69 15.58c3.43 4.18 7 6.73 10.41 7.48a9.38 9.38 0 002.09.24 8.5 8.5 0 002.3-.31 8.82 8.82 0 003.75-2.13c3.72-3.44 5.73-10.28 5.73-18.82a70.78 70.78 0 00-2.65-18.47zm-10.37 36.58c-2.78-.54-5.9-2.78-8.94-6.48a53.79 53.79 0 01-8.15-14.6c-.13-.32-.25-.64-.37-1-.74-2-1.41-4.08-2-6.22a.65.65 0 010-.13c-2.4-8.75-3.13-17.36-2.07-24.25 1-6.38 3.46-10.57 6.79-11.48l.22-.05a5.29 5.29 0 011.26-.14c3.07 0 6.7 2.33 10.21 6.61 4.42 5.39 8.17 13.17 10.57 21.92 5.24 19.17 1.78 33.95-4.73 35.73a6 6 0 01-2.79.09z"/><path class="cls-4" d="M841.74 207.83l-3.2-11.71a48 48 0 00-59-33.64l-27.22 7.45a48 48 0 00-33.64 59l12.73 46.52-14.14-51.68a59.84 59.84 0 0141.93-73.51l4.39-1.2A59.85 59.85 0 01837.13 191l4.61 16.87z"/><path class="cls-2" d="M843.19 207.43l-.26-1-4.36-15.91a61.35 61.35 0 00-75.36-43l-4.38 1.2a61.46 61.46 0 00-45.14 56.65c-.06 1.42-.06 2.84 0 4.26a61.34 61.34 0 002.17 14.45l4.23 15.45.25.93.15.53.29 1.06.11.4.32 1.19 8.79 32.18a1.49 1.49 0 001.44 1.1 1.83 1.83 0 00.4-.05 1.51 1.51 0 001-1.85l-9-32.9-.07-.27-.35-1.26-.05-.2-.36-1.32v-.15l-2.85-10.41a46.09 46.09 0 01-1.62-13.69c0-1.37.14-2.72.3-4.07a46.58 46.58 0 0133.91-39.38l27.25-7.44a46.55 46.55 0 0157.13 32.59l2.81 10.27.39 1.44a1.48 1.48 0 00.46.73 1.54 1.54 0 001.07.37 1.67 1.67 0 00.31-.05 1.52 1.52 0 001.02-1.85zM724.33 179a58 58 0 0135.29-27.37l4.38-1.2a58.67 58.67 0 0115.49-2.09 58.56 58.56 0 0148.75 26.4A49.63 49.63 0 00779.17 161l-27.23 7.45a49.56 49.56 0 00-35.25 37 58.16 58.16 0 017.64-26.45z"/><path class="cls-6" d="M281.42 115.16l45.2-43.1 14.29-26.78-62.49 44.7 3 25.18z"/><path class="cls-2" d="M342.4 45.15a.77.77 0 000-.15.93.93 0 00-.12-.33.51.51 0 00-.09-.16l-.06-.09-.11-.12a.41.41 0 00-.09-.1.23.23 0 00-.1-.07l-.17-.12-.12-.05-.14-.06a.79.79 0 00-.22-.05h-.43a.31.31 0 00-.13 0h-.15a1.24 1.24 0 00-.34.18l-4.34 3.1-4.5 3.22-27.6 19.75-26 18.62a1.52 1.52 0 00-.38.38 1.45 1.45 0 00-.24 1l.08.68 2.91 24.31a1.1 1.1 0 000 .26 1 1 0 000 .12 1.46 1.46 0 00.2.46.36.36 0 00.07.1.67.67 0 00.14.15 1.46 1.46 0 00.28.21.76.76 0 00.18.09 1.4 1.4 0 00.29.09h.29a1.33 1.33 0 00.28 0 1.29 1.29 0 00.28-.08 1.36 1.36 0 00.24-.13 1.3 1.3 0 00.23-.18l.07-.06L293.19 106l1.1-1 1.09-1 32.27-30.77a1.33 1.33 0 00.29-.38l6.45-12.09 3.94-7.36 3.9-7.4.08-.17v-.06a1.27 1.27 0 00.06-.28 1.1 1.1 0 000-.18s.03-.11.03-.16zm-5.83 5.08L334.05 55l-8.64 16.2L293 102l-1.09 1-1.1 1-2.81 2.84-3.84 3.66-1.61 1.5-.18-1.49L280 90.68 330 55l5.94-4.24z"/><path class="cls-4" d="M257.06 75.54l83.85-30.26-24.79 77.26-26.58-21.41 51.37-55.85-62.49 44.7-21.36-14.44z"/><path class="cls-2" d="M342.4 45.15a.77.77 0 000-.15.93.93 0 00-.12-.33.51.51 0 00-.09-.16l-.06-.09-.11-.12a1.54 1.54 0 00-.19-.17l-.17-.12-.12-.05-.14-.06a.79.79 0 00-.22-.05h-.44a.31.31 0 00-.13 0h-.15l-83.91 30.28a1.46 1.46 0 00-1 1.22 1.52 1.52 0 00.64 1.43L277 90.84l.57.38a1.44 1.44 0 001 .24 1.5 1.5 0 00.69-.26l.72-.52L330 55l-41.49 45.11a1.57 1.57 0 00-.24.32 1.5 1.5 0 00.35 1.92l.19.15 1.17 1 .88.71 1.19 1 1.17.94 22 17.71a1.56 1.56 0 00.94.33 1.54 1.54 0 00.43-.06 1.51 1.51 0 001-1l24.77-77.18v-.06a1.27 1.27 0 00.06-.28 1.1 1.1 0 000-.18s-.02-.23-.02-.28zm-5.4 7.54l-2.57 8-19 59.32-20-16.08-1.17-1L293 102l-1.3-1 42.33-46 3.35-3.64-.38 1.32zm-58.61 35.46L260.34 76l70.84-25.56-27.6 19.7z"/><path class="cls-11" d="M289.54 101.13l-8.12 14.03"/><path class="cls-2" d="M281.42 116.66a1.44 1.44 0 01-.75-.21 1.49 1.49 0 01-.55-2l8.12-14a1.5 1.5 0 112.6 1.5l-8.12 14a1.51 1.51 0 01-1.3.71z"/><path class="cls-10" d="M370.13 161.2a53.59 53.59 0 01-4.71-8.86c-.39-.92-.75-1.86-1.08-2.81a54.37 54.37 0 01-1.72-6 54.11 54.11 0 001.81 5.95c.34 1 .71 1.92 1.09 2.81a62.08 62.08 0 004.61 8.91zM370.52 161.82c-.11-.17-.25-.38-.39-.62.13.21.25.42.39.62z"/><path class="cls-4" d="M209.65 245.69H96.38a58.69 58.69 0 00-58.69 58.69 58.69 58.69 0 0058.69 58.69h133.71l38.25 27.14v-85.83a58.69 58.69 0 00-58.69-58.69z"/><path class="cls-2" d="M249.47 259.29q-1.12-1-2.31-2a59.85 59.85 0 00-37.51-13.15H96.38c-1.06 0-2.11 0-3.16.08a60.19 60.19 0 000 120.22c1 .05 2.1.08 3.16.08h133.23l37.86 26.87a1.52 1.52 0 00.87.27 1.55 1.55 0 00.69-.16 1.52 1.52 0 00.81-1.34v-85.78a60 60 0 00-20.37-45.09zm17.37 128L231 361.85a1.5 1.5 0 00-.87-.28H96.38c-1.06 0-2.11 0-3.16-.09a57.19 57.19 0 010-114.2c1-.06 2.1-.09 3.16-.09h113.27a56.94 56.94 0 0135.91 12.72c.79.63 1.56 1.29 2.31 2a57.06 57.06 0 0119 42.5z"/><path class="cls-4" d="M146.16 304.86a50.14 50.14 0 01-27.31 44.66 50.16 50.16 0 1127.32-44.66z"/><path class="cls-2" d="M96 253.2c-.94 0-1.87 0-2.79.08a51.65 51.65 0 000 103.15c.93.05 1.86.08 2.79.08a51.71 51.71 0 0023.42-5.61h.1A51.67 51.67 0 0096 253.2zm23.28 94.39l-1 .55-.1.05a48.38 48.38 0 01-14.74 4.75c-.71.11-1.42.21-2.14.28a48.47 48.47 0 01-5.25.29c-.93 0-1.86 0-2.79-.08-.76 0-1.51-.1-2.27-.19s-1.33-.14-1.99-.24a48.45 48.45 0 01-15.41-4.95c-.37-.19-.75-.39-1.11-.6a48.65 48.65 0 0120.73-91.17c.92 0 1.85-.08 2.79-.08a48.66 48.66 0 0123.28 91.39z"/><path class="cls-4" d="M164 288.09l5.79 4 5.79-4 5.8 4 5.8-4 5.79 4 5.8-4 5.79 4 5.81-4 5.8 4 5.8-4H164z"/><path class="cls-2" d="M216.17 293.59a1.52 1.52 0 01-.85-.26l-5-3.42-4.94 3.42a1.52 1.52 0 01-1.71 0l-4.94-3.42-5 3.42a1.51 1.51 0 01-1.7 0l-4.94-3.42-5 3.42a1.51 1.51 0 01-1.7 0l-4.95-3.42-4.94 3.42a1.51 1.51 0 01-1.7 0l-5.79-4a1.5 1.5 0 111.7-2.47l4.94 3.41 4.94-3.41a1.47 1.47 0 011.7 0l4.95 3.41 4.94-3.41a1.49 1.49 0 011.71 0l4.94 3.41 4.95-3.41a1.47 1.47 0 011.7 0l4.95 3.41 4.94-3.41a1.49 1.49 0 011.71 0l4.95 3.41 5-3.41a1.5 1.5 0 111.7 2.47l-5.8 4a1.54 1.54 0 01-.76.26z"/><path class="cls-4" d="M164 306.59l5.79 4 5.79-4 5.8 4 5.8-4 5.79 4 5.8-4 5.79 4 5.81-4 5.8 4 5.8-4H164z"/><path class="cls-2" d="M216.17 312.09a1.52 1.52 0 01-.85-.26l-5-3.42-4.94 3.42a1.52 1.52 0 01-1.71 0l-4.94-3.42-5 3.42a1.51 1.51 0 01-1.7 0l-4.94-3.42-5 3.42a1.51 1.51 0 01-1.7 0l-4.95-3.42-4.94 3.42a1.51 1.51 0 01-1.7 0l-5.79-4a1.5 1.5 0 111.7-2.47l4.94 3.41 4.94-3.41a1.47 1.47 0 011.7 0l4.95 3.41 4.94-3.41a1.49 1.49 0 011.71 0l4.94 3.41 4.95-3.41a1.47 1.47 0 011.7 0l4.95 3.41 4.94-3.41a1.49 1.49 0 011.71 0l4.95 3.41 5-3.41a1.5 1.5 0 111.7 2.47l-5.8 4a1.54 1.54 0 01-.76.26z"/><path class="cls-4" d="M164 325.09l5.79 4 5.79-4 5.8 4 5.8-4 5.79 4 5.8-4 5.79 4 5.81-4 5.8 4 5.8-4H164z"/><path class="cls-2" d="M216.17 330.59a1.52 1.52 0 01-.85-.26l-5-3.42-4.94 3.42a1.52 1.52 0 01-1.71 0l-4.94-3.42-5 3.42a1.51 1.51 0 01-1.7 0l-4.94-3.42-5 3.42a1.51 1.51 0 01-1.7 0l-4.95-3.42-4.94 3.42a1.51 1.51 0 01-1.7 0l-5.79-4a1.5 1.5 0 111.7-2.47l4.94 3.41 4.94-3.41a1.47 1.47 0 011.7 0l4.95 3.41 4.94-3.41a1.49 1.49 0 011.71 0l4.94 3.41 4.95-3.41a1.47 1.47 0 011.7 0l4.95 3.41 4.94-3.41a1.49 1.49 0 011.71 0l4.95 3.41 5-3.41a1.5 1.5 0 111.7 2.47l-5.8 4a1.54 1.54 0 01-.76.26z"/><ellipse class="cls-12" cx="107.22" cy="306.55" rx="2.32" ry="2.59"/><ellipse class="cls-12" cx="84.58" cy="306.55" rx="2.32" ry="2.59"/><path class="cls-13" d="M106.14 273.67l-.67-.25h-.09a.28.28 0 010 .09c0 .14-.06.28-.09.41.32.11.63.22.94.35a4 4 0 00.11-.5zm0 0l-.67-.25h-.09a.28.28 0 010 .09c0 .14-.06.28-.09.41.32.11.63.22.94.35a4 4 0 00.11-.5zm0 0l-.67-.25h-.09a.28.28 0 010 .09c0 .14-.06.28-.09.41.32.11.63.22.94.35a4 4 0 00.11-.5zm3.19.91a24.37 24.37 0 00-2.9-1.32 28.08 28.08 0 00-8.56-1.91c-.65-.06-1.31-.08-2-.08a26.43 26.43 0 00-2.68.13 29 29 0 00-26.34 28.89c0 .9 0 1.79.12 2.65 1.13 11.69 9.74 19.92 22.62 21.92l.58.08 1 .13c.66.08 1.34.14 2 .17h5.18c.75 0 1.48-.1 2.2-.18l1-.13.68-.1c13-2 21.6-10.43 22.55-22.31 0-.37.06-.73.08-1.11v-1.09a29 29 0 00-15.53-25.74zM97.46 324.3q-1.56.06-3.12 0c-.37 0-.75 0-1.12-.06-1-.06-2-.17-3-.31-12.54-1.8-21-9.64-22.17-20.83a25.76 25.76 0 01-.15-2.81 28 28 0 0125.32-27.89 26.29 26.29 0 012.68-.13q1.06 0 2.1.09a26.28 26.28 0 015.14.86h.19c.66.18 1.31.39 2 .62.32.11.63.22.94.35a26.92 26.92 0 012.88 1.34 28 28 0 0114.82 24.5 1.48 1.48 0 010 .21v.84a10.37 10.37 0 01-.06 1.12c-.85 11.65-9.39 19.83-22.25 21.68a36.61 36.61 0 01-4.2.42zm8.68-50.63l-.67-.25h-.09a.28.28 0 010 .09c0 .14-.06.28-.09.41.32.11.63.22.94.35a4 4 0 00.11-.5zm0 0l-.67-.25h-.09a.28.28 0 010 .09c0 .14-.06.28-.09.41.32.11.63.22.94.35a4 4 0 00.11-.5z"/><path class="cls-12" d="M97.76 270.36a36.69 36.69 0 0028 32.41c.06-.82.11-1.64.11-2.48a30 30 0 00-28.11-29.93z"/><path class="cls-12" d="M109.54 273.58a31.08 31.08 0 00-13.26-3.22 30.16 30.16 0 00-30 30.21c0 .76 0 1.51.1 2.26a36.13 36.13 0 006.87.65 36.87 36.87 0 0036.29-29.9z"/><path class="cls-12" d="M128.41 294.63a58.38 58.38 0 01-4.71-11.08c-2.6-8.95-9.51-15.34-17.63-15.34a15.28 15.28 0 00-3.66.44A28.55 28.55 0 0064 288.25a49.77 49.77 0 01-2.65 8 21.81 21.81 0 0020 30.44 22.39 22.39 0 003.19-.23 16.55 16.55 0 005.82-2c-13.08-1.84-23-10.3-23-24.15v-.23-.64-.71-.58c0-.19 0-.59.07-.88v-.21a28.53 28.53 0 0122-24.55h.14c.36-.08.72-.15 1.09-.21l.38-.07.9-.14.58-.07.77-.08.7-.05h3.68l.71.05.74.08c.24 0 .47 0 .7.09l.73.11.69.12.72.15.68.16.7.19.67.19.69.21.65.23.67.25.64.25.66.28.62.28.64.32.6.31.63.34.58.34.6.38.57.36.59.4.54.39c.2.14.38.29.57.43l.53.42.54.46.5.43.52.49.49.46.49.51.46.48.48.54.43.5.45.56c.14.17.28.34.41.52l.42.58.39.54.39.61.36.56.36.62a6.65 6.65 0 01.33.58c.12.21.23.43.34.65s.21.39.3.58.21.45.31.67.19.4.27.6.19.47.28.7.17.4.24.61.17.47.25.71l.21.62.21.74.18.62.18.77c0 .21.1.41.14.62s.1.54.14.8.08.41.11.62l.12.86c.04.29.05.38.07.57s0 .65.07 1 0 .33 0 .49v1.48c0 13.77-9.75 22.21-22.72 24.12 2.08 1.83 6.17 2.26 7.45 2.26a21.81 21.81 0 0019.25-32z"/><path class="cls-13" d="M101 324c-1.18.15-2.38.26-3.58.31q-1.56.06-3.12 0l-1.12-.07c-.82-.05-1.64-.13-2.45-.24l-.57-.07v7.74a5.69 5.69 0 003 5 5.53 5.53 0 002.68.68 5.71 5.71 0 005.7-5.68v-7.74zm-.44 7.65a4.7 4.7 0 01-4.7 4.7 4.62 4.62 0 01-2.68-.85 4.69 4.69 0 01-2-3.85v-6.59c.67.08 1.34.14 2 .19h5.18c.74-.05 1.47-.12 2.2-.2z"/><ellipse class="cls-13" cx="84.58" cy="306.55" rx="1.21" ry="1.35"/><ellipse class="cls-13" cx="107.22" cy="306.55" rx="1.21" ry="1.35"/><path class="cls-13" d="M95.83 316.56a4.39 4.39 0 01-3.64-1.88l.82-.57a3.41 3.41 0 002.82 1.45 3.41 3.41 0 002.82-1.45l.83.57a4.42 4.42 0 01-3.65 1.88zM119.43 343.62a12 12 0 00-12-12h-6.33a5.19 5.19 0 01-5.2 5.18 5.2 5.2 0 01-5.2-5.18h-6.36a12 12 0 00-12 12h47.05z"/><path class="cls-13" d="M79.82 300h9v.26a1 1 0 01-1 1h-8a.48.48 0 01-.48-.48v-.26a.48.48 0 01.48-.52z" transform="rotate(173.36 84.049 300.582)"/><path class="cls-13" d="M103.48 300h8a1 1 0 011 1v.26h-9a.48.48 0 01-.48-.48v-.26a.48.48 0 01.48-.52z" transform="rotate(1.08 107.88 300.334)"/><path class="cls-14" d="M92.26 305.7a9.46 9.46 0 00-2.63-6 9.65 9.65 0 00-2.8-2 9.09 9.09 0 00-1.38-.51 9.28 9.28 0 00-2.6-.37 9.4 9.4 0 00-6.36 2.47 10.16 10.16 0 00-1 1.08 9.27 9.27 0 00-1.65 3.14 9.11 9.11 0 00-.41 2.73 9.42 9.42 0 0018.83.5v-.5c0-.17.01-.38 0-.54zm-9.41 8.93a8.43 8.43 0 01-8.42-8.43 8.12 8.12 0 01.47-2.76 8.29 8.29 0 012-3.22 8.65 8.65 0 011.57-1.22 8.37 8.37 0 014.38-1.23h.76a8.87 8.87 0 011.87.39 8.14 8.14 0 012.45 1.31 6.14 6.14 0 01.73.62l.09.08a8.42 8.42 0 01-5.91 14.42zM109 296.78a9.44 9.44 0 00-9.41 8.92v1a9.42 9.42 0 109.41-9.92zm0 17.85a8.42 8.42 0 01-5.93-14.4c.11-.11.22-.22.34-.32a8.42 8.42 0 115.59 14.72z"/><path class="cls-14" d="M91.77 305.7h8.11v1h-8.11z"/><path class="cls-13" d="M95.24 311.65v-1a1.31 1.31 0 100-2.61v-1a2.31 2.31 0 110 4.61z"/><ellipse class="cls-4" cx="108.96" cy="305.43" rx="1.51" ry=".6" transform="rotate(-30.93 108.979 305.448)"/><ellipse class="cls-4" cx="86.3" cy="305.43" rx="1.51" ry=".6" transform="rotate(-30.93 86.31 305.46)"/><path class="cls-13" d="M119.42 342.54v3.3a12.11 12.11 0 01-.57 3.68 50.21 50.21 0 01-45.93-.14 11.85 11.85 0 01-.53-3.54v-3.3zM73.53 300.39v-1a32.35 32.35 0 0031.92-26.31l1 .18a33.35 33.35 0 01-32.92 27.13z"/><path class="cls-13" d="M73.53 297.84v-1a29.22 29.22 0 0028.82-23.76l1 .18a30.2 30.2 0 01-29.82 24.58zM125.92 301.67a35.28 35.28 0 01-23.53-18.74l.9-.45a34.3 34.3 0 0022.86 18.22z"/><path class="cls-12" d="M81.57 328.83a24 24 0 01-24-24h1a23 23 0 0023 23zM126 322.17l-.69-.72a22.78 22.78 0 007.08-16.59h1a23.73 23.73 0 01-7.39 17.31zM109.41 328.83v-1a22.88 22.88 0 008.51-1.63l.37.93a24 24 0 01-8.88 1.7zM90.38 347.22a3 3 0 100 6.08 3 3 0 002.62-1.42l-.9-.55a2 2 0 11-1.67-3.05 1.94 1.94 0 011.37.56l-.79.79h2.33v-2.34l-.79.8a3 3 0 00-2.17-.87zM102 353.3a3 3 0 002.58-1.42l-.9-.55a2 2 0 110-2.12l.9-.57a3.07 3.07 0 10-2.58 4.66z"/><path class="cls-12" d="M101.05 350.27a.93.93 0 10.93-.93.92.92 0 00-.93.93zM94 348.9a1.71 1.71 0 001.42 1.62l1 .25c1.19.33.7 1.49-.37 1.49a2.14 2.14 0 01-1.53-.59l-.62.88a3.3 3.3 0 002.15.75 2 2 0 002.2-1.81 1.86 1.86 0 00-1.62-1.75l-.93-.24c-1-.29-.56-1.22.35-1.22a2.12 2.12 0 011.37.46l.61-.87a3.24 3.24 0 00-2-.65A1.88 1.88 0 0094 348.9z"/><path class="cls-6" d="M741 507.11l-4.32 6a2.31 2.31 0 00-.3 2.14l2.51 7a2.32 2.32 0 01-2.88 3l-7.1-2.25a2.31 2.31 0 00-2.12.38l-5.86 4.54a2.32 2.32 0 01-3.74-1.81v-7.42a2.34 2.34 0 00-1-1.9l-6.19-4.18a2.32 2.32 0 01.57-4.12l7-2.33a2.35 2.35 0 001.5-1.55l2.06-7.12a2.32 2.32 0 014.1-.73l4.39 6a2.29 2.29 0 001.94.94l7.41-.23a2.32 2.32 0 012.03 3.64z"/><path class="cls-2" d="M742.18 508a3.81 3.81 0 00-3.22-6l-7.41.24a.84.84 0 01-.68-.34l-4.4-6a3.82 3.82 0 00-6.74 1.2l-2.07 7.12a.82.82 0 01-.52.55l-7 2.33a3.81 3.81 0 00-.94 6.78l6.13 4.17a.84.84 0 01.36.67v7.41a3.8 3.8 0 002.15 3.42 3.84 3.84 0 004-.42l5.86-4.55a.83.83 0 01.75-.13l7.06 2.25a3.82 3.82 0 004.75-4.93l-2.51-7a.83.83 0 01.1-.75zm-4.91 15.62a.8.8 0 01-.84.21l-7.06-2.25a3.82 3.82 0 00-3.5.62l-5.87 4.53a.82.82 0 01-.86.09.79.79 0 01-.46-.73v-7.42a3.82 3.82 0 00-1.68-3.13l-6.13-4.17a.82.82 0 01.2-1.45l7-2.33a3.84 3.84 0 002.46-2.56l2.07-7.12a.81.81 0 01.64-.58h.16a.78.78 0 01.65.33l4.39 6a3.78 3.78 0 003.2 1.55l7.4-.23a.83.83 0 01.75.43.79.79 0 010 .86l-4.33 6a3.81 3.81 0 00-.48 3.52l2.51 7a.83.83 0 01-.22.81z"/><path class="cls-6" d="M786.8 496.19l-4.32 6a2.31 2.31 0 00-.3 2.14l2.51 7a2.32 2.32 0 01-2.88 3l-7.07-2.25a2.31 2.31 0 00-2.12.38l-5.86 4.54a2.32 2.32 0 01-3.74-1.81v-7.42a2.34 2.34 0 00-1-1.9l-6.13-4.17a2.31 2.31 0 01.57-4.11l7-2.34a2.33 2.33 0 001.5-1.55l2.06-7.12a2.32 2.32 0 014.1-.73l4.39 6a2.32 2.32 0 001.94.95l7.41-.24a2.32 2.32 0 011.94 3.63z"/><path class="cls-2" d="M788.44 493.38a3.54 3.54 0 00-.16-.34 3.77 3.77 0 00-1-1.18 3.71 3.71 0 00-2.51-.84l-7.41.24a.84.84 0 01-.68-.34l-4.4-6a3.82 3.82 0 00-6.74 1.2l-2.06 7.12a.85.85 0 01-.53.55l-7 2.33a3.82 3.82 0 00-.94 6.79l6.13 4.16a.82.82 0 01.36.67v7.42a3.79 3.79 0 002.15 3.41 3.86 3.86 0 001.68.39 3.81 3.81 0 002.33-.81l5.86-4.55a.83.83 0 01.75-.13l5.74 1.83 1.32.42h.09a3.5 3.5 0 001.57.12 3.72 3.72 0 002.25-1.13 3.77 3.77 0 00.84-3.94l-.7-1.94-.84-2.34-.83-2.3-.14-.4a.81.81 0 01.11-.75l.68-.95 2.64-3.69 1-1.38a3.77 3.77 0 00.44-3.64zm-7.18 8a3.79 3.79 0 00-.49 3.52l1.46 4.05.81 2.26.24.66a.79.79 0 01-.18.85.8.8 0 01-.66.24h-.18l-1.24-.4-5.82-1.85a3.82 3.82 0 00-3.5.62l-5.86 4.55a.8.8 0 01-.86.09.82.82 0 01-.46-.73v-7.41a3.81 3.81 0 00-1.68-3.14l-6.13-4.17a.79.79 0 01-.35-.79.8.8 0 01.56-.66l7-2.33a3.85 3.85 0 002.47-2.56l2.06-7.12a.82.82 0 01.65-.58h.15a.78.78 0 01.65.33l4.39 6a3.84 3.84 0 003.2 1.55l7.41-.23a.8.8 0 01.74.43.79.79 0 010 .87z"/><path class="cls-10" d="M832.08 486.41l-4.32 6a2.31 2.31 0 00-.3 2.14l2.51 7a2.32 2.32 0 01-2.88 3l-7.09-2.26a2.31 2.31 0 00-2.12.38l-5.88 4.54a2.32 2.32 0 01-3.74-1.81v-7.42a2.34 2.34 0 00-1-1.9l-6.13-4.17a2.31 2.31 0 01.57-4.11l7-2.34a2.35 2.35 0 001.5-1.55l2.06-7.12a2.32 2.32 0 014.1-.73l4.39 6a2.32 2.32 0 001.94 1l7.41-.24a2.32 2.32 0 011.98 3.59z"/><path class="cls-2" d="M833.29 487.28a3.81 3.81 0 00-3.22-6l-7.41.24a.83.83 0 01-.68-.34l-4.4-6a3.82 3.82 0 00-6.74 1.2l-2.07 7.12a.82.82 0 01-.52.55l-7 2.33a3.81 3.81 0 00-.94 6.78l6.13 4.17a.84.84 0 01.36.67v7.42a3.79 3.79 0 002.15 3.41 3.84 3.84 0 004-.42l5.86-4.55a.83.83 0 01.75-.13l7.06 2.25a3.82 3.82 0 004.75-4.93l-2.51-7a.83.83 0 01.1-.75zm-4.91 15.62a.81.81 0 01-.84.21l-7.06-2.25a3.82 3.82 0 00-3.5.62l-5.86 4.52a.82.82 0 01-1.32-.64v-7.42a3.84 3.84 0 00-1.68-3.13l-6.12-4.14a.82.82 0 01.2-1.45l7-2.33a3.84 3.84 0 002.46-2.56l2.07-7.12a.81.81 0 01.64-.58h.16a.78.78 0 01.65.33l4.39 6a3.83 3.83 0 003.2 1.55l7.41-.23a.82.82 0 01.74.43.79.79 0 010 .86l-4.33 6a3.81 3.81 0 00-.48 3.52l2.51 7a.83.83 0 01-.24.81z"/><path class="cls-4" transform="rotate(-15 816.294 600.849)" d="M757.46 532.5h121.65v140.18H757.46z"/><path class="cls-2" d="M750.88 580.34l-.52-2-.52-1.93-1.1 1.69.51 1.92.52 1.94.23.84 1.45-.38zm0 0l-.52-2q-.54.84-1.11 1.68l.52 1.94.23.84 1.45-.38zm0 0l-.52-2q-.54.84-1.11 1.68l.52 1.94.23.84 1.45-.38zm145.77 73.77l-8.7-32.4-.42-1.58-.43-1.6-4.74-17.63-.43-1.61-.42-1.57-21.21-79a1.56 1.56 0 00-.7-.91 1.52 1.52 0 00-1.14-.15l-18.49 5-1.45.39-1.45.38-64.07 17.2-1.91.51-1.87.51-28.22 7.57a1.48 1.48 0 00-.91.7 1.51 1.51 0 00-.15 1.14l1.93 7.2.78 2.9 2.58 9.58.38 1.45.39 1.45 1.66 6.17.51 1.91.41 1.51.11.42.28 1 .39 1.45 2.57 9.59.39 1.44.39 1.45 2.57 9.59.39 1.45.39 1.44 2.58 9.6.38 1.45.39 1.44 2.58 9.59.39 1.45.38 1.45 2.57 9.54.39 1.45.39 1.45 7.06 26.29.38 1.45.39 1.45 2.35 8.74a1.56 1.56 0 00.7.91 1.53 1.53 0 00.75.2 1.74 1.74 0 00.39 0L895.59 656a1.5 1.5 0 001.06-1.89zm-117.88 30.1l-2-7.29-.39-1.45L776 674l-7-26.26-.39-1.45-.39-1.45-2.56-9.54-.39-1.45-.39-1.44-2.57-9.59-.39-1.45-.39-1.45-2.58-9.59-.39-1.45-.38-1.45-2.58-9.58-.39-1.45-.38-1.45-2.58-9.59-.39-1.44-.39-1.45-.57-2.13-.52-2-.52-1.93-1-3.57-.39-1.44-.37-1.4-2.57-9.59-.39-1.45-.39-1.44-1.55-5.77 24.27-6.52 1.89-.51 1.94-.52 66.54-17.86 1.44-.39 1.44-.39 17-4.58L879 599.82l.43 1.58.43 1.61 4.73 17.62.43 1.6.43 1.59 8 29.62zm-27.89-103.87l-.52-2q-.54.84-1.11 1.68l.52 1.94.23.84 1.45-.38zm0 0l-.52-2q-.54.84-1.11 1.68l.52 1.94.23.84 1.45-.38z"/><path class="cls-4" transform="rotate(-15 793.698 596.027)" d="M734.78 527.66h121.65v140.18H734.78z"/><path class="cls-2" d="M863.83 622.67h-.12l.17.64zm0 0h-.12l.17.64zm0 0h-.12l.17.64zM874 649.28l-4.07-15.17-.39-1.45-.15-.54-.24-.91-1-3.56-.4-1.49-.45-1.68-.08-.3-.38-1.42-.43-1.57-.13-.49-1.42-5.32-.44-1.62-.42-1.56-23.27-86.65-.38-1.45-.39-1.45-2.35-8.74a1.5 1.5 0 00-1.84-1.06l-57.47 15.42-1.84.49-1.8.49-56.37 15.13a1.56 1.56 0 00-.91.7 1.52 1.52 0 00-.15 1.14l3.64 13.55.88 3.3 3.51 13.06 6.71 25 .48 1.8.48 1.79 20.64 76.87a1.5 1.5 0 001.45 1.11 1.31 1.31 0 00.39-.05l18.49-5 1.45-.39 1.45-.39 96.1-25.8a1.56 1.56 0 00.91-.7 1.52 1.52 0 00.19-1.09zm-99.39 25.13l-1.44.39-17 4.58-20.82-77.54-.48-1.81-.49-1.8-13.78-51.34 52.66-14.14 1.82-.49 1.87-.5 58.24-15.64 2 7.29.39 1.45.39 1.46 23.62 88 .27 1 .15.53.73 2.74.09.33.09.34.46 1.69.3 1.13.15.55.17.64 1 3.59 1.34 5 .39 1.45.39 1.45 3.72 13.85L776 674l-1.45.39zm89.25-51.74h-.12l.17.64zm0 0h-.12l.17.64z"/><path class="cls-11" d="M834.67 628.54l-75.63 20.31"/><path class="cls-2" d="M759 650.35a1.5 1.5 0 01-.39-3l75.63-20.31a1.5 1.5 0 11.78 2.9l-75.59 20.36a1.31 1.31 0 01-.43.05z"/><path class="cls-11" d="M848.86 611.86l-93.48 24.59"/><path class="cls-2" d="M755.38 638a1.5 1.5 0 01-.38-3l93.48-24.59a1.5 1.5 0 01.76 2.9l-93.48 24.59a1.73 1.73 0 01-.38.1z"/><path class="cls-11" d="M845.2 599.46l-93.48 24.59"/><path class="cls-2" d="M751.72 625.55a1.5 1.5 0 01-.38-2.95l93.48-24.6a1.51 1.51 0 01.77 2.91L752.1 625.5a1.58 1.58 0 01-.38.05z"/><path class="cls-11" d="M841.55 587.05l-93.49 24.59"/><path class="cls-2" d="M748.06 613.14a1.5 1.5 0 01-.38-2.95l93.48-24.59a1.5 1.5 0 11.77 2.9l-93.48 24.59a1.31 1.31 0 01-.39.05z"/><path class="cls-11" d="M837.89 574.65l-93.48 24.59"/><path class="cls-2" d="M744.4 600.74a1.5 1.5 0 01-.38-3l93.49-24.59a1.5 1.5 0 11.76 2.9l-93.48 24.59a1.74 1.74 0 01-.39.1z"/><path class="cls-11" d="M835.2 561.95l-94.45 24.89"/><path class="cls-2" d="M740.75 588.34a1.5 1.5 0 01-.38-3l94.45-24.89a1.5 1.5 0 01.76 2.9l-94.45 24.89a1.73 1.73 0 01-.38.1z"/><path class="cls-11" d="M831.54 549.55l-94.45 24.88"/><path class="cls-2" d="M737.09 575.93a1.49 1.49 0 01-1.45-1.11 1.51 1.51 0 011.07-1.84l94.45-24.88a1.49 1.49 0 011.83 1.06 1.51 1.51 0 01-1.07 1.84l-94.45 24.88a1.24 1.24 0 01-.38.05z"/><path class="cls-11" d="M827.88 537.14l-94.45 24.89"/><path class="cls-2" d="M733.43 563.53a1.5 1.5 0 01-.38-2.95l94.45-24.89a1.5 1.5 0 11.76 2.9l-94.45 24.89a1.2 1.2 0 01-.38.05z"/><path class="cls-4" d="M860.96 616.59l-8.57 19.87 21.12-4.69-12.55-15.18z"/><path class="cls-2" d="M874.67 630.82v-.05l-1-1.15-7.39-8.93-2.28-2.79-.89-1.07-1-1.18a1.36 1.36 0 00-.37-.31 1.43 1.43 0 00-1-.22 1.28 1.28 0 00-.43.14 1.46 1.46 0 00-.74.75L851 635.86a1.51 1.51 0 001.38 2.1 1.12 1.12 0 00.32 0l14.3-3.2 1.47-.32 1.47-.33 3.94-.87a1.47 1.47 0 00.86-.57 1.27 1.27 0 00.23-.41 1.5 1.5 0 00-.3-1.44zm-5.55.39l-.65.15-.82.18-1.47.32-7 1.57-4.21.93 1.71-4 3.78-8.78.82-1.91.12-.28 1.08 1.3 1.12 1.36 1.9 2.29.4.49.82 1 1.48 1.79 1.54 1.86 1.1 1.33h-.25z"/><path class="cls-4" d="M869.79 630.68l-.21-3a1.52 1.52 0 00-1.1-1.32l-2.94-.82-.21-3a1.49 1.49 0 00-1.09-1.32l-3-.82-.28-3.83 50.59-41.79 3.94 4.85v.06a1.32 1.32 0 00.18.22v.05l4 4.81v.06a1.2 1.2 0 00.17.21l.06.05 4 4.86-50.4 41.76z"/><path class="cls-2" d="M866.82 622.43a2.83 2.83 0 00-.4-1.25l.43 1.57zm0 0a2.83 2.83 0 00-.4-1.25l.43 1.57zM925.23 589l-4.06-4.91a1.14 1.14 0 00-.11-.11l-.08-.12-4.06-4.86a.94.94 0 00-.1-.1.54.54 0 00-.09-.12l-4.06-4.92a1.41 1.41 0 00-1-.51h-.14a1.2 1.2 0 00-.42.07 1.37 1.37 0 00-.49.26l-1.15 1-28 23.14-1.27 1-1.2 1-15 12.37-1.27 1-1.27 1-1.15 1-.28.23a1.45 1.45 0 00-.52 1.24l.22 2.71.09 1.16a1.46 1.46 0 00.59 1 1.58 1.58 0 00.47.23l2.82.79h.12v.61l.2 2.43a1.44 1.44 0 00.76 1.16 1.34 1.34 0 00.3.12l1.39.39 1.54.43.25 3a1.49 1.49 0 00.14.51 1.46 1.46 0 00.89.76l1.12.31 2.63.73h.38a1.51 1.51 0 00.93-.33l.26-.22 10.71-8.85 1.27-1.05 1.27-1.06L923.89 592l1.15-1a1.45 1.45 0 00.35-.44 1.4 1.4 0 00-.16-1.56zm-52.08 41l-1.37-.38-.55-.15-.05-.57-.11-1.39a3 3 0 00-2.19-2.64l-1.34-.37-.23-.07-.33-.09-.05-.58-.08-1.06v-.32a2.83 2.83 0 00-.4-1.25 3 3 0 00-1.79-1.4h-.15l-1.19-.34-.48-.13h-.06V618.69l-.12-1.41.53-.44.49-.41 1.28-1 15-12.36 1.27-1.06 1.27-1.05 29-24 3 3.6a2.39 2.39 0 00.38.46l3.86 4.68a3.23 3.23 0 00.38.45l3 3.6-35.02 28.78-1.28 1.05-1.27 1-10.87 9zm-6.33-7.63a2.83 2.83 0 00-.4-1.25l.43 1.57zm0 0a2.83 2.83 0 00-.4-1.25l.43 1.57zm0 0a2.83 2.83 0 00-.4-1.25l.43 1.57z"/><path class="cls-2" transform="rotate(50.41 919.085 581.37)" d="M907.88 579.75h22.36v3.16h-22.36z"/><path class="cls-2" d="M928.63 588.09a.76.76 0 00-.08-.11l-.88-1.07-12.48-15.08-.89-1.08-.08-.08a1.49 1.49 0 00-2-.12l-2.43 2a1.47 1.47 0 00-.54 1 1.43 1.43 0 00.27 1 .61.61 0 00.07.1l.88 1.06L923 590.88l.85 1s.06.07.09.08a1.45 1.45 0 001.07.46 1.5 1.5 0 001-.34l2.43-2a1.52 1.52 0 00.54-1 1.46 1.46 0 00-.35-.99zm-15.81-14.17l.13-.1 12.33 14.92-.12.1z"/><path class="cls-6" d="M923.2 572.55h1.65a9 9 0 019 9v.31h-19.7v-.31a9 9 0 019.05-9z" transform="rotate(50.41 924.051 577.255)"/><path class="cls-2" d="M929.3 573.92l-1-1.27a10.54 10.54 0 00-7.13-3.77 10.39 10.39 0 00-6.91 1.79 8.4 8.4 0 00-.79.58l-.24.2a1.38 1.38 0 00-.41.56 1.49 1.49 0 00.21 1.54l12.56 15.18a1.5 1.5 0 001 .54h.14a1.06 1.06 0 00.31 0 1.33 1.33 0 00.63-.31l.24-.19c.25-.21.5-.43.73-.66a10.54 10.54 0 00.67-14.17zm-.61 7.42a7.55 7.55 0 01-1.84 4.26l-10.53-12.73a7.54 7.54 0 019.62 1.7l1 1.26a7.5 7.5 0 011.75 5.51zM852.39 636.46l7.22-1.6a7.31 7.31 0 00-1.51-3.12 7.43 7.43 0 00-2.78-2.08z"/></svg>