<svg xmlns="http://www.w3.org/2000/svg" width="32" height="32"><g fill="none" fill-rule="evenodd"><path fill="#FFF" d="M3.676 22.417L.903 30.992l8.575-2.772z"/><path stroke="#394349" stroke-linecap="round" stroke-linejoin="round" stroke-width=".617" d="M3.676 22.417L.903 30.992l8.575-2.772z"/><path fill="#30B797" d="M5.553 24.294l-1.594-.284-.283-1.593L23.013 3.079l1.877 1.877z"/><path stroke="#394349" stroke-linecap="round" stroke-linejoin="round" stroke-width=".617" d="M5.553 24.294l-1.594-.284-.283-1.593L23.013 3.079l1.877 1.877z"/><path fill="#30B797" d="M7.515 26.257l-1.593-.284-.284-1.593L24.976 5.042l1.877 1.877z"/><path stroke="#394349" stroke-linecap="round" stroke-linejoin="round" stroke-width=".617" d="M7.515 26.257l-1.593-.284-.284-1.593L24.976 5.042l1.877 1.877z"/><path fill="#30B797" d="M9.478 28.22l-1.593-.284-.284-1.594L26.939 7.005l1.877 1.877z"/><path stroke="#394349" stroke-linecap="round" stroke-linejoin="round" stroke-width=".617" d="M9.478 28.22l-1.593-.284-.284-1.594L26.939 7.005l1.877 1.877z"/><path fill="#394349" d="M30.137 8.343l-6.585-6.585-.93.93 6.585 6.585z"/><path stroke="#394349" stroke-linecap="round" stroke-linejoin="round" stroke-width=".617" d="M30.137 8.343l-6.585-6.585-.93.93 6.585 6.585z"/><path fill="#F69C1E" d="M30.57 3.155l-1.83-1.83a2.81 2.81 0 00-3.973 0l-.763.764 5.802 5.802.763-.763a2.81 2.81 0 000-3.973"/><path stroke="#394349" stroke-linecap="round" stroke-linejoin="round" stroke-width=".617" d="M30.57 3.155l-1.83-1.83a2.81 2.81 0 00-3.973 0l-.763.764 5.802 5.802.763-.763a2.81 2.81 0 000-3.973z"/><path fill="#394349" d="M.903 30.992l2.933-.948a3.067 3.067 0 00-1.985-1.985l-.948 2.933z"/><path stroke="#394349" stroke-linecap="round" stroke-linejoin="round" stroke-width=".617" d="M.903 30.992l2.933-.948a3.067 3.067 0 00-1.985-1.985l-.948 2.933z"/></g></svg>