<svg xmlns="http://www.w3.org/2000/svg" width="32" height="32" viewBox="0 0 32 32">
  <path d="M16,32 C7.163444,32 1.77635684e-15,24.836556 1.77635684e-15,16 C1.77635684e-15,7.163444 7.163444,0 16,0 C24.836556,0 32,7.163444 32,16 C32,24.836556 24.836556,32 16,32 Z M16,31.030303 C24.3010071,31.030303 31.030303,24.3010071 31.030303,16 C31.030303,7.69899285 24.3010071,0.96969697 16,0.96969697 C7.69899285,0.96969697 0.96969697,7.69899285 0.96969697,16 C0.96969697,24.3010071 7.69899285,31.030303 16,31.030303 Z M21.168545,13.8778024 C21.3324846,13.6660787 21.6370199,13.627342 21.8487437,13.7912816 C22.0604674,13.9552213 22.0992041,14.2597566 21.9352644,14.4714803 L17.2596675,20.509891 C16.7210088,21.2055546 15.7203926,21.3328322 15.0247289,20.7941735 C14.9183449,20.7117993 14.822825,20.6162798 14.7404507,20.5098964 L10.064733,14.4713846 C9.90079243,14.2596616 9.93952776,13.9551261 10.1512508,13.7911855 C10.3629738,13.627245 10.6675093,13.6659803 10.8314498,13.8777033 L15.5071678,19.9162154 C15.5394011,19.9578436 15.5767783,19.9952207 15.6184068,20.027454 C15.890623,20.2382335 16.2821686,20.1884292 16.492948,19.916213 L21.168545,13.8778024 Z" transform="rotate(-90 16 16)"/>
</svg>
