<svg xmlns="http://www.w3.org/2000/svg" width="24" height="24" viewBox="0 0 24 24">
  <path d="M6.60000153,3.00000153 L17.4000015,3.00000153 C19.3882266,3.00000153 21.0000015,4.61177643 21.0000015,6.60000153 L21.0000015,17.4000015 C21.0000015,19.3882266 19.3882266,21.0000015 17.4000015,21.0000015 L6.60000153,21.0000015 C4.61177643,21.0000015 3.00000153,19.3882266 3.00000153,17.4000015 L3.00000153,6.60000153 C3.00000153,4.61177643 4.61177643,3.00000153 6.60000153,3.00000153 Z M11.5384614,21 L14.6153841,21 L14.6153841,13.499054 L16.1538455,13.499054 L16.9230762,10.5000011 L14.6153841,10.5000011 L14.6153841,9.75000114 C14.6153841,9.07592901 14.5200999,8.5855226 15.3846148,8.5855226 L16.9230762,8.5855226 L16.9230762,6.00000153 L15.4007154,6.00000153 C12.6662287,6.00000153 11.5384614,6.89163234 11.5384614,9.00000122 L11.5384614,10.5000011 L10,10.5000011 L10,13.499054 L11.5384614,13.5000008 L11.5384614,21 Z"/>
</svg>
