<svg xmlns="http://www.w3.org/2000/svg" width="24" height="24" viewBox="0 0 24 24">
  <path d="M6.00000153,2.00000153 L18.0000015,2.00000153 C20.2091405,2.00000153 22.0000015,3.79086253 22.0000015,6.00000153 L22.0000015,18.0000015 C22.0000015,20.2091405 20.2091405,22.0000015 18.0000015,22.0000015 L6.00000153,22.0000015 C3.79086253,22.0000015 2.00000153,20.2091405 2.00000153,18.0000015 L2.00000153,6.00000153 C2.00000153,3.79086253 3.79086253,2.00000153 6.00000153,2.00000153 Z M11.5384614,21 L14.6153841,21 L14.6153841,13.499054 L16.1538455,13.499054 L16.9230762,10.5000011 L14.6153841,10.5000011 L14.6153841,9.75000114 C14.6153841,9.07592901 14.5200999,8.5855226 15.3846148,8.5855226 L16.9230762,8.5855226 L16.9230762,6.00000153 L15.4007154,6.00000153 C12.6662287,6.00000153 11.5384614,6.89163234 11.5384614,9.00000122 L11.5384614,10.5000011 L10,10.5000011 L10,13.499054 L11.5384614,13.5000008 L11.5384614,21 Z"/>
</svg>
