<svg xmlns="http://www.w3.org/2000/svg" width="24" height="24" viewBox="0 0 24 24">
  <path d="M11,0 C4.92616667,0 0,5.04976187 0,11.2780835 C0,16.2611167 3.1515,20.4885183 7.52308333,21.9800448 C8.07216667,22.0843671 8.25,21.7347465 8.25,21.437757 L8.25,19.3381538 C5.19016667,20.0204778 4.55308333,18.0073399 4.55308333,18.0073399 C4.05258333,16.7037815 3.33116667,16.3569804 3.33116667,16.3569804 C2.33291667,15.6567994 3.40725,15.6718368 3.40725,15.6718368 C4.51183333,15.7507834 5.093,16.8344193 5.093,16.8344193 C6.07383333,18.5580863 7.66608333,18.059971 8.294,17.77144 C8.39208333,17.0430638 8.67716667,16.5449484 8.9925,16.2639362 C6.54958333,15.9772849 3.98108333,15.0101893 3.98108333,10.6897434 C3.98108333,9.45761283 4.411,8.45198372 5.11408333,7.66251788 C5.00041667,7.37774627 4.62366667,6.23020128 5.22133333,4.67758512 C5.22133333,4.67758512 6.14533333,4.37495655 8.24725,5.83358867 C9.1245,5.58359116 10.065,5.4585924 11,5.4538932 C11.935,5.4585924 12.8764167,5.58359116 13.7555,5.83358867 C15.8555833,4.37495655 16.77775,4.67758512 16.77775,4.67758512 C17.3763333,6.23114112 16.9995833,7.37868611 16.8859167,7.66251788 C17.59175,8.45198372 18.018,9.45855267 18.018,10.6897434 C18.018,15.0214673 15.4449167,15.9754052 12.9955833,16.2545378 C13.38975,16.6041584 13.75,17.2902418 13.75,18.3428629 L13.75,21.437757 C13.75,21.737566 13.926,22.0900062 14.48425,21.979105 C18.8521667,20.4856988 22,16.259237 22,11.2780835 C22,5.04976187 17.07475,0 11,0 Z" transform="translate(1 1)"/>
</svg>
