<svg xmlns="http://www.w3.org/2000/svg" width="24" height="24" viewBox="0 0 24 24">
  <path d="M6.6,3 L17.4,3 C19.3882251,3 21,4.6117749 21,6.6 L21,17.4 C21,19.3882251 19.3882251,21 17.4,21 L6.6,21 C4.6117749,21 3,19.3882251 3,17.4 L3,6.6 C3,4.6117749 4.6117749,3 6.6,3 Z M12,17 C14.7614237,17 17,14.7614237 17,12 C17,9.23857625 14.7614237,7 12,7 C9.23857625,7 7,9.23857625 7,12 C7,14.7614237 9.23857625,17 12,17 Z M12,15 C10.3431458,15 9,13.6568542 9,12 C9,10.3431458 10.3431458,9 12,9 C13.6568542,9 15,10.3431458 15,12 C15,13.6568542 13.6568542,15 12,15 Z M18,7 C18.5522847,7 19,6.55228475 19,6 C19,5.44771525 18.5522847,5 18,5 C17.4477153,5 17,5.44771525 17,6 C17,6.55228475 17.4477153,7 18,7 Z"/>
</svg>
