<svg xmlns="http://www.w3.org/2000/svg" width="20" height="20" viewBox="0 0 20 20">
  <path d="M10,20 C4.4771525,20 0,15.5228475 0,10 C0,4.4771525 4.4771525,0 10,0 C15.5228475,0 20,4.4771525 20,10 C20,15.5228475 15.5228475,20 10,20 Z M10,19 C14.9705627,19 19,14.9705627 19,10 C19,5.02943725 14.9705627,1 10,1 C5.02943725,1 1,5.02943725 1,10 C1,14.9705627 5.02943725,19 10,19 Z M7,5 L8,5 C8.55228475,5 9,5.44771525 9,6 L9,14 C9,14.5522847 8.55228475,15 8,15 L7,15 C6.44771525,15 6,14.5522847 6,14 L6,6 C6,5.44771525 6.44771525,5 7,5 Z M12,5 L13,5 C13.5522847,5 14,5.44771525 14,6 L14,14 C14,14.5522847 13.5522847,15 13,15 L12,15 C11.4477153,15 11,14.5522847 11,14 L11,6 C11,5.44771525 11.4477153,5 12,5 Z"/>
</svg>