<svg xmlns="http://www.w3.org/2000/svg" width="20" height="20" viewBox="0 0 20 20">
  <path d="M10,20 C4.4771525,20 0,15.5228475 0,10 C0,4.4771525 4.4771525,0 10,0 C15.5228475,0 20,4.4771525 20,10 C20,15.5228475 15.5228475,20 10,20 Z M10,19 C14.9705627,19 19,14.9705627 19,10 C19,5.02943725 14.9705627,1 10,1 C5.02943725,1 1,5.02943725 1,10 C1,14.9705627 5.02943725,19 10,19 Z M8,6.06752081 C8,5.95055255 8.04100811,5.83728611 8.11588936,5.74742861 C8.2926714,5.53529016 8.60795375,5.50662813 8.8200922,5.68341017 L13.5390672,9.61588936 C13.5622988,9.63524897 13.5837261,9.65667627 13.6030857,9.6799078 C13.7798677,9.89204625 13.7512057,10.2073286 13.5390672,10.3841106 L8.8200922,14.3165898 C8.7302347,14.3914711 8.61696825,14.4324792 8.5,14.4324792 C8.22385763,14.4324792 8,14.2086216 8,13.9324792 L8,6.06752081 Z"/>
</svg>