<svg xmlns="http://www.w3.org/2000/svg" width="22" height="15" viewBox="0 0 22 15">
  <path d="M19.9090909,13 L20,13 L20,2 L2,2 L2,13 L2.71428571,13 L7,8 L10,10 L15,4 L19.9090909,13 Z M1,0 L21,0 C21.5522847,-1.01453063e-16 22,0.44771525 22,1 L22,14 C22,14.5522847 21.5522847,15 21,15 L1,15 C0.44771525,15 6.76353751e-17,14.5522847 0,14 L0,1 C-6.76353751e-17,0.44771525 0.44771525,1.01453063e-16 1,0 Z M5.5,7 C4.67157288,7 4,6.32842712 4,5.5 C4,4.67157288 4.67157288,4 5.5,4 C6.32842712,4 7,4.67157288 7,5.5 C7,6.32842712 6.32842712,7 5.5,7 Z M17.6309156,13 L14.6530039,7.54049519 L10.385928,12.6609862 L7.36517126,10.6471484 L5.34844127,13 L17.6309156,13 Z"/>
</svg>
