<svg xmlns="http://www.w3.org/2000/svg" width="24" height="24" viewBox="0 0 24 24">
  <path d="M16.3200032,19.8121471 C14.6316622,18.5855957 11.6549821,16.3594431 11.6549821,16.3594431 C11.6549821,16.3594431 10.0883083,17.8681949 9.0749703,18.843996 C8.89580287,19.0165462 8.63913504,19.0836962 8.39913395,19.0199462 C8.15829952,18.9553461 7.97579869,18.7683459 7.89663167,18.5303456 C7.26579547,16.6348434 6.05578998,12.9075892 6.05578998,12.9075892 C6.05578998,12.9075892 3.46661156,12.0703382 1.4941026,11.4685375 C1.20826797,11.3809874 1.00993374,11.1200371 0.99993369,10.8191368 C0.99076698,10.5190864 1.17243448,10.2453861 1.45160241,10.139986 C5.84995571,8.47993406 16.6108379,4.36167933 20.1050204,3.04247782 C20.3316881,2.95662772 20.5858559,3.00252777 20.7691901,3.16147795 C20.9525243,3.32042814 21.035858,3.56777842 20.9858577,3.80577869 C20.3266881,6.96353232 18.5700134,15.7499924 17.8458435,19.2213964 C17.7775099,19.5469468 17.5508422,19.8155471 17.2425074,19.9353972 C16.9341727,20.0543974 16.5883378,20.0059473 16.3200032,19.8121471 Z M7.14496159,12.4366886 L8.5441346,17.143994 L8.85496935,14.1630406 C8.85496935,14.1630406 14.2608272,9.18968488 17.3425079,6.35493162 C17.4325083,6.27163153 17.4450083,6.13223137 17.370008,6.03448126 C17.295841,5.93673114 17.1591737,5.91378112 17.0566732,5.98008119 C13.4849904,8.30653387 7.14496159,12.4366886 7.14496159,12.4366886 Z"/>
</svg>
