<svg xmlns="http://www.w3.org/2000/svg" width="24" height="24" viewBox="0 0 24 24">
  <path fill-rule="evenodd" d="M20.7197104,6.00382782 C21.6669912,5.41102123 22.3938521,4.47103857 22.7349782,3.35129279 C21.8480504,3.90156002 20.867969,4.29950888 19.8222864,4.51495017 C18.9878396,3.58182869 17.7952104,3 16.475315,3 C13.94311,3 11.8911055,5.14755164 11.8911055,7.79596996 C11.8911055,8.17196302 11.9291542,8.53835043 12.0078756,8.88827098 C8.19775989,8.68792431 4.81929986,6.78051423 2.55605965,3.87685974 C2.16114063,4.58767875 1.93547262,5.41102123 1.93547262,6.28925321 C1.93547262,7.95240503 2.74499101,9.42069912 3.97566887,10.2824642 C3.22387951,10.257764 2.51669895,10.0395782 1.89742395,9.68279648 L1.89742395,9.74180269 C1.89742395,12.066373 3.47710001,14.0053445 5.57764934,14.4444605 C5.19191448,14.556984 4.7878113,14.6132457 4.36796384,14.6132457 C4.0727586,14.6132457 3.78411347,14.5844287 3.50596453,14.528167 C4.08850288,16.4328326 5.78232497,17.8215369 7.78972064,17.8585873 C6.21922874,19.1457461 4.24200961,19.9114546 2.09422744,19.9114546 C1.72423687,19.9114546 1.35818236,19.890871 1,19.8455872 C3.02970006,21.2054745 5.43988689,22 8.02982091,22 C16.4661308,22 21.0765807,14.6914632 21.0765807,8.35309837 C21.0765807,8.14451827 21.0739567,7.93731041 21.0647725,7.73284703 C21.9608844,7.05633396 22.7402263,6.21103568 23.3529412,5.24909721 C22.5303026,5.63057923 21.6459988,5.88855987 20.7197104,6.00382782 Z"/>
</svg>
