<svg xmlns="http://www.w3.org/2000/svg" width="24" height="24" viewBox="0 0 24 24">
  <path fill="#000" d="M11,15.5 C6.85786438,15.5 3.5,12.1421356 3.5,8 C3.5,3.85786438 6.85786438,0.5 11,0.5 C15.1421356,0.5 18.5,3.85786438 18.5,8 C18.5,12.1421356 15.1421356,15.5 11,15.5 Z M11,12.5 C13.4852814,12.5 15.5,10.4852814 15.5,8 C15.5,5.51471863 13.4852814,3.5 11,3.5 C8.51471863,3.5 6.5,5.51471863 6.5,8 C6.5,10.4852814 8.51471863,12.5 11,12.5 Z M2.9602766,23.1523319 C2.32386125,23.682678 1.3780142,23.5966919 0.847668081,22.9602766 C0.317321959,22.3238613 0.403308055,21.3780142 1.0397234,20.8476681 C3.72043734,18.6137398 7.06165674,17.5 11,17.5 C14.9383433,17.5 18.2795627,18.6137398 20.9602766,20.8476681 C21.5966919,21.3780142 21.682678,22.3238613 21.1523319,22.9602766 C20.6219858,23.5966919 19.6761387,23.682678 19.0397234,23.1523319 C16.9204373,21.3862602 14.2616567,20.5 11,20.5 C7.73834326,20.5 5.07956266,21.3862602 2.9602766,23.1523319 Z" transform="translate(1)"/>
</svg>
