<svg xmlns="http://www.w3.org/2000/svg" width="24" height="24" viewBox="0 0 24 24">
  <path fill-rule="evenodd" d="M13.176996,17.9498438 C13.176996,17.9498438 13.6101433,17.9076637 13.8319992,17.6988205 C14.0350737,17.5074667 14.0280307,17.1463634 14.0280307,17.1463634 C14.0280307,17.1463634 14.0010323,15.4601863 14.8943253,15.2112206 C15.7747059,14.9663699 16.9051147,16.8418434 18.1047801,17.563021 C19.0109853,18.1082766 19.698856,17.9889376 19.698856,17.9889376 L22.9046155,17.9498438 C22.9046155,17.9498438 24.5808603,17.8593108 23.7861701,16.7039863 C23.720435,16.6093381 23.3225029,15.8490667 21.403273,14.2873724 C19.3924836,12.6526345 19.662467,12.917032 22.0829269,10.0889045 C23.5572711,8.36671992 24.1465392,7.31530257 23.9622462,6.86572392 C23.7873439,6.43569216 22.7027149,6.5498872 22.7027149,6.5498872 L19.094328,6.56943409 C19.094328,6.56943409 18.8266923,6.53754179 18.6283131,6.64144898 C18.4346294,6.74329861 18.3090284,6.98094773 18.3090284,6.98094773 C18.3090284,6.98094773 17.7385417,8.31322315 16.976719,9.44694323 C15.3697308,11.8378375 14.7276398,11.9643779 14.4646995,11.816233 C13.8531284,11.4695328 14.0057277,10.4253169 14.0057277,9.68356357 C14.0057277,7.36571299 14.4071813,6.39968472 13.2251235,6.14969018 C12.8330606,6.06635867 12.5442958,6.01183311 11.5406618,6.00257405 C10.2529583,5.99125743 9.16363399,6.00668919 8.54619367,6.2710867 C8.13534936,6.44700879 7.81841232,6.84000431 8.01209607,6.86263756 C8.25038577,6.89041473 8.79035258,6.99020679 9.07676976,7.33176311 C9.44652964,7.77311149 9.43361739,8.7628018 9.43361739,8.7628018 C9.43361739,8.7628018 9.6460826,11.4911372 8.93708269,11.8296072 C8.45111256,12.0621124 7.78437093,11.5878429 6.35111119,9.41813727 C5.61746063,8.30705044 5.06340773,7.07868222 5.06340773,7.07868222 C5.06340773,7.07868222 4.95658821,6.84926337 4.76525214,6.72580928 C4.53400548,6.57663558 4.21119924,6.5303403 4.21119924,6.5303403 L0.782409974,6.5498872 C0.782409974,6.5498872 0.26709382,6.56223261 0.0781054355,6.75873037 C-0.0897538129,6.93259488 0.0651931857,7.2936981 0.0651931857,7.2936981 C0.0651931857,7.2936981 2.74976732,12.7987218 5.79001525,15.5733526 C8.57788738,18.1165069 11.7425624,17.9498438 11.7425624,17.9498438 L13.176996,17.9498438 Z"/>
</svg>
