<svg xmlns="http://www.w3.org/2000/svg" width="24" height="24" viewBox="0 0 24 24">
  <path d="M23.4998409,6.49818182 C24,8.28 24,12 24,12 C24,12 24,15.72 23.4998409,17.5018182 C23.2211263,18.4872727 22.4078906,19.2618182 21.3770283,19.5236364 C19.5062043,20 12,20 12,20 C12,20 4.49761374,20 2.62297168,19.5236364 C1.58829144,19.2581818 0.775055679,18.4836364 0.500159084,17.5018182 C0,15.72 0,12 0,12 C0,12 0,8.28 0.500159084,6.49818182 C0.778873688,5.51272727 1.59210945,4.73818182 2.62297168,4.47636364 C4.49761374,4 12,4 12,4 C12,4 19.5062043,4 21.3770283,4.47636364 C22.4117086,4.74181818 23.2249443,5.51636364 23.4998409,6.49818182 Z M10,16 L16,12 L10,8 L10,16 Z"/>
</svg>
