<svg xmlns="http://www.w3.org/2000/svg" width="177" height="177" viewBox="0 0 177 177">
  <g fill="none">
    <circle cx="88.5" cy="88.5" r="88.5" fill="#F3F6F7"/>
    <g transform="translate(33 50)">
      <rect width="109" height="73" x="1" y="1" fill="#FFF" stroke="#07C39F" stroke-width="2" rx="4"/>
      <rect width="101" height="2" x="5" y="65" fill="#07C39F" rx="1"/>
      <circle cx="11" cy="66" r="3" fill="#07C39F"/>
      <circle cx="55.5" cy="35.5" r="16.5" fill="#07C39F"/>
      <path fill="#FFF" d="M48.1184159,30.7072325 L58.8601421,29.1417817 C59.4066537,29.0621356 59.9142549,29.4406048 59.993901,29.9871164 C60.0085663,30.0877458 60.0077964,30.1900234 59.991618,30.2904206 L58.2643506,41.0091701 C58.1764865,41.5544208 57.6632455,41.9252059 57.1179948,41.8373417 C56.9078348,41.8034756 56.7139651,41.703429 56.5645971,41.5517605 L47.5501383,32.3984618 C47.1626097,32.0049646 47.1674483,31.3718181 47.5609455,30.9842895 C47.7125581,30.8349766 47.9078476,30.7379198 48.1184159,30.7072325 Z" transform="rotate(45 53.633 35.49)"/>
    </g>
  </g>
</svg>
