<svg xmlns="http://www.w3.org/2000/svg" width="177" height="177" viewBox="0 0 177 177">
  <g fill="none" fill-rule="evenodd">
    <circle cx="88.5" cy="88.5" r="88.5" fill="#F3F6F7" fill-rule="nonzero"/>
    <g transform="translate(45 41)">
      <rect width="63" height="78" x="1" y="1" fill="#FFF" fill-rule="nonzero" stroke="#07C39F" stroke-width="2"/>
      <rect width="55" height="71" x="4.5" y="4.5" fill="#FFF" fill-rule="nonzero" stroke="#07C39F"/>
      <rect width="34" height="2" x="15" y="14" fill="#07C39F" fill-rule="nonzero"/>
      <rect width="34" height="2" x="15" y="21" fill="#07C39F" fill-rule="nonzero"/>
      <rect width="34" height="2" x="15" y="27" fill="#07C39F" fill-rule="nonzero"/>
      <rect width="34" height="2" x="15" y="34" fill="#07C39F" fill-rule="nonzero"/>
      <g transform="translate(26 36)">
        <path fill="#FFF" fill-rule="nonzero" stroke="#07C39F" stroke-width="2" d="M15.28,19.6666621 C14.7277153,19.6666621 14.28,20.1143774 14.28,20.6666621 L14.28,53.9185267 C14.28,54.3369861 14.5405494,54.7111937 14.9330113,54.8563948 C24.3483619,58.3398821 33.7557746,60.0801574 43.1599999,60.0801574 C52.564229,60.0801574 61.9716454,58.3398807 71.3869997,54.8563907 C71.779466,54.7111861 72.0400204,54.3369709 72.0400206,53.918505 L72.0400201,20.666661 C72.0400201,20.1143763 71.5923049,19.666661 71.0400201,19.666661 L15.28,19.6666621 Z"/>
        <path fill="#07C39F" fill-rule="nonzero" stroke="#07C39F" stroke-width="2" d="M2,26.3529412 L2.42666667,26.3529412 C3.53123617,26.3529412 4.42666667,27.2483717 4.42666667,28.3529412 L4.42666667,49.4117647 C3.68887313,48.5101025 2.95109142,48.0592714 2.21332155,48.0592714 C1.47555168,48.0592714 0.737777828,48.5101025 3.40172335e-13,49.4117647 L3.40172335e-13,28.3529412 C3.40037064e-13,27.2483717 0.8954305,26.3529412 2,26.3529412 Z"/>
        <path stroke="#33B99B" d="M0 5.53567802L8.42515394 0M0 12.2394964L8.42515394 6.70381837M0 18.9433148L8.42515394 13.4076367M0 24.8091558L8.42515394 19.2734778M0 31.5129742L8.42515394 25.9772962" transform="matrix(-1 0 0 1 71.505 20.863)"/>
        <path fill="#FFF" fill-rule="nonzero" stroke="#07C39F" stroke-width="2" d="M42.2769651,1.03540113 C42.1319385,0.988199624 41.974727,0.988199624 41.8297005,1.03540113 L2.57845375,13.8104249 C2.37906241,13.8753204 2.22245576,14.0226785 2.1502487,14.2094563 C2.019864,14.546722 2.19370275,14.9265458 2.5498503,15.0593853 L41.801097,29.6997132 C41.963335,29.7602263 42.1433305,29.7602263 42.3055685,29.6997132 L81.5568152,15.0593853 C81.7526634,14.9863359 81.9021826,14.833024 81.9659768,14.6439133 C82.0814907,14.3014858 81.8907352,13.9284147 81.5282118,13.8104249 L42.2769651,1.03540113 Z"/>
        <g stroke="#33B99B" transform="scale(-1 1) rotate(-68 -22.75 62.966)">
          <path d="M1.8189894e-12 6.67423348L5.8179744 0M2.72848411e-12 13.2624688L5.8179744 6.58823529M2.27373675e-12 19.8507041L5.8179744 13.1764706M0 25.61541L5.8179744 18.9411765" transform="matrix(-1 0 0 1 5.818 0)"/>
          <path d="M1.8189894e-12,32.6587089 L6.93847848,25.5294118" transform="matrix(-1 0 0 1 6.938 0)"/>
        </g>
        <path stroke="#07C39F" stroke-width="2" d="M2.21333333,14.2745098 L2.21333333,28.5490196"/>
      </g>
    </g>
  </g>
</svg>
