<svg xmlns="http://www.w3.org/2000/svg" width="177" height="177" viewBox="0 0 177 177">
  <g fill="none" fill-rule="evenodd">
    <circle cx="88.5" cy="88.5" r="88.5" fill="#F3F6F7" fill-rule="nonzero"/>
    <g fill="#FFF" transform="translate(28 57)">
      <path stroke="#33B99B" stroke-width="2" d="M115 58L9 58 9 60.1209991C9 61.1592969 9.87185682 62 10.9476837 62L113.052316 62C114.128143 62 115 61.1592969 115 60.1209991L115 58zM105.892168 0L18.1078316 0C16.3919276 0 15 1.36312201 15 3.04522374L15 58 109 58 109 3.04522374C109 1.36312201 107.608853 0 105.892168 0z"/>
      <path stroke="#33B99B" d="M102.003269,3.5 L21.9975033,3.5 C20.3423501,3.5 19,4.81896116 19,6.44527517 L19,57.5 L105,57.5 L105,6.44527517 C105,4.81896116 103.658422,3.5 102.003269,3.5"/>
      <path d="M65,53 L9.27952999,53 C4.15507112,53 0,48.9706752 0,44.0003749 C0,39.0293248 4.15507112,35 9.27952999,35 L65,35 C65,35 61.4571738,38.1640771 61.4571738,44.0003749 C61.4571738,49.8351731 65,53 65,53"/>
      <path stroke="#33B99B" stroke-width="2" d="M65,51 L9.27952999,51 C4.15507112,51 0,47.1945266 0,42.5003541 C0,37.8054734 4.15507112,34 9.27952999,34 L65,34 C65,34 61.4571738,36.9882951 61.4571738,42.5003541 C61.4571738,48.0109968 65,51 65,51 Z"/>
      <path d="M63,28 L4.32098983,28 C3.03930642,28 2,26.9933766 2,25.7510814 L2,19.2489186 C2,18.0073669 3.03930642,17 4.32098983,17 L63,17 C63,17 58.8619497,17 58.8619497,22.5 C58.8619497,28 63,28 63,28"/>
      <path stroke="#33B99B" stroke-width="2" d="M63,27 L4.32098983,27 C3.03930642,27 2,25.9933766 2,24.7510814 L2,18.2489186 C2,17.0073669 3.03930642,16 4.32098983,16 L63,16 C63,16 58.8619497,16 58.8619497,21.5 C58.8619497,27 63,27 63,27 Z"/>
      <path stroke="#33B99B" d="M52.3135348,6.94781111 L2.80308551,6.94781111 C1.52033188,6.94781111 0.479534783,5.8947 0.479534783,4.59503333 L0.479534783,2.70814444 C0.479534783,1.40847778 1.52033188,0.354588889 2.80308551,0.354588889 L52.3135348,0.354588889" transform="translate(4 18)"/>
      <path d="M71,63 L4.33213819,63 C3.0442985,63 2,61.9933766 2,60.7510814 L2,54.2489186 C2,53.0073669 3.0442985,52 4.33213819,52 L71,52 C71,52 66.8420735,52 66.8420735,57.5 C66.8420735,63 71,63 71,63"/>
      <path stroke="#33B99B" stroke-width="2" d="M71,62 L4.33213819,62 C3.0442985,62 2,60.9933766 2,59.7510814 L2,53.2489186 C2,52.0073669 3.0442985,51 4.33213819,51 L71,51 C71,51 66.8420735,51 66.8420735,56.5 C66.8420735,62 71,62 71,62 Z"/>
      <g transform="translate(4 53)">
        <path d="M60.3099278,7.87602222 L2.81781392,7.87602222 C1.52832025,7.87602222 0.48205443,6.82213333 0.48205443,5.52246667 L0.48205443,3.63557778 C0.48205443,2.33591111 1.52832025,1.2828 2.81781392,1.2828 L60.3099278,1.2828"/>
        <path stroke="#33B99B" d="M60.3099278,6.5 L2.81781392,6.5 C1.52832025,6.5 0.48205443,5.54093429 0.48205443,4.35820455 L0.48205443,2.64108765 C0.48205443,1.45835791 1.52832025,0.5 2.81781392,0.5 L60.3099278,0.5"/>
      </g>
      <path d="M69,34 L2.9072514,34 C1.30136313,34 0,32.6571201 0,31 C0,29.3436754 1.30136313,28 2.9072514,28 L69,28 L69,34 Z"/>
      <path stroke="#33B99B" stroke-width="2" d="M69,34 L2.9072514,34 C1.30136313,34 0,32.4333068 0,30.5 C0,28.5676213 1.30136313,27 2.9072514,27 L69,27 C68.3333333,28.1666667 68,29.3333333 68,30.5 C68,31.6666667 68.3333333,32.8333333 69,34 Z"/>
      <path d="M66.6147885,0.8636 L0.593604598,0.8636" transform="translate(2 31)"/>
      <path stroke="#33B99B" stroke-width="2" d="M54.2898803,9 L6.30973944,9 C2.98030282,9 0.28065493,6.98560966 0.28065493,4.5 C0.28065493,2.01496852 2.98030282,0 6.30973944,0 L54.2898803,0" transform="translate(4 38)"/>
      <path stroke="#33B99B" d="M9.5,39.9456722 L12.5501978,37.4530203 L15.5,39.9278449 L15.5,30.5 L9.5,30.5 L9.5,39.9456722 Z"/>
      <g transform="translate(3 29)">
        <path d="M5.99984658,28.6018 L61.3140384,28.6018"/>
        <path stroke="#33B99B" d="M4 27.5L59.3141918 27.5M8 13.5L52.5 13.5M.5 1.5L61.5 1.5"/>
      </g>
    </g>
  </g>
</svg>
