<?xml version="1.0" encoding="UTF-8"?>
<svg width="92px" height="70px" viewBox="0 0 92 70" version="1.1" xmlns="http://www.w3.org/2000/svg" xmlns:xlink="http://www.w3.org/1999/xlink">
    <!-- Generator: Sketch 48.1 (47250) - http://www.bohemiancoding.com/sketch -->
    <title>csclub</title>
    <desc>Created with Sketch.</desc>
    <defs></defs>
    <g id="redisign-1.1-copy-10" stroke="none" stroke-width="1" fill="none" fill-rule="evenodd" transform="translate(-1229.000000, -1288.000000)">
        <g id="Page-1" transform="translate(1230.000000, 1302.000000)">
            <path d="M53.335125,24.0231283 L55.1889643,24.0231283 L57.6527143,24.0231283 C57.5980714,24.4510528 57.5828036,24.8837321 57.6085179,25.3148264 L57.3979821,25.3148264 C57.3987857,25.2926377 57.3987857,25.2712415 57.3979821,25.2490528 C57.4164643,25.0232038 57.4164643,24.7965623 57.3979821,24.5699208 C57.1633393,24.4803736 56.9158393,24.4288642 56.665125,24.4169774 L55.9547679,24.4169774 L55.0997679,24.4169774 L55.0997679,26.6936943 L55.9435179,26.6936943 L56.5984286,26.6936943 C56.7012857,26.707166 56.80575,26.707166 56.9094107,26.6936943 C56.9447679,26.6667509 56.9680714,26.6279208 56.9761071,26.5843358 C56.9841429,26.4932038 56.9841429,26.4012792 56.9761071,26.3109396 L56.9761071,26.0478453 L57.1753929,26.0478453 L57.1753929,26.9567887 L57.1753929,27.8982226 L56.9761071,27.8982226 L56.9761071,27.6462226 C56.9825357,27.5297321 56.9825357,27.4124491 56.9761071,27.2959585 C56.9624464,27.2555434 56.9343214,27.2206755 56.8981607,27.1976943 C56.800125,27.1572792 56.6940536,27.1342981 56.5871786,27.1319208 L55.8880714,27.1319208 L55.1439643,27.1319208 L55.1439643,28.2920717 L55.1439643,29.5726755 L55.9210179,29.5726755 L57.2091429,29.5726755 C57.3770893,29.556034 57.5410179,29.5156189 57.6977143,29.4522226 C57.7459286,29.3048264 57.7869107,29.1550528 57.8198571,29.0036943 C57.8745,28.773883 57.90825,28.6201472 57.9195,28.5654679 L58.1195893,28.5654679 C58.0818214,28.7722981 58.0561071,28.9807132 58.0416429,29.1899208 L58.0416429,29.9554302 L55.9322679,29.9554302 L54.8225357,29.9554302 L53.9900357,29.9554302 L53.9900357,29.8135811 L54.2785179,29.6606377 C54.3259286,29.4189396 54.3452143,29.1724868 54.3339643,28.9268264 L54.3339643,27.8324491 L54.3339643,25.3148264 L54.3339643,24.8108264 C54.342,24.7196943 54.342,24.6285623 54.3339643,24.5374302 C54.3411964,24.4978075 54.3411964,24.4566 54.3339643,24.4169774 L54.2455714,24.3622981 L54.0342321,24.3622981 L53.7128036,24.3622981 L53.7128036,24.0231283 L53.335125,24.0231283 Z M50.1497679,24.0231283 L50.6825357,24.0231283 L51.3591429,24.0231283 L52.5693214,24.0231283 L52.5693214,24.2307509 L52.1136964,24.2307509 C52.0325357,24.2355057 51.9529821,24.2576943 51.8806607,24.2965245 C51.8179821,24.3527887 51.7810179,24.432034 51.7810179,24.516034 C51.7705714,24.6721472 51.7705714,24.8298453 51.7810179,24.9859585 L51.7810179,28.6859208 C51.7697679,28.8903736 51.7697679,29.0948264 51.7810179,29.2992792 C51.7818214,29.3650528 51.8011071,29.4292415 51.8364643,29.4855057 C51.8790536,29.5251283 51.9336964,29.5520717 51.9923571,29.5615811 C52.1803929,29.5774302 52.3700357,29.5774302 52.5580714,29.5615811 L52.5580714,29.7692038 L51.8139643,29.7692038 L51.3478929,29.7692038 L50.1385179,29.7692038 L50.1385179,29.5615811 L50.6600357,29.5615811 C50.7235179,29.5544491 50.7845893,29.5322604 50.837625,29.4958075 C50.8786071,29.4498453 50.9059286,29.3927887 50.9155714,29.3317698 C50.9292321,29.1392038 50.9292321,28.9450528 50.9155714,28.7516943 L50.9155714,25.2157698 C50.9260179,25.0121094 50.9260179,24.8076566 50.9155714,24.6032038 C50.9147679,24.5374302 50.8954821,24.4724491 50.8593214,24.4169774 C50.8167321,24.3765623 50.7628929,24.3504113 50.7042321,24.3401094 C50.5161964,24.3258453 50.3265536,24.3258453 50.1385179,24.3401094 L50.1385179,24.0231283 L50.1497679,24.0231283 Z M49.4506607,29.211317 L49.2947679,29.5948642 C48.6768214,29.9062981 47.991375,30.0679585 47.2970893,30.0655811 C46.3914643,30.1036189 45.505125,29.7985245 44.8212857,29.211317 C44.1977143,28.6518453 43.8497679,27.8538453 43.8666429,27.0225623 C43.8296786,26.4274302 43.9767321,25.8362604 44.2885179,25.3259208 C44.5898571,24.8480717 45.0261964,24.4676943 45.5428929,24.2307509 C46.0949464,23.9898453 46.6936071,23.8701849 47.2970893,23.8804868 C47.6699464,23.8820717 48.042,23.9232792 48.4068214,24.0009396 C48.7194107,24.0659208 49.0239643,24.1610151 49.3172679,24.2862226 C49.2152143,24.6610528 49.15575,25.0469774 49.1396786,25.4352792 L48.9395893,25.4352792 L48.9395893,24.7236566 C48.7161964,24.5556566 48.4646786,24.4296566 48.1954821,24.3512038 C47.901375,24.2624491 47.5936071,24.2180717 47.2858393,24.2204491 C46.8406607,24.2141094 46.4019107,24.3195057 46.0089643,24.5263358 C45.6345,24.7252415 45.3299464,25.0303358 45.1322679,25.4019962 C44.9128929,25.8370528 44.8060179,26.3180717 44.8212857,26.8030528 C44.8116429,27.3118075 44.9378036,27.8142226 45.1877143,28.2595811 C45.4223571,28.6669019 45.7678929,29.0005245 46.1865536,29.2224113 C46.6461964,29.4561849 47.1580714,29.5726755 47.6739643,29.5615811 C47.9166429,29.5607887 48.1585179,29.5354302 48.3955714,29.4855057 C48.5940536,29.4482604 48.7877143,29.3888264 48.9725357,29.3095811 C49.1292321,29.2406377 49.2778929,29.1566377 49.4169107,29.0583736 L49.4948571,29.1455434 L49.4506607,29.211317 Z M39.1384286,28.4782981 L39.3497679,28.4782981 C39.3497679,28.6978075 39.36825,28.9181094 39.4052143,29.1352415 C39.452625,29.2414302 39.5345893,29.3301849 39.63825,29.3864491 C39.7941429,29.487883 39.9669107,29.5623736 40.1485179,29.605166 C40.35825,29.6622226 40.5752143,29.6915434 40.7921786,29.6931283 C41.0678036,29.6962981 41.3402143,29.640034 41.5917321,29.5290906 C41.8215536,29.4268642 42.0152143,29.2588642 42.1461964,29.0472792 C42.2795893,28.8372792 42.3486964,28.5947887 42.3462857,28.3467509 C42.3503036,28.1811283 42.3165536,28.0162981 42.2466429,27.8649396 C42.1887857,27.7341849 42.0971786,27.6208642 41.9798571,27.5368642 C41.8633393,27.4512792 41.7315536,27.3886755 41.5917321,27.3506377 C41.3755714,27.2959585 41.157,27.2523736 40.9368214,27.2190906 L40.2819107,27.0986377 C40.1171786,27.0613925 39.9572679,27.0067132 39.8045893,26.9346 C39.6535179,26.8664491 39.5177143,26.7697698 39.4052143,26.6501094 C39.2927143,26.5249019 39.2059286,26.379883 39.1496786,26.2229774 C39.0845893,26.0518075 39.0508393,25.8703358 39.0500357,25.6872792 C39.0347679,25.2054679 39.23325,24.741883 39.59325,24.4169774 C40.0006607,24.0675057 40.5302143,23.8868264 41.0694107,23.9137698 C41.3386071,23.9153547 41.6061964,23.9446755 41.8689643,24.0009396 C42.1421786,24.0556189 42.4065536,24.1435811 42.6572679,24.264034 C42.5849464,24.6246 42.5471786,24.9907132 42.546375,25.3584113 L42.3237857,25.3584113 L42.3237857,24.7339585 C42.3237857,24.657883 42.1911964,24.5374302 41.9356607,24.4169774 C41.6897679,24.2870151 41.41575,24.2196566 41.1361071,24.2204491 C40.9070893,24.2196566 40.6796786,24.2679962 40.47075,24.3622981 C40.2634286,24.4534302 40.0954821,24.6119208 39.992625,24.8108264 C39.8905714,25.0033925 39.8375357,25.2173547 39.8375357,25.4352792 C39.835125,25.5866377 39.8696786,25.7372038 39.9379821,25.8727132 C39.9974464,25.9899962 40.0850357,26.0914302 40.1935179,26.1682981 C40.3003929,26.2435811 40.4209286,26.2990528 40.5478929,26.3331283 C40.6812857,26.3331283 40.9368214,26.4092038 41.292,26.463883 C41.6712857,26.4995434 42.0449464,26.5843358 42.4017321,26.715883 C42.6275357,26.8141472 42.8171786,26.9781849 42.94575,27.1866 C43.086375,27.4219585 43.1554821,27.6906 43.1450357,27.9639962 C43.1659286,28.5630906 42.8886964,29.136034 42.4017321,29.4958075 C41.9003036,29.8959962 41.2703036,30.1059962 40.6258393,30.0869774 C40.0986964,30.0988642 39.5747679,29.9942604 39.0942321,29.7810906 C39.0942321,29.605166 39.0942321,29.2002226 39.1609286,28.5543736 L39.1384286,28.4782981 Z M83.8483393,13.9193547 L85.0472679,13.9193547 L86.3345893,13.9193547 L86.7677143,13.9193547 C87.2803929,13.8615057 87.7962857,13.9986 88.2109286,14.3029019 C88.4560179,14.5430151 88.5918214,14.8702981 88.5886071,15.2110528 C88.5853929,15.4535434 88.5211071,15.6904868 88.3997679,15.9004868 C88.2687857,16.1350528 88.0823571,16.3339585 87.8549464,16.4805623 C87.5495893,16.6652038 87.2104821,16.788034 86.8561071,16.8419208 L87.2779821,17.4006 L87.8774464,18.1779962 L88.4994107,18.9989774 C88.6223571,19.1804491 88.7678036,19.3452792 88.9317321,19.4910906 C88.9831607,19.5219962 89.0402143,19.5441849 89.098875,19.5568642 L89.3206607,19.5568642 L89.3206607,19.7541849 L88.8433393,19.7541849 L88.1884286,19.7541849 C87.996375,19.5204113 87.6886071,19.1154679 87.2675357,18.5393547 C86.8456607,17.9624491 86.3498571,17.3459208 85.7793214,16.6889774 L85.7793214,16.5574302 L86.1240536,16.5574302 C86.5242321,16.5716943 86.916375,16.4480717 87.2337857,16.207166 C87.5134286,15.9654679 87.6653036,15.6104491 87.6444107,15.2443358 C87.6669107,14.9249774 87.5303036,14.6143358 87.2779821,14.4122604 C86.9862857,14.2109774 86.635125,14.1111283 86.2791429,14.1277698 C85.9970893,14.1253925 85.7166429,14.1666 85.4466429,14.2482226 C85.3743214,14.7664868 85.352625,15.2902981 85.3799464,15.813317 L85.3799464,18.5496566 C85.3695,18.7541094 85.3695,18.9585623 85.3799464,19.1630151 C85.3855714,19.2295811 85.408875,19.2937698 85.4466429,19.3492415 C85.4900357,19.3888642 85.543875,19.4158075 85.6025357,19.425317 C85.7865536,19.441166 85.9729821,19.441166 86.157,19.425317 L86.157,19.6337321 L85.4136964,19.6337321 L84.947625,19.6337321 L83.7374464,19.6337321 L83.7374464,19.425317 L84.2589643,19.425317 C84.32325,19.4189774 84.3843214,19.3967887 84.4365536,19.3595434 C84.4783393,19.3135811 84.5056607,19.2565245 84.5145,19.1955057 C84.5297679,19.0029396 84.5297679,18.8087887 84.5145,18.6154302 L84.5145,15.0913925 L84.5145,14.478034 C84.5136964,14.4122604 84.4944107,14.3480717 84.4590536,14.2918075 C84.4156607,14.2513925 84.3618214,14.2252415 84.3039643,14.2157321 C84.115125,14.2006755 83.9254821,14.2006755 83.7374464,14.2157321 L83.7374464,14.007317 L83.8483393,13.9193547 Z M78.4869107,13.9193547 L80.34075,13.9193547 L82.8053036,13.9193547 C82.7153036,14.3306377 82.663875,14.7474679 82.6494107,15.1674679 L82.438875,15.1674679 L82.438875,15.1016943 C82.4581607,14.8758453 82.4581607,14.6492038 82.438875,14.4233547 C82.2042321,14.3330151 81.9575357,14.2815057 81.7060179,14.2696189 L80.9956607,14.2696189 L80.1406607,14.2696189 L80.1406607,16.5796189 L80.9844107,16.5796189 L81.6393214,16.5796189 C81.7429821,16.5930906 81.8474464,16.5930906 81.9503036,16.5796189 C81.9856607,16.5526755 82.0097679,16.5130528 82.017,16.4702604 C82.0250357,16.3791283 82.0250357,16.2872038 82.017,16.1968642 L82.017,15.9337698 L82.2162857,15.9337698 L82.2162857,16.8419208 L82.2162857,17.7833547 L82.02825,17.7833547 L82.02825,17.5321472 C82.0346786,17.4156566 82.0346786,17.2983736 82.02825,17.181883 C82.0145893,17.1406755 81.9872679,17.1058075 81.9503036,17.0828264 C81.8514643,17.0424113 81.7461964,17.0202226 81.6393214,17.0178453 L80.9402143,17.0178453 L80.1969107,17.0178453 L80.1969107,18.1779962 L80.1969107,19.4689019 L80.9739643,19.4689019 L82.2612857,19.4689019 C82.4292321,19.4530528 82.5939643,19.4126377 82.7490536,19.3492415 C82.798875,19.2018453 82.8390536,19.0520717 82.872,18.8999208 C82.9274464,18.6701094 82.9603929,18.517166 82.9716429,18.4624868 L83.1709286,18.4624868 C83.1339643,18.6685245 83.10825,18.8769396 83.0937857,19.0861472 L83.0937857,19.8524491 L80.9844107,19.8524491 L79.8746786,19.8524491 L79.0421786,19.8524491 L79.0421786,19.6448264 L79.3306607,19.4910906 C79.378875,19.2501849 79.3973571,19.0037321 79.3861071,18.7580717 L79.3861071,17.6636943 L79.3861071,15.1896566 L79.3861071,14.6856566 C79.3949464,14.595317 79.3949464,14.5033925 79.3861071,14.4122604 C79.3941429,14.3726377 79.3941429,14.3314302 79.3861071,14.2918075 L79.2977143,14.2371283 L79.086375,14.2371283 L78.7649464,14.2371283 L78.7649464,14.0295057 L78.4869107,13.9193547 Z M77.7548571,13.9193547 L77.7548571,15.2221472 L77.5885179,15.2221472 L77.5885179,14.8393925 C77.5949464,14.7149774 77.5949464,14.5913547 77.5885179,14.4669396 C77.5780714,14.427317 77.5547679,14.3924491 77.5218214,14.3686755 C77.4294107,14.3512415 77.3361964,14.3512415 77.2437857,14.3686755 L76.7222679,14.3686755 L75.9235179,14.3686755 L75.9235179,15.4630528 L75.9235179,18.7469774 L75.9235179,19.3595434 C75.925125,19.425317 75.9444107,19.4895057 75.9789643,19.5457698 C76.0223571,19.5846 76.0761964,19.6115434 76.1340536,19.6226377 C76.3220893,19.6384868 76.5117321,19.6384868 76.7005714,19.6226377 L76.7005714,19.8302604 L75.4903929,19.8302604 L74.2914643,19.8302604 L74.2914643,19.6226377 L74.8137857,19.6226377 C74.8772679,19.6155057 74.9383393,19.593317 74.9905714,19.5568642 C75.0315536,19.5101094 75.0580714,19.4530528 75.0685179,19.3928264 C75.0853929,19.2002604 75.0853929,19.005317 75.0685179,18.8127509 L75.0685179,15.5288264 L75.0685179,14.4336566 L74.2585179,14.4336566 L73.5923571,14.4336566 C73.4035179,14.4336566 73.292625,14.4336566 73.270125,14.5216189 C73.2203036,14.6658453 73.1945893,14.8179962 73.1921786,14.9701472 L73.1479821,15.2657321 L72.9486964,15.2657321 L72.9486964,13.9637321 L75.39075,13.9637321 L77.8440536,13.9637321 L77.7548571,13.9193547 Z M65.8443214,13.9193547 L67.0545,13.9193547 L68.2646786,13.9193547 L68.2646786,14.1713547 L67.8090536,14.1713547 C67.7278929,14.1761094 67.6483393,14.1990906 67.5760179,14.2371283 C67.5133393,14.2926 67.476375,14.3726377 67.476375,14.4558453 C67.4667321,14.6127509 67.4667321,14.7696566 67.476375,14.9265623 L67.476375,17.2032792 L67.476375,18.1669019 C67.4892321,18.3436189 67.5310179,18.517166 67.5985179,18.6812038 C67.6603929,18.8222604 67.7552143,18.945883 67.87575,19.0425623 C68.0340536,19.1614302 68.2156607,19.2470151 68.4085179,19.2945623 C68.6656607,19.3627132 68.9308393,19.3959962 69.1968214,19.3928264 C69.490125,19.3936189 69.782625,19.3492415 70.0622679,19.2612792 C70.2969107,19.1955057 70.50825,19.0663358 70.6729821,18.8888264 C70.8224464,18.7065623 70.918875,18.4870528 70.9502143,18.2540717 C71.0008393,17.8919208 71.0233393,17.5258075 71.0169107,17.1596943 L71.0169107,15.9004868 L71.0169107,15.0034302 C71.042625,14.7847132 71.042625,14.5644113 71.0169107,14.3464868 C70.9879821,14.2862604 70.93575,14.2395057 70.8730714,14.2157321 C70.6737857,14.1903736 70.4720893,14.1903736 70.2736071,14.2157321 L70.2736071,14.0184113 L71.2724464,14.0184113 L72.2712857,14.0184113 L72.2712857,14.1713547 L71.7497679,14.1713547 C71.6895,14.1792792 71.6324464,14.2014679 71.582625,14.2371283 C71.548875,14.2775434 71.5255714,14.3266755 71.5167321,14.3797698 C71.503875,14.562034 71.503875,14.7442981 71.5167321,14.9265623 L71.5167321,17.1161094 C71.5231607,17.5147132 71.5046786,17.913317 71.4612857,18.3095434 C71.4339643,18.567883 71.3423571,18.8159208 71.1945,19.0314679 C71.0611071,19.215317 70.896375,19.3746 70.7067321,19.5021849 C70.48575,19.6424491 70.2414643,19.7422981 69.985125,19.7977698 C69.6861964,19.8643358 69.3808393,19.8976189 69.0746786,19.896034 C68.7219107,19.8999962 68.37075,19.8556189 68.0316429,19.7644868 C67.7736964,19.7002981 67.5318214,19.5846 67.3204821,19.425317 C67.1629821,19.3048642 67.0344107,19.1519208 66.9436071,18.9767887 C66.8640536,18.804034 66.8158393,18.6186 66.7989643,18.4292038 L66.7989643,17.4552792 L66.7989643,15.0470151 L66.7989643,14.4336566 C66.7973571,14.3686755 66.7780714,14.3044868 66.7435179,14.2482226 C66.6752143,14.184034 66.5811964,14.1562981 66.4887857,14.1713547 C66.2999464,14.1570906 66.1103036,14.1570906 65.9222679,14.1713547 L65.9222679,13.9637321 L65.8443214,13.9193547 Z M60.5278929,13.9193547 L61.8819107,13.9193547 L62.7698571,13.9193547 L63.4135179,13.9193547 C63.7437857,13.9122226 64.0724464,13.9526377 64.3906607,14.0398075 C64.6453929,14.1174679 64.8703929,14.2704113 65.0343214,14.478034 C65.2070893,14.7007132 65.2970893,14.9749019 65.2890536,15.2554302 C65.28825,15.5058453 65.2279821,15.753883 65.1122679,15.9773547 C64.9909286,16.2079585 64.8205714,16.410034 64.6124464,16.5685245 C64.4195893,16.7214679 64.2018214,16.8395434 63.9687857,16.9187887 C63.7502143,16.9909019 63.522,17.0281472 63.291375,17.0281472 C63.0945,17.0273547 62.897625,17.0091283 62.7031607,16.9734679 L62.6364643,16.7222604 C62.8044107,16.7610906 62.9755714,16.7832792 63.1475357,16.7872415 C63.4834286,16.8062604 63.8104821,16.6731283 64.0354821,16.4266755 C64.2620893,16.1730906 64.3810179,15.8442226 64.3681607,15.5066377 C64.3842321,15.1738075 64.2604821,14.8481094 64.0242321,14.6095811 C63.7325357,14.3623358 63.35325,14.2402981 62.9699464,14.2696189 C62.6830714,14.275166 62.3986071,14.3227132 62.1261964,14.4122604 L62.1261964,15.9662604 L62.1261964,18.7033925 C62.1141429,18.9070528 62.1141429,19.1122981 62.1261964,19.3159585 C62.1278036,19.3817321 62.1470893,19.4459208 62.1816429,19.5021849 C62.2250357,19.5418075 62.278875,19.5679585 62.3375357,19.5790528 C62.5255714,19.5949019 62.7144107,19.5949019 62.90325,19.5790528 L62.90325,19.7866755 L61.6930714,19.7866755 L60.4836964,19.7866755 L60.4836964,19.5790528 L61.0052143,19.5790528 C61.0686964,19.5719208 61.1297679,19.5489396 61.1828036,19.5132792 C61.2237857,19.4665245 61.2511071,19.4094679 61.2599464,19.3492415 C61.2744107,19.155883 61.2744107,18.9617321 61.2599464,18.769166 L61.2599464,15.0913925 C61.2703929,14.8869396 61.2703929,14.6816943 61.2599464,14.478034 C61.2599464,14.4122604 61.2406607,14.3472792 61.2045,14.2918075 C61.1619107,14.2513925 61.1080714,14.2252415 61.0494107,14.2157321 C60.861375,14.2006755 60.6717321,14.2006755 60.4836964,14.2157321 L60.4836964,14.007317 L60.5278929,13.9193547 Z M59.8287857,13.9193547 L59.8287857,14.1713547 C59.6367321,14.1523358 59.4430714,14.1523358 59.2510179,14.1713547 C59.1867321,14.1864113 59.1312857,14.226034 59.0959286,14.2807132 C59.0734286,14.3813547 59.0734286,14.4867509 59.0959286,14.5873925 L59.0959286,15.8569019 L59.0959286,17.7730528 L59.0959286,18.7136943 C59.0702143,18.9173547 59.0702143,19.1233925 59.0959286,19.3270528 C59.1256607,19.3841094 59.1778929,19.4284868 59.2405714,19.4475057 C59.4390536,19.4704868 59.64075,19.4704868 59.8392321,19.4475057 L59.8392321,19.6551283 L58.6411071,19.6551283 L57.4646786,19.6551283 L57.4646786,19.6448264 C57.6559286,19.6622604 57.8495893,19.6622604 58.0416429,19.6448264 C58.1059286,19.6289774 58.161375,19.5901472 58.1967321,19.5346755 C58.2192321,19.434034 58.2192321,19.3294302 58.1967321,19.2287887 L58.1967321,17.9584868 L58.1967321,14.7736189 L56.8089643,17.7833547 C56.4465536,18.5132038 56.1283393,19.2208642 55.855125,19.9071283 L55.6879821,19.9071283 C55.5328929,19.5457698 55.3995,19.2612792 55.2998571,19.0536566 L53.2796786,14.9154679 L53.2796786,17.8277321 L53.2796786,18.769166 C53.2523571,18.972034 53.2523571,19.1780717 53.2796786,19.3817321 C53.3110179,19.4379962 53.3624464,19.4807887 53.4235179,19.5021849 C53.6228036,19.5259585 53.8245,19.5259585 54.0229821,19.5021849 L54.0229821,19.6987132 L53.757,19.6987132 L53.0353929,19.6987132 L52.0253036,19.6987132 L52.0253036,19.5021849 C52.2173571,19.5204113 52.4110179,19.5204113 52.6022679,19.5021849 C52.66575,19.4855434 52.7211964,19.4467132 52.7581607,19.3928264 C52.7806607,19.2953547 52.7806607,19.1947132 52.7581607,19.0972415 L52.7581607,17.8166377 L52.7581607,15.9226755 L52.7581607,15.0034302 C52.7822679,14.7958075 52.7822679,14.5866 52.7581607,14.3797698 C52.7300357,14.3179585 52.6778036,14.2712038 52.6135179,14.2482226 C52.4319107,14.2006755 52.2462857,14.175317 52.0590536,14.1713547 L52.0590536,13.9526377 L52.8465536,13.9526377 L53.6565536,13.9526377 C53.8936071,14.4922981 54.1194107,14.9772792 54.3339643,15.4083736 L55.9322679,18.6922981 L57.3754821,15.7253547 C57.767625,14.9233925 58.0303929,14.3464868 58.1637857,13.9962226 L58.9625357,13.9962226 L59.7950357,13.9962226 L59.8287857,13.9193547 Z M45.9647679,16.6232038 C45.9695893,16.9940717 46.0250357,17.3625623 46.1311071,17.7175811 C46.2291429,18.0829019 46.3986964,18.4252415 46.6309286,18.7247887 C46.8350357,18.987883 47.097,19.2010528 47.3967321,19.3492415 C48.0894107,19.6519585 48.8849464,19.6194679 49.5503036,19.2612792 C49.9054821,19.0481094 50.1786964,18.7247887 50.3273571,18.342034 C50.5105714,17.8974679 50.601375,17.4204113 50.5933393,16.9409774 C50.6037857,16.4187509 50.5009286,15.9004868 50.2936071,15.4194679 C50.1240536,15.0058075 49.8195,14.6587132 49.4281607,14.4336566 C49.0400357,14.2410906 48.6077143,14.1507509 48.1737857,14.1713547 C47.5654821,14.1396566 46.97325,14.3718453 46.5529821,14.8061094 C46.1319107,15.325166 45.921375,15.981317 45.9647679,16.6453925 L45.9647679,16.6232038 Z M45.0880714,16.8966 C45.0840536,16.5035434 45.1443214,16.1120717 45.2656607,15.7364491 C45.3958393,15.3639962 45.6079821,15.024034 45.8868214,14.7403358 C46.1825357,14.4312792 46.5417321,14.1879962 46.9411071,14.0295057 C47.3862857,13.8535811 47.8611964,13.7687887 48.340125,13.7775057 C49.1750357,13.7370906 49.993875,14.0152415 50.6262857,14.5541094 C51.2112857,15.1016943 51.523875,15.8735434 51.4812857,16.6667887 C51.4893214,17.2547887 51.343875,17.8356566 51.0594107,18.3531283 C50.7797679,18.8547509 50.3546786,19.2620717 49.8387857,19.5243736 C49.2995893,19.8072792 48.6961071,19.9499208 48.0845893,19.9404113 C47.6522679,19.9435811 47.2231607,19.8651283 46.8197679,19.7106 C46.4404821,19.5632038 46.1029821,19.3310151 45.831375,19.0314679 C45.5533393,18.7152792 45.3524464,18.3412415 45.2431607,17.9370906 C45.1290536,17.5828642 45.0687857,17.2135811 45.0655714,16.8419208 L45.0880714,16.8966 Z M44.4331607,19.0861472 L44.2780714,19.4689019 C43.6593214,19.7811283 42.973875,19.9427887 42.2795893,19.9404113 C41.3908393,19.9705245 40.5229821,19.6693925 39.8487857,19.0972415 C39.2236071,18.5385623 38.8756607,17.7397698 38.8941429,16.9076943 C38.8828929,16.3220717 39.0484286,15.7467509 39.3714643,15.2554302 C39.6728036,14.7775811 40.1091429,14.3972038 40.6258393,14.1602604 C41.1778929,13.9193547 41.7765536,13.7996943 42.3800357,13.8099962 C42.7528929,13.8115811 43.1249464,13.8519962 43.4897679,13.9304491 C43.8015536,13.9954302 44.1069107,14.0905245 44.3994107,14.2157321 C44.2981607,14.5905623 44.2386964,14.9756943 44.222625,15.3647887 L44.0225357,15.3647887 L44.0225357,14.653166 C43.7999464,14.485166 43.547625,14.359166 43.2784286,14.2807132 C42.9835179,14.1919585 42.6765536,14.1475811 42.3687857,14.1499585 C41.9236071,14.1444113 41.4840536,14.2498075 41.0919107,14.4558453 C40.7174464,14.6547509 40.4120893,14.9598453 40.2152143,15.3315057 C39.9958393,15.7665623 39.8889643,16.2475811 39.9042321,16.7325623 C39.8945893,17.241317 40.02075,17.7437321 40.2706607,18.1882981 C40.5053036,18.5964113 40.8508393,18.930034 41.2695,19.1519208 C41.7291429,19.3856943 42.2402143,19.5021849 42.7569107,19.4910906 C42.9987857,19.4934679 43.2406607,19.4712792 43.4785179,19.425317 C43.677,19.3888642 43.8706607,19.3302226 44.0554821,19.2509774 C44.211375,19.1812415 44.3608393,19.0964491 44.4998571,18.9989774 L44.5665536,19.0861472 L44.4331607,19.0861472 Z" id="Fill-1" fill="#010101"></path>
            <path d="M59.0072143,39.6651962 C59.2249821,39.7151208 59.4491786,39.7420642 59.673375,39.7420642 C59.9980179,39.7587057 60.3226607,39.694517 60.6167679,39.5558377 C60.8361429,39.4330075 61.0113214,39.2459887 61.1165893,39.0193472 C61.2266786,38.7903283 61.2837321,38.5399132 61.2829286,38.2863283 C61.3014107,37.9321019 61.1784643,37.5858 60.9381964,37.3227057 C60.505875,37.0239509 59.9755179,36.8947811 59.4507857,36.9613472 L58.9959643,36.9613472 L58.9959643,39.6541019 L59.0072143,39.6651962 Z M59.0072143,36.6332717 L59.4845357,36.6332717 C59.91525,36.6768566 60.348375,36.569083 60.7051607,36.3265925 C60.9381964,36.1078755 61.0643571,35.8004038 61.0498929,35.4842151 C61.0579286,35.3059132 61.0201607,35.1284038 60.9381964,34.9691208 C60.8441786,34.8138 60.6987321,34.6949321 60.5275714,34.6299509 C60.2824821,34.5404038 60.0229286,34.4991962 59.7617679,34.5094981 C59.5303393,34.5079132 59.3005179,34.5301019 59.0739107,34.5752717 L59.0739107,35.8780642 L59.0739107,36.6221774 L59.0072143,36.6332717 Z M57.4860536,34.4437245 L57.4860536,34.2353094 L58.5965893,34.2353094 L59.7617679,34.2353094 L60.2390893,34.2353094 C60.5428393,34.2250075 60.8465893,34.2622528 61.1382857,34.3454604 C61.3520357,34.4199509 61.5384643,34.5578377 61.6710536,34.7393094 C61.80525,34.9279132 61.8751607,35.1545547 61.8703393,35.3851585 C61.8687321,35.6997623 61.7498036,36.0032717 61.5376607,36.2394226 C61.2411429,36.5437245 60.8514107,36.7434226 60.4279286,36.8084038 C60.6826607,36.8266302 60.9349821,36.8670453 61.1824821,36.9288566 C61.3673036,36.9748189 61.540875,37.057234 61.6935536,37.1697623 C61.8422143,37.2807057 61.9611429,37.4281019 62.0374821,37.5968943 C62.1218571,37.7862906 62.1636429,37.9915358 62.159625,38.198366 C62.1564107,38.3845925 62.1266786,38.5684415 62.0712321,38.7459509 C62.0053393,38.9504038 61.9000714,39.1405925 61.7594464,39.3038377 C61.6067679,39.4900642 61.42275,39.6485547 61.2162321,39.7745547 C61.0129286,39.9005547 60.79275,39.9964415 60.5613214,40.0590453 C60.2881071,40.1224415 60.0084643,40.1517623 59.7288214,40.1462151 L59.1181071,40.1462151 L58.5073929,40.1462151 L57.8082857,40.1462151 L57.8082857,39.8950075 C57.907125,39.8553849 58.0003393,39.8038755 58.0863214,39.7420642 C58.1369464,39.500366 58.1586429,39.2539132 58.1522143,39.0082528 L58.1522143,37.9138755 L58.1522143,35.4398377 L58.1522143,34.9358377 C58.1578393,34.8454981 58.1578393,34.754366 58.1522143,34.663234 C58.1642679,34.6236113 58.1642679,34.5816113 58.1522143,34.5419887 L58.0525714,34.4881019 L57.8412321,34.4881019 L57.5198036,34.4881019 L57.4860536,34.4437245 Z M50.515875,34.2028189 L51.72525,34.2028189 L52.9354286,34.2028189 L52.9354286,34.411234 L52.4806071,34.411234 C52.3986429,34.4159887 52.3190893,34.4381774 52.2475714,34.4762151 C52.1840893,34.5316868 52.1479286,34.6117245 52.147125,34.6957245 C52.1382857,34.8526302 52.1382857,35.0095358 52.147125,35.1664415 L52.147125,37.4431585 L52.147125,38.4059887 C52.1607857,38.5834981 52.2017679,38.7570453 52.2692679,38.921083 C52.3311429,39.0613472 52.4267679,39.1857623 52.5465,39.2824415 C52.7056071,39.4013094 52.8864107,39.4861019 53.0800714,39.5336491 C53.3364107,39.6018 53.6015893,39.635083 53.8675714,39.6327057 C54.1616786,39.6334981 54.453375,39.5883283 54.7338214,39.5011585 C54.9684643,39.4345925 55.179,39.3062151 55.3437321,39.1287057 C55.494,38.9464415 55.5904286,38.7261396 55.6217679,38.4931585 C55.6723929,38.1310075 55.6940893,37.7656868 55.6884643,37.3995736 L55.6884643,36.1514604 L55.6884643,35.2544038 C55.713375,35.0356868 55.713375,34.8153849 55.6884643,34.5966679 C55.6587321,34.5364415 55.6073036,34.4896868 55.5438214,34.4651208 C55.3445357,34.4405547 55.1436429,34.4405547 54.9443571,34.4651208 L54.9443571,34.2685925 L55.9431964,34.2685925 L56.9428393,34.2685925 L56.9428393,34.4651208 L56.4205179,34.4651208 C56.3610536,34.4730453 56.3031964,34.4960264 56.2541786,34.5308943 C56.2156071,34.570517 56.1890893,34.6204415 56.1770357,34.6735358 C56.1641786,34.8565925 56.1641786,35.0388566 56.1770357,35.2211208 L56.1770357,37.4098755 C56.1826607,37.8084792 56.1641786,38.207083 56.1215893,38.6033094 C56.0942679,38.8616491 56.0026607,39.1104792 55.8548036,39.325234 C55.7214107,39.5098755 55.555875,39.6691585 55.3662321,39.7967434 C55.14525,39.9362151 54.9009643,40.0368566 54.644625,40.0923283 C54.3465,40.1588943 54.0411429,40.1921774 53.7341786,40.1905925 C53.3822143,40.1945547 53.0310536,40.1501774 52.6911429,40.0590453 C52.434,39.9940642 52.192125,39.8791585 51.9807857,39.7198755 C51.8232857,39.5994226 51.6939107,39.4464792 51.6039107,39.2713472 C51.5243571,39.0978 51.4753393,38.9131585 51.4592679,38.7245547 L51.4592679,37.7498377 L51.4592679,35.3415736 L51.4592679,34.7290075 C51.4568571,34.663234 51.438375,34.5982528 51.4038214,34.5419887 C51.3604286,34.502366 51.3065893,34.4762151 51.2487321,34.4651208 C51.0598929,34.4508566 50.8710536,34.4508566 50.6822143,34.4651208 L50.6822143,34.2582906 L50.515875,34.2028189 Z M45.0435536,34.2028189 L46.2529286,34.2028189 L47.4631071,34.2028189 L47.4631071,34.411234 L47.0082857,34.411234 C46.9263214,34.4159887 46.8467679,34.4381774 46.77525,34.4762151 C46.7117679,34.5316868 46.6756071,34.6117245 46.6748036,34.6957245 C46.6651607,34.8526302 46.6651607,35.0095358 46.6748036,35.1664415 L46.6748036,37.9685547 L46.6748036,38.9313849 L46.6748036,39.6541019 L47.619,39.6541019 L48.9063214,39.6541019 C49.0742679,39.6366679 49.2381964,39.5962528 49.3948929,39.5336491 C49.4503393,39.3767434 49.4945357,39.2158755 49.5282857,39.0526302 C49.5829286,38.8006302 49.6166786,38.6579887 49.6166786,38.6144038 L49.8384643,38.6144038 C49.8384643,38.7245547 49.8384643,38.9424792 49.7717679,39.2602528 C49.7050714,39.5780264 49.7717679,39.8403283 49.7717679,40.0376491 L47.6631964,40.0376491 L46.375875,40.0376491 L45.509625,40.0376491 L45.509625,39.8950075 L45.7989107,39.7309698 C45.8157857,39.5518755 45.8157857,39.3727811 45.7989107,39.1944792 L45.7989107,37.9685547 L45.7989107,35.3304792 L45.7989107,34.7179132 C45.7981071,34.6513472 45.7788214,34.5871585 45.7426607,34.5308943 C45.7000714,34.4912717 45.6462321,34.4651208 45.5875714,34.4548189 C45.40275,34.4405547 45.217125,34.4405547 45.0323036,34.4548189 L45.0323036,34.2464038 L45.0435536,34.2028189 Z M44.4328393,39.3482151 L44.27775,39.7309698 C43.659,40.0431962 42.9743571,40.2048566 42.2800714,40.2016868 C41.3897143,40.2286302 40.5218571,39.9235358 39.8492679,39.3482151 C39.2232857,38.7895358 38.8753393,37.9907434 38.894625,37.1586679 C38.8825714,36.5730453 39.0489107,35.9969321 39.3711429,35.5056113 C39.6724821,35.0277623 40.1088214,34.6473849 40.6255179,34.411234 C41.1775714,34.1695358 41.7762321,34.0506679 42.3797143,34.0609698 C42.7525714,34.0625547 43.124625,34.1021774 43.4894464,34.1814226 C43.8020357,34.2456113 44.1073929,34.3407057 44.3998929,34.4651208 C44.2978393,34.8415358 44.238375,35.2266679 44.2223036,35.6149698 L44.0222143,35.6149698 L44.0222143,34.9033472 C43.799625,34.7361396 43.5473036,34.6101396 43.2789107,34.5308943 C42.984,34.4421396 42.6770357,34.3985547 42.3684643,34.3993472 C41.9232857,34.3945925 41.4845357,34.4991962 41.0923929,34.7060264 C40.7179286,34.9057245 40.4125714,35.2108189 40.2148929,35.5824792 C39.9955179,36.0167434 39.8886429,36.4985547 39.9047143,36.9835358 C39.8942679,37.4922906 40.0212321,37.9947057 40.2711429,38.4392717 C40.5057857,38.8465925 40.8513214,39.1802151 41.2699821,39.4021019 C41.7288214,39.6366679 42.2398929,39.752366 42.7565893,39.7420642 C42.9992679,39.7404792 43.2411429,39.7143283 43.4781964,39.6651962 C43.6766786,39.6279509 43.8703393,39.5693094 44.0559643,39.4900642 C44.2118571,39.4203283 44.3605179,39.3363283 44.4995357,39.2380642 L44.5662321,39.325234 L44.4328393,39.3482151 Z M72.5819464,24.0665547 L74.4357857,24.0665547 L76.9003393,24.0665547 C76.8103393,24.4770453 76.7581071,24.8946679 76.7444464,25.3146679 L76.5339107,25.3146679 C76.5347143,25.2924792 76.5347143,25.271083 76.5339107,25.2488943 C76.5523929,25.0230453 76.5523929,24.7964038 76.5339107,24.5705547 C76.2992679,24.4802151 76.0517679,24.4287057 75.8010536,24.4168189 L75.0906964,24.4168189 L74.2365,24.4168189 L74.2365,26.6935358 L75.0794464,26.6935358 L75.7343571,26.6935358 C75.8380179,26.7070075 75.9424821,26.7070075 76.0453393,26.6935358 C76.0806964,26.6673849 76.104,26.6277623 76.1120357,26.5841774 C76.1200714,26.4930453 76.1200714,26.4019132 76.1120357,26.3107811 L76.1120357,26.0476868 L76.312125,26.0476868 L76.312125,26.9566302 L76.312125,27.8980642 L76.1120357,27.8980642 L76.1120357,27.6460642 C76.1184643,27.5295736 76.1184643,27.413083 76.1120357,27.2958 C76.098375,27.2553849 76.0710536,27.220517 76.0340893,27.1975358 C75.93525,27.1571208 75.8307857,27.1341396 75.7231071,27.1317623 L75.024,27.1317623 L74.2806964,27.1317623 L74.2806964,28.2919132 L74.2806964,29.572517 L75.05775,29.572517 L76.3450714,29.572517 C76.5130179,29.5566679 76.67775,29.5154604 76.8336429,29.4520642 C76.8818571,29.3046679 76.9228393,29.1548943 76.9549821,29.0035358 C77.0112321,28.7737245 77.0441786,28.6199887 77.0554286,28.5661019 L77.2547143,28.5661019 C77.21775,28.7721396 77.1920357,28.9805547 77.1775714,29.1897623 L77.1775714,29.9560642 L75.0681964,29.9560642 L73.9584643,29.9560642 L73.1259643,29.9560642 L73.1259643,29.8134226 L73.4144464,29.6604792 C73.4626607,29.4187811 73.4811429,29.1723283 73.4706964,28.9266679 L73.4706964,27.8322906 L73.4706964,25.3146679 L73.4706964,24.8106679 C73.4787321,24.7203283 73.4787321,24.6284038 73.4706964,24.5372717 C73.4779286,24.4976491 73.4779286,24.457234 73.4706964,24.4168189 L73.1484643,24.3621396 L72.937125,24.3621396 L72.6156964,24.3621396 L72.6156964,24.0229698 L72.5819464,24.0665547 Z M71.8161429,29.2119509 L71.6610536,29.5947057 C71.0431071,29.9069321 70.3576607,30.0678 69.6625714,30.0654226 C68.75775,30.1034604 67.8714107,29.798366 67.1875714,29.2119509 C66.564,28.6524792 66.2160536,27.8536868 66.2329286,27.0224038 C66.2192679,26.4328189 66.3856071,25.8527434 66.71025,25.3582528 C67.0115893,24.8811962 67.447125,24.5008189 67.964625,24.2638755 C68.5166786,24.0229698 69.1153393,23.9033094 69.7188214,23.9136113 C70.0916786,23.9151962 70.4637321,23.9556113 70.8285536,24.0340642 C71.1411429,24.0982528 71.4456964,24.1941396 71.739,24.3185547 C71.6369464,24.6941774 71.5774821,25.0793094 71.5614107,25.4676113 L71.3613214,25.4676113 L71.3613214,24.7567811 C71.1379286,24.5887811 70.8864107,24.4627811 70.6172143,24.3843283 C70.3231071,24.2947811 70.0161429,24.2511962 69.7075714,24.2527811 C69.2623929,24.2464415 68.8228393,24.3526302 68.4306964,24.5594604 C68.0562321,24.758366 67.750875,25.0634604 67.554,25.4351208 C67.334625,25.8693849 67.22775,26.3511962 67.2430179,26.8361774 C67.233375,27.3449321 67.3595357,27.8465547 67.6094464,28.2919132 C67.8440893,28.7000264 68.1904286,29.0336491 68.6082857,29.2555358 C69.0679286,29.4893094 69.579,29.6058 70.0956964,29.5947057 C70.338375,29.5939132 70.58025,29.5677623 70.8173036,29.5178377 C71.0157857,29.4805925 71.2094464,29.4219509 71.3950714,29.3427057 C71.5501607,29.2729698 71.6988214,29.1889698 71.8386429,29.0914981 L71.9053393,29.1786679 L71.8161429,29.2119509 Z M58.807125,29.9449698 L58.807125,29.7151585 L59.21775,29.7151585 C59.2932857,29.7104038 59.364,29.6794981 59.4178393,29.6271962 C59.4515893,29.5709321 59.4700714,29.5067434 59.4732857,29.4417623 L59.4732857,28.8608943 L59.4732857,28.2150453 L59.4732857,24.7892717 C59.482125,24.6775358 59.4548036,24.5665925 59.3953393,24.4722906 C59.3439107,24.4033472 59.2691786,24.3565925 59.1848036,24.3407434 C59.0329286,24.3280642 58.8810536,24.3280642 58.7299821,24.3407434 L58.7299821,24.1434226 L59.4949821,24.1434226 L60.1948929,24.1434226 L61.5376607,25.8622528 L63.5136429,28.3141019 C63.7506964,28.6128566 63.9949821,28.8941774 64.2465,29.1564792 L64.2465,25.8400642 L64.2465,25.2053094 L64.2465,24.5808566 C64.2400714,24.5158755 64.21275,24.4548566 64.1685536,24.406517 C64.1090893,24.3676868 64.0399821,24.3454981 63.9684643,24.3407434 L63.5690893,24.3407434 L63.5690893,24.1434226 L64.5462321,24.1434226 L65.3787321,24.0229698 L65.3787321,24.2202906 C65.2348929,24.2091962 65.0894464,24.2091962 64.9456071,24.2202906 C64.8732857,24.2226679 64.8049821,24.254366 64.7567679,24.3074604 C64.7439107,24.3692717 64.7439107,24.4318755 64.7567679,24.4936868 L64.7567679,25.0626679 L64.7567679,25.7196113 L64.7567679,28.8394981 L64.7567679,29.9338755 C64.5156964,29.8625547 64.2714107,29.8039132 64.0239107,29.7587434 L63.7249821,29.4084792 L62.8249821,28.3141019 L59.9618571,24.7892717 L59.9618571,27.985234 L59.9618571,28.664366 C59.9506071,28.8608943 59.9506071,29.0582151 59.9618571,29.2555358 C59.9514107,29.3022906 59.9514107,29.3506302 59.9618571,29.3973849 C60.0020357,29.4346302 60.0518571,29.4615736 60.1056964,29.4742528 C60.2607857,29.4908943 60.4174821,29.4908943 60.5725714,29.4742528 L60.5725714,29.6715736 C60.3355179,29.6573094 60.0984643,29.6573094 59.8614107,29.6715736 L58.7516786,29.6715736 L58.807125,29.9449698 Z" id="Fill-3" fill="#010101"></path>
            <path d="M17.6491607,14.7079245 C15.616125,12.8004906 12.8526429,11.844 10.0570179,12.0809434 C3.78594643,12.7267925 -0.587892857,19.8525283 0.278357143,27.9743774 C1.14380357,36.0970189 6.93755357,42.2052453 13.1981786,41.5150189 C14.4565714,41.4088302 15.6731786,41.0157736 16.7499643,40.3651698 C15.9616607,40.8216226 15.053625,41.0347925 14.1415714,40.9785283 C9.43505357,41.1100755 5.41719643,34.8489057 4.60719643,27.1977736 C3.79639286,19.5458491 5.71692857,12.9122264 10.5230893,12.7267925 C13.0671964,12.4724151 15.6145179,13.1808679 17.6491607,14.7079245" id="Fill-5" fill="#010101"></path>
            <path d="M17.6491607,14.7079245 C15.616125,12.8004906 12.8526429,11.844 10.0570179,12.0809434 C3.78594643,12.7267925 -0.587892857,19.8525283 0.278357143,27.9743774 C1.14380357,36.0970189 6.93755357,42.2052453 13.1981786,41.5150189 C14.4565714,41.4088302 15.6731786,41.0157736 16.7499643,40.3651698 C15.9616607,40.8216226 15.053625,41.0347925 14.1415714,40.9785283 C9.43505357,41.1100755 5.41719643,34.8489057 4.60719643,27.1977736 C3.79639286,19.5458491 5.71692857,12.9122264 10.5230893,12.7267925 C13.0671964,12.4724151 15.6145179,13.1808679 17.6491607,14.7079245 Z" id="Stroke-7" stroke="#010101" stroke-width="0.5"></path>
            <path d="M22.6106518,12.2446642 C24.1478839,12.3278717 25.6545804,12.6995321 27.0503839,13.3390415 C32.1675268,15.6934189 34.8209196,21.5274566 34.1210089,27.9962491 C33.1888661,36.0634189 27.4168125,42.1605509 21.1569911,41.5368906 C19.9122589,41.4172302 18.7117232,41.0170415 17.6494018,40.3656453 C18.4377054,40.8213057 19.3457411,41.0352679 20.2577946,40.9782113 C24.9643125,41.1097585 28.9821696,34.8485887 29.7929732,27.1974566 C30.4141339,21.3412302 29.4257411,16.0761736 26.0298482,13.8208528 C24.8935982,13.0862491 23.5693125,12.6844755 22.2112768,12.6607019 C17.9153839,12.4530792 15.9177054,9.56300377 16.0952946,6.09285283 C16.2728839,2.62270189 18.5373482,0.0400981132 21.1682411,0.17085283 C22.3422589,0.253267925 23.4254732,0.827003774 24.1422589,1.74704151 C23.4013661,0.983909434 22.3936875,0.525871698 21.3233304,0.466437736 C19.3256518,0.236626415 18.0817232,2.85251321 17.9049375,6.08255094 C17.7265446,9.31100377 19.0146696,12.1574943 22.6106518,12.2446642" id="Fill-9" fill="#010101"></path>
            <path d="M22.6106518,12.2446642 C24.1478839,12.3278717 25.6545804,12.6995321 27.0503839,13.3390415 C32.1675268,15.6934189 34.8209196,21.5274566 34.1210089,27.9962491 C33.1888661,36.0634189 27.4168125,42.1605509 21.1569911,41.5368906 C19.9122589,41.4172302 18.7117232,41.0170415 17.6494018,40.3656453 C18.4377054,40.8213057 19.3457411,41.0352679 20.2577946,40.9782113 C24.9643125,41.1097585 28.9821696,34.8485887 29.7929732,27.1974566 C30.4141339,21.3412302 29.4257411,16.0761736 26.0298482,13.8208528 C24.8935982,13.0862491 23.5693125,12.6844755 22.2112768,12.6607019 C17.9153839,12.4530792 15.9177054,9.56300377 16.0952946,6.09285283 C16.2728839,2.62270189 18.5373482,0.0400981132 21.1682411,0.17085283 C22.3422589,0.253267925 23.4254732,0.827003774 24.1422589,1.74704151 C23.4013661,0.983909434 22.3936875,0.525871698 21.3233304,0.466437736 C19.3256518,0.236626415 18.0817232,2.85251321 17.9049375,6.08255094 C17.7265446,9.31100377 19.0146696,12.1574943 22.6106518,12.2446642 Z" id="Stroke-11" stroke="#010101" stroke-width="0.5"></path>
        </g>
    </g>
</svg>