<?xml version="1.0" encoding="UTF-8"?>
<svg width="64px" height="70px" viewBox="0 0 64 70" version="1.1" xmlns="http://www.w3.org/2000/svg" xmlns:xlink="http://www.w3.org/1999/xlink">
    <!-- Generator: Sketch 48.1 (47250) - http://www.bohemiancoding.com/sketch -->
    <title>flsh239</title>
    <desc>Created with Sketch.</desc>
    <defs></defs>
    <g id="redisign-1.1-copy-10" stroke="none" stroke-width="1" fill="none" fill-rule="evenodd" transform="translate(-1144.000000, -1288.000000)">
        <g id="239.1b015059ebaf" transform="translate(1146.000000, 1301.000000)" fill="#1D1D1D" fill-rule="nonzero">
            <g id="XMLID_391_" transform="translate(19.000000, 7.000000)">
                <g id="XMLID_160_" transform="translate(4.616970, 0.000000)">
                    <path d="M17.1212642,8.72421053 L17.1982137,8.80210526 L17.7368602,9.15263158 C18.698729,9.85368421 19.7375472,10.6715789 20.8917898,10.9831579 C21.6612848,11.1778947 21.930608,11.0610526 22.6231536,10.9052632 C22.5462041,10.8273684 22.3538303,10.7494737 22.084507,10.4768421 C21.8921333,10.3210526 21.7382343,10.2042105 21.5458605,10.0484211 C20.7763655,9.42526316 20.0453452,8.91894737 19.006527,8.72421053 C18.2370319,8.56842105 17.7368602,8.64631579 17.1212642,8.72421053 Z" id="XMLID_207_"></path>
                    <path d="M0.269323257,3.46631579 L1.38509103,3.31052632 L1.23119203,3.58315789 C1.07729303,3.77789474 0.80796977,4.20631579 0.731020268,4.44 L1.69288904,4.01157895 L1.53899004,5.14105263 L1.80831329,4.79052632 C1.8852628,4.71263158 1.9622123,4.51789474 2.07763655,4.51789474 L2.15458605,5.64736842 C2.34695981,5.45263158 2.34695981,5.37473684 2.42390931,5.10210526 C2.42390931,4.94631579 2.57780831,4.55684211 2.61628306,4.47894737 L2.88560632,5.10210526 L3.07798008,5.60842105 C3.07798008,5.68631579 3.15492958,5.68631579 3.15492958,5.76421053 C3.23187908,5.68631579 3.23187908,5.68631579 3.23187908,5.60842105 C3.23187908,5.45263158 3.23187908,5.25789474 3.23187908,5.18 C3.23187908,5.02421053 3.15492958,4.75157895 3.23187908,4.55684211 C3.42425283,4.71263158 3.9244246,5.10210526 4.19374785,5.18 L3.69357609,4.32315789 L4.65544486,4.59578947 L4.50154586,4.40105263 C4.34764686,4.24526316 4.0783236,3.97263158 4.0013741,3.77789474 L4.69391962,3.77789474 C4.69391962,3.7 4.69391962,3.7 4.69391962,3.7 C4.61697011,3.62210526 4.54002061,3.54421053 4.50154586,3.50526316 C4.42459636,3.42736842 4.2322226,3.34947368 4.1552731,3.23263158 C4.42459636,3.23263158 4.92476812,3.31052632 5.19409138,3.23263158 C5.34799038,3.23263158 5.38646513,3.23263158 5.46341463,3.15473684 L5.38646513,3.07684211 C5.11714188,2.92105263 4.34764686,2.92105263 4.2322226,2.72631579 C4.50154586,2.45368421 4.38612161,2.57052632 4.73239437,2.37578947 C4.88629337,2.29789474 5.15561663,2.18105263 5.23256613,2.02526316 C5.15561663,2.02526316 4.27069735,2.22 4.19374785,2.22 C4.03984885,2.22 4.03984885,2.14210526 4.03984885,2.14210526 L4.57849536,1.01263158 L4.30917211,1.09052632 C3.96289935,1.24631579 3.80900034,1.71368421 3.42425283,1.59684211 C3.42425283,1.32421053 3.84747509,0.74 3.69357609,0.545263158 C3.50120234,0.74 3.50120234,0.817894737 3.34730333,1.09052632 C3.27035383,1.24631579 3.15492958,1.59684211 2.92408107,1.59684211 L2.73170732,0.817894737 C2.65475782,0.662105263 2.57780831,0.194736842 2.38543456,0.194736842 L2.30848506,1.44105263 C2.23153555,1.51894737 2.23153555,1.44105263 2.23153555,1.44105263 C2.0391618,1.44105263 1.38509103,0.74 1.34661628,0.662105263 C1.53899004,1.01263158 1.61593954,1.16842105 1.84678805,1.51894737 C1.92373755,1.67473684 2.00068705,1.67473684 2.00068705,1.79157895 L1.30814153,1.79157895 C1.15424253,1.79157895 0.769495019,1.63578947 0.692545517,1.63578947 C0.884919272,1.79157895 1.57746479,2.18105263 1.57746479,2.41473684 L0.115424253,2.49263158 L0.654070766,2.76526316 C0.80796977,2.84315789 1.15424253,2.92105263 1.19271728,2.96 C1.03881828,3.03789474 0.500171762,3.31052632 0.346272759,3.38842105 C0.269323257,3.46631579 0.269323257,3.42736842 0.269323257,3.46631579 Z M2.50085881,1.94736842 C3.11645483,1.79157895 3.61662659,2.29789474 3.65510134,2.80421053 C3.80900034,3.42736842 3.38577808,3.93368421 2.88560632,4.05052632 C2.27001031,4.20631579 1.76983854,3.77789474 1.73136379,3.19368421 C1.65441429,2.57052632 2.00068705,2.10315789 2.50085881,1.94736842 Z" id="XMLID_161_"></path>
                </g>
                <g id="XMLID_158_" transform="translate(0.000000, 26.484211)">
                    <path d="M6.34833391,9.97052632 L6.34833391,8.76315789 L1.11576778,8.76315789 C2.96255582,7.20526316 5.00171762,5.60842105 5.84816214,3.23263158 C5.92511165,2.96 5.9635864,2.64842105 5.9635864,2.33684211 C5.9635864,1.59684211 5.69426314,1.05157895 5.15561663,0.662105263 C4.61697011,0.272631579 3.84747509,0.0389473684 2.96255582,0.0389473684 C2.57780831,0.0389473684 2.15458605,0.0778947368 1.80831329,0.233684211 C1.46204054,0.350526316 1.15424253,0.545263158 0.884919272,0.74 C0.615596015,0.973684211 0.42322226,1.20736842 0.307798008,1.40210526 C0.192373755,1.63578947 0.0769495019,1.90842105 0.0769495019,2.14210526 C0.0769495019,2.41473684 0.115424253,2.64842105 0.269323257,2.76526316 C0.384747509,2.88210526 0.577121264,2.99894737 0.80796977,2.99894737 C1.07729303,2.99894737 1.30814153,2.92105263 1.42356578,2.80421053 C1.53899004,2.68736842 1.65441429,2.53157895 1.65441429,2.33684211 C1.65441429,2.14210526 1.61593954,1.94736842 1.57746479,1.75263158 C1.53899004,1.55789474 1.50051529,1.40210526 1.46204054,1.20736842 C1.57746479,0.973684211 1.76983854,0.856842105 2.0391618,0.701052632 C2.30848506,0.584210526 2.57780831,0.506315789 2.88560632,0.506315789 C3.38577808,0.506315789 3.73205084,0.623157895 4.03984885,0.895789474 C4.34764686,1.16842105 4.50154586,1.55789474 4.50154586,2.18105263 C4.50154586,2.57052632 4.46307111,2.84315789 4.42459636,3.07684211 C4.19374785,5.49157895 1.11576778,7.71157895 0.0384747509,8.95789474 L0.0384747509,9.89263158 L6.38680866,9.89263158 L6.38680866,9.97052632 L6.34833391,9.97052632 Z" id="XMLID_159_"></path>
                </g>
                <g id="XMLID_153_" transform="translate(7.310203, 26.484211)">
                    <path d="M13.1198901,3.97263158 C13.1198901,2.88210526 12.9275163,2.06421053 12.5812436,1.44105263 C12.2349708,0.856842105 11.7732738,0.545263158 11.1961525,0.545263158 C10.657506,0.545263158 10.195809,0.778947368 9.88801099,1.28526316 C9.58021299,1.75263158 9.38783923,2.41473684 9.38783923,3.23263158 C9.38783923,3.97263158 9.58021299,4.59578947 9.88801099,5.06315789 C10.2342838,5.53052632 10.6959808,5.72526316 11.2346273,5.72526316 C11.5809,5.72526316 11.888698,5.68631579 12.2349708,5.53052632 C12.5427688,5.41368421 12.8120921,5.18 13.0429406,4.90736842 C13.0429406,4.90736842 13.0429406,4.86842105 13.0429406,4.82947368 C13.0429406,4.79052632 13.0429406,4.71263158 13.0429406,4.59578947 C13.0429406,4.55684211 13.0429406,4.47894737 13.0429406,4.36210526 C13.1198901,4.16736842 13.1198901,4.08947368 13.1198901,3.97263158 Z M14.5819306,4.08947368 C14.5819306,4.90736842 14.4665064,5.64736842 14.2356578,6.34842105 C13.9663346,7.08842105 13.6200618,7.67263158 13.1583648,8.21789474 C12.6966678,8.76315789 12.1195465,9.15263158 11.5039505,9.54210526 C10.8498798,9.89263158 10.1188595,10.1263158 9.31088973,10.2042105 L9.19546548,9.58105263 L9.81106149,9.50315789 C10.811405,9.19157895 11.5424253,8.72421053 12.0810718,8.06210526 C12.6197183,7.43894737 12.9659911,6.62105263 13.1583648,5.60842105 C12.8120921,5.92 12.3888698,6.15368421 12.042597,6.34842105 C11.6963243,6.46526316 11.2346273,6.58210526 10.7729303,6.58210526 C10.0034352,6.58210526 9.38783923,6.30947368 8.84919272,5.72526316 C8.3105462,5.14105263 8.04122295,4.40105263 8.04122295,3.50526316 C8.04122295,2.57052632 8.34902095,1.75263158 8.96461697,1.09052632 C9.58021299,0.467368421 10.3881828,0.0778947368 11.273102,0.0778947368 C12.3119203,0.0778947368 13.1198901,0.428421053 13.6970113,1.16842105 C14.2356578,1.79157895 14.5819306,2.80421053 14.5819306,4.08947368 Z M0.115424253,8.14 C0.115424253,8.41263158 0.192373755,8.64631579 0.346272759,8.91894737 C0.461697011,9.15263158 0.654070766,9.38631579 0.923394023,9.54210526 C1.19271728,9.69789474 1.50051529,9.85368421 1.80831329,10.0094737 C2.15458605,10.0873684 2.57780831,10.2042105 2.96255582,10.2042105 C4.0013741,10.2042105 4.88629337,9.93157895 5.61731364,9.38631579 C6.34833391,8.84105263 6.65613191,8.10105263 6.65613191,7.24421053 C6.65613191,6.77684211 6.57918241,6.42631579 6.42528341,6.11473684 C6.30985915,5.80315789 6.07901065,5.56947368 5.84816214,5.37473684 C5.61731364,5.18 5.34799038,5.06315789 5.07866712,4.98526316 C4.80934387,4.90736842 4.50154586,4.86842105 4.27069735,4.79052632 L4.27069735,4.71263158 C4.65544486,4.63473684 5.00171762,4.44 5.27104088,4.24526316 C5.54036414,4.05052632 5.77121264,3.89473684 5.88663689,3.66105263 C6.00206115,3.46631579 6.15596015,3.27157895 6.1944349,3.03789474 C6.23290965,2.80421053 6.2713844,2.57052632 6.2713844,2.37578947 C6.2713844,2.18105263 6.23290965,1.98631579 6.15596015,1.71368421 C6.07901065,1.44105263 5.92511165,1.20736842 5.77121264,0.973684211 C5.54036414,0.74 5.27104088,0.506315789 4.92476812,0.389473684 C4.57849536,0.194736842 4.11679835,0.116842105 3.53967709,0.116842105 C3.03950532,0.116842105 2.65475782,0.155789474 2.23153555,0.311578947 C1.8852628,0.428421053 1.57746479,0.623157895 1.30814153,0.856842105 C1.03881828,1.09052632 0.846444521,1.32421053 0.731020268,1.51894737 C0.615596015,1.75263158 0.538646513,2.02526316 0.538646513,2.25894737 C0.538646513,2.49263158 0.577121264,2.64842105 0.731020268,2.84315789 C0.80796977,3.03789474 1.00034352,3.11578947 1.26966678,3.11578947 C1.53899004,3.11578947 1.76983854,3.07684211 1.8852628,2.88210526 C2.00068705,2.76526316 2.1161113,2.60947368 2.1161113,2.41473684 C2.1161113,2.22 2.07763655,2.02526316 2.0391618,1.83052632 C2.00068705,1.59684211 1.9622123,1.44105263 1.92373755,1.28526316 C1.9622123,1.24631579 2.00068705,1.20736842 2.1161113,1.09052632 C2.1930608,1.01263158 2.30848506,0.973684211 2.38543456,0.856842105 C2.46238406,0.817894737 2.61628306,0.778947368 2.73170732,0.662105263 C2.84713157,0.623157895 3.07798008,0.584210526 3.30882858,0.584210526 C3.80900034,0.584210526 4.1552731,0.701052632 4.42459636,1.05157895 C4.69391962,1.32421053 4.80934387,1.79157895 4.80934387,2.37578947 C4.80934387,3.11578947 4.69391962,3.58315789 4.42459636,3.97263158 C4.1552731,4.32315789 3.69357609,4.51789474 3.07798008,4.51789474 L2.50085881,4.51789474 L2.50085881,5.29684211 L3.38577808,5.29684211 C3.73205084,5.29684211 4.03984885,5.33578947 4.30917211,5.41368421 C4.54002061,5.49157895 4.77086912,5.64736842 4.88629337,5.80315789 C5.00171762,5.99789474 5.11714188,6.19263158 5.15561663,6.42631579 C5.19409138,6.66 5.23256613,6.93263158 5.23256613,7.16631579 C5.23256613,7.63368421 5.19409138,7.98421053 5.04019237,8.29578947 C4.96324287,8.56842105 4.77086912,8.84105263 4.57849536,9.03578947 C4.38612161,9.23052632 4.19374785,9.38631579 3.9244246,9.50315789 C3.65510134,9.62 3.42425283,9.62 3.11645483,9.62 C2.84713157,9.62 2.57780831,9.62 2.46238406,9.58105263 C2.27001031,9.54210526 2.15458605,9.50315789 2.00068705,9.38631579 C1.8852628,9.34736842 1.76983854,9.26947368 1.69288904,9.19157895 C1.61593954,9.11368421 1.57746479,9.07473684 1.50051529,8.99684211 C1.53899004,8.91894737 1.53899004,8.72421053 1.57746479,8.49052632 C1.61593954,8.25684211 1.65441429,8.10105263 1.65441429,7.94526316 C1.65441429,7.75052632 1.57746479,7.63368421 1.42356578,7.47789474 C1.30814153,7.36105263 1.07729303,7.24421053 0.80796977,7.24421053 C0.577121264,7.24421053 0.42322226,7.32210526 0.269323257,7.51684211 C0.192373755,7.75052632 0.115424253,7.90631579 0.115424253,8.14 Z" id="XMLID_154_"></path>
                </g>
            </g>
            <g id="XMLID_1_">
                <path d="M41.5660256,16.93375 C41.4878205,16.77875 40.9403846,16.15875 40.8621795,16.0425 C39.9628205,15.15125 38.6333333,14.6475 37.3038462,15.07375 C37.3038462,15.5 37.7339744,15.84875 37.9294872,15.965 C38.2032051,16.15875 38.5551282,16.39125 38.9070513,16.585 C39.7673077,16.85625 40.5884615,17.01125 41.5660256,16.93375 Z" id="XMLID_4_"></path>
                <path d="M41.0185897,14.22125 C42.1525641,14.4925 43.6775641,14.57 44.8897436,14.415 C46.1019231,14.26 47.3532051,14.14375 48.4089744,13.64 C48.0570513,13.485 47.1576923,12.9425 46.649359,12.7875 C45.2416667,12.51625 43.4429487,13.485 41.9570513,13.91125 L41.0185897,14.22125 Z" id="XMLID_11_"></path>
                <path d="M33.8628205,10.11375 L33.4326923,10.4625 C33.2762821,10.54 33.0025641,10.65625 32.924359,10.81125 L34.3320513,10.6175 L34.2538462,10.7725 C34.175641,10.9275 33.7064103,11.5475 33.7455128,11.74125 L34.2538462,11.315 C34.3320513,11.2375 34.6057692,10.96625 34.8012821,10.96625 L34.8794872,12.12875 C35.075,11.78 35.0358974,11.8575 35.1532051,11.50875 C35.2314103,11.35375 35.3096154,10.96625 35.3487179,10.81125 L35.6224359,11.005 C35.7788462,11.16 35.974359,11.78 36.1698718,11.78 L36.0916667,10.65625 C36.3653846,10.65625 36.6391026,11.43125 36.9519231,11.27625 C37.0301282,11.19875 36.9519231,11.12125 36.9519231,11.0825 C36.7955128,10.73375 36.4435897,10.23 36.4435897,10.03625 L37.5775641,10.3075 C37.3820513,10.1525 36.6,9.765 36.6,9.6875 L37.9294872,9.18375 L36.6782051,9.10625 C36.9519231,8.95125 37.225641,8.835 37.5384615,8.6025 L36.5608974,8.525 L36.9128205,8.09875 C37.0692308,7.94375 37.1865385,7.8275 37.1865385,7.6725 L36.2871795,7.86625 C36.4435897,7.71125 36.7955128,7.32375 36.7955128,7.16875 C36.5217949,7.32375 36.2871795,7.3625 36.0134615,7.595 C35.7397436,7.78875 35.6615385,7.86625 35.5833333,7.86625 C35.5051282,7.595 35.7397436,7.01375 35.5833333,6.7425 L35.075,7.905 C34.9185897,7.55625 34.8794872,7.3625 34.7230769,7.01375 C34.6448718,6.85875 34.6448718,6.82 34.5275641,6.82 L34.449359,7.9825 L34.0974359,7.63375 C34.0192308,7.47875 33.9410256,7.285 33.8237179,7.285 L34.0192308,8.33125 L33.0416667,7.8275 L33.3153846,8.4475 C33.4717949,8.64125 33.6673077,8.87375 33.5891026,8.99 L32.4551282,8.835 L33.3544872,9.33875 L32.2987179,9.8425 L33.8628205,10.11375 Z M35.0358974,8.68 C35.6615385,8.525 36.0916667,9.10625 36.1698718,9.57125 C36.2480769,10.19125 35.8179487,10.695 35.3096154,10.73375 C34.6839744,10.81125 34.2538462,10.3075 34.175641,9.8425 C34.1365385,9.2225 34.5666667,8.71875 35.0358974,8.68 Z" id="XMLID_14_"></path>
                <path d="M39.7673077,13.8725 C41.2532051,13.36875 42.5044872,12.4775 43.6384615,11.50875 C43.5602564,11.43125 43.2865385,11.43125 43.1301282,11.43125 C41.3705128,11.43125 39.3371795,12.59375 38.2032051,13.795 C38.2032051,13.95 38.0467949,13.98875 38.0076923,14.14375 C38.3987179,14.29875 39.4153846,14.0275 39.7673077,13.8725 Z" id="XMLID_15_"></path>
                <path d="M60.2961538,6.85875 L58.7711538,6.70375 C58.849359,6.62625 58.9275641,6.54875 58.9666667,6.51 C59.3967949,6.08375 59.9442308,5.38625 60.2961538,4.92125 C60.4916667,4.65 60.8435897,4.06875 60.7262821,3.68125 C60.6480769,3.4875 60.5307692,3.3325 60.2961538,3.255 L59.5141026,3.255 C59.5923077,3.06125 59.7878205,2.75125 59.9442308,2.5575 C60.2179487,2.05375 60.6480769,1.51125 60.6480769,0.96875 C60.6480769,0.62 60.4525641,0.34875 60.1397436,0.27125 C59.5923077,0.11625 58.6538462,0.42625 58.2628205,0.62 L57.2852564,1.04625 C54.4698718,2.36375 51.7326923,4.1075 49.0737179,5.77375 C48.6435897,6.045 48.2916667,6.1225 47.900641,6.31625 C46.375641,7.01375 44.6942308,7.71125 43.2865385,8.6025 C42.0352564,9.41625 41.1358974,10.03625 40.4320513,11.3925 C40.3538462,11.43125 40.3147436,11.43125 40.2365385,11.47 C40.1192308,11.5475 40.0019231,11.58625 39.9237179,11.625 C39.9237179,11.625 39.8846154,11.625 39.8846154,11.66375 C39.8846154,11.625 39.8846154,11.58625 39.8846154,11.5475 C40.0410256,10.3075 39.9628205,8.835 39.2589744,7.78875 C39.0634615,7.44 38.8288462,7.285 38.6333333,7.09125 C38.4769231,6.93625 38.3596154,6.82 38.125,6.7425 C38.0467949,6.7425 38.0467949,6.7425 38.0467949,6.7425 C37.9685897,6.665 37.8903846,6.665 37.8512821,6.5875 L35.6615385,6.16125 C35.9352564,5.61875 38.6724359,4.4175 38.9461538,4.14625 L39.2980769,3.7975 C39.1416667,3.60375 38.3987179,3.60375 38.125,3.60375 C36.2871795,3.60375 34.2147436,4.37875 32.8070513,5.3475 C32.025,5.89 31.9467949,6.045 31.399359,6.7425 C31.3211538,6.665 30.8519231,6.2 30.6955128,6.045 C30.4217949,5.77375 30.1871795,5.54125 29.9134615,5.3475 C28.7794872,4.45625 27.45,3.75875 26.0032051,3.4875 C25.5730769,3.41 25.1429487,3.3325 24.7519231,3.29375 L23.4615385,3.29375 C23.4615385,3.565 24.0089744,3.91375 24.2435897,4.06875 C24.8692308,4.495 25.4948718,4.92125 26.0814103,5.30875 C26.1596154,5.38625 26.2378205,5.38625 26.2769231,5.46375 C26.3551282,5.46375 26.4333333,5.54125 26.4724359,5.61875 C26.6288462,5.69625 26.6679487,5.8125 26.824359,5.9675 C26.6679487,5.9675 26.4724359,6.045 26.3160256,6.045 C25.2602564,6.2 24.1262821,6.665 23.4224359,7.3625 C23.3442308,7.44 23.3442308,7.44 23.2660256,7.5175 C23.0705128,7.75 22.8358974,8.17625 22.6403846,8.525 C21.5846154,10.6175 22.4448718,13.75625 23.3442308,15.8875 C23.4224359,16.0425 23.774359,16.77875 23.774359,16.85625 C23.774359,16.93375 23.6961538,17.01125 23.6961538,17.05 L23.6179487,17.55375 C23.4615385,17.55375 23.3442308,17.2825 23.2660256,17.205 C22.9923077,16.77875 22.7576923,16.15875 22.5621795,15.7325 C22.2884615,15.1125 21.9365385,14.57 21.7019231,13.795 C21.2717949,12.20625 20.9980769,11.0825 19.9423077,9.92 C19.7467949,9.64875 19.5121795,9.41625 19.2384615,9.2225 C18.9647436,9.02875 18.6910256,8.87375 18.3782051,8.68 C16.9705128,7.78875 16.1884615,7.3625 14.7416667,6.7425 C13.7641026,6.23875 12.7083333,5.89 11.7307692,5.5025 C11.574359,5.425 11.4570513,5.30875 11.300641,5.23125 C10.049359,4.37875 8.71987179,3.6425 7.39038462,2.8675 C6.06089744,2.0925 3.16730769,0.50375 1.72051282,0.155 C0.742948718,-0.03875 0.0391025641,0.31 0.469230769,1.3175 C0.625641026,1.58875 0.821153846,1.9375 0.977564103,2.20875 L1.525,3.06125 C1.17307692,3.06125 0.66474359,2.98375 0.391025641,3.255 C0.312820513,3.3325 0.312820513,3.41 0.234615385,3.52625 L0.234615385,3.7975 L0.312820513,3.99125 C0.586538462,4.76625 1.64230769,5.8125 2.18974359,6.4325 C1.68141026,6.4325 1.13397436,6.355 0.703846154,6.5875 C0.273717949,6.85875 0.273717949,7.285 0.547435897,7.71125 C0.899358974,8.25375 1.68141026,8.87375 2.22884615,9.3 C1.87692308,9.455 1.25128205,9.3775 1.09487179,9.92 C0.938461538,10.4625 1.525,10.88875 1.72051282,11.04375 C2.15064103,11.3925 2.69807692,11.81875 3.24551282,12.09 C3.32371795,12.1675 3.44102564,12.1675 3.51923077,12.245 C3.5974359,12.245 3.5974359,12.3225 3.67564103,12.3225 C3.83205128,12.4 3.75384615,12.3225 3.83205128,12.4 C3.32371795,12.4775 2.77628205,12.59375 2.42435897,12.90375 C1.99423077,13.2525 2.26794872,13.8725 2.69807692,14.06625 L5.27884615,15.19 C5.00512821,15.345 3.75384615,15.61625 3.87115385,16.3525 C3.94935897,16.54625 4.06666667,16.77875 4.30128205,16.85625 C5.08333333,17.2825 6.41282051,17.39875 7.23397436,17.55375 C7.15576923,17.63125 6.60833333,17.98 6.45192308,18.0575 C6.37371795,18.135 6.29551282,18.2125 6.25641026,18.25125 C5.98269231,18.6 5.90448718,19.10375 6.41282051,19.2975 C7.11666667,19.56875 8.64166667,19.56875 9.50192308,19.49125 C9.15,19.7625 8.52435897,20.18875 8.44615385,20.65375 C8.28974359,21.50625 9.50192308,21.35125 9.97115385,21.35125 C10.4012821,21.35125 10.8705128,21.27375 11.300641,21.19625 C11.1051282,21.27375 10.2448718,22.2425 11.0269231,22.59125 C11.5352564,22.8625 13.0602564,22.43625 13.6076923,22.2425 L14.1551282,22.04875 C14.0769231,22.20375 13.9987179,22.2425 13.9596154,22.32 C13.7641026,22.59125 13.5294872,22.82375 13.4121795,23.1725 C13.2166667,23.7925 13.6076923,24.06375 14.2724359,23.9475 C14.7807692,23.7925 15.1717949,23.67625 15.6019231,23.44375 C16.0320513,23.25 16.3839744,22.94 16.775,22.74625 C16.775,22.82375 16.6967949,22.94 16.6185897,23.0175 C16.6185897,23.095 16.5403846,23.21125 16.4621795,23.28875 C16.3839744,23.44375 16.2666667,23.6375 16.1884615,23.83125 C15.9929487,24.335 16.2666667,24.8775 16.8923077,24.68375 C17.674359,24.4125 18.4173077,23.83125 19.0820513,23.36625 C18.925641,23.7925 18.5346154,24.2575 18.6519231,24.76125 C18.7301282,24.955 18.925641,25.1875 19.199359,25.11 C19.5512821,25.11 20.0987179,24.68375 20.3724359,24.49 C20.5288462,24.335 20.724359,24.21875 20.8807692,24.06375 C21.0371795,23.87 21.1544872,23.7925 21.3108974,23.56 L21.7410256,23.05625 C21.5846154,23.4825 20.8807692,24.7225 21.3108974,25.14875 C21.8192308,25.69125 22.9923077,24.37375 23.2660256,23.98625 C23.5397436,23.56 23.774359,23.13375 23.9698718,22.66875 C24.1653846,21.97125 24.3217949,21.19625 24.4782051,20.46 L24.9083333,20.65375 C24.9083333,21.42875 24.9083333,21.97125 25.1038462,22.66875 C25.299359,23.44375 25.6121795,23.98625 25.9641026,24.60625 C26.1596154,24.8 26.1987179,24.8 26.1987179,24.99375 C26.1987179,25.3425 26.2769231,25.61375 26.3942308,25.885 C26.4724359,26.15625 26.5897436,26.38875 26.7461538,26.66 L27.0980769,27.435 C27.0198718,27.5125 26.9416667,27.59 26.9025641,27.62875 C26.6288462,27.8225 26.3942308,28.055 26.1987179,28.24875 C25.925,28.5975 25.6512821,28.86875 25.4948718,29.3725 C25.4948718,29.5275 25.3384615,29.9925 25.4166667,30.1475 C25.4948718,30.34125 25.6903846,30.65125 25.8467949,30.65125 C26.3942308,30.65125 26.824359,30.225 27.1762821,30.1475 C27.2544872,30.3025 27.3717949,30.49625 27.5282051,30.57375 C27.6846154,30.72875 27.9583333,30.72875 28.1538462,30.65125 C28.5057692,30.4575 28.7794872,30.1475 29.0141026,29.87625 C29.0923077,29.87625 29.2096154,30.03125 29.2878205,30.07 C29.5615385,30.26375 29.7179487,30.6125 30.0698718,30.7675 C30.5782051,30.9225 30.7737179,30.34125 30.7737179,29.9925 L30.7737179,29.56625 L30.9301282,29.56625 C30.9301282,29.72125 30.7737179,29.9925 30.7737179,30.26375 C30.7737179,30.535 30.9301282,30.7675 31.2038462,30.69 C31.4775641,30.6125 31.9076923,30.1475 32.1032051,29.915 C32.3769231,29.9925 32.6115385,30.69 32.8852564,30.69 C33.5108974,30.6125 33.5108974,30.26375 33.7846154,30.07 C34.2147436,30.1475 34.7621795,30.57375 35.2705128,30.49625 C35.4660256,30.49625 35.700641,30.3025 35.6224359,29.9925 C35.6224359,28.94625 34.9967949,28.17125 33.6673077,27.28 C33.7455128,27.125 34.175641,26.4275 34.2929487,25.8075 L34.6448718,24.06375 C34.7230769,23.98625 34.8403846,23.90875 34.9185897,23.7925 C35.1923077,23.52125 35.5442308,23.0175 35.6224359,22.63 L35.8961538,20.46 L36.1698718,20.26625 C36.2480769,20.42125 36.3262821,20.77 36.3262821,20.96375 C36.3262821,21.235 36.4044872,21.4675 36.4826923,21.73875 C36.6391026,22.59125 37.1083333,23.59875 37.6557692,24.18 C37.9294872,24.45125 38.2032051,24.7225 38.6333333,25.0325 C39.1807692,25.38125 39.6108974,25.0325 39.4935897,24.335 C39.4153846,24.14125 39.2980769,23.83125 39.2198718,23.6375 C39.0634615,23.28875 39.0634615,23.21125 39.024359,23.095 C39.4544872,23.7925 40.0801282,24.4125 41.2532051,24.955 C41.4487179,25.11 41.9570513,25.38125 42.2307692,25.14875 C42.5826923,24.955 42.4262821,24.37375 42.3089744,24.1025 L42.0352564,23.56 C42.1134615,23.6375 42.1134615,23.6375 42.1916667,23.715 C42.7391026,24.21875 43.6775641,24.68375 44.3032051,24.8775 C44.6551282,24.955 44.850641,24.8 44.9288462,24.52875 C45.0852564,23.98625 44.6551282,23.36625 44.3032051,22.8625 C44.3814103,22.94 44.4596154,23.0175 44.5769231,23.05625 C44.850641,23.3275 46.2583333,23.90875 46.6102564,23.9475 C46.9621795,24.1025 47.3141026,24.14125 47.5096154,23.9475 C47.7833333,23.75375 47.7051282,23.44375 47.5878205,23.1725 C47.3141026,22.74625 47.3141026,22.66875 46.9621795,22.28125 C47.5096154,22.5525 49.425641,23.1725 50.1294872,22.90125 C50.6769231,22.7075 50.4032051,22.12625 50.1294872,21.7775 C49.9730769,21.6225 49.9730769,21.6225 49.8557692,21.50625 C50.4814103,21.50625 51.5371795,22.04875 52.5147436,21.50625 C53.1403846,21.0025 52.3583333,20.34375 51.9673077,20.03375 L51.4589744,19.685 C52.0846154,19.685 52.3192308,19.7625 53.1403846,19.7625 C53.6487179,19.7625 54.274359,19.7625 54.6653846,19.56875 C55.2128205,19.2975 55.0955128,18.79375 54.7435897,18.445 L53.6096154,17.7475 C53.8833333,17.67 54.1570513,17.67 54.4698718,17.67 C55.1737179,17.5925 56.1512821,17.39875 56.6987179,17.1275 C57.2461538,16.85625 57.324359,16.3525 56.8551282,16.00375 L55.6038462,15.38375 C56.1512821,15.19 56.3858974,15.19 57.0897436,14.88 C57.5980769,14.68625 58.6147436,14.26 58.849359,13.75625 C58.9275641,13.485 58.7711538,13.21375 58.6538462,13.05875 C58.3019231,12.7875 57.7544872,12.6325 57.324359,12.555 L57.1679487,12.4775 L57.2461538,12.4775 L57.7544872,12.20625 C58.3019231,11.935 58.8884615,11.50875 59.3576923,11.16 C59.5532051,10.96625 60.1397436,10.54 59.9833333,10.03625 L58.8102564,9.41625 L58.9666667,9.33875 C59.3185897,9.0675 59.5923077,8.79625 59.9442308,8.48625 C60.2179487,8.2925 60.374359,8.1375 60.5698718,7.86625 C60.7262821,7.55625 60.7262821,7.0525 60.2961538,6.85875 Z M22.7185897,20.46 L22.9141026,20.46 C22.8358974,20.615 22.7576923,20.73125 22.7185897,20.88625 C22.6403846,21.08 22.5230769,21.3125 22.4448718,21.39 L22.7185897,20.46 Z M0.821153846,0.62 C1.99423077,0.42625 6.72564103,3.1775 7.625,3.75875 L9.93205128,5.15375 C10.4403846,5.425 10.4403846,5.425 10.5576923,5.77375 C11.1051282,6.93625 11.6134615,7.9825 12.2391026,9.10625 C11.8871795,9.02875 10.7141026,8.6025 10.3621795,8.56375 C9.73653846,8.37 9.18910256,8.1375 8.52435897,7.86625 C7.97692308,7.595 7.35128205,7.3625 6.84294872,7.01375 C6.06089744,6.51 5.31794872,6.1225 4.61410256,5.5025 C4.10576923,5.07625 3.44102564,4.45625 3.01089744,3.99125 C2.65897436,3.565 2.5025641,3.44875 2.15064103,2.945 C1.87692308,2.5575 0.821153846,1.085 0.821153846,0.62 Z M2.22884615,5.6575 L1.68141026,5.0375 C1.525,4.8825 0.782051282,3.91375 0.782051282,3.6425 C0.977564103,3.4875 1.64230769,3.6425 1.83782051,3.72 C2.03333333,3.7975 2.03333333,3.875 2.18974359,3.99125 C2.54166667,4.495 3.08910256,4.96 3.51923077,5.38625 C3.79294872,5.6575 4.0275641,5.89 4.37948718,6.08375 C6.84294872,8.02125 9.58012821,9.0675 12.5910256,9.92 C12.9429487,9.9975 12.7865385,9.92 13.1384615,10.54 C12.1217949,10.4625 9.93205128,9.9975 9.11089744,9.6875 C7.35128205,9.18375 5.66987179,8.4475 4.18397436,7.40125 C3.98846154,7.24625 3.67564103,7.0525 3.48012821,6.85875 C3.08910256,6.4325 2.65897436,6.16125 2.22884615,5.6575 Z M0.821153846,7.13 C1.17307692,6.93625 2.30705128,7.13 2.69807692,7.13 C2.89358974,7.13 3.12820513,7.40125 3.32371795,7.55625 C3.51923077,7.71125 3.75384615,7.8275 3.94935897,7.9825 C5.82628205,9.2225 7.66410256,9.9975 9.89294872,10.50125 C11.0660256,10.7725 12.2,11.005 13.4512821,11.12125 L13.6467949,11.3925 C11.1833333,11.5475 8.25064103,11.315 5.94358974,10.50125 C4.80961538,10.075 3.91025641,9.64875 3.05,9.02875 C2.77628205,9.02875 0.821153846,7.55625 0.821153846,7.13 Z M3.28461538,11.315 C2.85448718,11.04375 1.75961538,10.34625 1.60320513,10.075 C1.79871795,9.9975 2.77628205,9.80375 3.01089744,9.92 C3.36282051,10.11375 3.63653846,10.34625 4.06666667,10.54 C4.84871795,10.88875 5.5525641,11.2375 6.45192308,11.50875 L12.3564103,12.28375 L14.1942308,12.20625 L14.4679487,12.6325 L10.1275641,13.05875 C8.28974359,13.05875 6.76474359,12.7875 5.20064103,12.20625 C4.45769231,11.935 3.83205128,11.66375 3.28461538,11.315 Z M3.44102564,13.7175 C3.16730769,13.52375 3.01089744,13.44625 2.81538462,13.29125 C3.16730769,13.02 4.69230769,12.7875 4.92692308,12.7875 C5.08333333,12.865 5.35705128,12.9425 5.5525641,12.98125 C7.50769231,13.60125 9.6974359,13.75625 11.7307692,13.52375 C12.2391026,13.44625 12.7865385,13.44625 13.2557692,13.36875 L14.7807692,13.175 L14.9762821,13.44625 C14.8198718,13.60125 13.8423077,13.8725 13.5685897,13.95 C10.9096154,14.84125 8.21153846,15.2675 5.47435897,14.4925 C4.77051282,14.29875 4.06666667,14.0275 3.44102564,13.7175 Z M6.17820513,16.6625 L4.49679487,16.15875 C4.49679487,16.08125 4.49679487,16.08125 4.575,16.08125 L4.65320513,16.00375 C5.08333333,15.7325 5.78717949,15.5 6.25641026,15.38375 C6.53012821,15.30625 6.45192308,15.30625 6.76474359,15.30625 C8.6025641,15.5775 10.4794872,15.38375 12.1608974,14.9575 C13.2948718,14.68625 14.2724359,14.3375 15.3673077,13.98875 L15.5628205,14.3375 C15.4064103,14.4925 14.0769231,15.1125 13.9596154,15.19 C12.2,16.15875 10.2448718,16.85625 8.13333333,16.85625 C7.54679487,16.85625 6.6474359,16.77875 6.17820513,16.6625 Z M8.48525641,18.87125 C8.32884615,18.87125 6.88205128,18.71625 6.6474359,18.6775 C6.80384615,18.40625 8.48525641,17.55375 8.75897436,17.515 C9.73653846,17.4375 10.6358974,17.32125 11.574359,17.01125 L16.149359,14.99625 L16.5012821,15.4225 C16.3057692,15.61625 15.0935897,16.46875 14.8980769,16.6625 C14.350641,17.01125 13.7641026,17.4375 13.1384615,17.70875 C11.6916667,18.40625 10.2448718,18.87125 8.48525641,18.87125 Z M9.22820513,20.6925 L9.03269231,20.6925 C9.18910256,20.42125 10.7923077,19.2975 10.9878205,19.18125 C11.1833333,19.10375 11.5352564,19.02625 11.8871795,18.91 C13.0211538,18.48375 14.0769231,17.94125 14.9762821,17.32125 C15.3282051,17.1275 15.6019231,16.895 15.875641,16.70125 C16.3057692,16.3525 16.3057692,16.3525 16.775,16.08125 L17.1269231,16.585 L16.3448718,17.36 C15.0153846,18.6775 13.6858974,19.80125 11.7307692,20.42125 C11.2224359,20.5375 10.0884615,20.77 9.22820513,20.6925 Z M13.725,21.39 C13.099359,21.73875 12.1217949,21.9325 11.4179487,22.01 C11.4961538,21.73875 12.3955128,21.04125 12.6692308,20.77 C12.7474359,20.6925 12.7474359,20.6925 12.8647436,20.615 C13.9205128,20.11125 15.0544872,19.4525 15.875641,18.6775 C16.0320513,18.5225 16.149359,18.48375 16.2275641,18.32875 C16.3839744,18.17375 16.8532051,17.70875 17.0096154,17.63125 L17.9089744,17.08875 C17.9871795,17.24375 18.1826923,17.36 18.2608974,17.4375 C18.1826923,17.5925 17.400641,18.48375 17.3615385,18.6 L17.0096154,18.94875 C16.9314103,19.02625 16.9314103,19.10375 16.8532051,19.1425 C16.5794872,19.49125 15.875641,20.03375 15.5237179,20.305 C15.0544872,20.77 14.4288462,21.11875 13.725,21.39 Z M15.8365385,22.5525 C15.4064103,22.7075 14.6634615,23.095 14.0769231,23.1725 C14.1551282,22.97875 14.7025641,22.32 14.8589744,22.12625 C14.9371795,22.04875 14.9371795,21.97125 15.0153846,21.97125 C15.0935897,21.89375 15.1717949,21.89375 15.1717949,21.81625 C15.6019231,21.3125 17.2833333,19.72375 17.8307692,19.25875 C17.9089744,19.18125 17.9089744,19.18125 17.9871795,19.10375 C18.0653846,19.02625 18.1435897,19.02625 18.1435897,18.94875 C18.4173077,18.6775 18.6910256,18.445 19.0038462,18.25125 L19.3557692,18.5225 C19.2775641,18.71625 18.4955128,19.84 18.4564103,20.03375 C17.7134615,21.04125 16.8141026,22.01 15.8365385,22.5525 Z M19.199359,22.20375 C18.6910256,22.74625 18.2217949,23.25 17.5179487,23.59875 C17.3615385,23.67625 16.9705128,23.9475 16.8141026,23.9475 C17.0096154,23.25 18.8474359,21.08 19.3948718,20.42125 C19.6685897,20.0725 20.0205128,19.64625 20.2942308,19.2975 L20.6461538,19.49125 C20.6461538,19.685 20.1378205,20.65375 20.0205128,20.96375 C19.825,21.4675 19.4730769,21.855 19.199359,22.20375 Z M21.7410256,21.73875 C21.3891026,22.63 21.0371795,23.05625 20.4115385,23.75375 C20.1378205,23.75375 19.6294872,24.18 19.3557692,24.29625 C19.4339744,24.025 19.7858974,23.44375 19.9032051,23.25 C20.0987179,22.90125 20.3333333,22.5525 20.5288462,22.28125 C20.9589744,21.58375 21.3891026,20.96375 21.8583333,20.34375 L22.1320513,20.49875 C22.1320513,20.77 21.7801282,21.4675 21.7410256,21.73875 Z M23.4615385,21.73875 C23.2660256,22.43625 22.9532051,23.05625 22.5621795,23.59875 C22.3666667,23.87 22.0538462,24.14125 21.8583333,24.29625 C22.0147436,23.59875 23.3833333,21.1575 23.6961538,20.5375 C23.6961538,20.80875 23.5397436,21.4675 23.4615385,21.73875 Z M48.6435897,8.6025 C49.1519231,7.75 49.699359,6.5875 50.0512821,5.735 C50.2467949,5.1925 50.2076923,5.30875 50.5987179,5.0375 C50.8724359,4.8825 51.1070513,4.68875 51.3807692,4.53375 C51.8891026,4.2625 52.4365385,3.91375 52.9057692,3.6425 C53.9615385,3.0225 54.9391026,2.48 56.0730769,1.89875 L59.6314103,0.58125 C59.7096154,1.085 58.1064103,3.21625 57.7544872,3.6425 C55.5647436,6.2 52.6320513,7.8275 49.425641,8.79625 C49.1519231,8.79625 48.8,8.95125 48.4480769,8.99 C48.5262821,8.87375 48.6044872,8.71875 48.6435897,8.6025 Z M47.900641,10.03625 C48.0570513,9.8425 47.9788462,9.8425 48.2525641,9.765 C48.5262821,9.6875 48.8782051,9.61 49.1519231,9.49375 C51.8108974,8.71875 54.1961538,7.6725 56.3076923,5.9675 C56.3858974,5.89 56.8551282,5.46375 56.9333333,5.425 L57.5589744,4.8825 C57.9108974,4.53375 58.1846154,4.185 58.5365385,3.75875 C58.6147436,3.68125 58.6147436,3.68125 58.7320513,3.68125 L59.7878205,3.60375 C59.7878205,3.875 59.2794872,4.45625 59.0839744,4.7275 C58.8884615,4.92125 58.4583333,5.5025 58.2237179,5.69625 C58.1455128,5.77375 58.1455128,5.77375 58.0673077,5.85125 C55.6820513,8.40875 52.1237179,9.6875 48.6044872,10.3075 C48.4089744,10.3075 47.9788462,10.4625 47.6269231,10.4625 C47.7442308,10.34625 47.8224359,10.11375 47.900641,10.03625 Z M34.9967949,6.51 C36.8346154,6.355 38.2814103,7.8275 38.3596154,9.49375 C38.4378205,11.2375 37.1083333,12.82625 35.4269231,12.90375 C33.5891026,13.05875 32.2205128,11.58625 32.0641026,9.92 C31.9076923,8.09875 33.3153846,6.665 34.9967949,6.51 Z M30.9692308,10.385 L31.1647436,10.65625 L32.0641026,12.245 C32.2205128,12.51625 32.2205128,12.4 31.9858974,12.9425 C31.9467949,12.98125 31.9076923,13.0975 31.7903846,13.33 L31.2820513,14.725 C31.0474359,15.30625 30.8519231,15.84875 30.8128205,15.8875 C30.7346154,15.81 29.6788462,13.175 29.6397436,12.98125 C29.4442308,12.43875 29.4833333,12.71 30.1480769,11.66375 C30.3044872,11.47 30.4217949,11.2375 30.5782051,11.04375 L30.9692308,10.385 Z M26.6288462,6.355 C28.5057692,6.16125 29.9134615,7.595 30.1480769,9.26125 C30.3435897,11.12125 28.975,12.59375 27.2544872,12.74875 C25.3775641,13.02 23.8916667,11.58625 23.7352564,9.88125 C23.6179487,8.09875 25.025641,6.5875 26.6288462,6.355 Z M24.3217949,16.39125 C24.1262821,16.54625 24.1262821,16.54625 23.8916667,16.39125 C23.6961538,16.23625 23.3833333,15.965 23.3833333,15.61625 C23.5397436,15.53875 24.5173077,15.07375 24.7910256,14.91875 C25.7685897,14.415 26.9025641,13.95 27.9583333,13.795 L29.8352564,13.60125 L30.1871795,14.57 C29.8352564,14.4925 28.5057692,14.76375 28.075641,14.84125 C27.45,14.99625 26.824359,15.19 26.2378205,15.38375 C25.6903846,15.5775 25.1038462,15.8875 24.6346154,16.15875 C24.5173077,16.23625 24.4,16.31375 24.3217949,16.39125 Z M29.7179487,30.225 C29.5224359,30.03125 29.1705128,29.5275 28.8576923,29.5275 C28.5839744,29.5275 28.3102564,30.07 28.075641,30.225 C27.9974359,30.3025 27.8019231,30.3025 27.7237179,30.225 C27.5673077,30.225 27.3717949,29.79875 27.2935897,29.6825 C27.0980769,29.48875 26.8634615,29.6825 26.6679487,29.8375 C26.5115385,29.915 26.5115385,29.9925 26.3942308,30.03125 C26.3160256,30.03125 26.1205128,30.225 26.0423077,30.225 C25.7685897,30.07 25.9641026,29.6825 26.0423077,29.5275 C26.3942308,28.83 27.5282051,27.78375 28.5057692,28.1325 C28.7012821,28.21 29.0141026,28.40375 29.1314103,28.48125 C29.4833333,28.7525 29.7570513,29.10125 30.0307692,29.605 C30.1089744,29.76 30.1089744,29.76 30.1089744,29.95375 C30.0698718,30.26375 29.9916667,30.49625 29.7179487,30.225 Z M30.6173077,25.61375 C29.9134615,24.7225 29.7570513,27.9775 28.5057692,26.66 C28.075641,26.23375 27.8801282,25.61375 27.6064103,25.07125 C27.5282051,24.8775 27.4108974,24.7225 27.4108974,24.45125 C27.4108974,23.56 28.5448718,24.7225 28.6621795,24.955 C29.0923077,25.45875 29.3660256,24.45125 29.9134615,23.98625 C30.3435897,23.6375 30.7737179,24.14125 30.9692308,24.335 C31.1647436,24.60625 31.4775641,25.0325 31.6730769,25.22625 C32.1814103,25.6525 32.3769231,25.07125 32.5724359,24.7225 C32.7679487,24.5675 33.1198718,24.025 33.4717949,24.025 C33.9019231,24.45125 32.8461538,26.04 32.6897436,26.31125 C31.7512821,27.78375 31.3211538,26.46625 30.6173077,25.61375 Z M34.9185897,30.1475 C34.9185897,30.34125 34.2929487,30.07 34.1365385,29.9925 C33.9410256,29.8375 33.7064103,29.64375 33.6282051,29.56625 C33.4326923,29.48875 33.0807692,30.41875 32.7288462,30.34125 C32.5724359,30.34125 32.5333333,30.18625 32.5333333,30.1475 C32.4551282,30.07 32.3769231,29.9925 32.3378205,29.95375 C31.7903846,29.33375 31.6339744,29.79875 31.3602564,30.03125 C31.3602564,30.18625 31.0865385,30.4575 30.9301282,30.4575 C30.7737179,29.95375 31.2038462,29.295 31.4384615,28.985 C31.6339744,28.63625 32.1423077,28.2875 32.7679487,28.2875 C33.1198718,28.2875 33.3153846,28.365 33.6282051,28.4425 C34.2147436,28.5975 35.0358974,29.45 34.9185897,30.1475 Z M33.0025641,23.4825 C32.2987179,22.8625 32.2205128,20.305 31.125641,22.7075 C30.9301282,23.25 30.5,23.9475 29.9525641,23.21125 C29.7570513,22.94 29.5224359,22.43625 29.3269231,22.0875 C28.975,21.4675 28.6230769,22.01 28.4666667,22.43625 C28.3102564,22.7075 28.1929487,22.97875 28.0365385,23.21125 C27.5282051,23.715 26.9807692,23.05625 26.7070513,22.59125 C26.5115385,22.43625 25.8467949,21.35125 25.8467949,21.08 C25.7685897,20.11125 26.824359,21.08 27.0198718,21.27375 C27.3717949,21.6225 27.2935897,21.7775 27.9974359,21.08 C28.6230769,20.305 28.8967949,20.03375 29.5224359,21.1575 C30.3826923,22.5525 30.5782051,21.9325 31.2820513,21.0025 C31.4384615,20.8475 31.7121795,20.49875 31.9076923,20.46 C32.6115385,20.18875 32.7679487,21.35125 33.1589744,21.42875 C33.4326923,21.50625 33.7064103,21.08 33.8628205,21.0025 C33.9410256,20.925 34.4884615,20.46 34.6448718,20.73125 C34.9185897,21.1575 33.7064103,24.025 33.0025641,23.4825 Z M35.7397436,18.09625 C35.5833333,18.5225 35.3878205,18.94875 35.1923077,19.22 C34.9967949,19.49125 34.6839744,19.9175 34.2929487,19.995 C33.7455128,20.0725 33.2371795,19.1425 33.0416667,18.755 C32.9634615,18.56125 32.8461538,18.2125 32.6115385,18.40625 C32.1814103,18.755 31.7512821,20.57625 31.0083333,19.80125 C30.4608974,19.25875 30.3044872,17.5925 29.5224359,18.91 C29.3660256,19.18125 29.0923077,19.80125 28.7403846,19.80125 C28.0365385,19.80125 27.6846154,17.63125 27.0589744,18.63875 C26.8634615,18.9875 26.7070513,19.49125 26.5115385,19.7625 C26.0814103,20.305 25.8076923,19.7625 25.5339744,19.49125 C25.3384615,19.22 25.025641,18.87125 24.9083333,18.445 C24.9083333,18.25125 24.5564103,17.39875 24.7519231,17.1275 C24.9474359,17.1275 25.1820513,17.47625 25.299359,17.63125 C25.5730769,17.9025 26.0032051,18.40625 26.3551282,17.55375 C26.550641,17.1275 26.8634615,16.23625 27.3326923,16.5075 C27.8410256,16.77875 28.3102564,17.7475 28.5839744,18.17375 C28.9358974,18.6775 29.4442308,17.32125 29.4833333,17.05 C29.5615385,16.77875 29.9134615,16.275 30.2653846,16.54625 C30.8910256,17.05 31.2429487,19.10375 31.7903846,17.86375 C31.9467949,17.4375 32.3378205,16.74 32.6897436,16.54625 C33.3153846,16.275 33.3153846,17.67 34.175641,17.86375 C34.6057692,17.94125 34.9576923,17.70875 35.2314103,17.4375 C35.7397436,17.01125 35.3878205,17.24375 36.0134615,16.74 C36.1698718,17.08875 35.8961538,17.78625 35.7397436,18.09625 Z M36.0134615,15.53875 C35.9352564,15.46125 35.8570513,15.38375 35.7397436,15.345 C35.3878205,15.15125 34.8794872,14.91875 34.4884615,14.8025 L31.4384615,14.4925 C31.4775641,14.37625 31.5557692,14.26 31.6339744,14.105 C31.7121795,13.91125 31.7512821,13.75625 31.7903846,13.60125 C31.7903846,13.5625 31.7903846,13.5625 31.7903846,13.52375 C32.2987179,13.52375 33.0807692,13.67875 33.4717949,13.75625 C34.0192308,13.83375 34.6448718,14.0275 35.2314103,14.1825 C35.7788462,14.3375 35.7397436,14.37625 36.0134615,14.26 C36.7955128,13.83375 37.2647436,13.485 37.9685897,12.9425 C38.5160256,12.4775 39.1025641,12.09 39.8064103,11.74125 C39.8846154,11.7025 40.0410256,11.625 40.1974359,11.58625 C40.4320513,11.47 40.6666667,11.3925 40.6666667,11.3925 C40.6666667,11.3925 40.7057692,11.3925 40.7057692,11.3925 C42.0352564,10.96625 43.1692308,10.85 44.5769231,10.88875 C44.6551282,11.8575 43.7166667,12.28375 42.9737179,12.6325 L42.4262821,12.90375 C42.6217949,13.0975 42.5826923,13.0975 42.5044872,13.175 C42.8564103,13.0975 43.9121795,12.67125 44.2641026,12.555 C45.75,12.0125 46.649359,11.935 48.1352564,12.71 C48.4089744,12.865 48.6435897,13.05875 48.8391026,13.21375 C49.0346154,13.36875 49.3474359,13.5625 49.5429487,13.75625 C49.4647436,13.95 48.8391026,14.37625 48.5653846,14.53125 C48.1352564,14.725 47.6660256,14.8025 47.1576923,14.88 C46.1019231,15.035 44.9288462,15.035 43.8730769,15.07375 C44.7724359,15.15125 45.75,15.77125 46.3365385,16.1975 C46.6884615,16.46875 46.9621795,16.74 47.3141026,17.05 C47.7442308,17.32125 47.8615385,17.55375 48.2916667,17.9025 C48.0179487,18.0575 46.6884615,18.40625 46.3365385,18.40625 C45.5544872,18.48375 44.850641,18.32875 44.225,18.0575 C43.3647436,17.63125 42.7,17.08875 41.9961538,16.54625 L41.2141026,16.00375 C41.2923077,16.15875 41.7615385,16.54625 41.8397436,16.70125 L42.3871795,17.47625 C42.1916667,17.63125 41.2141026,17.7475 40.8621795,17.7475 C40.3147436,17.7475 39.7282051,17.67 39.2589744,17.55375 C37.9294872,17.01125 36.8737179,16.39125 36.0134615,15.53875 Z M38.125,21.39 C38.0467949,21.3125 38.0467949,21.19625 37.9685897,21.11875 C37.8121795,20.925 37.7730769,20.77 37.6166667,20.57625 C37.6948718,20.57625 37.7730769,20.57625 37.8121795,20.57625 C37.9294872,20.80875 38.0858974,21.11875 38.125,21.39 Z M37.9294872,23.52125 C37.7339744,23.3275 37.5775641,22.97875 37.4211538,22.66875 C37.1474359,21.97125 36.9910256,21.42875 36.8737179,20.57625 C37.0301282,20.65375 37.6557692,22.04875 37.7730769,22.2425 C38.2032051,23.095 38.3205128,23.36625 38.6333333,24.18 C38.3987179,24.1025 38.0858974,23.75375 37.9294872,23.52125 Z M40.2365385,23.4825 C39.6891026,22.94 39.2589744,22.32 38.9852564,21.545 C38.9070513,21.35125 38.8288462,21.11875 38.7897436,21.0025 C38.7115385,20.8475 38.5942308,20.49875 38.5942308,20.3825 L38.750641,20.305 C39.1807692,20.8475 40.275641,22.59125 40.6275641,23.1725 L41.175,24.21875 C40.8621795,24.025 40.3929487,23.59875 40.2365385,23.4825 Z M42.4262821,23.13375 C41.3705128,22.35875 40.549359,20.8475 40.1192308,19.53 L40.275641,19.4525 C40.3538462,19.53 40.3538462,19.53 40.4320513,19.6075 C40.5102564,19.685 40.5102564,19.685 40.5884615,19.7625 C40.6666667,19.84 40.7448718,19.9175 40.7839744,20.03375 C41.2141026,20.57625 41.6833333,21.08 42.1134615,21.6225 C42.3871795,21.97125 42.6608974,22.32 42.9737179,22.74625 L43.7557692,23.90875 C43.325641,23.83125 42.6217949,23.3275 42.4262821,23.13375 Z M44.8115385,22.43625 C44.3814103,22.165 43.8339744,21.73875 43.4820513,21.3125 C43.0519231,20.80875 42.8564103,20.5375 42.4262821,19.995 C42.1525641,19.49125 41.8788462,19.1425 41.5660256,18.755 C41.4878205,18.6 41.4096154,18.6 41.4096154,18.56125 L41.5660256,18.40625 L41.9179487,18.6775 C42.074359,18.755 42.1134615,18.87125 42.2698718,18.94875 C42.4262821,19.02625 42.4653846,19.1425 42.6217949,19.22 C42.7,19.2975 42.8173077,19.41375 42.9737179,19.49125 C43.0519231,19.56875 43.0519231,19.56875 43.1301282,19.64625 C43.7557692,20.18875 45.4371795,21.81625 45.8673077,22.28125 C46.2192308,22.7075 46.2192308,22.63 46.4929487,23.13375 C45.9064103,23.05625 45.2025641,22.63 44.8115385,22.43625 Z M47.0403846,21.39 C46.4147436,21.11875 45.8673077,20.6925 45.3589744,20.34375 C45.2807692,20.26625 45.2025641,20.26625 45.1634615,20.18875 C45.0852564,20.11125 45.0070513,20.11125 44.9679487,20.03375 C44.7724359,19.87875 44.1076923,19.18125 43.9121795,19.065 L42.6608974,17.5925 L42.9346154,17.4375 L42.8564103,17.2825 C42.9346154,17.2825 43.5602564,17.70875 43.7166667,17.78625 C44.5769231,18.32875 44.6942308,18.6775 45.4762821,19.25875 C45.75,19.4525 46.5320513,19.87875 46.8057692,20.11125 L47.7051282,20.615 C47.900641,20.77 48.2525641,21.11875 48.4871795,21.235 C48.5653846,21.3125 48.6435897,21.3125 48.6826923,21.39 L49.1910256,21.9325 C48.5262821,21.9325 47.5487179,21.58375 47.0403846,21.39 Z M51.5371795,20.615 C50.6378205,20.6925 49.1519231,20.34375 48.3698718,19.995 C47.8224359,19.72375 47.1185897,19.375 46.5320513,18.94875 C46.375641,18.87125 46.1801282,18.755 46.0237179,18.6 C46.1801282,18.6 46.375641,18.6 46.5320513,18.5225 C47.0794872,18.445 47.7051282,18.25125 47.7833333,18.25125 C47.8615385,18.25125 48.3307692,18.5225 48.4871795,18.5225 C48.9173077,18.71625 50.0903846,19.41375 50.3641026,19.685 L51.5371795,20.615 Z M53.9224359,18.6 C53.7269231,18.755 52.7884615,18.755 52.5147436,18.755 C52.0064103,18.755 51.5371795,18.755 51.0288462,18.6 C50.4032051,18.5225 49.7775641,18.32875 49.1910256,18.09625 L48.6435897,17.825 C48.7217949,17.825 48.7217949,17.825 48.8,17.7475 L48.8782051,17.7475 L48.9564103,17.67 C48.8,17.5925 48.7608974,17.515 48.6826923,17.47625 C48.4871795,17.2825 47.8224359,16.77875 47.7051282,16.585 L47.275,16.23625 C47.0012821,16.15875 46.8448718,16.0425 46.5711538,15.81 C46.8448718,15.8875 47.1185897,16.00375 47.4705128,16.15875 C48.3307692,16.5075 49.425641,16.85625 50.3641026,17.05 C50.5596154,17.1275 50.7160256,17.1275 50.8724359,17.205 C51.0288462,17.205 51.224359,17.2825 51.4198718,17.2825 C51.4980769,17.2825 52.2019231,17.63125 52.3192308,17.63125 L53.9224359,18.6 Z M56.0339744,16.15875 L52.8275641,16.70125 C51.6935897,16.70125 50.5987179,16.5075 49.5429487,16.1975 C48.9173077,16.00375 48.0570513,15.69375 47.4314103,15.4225 C47.3532051,15.345 46.8839744,15.22875 46.8057692,15.15125 C47.3141026,15.07375 47.7051282,15.07375 48.2134615,14.9575 C48.5653846,14.88 48.4089744,14.8025 48.8391026,14.88 C49.0346154,14.9575 49.2692308,14.9575 49.5429487,15.035 L52.5538462,15.30625 C53.5314103,15.30625 53.6096154,15.15125 54.5089744,15.46125 L56.0339744,16.15875 Z M57.7153846,13.2525 C57.3634615,13.60125 55.9557692,14.105 55.4083333,14.29875 C54.4307692,14.57 53.4532051,14.725 52.3974359,14.725 C51.4980769,14.725 50.6378205,14.6475 49.7384615,14.45375 C49.5820513,14.45375 49.4647436,14.45375 49.3865385,14.37625 C49.4647436,14.29875 49.5429487,14.22125 49.5820513,14.1825 C49.7384615,14.0275 50.0121795,13.67875 50.1294872,13.485 L50.4814103,13.485 C51.8108974,13.485 53.0230769,13.33 54.274359,13.05875 C54.5480769,12.98125 54.8217949,12.90375 55.1346154,12.865 C55.4865385,12.71 55.5647436,12.71 56.0339744,12.865 L57.7153846,13.2525 Z M58.7711538,9.92 C58.6147436,10.19125 57.5980769,10.88875 57.1679487,11.0825 C55.2128205,12.4 53.1012821,12.82625 50.5205128,12.82625 L49.7384615,12.82625 C49.1910256,12.82625 49.3865385,12.74875 48.6826923,12.3225 L48.174359,12.05125 C50.0121795,11.97375 51.6935897,11.8575 53.375,11.43125 C54.5089744,11.16 55.5647436,10.81125 56.5423077,10.26875 C56.6987179,10.19125 57.4416667,9.765 57.5198718,9.765 L58.7711538,9.92 Z M59.2403846,7.63375 C59.0448718,7.8275 58.3410256,8.40875 58.1064103,8.6025 C57.1288462,9.3775 55.9166667,9.9975 54.5871795,10.42375 C52.3974359,11.27625 49.3083333,11.5475 47.0012821,11.47 L47.1967949,11.12125 C47.4705128,11.04375 47.8224359,11.04375 48.0961538,10.96625 C48.3698718,10.88875 48.6435897,10.88875 48.9564103,10.81125 C52.0455128,10.26875 54.9,9.3 57.3634615,7.32375 C57.5198718,7.16875 57.5198718,7.16875 57.7153846,7.13 L59.5923077,7.0525 C59.6705128,7.2075 59.3185897,7.55625 59.2403846,7.63375 Z" id="XMLID_18_"></path>
            </g>
        </g>
    </g>
</svg>