<?xml version="1.0" encoding="UTF-8"?>
<svg width="100px" height="80px" viewBox="0 0 100 80" version="1.1" xmlns="http://www.w3.org/2000/svg" xmlns:xlink="http://www.w3.org/1999/xlink">
    <!-- Generator: Sketch 51.1 (57501) - http://www.bohemiancoding.com/sketch -->
    <title>ds_white@3x</title>
    <desc>Created with Sketch.</desc>
    <defs></defs>
    <g id="Layouts" stroke="none" stroke-width="1" fill="none" fill-rule="evenodd">
        <path d="M90,20 L90,16 C90,13.790861 88.209139,12 86,12 L14,12 C11.790861,12 10,13.790861 10,16 L10,64 C10,66.209139 11.790861,68 14,68 L86,68 C88.209139,68 90,66.209139 90,64 L90,22 L10,22 L10,20 L90,20 Z M14,10 L86,10 C89.3137085,10 92,12.6862915 92,16 L92,64 C92,67.3137085 89.3137085,70 86,70 L14,70 C10.6862915,70 8,67.3137085 8,64 L8,16 C8,12.6862915 10.6862915,10 14,10 Z M85,18 C83.8954305,18 83,17.1045695 83,16 C83,14.8954305 83.8954305,14 85,14 C86.1045695,14 87,14.8954305 87,16 C87,17.1045695 86.1045695,18 85,18 Z M79,18 C77.8954305,18 77,17.1045695 77,16 C77,14.8954305 77.8954305,14 79,14 C80.1045695,14 81,14.8954305 81,16 C81,17.1045695 80.1045695,18 79,18 Z M73,18 C71.8954305,18 71,17.1045695 71,16 C71,14.8954305 71.8954305,14 73,14 C74.1045695,14 75,14.8954305 75,16 C75,17.1045695 74.1045695,18 73,18 Z" id="ds" fill="#FFFFFF" fill-rule="nonzero"></path>
    </g>
</svg>