<?xml version="1.0" encoding="UTF-8"?>
<svg width="255px" height="161px" viewBox="0 0 255 161" version="1.1" xmlns="http://www.w3.org/2000/svg" xmlns:xlink="http://www.w3.org/1999/xlink">
    <!-- Generator: Sketch 51.2 (57519) - http://www.bohemiancoding.com/sketch -->
    <title>Group 8@2x</title>
    <desc>Created with Sketch.</desc>
    <defs></defs>
    <g id="Symbols" stroke="none" stroke-width="1" fill="none" fill-rule="evenodd">
        <g id="Group-8">
            <rect id="Rectangle-12" fill="#4F86A0" fill-rule="nonzero" x="0" y="0" width="255" height="160"></rect>
            <g id="Group-7" transform="translate(27.000000, 10.000000)" fill="#F3F6F7">
                <path d="M86.5528277,150 L18.8363316,150 L18.8363316,132.042487 L16.5148543,132.042487 L16.5148543,150 L0,150 L0,123.308743 C2.93154735,107.749777 16.1559405,95.807924 32.3581178,94.7519725 C32.4049969,105.890662 41.5098114,114.937927 52.6946439,114.937927 C63.8788341,114.937927 72.9836487,105.890662 73.0305277,94.7519725 C91.4340949,95.9487176 106,111.192819 106,129.834524 L106,150 L88.8749471,150 L88.8749471,132.042487 L86.5528277,132.042487 L86.5528277,150 Z M45.5561174,130.325126 L45.5561174,123.954218 L43.3900474,126.112839 C41.8834954,124.652426 39.8317333,123.751347 37.5796114,123.751347 C32.8679438,123.751347 29.0476206,127.347342 29.0476206,132.042807 C29.0476206,136.738272 32.8679438,140.334267 37.5796114,140.334267 C40.529782,140.334267 43.1402398,138.811137 44.6262421,136.463085 L42.1641276,134.939954 C41.2085652,136.441965 39.511286,137.457599 37.5796114,137.457599 C34.5870571,137.457599 32.1673264,135.046189 32.1673264,132.042807 C32.1673264,129.059904 34.5870571,126.649134 37.5796114,126.649134 C39.0405688,126.649134 40.3673107,127.219348 41.3408541,128.155625 L39.1779951,130.311046 L45.5561174,130.325126 Z M54.5597887,130.623224 L52.0096957,129.968534 C49.2123638,129.166011 50.4601177,126.651566 52.9421397,126.651566 C54.4319951,126.651566 55.6797489,127.072667 56.7001714,127.895029 L58.3769009,125.528418 C56.9345668,124.405269 55.00225,123.749939 52.9421397,123.749939 C49.9502275,123.689782 47.280047,125.802965 47.3404118,128.343009 C47.3404118,130.563067 48.936869,132.127795 51.2455026,132.742807 L53.9625622,133.437815 C57.2299692,134.327374 55.8948789,137.47667 52.9421397,137.47667 C51.2654102,137.47667 49.7826188,136.888537 48.7628384,135.892103 L47.064917,138.279193 C48.5952297,139.569374 50.6746055,140.331579 52.9421397,140.331579 C56.2365182,140.398136 59.0351345,138.132 58.9741275,135.383966 C58.9741275,132.802964 57.0019956,131.238236 54.5597887,130.623224 Z M69.2935594,137.456639 C66.3010051,137.456639 63.8857697,135.04331 63.8857697,132.040567 C63.8857697,129.058944 66.3010051,126.651374 69.2935594,126.651374 C71.2258762,126.651374 72.9225132,127.641409 73.8825709,129.165819 L76.3382636,127.62157 C74.8554722,125.293996 72.2456565,123.749747 69.2935594,123.749747 C64.5831761,123.749747 60.7660639,127.347022 60.7660639,132.040567 C60.7660639,136.741152 64.5831761,140.331387 69.2935594,140.331387 C72.2456565,140.331387 74.8554722,138.814017 76.3382636,136.460205 L73.8825709,134.942194 C72.9225132,136.440366 71.2258762,137.456639 69.2935594,137.456639 Z M69.305504,129.525802 C67.9049115,129.525802 66.7695389,130.657271 66.7695389,132.053047 C66.7695389,133.448823 67.9049115,134.580291 69.305504,134.580291 C70.7067386,134.580291 71.841469,133.448823 71.841469,132.053047 C71.841469,130.657271 70.7067386,129.525802 69.305504,129.525802 Z M81.2560065,29.9622383 C82.4035805,31.2920973 83.4496901,32.716672 84.4026838,34.200764 L79.7597293,38.3400942 C77.9815355,33.6260703 73.4265596,30.2559848 68.0784925,30.2559848 C61.8185311,30.2559848 56.6329353,34.876573 55.7467282,40.8737381 L49.6421742,40.8737381 C48.7559671,34.876573 43.5697291,30.2559848 37.3097678,30.2559848 C31.9623429,30.2559848 27.4067247,33.6260703 25.6291731,38.3400942 L21.1140122,34.3146788 C17.4709305,31.0655477 15.6118222,25.9496222 15.6118222,21.1428025 C15.6118222,10.5717671 24.2131683,2 34.8206818,2 L34.8206818,7.90372939 C40.2888364,4.18677976 46.890437,2 54.0160557,2 L84.5169917,2 C84.5169917,6.09197243 83.1279584,9.85627989 80.7994172,12.8583823 C81.1416986,12.8385432 81.4904018,12.8251038 81.8397472,12.8251038 L94.399485,12.8251038 C94.399485,21.0160883 88.8311505,27.9162521 81.2560065,29.9622383 Z M97.150837,43.0737653 C97.150837,46.985266 93.9701241,50.1544007 90.0451258,50.1544007 L90.0380618,50.1544007 C90.1864052,51.5117785 90.2666776,52.8825957 90.2666776,54.2796516 C90.2666776,68.4479622 82.3627379,80.7840367 70.7091147,87.1427852 L70.7091147,94.6714001 C70.7091147,104.587106 62.6446302,112.623857 52.6947081,112.623857 C47.7229579,112.623857 43.2142188,110.618189 39.9532336,107.368418 C36.6928906,104.118647 34.6796593,99.626053 34.6796593,94.6714001 L34.6796593,87.1427852 C23.0260361,80.7840367 15.1220964,68.4479622 15.1220964,54.2796516 C15.1220964,52.8825957 15.2023688,51.5117785 15.3507122,50.1544007 L15.3436482,50.1544007 C11.4250716,50.1544007 8.23793703,46.985266 8.23793703,43.0737653 C8.23793703,39.1616246 11.4250716,35.9931298 15.3436482,35.9931298 L19.5101058,35.9931298 L24.9711965,40.8607467 C24.8838601,41.4623191 24.8241375,42.0702913 24.8241375,42.6993824 C24.8241375,49.559228 30.4258653,55.1423321 37.3100247,55.1423321 C44.0259331,55.1423321 49.5075735,49.820336 49.7689403,43.1870401 L55.6198336,43.1870401 C55.8812005,49.820336 61.3628409,55.1423321 68.0787493,55.1423321 C74.9629087,55.1423321 80.5646365,49.559228 80.5646365,42.6993824 C80.5646365,42.0702913 80.5049139,41.4623191 80.4175775,40.8671464 L85.8786681,35.9931298 L90.0451258,35.9931298 C93.9701241,35.9931298 97.150837,39.1616246 97.150837,43.0737653 Z M82.155314,59.4883729 C82.9670283,59.4883729 83.6175557,58.8336829 83.6175557,58.0311597 C83.6175557,57.2215968 82.9670283,56.5669068 82.155314,56.5669068 C81.3429575,56.5669068 80.6924302,57.2215968 80.6924302,58.0311597 C80.6924302,58.8336829 81.3429575,59.4883729 82.155314,59.4883729 Z M78.5725971,65.2052308 C79.3843114,65.2052308 80.0348388,64.5563006 80.0348388,63.7473776 C80.0348388,62.9384547 79.3843114,62.2901644 78.5725971,62.2901644 C77.7673046,62.2901644 77.1097133,62.9384547 77.1097133,63.7473776 C77.1097133,64.5563006 77.7673046,65.2052308 78.5725971,65.2052308 Z M74.9898802,59.4883729 C75.8009524,59.4883729 76.4591859,58.8336829 76.4591859,58.0311597 C76.4591859,57.2215968 75.8009524,56.5669068 74.9898802,56.5669068 C74.1845877,56.5669068 73.5263542,57.2215968 73.5263542,58.0311597 C73.5263542,58.8336829 74.1845877,59.4883729 74.9898802,59.4883729 Z M70.8163586,62.0424958 L70.8163586,59.7290018 L62.1007046,59.7290018 L62.1007046,62.0424958 L65.2338961,62.0424958 C64.6501554,68.4281231 59.2494296,73.4429332 52.6947081,73.4429332 C46.1393444,73.4429332 40.7386186,68.4281231 40.1548778,62.0424958 L43.2880694,62.0424958 L43.2880694,59.7290018 L34.5794794,59.7290018 L34.5794794,62.0424958 L37.8199148,62.0424958 C38.4171413,69.7048646 44.8581972,75.7628269 52.6947081,75.7628269 C60.5305768,75.7628269 66.9716326,69.7048646 67.5688592,62.0424958 L70.8163586,62.0424958 Z M30.3995359,59.4883729 C31.2041863,59.4883729 31.8624198,58.8336829 31.8624198,58.0311597 C31.8624198,57.2215968 31.2041863,56.5669068 30.3995359,56.5669068 C29.5878216,56.5669068 28.9302303,57.2215968 28.9302303,58.0311597 C28.9302303,58.8336829 29.5878216,59.4883729 30.3995359,59.4883729 Z M54.3444661,50.5889408 C51.1785234,50.5889408 48.595037,53.1565031 48.595037,56.3192381 C48.595037,59.4749335 51.1785234,62.0424958 54.3444661,62.0424958 L54.3444661,59.7290018 C52.4526066,59.7290018 50.9158721,58.197552 50.9158721,56.3192381 C50.9158721,54.4338845 52.4526066,52.9024347 54.3444661,52.9024347 L54.3444661,50.5889408 Z M26.8161769,65.2052308 C27.6214694,65.2052308 28.2790607,64.5563006 28.2790607,63.7473776 C28.2790607,62.9384547 27.6214694,62.2901644 26.8161769,62.2901644 C26.0044625,62.2901644 25.3539352,62.9384547 25.3539352,63.7473776 C25.3539352,64.5563006 26.0044625,65.2052308 26.8161769,65.2052308 Z M23.23346,59.4883729 C24.0458164,59.4883729 24.6963438,58.8336829 24.6963438,58.0311597 C24.6963438,57.2215968 24.0458164,56.5669068 23.23346,56.5669068 C22.4217456,56.5669068 21.7712183,57.2215968 21.7712183,58.0311597 C21.7712183,58.8336829 22.4217456,59.4883729 23.23346,59.4883729 Z M68.0788135,50.1812795 C63.7248396,50.1812795 60.1819378,46.6505613 60.1819378,42.3109202 L62.5098369,42.3109202 C62.5098369,45.3731799 65.0059868,47.8677855 68.0788135,47.8677855 C71.1516403,47.8677855 73.6548542,45.3731799 73.6548542,42.3109202 L75.9756893,42.3109202 C75.9756893,46.6505613 72.4334297,50.1812795 68.0788135,50.1812795 M68.0788135,32.5692868 C62.4764435,32.5692868 57.9144036,37.1162783 57.9144036,42.6993824 C57.9144036,48.2818465 62.4764435,52.8288381 68.0788135,52.8288381 C73.6876053,52.8288381 78.2438657,48.2818465 78.2438657,42.6993824 C78.2438657,37.1162783 73.6876053,32.5692868 68.0788135,32.5692868 M37.3100247,50.1812795 C32.9560507,50.1812795 29.4131489,46.6505613 29.4131489,42.3109202 L31.7346262,42.3109202 C31.7346262,45.3731799 34.2371979,47.8677855 37.3100247,47.8677855 C40.3828514,47.8677855 42.8790014,45.3731799 42.8790014,42.3109202 L45.2069004,42.3109202 C45.2069004,46.6505613 41.6639986,50.1812795 37.3100247,50.1812795 M37.3100247,32.5692868 C31.7012329,32.5692868 27.1456147,37.1162783 27.1456147,42.6993824 C27.1456147,48.2818465 31.7012329,52.8288381 37.3100247,52.8288381 C42.9123947,52.8288381 47.4744346,48.2818465 47.4744346,42.6993824 C47.4744346,37.1162783 42.9123947,32.5692868 37.3100247,32.5692868" id="Combined-Shape-Copy"></path>
                <path d="M131.241015,113.780857 L123.676686,148.848385 C115.100665,129.51276 120.695363,114.258027 124.281397,107.509844 C125.687271,109.834929 127.86807,112.096689 131.241015,113.780857 Z M189.719918,107.510035 C193.305951,114.258219 198.90065,129.512312 190.324629,148.848577 L182.76094,113.781049 C186.133245,112.096881 188.314044,109.83512 189.719918,107.510035 Z M181.294659,112.395912 L180.60484,112.709335 L188.864747,151 L125.137783,151 L133.396411,112.709335 L132.706592,112.395912 C123.533539,108.228669 123.534819,99.6907775 123.697995,97.4917012 L136.870461,91.8827133 C142.743519,94.8205718 149.693538,96.371055 157.001265,96.371055 C164.308353,96.371055 171.258372,94.8205718 177.13207,91.8827133 L190.303896,97.4917012 C190.466432,99.6939757 190.466432,108.229309 181.294659,112.395912 Z M170.811078,119.658365 C172.442198,119.658365 173.876228,120.500129 174.68187,121.790279 L176.760924,120.482219 C175.506709,118.511494 173.302232,117.204073 170.811078,117.204073 C166.832782,117.204073 163.606376,120.249391 163.606376,124.226022 C163.606376,128.203292 166.832782,131.24861 170.811078,131.24861 C173.302232,131.24861 175.506709,129.95846 176.760924,127.970464 L174.68187,126.680314 C173.876228,127.952554 172.442198,128.812228 170.811078,128.812228 C168.284089,128.812228 166.240869,126.769863 166.240869,124.226022 C166.240869,121.70009 168.284089,119.658365 170.811078,119.658365 Z M157.004465,131.24861 C159.782297,131.30234 162.14867,129.385344 162.094918,127.056421 C162.094918,124.870777 160.427962,123.545447 158.366825,123.02606 L156.216741,122.470854 C153.851008,121.790279 154.908133,119.658365 157.004465,119.658365 C158.259321,119.658365 159.317085,120.016562 160.177119,120.715047 L161.592591,118.708502 C160.37421,117.759279 158.74309,117.204073 157.004465,117.204073 C154.478116,117.150343 152.219887,118.94197 152.273639,121.091155 C152.273639,122.971691 153.618082,124.298301 155.571075,124.817048 L157.865139,125.408713 C160.625053,126.160928 159.496259,128.830138 157.004465,128.830138 C155.589633,128.830138 154.334777,128.328022 153.474743,127.486258 L152.040714,129.510713 C153.330764,130.603215 155.087306,131.24861 157.004465,131.24861 Z M150.765381,122.772124 L150.765381,117.375496 L148.93461,119.206141 C147.662476,117.96908 145.931531,117.204073 144.03037,117.204073 C140.051434,117.204073 136.825027,120.249391 136.825027,124.226022 C136.825027,128.203292 140.051434,131.24861 144.03037,131.24861 C146.521524,131.24861 148.726,129.95846 149.980216,127.970464 L147.901161,126.680314 C147.09488,127.952554 145.66085,128.812228 144.03037,128.812228 C141.503381,128.812228 139.460161,126.769863 139.460161,124.226022 C139.460161,121.70009 141.503381,119.658365 144.03037,119.658365 C145.264109,119.658365 146.383944,120.141292 147.205583,120.934443 L145.379931,122.758692 L150.765381,122.772124 Z M194.700755,48.5582231 C194.700755,65.6461592 180.870465,79.8039124 162.806557,82.3356006 C163.475899,88.4473442 168.1005,90.6803213 174.190486,91.1651671 C169.046281,93.3444147 163.162345,94.4906464 157.000689,94.4906464 C150.835835,94.4906464 144.948059,93.3431354 139.801934,91.1606897 C145.82601,90.6643304 150.510122,88.4038488 151.192262,82.3356006 C133.129634,79.8026331 119.300624,65.6455196 119.300624,48.5582231 C119.300624,48.0752963 119.319181,47.5974865 119.340938,47.1196767 C119.363975,46.6815245 119.39469,46.2446516 119.432445,45.8096976 C119.433085,45.8090579 119.433085,45.8084183 119.433085,45.807139 C120.748092,45.9267514 122.623656,46.0450844 124.898522,46.0450844 C126.404861,46.0450844 128.089734,45.9907152 129.897468,45.853193 C128.031502,47.3377934 126.82528,49.3865547 126.82528,52.0448913 C126.82528,60.3333238 133.461105,64.6713505 140.015663,64.6726298 L140.017583,64.6726298 C143.448759,64.6726298 146.654048,63.5558214 149.045377,61.5281681 C151.624839,59.3399656 153.034552,56.2716209 153.175971,52.6391152 C154.224137,52.1702604 155.585217,51.9054501 157.000689,51.9054501 C158.540303,51.9054501 159.850191,52.2041612 160.81261,52.6352774 C161.121045,60.5392873 167.589215,64.6726298 173.985076,64.6726298 C180.540274,64.6726298 187.176099,60.3346031 187.176099,52.0448913 C187.176099,45.709914 180.340623,42.8238662 173.988915,42.8238662 C168.122257,42.8238662 161.846698,45.2871131 160.918834,50.6523988 C159.779801,50.250706 158.439198,50.024274 157.000689,50.024274 C155.586497,50.024274 154.242694,50.2494267 153.083824,50.6600745 C152.354971,46.4199125 148.285169,43.9976024 143.71624,43.1628744 C151.415589,40.6267088 159.363223,35.9893314 165.368101,27.6689169 C170.317134,33.5471925 179.626488,45.6766528 194.586851,46.0290935 L194.586851,46.0297331 C194.618207,46.4128764 194.642523,46.797299 194.66236,47.1830009 C194.682197,47.6397026 194.700755,48.097044 194.700755,48.5582231 Z M179.40956,69.2473226 C180.040507,69.2473226 180.551792,68.735612 180.551792,68.104289 C180.551792,67.4729661 180.040507,66.9606158 179.40956,66.9606158 C178.776693,66.9606158 178.264768,67.4729661 178.264768,68.104289 C178.264768,68.735612 178.776693,69.2473226 179.40956,69.2473226 Z M176.610611,73.7299075 C177.241558,73.7299075 177.753483,73.2181969 177.753483,72.5862343 C177.753483,71.9542717 177.241558,71.4425611 176.610611,71.4425611 C175.978383,71.4425611 175.466458,71.9542717 175.466458,72.5862343 C175.466458,73.2181969 175.978383,73.7299075 176.610611,73.7299075 Z M173.812301,69.2473226 C174.443249,69.2473226 174.955813,68.735612 174.955813,68.104289 C174.955813,67.4729661 174.443249,66.9606158 173.812301,66.9606158 C173.180714,66.9606158 172.668789,67.4729661 172.668789,68.104289 C172.668789,68.735612 173.180714,69.2473226 173.812301,69.2473226 Z M157.000689,74.82177 C160.454262,74.82177 163.349197,72.959783 163.736341,70.4901397 L161.878053,70.199744 C161.637449,71.7374343 159.495043,72.9405939 157.000689,72.9405939 C154.506976,72.9405939 152.36457,71.7374343 152.123325,70.199744 L150.265038,70.4907794 C150.652181,72.959783 153.547756,74.82177 157.000689,74.82177 Z M157.826168,58.28904 C155.391966,58.28904 153.411456,60.2687204 153.411456,62.7019043 C153.411456,65.1344486 155.391966,67.114129 157.826168,67.114129 L157.826168,65.2335925 C156.429253,65.2335925 155.29278,64.097595 155.29278,62.7019043 C155.29278,61.305574 156.429253,60.1695764 157.826168,60.1695764 L157.826168,58.28904 Z M140.189078,69.2473226 C140.821305,69.2473226 141.33259,68.735612 141.33259,68.104289 C141.33259,67.4729661 140.821305,66.9606158 140.189078,66.9606158 C139.55813,66.9606158 139.045565,67.4729661 139.045565,68.104289 C139.045565,68.735612 139.55813,69.2473226 140.189078,69.2473226 Z M137.390768,73.7299075 C138.023635,73.7299075 138.53492,73.2181969 138.53492,72.5862343 C138.53492,71.9542717 138.023635,71.4425611 137.390768,71.4425611 C136.759821,71.4425611 136.247896,71.9542717 136.247896,72.5862343 C136.247896,73.2181969 136.759821,73.7299075 137.390768,73.7299075 Z M134.592459,69.2473226 C135.224686,69.2473226 135.736611,68.735612 135.736611,68.104289 C135.736611,67.4729661 135.224686,66.9606158 134.592459,66.9606158 C133.960872,66.9606158 133.450227,67.4729661 133.450227,68.104289 C133.450227,68.735612 133.960872,69.2473226 134.592459,69.2473226 Z M140.016943,62.7918374 C134.569423,62.7911978 128.706603,59.4279798 128.706603,52.0452751 C128.706603,47.0017274 134.566863,44.7047864 140.011824,44.7047864 C145.459344,44.7047864 151.322163,47.0017274 151.322163,52.0452751 C151.322163,55.371394 150.11466,58.1544601 147.828276,60.0938433 C145.776737,61.834299 143.003384,62.7918374 140.017583,62.7918374 L140.016943,62.7918374 Z M133.817533,52.0945272 L131.936209,52.0945272 C131.936209,56.5470491 135.559997,60.1693206 140.015023,60.1693206 C144.469409,60.1693206 148.093837,56.5470491 148.093837,52.0945272 L146.211873,52.0945272 C146.211873,55.5101955 143.431482,58.2894237 140.015023,58.2894237 C136.597925,58.2894237 133.817533,55.5101955 133.817533,52.0945272 Z M173.985588,62.7918374 C168.539987,62.7918374 162.679088,59.4286195 162.679088,52.0452751 C162.679088,47.0017274 168.541907,44.7047864 173.988787,44.7047864 C179.434388,44.7047864 185.294648,47.0017274 185.294648,52.0452751 C185.294648,59.4286195 179.431828,62.7918374 173.985588,62.7918374 Z M167.789378,52.0945272 L165.908694,52.0945272 C165.908694,56.5470491 169.532482,60.1693206 173.987508,60.1693206 C178.441254,60.1693206 182.065682,56.5470491 182.065682,52.0945272 L180.184358,52.0945272 C180.184358,55.5101955 177.403966,58.2894237 173.987508,58.2894237 C170.569769,58.2894237 167.789378,55.5101955 167.789378,52.0945272 Z M165.649084,3.35268479 C195.415594,-6.56682531 221.038072,73.994334 182.592516,76.0366989 C191.142301,69.4164429 196.582143,59.5576985 196.582143,48.558479 C196.582143,47.7410213 196.543748,46.8890231 196.46184,45.8777551 L196.32554,44.1891101 L194.631069,44.1488129 C181.308225,43.8353901 172.743722,33.5698357 167.626393,27.4363445 C167.341635,27.0947776 167.068395,26.7672828 166.807314,26.4576979 L165.253622,24.6123416 L163.841989,26.5683553 C152.793371,41.878097 134.700667,44.1641642 124.898586,44.1641642 C122.614122,44.1641642 120.758394,44.0387951 119.603364,43.934534 L117.72396,43.7643903 L117.559504,45.6430078 C117.464798,46.7099244 117.419364,47.6636251 117.419364,48.558479 C117.419364,59.5576985 122.859206,69.4158033 131.408351,76.0360593 C117.531988,75.2985564 112,64.3338773 112,51.0837708 C112,29.7313665 122.653156,11.3296135 138.015381,2.86592007 C147.158998,-1.65888096 156.129841,-0.313082069 165.649084,3.35268479 Z" id="Combined-Shape-Copy"></path>
            </g>
        </g>
    </g>
</svg>