<svg xmlns="http://www.w3.org/2000/svg" width="72" height="58" viewBox="0 0 72 58">
  <g fill="none" fill-rule="evenodd">
    <path fill="#8899A4" fill-rule="nonzero" d="M59,13 L59,37 C59,38.6568542 57.6568542,40 56,40 L41.0623415,40 L45.1628236,51.2659819 C45.3517161,51.7849598 45.084129,52.3588021 44.5651511,52.5476947 C44.0461732,52.7365872 43.4723308,52.4690001 43.2834383,51.9500222 L38.9339859,40 L37,40 L37,52 C37,52.5522847 36.5522847,53 36,53 C35.4477153,53 35,52.5522847 35,52 L35,40 L33.0660141,40 L28.7165617,51.9500222 C28.5276692,52.4690001 27.9538268,52.7365872 27.4348489,52.5476947 C26.915871,52.3588021 26.6482839,51.7849598 26.8371764,51.2659819 L30.9376585,40 L16,40 C14.3431458,40 13,38.6568542 13,37 L13,13 C11.3431458,13 10,11.6568542 10,10 L10,8 C10,6.34314575 11.3431458,5 13,5 L59,5 C60.6568542,5 62,6.34314575 62,8 L62,10 C62,11.6568542 60.6568542,13 59,13 Z M57,13 L15,13 L15,37 C15,37.5522847 15.4477153,38 16,38 L56,38 C56.5522847,38 57,37.5522847 57,37 L57,13 Z M36,45.5 L36,52 L36,45.5 Z M42,45.5 L44.2231309,51.608002 L42,45.5 Z M30,45.5 L27.7768691,51.608002 L30,45.5 Z M13,7 C12.4477153,7 12,7.44771525 12,8 L12,10 C12,10.5522847 12.4477153,11 13,11 L59,11 C59.5522847,11 60,10.5522847 60,10 L60,8 C60,7.44771525 59.5522847,7 59,7 L13,7 Z"/>
    <path fill="#374148" fill-rule="nonzero" d="M34,20 L53,20 C53.5522847,20 54,20.4477153 54,21 C54,21.5522847 53.5522847,22 53,22 L34,22 C33.4477153,22 33,21.5522847 33,21 C33,20.4477153 33.4477153,20 34,20 Z M43.5,21 L53,21 L43.5,21 Z M34,24 L53,24 C53.5522847,24 54,24.4477153 54,25 C54,25.5522847 53.5522847,26 53,26 L34,26 C33.4477153,26 33,25.5522847 33,25 C33,24.4477153 33.4477153,24 34,24 Z M43.5,25 L53,25 L43.5,25 Z M34,28 L49,28 C49.5522847,28 50,28.4477153 50,29 C50,29.5522847 49.5522847,30 49,30 L34,30 C33.4477153,30 33,29.5522847 33,29 C33,28.4477153 33.4477153,28 34,28 Z M41.5,29 L49,29 L41.5,29 Z M19,19 L29,19 C29.5522847,19 30,19.4477153 30,20 L30,30 C30,30.5522847 29.5522847,31 29,31 L19,31 C18.4477153,31 18,30.5522847 18,30 L18,20 C18,19.4477153 18.4477153,19 19,19 Z M20,21 L20,29 L28,29 L28,21 L20,21 Z"/>
  </g>
</svg>
