<svg id="Layer_1" data-name="Layer 1" xmlns="http://www.w3.org/2000/svg" viewBox="0 0 500 700"><defs><style>.cls-1{fill:#4f86a0;}.cls-2{fill:#f7f4ec;}</style></defs><title>для девочек</title><rect class="cls-1" width="500" height="700"/><path class="cls-2" d="M144.63,497.08c-13.83-6.91-22.76-16.18-28.53-25.72-14.7,27.67-37.63,90.23-2.48,169.53Z"/><path class="cls-2" d="M384.35,471.36c-5.76,9.54-14.7,18.81-28.53,25.72l31,143.81C422,561.59,399.06,499,384.35,471.36Z"/><path class="cls-2" d="M349.82,491.4c37.6-17.09,37.6-52.09,36.93-61.12l-54-23c-24.08,12-52.57,18.41-82.52,18.41s-58.45-6.36-82.52-18.41l-54,23c-0.67,9-.67,44,36.93,61.12l2.83,1.29-33.86,157H380.85L347,492.68ZM224.67,534l-22.08-.05,7.48-7.48A18.78,18.78,0,1,0,212.92,550l8.52,5.29a28.76,28.76,0,0,1-24.39,13.44c-16.31,0-29.53-12.49-29.53-28.8s13.22-28.8,29.53-28.8a28.78,28.78,0,0,1,20.11,8.21l7.51-7.51V534Zm25.58,34.76a31.43,31.43,0,0,1-20.35-7.13l5.88-8.3a20.52,20.52,0,0,0,14.47,5.51c10.21,0,14.84-10.95,3.53-14l-9.4-2.42c-8-2.13-13.52-7.57-13.52-15.28-0.22-8.82,9-16.16,19.4-15.94a30.72,30.72,0,0,1,18.81,6.17l-5.8,8.23a20,20,0,0,0-13-4.33c-8.6,0-12.93,8.74-3.23,11.53l8.82,2.28c8.45,2.13,15.28,7.57,15.28,16.53C271.33,561.07,261.63,568.93,250.24,568.71Zm56.6-47.53A18.77,18.77,0,1,0,322.71,550l8.52,5.29a28.76,28.76,0,0,1-24.39,13.44c-16.31,0-29.53-12.49-29.53-28.8s13.22-28.8,29.53-28.8a28.93,28.93,0,0,1,24.39,13.44l-8.52,5.36A18.64,18.64,0,0,0,306.84,521.18ZM315.66,540a8.78,8.78,0,1,1-8.78-8.78A8.78,8.78,0,0,1,315.66,540Z"/><path class="cls-2" d="M404.77,229.6c0-1.89-.08-3.77-0.16-5.64q-0.12-2.37-.31-4.73h0C343,217.78,304.81,168,284.52,143.93c-24.61,34.12-57.2,53.14-88.76,63.54,18.73,3.42,35.41,13.36,38.4,30.75a51.09,51.09,0,0,1,32.12,0c3.8-22,29.53-32.1,53.58-32.1,26,0,54.06,11.83,54.06,37.81,0,34-27.2,51.78-54.07,51.78-26.22,0-52.74-16.95-54-49.36a38.77,38.77,0,0,0-15.63-3,39.38,39.38,0,0,0-15.68,3c-0.58,14.9-6.36,27.48-16.93,36.45-9.8,8.32-22.94,12.89-37,12.89h0c-26.87,0-54.07-17.79-54.07-51.78,0-10.9,4.94-19.3,12.59-25.39-7.41.56-14.32,0.79-20.49,0.79-9.33,0-17-.48-22.4-1h0Q96,221,95.85,223.7c-0.09,2-.16,3.92-0.16,5.9,0,70.08,56.69,128.14,130.74,138.52-2.8,24.89-22,34.16-46.7,36.19,21.1,9,45.23,13.66,70.5,13.66s49.38-4.7,70.47-13.64c-25-2-43.92-11.14-46.67-36.21C348.08,357.74,404.77,299.67,404.77,229.6ZM158.36,314.44a4.69,4.69,0,1,1,4.69-4.69A4.68,4.68,0,0,1,158.36,314.44Zm11.47,18.38a4.69,4.69,0,1,1,4.69-4.69A4.69,4.69,0,0,1,169.84,332.83Zm11.47-18.38a4.69,4.69,0,1,1,4.69-4.69A4.69,4.69,0,0,1,181.31,314.44Zm72.3-44.94v7.71a10.38,10.38,0,0,0,0,20.77v7.71A18.1,18.1,0,0,1,253.61,269.5Zm-3.38,67.8c-14.16,0-26-7.64-27.61-17.76l7.62-1.19c1,6.31,9.77,11.24,20,11.24s19-4.94,20-11.24l7.62,1.19C276.25,329.67,264.38,337.3,250.23,337.3Zm68.92-22.86a4.69,4.69,0,1,1,4.69-4.69A4.69,4.69,0,0,1,319.14,314.44Zm11.47,18.38a4.69,4.69,0,1,1,4.68-4.69A4.69,4.69,0,0,1,330.61,332.83Zm11.47-18.38a4.69,4.69,0,1,1,4.68-4.69A4.69,4.69,0,0,1,342.09,314.44Z"/><path class="cls-2" d="M180.6,288h0c12.24,0,23.61-3.93,32-11.06,9.37-8,14.33-19.37,14.33-33,0-20.68-24-30.1-46.37-30.1s-46.34,9.42-46.34,30.1C134.24,274.17,158.27,288,180.6,288ZM155.19,244.1a25.41,25.41,0,0,0,50.81,0h7.71a33.12,33.12,0,0,1-66.23,0h7.71Z"/><path class="cls-2" d="M319.85,288c22.33,0,46.36-13.79,46.36-44.07,0-20.68-24-30.1-46.34-30.1s-46.37,9.42-46.37,30.1C273.5,274.18,297.53,288,319.85,288Zm-25.4-43.87a25.41,25.41,0,0,0,50.81,0H353a33.12,33.12,0,0,1-66.23,0h7.71Z"/><path class="cls-2" d="M285.68,44.21c-39-15-75.8-20.55-113.28-2C109.42,76.92,65.75,152.39,65.75,240c0,54.34,22.68,99.31,79.56,102.33C110.27,315.14,88,274.71,88,229.6c0-3.67.19-7.58,0.57-12l0.68-7.7,7.7,0.7c4.73,0.43,12.34.94,21.71,0.94,40.18,0,114.35-9.37,159.64-72.16l5.79-8,6.37,7.57,3.36,4c21,25.15,56.09,67.25,110.7,68.54l6.95,0.16L412,218.6c0.33,4.15.49,7.64,0.49,11,0,45.11-22.3,85.54-57.35,112.69C512.74,333.91,407.7,3.52,285.68,44.21Z"/></svg>