<?xml version="1.0" encoding="UTF-8"?>
<svg width="100px" height="80px" viewBox="0 0 100 80" version="1.1" xmlns="http://www.w3.org/2000/svg" xmlns:xlink="http://www.w3.org/1999/xlink">
    <!-- Generator: Sketch 51.1 (57501) - http://www.bohemiancoding.com/sketch -->
    <title>cs_white@3x</title>
    <desc>Created with Sketch.</desc>
    <defs></defs>
    <g id="Layouts" stroke="none" stroke-width="1" fill="none" fill-rule="evenodd">
        <path d="M21.3518555,34.9383363 L17.1912639,29.217523 C16.8664257,28.7708704 16.9651757,28.1454534 17.4118283,27.8206152 C17.8584809,27.4957769 18.4838978,27.594527 18.8087361,28.0411796 L22.5883528,33.2381525 L23.764761,31.6205912 C27.3379819,26.7074125 34.217568,25.6211621 39.1307466,29.1943829 C40.4428771,30.1486597 41.5271217,31.3809733 42.3064361,32.8024911 C45.1644835,27.472718 51.7952536,25.4471801 57.1467649,28.2803331 C59.0782277,29.3028723 60.6609178,30.8773381 61.6935192,32.8024149 C64.5762965,27.5363983 71.1647635,25.5475702 76.4876299,28.3655583 C77.9681285,29.1493517 79.2500567,30.2609302 80.2356263,31.6155005 L81.4165999,33.2386349 L85.1983295,28.0410126 C85.5232599,27.5944271 86.1486972,27.4958062 86.5952827,27.8207366 C87.0418683,28.145667 87.1404892,28.7711043 86.8155588,29.2176899 L82.6532829,34.9383363 L86.8155588,40.6589828 C87.1404892,41.1055683 87.0418683,41.7310056 86.5952827,42.0559361 C86.1486972,42.3808665 85.5232599,42.2822456 85.1983295,41.83566 L81.4165999,36.6380378 L80.2356263,38.2611721 C79.2500567,39.6157424 77.9681285,40.727321 76.4876299,41.5111144 C71.1647635,44.3291025 64.5762965,42.3402744 61.6935192,37.0742577 C60.6609178,38.9993345 59.0782277,40.5738004 57.1467649,41.5963395 C51.7952536,44.4294926 45.1644835,42.4039547 42.3064361,37.0741816 C41.5271217,38.4956994 40.4428771,39.728013 39.1307466,40.6822897 C34.217568,44.2555106 27.3379819,43.1692602 23.764761,38.2560815 L22.5883528,36.6385202 L18.8087361,41.8354931 C18.4838978,42.2821457 17.8584809,42.3808958 17.4118283,42.0560575 C16.9651757,41.7312192 16.8664257,41.1058023 17.1912639,40.6591497 L21.3518555,34.9383363 Z M43.4385011,34.9383363 L44.0459088,36.0856619 C46.371574,40.4785852 51.8180662,42.154429 56.2109895,39.8287637 C57.8057066,38.9845017 59.1098293,37.6803791 59.9540912,36.0856619 L60.5614989,34.9383363 L59.9540912,33.7910107 C59.1098293,32.1962936 57.8057066,30.892171 56.2109895,30.047909 C51.8180662,27.7222437 46.371574,29.3980874 44.0459088,33.7910107 L43.4385011,34.9383363 Z M80.1799169,34.9383363 L78.6183969,32.7921778 C77.8120218,31.683893 76.7631715,30.7744196 75.5518545,30.1331341 C71.1589312,27.8074688 65.712439,29.4833126 63.3867738,33.8762359 L62.8244853,34.9383363 L63.3867738,36.0004368 C65.712439,40.3933601 71.1589312,42.0692038 75.5518545,39.7435386 C76.7631715,39.1022531 77.8120218,38.1927797 78.6183969,37.0844949 L80.1799169,34.9383363 Z M41.1755147,34.9383363 L40.6149492,33.8794904 C39.9733702,32.6676189 39.0633618,31.6183704 37.9544032,30.8118551 C33.9345298,27.8883108 28.3057775,28.7770611 25.3822332,32.7969346 L23.8248501,34.9383363 L25.3822332,37.0797381 C28.3057775,41.0996116 33.9345298,41.9883619 37.9544032,39.0648176 C39.0633618,38.2583023 39.9733702,37.2090538 40.6149492,35.9971823 L41.1755147,34.9383363 Z M51,62 L51,70 L64,70 C64.5522847,70 65,70.4477153 65,71 C65,71.5522847 64.5522847,72 64,72 L36,72 C35.4477153,72 35,71.5522847 35,71 C35,70.4477153 35.4477153,70 36,70 L49,70 L49,62 L13.4042553,62 C11.524137,62 10,60.209139 10,58 L10,12 C10,9.790861 11.524137,8 13.4042553,8 L86.5957447,8 C88.475863,8 90,9.790861 90,12 L90,58 C90,60.209139 88.475863,62 86.5957447,62 L51,62 Z M13.6888889,10 C12.7561413,10 12,10.8954305 12,12 L12,58 C12,59.1045695 12.7561413,60 13.6888889,60 L86.3111111,60 C87.2438587,60 88,59.1045695 88,58 L88,12 C88,10.8954305 87.2438587,10 86.3111111,10 L13.6888889,10 Z" id="cs" fill="#FFFFFF"></path>
    </g>
</svg>