<svg xmlns="http://www.w3.org/2000/svg" width="80" height="66" viewBox="0 0 80 66">
  <path fill="#FFF" fill-rule="evenodd" d="M642.38806,206 L717.61194,206 L717.61194,196.343719 C712.037852,201.086346 697.319324,204 680,204 C662.680676,204 647.962148,201.086346 642.38806,196.343719 L642.38806,206 Z M640.115888,207 L640,207 L640,164 C640,156.75341 657.878498,152 680,152 C702.121502,152 720,156.75341 720,164 L720,207 L719.884112,207 C718.318668,213.68075 701.087065,218 680,218 C658.912935,218 641.681332,213.68075 640.115888,207 Z M642.38806,192 L717.61194,192 L717.61194,182.343719 C712.037852,187.086346 697.319324,190 680,190 C662.680676,190 647.962148,187.086346 642.38806,182.343719 L642.38806,192 Z M642.38806,178 L717.61194,178 L717.61194,168.343719 C712.037852,173.086346 697.319324,176 680,176 C662.680676,176 647.962148,173.086346 642.38806,168.343719 L642.38806,178 Z M680,174 C700.772501,174 717.61194,169.522847 717.61194,164 C717.61194,158.477153 700.772501,154 680,154 C659.227499,154 642.38806,158.477153 642.38806,164 C642.38806,169.522847 659.227499,174 680,174 Z M642.38806,178 C642.38806,183.522847 659.227499,188 680,188 C700.772501,188 717.61194,183.522847 717.61194,178 L642.38806,178 Z M642.38806,192 C642.38806,197.522847 659.227499,202 680,202 C700.772501,202 717.61194,197.522847 717.61194,192 L642.38806,192 Z M642.38806,206 C642.38806,211.522847 659.227499,216 680,216 C700.772501,216 717.61194,211.522847 717.61194,206 L642.38806,206 Z" transform="translate(-640 -152)"/>
</svg>
