<?xml version="1.0" encoding="UTF-8"?>
<svg width="21px" height="21px" viewBox="0 0 21 21" version="1.1" xmlns="http://www.w3.org/2000/svg" xmlns:xlink="http://www.w3.org/1999/xlink">
    <!-- Generator: Sketch 48.1 (47250) - http://www.bohemiancoding.com/sketch -->
    <title>icon-instagram</title>
    <desc>Created with Sketch.</desc>
    <defs></defs>
    <g id="redisign-1.1-copy-10" stroke="none" stroke-width="1" fill="none" fill-rule="evenodd" transform="translate(-1169.000000, -4257.000000)">
        <g id="Group-28" transform="translate(125.000000, 4257.000000)" fill-rule="nonzero">
            <g id="Group-12" transform="translate(0.000000, 1.000000)">
                <g id="Group-19-Copy" transform="translate(1045.000000, 0.000000)">
                    <g id="Group-18">
                        <path d="M13.3397975,0 L5.66020246,0 C2.53915366,0 0,2.53915366 0,5.66020246 L0,13.3397975 C0,16.4608463 2.53915366,19 5.66020246,19 L13.3397975,19 C16.4608463,19 19,16.4608463 19,13.3397975 L19,5.66020246 C18.9999655,2.53915366 16.4608119,0 13.3397975,0 Z" id="Shape" fill="#BBC9D3"></path>
                        <path d="M9.5,4.75 C6.88084579,4.75 4.75,6.88085327 4.75,9.49998334 C4.75,12.1191134 6.88084579,14.25 9.5,14.25 C12.1191542,14.25 14.25,12.1191467 14.25,9.49998334 C14.25,6.88081994 12.1191542,4.75 9.5,4.75 Z M9.5,12.4024473 C7.89702457,12.4024473 6.59757959,11.1029977 6.59757959,9.50001666 C6.59757959,7.89703561 7.89705789,6.59758607 9.5,6.59758607 C11.1029754,6.59758607 12.4024204,7.89703561 12.4024204,9.50001666 C12.4024204,11.1029644 11.1029421,12.4024473 9.5,12.4024473 Z" id="Shape" fill="#FFFFFF"></path>
                        <circle id="Oval" fill="#FFFFFF" cx="14.25" cy="4.75" r="1"></circle>
                    </g>
                </g>
            </g>
        </g>
    </g>
</svg>