<?xml version="1.0" encoding="UTF-8"?>
<svg width="21px" height="21px" viewBox="0 0 21 21" version="1.1" xmlns="http://www.w3.org/2000/svg" xmlns:xlink="http://www.w3.org/1999/xlink">
    <!-- Generator: Sketch 48.1 (47250) - http://www.bohemiancoding.com/sketch -->
    <title>icon-vk</title>
    <desc>Created with Sketch.</desc>
    <defs></defs>
    <g id="redisign-1.1-copy-10" stroke="none" stroke-width="1" fill="none" fill-rule="evenodd" transform="translate(-1301.000000, -4257.000000)">
        <g id="Group-28" transform="translate(125.000000, 4257.000000)" fill="#BBC9D3">
            <g id="Group-12" transform="translate(0.000000, 1.000000)">
                <g id="Group-19-Copy" transform="translate(1045.000000, 0.000000)">
                    <path d="M142.529872,14.9540235 C142.529872,14.9540235 142.908875,14.9153584 143.102999,14.7239188 C143.280689,14.5485111 143.274527,14.2174998 143.274527,14.2174998 C143.274527,14.2174998 143.250903,12.6718374 144.032535,12.4436188 C144.802868,12.2191724 145.791975,13.9383564 146.841683,14.5994359 C147.634612,15.0992535 148.236499,14.9898595 148.236499,14.9898595 L151.041539,14.9540235 C151.041539,14.9540235 152.508253,14.8710349 151.812899,13.8119874 C151.755381,13.7252266 151.40719,13.0283111 149.727864,11.5967581 C147.968423,10.0982483 148.204659,10.3406127 150.322561,7.74816247 C151.612612,6.16949326 152.128222,5.20569402 151.966965,4.79358026 C151.813926,4.39938448 150.864876,4.50406326 150.864876,4.50406326 L147.707537,4.52198125 C147.707537,4.52198125 147.473356,4.49274664 147.299774,4.5879949 C147.130301,4.68135706 147.0204,4.89920209 147.0204,4.89920209 C147.0204,4.89920209 146.521224,6.12045455 145.854629,7.15969796 C144.448514,9.35135102 143.886685,9.46734643 143.656612,9.33154693 C143.121487,9.01373837 143.255012,8.0565405 143.255012,7.37659994 C143.255012,5.25190357 143.606284,4.36637766 142.571983,4.137216 C142.228928,4.06082878 141.976259,4.01084702 141.098079,4.00235955 C139.971339,3.99198598 139.01818,4.00613176 138.477919,4.24849615 C138.118431,4.40975805 137.841111,4.77000395 138.010584,4.7907511 C138.219088,4.81621351 138.691559,4.90768956 138.942174,5.22078285 C139.265713,5.6253522 139.254415,6.53256832 139.254415,6.53256832 C139.254415,6.53256832 139.440322,9.03354247 138.819947,9.34380661 C138.394723,9.55693638 137.811325,9.12218937 136.557222,7.1332925 C135.915278,6.11479624 135.430482,4.98879204 135.430482,4.98879204 C135.430482,4.98879204 135.337015,4.77849142 135.169596,4.66532517 C134.967255,4.52858262 134.684799,4.48614527 134.684799,4.48614527 L131.684609,4.50406326 C131.684609,4.50406326 131.233707,4.51537989 131.068342,4.69550284 C130.921465,4.85487864 131.057044,5.18588993 131.057044,5.18588993 C131.057044,5.18588993 133.406046,10.2321617 136.066263,12.7755732 C138.505651,15.106798 141.274742,14.9540235 141.274742,14.9540235 L142.529872,14.9540235 Z" id="Shape"></path>
                </g>
            </g>
        </g>
    </g>
</svg>