<?xml version="1.0" encoding="UTF-8"?><svg xmlns="http://www.w3.org/2000/svg" xmlns:xlink="http://www.w3.org/1999/xlink"><defs><svg viewBox="0 0 54 44" id="check" xmlns="http://www.w3.org/2000/svg"><g transform="translate(7 2)" fill="none" fill-rule="evenodd"><circle stroke-opacity=".5" stroke="#323232" fill="#B32323" cx="20" cy="20" r="19.5"/><path d="M41.043 9.245c0 .565-.226 1.13-.633 1.538L20.967 30.226a2.192 2.192 0 0 1-1.538.633c-.565 0-1.13-.226-1.537-.633L6.633 18.966A2.192 2.192 0 0 1 6 17.43c0-.565.226-1.13.633-1.537l3.075-3.075a2.192 2.192 0 0 1 1.537-.633c.565 0 1.13.226 1.538.633l6.646 6.67L34.26 4.633A2.192 2.192 0 0 1 35.798 4c.565 0 1.13.226 1.537.633l3.075 3.075c.407.407.633.972.633 1.537z" stroke="#242424" fill="#F2D802"/></g></svg><svg viewBox="0 0 54 44" id="cs_club" xmlns="http://www.w3.org/2000/svg"><defs><path d="M9 7.533C7.953 6.435 6.53 5.884 5.091 6.02c-3.229.372-5.48 4.475-5.035 9.153.446 4.676 3.43 8.194 6.652 7.796a3.929 3.929 0 0 0 1.829-.661 2.187 2.187 0 0 1-1.343.352c-2.423.076-4.492-3.53-4.909-7.935-.417-4.406.571-8.226 3.046-8.333 1.31-.146 2.621.261 3.669 1.14z" id="ba"/><path d="M13.596 6.708a6.69 6.69 0 0 1 2.447.608c2.82 1.307 4.281 4.547 3.896 8.14-.514 4.48-3.694 7.866-7.144 7.52a4.496 4.496 0 0 1-1.933-.651 2.54 2.54 0 0 0 1.438.34c2.593.073 4.807-3.404 5.254-7.653.342-3.252-.202-6.177-2.074-7.429a3.984 3.984 0 0 0-2.104-.644c-2.367-.116-3.468-1.72-3.37-3.648.098-1.927 1.346-3.361 2.795-3.288a2.271 2.271 0 0 1 1.64.875 2.335 2.335 0 0 0-1.555-.711c-1.1-.128-1.785 1.325-1.883 3.118-.098 1.794.611 3.375 2.593 3.423z" id="bb"/></defs><g transform="translate(7 2)" fill="none" fill-rule="evenodd"><circle stroke-opacity=".5" stroke="#323232" fill="#902424" cx="20" cy="20" r="19.5"/><g stroke-linecap="square" stroke-linejoin="bevel"><g transform="translate(10 7)"><use fill="#FFF" xlink:href="#ba"/><path stroke="#000" stroke-width="1.3" d="M8.582 8.03a4.235 4.235 0 0 0-3.223-.989c-1.8.078-2.844 3.22-2.427 7.623.4 4.215 2.329 7.407 4.307 7.348.328.023.656-.063.945-.25l.717 1.085a4.559 4.559 0 0 1-2.113.767c-3.646.45-6.901-3.372-7.379-8.38-.476-4.994 1.969-9.44 5.62-9.86 1.64-.156 3.26.47 4.441 1.71l-.888.947z"/><use stroke="#FFF" stroke-width="1.5" xlink:href="#ba"/></g><g transform="translate(10 7)"><use fill="#FFF" xlink:href="#bb"/><path stroke="#000" stroke-width="1.3" d="M13.57 7.358h.01l-.019-.001h.01zm.042-1.3h.02c.928.051 1.84.277 2.684.668 3.052 1.414 4.688 4.89 4.269 8.804-.552 4.816-4.019 8.478-7.853 8.093a5.146 5.146 0 0 1-2.212-.746l.67-1.114c.323.189.695.277 1.128.253 2.102.059 4.163-3.012 4.59-7.072.348-3.31-.285-5.814-1.782-6.816a3.355 3.355 0 0 0-1.781-.54c-2.597-.127-4.111-1.905-3.988-4.33.114-2.241 1.617-3.998 3.49-3.904.832.059 1.6.468 2.108 1.127l-.983.848a1.717 1.717 0 0 0-1.16-.517c-.526-.06-1.073.913-1.16 2.509-.092 1.7.57 2.703 1.96 2.737z"/><use stroke="#FFF" stroke-width="1.5" xlink:href="#bb"/></g></g></g></svg><svg viewBox="0 0 54 44" id="envelope_inf" xmlns="http://www.w3.org/2000/svg"><defs><rect id="ca" width="24" height="15" rx="3"/></defs><g transform="translate(7 2)" fill="none" fill-rule="evenodd"><circle cx="20" cy="20" r="19.5" fill="#237691" stroke="#323232" stroke-opacity=".5"/><g transform="translate(8 13)"><rect stroke="#222121" fill="#FFF" x="-.5" y="-.5" width="25" height="16" rx="3"/><mask id="cb" fill="#fff"><use xlink:href="#ca"/></mask><rect stroke="#222121" x="-.5" y="-.5" width="25" height="16" rx="3"/><g mask="url(#cb)" fill="#FFF" stroke="#222121"><g transform="translate(0 -13)"><rect transform="rotate(45 12.02 28.02)" x="3.021" y="19.021" width="18" height="18" rx="2"/><rect transform="rotate(45 12.02 12.02)" x="3.021" y="3.021" width="18" height="18" rx="1"/></g></g></g><rect stroke="#292929" fill="#D41616" x="21.5" y="5.5" width="17" height="12" rx="6"/><path d="M30.23 13.567a12.24 12.24 0 0 1-.2.189c-.21.194-.434.365-.67.513a3.607 3.607 0 0 1-.789.365 3.1 3.1 0 0 1-.967.144c-.466 0-.893-.08-1.279-.242a2.867 2.867 0 0 1-1.61-1.685 3.433 3.433 0 0 1-.215-1.219c0-.422.068-.82.206-1.195.139-.378.341-.712.605-.999.268-.29.591-.517.967-.68a3.168 3.168 0 0 1 1.27-.244c.36 0 .693.05.998.152.292.097.564.228.815.391.242.158.47.342.685.551.064.062.127.125.188.189l.18-.185c.21-.209.435-.395.677-.558.253-.17.53-.305.83-.403.309-.101.639-.151.989-.151.467 0 .891.08 1.27.244.376.163.7.39.967.68.264.287.466.621.605 1 .138.373.206.772.206 1.194 0 .42-.068.823-.204 1.204a3.086 3.086 0 0 1-.594 1.017 2.758 2.758 0 0 1-.98.702 3.191 3.191 0 0 1-1.284.251c-.34 0-.66-.047-.958-.143a3.88 3.88 0 0 1-.803-.361 4.16 4.16 0 0 1-.7-.525 9.304 9.304 0 0 1-.205-.196zm1.746-1.896c.101.089.208.173.321.254.191.136.391.201.613.201.139 0 .217-.033.277-.104a.527.527 0 0 0 .119-.362c0-.173-.041-.293-.121-.385-.063-.072-.156-.109-.317-.109a.612.612 0 0 0-.248.056c-.116.051-.227.115-.334.192a3.105 3.105 0 0 0-.31.257zm-3.521.003a3.87 3.87 0 0 0-.326-.255 1.701 1.701 0 0 0-.335-.185.656.656 0 0 0-.246-.054c-.127 0-.204.034-.27.112a.534.534 0 0 0-.126.368c0 .165.038.27.11.344.069.07.167.108.328.108a.947.947 0 0 0 .567-.205 5.49 5.49 0 0 0 .298-.233z" stroke="#222121" fill="#FFF"/></g></svg><svg viewBox="0 0 54 44" id="envelope_zero" xmlns="http://www.w3.org/2000/svg"><defs><rect id="da" width="24" height="15" rx="3"/></defs><g transform="translate(7 2)" fill="none" fill-rule="evenodd"><circle cx="20" cy="20" r="19.5" fill="#237691" stroke="#323232" stroke-opacity=".5"/><g transform="translate(8 13)"><rect stroke="#222121" fill="#FFF" x="-.5" y="-.5" width="25" height="16" rx="3"/><mask id="db" fill="#fff"><use xlink:href="#da"/></mask><rect stroke="#222121" x="-.5" y="-.5" width="25" height="16" rx="3"/><g mask="url(#db)" fill="#FFF" stroke="#222121"><g transform="translate(0 -13)"><rect transform="rotate(45 12.02 28.02)" x="3.021" y="19.021" width="18" height="18" rx="2"/><rect transform="rotate(45 12.02 12.02)" x="3.021" y="3.021" width="18" height="18" rx="1"/></g></g></g><rect stroke="#292929" fill="#A9A9A9" x="21.5" y="5.5" width="17" height="12" rx="6"/><path d="M30.324 7.5c.843 0 1.53.314 2.018.931.549.692.806 1.766.806 3.226 0 1.457-.259 2.533-.811 3.23-.485.613-1.171.923-2.013.923-.848 0-1.554-.337-2.075-.992-.513-.644-.749-1.699-.749-3.175 0-1.45.26-2.524.811-3.221.486-.612 1.172-.922 2.013-.922zm0 2.138a.187.187 0 0 0-.129.046c-.034.028-.087.128-.135.31-.08.302-.124.864-.124 1.663 0 .798.04 1.342.11 1.601.059.222.122.346.151.37.04.031.076.044.127.044.051 0 .088-.013.13-.047.033-.028.086-.127.134-.31.08-.299.125-.859.125-1.658 0-.798-.04-1.341-.11-1.6-.06-.223-.124-.35-.155-.375a.177.177 0 0 0-.124-.044z" stroke="#222121" fill="#FFF"/></g></svg><svg viewBox="0 0 54 44" id="first_term" xmlns="http://www.w3.org/2000/svg"><g transform="translate(7 2)" fill="none" fill-rule="evenodd"><circle cx="20" cy="20" r="19.5" fill="#0C7446" stroke="#323232" stroke-opacity=".5"/><path d="M9.5 15.5h3v11h-3v-11zm6 0h3v11h-3v-11zm6 0h3v11h-3v-11zm6 0h3v11h-3v-11zM9 12.5h22a1.5 1.5 0 0 1 0 3H9a1.5 1.5 0 0 1 0-3zm11-7.1l10.651 7.1H9.35L20 5.4zM9 26.5h22a1.5 1.5 0 0 1 0 3H9a1.5 1.5 0 0 1 0-3z" stroke="#222121" fill="#FFF"/><circle stroke="#222121" fill="#D8D8D8" cx="20" cy="9" r="1"/></g></svg><svg viewBox="0 0 54 44" id="grampycat" xmlns="http://www.w3.org/2000/svg"><defs><circle id="fa" cx="20" cy="20" r="20"/><path id="fb" d="M0 .025h27.927V24H0z"/><path id="fd" d="M0 .025h27.927V25H0z"/></defs><g fill="none" fill-rule="evenodd"><circle stroke-opacity=".5" stroke="#323232" cx="20" cy="20" r="19.5" transform="translate(6 2)"/><g transform="translate(13 11)"><mask id="fc" fill="#fff"><use xlink:href="#fb"/></mask><path d="M.588.037c.458.042 4.25 2.686 4.875 3.064.625.377 2.5 1.426 2.5 1.426s1.75-.713 2.625-.839 2.167.252 3.126.294c.958.042 2.958-.21 3.833-.126.875.084 2.186.417 2.186.417s1.534-.963 2.16-1.425c.624-.461 4.861-2.685 5.488-2.685.458 0 .571.065.541.462-.041.545-1.436 3.916-1.686 4.336-.25.42.043.863-.124 1.325-.166.462-.637.78-.72 1.2-.083.42.206.879.248 1.55.042.672-.343 1.787-.343 1.787s1.375 2.602 1.375 4.364c0 1.763-1.708 4.364-2.625 5.414-.917 1.049-3.667 2.308-4.667 2.391-1 .085-1.708-.377-2.208-.125-.5.251-.5.63-1.125.923-.625.294-4.125.252-4.875.042s-1.167-1.091-1.667-1.133c-.5-.042-.541.294-1.125.252-.583-.042-2.583-.671-3.667-1.385-1.083-.713-3.583-4.616-3.666-6.42-.084-1.805 1.291-4.197 1.291-4.197s-.833-1.637-.792-2.14c.042-.504.417-1.175.292-1.763-.125-.587-.583-.377-.625-.88-.042-.505.209-.505 0-1.05C1.005 4.57-.079 1.128.005.54.076.035.129-.005.588.037" fill="#FEFEFE" mask="url(#fc)"/></g><g transform="translate(13 11)"><mask id="fe" fill="#fff"><use xlink:href="#fd"/></mask><path d="M.588.037c.458.042 4.25 2.686 4.875 3.064.625.377 2.5 1.426 2.5 1.426s1.75-.713 2.625-.839 2.167.252 3.126.294c.958.042 2.958-.21 3.833-.126.875.084 2.186.417 2.186.417s1.534-.963 2.16-1.425c.624-.461 4.861-2.685 5.488-2.685.458 0 .571.065.541.462-.041.545-1.436 3.916-1.686 4.336-.25.42.043.863-.124 1.325-.166.462-.637.78-.72 1.2-.083.42.206.879.248 1.55.042.672-.343 1.787-.343 1.787s1.375 2.602 1.375 4.364c0 1.763-1.708 4.364-2.625 5.414-.917 1.049-3.667 2.308-4.667 2.391-1 .085-1.708-.377-2.208-.125-.5.251-.5.63-1.125.923-.625.294-4.125.252-4.875.042s-1.167-1.091-1.667-1.133c-.5-.042-.541.294-1.125.252-.583-.042-2.583-.671-3.667-1.385-1.083-.713-3.583-4.616-3.666-6.42-.084-1.805 1.291-4.197 1.291-4.197s-.833-1.637-.792-2.14c.042-.504.417-1.175.292-1.763-.125-.587-.583-.377-.625-.88-.042-.505.209-.505 0-1.05C1.005 4.57-.079 1.128.005.54.076.035.129-.005.588.037z" stroke="#1B1A1A" fill="#533F31" mask="url(#fe)"/><path d="M13.621 8.643c.767.08 1.125 1.072 1.413 3.015.054.367.206 1.54.213 1.59.065.47.119.762.176.938.361 1.1.997 2.417 1.46 2.983a.8.8 0 0 0 .155.135c.206.145 1.45.757 1.475.77 1.07.57 1.698 1.158 1.88 1.99.305 1.39-.87 2.428-2.179 2.65-.172.03-.287.03-.505.013l-.03-.003c-.28-.02-.436.004-.75.157-.151.074-.211.13-.326.283a1.672 1.672 0 0 1-.174.208c-.144.143-.328.257-.597.358-.583.22-4.353.2-4.957.004-.25-.081-.438-.214-.89-.582l-.028-.022c-.385-.314-.574-.442-.74-.482-.162-.04-.229-.037-.34-.005l-.046.014c-.206.06-.368.076-.643.038-1.23-.173-2.674-1.399-2.402-2.874.169-.92.883-1.448 2.226-1.952.185-.07.795-.286.884-.319.423-.155.683-.275.854-.403.351-.26.638-.64 1.037-1.323-.008.014.44-.767.579-.997.088-.146.174-.28.26-.41.167-.25.29-.818.468-2.041l.088-.606c.343-2.321.633-3.211 1.44-3.127z" stroke="#1B1A1A" stroke-width=".5" fill="#F0EBEE" mask="url(#fe)"/><path d="M16.643 6.752s.32-.56.695-.546c.375.015 1.903.895 2.5 1.343.598.448 2.167 1.735 2.625 2.057.458.322 2.348 1.174 2.667 4.112.32 2.938-2.291 6.267-2.833 6.715-.542.447-1.43.504-1.903 1.035-.473.531-1.458 1.175-1.458 1.175s.628.124 1.555-.196c.871-.3 2.027-1.031 2.514-1.384 1.334-.966 3.444-3.987 3.361-5.82-.108-2.378-1.486-4.546-1.486-4.546s-.321-.287-.344-.504c-.336-3.15-4.73-5.526-4.73-5.526-.124 0-1.316-.322-2.26-.434-.945-.111-2.25.084-3.25.084s-2.375-.363-3.417-.293c-1.042.07-2.625.797-2.625.797-4.739 1.828-5.91 6.757-5.5 5.526 0 0-.128.289-.124.35.028.49-1.222 2.518-1.292 4.155-.069 1.637 2.014 4.993 3.25 6.085 1.237 1.09 2.5 1.287 2.5 1.287s-.208-.462-.513-.783c-.306-.323-.473-.575-.82-.813-.348-.237-.681-.07-1.25-.615-.57-.545-1.903-4.044-1.875-5.498.027-1.454 1.361-2.797 2.041-3.776 0 0 1.889-2.308 3.084-2.938.748-.394 2.806-1.301 3.208-1.343.403-.042.57.601.57.601s.699-.741 2.625-.741c1.925 0 2.485.434 2.485.434z" stroke="#1B1A1A" stroke-width=".5" fill="#C0B2A4" mask="url(#fe)"/><g mask="url(#fe)"><path d="M20.875 10.622l1.437.37a.787.787 0 0 1 .577.832c-.113 1.415-.748 2.536-2.184 2.801-1.897.35-3.506-.123-3.66-.99-.11-.627.2-1.26.769-1.874a5.519 5.519 0 0 1 .763-.681l.35-.247.043.425a3.546 3.546 0 0 0 .23.902c.22.54.526.833.94.815.36-.016.533-.334.55-.937a4.401 4.401 0 0 0-.06-.8 4.283 4.283 0 0 0-.06-.315l-.098-.405.403.104z" stroke="#1B1A1A" stroke-width=".5" fill="#A8B7E4"/><path d="M19.338 10.753c1.281 2.405 1.342 2.354-.206.113" stroke="#141414"/></g><g mask="url(#fe)"><path d="M7.125 10.622l-1.437.37a.787.787 0 0 0-.577.832c.113 1.415.748 2.536 2.184 2.801 1.897.35 3.506-.123 3.66-.99.11-.627-.2-1.26-.769-1.874a5.519 5.519 0 0 0-.763-.681l-.35-.247-.043.425a3.546 3.546 0 0 1-.23.902c-.22.54-.526.833-.94.815-.36-.016-.533-.334-.55-.937a4.401 4.401 0 0 1 .06-.8c.022-.145.045-.255.06-.315l.098-.405-.403.104z" stroke="#1B1A1A" stroke-width=".5" fill="#A8B7E4"/><path d="M8.662 10.753c-1.281 2.405-1.342 2.354.206.113" stroke="#141414"/></g></g><path d="M24.142 31.852c.286-1.434 1.19-.796 2.615-.852 1.81-.071 2.356-.502 3.1.852.131.239 1.254.134 1.121-.108-.296-.539-.563-1.04-1.226-1.367-.984-.483-1.879-.38-2.995-.337-.68.027-1.496-.087-2.149.077-.844.21-1.48.996-1.606 1.627-.034.171.346.207 1.14.108z" fill="#010202"/><path d="M26 30c0 .23 1 .23 1 0v-.827c0-.23-1-.23-1 0V30z" fill="#010202"/><path d="M25.51 28.431c.103.022.215.01.309.073.152.104.198.362.307.538.013.02.36.191.374.208.213.256.75 0 .75 0 0 .02.36-.641.495-.768.057-.053.133-.168.196-.297.116-.238.054-.564-.132-.703-.833-.617-2.412-.548-2.596-.307-.183.24-.21.385-.21.385-.03.402.206.807.506.871z" stroke="#131313" stroke-width=".5" fill="#E7B4BD"/></g></svg><svg viewBox="0 0 54 44" id="half-night" xmlns="http://www.w3.org/2000/svg"><g transform="translate(7 1)" fill="none" fill-rule="evenodd"><circle cx="20" cy="20" r="19.5" transform="translate(0 2)" fill="#1D578F" stroke="#323232" stroke-opacity=".5"/><path d="M18.602 20.62l.165.956c.005.042.005.042.006.075l.001.044c0 .318-.216.62-.599.62a.661.661 0 0 1-.328-.086L17 21.784l-.842.442a.678.678 0 0 1-.333.089c-.378 0-.601-.3-.601-.62 0-.047 0-.047.004-.082l.008-.051.162-.943-.705-.686a.621.621 0 0 1-.193-.455c0-.383.261-.557.563-.605l.947-.138.42-.85c.102-.215.28-.385.57-.385.29 0 .468.17.566.377l.424.858.958.14c.293.048.552.22.552.603 0 .204-.084.344-.213.474l-.685.667zM16.602 7.62l.165.956c.005.042.005.042.006.075l.001.044c0 .318-.216.62-.599.62a.661.661 0 0 1-.328-.086L15 8.784l-.842.442a.678.678 0 0 1-.333.089c-.378 0-.601-.3-.601-.62 0-.047 0-.047.004-.082l.008-.051.162-.943-.705-.686a.621.621 0 0 1-.193-.455c0-.383.261-.557.563-.605l.947-.138.42-.85c.102-.215.28-.385.57-.385.29 0 .468.17.566.377l.424.858.958.14c.293.048.552.22.552.603 0 .204-.084.344-.213.474l-.685.667zM29.135 34.841l.267 1.558a.844.844 0 0 1 .01.143c0 .354-.235.68-.649.68a.757.757 0 0 1-.377-.1L27 36.393l-1.382.726a.776.776 0 0 1-.381.103c-.41 0-.652-.325-.652-.68.002-.053.002-.053.006-.093l.009-.064.265-1.543-1.142-1.112c-.138-.149-.223-.295-.223-.512 0-.414.288-.607.63-.661l1.55-.226.691-1.397c.116-.244.315-.434.629-.434s.513.19.625.426l.695 1.405 1.56.227c.333.056.62.245.62.66 0 .222-.095.381-.245.53l-1.12 1.093z" stroke="#222121" fill="#F2F2F2"/><path d="M17.249 12.585c-4.82 1.358-6.816 4.652-6.07 10.022.466 2.33 2.106 4.17 4.881 5.502 4.234 1.092 7.375.124 9.533-2.91l1.88-2.646-.997 3.089c-1.958 6.06-5.423 8.27-10.112 8.27-3.997 0-6.204-.771-8.931-3.693-2.094-2.243-3.067-5.123-2.918-8.616.15-2.484 1.347-4.877 3.566-7.17 2.256-2.33 5.303-3.271 9.09-2.825l2.504.294-2.426.683z" stroke="#222121" fill="#FFE082" stroke-linecap="round" stroke-linejoin="round"/><path d="M47 10c0 5.531-6.042 10-13.5 10-.738 0-1.477-.047-2.185-.125a16.34 16.34 0 0 1-6.93 3.781 11.98 11.98 0 0 1-1.718.344h-.075c-.302 0-.573-.25-.648-.594v-.015c-.076-.391.18-.625.406-.907.95-1.109 2.034-2.046 2.743-4.656C21.989 16 20 13.172 20 10c0-5.531 6.042-10 13.5-10S47 4.469 47 10z" fill="#1A1A1A"/><path d="M33.5 2c-6.268 0-11.571 3.656-11.571 8 0 2.328 1.506 4.547 4.113 6.078l1.31.781-.406 1.5a11.498 11.498 0 0 1-1.055 2.688 14.859 14.859 0 0 0 4.144-2.672l.647-.594.86.094c.647.078 1.31.125 1.958.125 6.268 0 11.571-3.656 11.571-8 0-4.344-5.303-8-11.571-8z" fill="#FFF"/><path d="M33.565 26.59l.162.942c.005.041.005.041.007.075v.043c0 .317-.215.619-.597.619a.659.659 0 0 1-.328-.086l-.833-.438-.83.435a.675.675 0 0 1-.331.089c-.377 0-.6-.3-.6-.62.001-.046.001-.046.005-.08l.007-.051.16-.928-.695-.676a.62.62 0 0 1-.192-.454c0-.382.26-.556.561-.604l.932-.135.415-.838c.1-.213.279-.383.568-.383.289 0 .467.17.564.376l.418.845.943.137c.292.049.55.22.55.602 0 .204-.083.343-.212.472l-.674.657z" stroke="#222121" fill="#F2F2F2"/><circle fill="#353535" cx="28.5" cy="9.5" r="1.5"/><circle fill="#353535" cx="33.5" cy="9.5" r="1.5"/><circle fill="#353535" cx="38.5" cy="9.5" r="1.5"/></g></svg><svg viewBox="0 0 52 44" id="most_courses" xmlns="http://www.w3.org/2000/svg"><g fill="none" fill-rule="evenodd"><circle cx="20" cy="20" r="19.5" transform="translate(6)" fill="#5F448D" stroke="#323232" stroke-opacity=".5"/><g fill="#F8DD01" stroke="#222121"><path d="M27.05 40.808c2.76-1.87 5.052-.228 7.15 1.63-2.708.724-5.577 1.053-7.15-1.63zM27.714 39.198c.122-3.297 2.829-4.126 5.596-4.675-1.026 2.572-2.471 5.034-5.596 4.675zM31.972 39.322c2.59-2.093 5.015-.647 7.266 1.03-2.638.947-5.468 1.513-7.266-1.03zM34.374 37.76c-1.614-2.892.277-4.97 2.366-6.84.46 2.726.504 5.569-2.366 6.84zM36.47 37.695c1.906-2.713 4.64-1.979 7.273-.976-2.271 1.624-4.835 2.934-7.273.976zM39.162 35.275c-2.466-2.235-1.347-4.798.029-7.224 1.318 2.44 2.28 5.12-.03 7.224zM40.472 35.001c1.346-3.02 4.173-2.811 6.95-2.32-1.915 2.02-4.179 3.786-6.95 2.32zM42.718 32.08c-2.844-1.745-2.227-4.468-1.333-7.103 1.755 2.156 3.205 4.615 1.333 7.104zM43.71 31.673c.742-3.217 3.558-3.538 6.38-3.572-1.493 2.34-3.376 4.495-6.38 3.572zM44.555 26.945c-3.028-1.414-2.732-4.189-2.15-6.907 1.994 1.944 3.72 4.223 2.15 6.907zM45.06 27.865c.348-3.281 3.105-3.929 5.904-4.292-1.2 2.498-2.81 4.858-5.904 4.292zM45.828 21.567c-3.273-.712-3.614-3.482-3.664-6.26 2.385 1.457 4.586 3.299 3.664 6.26zM46.468 23.987c-.947-3.165 1.353-4.797 3.8-6.181-.144 2.76-.72 5.545-3.8 6.18zM44.54 15.351c-3.347.165-4.42-2.417-5.215-5.083 2.692.784 5.309 1.988 5.216 5.083zM46.696 18.902c-2.012-2.638-.438-4.959 1.363-7.098.846 2.635 1.296 5.443-1.363 7.098zM43.076 10.658c-3.346-.19-4.131-2.872-4.63-5.606 2.59 1.064 5.061 2.538 4.63 5.606zM45.212 13.505c-2.514-2.182-1.451-4.769-.13-7.224 1.372 2.411 2.392 5.07.13 7.224z"/><g><path d="M25.42 40.808c-2.815-1.87-5.152-.228-7.291 1.63 2.762.724 5.687 1.053 7.29-1.63zM24.743 39.198c-.125-3.297-2.885-4.126-5.706-4.675 1.046 2.572 2.52 5.034 5.706 4.675zM20.4 39.322c-2.64-2.093-5.112-.647-7.407 1.03 2.69.947 5.575 1.513 7.408-1.03zM17.952 37.76c1.645-2.892-.283-4.97-2.412-6.84-.47 2.726-.514 5.569 2.412 6.84zM15.815 37.695c-1.943-2.713-4.732-1.979-7.416-.976 2.316 1.624 4.93 2.934 7.416.976zM13.07 35.275c2.515-2.235 1.373-4.798-.029-7.224-1.344 2.44-2.325 5.12.03 7.224zM11.735 35.001c-1.373-3.02-4.255-2.811-7.088-2.32 1.954 2.02 4.262 3.786 7.088 2.32zM9.445 32.08c2.9-1.745 2.27-4.468 1.359-7.103-1.79 2.156-3.268 4.615-1.36 7.104zM8.433 31.673c-.757-3.217-3.628-3.538-6.506-3.572 1.523 2.34 3.443 4.495 6.506 3.572zM7.571 26.945c3.088-1.414 2.786-4.189 2.193-6.907-2.034 1.944-3.794 4.223-2.193 6.907zM7.057 27.865c-.355-3.281-3.167-3.929-6.02-4.292 1.224 2.498 2.866 4.858 6.02 4.292zM6.274 21.567c3.336-.712 3.685-3.482 3.736-6.26-2.433 1.457-4.676 3.299-3.736 6.26zM5.62 23.987c.966-3.165-1.378-4.797-3.873-6.181.146 2.76.733 5.545 3.874 6.18zM7.586 15.351c3.413.165 4.508-2.417 5.318-5.083-2.745.784-5.413 1.988-5.318 5.083zM5.389 18.902c2.05-2.638.446-4.959-1.39-7.098-.863 2.635-1.322 5.443 1.39 7.098zM9.08 10.658c3.41-.19 4.211-2.872 4.72-5.606-2.642 1.064-5.16 2.538-4.72 5.606zM6.901 13.505c2.564-2.182 1.48-4.769.133-7.224-1.399 2.411-2.44 5.07-.133 7.224z"/><path d="M27 39.2c0 .42-.342.76-.765.76a.762.762 0 0 1-.764-.76c0-.42.342-.76.764-.76.423 0 .765.34.765.76z" stroke-width="1.018" fill-rule="nonzero" stroke-linecap="round"/></g></g><path stroke="#222121" fill="#F2D802" d="M23.143 12.571V10h5.143v15.429h5.143V28H18v-2.571h5.143V15.143H20.57V12.57z"/></g></svg><svg viewBox="0 0 54 44" id="night" xmlns="http://www.w3.org/2000/svg"><g transform="translate(7 1)" fill="none" fill-rule="evenodd"><circle cx="20" cy="20" r="19.5" transform="translate(0 2)" fill="#1D578F" stroke="#323232" stroke-opacity=".5"/><path d="M18.602 20.62l.165.956c.005.042.005.042.006.075l.001.044c0 .318-.216.62-.599.62a.661.661 0 0 1-.328-.086L17 21.784l-.842.442a.678.678 0 0 1-.333.089c-.378 0-.601-.3-.601-.62 0-.047 0-.047.004-.082l.008-.051.162-.943-.705-.686a.621.621 0 0 1-.193-.455c0-.383.261-.557.563-.605l.947-.138.42-.85c.102-.215.28-.385.57-.385.29 0 .468.17.566.377l.424.858.958.14c.293.048.552.22.552.603 0 .204-.084.344-.213.474l-.685.667zM16.602 7.62l.165.956c.005.042.005.042.006.075l.001.044c0 .318-.216.62-.599.62a.661.661 0 0 1-.328-.086L15 8.784l-.842.442a.678.678 0 0 1-.333.089c-.378 0-.601-.3-.601-.62 0-.047 0-.047.004-.082l.008-.051.162-.943-.705-.686a.621.621 0 0 1-.193-.455c0-.383.261-.557.563-.605l.947-.138.42-.85c.102-.215.28-.385.57-.385.29 0 .468.17.566.377l.424.858.958.14c.293.048.552.22.552.603 0 .204-.084.344-.213.474l-.685.667zM29.135 34.841l.267 1.558a.844.844 0 0 1 .01.143c0 .354-.235.68-.649.68a.757.757 0 0 1-.377-.1L27 36.393l-1.382.726a.776.776 0 0 1-.381.103c-.41 0-.652-.325-.652-.68.002-.053.002-.053.006-.093l.009-.064.265-1.543-1.142-1.112c-.138-.149-.223-.295-.223-.512 0-.414.288-.607.63-.661l1.55-.226.691-1.397c.116-.244.315-.434.629-.434s.513.19.625.426l.695 1.405 1.56.227c.333.056.62.245.62.66 0 .222-.095.381-.245.53l-1.12 1.093z" stroke="#222121" fill="#F2F2F2"/><path d="M17.157 11.606c5.377.31 8.522 3.462 9.333 9.296l.012.058c.317.08.584.39.727.873.185.62.271 1.666.271 3.167l-.024.154c-1.952 6.04-6.342 8.757-11.112 8.757-3.997 0-6.204-.77-8.931-3.692-2.094-2.243-3.067-5.123-2.918-8.616.15-2.484 1.347-4.877 3.566-7.17 2.253-2.328 5.294-3.269 9.076-2.827z" stroke="#222121" fill="#FFE082" stroke-linecap="round" stroke-linejoin="round"/><circle fill="#C0AC06" cx="14" cy="18" r="3"/><circle fill="#C0AC06" cx="15" cy="28" r="2"/><circle fill="#C0AC06" cx="17.5" cy="23.5" r="1.5"/><circle fill="#C0AC06" cx="8.5" cy="23.5" r="1.5"/><path d="M47 10c0 5.531-6.042 10-13.5 10-.738 0-1.477-.047-2.185-.125a16.34 16.34 0 0 1-6.93 3.781 11.98 11.98 0 0 1-1.718.344h-.075c-.302 0-.573-.25-.648-.594v-.015c-.076-.391.18-.625.406-.907.95-1.109 2.034-2.046 2.743-4.656C21.989 16 20 13.172 20 10c0-5.531 6.042-10 13.5-10S47 4.469 47 10z" fill="#1A1A1A"/><path d="M33.5 2c-6.268 0-11.571 3.656-11.571 8 0 2.328 1.506 4.547 4.113 6.078l1.31.781-.406 1.5a11.498 11.498 0 0 1-1.055 2.688 14.859 14.859 0 0 0 4.144-2.672l.647-.594.86.094c.647.078 1.31.125 1.958.125 6.268 0 11.571-3.656 11.571-8 0-4.344-5.303-8-11.571-8z" fill="#FFF"/><path d="M33.565 26.59l.162.942c.005.041.005.041.007.075v.043c0 .317-.215.619-.597.619a.659.659 0 0 1-.328-.086l-.833-.438-.83.435a.675.675 0 0 1-.331.089c-.377 0-.6-.3-.6-.62.001-.046.001-.046.005-.08l.007-.051.16-.928-.695-.676a.62.62 0 0 1-.192-.454c0-.382.26-.556.561-.604l.932-.135.415-.838c.1-.213.279-.383.568-.383.289 0 .467.17.564.376l.418.845.943.137c.292.049.55.22.55.602 0 .204-.083.343-.212.472l-.674.657z" stroke="#222121" fill="#F2F2F2"/><circle fill="#353535" cx="28.5" cy="9.5" r="1.5"/><circle fill="#353535" cx="33.5" cy="9.5" r="1.5"/><circle fill="#353535" cx="38.5" cy="9.5" r="1.5"/></g></svg><svg viewBox="0 0 54 46" id="partymaker" xmlns="http://www.w3.org/2000/svg"><g transform="translate(6 -3)" fill="none" fill-rule="evenodd"><circle stroke="#DCA313" fill="#FFCF00" cx="20" cy="26" r="19.5"/><g fill="#F33232" stroke="#373737"><path d="M16.906 29.191C11.366 29.99 7.396 27.26 5 21c-3.595-9.39-.035-15.65 5-17 5.035-1.35 10.678 3.744 12 12.707.882 5.976-.816 10.137-5.094 12.484z"/><path stroke-linejoin="round" d="M16.421 29.32l-2.38 2.71 5.796-1.554z"/></g><g fill="#53AFE0" stroke="#373737"><path d="M25 33c-4.552-3.358-6.218-7.692-5-13 1.828-7.962 7.507-10.785 13-9 5.493 1.785 7.35 7.56 5 14-1.567 4.293-5.9 6.96-13 8z"/><path stroke-linejoin="round" d="M24.682 32.517l-3.47.975 5.705 1.854z"/></g><path d="M17 29c-4.667.667-7 2-7 4 0 3 5 2 5 4s-1 4-3 4M25.308 33c3.68.744 5.243 2.077 4.692 4-.827 2.884-4.141 3.077-4.692 5-.552 1.923.692 5 2.692 6" stroke="#323232" stroke-linecap="round"/><path d="M9.25 8c-2 1.333-2.667 3-2 5M29.152 13.95c-2.376.364-3.684 1.593-3.925 3.687" stroke="#303030"/></g></svg><svg viewBox="0 0 54 46" id="spring" xmlns="http://www.w3.org/2000/svg"><defs><circle id="ka" cx="20" cy="20" r="20"/></defs><g fill="none" fill-rule="evenodd"><g transform="translate(7 5)"><circle stroke-opacity=".5" stroke="#323232" fill="#0C7446" cx="20" cy="20" r="19.5"/><mask id="kb" fill="#fff"><use xlink:href="#ka"/></mask><circle stroke-opacity=".5" stroke="#323232" cx="20" cy="20" r="19.5"/><path d="M15 40c0-4.667.333-8.667 1-12 1-5 1-17 3-21 1.333-2.667 2.667-4 4-4l-2 5c-.667 1.333-1.333 5.333-2 12-1 10-1 11 1 22 1.333 7.333-.333 6.667-5-2z" stroke="#1C1C1C" fill="#744E0C" mask="url(#kb)"/></g><g stroke="#1C1C1C"><path d="M25.741 34.164c-.372-.696-.404-.7-.211-1.71.884-4.641 3.083-12.225 9.536-11.933 7.856.355 8.711.965 13.294-2.341 1.335 2.88 1.11 9.959-2.198 13.882-3.083 3.656-7.682 7.072-18.565 3.734-.795-.244-1.12-.626-1.856-1.632z" fill="#5FB104"/><path d="M29.576 31.416c7.164-.102 12.676-2.942 16.537-8.518" stroke-linecap="round"/></g><g stroke="#1C1C1C"><path d="M23.669 21.804c.325-.449.347-.449.325-1.182-.1-3.374-.772-8.97-5.149-9.485-5.328-.627-5.97-.292-8.703-3.137-1.206 1.882-1.81 6.902 0 10.04 1.686 2.923 4.419 5.847 12.103 4.708.562-.083.821-.316 1.424-.944z" fill="#5FB104"/><path d="M21 20c-4.235-.778-7.235-3.111-9-7" stroke-linecap="round"/></g><path d="M30.177 8.362c-.174-.24-.185-.24-.174-.63.054-1.8.412-4.784 2.746-5.059 2.842-.334 3.184-.156 4.642-1.673.643 1.004.965 3.681 0 5.354-.899 1.56-2.357 3.119-6.455 2.512-.3-.045-.438-.17-.76-.504z" fill="#5FB104" stroke="#1C1C1C"/></g></svg><svg viewBox="0 0 54 45" id="two_diploms" xmlns="http://www.w3.org/2000/svg"><defs><circle id="la" cx="20" cy="20" r="20"/></defs><g fill="none" fill-rule="evenodd"><g transform="translate(7 4)"><mask id="lb" fill="#fff"><use xlink:href="#la"/></mask><circle stroke="#323232" cx="20" cy="20" r="20.5"/><path fill="#9F2944" mask="url(#lb)" transform="rotate(45 17.5 20.5)" d="M-12-7h59v55h-59z"/><g fill-rule="nonzero" mask="url(#lb)"><path d="M11.824 35.571A3.42 3.42 0 0 1 8.412 39 3.42 3.42 0 0 1 5 35.571a3.42 3.42 0 0 1 3.412-3.428 3.42 3.42 0 0 1 3.412 3.428m22.176 0a3.42 3.42 0 0 0-3.412-3.428 3.42 3.42 0 0 0-3.412 3.428A3.42 3.42 0 0 0 30.588 39 3.42 3.42 0 0 0 34 35.571" fill="#FFA726"/><path d="M7.559 28.714C7.559 17.807 31.44 19.9 31.44 27v11.143C31.441 45.245 24.475 51 19.5 51c-4.975 0-11.941-5.755-11.941-12.857v-9.429z" stroke="#222121" fill="#F9BB61"/><path d="M5.853 29.004c.404-5.12 1.424-10.162 7.676-11.433L15.235 15H19.5c7.872 0 13.647 6.412 13.647 15.429v2.914l-2.559 3.086v-5.143c0-9-11.514 3.75-17.059-7.715-.213 4.715-5.117 6.858-5.117 6.858v6l-2.56-3.086v-2.914c0-.485-.055-.958 0-1.425" stroke="#222121" fill="#733F1A"/><path d="M25.75 35.214c0 .829-.668 1.5-1.493 1.5a1.496 1.496 0 0 1-1.492-1.5c0-.828.668-1.5 1.492-1.5.825 0 1.493.672 1.493 1.5m-8.941 0c0-.828-.669-1.5-1.493-1.5-.825 0-1.492.672-1.492 1.5 0 .829.667 1.5 1.492 1.5.824 0 1.493-.671 1.493-1.5" stroke="#222121" fill="#733F1A"/></g></g><g stroke="#222121" stroke-linejoin="round"><path d="M30.459 3.433l7.547 8.35a4.074 4.074 0 0 0 2.082 1.2l7.726 1.657c.176.318.52.553.9.652.407.106.81.028 1.042-.235l1.328.285c1.385.312 2.373-1.405 1.415-2.442L44.95 4.547a4.074 4.074 0 0 0-2.081-1.199L31.873.99C30.488.677 29.5 2.391 30.459 3.433zm7.306 8.506L33.24 6.931l-.367.467-2.167 2.766c-.93 1.61 1.657 4.535 5.608 6.816 3.95 2.281 7.776 3.059 8.737 1.384l1.502-3.746-.58-.125-6.02-1.29h-.001l-.008-.003a4.257 4.257 0 0 1-2.172-1.253l-.001-.002-.006-.006z" fill="#4C4C4C" fill-rule="nonzero"/><path d="M48.37 16.049c-.425.243-.754.67-.901 1.185a1.989 1.989 0 0 0 .146 1.5l-1.907 4.658c-.183.448.014.984.49 1.12l1.646.472c.477.137.928-.213 1.01-.69l.851-4.96c.433-.241.77-.673.92-1.196.156-.544.087-1.114-.179-1.556.169-.777.207-1.414.101-2.053l-.074-.451-2.274.17.169.59c.103.361.103.702.001 1.21z" fill="#F8DD01"/></g><g><g stroke="#222121" stroke-linejoin="round"><path d="M23.541 3.433l-7.547 8.35a4.074 4.074 0 0 1-2.082 1.2L6.186 14.64c-.176.318-.52.553-.9.652-.407.106-.81.028-1.042-.235l-1.328.285c-1.385.312-2.373-1.405-1.415-2.442L9.05 4.547a4.074 4.074 0 0 1 2.081-1.199L22.127.99c1.385-.312 2.372 1.402 1.414 2.444zm-7.306 8.506l4.525-5.008.367.467 2.167 2.766c.93 1.61-1.657 4.535-5.608 6.816-3.95 2.281-7.776 3.059-8.737 1.384l-1.502-3.746.58-.125 6.02-1.29h.001l.008-.003a4.257 4.257 0 0 0 2.172-1.253l.001-.002.006-.006z" fill="#4C4C4C" fill-rule="nonzero"/><path d="M5.63 16.049c.425.243.754.67.901 1.185.15.522.093 1.067-.146 1.5l1.907 4.658c.183.448-.014.984-.49 1.12l-1.646.472c-.477.137-.928-.213-1.01-.69l-.851-4.96a1.989 1.989 0 0 1-.92-1.196c-.156-.544-.087-1.114.179-1.556-.169-.777-.207-1.414-.101-2.053l.074-.451 2.274.17-.169.59c-.103.361-.103.702-.001 1.21z" fill="#F8DD01"/></g></g></g></svg></defs></svg>