<?xml version="1.0" encoding="utf-8"?><svg xmlns="http://www.w3.org/2000/svg" xmlns:xlink="http://www.w3.org/1999/xlink"><defs><svg viewBox="0 0 24 24" id="arrow-bottom" xmlns="http://www.w3.org/2000/svg"><path d="M12 12.879l-5.94-5.94a1.5 1.5 0 00-2.12 2.122l7 7a1.5 1.5 0 002.12 0l7-7a1.5 1.5 0 00-2.12-2.122L12 12.88z"/></svg><svg viewBox="0 0 24 24" id="arrow-left" xmlns="http://www.w3.org/2000/svg"><path d="M9.121 12l5.94-5.94a1.5 1.5 0 00-2.122-2.12l-7 7a1.5 1.5 0 000 2.12l7 7a1.5 1.5 0 002.122-2.12L9.12 12z"/></svg><svg viewBox="0 0 24 24" id="arrow-right" xmlns="http://www.w3.org/2000/svg"><path d="M14.879 12l-5.94-5.94a1.5 1.5 0 012.122-2.12l7 7a1.5 1.5 0 010 2.12l-7 7a1.5 1.5 0 01-2.122-2.12L14.88 12z"/></svg><svg viewBox="0 0 24 24" id="arrow-top" xmlns="http://www.w3.org/2000/svg"><path d="M12 10.121l5.94 5.94a1.5 1.5 0 002.12-2.122l-7-7a1.5 1.5 0 00-2.12 0l-7 7a1.5 1.5 0 002.12 2.122L12 10.12z"/></svg><svg viewBox="0 0 32 32" id="border-arrow-right" xmlns="http://www.w3.org/2000/svg"><path d="M32 16c0 8.837-7.163 16-16 16S0 24.837 0 16 7.163 0 16 0s16 7.163 16 16zm-.97 0C31.03 7.699 24.301.97 16 .97 7.699.97.97 7.699.97 16c0 8.301 6.729 15.03 15.03 15.03 8.301 0 15.03-6.729 15.03-15.03zm-17.152-5.169a.485.485 0 01.593-.766l6.039 4.675a1.593 1.593 0 010 2.52l-6.039 4.675a.485.485 0 01-.593-.766l6.038-4.676a.623.623 0 000-.986l-6.038-4.676z"/></svg><svg viewBox="0 0 24 24" id="facebook" xmlns="http://www.w3.org/2000/svg"><path d="M6.6 3h10.8A3.6 3.6 0 0121 6.6v10.8a3.6 3.6 0 01-3.6 3.6H6.6A3.6 3.6 0 013 17.4V6.6A3.6 3.6 0 016.6 3zm4.938 18h3.077v-7.5h1.539l.77-3h-2.309v-.75c0-.674-.095-1.164.77-1.164h1.538V6h-1.522c-2.735 0-3.863.892-3.863 3v1.5H10v3h1.538V21z"/></svg><svg viewBox="0 0 24 24" id="github" xmlns="http://www.w3.org/2000/svg"><path d="M12 1C5.926 1 1 6.05 1 12.278c0 4.983 3.151 9.21 7.523 10.702.55.104.727-.245.727-.542v-2.1c-3.06.682-3.697-1.33-3.697-1.33-.5-1.304-1.222-1.651-1.222-1.651-.998-.7.076-.685.076-.685 1.105.079 1.686 1.162 1.686 1.162.98 1.724 2.573 1.226 3.201.937.098-.728.383-1.226.698-1.507-2.442-.287-5.01-1.254-5.01-5.574 0-1.232.429-2.238 1.132-3.027-.114-.285-.49-1.433.107-2.985 0 0 .924-.303 3.026 1.156.877-.25 1.818-.375 2.753-.38.935.005 1.876.13 2.755.38 2.1-1.459 3.023-1.156 3.023-1.156.598 1.553.222 2.7.108 2.985.706.789 1.132 1.796 1.132 3.027 0 4.331-2.573 5.285-5.022 5.565.394.35.754 1.035.754 2.088v3.095c0 .3.176.652.734.541C19.852 21.486 23 17.26 23 12.28 23 6.048 18.075 1 12 1z"/></svg><svg viewBox="0 0 24 24" id="habr" xmlns="http://www.w3.org/2000/svg"><path d="M10.286 11V7H8v10h2.286v-4h3.428v4H16V7h-2.286v4h-3.428zM12 23C5.925 23 1 18.075 1 12S5.925 1 12 1s11 4.925 11 11-4.925 11-11 11z"/></svg><svg viewBox="0 0 24 24" id="instagram" xmlns="http://www.w3.org/2000/svg"><path d="M6.6 3h10.8A3.6 3.6 0 0121 6.6v10.8a3.6 3.6 0 01-3.6 3.6H6.6A3.6 3.6 0 013 17.4V6.6A3.6 3.6 0 016.6 3zM12 17a5 5 0 100-10 5 5 0 000 10zm0-2a3 3 0 110-6 3 3 0 010 6zm6-8a1 1 0 100-2 1 1 0 000 2z"/></svg><svg viewBox="0 0 24 24" id="telegram" xmlns="http://www.w3.org/2000/svg"><path d="M16.32 19.812a562.34 562.34 0 01-4.665-3.453l-2.58 2.485a.712.712 0 01-.676.176.737.737 0 01-.502-.49c-.631-1.895-1.841-5.622-1.841-5.622s-2.59-.838-4.562-1.44a.702.702 0 01-.042-1.328C5.85 8.48 16.61 4.362 20.105 3.042a.657.657 0 01.664.12.671.671 0 01.217.644c-.66 3.158-2.416 11.944-3.14 15.415a.98.98 0 01-.603.714.975.975 0 01-.923-.123zm-9.175-7.375l1.4 4.707.31-2.981 8.488-7.808a.24.24 0 00.027-.32.234.234 0 00-.313-.055l-9.912 6.457z"/></svg><svg viewBox="0 0 24 24" id="twitter" xmlns="http://www.w3.org/2000/svg"><path fill-rule="evenodd" d="M20.72 6.004a4.765 4.765 0 002.015-2.653 8.936 8.936 0 01-2.913 1.164A4.48 4.48 0 0016.475 3c-2.532 0-4.584 2.148-4.584 4.796 0 .376.038.742.117 1.092-3.81-.2-7.189-2.107-9.452-5.011a4.954 4.954 0 00-.62 2.412c0 1.663.809 3.132 2.04 3.993a4.45 4.45 0 01-2.079-.6v.06c0 2.324 1.58 4.263 3.68 4.702-.385.113-.79.17-1.209.17-.295 0-.584-.03-.862-.086.583 1.905 2.276 3.294 4.284 3.33A8.948 8.948 0 011 19.847 12.578 12.578 0 008.03 22c8.436 0 13.047-7.309 13.047-13.647 0-.208-.003-.416-.012-.62a9.536 9.536 0 002.288-2.484 8.845 8.845 0 01-2.633.755z"/></svg><svg viewBox="0 0 24 24" id="user" xmlns="http://www.w3.org/2000/svg"><path d="M12 15.5a7.5 7.5 0 110-15 7.5 7.5 0 010 15zm0-3a4.5 4.5 0 100-9 4.5 4.5 0 000 9zM3.96 23.152a1.5 1.5 0 01-1.92-2.304C4.72 18.614 8.062 17.5 12 17.5c3.938 0 7.28 1.114 9.96 3.348a1.5 1.5 0 01-1.92 2.304C17.92 21.386 15.262 20.5 12 20.5c-3.262 0-5.92.886-8.04 2.652z"/></svg><svg viewBox="0 0 24 24" id="vk" xmlns="http://www.w3.org/2000/svg"><path fill-rule="evenodd" d="M13.177 17.95s.433-.042.655-.251c.203-.192.196-.553.196-.553s-.027-1.686.866-1.935c.88-.245 2.011 1.63 3.21 2.352.907.545 1.595.426 1.595.426l3.206-.04s1.676-.09.881-1.245c-.066-.095-.463-.855-2.383-2.417-2.01-1.634-1.74-1.37.68-4.198 1.474-1.722 2.064-2.774 1.88-3.223-.176-.43-1.26-.316-1.26-.316l-3.609.02s-.267-.032-.466.071c-.193.102-.319.34-.319.34s-.57 1.332-1.332 2.466c-1.607 2.39-2.25 2.517-2.512 2.37-.612-.347-.46-1.392-.46-2.133 0-2.318.402-3.284-.78-3.534-.392-.084-.68-.138-1.684-.147-1.288-.012-2.377.004-2.995.268-.41.176-.728.569-.534.592.238.027.778.127 1.065.469.37.441.357 1.43.357 1.43s.212 2.73-.497 3.068c-.486.232-1.153-.242-2.586-2.412-.734-1.11-1.288-2.34-1.288-2.34s-.106-.229-.298-.352c-.231-.15-.554-.196-.554-.196l-3.429.02s-.515.012-.704.209c-.168.174-.013.535-.013.535s2.685 5.505 5.725 8.28c2.788 2.543 5.953 2.376 5.953 2.376h1.434z"/></svg><svg viewBox="0 0 24 24" id="youtube" xmlns="http://www.w3.org/2000/svg"><path d="M23.5 6.498C24 8.28 24 12 24 12s0 3.72-.5 5.502c-.279.985-1.092 1.76-2.123 2.022C19.507 20 12 20 12 20s-7.502 0-9.377-.476C1.588 19.258.775 18.484.5 17.502 0 15.72 0 12 0 12s0-3.72.5-5.502c.279-.985 1.092-1.76 2.123-2.022C4.498 4 12 4 12 4s7.506 0 9.377.476c1.035.266 1.848 1.04 2.123 2.022zM10 16l6-4-6-4v8z"/></svg></defs></svg>