<?xml version="1.0" encoding="utf-8"?><svg xmlns="http://www.w3.org/2000/svg" xmlns:xlink="http://www.w3.org/1999/xlink"><defs><svg viewBox="0 0 16 16" id="arrow-bottom" xmlns="http://www.w3.org/2000/svg"><path d="M2.345 6.745a.99.99 0 0 1-.1-1.402c.362-.415.993-.46 1.41-.1l4.37 3.77 4.315-3.766a1.004 1.004 0 0 1 1.412.091.99.99 0 0 1-.092 1.403l-4.315 3.765a2.01 2.01 0 0 1-2.63.008l-4.37-3.77z"/></svg><svg viewBox="0 0 16 16" id="arrow-left" xmlns="http://www.w3.org/2000/svg"><path d="M9.255 2.345a.99.99 0 0 1 1.402-.1c.415.362.46.993.1 1.41l-3.77 4.37 3.766 4.315a1.004 1.004 0 0 1-.091 1.412.99.99 0 0 1-1.403-.092L5.494 9.345a2.01 2.01 0 0 1-.008-2.63l3.77-4.37z"/></svg><svg viewBox="0 0 16 16" id="arrow-right" xmlns="http://www.w3.org/2000/svg"><path d="M6.745 13.655a.99.99 0 0 1-1.402.1 1.004 1.004 0 0 1-.1-1.41l3.77-4.37L5.246 3.66a1.004 1.004 0 0 1 .091-1.412.99.99 0 0 1 1.403.092l3.765 4.315a2.01 2.01 0 0 1 .008 2.63l-3.77 4.37z"/></svg><svg viewBox="0 0 16 16" id="arrow-top" xmlns="http://www.w3.org/2000/svg"><path d="M13.655 9.255a.99.99 0 0 1 .1 1.402c-.362.415-.993.46-1.41.1l-4.37-3.77-4.315 3.766a1.004 1.004 0 0 1-1.412-.091.99.99 0 0 1 .092-1.403l4.315-3.765a2.01 2.01 0 0 1 2.63-.008l4.37 3.77z"/></svg><svg viewBox="0 0 21 21" id="facebook" xmlns="http://www.w3.org/2000/svg"><path d="M11.985 19h-3.99V9.999H6V6.897h1.994V5.035C7.994 2.505 9.12 1 12.32 1h2.663v3.103h-1.665c-1.245 0-1.327.433-1.327 1.242l-.006 1.552H15L14.647 10h-2.663V19z" fill="#BBC9D3" fill-rule="evenodd"/></svg><svg viewBox="0 0 21 21" id="instagram" xmlns="http://www.w3.org/2000/svg"><g transform="translate(1 1)" fill-rule="nonzero" fill="none"><path d="M13.34 0H5.66A5.667 5.667 0 0 0 0 5.66v7.68C0 16.46 2.54 19 5.66 19h7.68c3.12 0 5.66-2.54 5.66-5.66V5.66C19 2.54 16.46 0 13.34 0z" fill="#BBC9D3"/><path d="M9.5 4.75c-2.62 0-4.75 2.13-4.75 4.75s2.13 4.75 4.75 4.75 4.75-2.13 4.75-4.75-2.13-4.75-4.75-4.75zm0 7.652a2.902 2.902 0 1 1 0-5.804 2.902 2.902 0 0 1 0 5.804z" fill="#FFF"/><circle fill="#FFF" cx="14.25" cy="4.75" r="1"/></g></svg><svg viewBox="0 0 74 26" id="logo-csc" xmlns="http://www.w3.org/2000/svg"><g fill="#FFF" fill-rule="evenodd"><path d="M26 10.308V.318l-3.411 3.385A13.153 13.153 0 0 0 13.438 0C6.017 0 0 5.638 0 13s6.017 13 13.438 13a13.11 13.11 0 0 0 11.097-6.069l-3.877-2.388a8.573 8.573 0 0 1-7.22 3.947c-4.714 0-8.524-3.78-8.524-8.49 0-4.676 3.81-8.457 8.524-8.457a8.53 8.53 0 0 1 5.923 2.362l-3.406 3.38L26 10.307zM30.71 19.035c1.625 1.558 3.995 2.487 6.67 2.487 4.708 0 6.842-4.94 1.626-6.333l-4.335-1.095c-3.691-.962-6.23-3.415-6.23-6.897-.103-3.979 4.165-7.295 8.94-7.195 3.284 0 6.366 1.028 8.67 2.785l-2.676 3.714c-1.626-1.293-3.624-1.956-5.995-1.956-3.962 0-5.96 3.946-1.49 5.205l4.064 1.029c3.895.961 7.044 3.415 7.044 7.46.101 4.31-4.369 7.858-9.618 7.759-3.623 0-6.942-1.194-9.38-3.217l2.71-3.746zM70.207 8.49a8.269 8.269 0 0 0-7.063-3.947c-4.61 0-8.338 3.781-8.338 8.457 0 4.709 3.728 8.49 8.338 8.49 2.976 0 5.592-1.592 7.063-3.947L74 19.931C71.711 23.611 67.69 26 63.144 26 55.886 26 50 20.362 50 13S55.886 0 63.144 0C67.69 0 71.711 2.42 74 6.069l-3.793 2.42z"/><path d="M63 9a4 4 0 1 0 0 8 4 4 0 0 0 0-8"/></g></svg><svg viewBox="0 0 302 226" id="top-banner-kids" xmlns="http://www.w3.org/2000/svg"><g fill="#F7F4EC" fill-rule="evenodd"><path d="M272.861 225.897h-100.93V199.04h-3.461v26.857h-24.614v-39.92c4.37-23.269 24.08-41.13 48.23-42.71.071 16.66 13.64 30.191 30.311 30.191 16.67 0 30.238-13.531 30.308-30.191 27.43 1.79 49.14 24.59 49.14 52.471v30.159h-25.523V199.04h-3.461v26.857zM167.126 33.177c0-15.81 12.819-28.63 28.63-28.63v8.83c8.15-5.558 17.99-8.83 28.61-8.83h45.46c0 6.12-2.07 11.75-5.54 16.24.51-.03 1.03-.048 1.55-.048h18.72c0 12.25-8.3 22.569-19.59 25.628a56.38 56.38 0 0 1 4.69 6.34l-6.92 6.19c-2.65-7.05-9.44-12.09-17.41-12.09-9.33 0-17.06 6.91-18.381 15.88h-9.1c-1.32-8.97-9.05-15.88-18.38-15.88-7.97 0-14.76 5.04-17.408 12.09l-6.731-6.02c-5.43-4.86-8.2-12.51-8.2-19.7zm-10.99 32.8c0-5.85 4.75-10.59 10.59-10.59h6.21l8.14 7.28a19.31 19.31 0 0 0-.22 2.75c0 10.26 8.35 18.612 18.61 18.612 10.01 0 18.181-7.96 18.57-17.881h8.72c.391 9.92 8.561 17.88 18.57 17.88 10.26 0 18.61-8.351 18.61-18.611 0-.94-.09-1.848-.22-2.74l8.14-7.29h6.211c5.848 0 10.59 4.74 10.59 10.59 0 5.852-4.742 10.592-10.59 10.592h-.012c.221 2.028.342 4.079.342 6.17 0 21.188-11.782 39.638-29.152 49.148v11.26c0 14.83-12.019 26.85-26.848 26.85-7.41 0-14.132-3-18.99-7.86a26.77 26.77 0 0 1-7.862-18.99v-11.26c-17.37-9.51-29.148-27.96-29.148-49.148 0-2.091.118-4.142.34-6.17h-.01c-5.842 0-10.592-4.74-10.592-10.591zm55.62 130.496v-9.53l-3.229 3.228c-2.246-2.182-5.303-3.531-8.66-3.531-7.022 0-12.715 5.378-12.715 12.399 0 7.025 5.693 12.402 12.715 12.402 4.398 0 8.288-2.28 10.502-5.788l-3.669-2.28a8.098 8.098 0 0 1-6.833 3.766c-4.46 0-8.067-3.606-8.067-8.1a8.059 8.059 0 0 1 8.067-8.065c2.178 0 4.156.853 5.605 2.254l-3.222 3.223 9.506.022zm13.42.445l-3.8-.98c-4.17-1.2-2.309-4.96 1.39-4.96 2.221 0 4.08.628 5.6 1.86l2.5-3.54c-2.15-1.68-5.03-2.66-8.1-2.66-4.46-.09-8.44 3.07-8.35 6.87 0 3.32 2.38 5.66 5.821 6.58l4.048 1.04c4.87 1.33 2.88 6.04-1.52 6.04-2.5 0-4.71-.88-6.23-2.37l-2.53 3.57c2.28 1.93 5.38 3.07 8.76 3.07 4.91.1 9.08-3.29 8.99-7.4 0-3.86-2.938-6.2-6.58-7.12zm21.96 10.22c-4.46 0-8.06-3.61-8.06-8.101 0-4.46 3.6-8.06 8.06-8.06 2.88 0 5.41 1.48 6.84 3.762l3.66-2.311c-2.21-3.48-6.1-5.79-10.5-5.79-7.02 0-12.71 5.38-12.71 12.399 0 7.032 5.69 12.4 12.71 12.4 4.4 0 8.29-2.27 10.5-5.79l-3.66-2.27c-1.43 2.24-3.96 3.76-6.84 3.76zm.018-11.862a3.781 3.781 0 0 0 0 7.561 3.782 3.782 0 0 0 3.78-3.782 3.779 3.779 0 0 0-3.78-3.779zM199.465 50.268c8.352 0 15.15 6.8 15.15 15.149 0 8.35-6.798 15.152-15.15 15.152-8.359 0-15.148-6.801-15.148-15.152 0-8.348 6.79-15.15 15.148-15.15zm45.86 0c8.361 0 15.152 6.8 15.152 15.149 0 8.35-6.79 15.152-15.152 15.152-8.348 0-15.15-6.801-15.15-15.152 0-8.348 6.802-15.15 15.15-15.15zm0 26.34c6.49 0 11.772-5.28 11.772-11.771h-3.46c0 4.582-3.731 8.31-8.311 8.31s-8.301-3.728-8.301-8.31h-3.47c0 6.492 5.28 11.77 11.77 11.77zm-46 0c6.49 0 11.772-5.28 11.772-11.771h-3.46c0 4.582-3.731 8.31-8.311 8.31s-8.301-3.728-8.301-8.31h-3.47c0 6.492 5.28 11.77 11.77 11.77zm66.98 13.92a2.18 2.18 0 0 0 2.182-2.181 2.18 2.18 0 1 0-4.362 0 2.18 2.18 0 0 0 2.18 2.181zm-5.34 8.55c1.21 0 2.181-.97 2.181-2.181 0-1.21-.97-2.18-2.18-2.18-1.2 0-2.18.97-2.18 2.18a2.18 2.18 0 0 0 2.18 2.181zm-5.34-8.55a2.19 2.19 0 0 0 2.192-2.181 2.185 2.185 0 1 0-2.192 2.182zm-6.218 3.819v-3.46h-12.992v3.46h4.67c-.87 9.55-8.92 17.05-18.689 17.05-9.77 0-17.82-7.5-18.69-17.05h4.67v-3.46h-12.98v3.46h4.83c.891 11.46 10.49 20.522 22.17 20.522 11.68 0 21.28-9.063 22.171-20.522h4.84zm-60.242-3.819a2.184 2.184 0 1 0-2.189-2.182c0 1.203.98 2.183 2.19 2.183zm35.69-13.312c-4.72 0-8.57 3.84-8.57 8.573 0 4.718 3.85 8.558 8.57 8.558v-3.46c-2.82 0-5.11-2.29-5.11-5.099a5.113 5.113 0 0 1 5.11-5.111v-3.46zM183.826 99.08c1.2 0 2.18-.971 2.18-2.182 0-1.21-.98-2.18-2.18-2.18-1.209 0-2.18.97-2.18 2.18 0 1.21.971 2.181 2.18 2.181zm-5.339-8.55c1.21 0 2.178-.98 2.178-2.182a2.18 2.18 0 0 0-4.36 0 2.18 2.18 0 0 0 2.182 2.181zM103.648 168.186l-1.03.47 12.351 57.297H19.65l12.353-57.297-1.032-.47c-13.722-6.234-13.719-19.012-13.476-22.302l19.705-8.392c8.785 4.395 19.18 6.716 30.11 6.716 10.931 0 21.324-2.321 30.11-6.716l19.701 8.393c.247 3.294.246 16.067-13.473 22.302zm-74.87 2.074l-11.312 52.475c-12.83-28.935-4.46-51.761.905-61.86 2.1 3.48 5.363 6.864 10.408 9.385zm87.472-9.384c5.364 10.098 13.73 32.924.904 61.857L105.84 170.26c5.046-2.52 8.306-5.905 10.41-9.384zm-25.067 25.028a3.203 3.203 0 1 0-6.405-.001 3.203 3.203 0 0 0 6.405 0zm-3.217-6.851a6.798 6.798 0 0 1 5.79 3.191l3.111-1.957c-1.876-2.948-5.174-4.905-8.9-4.905-5.952 0-10.776 4.555-10.776 10.506 0 5.952 4.824 10.51 10.775 10.51 3.727 0 7.025-1.93 8.901-4.904l-3.11-1.933a6.86 6.86 0 0 1-5.79 3.192c-3.78 0-6.837-3.056-6.837-6.864a6.831 6.831 0 0 1 6.836-6.837zm-20.649 17.344c4.153.08 7.691-2.786 7.611-6.272 0-3.27-2.493-5.254-5.575-6.032l-3.217-.831c-3.539-1.018-1.957-4.208 1.181-4.208 1.876 0 3.456.537 4.743 1.58l2.118-3.001c-1.823-1.42-4.263-2.25-6.86-2.25-3.78-.083-7.158 2.599-7.078 5.816 0 2.813 2.01 4.798 4.931 5.575l3.431.886c4.128 1.126 2.44 5.12-1.285 5.12-2.118 0-3.994-.751-5.28-2.012l-2.147 3.03c1.931 1.633 4.558 2.599 7.427 2.599zm-9.333-12.683v-8.077l-2.739 2.742a10.503 10.503 0 0 0-7.335-2.996c-5.953 0-10.779 4.554-10.779 10.505 0 5.952 4.826 10.51 10.78 10.51 3.723 0 7.02-1.931 8.897-4.904L53.7 189.56a6.863 6.863 0 0 1-5.79 3.192c-3.782 0-6.836-3.056-6.836-6.864a6.83 6.83 0 0 1 6.836-6.837c1.843 0 3.52.726 4.75 1.912l-2.733 2.73 8.057.02zM123.7 72.661c0 25.57-20.685 46.756-47.706 50.545 1 9.143 7.919 12.485 17.027 13.211-7.694 3.263-16.494 4.976-25.711 4.976-9.22 0-18.027-1.716-25.725-4.982 9.012-.742 16.016-4.125 17.038-13.206-27.018-3.79-47.701-24.976-47.701-50.544a47.89 47.89 0 0 1 .196-4.11v-.005c1.969.178 4.772.353 8.176.353 2.254 0 4.772-.08 7.476-.287-2.791 2.224-4.593 5.288-4.593 9.267 0 12.402 9.923 18.892 19.729 18.894h.002c5.132 0 9.927-1.67 13.503-4.705 3.858-3.273 5.969-7.865 6.18-13.3 1.565-.703 3.602-1.098 5.719-1.098 2.303 0 4.262.448 5.703 1.093.46 11.827 10.136 18.01 19.703 18.01 9.803 0 19.729-6.489 19.729-18.894 0-9.48-10.222-13.797-19.722-13.797-8.777 0-18.165 3.684-19.55 11.713-1.704-.603-3.711-.94-5.863-.94-2.114 0-4.125.335-5.858.952-1.09-6.345-7.178-9.97-14.012-11.219 11.516-3.795 23.405-10.736 32.385-23.186 7.403 8.797 21.328 26.948 43.705 27.476.047.573.083 1.147.112 1.724.032.685.058 1.37.058 2.06zm-22.872 30.96a1.712 1.712 0 1 0-1.712-1.71c0 .942.767 1.71 1.712 1.71zm-4.186 6.707a1.71 1.71 0 0 0 1.709-1.713 1.71 1.71 0 1 0-3.42 0 1.71 1.71 0 0 0 1.71 1.713zm-4.185-6.708a1.712 1.712 0 0 0 0-3.423 1.712 1.712 0 0 0 0 3.423zm-25.147 8.342c5.165 0 9.497-2.786 10.077-6.483l-2.782-.433c-.36 2.3-3.564 4.1-7.295 4.1-3.73 0-6.933-1.8-7.295-4.1l-2.78.434c.579 3.696 4.91 6.482 10.075 6.482zm1.236-24.739a6.609 6.609 0 0 0-6.604 6.601 6.611 6.611 0 0 0 6.604 6.605v-2.816a3.792 3.792 0 0 1-3.79-3.789 3.791 3.791 0 0 1 3.79-3.787v-2.814zM42.164 103.62a1.71 1.71 0 1 0-.001-3.42 1.71 1.71 0 0 0 0 3.42zm-4.187 6.708a1.71 1.71 0 0 0 1.712-1.713 1.71 1.71 0 1 0-3.421 0c0 .946.766 1.713 1.709 1.713zm-4.185-6.708a1.712 1.712 0 1 0 0-3.423 1.712 1.712 0 0 0 0 3.423zm8.112-9.66c-8.147 0-16.917-5.033-16.917-16.08 0-7.547 8.766-10.986 16.912-10.986 8.147 0 16.918 3.44 16.918 10.985 0 4.976-1.809 9.141-5.229 12.045-3.066 2.602-7.215 4.036-11.682 4.036h-.002zm-9.272-16.007H29.82c0 6.662 5.42 12.084 12.084 12.084 6.663 0 12.083-5.422 12.083-12.084h-2.814c0 5.11-4.159 9.27-9.269 9.27-5.113 0-9.27-4.16-9.27-9.27zM92.715 93.96c-8.146 0-16.913-5.032-16.913-16.08 0-7.547 8.77-10.986 16.918-10.986 8.145 0 16.912 3.44 16.912 10.985 0 11.05-8.771 16.081-16.917 16.081zm-9.268-16.007h-2.813c0 6.662 5.419 12.084 12.084 12.084 6.663 0 12.083-5.422 12.083-12.084h-2.815c0 5.11-4.158 9.27-9.268 9.27-5.113 0-9.271-4.16-9.271-9.27zM80.245 5.018c44.523-14.846 82.85 105.707 25.345 108.763 12.787-9.908 20.925-24.66 20.925-41.12 0-1.221-.058-2.497-.18-4.01l-.203-2.528-2.535-.058c-19.93-.471-32.74-15.831-40.394-25.01-.427-.512-.835-1-1.226-1.465l-2.324-2.76-2.111 2.926c-16.526 22.909-43.588 26.33-58.25 26.33-3.416 0-6.193-.186-7.92-.342l-2.811-.255-.247 2.809a50.274 50.274 0 0 0-.21 4.364c0 16.46 8.138 31.21 20.925 41.118C8.273 112.675-.001 96.268-.001 76.44 0 44.49 15.934 16.955 38.914 4.29c13.677-6.77 27.095-4.757 41.332.729z"/></g></svg><svg viewBox="0 0 21 21" id="twitter" xmlns="http://www.w3.org/2000/svg"><path d="M17.88 4.371a3.772 3.772 0 0 0 1.622-2.094 7.28 7.28 0 0 1-2.345.919A3.639 3.639 0 0 0 14.462 2c-2.04 0-3.692 1.695-3.692 3.786 0 .297.03.586.094.863-3.068-.159-5.788-1.664-7.611-3.957a3.85 3.85 0 0 0-.5 1.905c0 1.313.652 2.472 1.643 3.152a3.636 3.636 0 0 1-1.673-.473v.046c0 1.836 1.272 3.366 2.963 3.713a3.53 3.53 0 0 1-.974.133c-.238 0-.47-.022-.694-.067.47 1.504 1.833 2.6 3.45 2.63A7.293 7.293 0 0 1 2 15.298 10.272 10.272 0 0 0 7.66 17c6.794 0 10.507-5.77 10.507-10.774 0-.165-.002-.328-.01-.49A7.587 7.587 0 0 0 20 3.776a7.232 7.232 0 0 1-2.12.595z" fill="#BBC9D3" fill-rule="evenodd"/></svg><svg viewBox="0 0 24 24" id="user-sign" xmlns="http://www.w3.org/2000/svg"><g stroke="#FFF" stroke-width="2" transform="translate(0 2)" fill="none" fill-rule="evenodd" opacity=".6"><circle cx="11" cy="6" r="7"/><path d="M0 19.944a21.9 21.9 0 0 1 22 0" stroke-linecap="round"/></g></svg><svg viewBox="0 0 21 21" id="vk" xmlns="http://www.w3.org/2000/svg"><path d="M11.53 15.954s.379-.039.573-.23c.178-.175.172-.507.172-.507s-.024-1.545.758-1.773c.77-.225 1.759 1.494 2.809 2.155.793.5 1.394.39 1.394.39l2.806-.035s1.466-.083.77-1.142c-.057-.087-.405-.784-2.084-2.215-1.76-1.499-1.523-1.256.595-3.849 1.29-1.579 1.805-2.542 1.644-2.954-.153-.395-1.102-.29-1.102-.29l-3.157.018s-.235-.03-.408.066c-.17.093-.28.311-.28.311s-.499 1.221-1.165 2.26c-1.406 2.192-1.968 2.308-2.198 2.173-.536-.318-.402-1.275-.402-1.955 0-2.125.351-3.01-.683-3.24-.343-.076-.596-.126-1.474-.135-1.127-.01-2.08.004-2.62.246-.36.162-.637.522-.467.543.208.025.68.117.931.43.324.404.312 1.312.312 1.312s.186 2.5-.434 2.81c-.425.214-1.009-.22-2.263-2.21A17.854 17.854 0 0 1 4.43 5.99s-.093-.21-.26-.324c-.203-.136-.485-.179-.485-.179l-3 .018s-.451.011-.617.192c-.147.159-.011.49-.011.49s2.349 5.046 5.01 7.59c2.439 2.33 5.208 2.178 5.208 2.178h1.255z" fill="#BBC9D3" fill-rule="evenodd"/></svg><svg viewBox="0 0 21 21" id="youtube" xmlns="http://www.w3.org/2000/svg"><path d="M20 12.81V6.19S20 3 16.726 3H4.273S1 3 1 6.19v6.62S1 16 4.273 16h12.453S20 16 20 12.81m-5.811-3.3l-6.22 3.559v-7.12l6.22 3.56" fill="#BBC9D3" fill-rule="evenodd"/></svg></defs></svg>