<?xml version="1.0" encoding="utf-8"?><svg xmlns="http://www.w3.org/2000/svg" xmlns:xlink="http://www.w3.org/1999/xlink"><defs><svg viewBox="0 0 32 32" id="border-arrow-right" xmlns="http://www.w3.org/2000/svg"><path d="M32 16c0 8.837-7.163 16-16 16S0 24.837 0 16 7.163 0 16 0s16 7.163 16 16zm-.97 0C31.03 7.699 24.301.97 16 .97 7.699.97.97 7.699.97 16c0 8.301 6.729 15.03 15.03 15.03 8.301 0 15.03-6.729 15.03-15.03zm-17.152-5.169a.485.485 0 0 1 .593-.766l6.039 4.675a1.593 1.593 0 0 1 0 2.52l-6.039 4.675a.485.485 0 0 1-.593-.766l6.038-4.676a.623.623 0 0 0 0-.986l-6.038-4.676z"/></svg></defs></svg>