<?xml version="1.0" encoding="UTF-8"?><svg xmlns="http://www.w3.org/2000/svg" xmlns:xlink="http://www.w3.org/1999/xlink"><defs><svg viewBox="0 0 21 21" id="facebook" xmlns="http://www.w3.org/2000/svg"><title>icon-facebook</title><path d="M11.985 19h-3.99V9.999H6V6.897h1.994V5.035C7.994 2.505 9.12 1 12.32 1h2.663v3.103h-1.665c-1.245 0-1.327.433-1.327 1.242l-.006 1.552H15L14.647 10h-2.663V19z" fill="#BBC9D3" fill-rule="evenodd"/></svg><svg viewBox="0 0 21 21" id="instagram" xmlns="http://www.w3.org/2000/svg"><title>icon-instagram</title><g transform="translate(1 1)" fill-rule="nonzero" fill="none"><path d="M13.34 0H5.66A5.667 5.667 0 0 0 0 5.66v7.68C0 16.46 2.54 19 5.66 19h7.68c3.12 0 5.66-2.54 5.66-5.66V5.66C19 2.54 16.46 0 13.34 0z" fill="#BBC9D3"/><path d="M9.5 4.75c-2.62 0-4.75 2.13-4.75 4.75s2.13 4.75 4.75 4.75 4.75-2.13 4.75-4.75-2.13-4.75-4.75-4.75zm0 7.652a2.902 2.902 0 1 1 0-5.804 2.902 2.902 0 0 1 0 5.804z" fill="#FFF"/><circle fill="#FFF" cx="14.25" cy="4.75" r="1"/></g></svg><svg viewBox="0 0 74 26" id="logo-csc" xmlns="http://www.w3.org/2000/svg"><title>Group</title><g fill="#FFF" fill-rule="evenodd"><path d="M26 10.308V.318l-3.411 3.385A13.153 13.153 0 0 0 13.438 0C6.017 0 0 5.638 0 13s6.017 13 13.438 13a13.11 13.11 0 0 0 11.097-6.069l-3.877-2.388a8.573 8.573 0 0 1-7.22 3.947c-4.714 0-8.524-3.78-8.524-8.49 0-4.676 3.81-8.457 8.524-8.457a8.53 8.53 0 0 1 5.923 2.362l-3.406 3.38L26 10.307zM30.71 19.035c1.625 1.558 3.995 2.487 6.67 2.487 4.708 0 6.842-4.94 1.626-6.333l-4.335-1.095c-3.691-.962-6.23-3.415-6.23-6.897-.103-3.979 4.165-7.295 8.94-7.195 3.284 0 6.366 1.028 8.67 2.785l-2.676 3.714c-1.626-1.293-3.624-1.956-5.995-1.956-3.962 0-5.96 3.946-1.49 5.205l4.064 1.029c3.895.961 7.044 3.415 7.044 7.46.101 4.31-4.369 7.858-9.618 7.759-3.623 0-6.942-1.194-9.38-3.217l2.71-3.746zM70.207 8.49a8.269 8.269 0 0 0-7.063-3.947c-4.61 0-8.338 3.781-8.338 8.457 0 4.709 3.728 8.49 8.338 8.49 2.976 0 5.592-1.592 7.063-3.947L74 19.931C71.711 23.611 67.69 26 63.144 26 55.886 26 50 20.362 50 13S55.886 0 63.144 0C67.69 0 71.711 2.42 74 6.069l-3.793 2.42z"/><path d="M63 9a4 4 0 1 0 0 8 4 4 0 0 0 0-8"/></g></svg><svg viewBox="0 0 92 70" id="logo-csclub" xmlns="http://www.w3.org/2000/svg"><title>csclub</title><g transform="translate(1 14)" fill="none" fill-rule="evenodd"><path d="M53.335 24.023h4.318c-.055.428-.07.86-.044 1.292h-.211v-.066a4.166 4.166 0 0 0 0-.68 2.37 2.37 0 0 0-.733-.152H55.1v2.277h1.498c.103.013.208.013.311 0a.177.177 0 0 0 .067-.11 1.553 1.553 0 0 0 0-.273v-.263h.2v1.85h-.2v-.252a3.183 3.183 0 0 0 0-.35.19.19 0 0 0-.078-.098.87.87 0 0 0-.31-.066h-1.444v2.44h2.065c.168-.016.332-.056.489-.12a4.57 4.57 0 0 0 .122-.448c.054-.23.088-.384.1-.439h.2a5.641 5.641 0 0 0-.078.625v.765H53.99v-.141l.289-.153c.047-.242.066-.489.055-.734V24.81a1.553 1.553 0 0 0 0-.274.337.337 0 0 0 0-.12l-.088-.055h-.533v-.339h-.378zm-3.185 0h2.419v.208h-.455a.562.562 0 0 0-.233.066.295.295 0 0 0-.1.219c-.01.156-.01.314 0 .47v3.7a5.578 5.578 0 0 0 0 .613c0 .066.02.13.055.187a.3.3 0 0 0 .156.076c.188.015.378.015.566 0v.207h-2.42v-.207h.522a.39.39 0 0 0 .178-.066.323.323 0 0 0 .078-.164 4.11 4.11 0 0 0 0-.58v-3.536a5.99 5.99 0 0 0 0-.613.35.35 0 0 0-.057-.186.3.3 0 0 0-.155-.077 3.745 3.745 0 0 0-.565 0v-.317h.01zm-.7 5.188l-.155.384a4.408 4.408 0 0 1-1.998.47 3.571 3.571 0 0 1-2.476-.854 2.862 2.862 0 0 1-.954-2.188 2.906 2.906 0 0 1 .422-1.697 2.921 2.921 0 0 1 1.254-1.095c.552-.241 1.15-.36 1.754-.35.373.001.745.042 1.11.12.312.065.617.16.91.285-.102.375-.161.761-.177 1.15h-.2v-.712a2.314 2.314 0 0 0-.745-.373 3.072 3.072 0 0 0-.91-.13 2.66 2.66 0 0 0-1.276.305 2.117 2.117 0 0 0-.877.876c-.22.435-.326.916-.31 1.401-.01.509.116 1.011.366 1.457.234.407.58.74.999.962.46.234.971.35 1.487.34.243-.001.485-.027.722-.076a2.544 2.544 0 0 0 1.021-.427l.078.087-.044.065zm-10.312-.733h.212c0 .22.018.44.055.657.048.106.13.195.233.251.156.102.329.176.51.22.21.056.427.086.644.087.276.003.548-.053.8-.164.23-.102.423-.27.554-.482.134-.21.203-.452.2-.7.004-.166-.03-.33-.1-.482a.802.802 0 0 0-.266-.328 1.177 1.177 0 0 0-.388-.186 6.837 6.837 0 0 0-.655-.132l-.655-.12a2.309 2.309 0 0 1-.477-.164 1.258 1.258 0 0 1-.4-.285c-.112-.125-.2-.27-.255-.427a1.526 1.526 0 0 1-.1-.536 1.64 1.64 0 0 1 .543-1.27c.408-.35.937-.53 1.476-.503.27.001.537.03.8.087.273.055.538.143.788.263-.072.36-.11.727-.11 1.094h-.223v-.624c0-.076-.133-.197-.388-.317a1.699 1.699 0 0 0-.8-.197c-.229 0-.456.048-.665.142a.983.983 0 0 0-.478.449 1.332 1.332 0 0 0-.155.624.94.94 0 0 0 .1.438c.06.117.147.218.256.295.106.076.227.131.354.165.133 0 .389.076.744.13.38.037.753.121 1.11.253.226.098.415.262.544.47.14.236.21.505.199.778.02.6-.256 1.172-.743 1.532a2.72 2.72 0 0 1-1.776.591 3.581 3.581 0 0 1-1.532-.306c0-.176 0-.58.067-1.227l-.023-.076zm44.71-14.559h2.92a2.052 2.052 0 0 1 1.443.384c.245.24.38.567.378.908-.004.243-.068.48-.19.69a1.642 1.642 0 0 1-.544.58 2.72 2.72 0 0 1-.999.36l.422.56.6.777.621.821c.123.181.269.346.433.492.051.031.108.053.167.066h.222v.197h-1.133a30.58 30.58 0 0 1-.92-1.215 28.56 28.56 0 0 0-1.489-1.85v-.132h.345c.4.015.792-.109 1.11-.35.28-.242.431-.597.41-.963a.978.978 0 0 0-.366-.832 1.625 1.625 0 0 0-.999-.284 2.795 2.795 0 0 0-.832.12 8.219 8.219 0 0 0-.067 1.565v2.737c-.01.204-.01.409 0 .613a.39.39 0 0 0 .067.186c.043.04.097.067.156.076.184.016.37.016.554 0v.209h-2.419v-.209h.521a.367.367 0 0 0 .178-.065.31.31 0 0 0 .078-.164 3.679 3.679 0 0 0 0-.58v-4.138c-.001-.066-.02-.13-.056-.186a.298.298 0 0 0-.155-.076 3.558 3.558 0 0 0-.567 0v-.209l.111-.088zm-5.361 0h4.318a6.95 6.95 0 0 0-.156 1.248h-.21v-.065c.02-.226.02-.453 0-.679a2.344 2.344 0 0 0-.733-.153h-1.565v2.31h1.498c.104.013.208.013.311 0a.176.176 0 0 0 .067-.11 1.553 1.553 0 0 0 0-.273v-.263h.2v1.849h-.189v-.25a3.183 3.183 0 0 0 0-.351.185.185 0 0 0-.078-.1.873.873 0 0 0-.31-.064h-1.443v2.45h2.064c.168-.015.333-.055.488-.119.05-.147.09-.297.123-.45.055-.229.088-.382.1-.437h.199a5.798 5.798 0 0 0-.077.624v.766h-4.052v-.207l.289-.154a3.03 3.03 0 0 0 .055-.733V14.686c.009-.09.009-.183 0-.274a.304.304 0 0 0 0-.12l-.088-.055h-.533v-.207l-.278-.11zm-.732 0v1.303h-.166v-.383a3.599 3.599 0 0 0 0-.372.176.176 0 0 0-.067-.098.746.746 0 0 0-.278 0h-1.32v4.991c.001.065.02.13.055.186a.325.325 0 0 0 .155.077c.188.015.378.015.567 0v.207h-2.41v-.207h.523a.384.384 0 0 0 .177-.066.336.336 0 0 0 .078-.164 3.33 3.33 0 0 0 0-.58v-4.379h-1.477c-.188 0-.3 0-.322.088-.05.144-.075.296-.078.448l-.044.296h-.2v-1.302h4.896l-.09-.045zm-11.91 0h2.42v.252h-.456a.574.574 0 0 0-.233.066.294.294 0 0 0-.1.219c-.01.157-.01.314 0 .47v3.241c.013.177.055.35.123.514a.954.954 0 0 0 .277.362c.158.118.34.204.533.252.257.068.522.101.788.098.293 0 .586-.044.865-.132.235-.065.446-.195.611-.372.15-.182.246-.402.277-.635.05-.362.073-.728.067-1.094v-2.157a2.807 2.807 0 0 0 0-.657.263.263 0 0 0-.144-.13 2.371 2.371 0 0 0-.6 0v-.198h1.998v.153h-.521a.368.368 0 0 0-.167.066.3.3 0 0 0-.066.143 3.88 3.88 0 0 0 0 .547v2.19c.006.398-.012.796-.056 1.193a1.568 1.568 0 0 1-.266.721 1.94 1.94 0 0 1-.488.471c-.221.14-.466.24-.722.296-.299.066-.604.1-.91.098a3.853 3.853 0 0 1-1.043-.132c-.258-.064-.5-.18-.712-.339a1.343 1.343 0 0 1-.376-.448 1.66 1.66 0 0 1-.145-.548V14.434a.373.373 0 0 0-.055-.186.3.3 0 0 0-.255-.077 3.755 3.755 0 0 0-.567 0v-.207l-.078-.045zm-5.317 0h2.886c.33-.007.658.034.977.12.254.078.48.231.643.439.173.223.263.497.255.777 0 .25-.061.499-.177.722-.121.231-.291.433-.5.592-.192.152-.41.27-.643.35a2.16 2.16 0 0 1-.678.11c-.197-.002-.393-.02-.588-.056l-.067-.25c.168.038.34.06.512.064.335.02.662-.114.887-.36.227-.254.346-.583.333-.92a1.193 1.193 0 0 0-.344-.897 1.459 1.459 0 0 0-1.054-.34 2.88 2.88 0 0 0-.844.142v4.291a5.193 5.193 0 0 0 0 .613c.002.066.021.13.056.186.043.04.097.066.156.077.188.016.376.016.565 0v.208h-2.42v-.208h.522a.4.4 0 0 0 .178-.066.321.321 0 0 0 .077-.164 3.883 3.883 0 0 0 0-.58v-3.678c.01-.204.01-.41 0-.613 0-.066-.02-.13-.055-.186a.292.292 0 0 0-.156-.076 3.548 3.548 0 0 0-.565 0v-.209l.044-.088zm-.7 0v.252a2.932 2.932 0 0 0-.577 0 .254.254 0 0 0-.155.11.705.705 0 0 0 0 .306V18.713c-.026.204-.026.41 0 .614.03.057.082.101.145.12.198.023.4.023.598 0v.208H57.465v-.01c.19.017.385.017.577 0a.255.255 0 0 0 .155-.11.702.702 0 0 0 0-.306v-4.455l-1.388 3.01c-.362.73-.68 1.437-.954 2.123h-.167a21.876 21.876 0 0 0-.388-.853l-2.02-4.139V18.77a2.3 2.3 0 0 0 0 .613c.031.056.082.099.144.12.199.024.4.024.599 0v.197h-1.998v-.197c.192.018.386.018.577 0a.273.273 0 0 0 .156-.11.656.656 0 0 0 0-.295v-4.094a2.698 2.698 0 0 0 0-.623.25.25 0 0 0-.144-.132 2.385 2.385 0 0 0-.555-.077v-.218h1.598c.237.54.462 1.024.677 1.455l1.598 3.284 1.443-2.967c.393-.802.655-1.379.789-1.729h1.631l.034-.077zm-13.863 2.704c.005.371.06.74.166 1.095.098.365.268.707.5 1.007.204.263.466.476.766.624.692.303 1.488.27 2.153-.088.355-.213.629-.536.777-.919.184-.445.274-.922.266-1.401a3.658 3.658 0 0 0-.3-1.522 2.025 2.025 0 0 0-.865-.985 2.552 2.552 0 0 0-1.254-.263c-.609-.031-1.2.2-1.621.635a2.646 2.646 0 0 0-.588 1.84v-.023zm-.877.274a3.652 3.652 0 0 1 .178-1.16c.13-.373.342-.713.62-.997.297-.309.656-.552 1.055-.71.445-.176.92-.261 1.4-.252a3.282 3.282 0 0 1 2.285.776c.585.548.898 1.32.855 2.113a3.404 3.404 0 0 1-.422 1.686 2.9 2.9 0 0 1-1.22 1.171 3.653 3.653 0 0 1-1.754.416 3.466 3.466 0 0 1-1.265-.23 2.607 2.607 0 0 1-.989-.679 2.74 2.74 0 0 1-.588-1.094 3.676 3.676 0 0 1-.177-1.095l.022.055zm-.655 2.19l-.155.382a4.405 4.405 0 0 1-1.998.471 3.571 3.571 0 0 1-2.431-.843 2.85 2.85 0 0 1-.955-2.19 2.904 2.904 0 0 1 .477-1.652 2.921 2.921 0 0 1 1.255-1.095c.552-.24 1.15-.36 1.754-.35.373.002.745.042 1.11.12.312.065.617.16.91.286-.102.375-.161.76-.177 1.149h-.2v-.712a2.306 2.306 0 0 0-.745-.372 3.076 3.076 0 0 0-.91-.131c-.444-.006-.884.1-1.276.306-.375.199-.68.504-.877.876-.22.435-.326.916-.31 1.4a2.86 2.86 0 0 0 .366 1.456c.234.408.58.742.998.964.46.234.971.35 1.488.34.242.001.484-.02.722-.067.198-.036.392-.095.576-.174.156-.07.306-.155.445-.252l.067.087h-.134zM59.007 39.665c.218.05.442.077.666.077.325.017.65-.047.944-.186.22-.123.394-.31.5-.537.11-.229.167-.48.166-.733.018-.354-.105-.7-.345-.963a2.143 2.143 0 0 0-1.487-.362h-.455v2.693l.011.011zm0-3.032h.478c.43.044.863-.064 1.22-.306.233-.22.36-.527.345-.843a1.024 1.024 0 0 0-.112-.515.818.818 0 0 0-.41-.339 2 2 0 0 0-.766-.12 3.395 3.395 0 0 0-.688.065V36.622l-.067.011zm-1.52-2.19v-.208H60.238c.304-.01.608.027.9.11.213.075.4.213.532.394.134.189.204.416.2.646a1.29 1.29 0 0 1-.333.854 1.965 1.965 0 0 1-1.11.57c.255.018.507.058.754.12.185.046.359.128.512.24a1.1 1.1 0 0 1 .343.428c.085.19.127.395.123.601-.004.187-.033.37-.089.548a1.611 1.611 0 0 1-.312.558 2.147 2.147 0 0 1-.543.47 2.463 2.463 0 0 1-.655.285 3.386 3.386 0 0 1-.832.087H57.808v-.251c.1-.04.192-.091.278-.153.05-.242.073-.488.066-.734V34.936c.006-.09.006-.182 0-.273a.208.208 0 0 0 0-.121l-.1-.054h-.532l-.034-.044zm-6.971-.24h2.42v.208h-.455a.566.566 0 0 0-.233.065.295.295 0 0 0-.1.22 4.181 4.181 0 0 0 0 .47v3.24c.013.177.054.351.121.515.062.14.158.265.278.361.159.12.34.204.533.252.256.068.522.101.788.099.294 0 .585-.045.866-.132.234-.066.445-.195.61-.372.15-.183.246-.403.278-.636.05-.362.072-.727.066-1.093v-2.146a2.904 2.904 0 0 0 0-.657.269.269 0 0 0-.144-.132c-.2-.024-.4-.024-.6 0v-.196h1.999v.196h-.522a.374.374 0 0 0-.167.066.3.3 0 0 0-.077.143 3.892 3.892 0 0 0 0 .547v2.189c.006.398-.013.797-.055 1.193a1.565 1.565 0 0 1-.267.722 1.933 1.933 0 0 1-.489.472c-.22.14-.465.24-.721.295-.299.067-.604.1-.91.099a3.861 3.861 0 0 1-1.044-.132 1.99 1.99 0 0 1-.71-.34 1.333 1.333 0 0 1-.377-.448 1.647 1.647 0 0 1-.145-.546v-3.996a.385.385 0 0 0-.055-.187.318.318 0 0 0-.155-.077 3.755 3.755 0 0 0-.567 0v-.207l-.166-.055zm-5.472 0h2.419v.208h-.455a.566.566 0 0 0-.233.065.295.295 0 0 0-.1.22c-.01.157-.01.314 0 .47V39.654h2.231c.168-.017.332-.058.489-.12.055-.157.1-.318.133-.481.055-.252.089-.395.089-.439h.221c0 .11 0 .328-.066.646-.067.318 0 .58 0 .778H45.51v-.143l.289-.164c.017-.18.017-.358 0-.537v-4.476c0-.067-.02-.13-.056-.187a.304.304 0 0 0-.155-.076 3.608 3.608 0 0 0-.556 0v-.209l.012-.043zm-.611 5.145l-.155.383a4.39 4.39 0 0 1-1.998.47 3.575 3.575 0 0 1-2.43-.853 2.845 2.845 0 0 1-.955-2.19 2.906 2.906 0 0 1 .476-1.652 2.914 2.914 0 0 1 1.255-1.095 4.195 4.195 0 0 1 1.754-.35c.373.002.745.041 1.11.12.312.065.617.16.91.284a5.215 5.215 0 0 0-.178 1.15h-.2v-.712a2.342 2.342 0 0 0-.743-.372 3.131 3.131 0 0 0-.91-.132c-.446-.004-.884.1-1.277.307-.374.2-.68.505-.877.876-.22.435-.326.917-.31 1.402-.01.508.116 1.01.366 1.455.235.408.58.741.999.963.459.235.97.35 1.487.34.242-.002.484-.028.721-.077.199-.037.392-.096.578-.175.156-.07.305-.154.444-.252l.066.087-.133.023zm28.149-15.281H76.9a6.87 6.87 0 0 0-.156 1.248h-.21v-.066a4.156 4.156 0 0 0 0-.678 2.349 2.349 0 0 0-.733-.154h-1.564v2.277H75.734c.104.013.208.013.311 0a.175.175 0 0 0 .067-.11 1.553 1.553 0 0 0 0-.273v-.263h.2v1.85h-.2v-.252a3.183 3.183 0 0 0 0-.35.186.186 0 0 0-.078-.098.87.87 0 0 0-.31-.066H74.28v2.44h2.064a1.73 1.73 0 0 0 .489-.12c.048-.147.089-.297.121-.448.056-.23.09-.384.1-.438h.2a5.798 5.798 0 0 0-.077.624v.766h-4.052v-.143l.288-.153c.049-.241.067-.488.057-.733V24.81c.008-.09.008-.183 0-.274a.337.337 0 0 0 0-.12l-.323-.055h-.532v-.339l-.034.044zm-.766 5.145l-.155.383a4.399 4.399 0 0 1-1.998.47 3.573 3.573 0 0 1-2.475-.853 2.864 2.864 0 0 1-.955-2.19c-.014-.59.153-1.17.477-1.664a2.92 2.92 0 0 1 1.255-1.094c.552-.241 1.15-.36 1.754-.35a5.389 5.389 0 0 1 2.02.405c-.102.375-.162.76-.178 1.149h-.2v-.711a2.314 2.314 0 0 0-.744-.373 3.07 3.07 0 0 0-.91-.131c-.445-.007-.884.1-1.276.306-.375.2-.68.504-.877.876-.22.434-.326.916-.311 1.401-.01.509.117 1.01.366 1.456.235.408.581.742 1 .964.459.233.97.35 1.487.339.242-.001.484-.027.721-.077.199-.037.392-.096.578-.175.155-.07.304-.154.444-.252l.066.088-.089.033zm-13.009.733v-.23h.41a.315.315 0 0 0 .2-.088.4.4 0 0 0 .056-.185V24.789a.517.517 0 0 0-.078-.317.34.34 0 0 0-.21-.131 2.724 2.724 0 0 0-.455 0v-.198H60.195l1.343 1.72 1.976 2.451c.237.299.481.58.732.842V24.581a.302.302 0 0 0-.077-.174.416.416 0 0 0-.2-.066h-.4v-.198h.977l.833-.12v.197a2.822 2.822 0 0 0-.433 0 .267.267 0 0 0-.19.087.454.454 0 0 0 0 .187v5.44a7.033 7.033 0 0 0-.732-.175l-.299-.35-.9-1.095-2.863-3.525V28.665a5.182 5.182 0 0 0 0 .59.325.325 0 0 0 0 .142.32.32 0 0 0 .144.077c.155.017.311.017.467 0v.198a5.915 5.915 0 0 0-.712 0h-1.11l.056.273zM17.65 14.708a9.88 9.88 0 0 0-7.593-2.627C3.786 12.727-.588 19.853.278 27.974c.866 8.123 6.66 14.231 12.92 13.541a8.203 8.203 0 0 0 3.552-1.15 4.637 4.637 0 0 1-2.608.614c-4.707.131-8.725-6.13-9.535-13.781-.81-7.652 1.11-14.286 5.916-14.471a10.19 10.19 0 0 1 7.126 1.98" fill="#010101"/><path d="M17.65 14.708a9.88 9.88 0 0 0-7.593-2.627C3.786 12.727-.588 19.853.278 27.974c.866 8.123 6.66 14.231 12.92 13.541a8.203 8.203 0 0 0 3.552-1.15 4.637 4.637 0 0 1-2.608.614c-4.707.131-8.725-6.13-9.535-13.781-.81-7.652 1.11-14.286 5.916-14.471a10.19 10.19 0 0 1 7.126 1.98z" stroke="#010101" stroke-width=".5"/><path d="M22.61 12.245a12.25 12.25 0 0 1 4.44 1.094c5.118 2.354 7.77 8.188 7.071 14.657-.932 8.067-6.704 14.165-12.964 13.54a8.214 8.214 0 0 1-3.508-1.17c.789.455 1.697.67 2.609.612 4.706.132 8.724-6.13 9.535-13.78.621-5.857-.367-11.122-3.763-13.377a7.27 7.27 0 0 0-3.819-1.16c-4.296-.208-6.293-3.098-6.116-6.568.178-3.47 2.442-6.053 5.073-5.922a4.136 4.136 0 0 1 2.974 1.576 4.258 4.258 0 0 0-2.819-1.28c-1.997-.23-3.241 2.386-3.418 5.616-.178 3.228 1.11 6.074 4.706 6.162" fill="#010101"/><path d="M22.61 12.245a12.25 12.25 0 0 1 4.44 1.094c5.118 2.354 7.77 8.188 7.071 14.657-.932 8.067-6.704 14.165-12.964 13.54a8.214 8.214 0 0 1-3.508-1.17c.789.455 1.697.67 2.609.612 4.706.132 8.724-6.13 9.535-13.78.621-5.857-.367-11.122-3.763-13.377a7.27 7.27 0 0 0-3.819-1.16c-4.296-.208-6.293-3.098-6.116-6.568.178-3.47 2.442-6.053 5.073-5.922a4.136 4.136 0 0 1 2.974 1.576 4.258 4.258 0 0 0-2.819-1.28c-1.997-.23-3.241 2.386-3.418 5.616-.178 3.228 1.11 6.074 4.706 6.162z" stroke="#010101" stroke-width=".5"/></g></svg><svg viewBox="0 0 64 70" id="logo-fml239" xmlns="http://www.w3.org/2000/svg"><title>flsh239</title><g transform="translate(2 13)" fill="#1D1D1D" fill-rule="nonzero"><g transform="translate(19 7)"><g transform="translate(4.617)"><path d="M17.121 8.724l.077.078.539.35c.962.702 2 1.52 3.155 1.831.77.195 1.039.078 1.731-.078-.077-.078-.27-.156-.538-.428-.193-.156-.347-.273-.54-.429-.769-.623-1.5-1.13-2.538-1.324-.77-.156-1.27-.078-1.886 0zM.27 3.466l1.115-.155-.154.272c-.154.195-.423.623-.5.857l.962-.428-.154 1.13.27-.351c.076-.078.153-.273.269-.273l.077 1.13c.192-.195.192-.273.269-.546 0-.156.154-.545.192-.623l.27.623.192.506c0 .078.077.078.077.156.077-.078.077-.078.077-.156V5.18c0-.156-.077-.428 0-.623.192.156.692.545.962.623l-.5-.857.961.273-.153-.195c-.154-.156-.424-.428-.5-.623h.692V3.7l-.192-.195c-.077-.078-.27-.156-.347-.272.27 0 .77.078 1.04 0 .153 0 .191 0 .268-.078l-.077-.078c-.269-.156-1.038-.156-1.154-.35.27-.273.154-.156.5-.351.154-.078.424-.195.5-.35-.076 0-.961.194-1.038.194-.154 0-.154-.078-.154-.078l.538-1.13-.269.079c-.346.155-.5.623-.885.506 0-.273.423-.857.27-1.052-.193.195-.193.273-.347.546-.077.155-.192.506-.423.506l-.192-.78C2.655.663 2.578.196 2.385.196L2.308 1.44c-.076.078-.076 0-.076 0-.193 0-.847-.701-.885-.779.192.35.269.506.5.857.077.156.154.156.154.273h-.693c-.154 0-.539-.156-.615-.156.192.156.884.545.884.779l-1.462.078.54.272c.153.078.5.156.538.195l-.847.428c-.077.078-.077.04-.077.078zM2.5 1.947c.616-.155 1.117.35 1.155.857.154.623-.27 1.13-.77 1.247-.615.155-1.115-.273-1.154-.857-.077-.623.27-1.09.77-1.247z"/></g><path d="M6.348 36.455v-1.208H1.116c1.847-1.558 3.886-3.154 4.732-5.53.077-.273.116-.584.116-.896 0-.74-.27-1.285-.808-1.675-.539-.39-1.309-.623-2.193-.623-.385 0-.808.04-1.155.195-.346.117-.654.311-.923.506-.27.234-.462.468-.577.662-.116.234-.231.507-.231.74 0 .273.038.507.192.623a.775.775 0 0 0 .539.234c.27 0 .5-.078.616-.195.115-.116.23-.272.23-.467s-.038-.39-.077-.584c-.038-.195-.076-.35-.115-.545.115-.234.308-.35.577-.507.27-.117.539-.194.847-.194.5 0 .846.116 1.154.389.308.273.462.662.462 1.285 0 .39-.039.662-.077.896-.231 2.415-3.31 4.635-4.387 5.881v.935h6.349v.078h-.039zM20.43 30.457c0-1.09-.192-1.909-.539-2.532-.346-.584-.808-.896-1.385-.896-.538 0-1 .234-1.308.74-.308.468-.5 1.13-.5 1.948 0 .74.192 1.363.5 1.83.346.468.808.662 1.347.662.346 0 .654-.038 1-.194.308-.117.577-.35.808-.623v-.078-.234-.234c.077-.194.077-.272.077-.39zm1.462.117c0 .818-.115 1.558-.346 2.259a5.926 5.926 0 0 1-1.077 1.87c-.462.544-1.04.934-1.655 1.323a5.78 5.78 0 0 1-2.193.662l-.115-.623.615-.078c1-.311 1.732-.779 2.27-1.44.539-.624.885-1.442 1.078-2.454-.347.311-.77.545-1.116.74-.346.116-.808.233-1.27.233-.77 0-1.385-.272-1.924-.857-.538-.584-.808-1.324-.808-2.22 0-.934.308-1.752.924-2.414.615-.623 1.423-1.013 2.308-1.013 1.04 0 1.847.35 2.424 1.09.539.624.885 1.636.885 2.922zm-14.466 4.05c0 .273.077.507.23.78.116.233.308.467.578.622.269.156.577.312.885.468.346.078.769.194 1.154.194 1.039 0 1.923-.272 2.655-.817.73-.546 1.038-1.286 1.038-2.143 0-.467-.077-.817-.23-1.13-.116-.31-.347-.544-.578-.74a2.06 2.06 0 0 0-.77-.389c-.268-.077-.576-.116-.807-.194v-.078c.385-.078.73-.273 1-.468.27-.194.5-.35.616-.584.115-.194.27-.39.308-.623.038-.234.077-.467.077-.662s-.039-.39-.116-.662c-.077-.273-.23-.506-.385-.74-.23-.234-.5-.467-.846-.584-.346-.195-.808-.273-1.385-.273-.5 0-.885.039-1.308.195a2.77 2.77 0 0 0-.924.545c-.269.234-.461.467-.577.662a1.764 1.764 0 0 0-.192.74c0 .234.038.39.192.584.077.195.27.273.539.273.27 0 .5-.039.615-.234.116-.117.231-.272.231-.467s-.038-.39-.077-.584a6.354 6.354 0 0 0-.115-.546l.192-.194c.077-.078.193-.117.27-.234.077-.039.23-.078.346-.195.115-.039.346-.078.577-.078.5 0 .846.117 1.116.468.27.272.385.74.385 1.324 0 .74-.116 1.207-.385 1.597-.27.35-.731.545-1.347.545h-.577v.78h.885c.346 0 .654.038.923.116.231.078.462.234.577.39.116.194.231.389.27.623.038.233.077.506.077.74 0 .467-.039.817-.193 1.129-.077.273-.269.545-.461.74-.193.195-.385.35-.654.467-.27.117-.5.117-.808.117-.27 0-.539 0-.654-.039a.981.981 0 0 1-.462-.194.836.836 0 0 1-.308-.195l-.192-.195c.038-.078.038-.273.077-.506.038-.234.077-.39.077-.546 0-.194-.077-.311-.231-.467a.902.902 0 0 0-.616-.234c-.23 0-.385.078-.538.273-.077.234-.154.39-.154.623z"/></g><path d="M41.566 16.934c-.078-.155-.626-.775-.704-.892-.9-.89-2.229-1.395-3.558-.968 0 .426.43.775.625.891.274.194.626.426.978.62.86.271 1.681.426 2.659.349zM41.019 14.221c1.134.271 2.659.349 3.87.194 1.213-.155 2.464-.271 3.52-.775-.352-.155-1.251-.697-1.76-.853-1.407-.27-3.206.698-4.692 1.124l-.938.31zM33.863 10.114l-.43.348c-.157.078-.43.194-.509.35l1.408-.194-.078.155c-.078.155-.548.774-.508.968l.508-.426c.078-.077.352-.349.547-.349l.078 1.163c.196-.349.157-.271.274-.62.078-.155.157-.543.196-.698l.273.194c.157.155.352.775.548.775l-.078-1.124c.273 0 .547.775.86.62.078-.077 0-.155 0-.194-.156-.348-.508-.852-.508-1.046l1.134.271c-.196-.155-.978-.542-.978-.62l1.33-.503-1.252-.078c.274-.155.548-.271.86-.504l-.977-.077.352-.426c.156-.155.274-.272.274-.426l-.9.193c.157-.155.509-.542.509-.697-.274.155-.509.194-.783.426-.273.194-.351.271-.43.271-.078-.271.157-.852 0-1.123l-.508 1.162c-.156-.349-.196-.543-.352-.891-.078-.155-.078-.194-.195-.194l-.079 1.162-.352-.348c-.078-.155-.156-.349-.273-.349l.195 1.046-.977-.503.273.62c.157.193.352.426.274.542l-1.134-.155.9.504-1.056.503 1.564.272zm1.173-1.434c.626-.155 1.056.426 1.134.891.078.62-.352 1.124-.86 1.163-.626.077-1.056-.427-1.134-.892-.04-.62.39-1.123.86-1.162zM39.767 13.873c1.486-.504 2.737-1.396 3.871-2.364-.078-.078-.351-.078-.508-.078-1.76 0-3.793 1.163-4.927 2.364 0 .155-.156.194-.195.349.39.155 1.407-.117 1.76-.271z"/><path d="M60.296 6.859l-1.525-.155.196-.194c.43-.426.977-1.124 1.33-1.589.195-.271.547-.852.43-1.24-.079-.194-.196-.349-.43-.426h-.783a3.37 3.37 0 0 1 .43-.697c.274-.504.704-1.047.704-1.59 0-.348-.195-.62-.508-.697-.548-.155-1.486.155-1.877.349l-.978.426c-2.815 1.318-5.552 3.062-8.211 4.728-.43.271-.782.348-1.173.542-1.525.698-3.207 1.395-4.614 2.286-1.252.814-2.151 1.434-2.855 2.79-.078.04-.117.04-.195.078-.118.077-.235.116-.313.155 0 0-.04 0-.04.039v-.117c.157-1.24.079-2.712-.625-3.758-.196-.349-.43-.504-.626-.698-.156-.155-.273-.271-.508-.349h-.078c-.078-.077-.157-.077-.196-.154l-2.19-.427c.274-.542 3.011-1.743 3.285-2.015l.352-.349c-.156-.193-.9-.193-1.173-.193-1.838 0-3.91.775-5.318 1.744-.782.542-.86.697-1.408 1.394l-.703-.697c-.274-.271-.509-.504-.783-.697-1.134-.892-2.463-1.59-3.91-1.86-.43-.078-.86-.155-1.251-.194h-1.29c0 .271.547.62.782.775.625.426 1.25.852 1.837 1.24.079.077.157.077.196.155.078 0 .156.077.195.155.157.077.196.194.352.349-.156 0-.352.077-.508.077-1.056.155-2.19.62-2.894 1.317l-.156.155c-.195.233-.43.66-.626 1.008-1.055 2.092-.195 5.231.704 7.362.078.155.43.892.43.97 0 .077-.078.154-.078.193l-.078.504c-.156 0-.274-.271-.352-.349-.274-.426-.508-1.046-.704-1.472-.274-.62-.625-1.163-.86-1.938-.43-1.589-.704-2.713-1.76-3.875a2.993 2.993 0 0 0-.704-.697c-.273-.194-.547-.35-.86-.543-1.407-.891-2.19-1.317-3.636-1.938-.978-.503-2.034-.852-3.011-1.24-.157-.077-.274-.193-.43-.27-1.252-.853-2.581-1.59-3.91-2.365C6.06 2.093 3.166.505 1.72.155.743-.039.039.31.469 1.317c.157.272.352.62.509.892l.547.852c-.352 0-.86-.077-1.134.194-.078.078-.078.155-.156.271v.272l.078.193c.274.775 1.33 1.821 1.877 2.442-.509 0-1.056-.078-1.486.155-.43.27-.43.697-.157 1.123C.9 8.254 1.681 8.874 2.23 9.3c-.352.155-.978.077-1.134.62-.157.543.43.969.626 1.124.43.348.977.775 1.525 1.046.078.078.195.078.273.155.078 0 .078.078.157.078.156.077.078 0 .156.077-.508.077-1.056.194-1.408.504-.43.348-.156.969.274 1.162l2.58 1.124c-.273.155-1.524.426-1.407 1.162.078.194.196.427.43.504.782.426 2.112.543 2.933.698-.078.077-.626.426-.782.504l-.196.193c-.273.349-.352.853.157 1.046.704.272 2.229.272 3.089.194-.352.271-.978.698-1.056 1.163-.156.852 1.056.697 1.525.697.43 0 .9-.077 1.33-.155-.196.078-1.056 1.046-.274 1.395.508.271 2.033-.155 2.58-.349l.548-.193c-.078.155-.156.194-.195.271-.196.271-.43.504-.548.852-.195.62.196.892.86.776.509-.155.9-.272 1.33-.504.43-.194.782-.504 1.173-.698 0 .078-.078.194-.156.271 0 .078-.079.194-.157.272-.078.155-.195.348-.274.542-.195.504.079 1.047.704.853.782-.271 1.525-.853 2.19-1.318-.156.427-.547.892-.43 1.395.078.194.274.427.547.349.352 0 .9-.426 1.173-.62.157-.155.352-.271.509-.426.156-.194.273-.271.43-.504l.43-.504c-.156.427-.86 1.666-.43 2.093.508.542 1.681-.775 1.955-1.163.274-.426.508-.852.704-1.317.195-.698.352-1.473.508-2.209l.43.194c0 .775 0 1.317.196 2.015.195.775.508 1.317.86 1.937.196.194.235.194.235.388 0 .349.078.62.195.891.078.271.196.504.352.775l.352.775-.195.194c-.274.194-.509.426-.704.62-.274.349-.548.62-.704 1.123 0 .155-.157.62-.078.776.078.193.273.503.43.503.547 0 .977-.426 1.33-.503.077.154.195.348.351.426.157.155.43.155.626.077.352-.194.625-.503.86-.775.078 0 .196.155.274.194.274.194.43.543.782.697.508.155.704-.426.704-.774v-.427h.156c0 .155-.156.427-.156.698 0 .271.156.503.43.426.274-.078.704-.543.9-.775.273.078.508.775.781.775.626-.078.626-.426.9-.62.43.078.977.504 1.486.426.195 0 .43-.194.351-.503 0-1.047-.625-1.822-1.955-2.713.079-.155.509-.853.626-1.473l.352-1.743c.078-.078.195-.155.274-.271.273-.272.625-.776.703-1.163l.274-2.17.274-.194c.078.155.156.504.156.698 0 .271.078.504.157.775.156.852.625 1.86 1.173 2.441.273.271.547.543.977.852.548.35.978 0 .86-.697-.078-.194-.195-.504-.273-.698-.157-.348-.157-.426-.196-.542.43.698 1.056 1.318 2.23 1.86.195.155.703.426.977.194.352-.194.195-.775.078-1.047l-.274-.542.157.155c.547.504 1.486.969 2.111 1.163.352.077.548-.078.626-.35.156-.542-.274-1.162-.626-1.665.078.077.157.154.274.193.274.271 1.681.853 2.033.892.352.154.704.193.9 0 .273-.194.195-.504.078-.776-.274-.426-.274-.503-.626-.89.548.27 2.464.89 3.167.62.548-.195.274-.776 0-1.125l-.273-.27c.625 0 1.681.542 2.659 0 .625-.505-.157-1.163-.548-1.473l-.508-.349c.626 0 .86.078 1.681.078.509 0 1.134 0 1.525-.194.548-.271.43-.775.079-1.124l-1.134-.698c.273-.077.547-.077.86-.077.704-.078 1.681-.271 2.229-.543.547-.27.625-.774.156-1.123l-1.251-.62c.547-.194.782-.194 1.486-.504.508-.194 1.525-.62 1.76-1.124.078-.271-.079-.542-.196-.697-.352-.271-.9-.426-1.33-.504l-.156-.078h.078l.508-.27c.548-.272 1.134-.698 1.604-1.047.195-.194.782-.62.625-1.124l-1.173-.62.157-.077c.352-.271.625-.543.977-.853a2.37 2.37 0 0 0 .626-.62c.156-.31.156-.813-.274-1.007zM22.72 20.46h.195c-.078.155-.156.271-.195.426-.079.194-.196.427-.274.504l.274-.93zM.82.62C1.994.426 6.726 3.178 7.625 3.759l2.307 1.395c.508.271.508.271.626.62.547 1.162 1.055 2.208 1.681 3.332-.352-.077-1.525-.504-1.877-.542-.625-.194-1.173-.427-1.838-.698-.547-.271-1.173-.503-1.681-.852-.782-.504-1.525-.892-2.229-1.511A19.784 19.784 0 0 1 3.011 3.99c-.352-.426-.508-.542-.86-1.046C1.877 2.558.82 1.085.82.62zM2.23 5.657l-.548-.62C1.525 4.883.782 3.914.782 3.643c.196-.155.86 0 1.056.077.195.077.195.155.352.271.352.504.9.969 1.33 1.395.273.271.508.504.86.698C6.842 8.02 9.58 9.068 12.59 9.92c.352.078.196 0 .547.62-1.016-.077-3.206-.542-4.027-.852C7.35 9.184 5.67 8.447 4.184 7.4c-.196-.155-.508-.348-.704-.542-.39-.426-.821-.698-1.251-1.202zM.82 7.13c.352-.194 1.486 0 1.877 0 .196 0 .43.271.626.426.195.155.43.271.625.426 1.877 1.24 3.715 2.016 5.944 2.52 1.173.27 2.307.503 3.558.62l.196.27c-2.464.155-5.396-.077-7.703-.89-1.134-.427-2.034-.853-2.894-1.473-.274 0-2.229-1.473-2.229-1.899zm2.464 4.185c-.43-.271-1.525-.969-1.682-1.24.196-.077 1.173-.271 1.408-.155.352.194.626.426 1.056.62.782.349 1.486.698 2.385.969l5.904.775 1.838-.078.274.427-4.34.426c-1.838 0-3.363-.271-4.927-.853-.743-.271-1.369-.542-1.916-.891zm.156 2.402c-.274-.193-.43-.27-.626-.426.352-.271 1.877-.504 2.112-.504.156.078.43.155.626.194 1.955.62 4.144.775 6.178.543.508-.078 1.056-.078 1.525-.155l1.525-.194.195.271c-.156.155-1.134.427-1.407.504-2.66.891-5.357 1.318-8.095.543a11.589 11.589 0 0 1-2.033-.776zm2.737 2.946l-1.681-.504c0-.078 0-.078.078-.078l.078-.077c.43-.272 1.134-.504 1.603-.62.274-.078.196-.078.509-.078 1.838.272 3.714.078 5.396-.348 1.134-.272 2.111-.62 3.206-.97l.196.35c-.157.155-1.486.775-1.603.852-1.76.969-3.715 1.666-5.827 1.666-.586 0-1.486-.077-1.955-.194zm2.307 2.208c-.156 0-1.603-.155-1.838-.194.157-.27 1.838-1.123 2.112-1.162.978-.078 1.877-.194 2.815-.504l4.575-2.015.352.426c-.195.194-1.407 1.047-1.603 1.24-.547.35-1.134.776-1.76 1.047-1.446.697-2.893 1.162-4.653 1.162zm.743 1.822h-.195c.156-.272 1.76-1.396 1.955-1.512.195-.077.547-.155.9-.271a14.428 14.428 0 0 0 3.088-1.589c.352-.194.626-.426.9-.62.43-.349.43-.349.899-.62l.352.504-.782.775c-1.33 1.317-2.66 2.441-4.614 3.061-.509.117-1.643.349-2.503.271zm4.497.697c-.626.349-1.603.543-2.307.62.078-.271.978-.969 1.251-1.24.078-.078.078-.078.196-.155 1.056-.504 2.19-1.162 3.01-1.938.157-.154.274-.193.353-.348.156-.155.625-.62.782-.698l.899-.542c.078.155.274.271.352.349-.078.155-.86 1.046-.9 1.162l-.351.349c-.079.077-.079.155-.157.193-.274.35-.977.892-1.33 1.163-.469.465-1.094.814-1.798 1.085zm2.112 1.162c-.43.155-1.174.543-1.76.62.078-.193.626-.852.782-1.046.078-.077.078-.155.156-.155.079-.077.157-.077.157-.155.43-.503 2.111-2.092 2.659-2.557l.156-.155c.078-.078.157-.078.157-.155.273-.272.547-.504.86-.698l.352.271c-.078.194-.86 1.318-.9 1.512-.743 1.007-1.642 1.976-2.62 2.518zm3.362-.348c-.508.542-.977 1.046-1.681 1.395-.156.077-.547.349-.704.349.196-.698 2.033-2.868 2.58-3.527.275-.348.627-.775.9-1.123l.352.193c0 .194-.508 1.163-.625 1.473-.196.504-.548.891-.822 1.24zm2.542-.465c-.352.891-.704 1.317-1.33 2.015-.273 0-.782.426-1.055.542.078-.271.43-.852.547-1.046.196-.349.43-.698.626-.969.43-.697.86-1.317 1.33-1.937l.273.155c0 .271-.352.969-.391 1.24zm1.72 0a5.887 5.887 0 0 1-.899 1.86c-.195.271-.508.542-.704.697.157-.697 1.525-3.139 1.838-3.758 0 .27-.156.93-.234 1.2zM48.645 8.602c.508-.852 1.055-2.014 1.407-2.867.196-.543.157-.426.548-.698.273-.154.508-.348.782-.503.508-.271 1.056-.62 1.525-.891a60.813 60.813 0 0 1 3.167-1.744L59.631.58c.079.504-1.525 2.635-1.877 3.062-2.19 2.557-5.122 4.184-8.328 5.153-.274 0-.626.155-.978.194.078-.116.156-.271.196-.388zm-.743 1.434c.156-.194.078-.194.352-.271.273-.078.625-.155.899-.271 2.659-.775 5.044-1.821 7.156-3.526.078-.078.547-.504.625-.543l.626-.542c.352-.35.626-.698.978-1.124.078-.078.078-.078.195-.078l1.056-.077c0 .271-.509.852-.704 1.123-.196.194-.626.776-.86.97l-.157.154c-2.385 2.558-5.943 3.837-9.463 4.456-.195 0-.625.155-.977.155.117-.116.195-.348.274-.426zM34.997 6.51c1.838-.155 3.284 1.317 3.363 2.984.078 1.744-1.252 3.332-2.933 3.41-1.838.155-3.206-1.318-3.363-2.984-.156-1.821 1.251-3.255 2.933-3.41zm-4.028 3.875l.196.271.9 1.589c.156.271.156.155-.08.698-.038.038-.077.155-.195.387l-.508 1.395c-.235.581-.43 1.124-.47 1.162-.077-.077-1.133-2.712-1.172-2.906-.196-.542-.157-.271.508-1.317.156-.194.274-.426.43-.62l.391-.659zm-4.34-4.03c1.877-.194 3.284 1.24 3.52 2.906.195 1.86-1.174 3.333-2.895 3.488-1.876.271-3.362-1.163-3.519-2.868-.117-1.782 1.29-3.293 2.894-3.526zm-2.307 10.036c-.196.155-.196.155-.43 0-.196-.155-.509-.426-.509-.775.157-.077 1.134-.542 1.408-.697.978-.504 2.112-.969 3.167-1.124l1.877-.194.352.969c-.352-.078-1.681.194-2.111.271-.626.155-1.252.349-1.838.543-.548.194-1.134.503-1.603.775a2.167 2.167 0 0 0-.313.232zm5.396 13.834c-.196-.194-.547-.698-.86-.698-.274 0-.548.543-.782.698-.079.077-.274.077-.352 0-.157 0-.352-.426-.43-.543-.196-.193-.43 0-.626.155-.156.078-.156.155-.274.194-.078 0-.273.194-.352.194-.273-.155-.078-.543 0-.698.352-.697 1.486-1.743 2.464-1.395.195.078.508.272.625.35.352.27.626.62.9 1.123.078.155.078.155.078.349-.04.31-.117.542-.391.271zm.9-4.611c-.705-.892-.86 2.363-2.112 1.046-.43-.426-.626-1.046-.9-1.589-.078-.194-.195-.349-.195-.62 0-.891 1.134.271 1.251.504.43.504.704-.504 1.251-.969.43-.349.86.155 1.056.349.196.271.509.697.704.891.508.427.704-.155.9-.503.195-.155.547-.698.899-.698.43.426-.626 2.015-.782 2.286-.939 1.473-1.369.155-2.073-.697zm4.3 4.534c0 .193-.625-.078-.781-.155a8.95 8.95 0 0 1-.509-.427c-.195-.077-.547.853-.9.775-.156 0-.195-.155-.195-.194l-.195-.193c-.548-.62-.704-.155-.978.077 0 .155-.273.427-.43.427-.156-.504.274-1.163.508-1.473.196-.349.704-.697 1.33-.697.352 0 .547.077.86.154.587.155 1.408 1.008 1.29 1.706zm-1.915-6.665c-.704-.62-.782-3.178-1.877-.776-.196.543-.626 1.24-1.173.504-.196-.271-.43-.775-.626-1.123-.352-.62-.704-.078-.86.348-.157.271-.274.543-.43.775-.509.504-1.056-.155-1.33-.62-.195-.155-.86-1.24-.86-1.511-.078-.969.977 0 1.173.194.352.348.274.503.977-.194.626-.775.9-1.046 1.525.078.86 1.394 1.056.774 1.76-.155.156-.155.43-.504.626-.543.704-.271.86.891 1.251.969.274.077.547-.349.704-.426.078-.078.625-.543.782-.272.274.426-.939 3.294-1.642 2.752zm2.737-5.387c-.157.427-.352.853-.548 1.124-.195.271-.508.698-.9.775-.546.078-1.055-.853-1.25-1.24-.079-.194-.196-.543-.43-.349-.43.349-.86 2.17-1.604 1.395-.547-.542-.704-2.208-1.486-.891-.156.271-.43.891-.782.891-.703 0-1.055-2.17-1.681-1.162-.196.349-.352.852-.547 1.123-.43.543-.704 0-.978-.27-.196-.272-.508-.62-.626-1.047 0-.194-.352-1.046-.156-1.317.195 0 .43.348.547.503.274.271.704.775 1.056-.077.196-.426.508-1.318.978-1.046.508.27.977 1.24 1.251 1.666.352.503.86-.853.9-1.124.078-.271.43-.775.781-.504.626.504.978 2.558 1.525 1.318.157-.427.548-1.124.9-1.318.625-.271.625 1.124 1.486 1.318.43.077.782-.155 1.055-.427.509-.426.157-.193.782-.697.157.349-.117 1.046-.273 1.356zm.273-2.557c-.078-.078-.156-.155-.273-.194a7.17 7.17 0 0 0-1.252-.543l-3.05-.31c.04-.116.118-.232.196-.387.078-.194.117-.349.156-.504v-.077c.509 0 1.29.155 1.682.232.547.078 1.173.271 1.76.426.547.155.508.194.781.078.783-.426 1.252-.775 1.956-1.317a8.816 8.816 0 0 1 1.837-1.202c.079-.038.235-.116.391-.155.235-.116.47-.194.47-.194h.039c1.33-.426 2.463-.542 3.87-.503.08.969-.86 1.395-1.602 1.744l-.548.27c.196.194.157.194.078.272.352-.078 1.408-.504 1.76-.62 1.486-.543 2.385-.62 3.871.155.274.155.509.349.704.504.196.155.508.348.704.542-.078.194-.704.62-.978.775-.43.194-.899.271-1.407.349-1.056.155-2.23.155-3.285.194.9.077 1.877.697 2.464 1.124.351.27.625.542.977.852.43.271.548.504.978.852-.274.155-1.604.504-1.955.504a4.196 4.196 0 0 1-2.112-.348c-.86-.427-1.525-.97-2.229-1.512l-.782-.542c.078.155.548.542.626.697l.547.775c-.195.155-1.173.271-1.525.271a6.983 6.983 0 0 1-1.603-.193c-1.33-.543-2.385-1.163-3.246-2.015zm2.112 5.851c-.078-.078-.078-.194-.156-.271-.157-.194-.196-.349-.352-.543h.195c.117.233.274.543.313.814zm-.196 2.131c-.195-.194-.351-.542-.508-.852a8.208 8.208 0 0 1-.547-2.093c.156.078.782 1.473.9 1.666.43.853.547 1.124.86 1.938-.235-.078-.548-.426-.705-.659zm2.308-.038c-.548-.543-.978-1.163-1.252-1.938-.078-.194-.156-.426-.195-.543-.078-.154-.196-.503-.196-.62l.157-.077c.43.543 1.525 2.286 1.877 2.867l.547 1.047c-.313-.194-.782-.62-.938-.736zm2.19-.35c-1.056-.774-1.878-2.285-2.308-3.603l.157-.078.156.155.156.155a.695.695 0 0 1 .196.272c.43.542.9 1.046 1.33 1.588.273.35.547.698.86 1.124l.782 1.163c-.43-.078-1.134-.581-1.33-.775zm2.385-.697c-.43-.271-.978-.697-1.33-1.123-.43-.504-.626-.775-1.056-1.318-.273-.504-.547-.853-.86-1.24-.078-.155-.156-.155-.156-.194l.156-.155.352.271c.156.078.195.194.352.272.156.077.195.193.352.271.078.078.195.194.352.271l.156.155c.626.543 2.307 2.17 2.737 2.635.352.427.352.349.626.853-.587-.078-1.29-.504-1.681-.698zm2.228-1.046c-.625-.271-1.173-.698-1.681-1.046-.078-.078-.156-.078-.196-.155-.078-.078-.156-.078-.195-.155-.196-.155-.86-.853-1.056-.969l-1.251-1.473.274-.154-.079-.155c.079 0 .704.426.86.503.86.543.978.891 1.76 1.473.274.194 1.056.62 1.33.852l.9.504c.195.155.547.504.781.62.078.078.157.078.196.155l.508.543c-.665 0-1.642-.35-2.15-.543zm4.497-.775c-.9.078-2.385-.271-3.167-.62-.548-.271-1.251-.62-1.838-1.046a1.989 1.989 0 0 1-.508-.349c.156 0 .352 0 .508-.078.547-.077 1.173-.27 1.251-.27.079 0 .548.27.704.27.43.194 1.603.892 1.877 1.163l1.173.93zm2.385-2.015c-.195.155-1.134.155-1.407.155-.509 0-.978 0-1.486-.155-.626-.078-1.251-.271-1.838-.504l-.547-.271c.078 0 .078 0 .156-.078h.078l.078-.077c-.156-.078-.195-.155-.273-.194-.196-.194-.86-.697-.978-.891l-.43-.349c-.274-.077-.43-.194-.704-.426.274.077.548.194.9.349.86.349 1.955.697 2.893.891.196.078.352.078.508.155.157 0 .352.078.548.078.078 0 .782.348.9.348l1.602.969zm2.112-2.441l-3.206.542c-1.134 0-2.23-.194-3.285-.503a23.191 23.191 0 0 1-2.112-.776c-.078-.077-.547-.193-.625-.27.508-.078.9-.078 1.407-.194.352-.078.196-.155.626-.078.196.077.43.077.704.155l3.01.271c.978 0 1.057-.155 1.956.155l1.525.698zm1.681-2.906c-.352.348-1.76.852-2.307 1.046-.977.271-1.955.426-3.01.426-.9 0-1.76-.077-2.66-.271-.156 0-.273 0-.351-.078l.195-.194c.156-.155.43-.503.547-.697h.352a17.5 17.5 0 0 0 3.793-.426c.274-.078.548-.155.86-.194.353-.155.43-.155.9 0l1.681.387zm1.056-3.333c-.156.271-1.173.969-1.603 1.162-1.955 1.318-4.067 1.744-6.647 1.744h-.783c-.547 0-.351-.077-1.055-.504l-.509-.27c1.838-.078 3.52-.194 5.201-.62 1.134-.272 2.19-.62 3.167-1.163.157-.078.9-.504.978-.504l1.251.155zm.47-2.286c-.196.193-.9.775-1.135.968-.977.775-2.19 1.396-3.519 1.822-2.19.852-5.279 1.123-7.586 1.046l.196-.349c.274-.077.625-.077.9-.155.273-.077.547-.077.86-.155 3.089-.542 5.943-1.511 8.406-3.487.157-.155.157-.155.352-.194l1.877-.077c.079.154-.273.503-.352.58z"/></g></svg><svg viewBox="0 0 66 70" id="logo-jetbrains" xmlns="http://www.w3.org/2000/svg"><title>jetbrains</title><defs><linearGradient x1="9.612%" y1="85.627%" x2="89.899%" y2="14.383%" id="fa"><stop stop-color="#FCEE39" offset="0%"/><stop stop-color="#F37B3D" offset="100%"/></linearGradient><linearGradient x1="8.602%" y1="9.463%" x2="99.641%" y2="95.276%" id="fb"><stop stop-color="#EF5A6B" offset="0%"/><stop stop-color="#F26F4E" offset="57%"/><stop stop-color="#F37B3D" offset="100%"/></linearGradient><linearGradient x1="90.119%" y1="91.33%" x2="17.938%" y2="26.418%" id="fc"><stop stop-color="#7C59A4" offset="0%"/><stop stop-color="#AF4C92" offset="38.5%"/><stop stop-color="#DC4183" offset="76.5%"/><stop stop-color="#ED3D7D" offset="95.7%"/></linearGradient><linearGradient x1="91.376%" y1="7.597%" x2="18.896%" y2="77.772%" id="fd"><stop stop-color="#EF5A6B" offset="0%"/><stop stop-color="#EE4E72" offset="36.4%"/><stop stop-color="#ED3D7D" offset="100%"/></linearGradient></defs><g transform="translate(2 2)" fill-rule="nonzero" fill="none"><path d="M61.23 37.153c.46-.41.717-.973.768-1.638.051-1.331-.922-2.406-2.253-2.508-.614-.052-1.229.204-1.69.563L15.146 57.067a5.03 5.03 0 0 0-2.406 2.099c-1.485 2.457-.666 5.63 1.843 7.115 1.741 1.024 3.84.922 5.479-.102.102-.102.256-.154.358-.256L60.36 37.87c.204-.154.768-.563.87-.717z" fill="url(#fa)"/><path d="M61.288 32.994L28.819 1.267A3.958 3.958 0 0 0 25.92 0 3.912 3.912 0 0 0 22 3.903c0 1.064.407 1.976 1.069 2.686.203.202.407.354.61.507l34.3 29.243c.408.355.917.608 1.527.66 1.324.05 2.392-.913 2.494-2.23 0-.66-.254-1.319-.712-1.775z" fill="url(#fb)"/><path d="M30.156 31.048c-.05 0-20.118-15.955-20.526-16.213l-.92-.463c-2.96-1.132-6.228.412-7.352 3.397-.97 2.625.102 5.507 2.349 6.897.357.206.664.36 1.021.463.204.103 23.182 9.676 23.182 9.676.919.412 1.99.155 2.604-.617a2.232 2.232 0 0 0-.358-3.14z" fill="url(#fc)"/><path d="M25.04 0c-.863 0-1.675.308-2.335.77L2.499 14.52c-.05.05-.101.05-.101.102h-.051c-.863.616-1.574 1.539-1.98 2.616-1.117 2.976.406 6.31 3.35 7.388 1.828.719 3.808.36 5.28-.718.356-.256.66-.513.914-.82L27.477 7.08A3.977 3.977 0 0 0 29 3.95C29 1.796 27.223 0 25.04 0z" fill="url(#fd)"/><path fill="#000" d="M18 19h26v26H18z"/><path fill="#FFF" d="M20 40h10v2H20z"/><g transform="translate(20 22)" fill="#FFF"><path d="M.41 3.9l.767-.7c.204.25.409.4.665.4.307 0 .46-.2.46-.6V.35H3.48V3c0 .5-.153.9-.41 1.15-.255.25-.664.4-1.176.4C1.126 4.6.716 4.3.409 3.9zM3.734.4h3.428v.95H4.912V2h2.046v.9H4.912v.65h2.302v1H3.786L3.735.4zm4.963 1h-1.28v-1h3.735v1H9.874v3.15H8.698V1.4zM.512 5.5h2.2c.511 0 .92.15 1.176.35.154.15.256.4.256.7 0 .5-.256.75-.665.95.512.15.819.45.819 1 0 .7-.614 1.15-1.586 1.15h-2.2V5.5zm2.455 1.3c0-.25-.204-.35-.511-.35h-.768v.75h.717c.358-.05.562-.15.562-.4zM2.558 8h-.92v.75h.92c.358 0 .563-.15.563-.4S2.916 8 2.558 8zm1.944-2.5h1.996c.665 0 1.074.15 1.381.45.256.25.358.55.358.95 0 .65-.358 1.05-.87 1.3l1.024 1.45H7.06L6.19 8.4h-.512v1.25H4.502V5.5zm1.945 2c.409 0 .613-.2.613-.5 0-.35-.255-.5-.613-.5h-.768v1h.768z"/><path d="M9.619 5.5h1.125l1.79 4.2h-1.278l-.307-.75H9.312l-.307.75H7.777l1.842-4.2zM10.642 8l-.46-1.15L9.72 8h.92zm2.046-2.5h1.177v4.15h-1.177V5.5zm1.484 0h1.075l1.739 2.2V5.5h1.177v4.15H17.14L15.349 7.4v2.3h-1.177V5.5zm4.093 3.55l.665-.75c.41.35.87.5 1.382.5.307 0 .511-.1.511-.3 0-.2-.153-.25-.716-.4-.921-.2-1.586-.45-1.586-1.3 0-.75.614-1.35 1.637-1.35.716 0 1.28.2 1.74.55l-.614.8c-.41-.25-.819-.4-1.177-.4-.307 0-.41.1-.41.25 0 .2.154.25.717.4.972.2 1.586.5 1.586 1.3 0 .85-.665 1.35-1.74 1.35-.767.05-1.483-.2-1.995-.65z"/></g></g></svg><svg viewBox="0 0 92 70" id="logo-shad" xmlns="http://www.w3.org/2000/svg"><title>shad</title><defs><path id="ga" d="M0 37.447h87.388V0H0z"/></defs><g transform="translate(2 16)" fill="none" fill-rule="evenodd"><path d="M44.52.983c-6.44 0-11.66 5.219-11.66 11.657s5.22 11.656 11.66 11.656 11.661-5.218 11.661-11.656c0-6.438-5.22-11.657-11.66-11.657" fill="#DA3229"/><mask id="gb" fill="#fff"><use xlink:href="#ga"/></mask><path fill="#000" mask="url(#gb)" d="M65.438 23.447h21.67V1.785h-21.67z"/><path fill="#FACB26" mask="url(#gb)" d="M7.01 11.705L.23 23.447h27.077L20.54 11.705 13.775 0z"/><path fill="#000" mask="url(#gb)" d="M2.162 35.941v-3.85h.608v3.85h1.554v-3.85h.608v4.336H0v-4.371h.608v3.885zM6.96 33.877h.146c.233.012.463-.052.656-.183.137-.154.248-.331.328-.522l.134-.388c.045-.203.141-.39.28-.546a.958.958 0 0 1 .752-.231v.474a.616.616 0 0 0-.376.145.707.707 0 0 0-.183.377l-.182.424c-.065.16-.16.303-.279.426a.759.759 0 0 1-.474.23c.21.036.405.133.559.28.136.155.247.331.328.522l.28.607c.044.157.123.302.23.425.092.074.21.11.328.097v.522a.926.926 0 0 1-.692-.11 1.628 1.628 0 0 1-.292-.618l-.28-.705a2.164 2.164 0 0 0-.327-.522 1.03 1.03 0 0 0-.607-.182h-.28v2.028h-.607v-4.371h.607v1.82h-.048zM13.532 36.038a1.917 1.917 0 0 1-1.36.522 1.688 1.688 0 0 1-1.36-.522 2.912 2.912 0 0 1 0-3.57c.36-.34.839-.527 1.335-.521.51-.041 1.01.15 1.361.522a2.912 2.912 0 0 1 0 3.569m-2.223-3.145c-.307.384-.458.87-.425 1.36-.01.487.138.965.425 1.36a1.214 1.214 0 0 0 1.785 0 1.96 1.96 0 0 0 .425-1.36 2.233 2.233 0 0 0-.425-1.36 1.216 1.216 0 0 0-.899-.376 1.07 1.07 0 0 0-.898.376M16.363 32.614v1.627a3.642 3.642 0 0 1-.571 1.992 1.212 1.212 0 0 1-.9.327l-.097-.522a.977.977 0 0 0 .523-.182 2.79 2.79 0 0 0 .474-1.748v-2.065h2.49v4.384h-.608v-3.861h-1.311v.048zM19.885 36.427h-.656l1.835-4.371h.522l1.822 4.37h-.656l-.474-1.214H20.36l-.474 1.215zm1.409-3.643l-.753 1.93h1.506l-.753-1.93zM26.42 36.427h-.704l1.834-4.371h.523l1.822 4.37h-.656l-.474-1.214h-1.92l-.424 1.215zm1.41-3.643l-.753 1.93h1.506l-.754-1.93zM31.45 36.427h-.608v-4.371h.608v1.833h2.016v-1.797h.608v4.335h-.608v-1.98H31.45zM35.677 36.427h-.656l1.834-4.371h.523l1.822 4.37h-.657l-.473-1.214h-1.92l-.473 1.215zm1.408-3.643l-.752 1.93h1.506l-.754-1.93zM41.3 32.614v1.627a3.64 3.64 0 0 1-.522 2.016 1.212 1.212 0 0 1-.899.328l-.097-.523a.982.982 0 0 0 .523-.181 2.788 2.788 0 0 0 .425-1.737V32.08h2.515v4.348h-.608v-3.861h-1.336v.048zM47.241 32.517v-.425h.608v4.335h-.608v-3.109l-1.98 2.72v.474h-.607V32.14h.607v3.145zM49.124 32.469c.388-.345.89-.531 1.409-.523.439-.039.875.097 1.215.377.215.23.333.535.328.85a.862.862 0 0 1-.28.704 1.113 1.113 0 0 1-.522.28c.222.044.43.14.607.278.193.202.293.475.28.753.006.385-.169.75-.474.984-.36.235-.785.35-1.215.328a3.245 3.245 0 0 1-1.032-.146 1.954 1.954 0 0 1-.608-.377l.329-.424c.163.124.338.234.522.328.24.093.495.143.752.146.25.025.5-.04.705-.183a.86.86 0 0 0 .28-.656.656.656 0 0 0-.28-.558 2.02 2.02 0 0 0-1.033-.182h-.145v-.45h.145c.276.013.55-.036.803-.145a.607.607 0 0 0 .376-.608.56.56 0 0 0-.267-.461 1.226 1.226 0 0 0-.656-.182c-.406.01-.8.141-1.13.377l-.11-.51zM53.546 36.427h-.657l1.774-4.335h.523l1.907 4.335h-.657l-.473-1.215h-1.956l-.461 1.215zm1.457-3.643l-.753 1.93h1.506l-.753-1.93zM59.85 35.953c.207-.384.367-.791.474-1.214a7.894 7.894 0 0 0 .17-1.955v-.704h2.49v3.86h.523v1.507h-.56v-1.02h-2.963v.983h-.56v-1.47l.426.013zm1.215-3.339v.17c.022.71-.04 1.418-.182 2.113-.1.375-.243.738-.425 1.08h1.882v-3.363h-1.275zM64.685 36.427h-.656l1.834-4.371h.523l1.822 4.37h-.657l-.473-1.214h-1.931l-.462 1.215zm1.457-3.643l-.753 1.93h1.506l-.753-1.93zM69.762 36.427h-.607v-4.371h.607v1.833h2.017v-1.797h.607v4.335h-.607v-1.98h-2.017zM74.366 36.427h-.607v-4.371h.607v1.833h2.016v-1.797h.608v4.335h-.608v-1.98h-2.016zM78.958 33.78h.802c.47-.056.943.08 1.311.376.238.252.357.59.329.935a1.32 1.32 0 0 1-.329.935c-.385.3-.875.436-1.36.377h-1.3v-4.371h.547v1.748zm.814 2.16c.301.025.602-.056.85-.23a.813.813 0 0 0 .23-.559.727.727 0 0 0-.23-.606 1.444 1.444 0 0 0-.85-.231h-.814v1.627h.814zm2.308.487h.607v-4.335h-.607v4.335zM85.505 34.63l-1.215 1.833h-.704l1.506-2.307-1.275-2.064h.656l1.032 1.603 1.032-1.603h.657l-1.312 2.064 1.506 2.271h-.705z"/></g></svg><svg viewBox="0 0 302 226" id="top-banner-kids" xmlns="http://www.w3.org/2000/svg"><title>Page 1</title><g fill="#F7F4EC" fill-rule="evenodd"><path d="M272.861 225.897h-100.93V199.04h-3.461v26.857h-24.614v-39.92c4.37-23.269 24.08-41.13 48.23-42.71.071 16.66 13.64 30.191 30.311 30.191 16.67 0 30.238-13.531 30.308-30.191 27.43 1.79 49.14 24.59 49.14 52.471v30.159h-25.523V199.04h-3.461v26.857zM167.126 33.177c0-15.81 12.819-28.63 28.63-28.63v8.83c8.15-5.558 17.99-8.83 28.61-8.83h45.46c0 6.12-2.07 11.75-5.54 16.24.51-.03 1.03-.048 1.55-.048h18.72c0 12.25-8.3 22.569-19.59 25.628a56.38 56.38 0 0 1 4.69 6.34l-6.92 6.19c-2.65-7.05-9.44-12.09-17.41-12.09-9.33 0-17.06 6.91-18.381 15.88h-9.1c-1.32-8.97-9.05-15.88-18.38-15.88-7.97 0-14.76 5.04-17.408 12.09l-6.731-6.02c-5.43-4.86-8.2-12.51-8.2-19.7zm-10.99 32.8c0-5.85 4.75-10.59 10.59-10.59h6.21l8.14 7.28a19.31 19.31 0 0 0-.22 2.75c0 10.26 8.35 18.612 18.61 18.612 10.01 0 18.181-7.96 18.57-17.881h8.72c.391 9.92 8.561 17.88 18.57 17.88 10.26 0 18.61-8.351 18.61-18.611 0-.94-.09-1.848-.22-2.74l8.14-7.29h6.211c5.848 0 10.59 4.74 10.59 10.59 0 5.852-4.742 10.592-10.59 10.592h-.012c.221 2.028.342 4.079.342 6.17 0 21.188-11.782 39.638-29.152 49.148v11.26c0 14.83-12.019 26.85-26.848 26.85-7.41 0-14.132-3-18.99-7.86a26.77 26.77 0 0 1-7.862-18.99v-11.26c-17.37-9.51-29.148-27.96-29.148-49.148 0-2.091.118-4.142.34-6.17h-.01c-5.842 0-10.592-4.74-10.592-10.591zm55.62 130.496v-9.53l-3.229 3.228c-2.246-2.182-5.303-3.531-8.66-3.531-7.022 0-12.715 5.378-12.715 12.399 0 7.025 5.693 12.402 12.715 12.402 4.398 0 8.288-2.28 10.502-5.788l-3.669-2.28a8.098 8.098 0 0 1-6.833 3.766c-4.46 0-8.067-3.606-8.067-8.1a8.059 8.059 0 0 1 8.067-8.065c2.178 0 4.156.853 5.605 2.254l-3.222 3.223 9.506.022zm13.42.445l-3.8-.98c-4.17-1.2-2.309-4.96 1.39-4.96 2.221 0 4.08.628 5.6 1.86l2.5-3.54c-2.15-1.68-5.03-2.66-8.1-2.66-4.46-.09-8.44 3.07-8.35 6.87 0 3.32 2.38 5.66 5.821 6.58l4.048 1.04c4.87 1.33 2.88 6.04-1.52 6.04-2.5 0-4.71-.88-6.23-2.37l-2.53 3.57c2.28 1.93 5.38 3.07 8.76 3.07 4.91.1 9.08-3.29 8.99-7.4 0-3.86-2.938-6.2-6.58-7.12zm21.96 10.22c-4.46 0-8.06-3.61-8.06-8.101 0-4.46 3.6-8.06 8.06-8.06 2.88 0 5.41 1.48 6.84 3.762l3.66-2.311c-2.21-3.48-6.1-5.79-10.5-5.79-7.02 0-12.71 5.38-12.71 12.399 0 7.032 5.69 12.4 12.71 12.4 4.4 0 8.29-2.27 10.5-5.79l-3.66-2.27c-1.43 2.24-3.96 3.76-6.84 3.76zm.018-11.862a3.781 3.781 0 0 0 0 7.561 3.782 3.782 0 0 0 3.78-3.782 3.779 3.779 0 0 0-3.78-3.779zM199.465 50.268c8.352 0 15.15 6.8 15.15 15.149 0 8.35-6.798 15.152-15.15 15.152-8.359 0-15.148-6.801-15.148-15.152 0-8.348 6.79-15.15 15.148-15.15zm45.86 0c8.361 0 15.152 6.8 15.152 15.149 0 8.35-6.79 15.152-15.152 15.152-8.348 0-15.15-6.801-15.15-15.152 0-8.348 6.802-15.15 15.15-15.15zm0 26.34c6.49 0 11.772-5.28 11.772-11.771h-3.46c0 4.582-3.731 8.31-8.311 8.31s-8.301-3.728-8.301-8.31h-3.47c0 6.492 5.28 11.77 11.77 11.77zm-46 0c6.49 0 11.772-5.28 11.772-11.771h-3.46c0 4.582-3.731 8.31-8.311 8.31s-8.301-3.728-8.301-8.31h-3.47c0 6.492 5.28 11.77 11.77 11.77zm66.98 13.92a2.18 2.18 0 0 0 2.182-2.181 2.18 2.18 0 1 0-4.362 0 2.18 2.18 0 0 0 2.18 2.181zm-5.34 8.55c1.21 0 2.181-.97 2.181-2.181 0-1.21-.97-2.18-2.18-2.18-1.2 0-2.18.97-2.18 2.18a2.18 2.18 0 0 0 2.18 2.181zm-5.34-8.55a2.19 2.19 0 0 0 2.192-2.181 2.185 2.185 0 1 0-2.192 2.182zm-6.218 3.819v-3.46h-12.992v3.46h4.67c-.87 9.55-8.92 17.05-18.689 17.05-9.77 0-17.82-7.5-18.69-17.05h4.67v-3.46h-12.98v3.46h4.83c.891 11.46 10.49 20.522 22.17 20.522 11.68 0 21.28-9.063 22.171-20.522h4.84zm-60.242-3.819a2.184 2.184 0 1 0-2.189-2.182c0 1.203.98 2.183 2.19 2.183zm35.69-13.312c-4.72 0-8.57 3.84-8.57 8.573 0 4.718 3.85 8.558 8.57 8.558v-3.46c-2.82 0-5.11-2.29-5.11-5.099a5.113 5.113 0 0 1 5.11-5.111v-3.46zM183.826 99.08c1.2 0 2.18-.971 2.18-2.182 0-1.21-.98-2.18-2.18-2.18-1.209 0-2.18.97-2.18 2.18 0 1.21.971 2.181 2.18 2.181zm-5.339-8.55c1.21 0 2.178-.98 2.178-2.182a2.18 2.18 0 0 0-4.36 0 2.18 2.18 0 0 0 2.182 2.181zM103.648 168.186l-1.03.47 12.351 57.297H19.65l12.353-57.297-1.032-.47c-13.722-6.234-13.719-19.012-13.476-22.302l19.705-8.392c8.785 4.395 19.18 6.716 30.11 6.716 10.931 0 21.324-2.321 30.11-6.716l19.701 8.393c.247 3.294.246 16.067-13.473 22.302zm-74.87 2.074l-11.312 52.475c-12.83-28.935-4.46-51.761.905-61.86 2.1 3.48 5.363 6.864 10.408 9.385zm87.472-9.384c5.364 10.098 13.73 32.924.904 61.857L105.84 170.26c5.046-2.52 8.306-5.905 10.41-9.384zm-25.067 25.028a3.203 3.203 0 1 0-6.405-.001 3.203 3.203 0 0 0 6.405 0zm-3.217-6.851a6.798 6.798 0 0 1 5.79 3.191l3.111-1.957c-1.876-2.948-5.174-4.905-8.9-4.905-5.952 0-10.776 4.555-10.776 10.506 0 5.952 4.824 10.51 10.775 10.51 3.727 0 7.025-1.93 8.901-4.904l-3.11-1.933a6.86 6.86 0 0 1-5.79 3.192c-3.78 0-6.837-3.056-6.837-6.864a6.831 6.831 0 0 1 6.836-6.837zm-20.649 17.344c4.153.08 7.691-2.786 7.611-6.272 0-3.27-2.493-5.254-5.575-6.032l-3.217-.831c-3.539-1.018-1.957-4.208 1.181-4.208 1.876 0 3.456.537 4.743 1.58l2.118-3.001c-1.823-1.42-4.263-2.25-6.86-2.25-3.78-.083-7.158 2.599-7.078 5.816 0 2.813 2.01 4.798 4.931 5.575l3.431.886c4.128 1.126 2.44 5.12-1.285 5.12-2.118 0-3.994-.751-5.28-2.012l-2.147 3.03c1.931 1.633 4.558 2.599 7.427 2.599zm-9.333-12.683v-8.077l-2.739 2.742a10.503 10.503 0 0 0-7.335-2.996c-5.953 0-10.779 4.554-10.779 10.505 0 5.952 4.826 10.51 10.78 10.51 3.723 0 7.02-1.931 8.897-4.904L53.7 189.56a6.863 6.863 0 0 1-5.79 3.192c-3.782 0-6.836-3.056-6.836-6.864a6.83 6.83 0 0 1 6.836-6.837c1.843 0 3.52.726 4.75 1.912l-2.733 2.73 8.057.02zM123.7 72.661c0 25.57-20.685 46.756-47.706 50.545 1 9.143 7.919 12.485 17.027 13.211-7.694 3.263-16.494 4.976-25.711 4.976-9.22 0-18.027-1.716-25.725-4.982 9.012-.742 16.016-4.125 17.038-13.206-27.018-3.79-47.701-24.976-47.701-50.544a47.89 47.89 0 0 1 .196-4.11v-.005c1.969.178 4.772.353 8.176.353 2.254 0 4.772-.08 7.476-.287-2.791 2.224-4.593 5.288-4.593 9.267 0 12.402 9.923 18.892 19.729 18.894h.002c5.132 0 9.927-1.67 13.503-4.705 3.858-3.273 5.969-7.865 6.18-13.3 1.565-.703 3.602-1.098 5.719-1.098 2.303 0 4.262.448 5.703 1.093.46 11.827 10.136 18.01 19.703 18.01 9.803 0 19.729-6.489 19.729-18.894 0-9.48-10.222-13.797-19.722-13.797-8.777 0-18.165 3.684-19.55 11.713-1.704-.603-3.711-.94-5.863-.94-2.114 0-4.125.335-5.858.952-1.09-6.345-7.178-9.97-14.012-11.219 11.516-3.795 23.405-10.736 32.385-23.186 7.403 8.797 21.328 26.948 43.705 27.476.047.573.083 1.147.112 1.724.032.685.058 1.37.058 2.06zm-22.872 30.96a1.712 1.712 0 1 0-1.712-1.71c0 .942.767 1.71 1.712 1.71zm-4.186 6.707a1.71 1.71 0 0 0 1.709-1.713 1.71 1.71 0 1 0-3.42 0 1.71 1.71 0 0 0 1.71 1.713zm-4.185-6.708a1.712 1.712 0 0 0 0-3.423 1.712 1.712 0 0 0 0 3.423zm-25.147 8.342c5.165 0 9.497-2.786 10.077-6.483l-2.782-.433c-.36 2.3-3.564 4.1-7.295 4.1-3.73 0-6.933-1.8-7.295-4.1l-2.78.434c.579 3.696 4.91 6.482 10.075 6.482zm1.236-24.739a6.609 6.609 0 0 0-6.604 6.601 6.611 6.611 0 0 0 6.604 6.605v-2.816a3.792 3.792 0 0 1-3.79-3.789 3.791 3.791 0 0 1 3.79-3.787v-2.814zM42.164 103.62a1.71 1.71 0 1 0-.001-3.42 1.71 1.71 0 0 0 0 3.42zm-4.187 6.708a1.71 1.71 0 0 0 1.712-1.713 1.71 1.71 0 1 0-3.421 0c0 .946.766 1.713 1.709 1.713zm-4.185-6.708a1.712 1.712 0 1 0 0-3.423 1.712 1.712 0 0 0 0 3.423zm8.112-9.66c-8.147 0-16.917-5.033-16.917-16.08 0-7.547 8.766-10.986 16.912-10.986 8.147 0 16.918 3.44 16.918 10.985 0 4.976-1.809 9.141-5.229 12.045-3.066 2.602-7.215 4.036-11.682 4.036h-.002zm-9.272-16.007H29.82c0 6.662 5.42 12.084 12.084 12.084 6.663 0 12.083-5.422 12.083-12.084h-2.814c0 5.11-4.159 9.27-9.269 9.27-5.113 0-9.27-4.16-9.27-9.27zM92.715 93.96c-8.146 0-16.913-5.032-16.913-16.08 0-7.547 8.77-10.986 16.918-10.986 8.145 0 16.912 3.44 16.912 10.985 0 11.05-8.771 16.081-16.917 16.081zm-9.268-16.007h-2.813c0 6.662 5.419 12.084 12.084 12.084 6.663 0 12.083-5.422 12.083-12.084h-2.815c0 5.11-4.158 9.27-9.268 9.27-5.113 0-9.271-4.16-9.271-9.27zM80.245 5.018c44.523-14.846 82.85 105.707 25.345 108.763 12.787-9.908 20.925-24.66 20.925-41.12 0-1.221-.058-2.497-.18-4.01l-.203-2.528-2.535-.058c-19.93-.471-32.74-15.831-40.394-25.01-.427-.512-.835-1-1.226-1.465l-2.324-2.76-2.111 2.926c-16.526 22.909-43.588 26.33-58.25 26.33-3.416 0-6.193-.186-7.92-.342l-2.811-.255-.247 2.809a50.274 50.274 0 0 0-.21 4.364c0 16.46 8.138 31.21 20.925 41.118C8.273 112.675-.001 96.268-.001 76.44 0 44.49 15.934 16.955 38.914 4.29c13.677-6.77 27.095-4.757 41.332.729z"/></g></svg><svg viewBox="0 0 21 21" id="twitter" xmlns="http://www.w3.org/2000/svg"><title>icon-twitter</title><path d="M17.88 4.371a3.772 3.772 0 0 0 1.622-2.094 7.28 7.28 0 0 1-2.345.919A3.639 3.639 0 0 0 14.462 2c-2.04 0-3.692 1.695-3.692 3.786 0 .297.03.586.094.863-3.068-.159-5.788-1.664-7.611-3.957a3.85 3.85 0 0 0-.5 1.905c0 1.313.652 2.472 1.643 3.152a3.636 3.636 0 0 1-1.673-.473v.046c0 1.836 1.272 3.366 2.963 3.713a3.53 3.53 0 0 1-.974.133c-.238 0-.47-.022-.694-.067.47 1.504 1.833 2.6 3.45 2.63A7.293 7.293 0 0 1 2 15.298 10.272 10.272 0 0 0 7.66 17c6.794 0 10.507-5.77 10.507-10.774 0-.165-.002-.328-.01-.49A7.587 7.587 0 0 0 20 3.776a7.232 7.232 0 0 1-2.12.595z" fill="#BBC9D3" fill-rule="evenodd"/></svg><svg viewBox="0 0 21 21" id="vk" xmlns="http://www.w3.org/2000/svg"><title>icon-vk</title><path d="M11.53 15.954s.379-.039.573-.23c.178-.175.172-.507.172-.507s-.024-1.545.758-1.773c.77-.225 1.759 1.494 2.809 2.155.793.5 1.394.39 1.394.39l2.806-.035s1.466-.083.77-1.142c-.057-.087-.405-.784-2.084-2.215-1.76-1.499-1.523-1.256.595-3.849 1.29-1.579 1.805-2.542 1.644-2.954-.153-.395-1.102-.29-1.102-.29l-3.157.018s-.235-.03-.408.066c-.17.093-.28.311-.28.311s-.499 1.221-1.165 2.26c-1.406 2.192-1.968 2.308-2.198 2.173-.536-.318-.402-1.275-.402-1.955 0-2.125.351-3.01-.683-3.24-.343-.076-.596-.126-1.474-.135-1.127-.01-2.08.004-2.62.246-.36.162-.637.522-.467.543.208.025.68.117.931.43.324.404.312 1.312.312 1.312s.186 2.5-.434 2.81c-.425.214-1.009-.22-2.263-2.21A17.854 17.854 0 0 1 4.43 5.99s-.093-.21-.26-.324c-.203-.136-.485-.179-.485-.179l-3 .018s-.451.011-.617.192c-.147.159-.011.49-.011.49s2.349 5.046 5.01 7.59c2.439 2.33 5.208 2.178 5.208 2.178h1.255z" fill="#BBC9D3" fill-rule="evenodd"/></svg><svg viewBox="0 0 21 21" id="youtube" xmlns="http://www.w3.org/2000/svg"><title>icon-youtube</title><path d="M20 12.81V6.19S20 3 16.726 3H4.273S1 3 1 6.19v6.62S1 16 4.273 16h12.453S20 16 20 12.81m-5.811-3.3l-6.22 3.559v-7.12l6.22 3.56" fill="#BBC9D3" fill-rule="evenodd"/></svg></defs></svg>