<?xml version="1.0" encoding="UTF-8"?><svg xmlns="http://www.w3.org/2000/svg" xmlns:xlink="http://www.w3.org/1999/xlink"><defs><svg viewBox="0 0 115 78" id="cs" xmlns="http://www.w3.org/2000/svg"><defs><circle id="aa" cx="39" cy="39" r="39"/></defs><g fill-rule="evenodd"><path d="M11.352 40.938l-4.16-5.72a1 1 0 011.617-1.177l3.78 5.197 1.176-1.617c3.573-4.914 10.453-6 15.366-2.427a11 11 0 013.175 3.608c2.858-5.33 9.49-7.355 14.84-4.522a11 11 0 014.548 4.522c2.882-5.266 9.47-7.254 14.794-4.436a11 11 0 013.748 3.25l1.18 1.623 3.782-5.198a1 1 0 011.618 1.177l-4.163 5.72 4.163 5.721a1 1 0 01-1.618 1.177l-3.781-5.198-1.181 1.623a11 11 0 01-3.748 3.25c-5.323 2.818-11.912.83-14.794-4.437a11 11 0 01-4.547 4.522c-5.352 2.833-11.983.808-14.84-4.522a11 11 0 01-3.176 3.608c-4.913 3.574-11.793 2.487-15.366-2.426l-1.177-1.617-3.78 5.196a1 1 0 11-1.617-1.176l4.16-5.72zm22.087 0l.607 1.148a9 9 0 0015.908 0l.607-1.148-.607-1.147a9 9 0 00-15.908 0l-.607 1.147zm36.74 0l-1.56-2.146a9 9 0 00-15.232 1.084l-.563 1.062.563 1.062a9 9 0 0015.231 1.084l1.562-2.146zm-39.003 0l-.561-1.059a9 9 0 00-15.233-1.082l-1.557 2.141 1.557 2.142a9 9 0 0015.233-1.083l.56-1.059zM41 68v8h13a1 1 0 010 2H26a1 1 0 010-2h13v-8H3.404C1.524 68 0 66.21 0 64V18c0-2.21 1.524-4 3.404-4h73.192C78.476 14 80 15.79 80 18v46c0 2.21-1.524 4-3.404 4H41zM3.689 16C2.756 16 2 16.895 2 18v46c0 1.105.756 2 1.689 2H76.31c.933 0 1.689-.895 1.689-2V18c0-1.105-.756-2-1.689-2H3.69z"/><g transform="translate(37)"><mask id="ab" fill="#fff"><use xlink:href="#aa"/></mask><use fill="#07C39F" xlink:href="#aa"/><path d="M-30 34.618a.999.999 0 011.809-.577l3.78 5.197 1.176-1.617c3.573-4.914 10.453-6 15.366-2.427a11 11 0 013.175 3.608c2.858-5.33 9.49-7.355 14.84-4.522a11 11 0 014.548 4.522c2.882-5.266 9.47-7.254 14.794-4.436a11 11 0 013.748 3.25l1.18 1.623 3.782-5.198a1 1 0 011.618 1.177l-4.163 5.72 4.163 5.721a1 1 0 01-1.618 1.177l-3.781-5.198-1.181 1.623a11 11 0 01-3.748 3.25c-5.323 2.818-11.912.83-14.794-4.437a11 11 0 01-4.547 4.522c-5.352 2.833-11.983.808-14.84-4.522a11 11 0 01-3.176 3.608c-4.913 3.574-11.793 2.487-15.366-2.426l-1.177-1.617-3.78 5.196A1 1 0 01-30 47.258V64c0 1.105.756 2 1.689 2H44.31c.933 0 1.689-.895 1.689-2V18c0-1.105-.756-2-1.689-2H-28.31c-.933 0-1.689.895-1.689 2v16.618zm0 .024v12.593a.995.995 0 01.191-.576l4.16-5.72-4.16-5.721a.995.995 0 01-.191-.576zm26.439 6.296l.607 1.148a9 9 0 0015.908 0l.607-1.148-.607-1.147a9 9 0 00-15.908 0l-.607 1.147zm36.74 0l-1.56-2.146a9 9 0 00-15.232 1.084l-.563 1.062.563 1.062a9 9 0 0015.231 1.084l1.562-2.146zm-39.003 0l-.561-1.059a9 9 0 00-15.233-1.082l-1.557 2.141 1.557 2.142a9 9 0 0015.233-1.083l.56-1.059zM-28.596 14h73.192C46.476 14 48 15.79 48 18v46c0 2.21-1.524 4-3.404 4h-73.192C-30.476 68-32 66.21-32 64V18c0-2.21 1.524-4 3.404-4z" fill="#FFF" mask="url(#ab)"/></g></g></svg><svg viewBox="0 0 115 78" id="ds" xmlns="http://www.w3.org/2000/svg"><defs><circle id="ba" cx="76" cy="39" r="39"/></defs><g fill-rule="evenodd"><path d="M2 65c0 5.172 18.216 10 40.5 10S83 70.172 83 65V53.787C77.543 58.724 61.526 62 42.5 62S7.457 58.724 2 53.787V65zm-2 0V22c0-6.979 18.944-12 42.5-12S85 15.021 85 22v43c0 6.979-18.944 12-42.5 12S0 71.979 0 65zm2-15c0 5.172 18.216 10 40.5 10S83 55.172 83 50V39.787C77.543 44.724 61.526 48 42.5 48S7.457 44.724 2 39.787V50zm0-14c0 5.172 18.216 10 40.5 10S83 41.172 83 36V25.787C77.543 30.724 61.526 34 42.5 34S7.457 30.724 2 25.787V36zm40.5-4C64.784 32 83 27.172 83 22S64.784 12 42.5 12 2 16.828 2 22s18.216 10 40.5 10z" fill-rule="nonzero"/><mask id="bb" fill="#fff"><use xlink:href="#ba"/></mask><use fill="#07C39F" xlink:href="#ba"/><path d="M2 65c0 5.172 18.216 10 40.5 10S83 70.172 83 65V53.787C77.543 58.724 61.526 62 42.5 62S7.457 58.724 2 53.787V65zm-2 0V22c0-6.979 18.944-12 42.5-12S85 15.021 85 22v43c0 6.979-18.944 12-42.5 12S0 71.979 0 65zm2-15c0 5.172 18.216 10 40.5 10S83 55.172 83 50V39.787C77.543 44.724 61.526 48 42.5 48S7.457 44.724 2 39.787V50zm0-14c0 5.172 18.216 10 40.5 10S83 41.172 83 36V25.787C77.543 30.724 61.526 34 42.5 34S7.457 30.724 2 25.787V36zm40.5-4C64.784 32 83 27.172 83 22S64.784 12 42.5 12 2 16.828 2 22s18.216 10 40.5 10z" fill="#FFF" fill-rule="nonzero" mask="url(#bb)"/></g></svg><svg viewBox="0 0 92 70" id="logo-csclub" xmlns="http://www.w3.org/2000/svg"><g fill="none" fill-rule="evenodd"><path d="M54.335 38.023h4.318c-.055.428-.07.86-.044 1.292h-.211v-.066a4.166 4.166 0 000-.68 2.37 2.37 0 00-.733-.152H56.1v2.277h1.498c.103.013.208.013.311 0a.177.177 0 00.067-.11 1.553 1.553 0 000-.273v-.263h.2v1.85h-.2v-.252a3.183 3.183 0 000-.35.19.19 0 00-.078-.098.87.87 0 00-.31-.066h-1.444v2.44h2.065c.168-.016.332-.056.489-.12a4.57 4.57 0 00.122-.448c.054-.23.088-.384.1-.439h.2a5.641 5.641 0 00-.078.625v.765H54.99v-.141l.289-.153c.047-.242.066-.489.055-.734V38.81a1.553 1.553 0 000-.274.337.337 0 000-.12l-.088-.055h-.533v-.339h-.378zm-3.185 0h2.419v.208h-.455a.562.562 0 00-.233.066.295.295 0 00-.1.219c-.01.156-.01.314 0 .47v3.7a5.578 5.578 0 000 .613c0 .066.02.13.055.187a.3.3 0 00.156.076c.188.015.378.015.566 0v.207h-2.42v-.207h.522a.39.39 0 00.178-.066.323.323 0 00.078-.164 4.11 4.11 0 000-.58v-3.536a5.99 5.99 0 000-.613.35.35 0 00-.057-.186.3.3 0 00-.155-.077 3.745 3.745 0 00-.565 0v-.317h.01zm-.7 5.188l-.155.384a4.408 4.408 0 01-1.998.47 3.571 3.571 0 01-2.476-.854 2.862 2.862 0 01-.954-2.188 2.906 2.906 0 01.422-1.697 2.921 2.921 0 011.254-1.095c.552-.241 1.15-.36 1.754-.35.373.001.745.042 1.11.12.312.065.617.16.91.285-.102.375-.161.761-.177 1.15h-.2v-.712a2.314 2.314 0 00-.745-.373 3.072 3.072 0 00-.91-.13 2.66 2.66 0 00-1.276.305 2.117 2.117 0 00-.877.876c-.22.435-.326.916-.31 1.401-.01.509.116 1.011.366 1.457.234.407.58.74.999.962.46.234.971.35 1.487.34.243-.001.485-.027.722-.076a2.544 2.544 0 001.021-.427l.078.087-.044.065zm-10.312-.733h.212c0 .22.018.44.055.657.048.106.13.195.233.251.156.102.329.176.51.22.21.056.427.086.644.087.276.003.548-.053.8-.164.23-.102.423-.27.554-.482.134-.21.203-.452.2-.7.004-.166-.03-.33-.1-.482a.802.802 0 00-.266-.328 1.177 1.177 0 00-.388-.186 6.837 6.837 0 00-.655-.132l-.655-.12a2.309 2.309 0 01-.477-.164 1.258 1.258 0 01-.4-.285c-.112-.125-.2-.27-.255-.427a1.526 1.526 0 01-.1-.536 1.64 1.64 0 01.543-1.27c.408-.35.937-.53 1.476-.503.27.001.537.03.8.087.273.055.538.143.788.263-.072.36-.11.727-.11 1.094h-.223v-.624c0-.076-.133-.197-.388-.317a1.699 1.699 0 00-.8-.197c-.229 0-.456.048-.665.142a.983.983 0 00-.478.449 1.332 1.332 0 00-.155.624.94.94 0 00.1.438c.06.117.147.218.256.295.106.076.227.131.354.165.133 0 .389.076.744.13.38.037.753.121 1.11.253.226.098.415.262.544.47.14.236.21.505.199.778.02.6-.256 1.172-.743 1.532a2.72 2.72 0 01-1.776.591 3.581 3.581 0 01-1.532-.306c0-.176 0-.58.067-1.227l-.023-.076zm44.71-14.559h2.92a2.052 2.052 0 011.443.384c.245.24.38.567.378.908-.004.243-.068.48-.19.69a1.642 1.642 0 01-.544.58 2.72 2.72 0 01-.999.36l.422.56.6.777.621.821c.123.181.269.346.433.492.051.031.108.053.167.066h.222v.197h-1.133a30.58 30.58 0 01-.92-1.215 28.56 28.56 0 00-1.489-1.85v-.132h.345c.4.015.792-.109 1.11-.35.28-.242.431-.597.41-.963a.978.978 0 00-.366-.832 1.625 1.625 0 00-.999-.284 2.795 2.795 0 00-.832.12 8.219 8.219 0 00-.067 1.565v2.737c-.01.204-.01.409 0 .613a.39.39 0 00.067.186c.043.04.097.067.156.076.184.016.37.016.554 0v.209h-2.419v-.209h.521a.367.367 0 00.178-.065.31.31 0 00.078-.164 3.679 3.679 0 000-.58v-4.138c-.001-.066-.02-.13-.056-.186a.298.298 0 00-.155-.076 3.558 3.558 0 00-.567 0v-.209l.111-.088zm-5.361 0h4.318a6.95 6.95 0 00-.156 1.248h-.21v-.065c.02-.226.02-.453 0-.679a2.344 2.344 0 00-.733-.153h-1.565v2.31h1.498c.104.013.208.013.311 0a.176.176 0 00.067-.11 1.553 1.553 0 000-.273v-.263h.2v1.849h-.189v-.25a3.183 3.183 0 000-.351.185.185 0 00-.078-.1.873.873 0 00-.31-.064h-1.443v2.45h2.064c.168-.015.333-.055.488-.119.05-.147.09-.297.123-.45.055-.229.088-.382.1-.437h.199a5.798 5.798 0 00-.077.624v.766h-4.052v-.207l.289-.154a3.03 3.03 0 00.055-.733V28.686c.009-.09.009-.183 0-.274a.304.304 0 000-.12l-.088-.055h-.533v-.207l-.278-.11zm-.732 0v1.303h-.166v-.383a3.599 3.599 0 000-.372.176.176 0 00-.067-.098.746.746 0 00-.278 0h-1.32v4.991c.001.065.02.13.055.186a.325.325 0 00.155.077c.188.015.378.015.567 0v.207h-2.41v-.207h.523a.384.384 0 00.177-.066.336.336 0 00.078-.164 3.33 3.33 0 000-.58v-4.379h-1.477c-.188 0-.3 0-.322.088-.05.144-.075.296-.078.448l-.044.296h-.2v-1.302h4.896l-.09-.045zm-11.91 0h2.42v.252h-.456a.574.574 0 00-.233.066.294.294 0 00-.1.219c-.01.157-.01.314 0 .47v3.241c.013.177.055.35.123.514a.954.954 0 00.277.362c.158.118.34.204.533.252.257.068.522.101.788.098.293 0 .586-.044.865-.132.235-.065.446-.195.611-.372.15-.182.246-.402.277-.635.05-.362.073-.728.067-1.094v-2.157a2.807 2.807 0 000-.657.263.263 0 00-.144-.13 2.371 2.371 0 00-.6 0v-.198h1.998v.153h-.521a.368.368 0 00-.167.066.3.3 0 00-.066.143 3.88 3.88 0 000 .547v2.19c.006.398-.012.796-.056 1.193a1.568 1.568 0 01-.266.721 1.94 1.94 0 01-.488.471c-.221.14-.466.24-.722.296-.299.066-.604.1-.91.098a3.853 3.853 0 01-1.043-.132c-.258-.064-.5-.18-.712-.339a1.343 1.343 0 01-.376-.448 1.66 1.66 0 01-.145-.548V28.434a.373.373 0 00-.055-.186.3.3 0 00-.255-.077 3.755 3.755 0 00-.567 0v-.207l-.078-.045zm-5.317 0h2.886c.33-.007.658.034.977.12.254.078.48.231.643.439.173.223.263.497.255.777 0 .25-.061.499-.177.722-.121.231-.291.433-.5.592-.192.152-.41.27-.643.35a2.16 2.16 0 01-.678.11c-.197-.002-.393-.02-.588-.056l-.067-.25c.168.038.34.06.512.064.335.02.662-.114.887-.36.227-.254.346-.583.333-.92a1.193 1.193 0 00-.344-.897 1.459 1.459 0 00-1.054-.34 2.88 2.88 0 00-.844.142v4.291a5.193 5.193 0 000 .613c.002.066.021.13.056.186.043.04.097.066.156.077.188.016.376.016.565 0v.208h-2.42v-.208h.522a.4.4 0 00.178-.066.321.321 0 00.077-.164 3.883 3.883 0 000-.58v-3.678c.01-.204.01-.41 0-.613 0-.066-.02-.13-.055-.186a.292.292 0 00-.156-.076 3.548 3.548 0 00-.565 0v-.209l.044-.088zm-.7 0v.252a2.932 2.932 0 00-.577 0 .254.254 0 00-.155.11.705.705 0 000 .306V32.713c-.026.204-.026.41 0 .614.03.057.082.101.145.12.198.023.4.023.598 0v.208H58.465v-.01c.19.017.385.017.577 0a.255.255 0 00.155-.11.702.702 0 000-.306v-4.455l-1.388 3.01c-.362.73-.68 1.437-.954 2.123h-.167a21.876 21.876 0 00-.388-.853l-2.02-4.139V32.77a2.3 2.3 0 000 .613c.031.056.082.099.144.12.199.024.4.024.599 0v.197h-1.998v-.197c.192.018.386.018.577 0a.273.273 0 00.156-.11.656.656 0 000-.295v-4.094a2.698 2.698 0 000-.623.25.25 0 00-.144-.132 2.385 2.385 0 00-.555-.077v-.218h1.598c.237.54.462 1.024.677 1.455l1.598 3.284 1.443-2.967c.393-.802.655-1.379.789-1.729h1.631l.034-.077zm-13.863 2.704c.005.371.06.74.166 1.095.098.365.268.707.5 1.007.204.263.466.476.766.624.692.303 1.488.27 2.153-.088.355-.213.629-.536.777-.919.184-.445.274-.922.266-1.401a3.658 3.658 0 00-.3-1.522 2.025 2.025 0 00-.865-.985 2.552 2.552 0 00-1.254-.263c-.609-.031-1.2.2-1.621.635a2.646 2.646 0 00-.588 1.84v-.023zm-.877.274a3.652 3.652 0 01.178-1.16c.13-.373.342-.713.62-.997.297-.309.656-.552 1.055-.71.445-.176.92-.261 1.4-.252a3.282 3.282 0 012.285.776c.585.548.898 1.32.855 2.113a3.404 3.404 0 01-.422 1.686 2.9 2.9 0 01-1.22 1.171 3.653 3.653 0 01-1.754.416 3.466 3.466 0 01-1.265-.23 2.607 2.607 0 01-.989-.679 2.74 2.74 0 01-.588-1.094 3.676 3.676 0 01-.177-1.095l.022.055zm-.655 2.19l-.155.382a4.405 4.405 0 01-1.998.471 3.571 3.571 0 01-2.431-.843 2.85 2.85 0 01-.955-2.19 2.904 2.904 0 01.477-1.652 2.921 2.921 0 011.255-1.095c.552-.24 1.15-.36 1.754-.35.373.002.745.042 1.11.12.312.065.617.16.91.286-.102.375-.161.76-.177 1.149h-.2v-.712a2.306 2.306 0 00-.745-.372 3.076 3.076 0 00-.91-.131c-.444-.006-.884.1-1.276.306-.375.199-.68.504-.877.876-.22.435-.326.916-.31 1.4a2.86 2.86 0 00.366 1.456c.234.408.58.742.998.964.46.234.971.35 1.488.34.242.001.484-.02.722-.067.198-.036.392-.095.576-.174.156-.07.306-.155.445-.252l.067.087h-.134zM60.007 53.665c.218.05.442.077.666.077.325.017.65-.047.944-.186.22-.123.394-.31.5-.537.11-.229.167-.48.166-.733.018-.354-.105-.7-.345-.963a2.143 2.143 0 00-1.487-.362h-.455v2.693l.011.011zm0-3.032h.478c.43.044.863-.064 1.22-.306.233-.22.36-.527.345-.843a1.024 1.024 0 00-.112-.515.818.818 0 00-.41-.339 2 2 0 00-.766-.12 3.395 3.395 0 00-.688.065V50.622l-.067.011zm-1.52-2.19v-.208H61.238c.304-.01.608.027.9.11.213.075.4.213.532.394.134.189.204.416.2.646a1.29 1.29 0 01-.333.854 1.965 1.965 0 01-1.11.57c.255.018.507.058.754.12.185.046.359.128.512.24a1.1 1.1 0 01.343.428c.085.19.127.395.123.601-.004.187-.033.37-.089.548a1.611 1.611 0 01-.312.558 2.147 2.147 0 01-.543.47 2.463 2.463 0 01-.655.285 3.386 3.386 0 01-.832.087H58.808v-.251c.1-.04.192-.091.278-.153.05-.242.073-.488.066-.734V48.936c.006-.09.006-.182 0-.273a.208.208 0 000-.121l-.1-.054h-.532l-.034-.044zm-6.971-.24h2.42v.208h-.455a.566.566 0 00-.233.065.295.295 0 00-.1.22 4.181 4.181 0 000 .47v3.24c.013.177.054.351.121.515.062.14.158.265.278.361.159.12.34.204.533.252.256.068.522.101.788.099.294 0 .585-.045.866-.132.234-.066.445-.195.61-.372.15-.183.246-.403.278-.636.05-.362.072-.727.066-1.093v-2.146a2.904 2.904 0 000-.657.269.269 0 00-.144-.132c-.2-.024-.4-.024-.6 0v-.196h1.999v.196h-.522a.374.374 0 00-.167.066.3.3 0 00-.077.143 3.892 3.892 0 000 .547v2.189c.006.398-.013.797-.055 1.193a1.565 1.565 0 01-.267.722 1.933 1.933 0 01-.489.472c-.22.14-.465.24-.721.295-.299.067-.604.1-.91.099a3.861 3.861 0 01-1.044-.132 1.99 1.99 0 01-.71-.34 1.333 1.333 0 01-.377-.448 1.647 1.647 0 01-.145-.546v-3.996a.385.385 0 00-.055-.187.318.318 0 00-.155-.077 3.755 3.755 0 00-.567 0v-.207l-.166-.055zm-5.472 0h2.419v.208h-.455a.566.566 0 00-.233.065.295.295 0 00-.1.22c-.01.157-.01.314 0 .47V53.654h2.231c.168-.017.332-.058.489-.12.055-.157.1-.318.133-.481.055-.252.089-.395.089-.439h.221c0 .11 0 .328-.066.646-.067.318 0 .58 0 .778H46.51v-.143l.289-.164c.017-.18.017-.358 0-.537v-4.476c0-.067-.02-.13-.056-.187a.304.304 0 00-.155-.076 3.608 3.608 0 00-.556 0v-.209l.012-.043zm-.611 5.145l-.155.383a4.39 4.39 0 01-1.998.47 3.575 3.575 0 01-2.43-.853 2.845 2.845 0 01-.955-2.19 2.906 2.906 0 01.476-1.652 2.914 2.914 0 011.255-1.095 4.195 4.195 0 011.754-.35c.373.002.745.041 1.11.12.312.065.617.16.91.284a5.215 5.215 0 00-.178 1.15h-.2v-.712a2.342 2.342 0 00-.743-.372 3.131 3.131 0 00-.91-.132c-.446-.004-.884.1-1.277.307-.374.2-.68.505-.877.876-.22.435-.326.917-.31 1.402-.01.508.116 1.01.366 1.455.235.408.58.741.999.963.459.235.97.35 1.487.34.242-.002.484-.028.721-.077.199-.037.392-.096.578-.175.156-.07.305-.154.444-.252l.066.087-.133.023zm28.149-15.281H77.9a6.87 6.87 0 00-.156 1.248h-.21v-.066a4.156 4.156 0 000-.678 2.349 2.349 0 00-.733-.154h-1.564v2.277H76.734c.104.013.208.013.311 0a.175.175 0 00.067-.11 1.553 1.553 0 000-.273v-.263h.2v1.85h-.2v-.252a3.183 3.183 0 000-.35.186.186 0 00-.078-.098.87.87 0 00-.31-.066H75.28v2.44h2.064a1.73 1.73 0 00.489-.12c.048-.147.089-.297.121-.448.056-.23.09-.384.1-.438h.2a5.798 5.798 0 00-.077.624v.766h-4.052v-.143l.288-.153c.049-.241.067-.488.057-.733V38.81c.008-.09.008-.183 0-.274a.337.337 0 000-.12l-.323-.055h-.532v-.339l-.034.044zm-.766 5.145l-.155.383a4.399 4.399 0 01-1.998.47 3.573 3.573 0 01-2.475-.853 2.864 2.864 0 01-.955-2.19c-.014-.59.153-1.17.477-1.664a2.92 2.92 0 011.255-1.094c.552-.241 1.15-.36 1.754-.35a5.389 5.389 0 012.02.405c-.102.375-.162.76-.178 1.149h-.2v-.711a2.314 2.314 0 00-.744-.373 3.07 3.07 0 00-.91-.131c-.445-.007-.884.1-1.276.306-.375.2-.68.504-.877.876-.22.434-.326.916-.311 1.401-.01.509.117 1.01.366 1.456.235.408.581.742 1 .964.459.233.97.35 1.487.339.242-.001.484-.027.721-.077.199-.037.392-.096.578-.175.155-.07.304-.154.444-.252l.066.088-.089.033zm-13.009.733v-.23h.41a.315.315 0 00.2-.088.4.4 0 00.056-.185V38.789a.517.517 0 00-.078-.317.34.34 0 00-.21-.131 2.724 2.724 0 00-.455 0v-.198H61.195l1.343 1.72 1.976 2.451c.237.299.481.58.733.842V38.581a.302.302 0 00-.078-.174.416.416 0 00-.2-.066h-.4v-.198h.977l.833-.12v.197a2.822 2.822 0 00-.433 0 .267.267 0 00-.19.087.454.454 0 000 .187v5.44a7.033 7.033 0 00-.732-.175l-.299-.35-.9-1.095-2.863-3.525V42.665a5.182 5.182 0 000 .59.325.325 0 000 .142.32.32 0 00.144.077c.155.017.311.017.467 0v.198a5.915 5.915 0 00-.712 0h-1.11l.056.273zM18.65 28.708a9.88 9.88 0 00-7.593-2.627c-6.271.646-10.645 7.772-9.779 15.893.866 8.123 6.66 14.231 12.92 13.541a8.203 8.203 0 003.552-1.15 4.637 4.637 0 01-2.608.614c-4.707.131-8.725-6.13-9.535-13.781-.81-7.652 1.11-14.286 5.916-14.471a10.19 10.19 0 017.126 1.98" fill="#010101"/><path d="M18.65 28.708a9.88 9.88 0 00-7.593-2.627c-6.271.646-10.645 7.772-9.779 15.893.866 8.123 6.66 14.231 12.92 13.541a8.203 8.203 0 003.552-1.15 4.637 4.637 0 01-2.608.614c-4.707.131-8.725-6.13-9.535-13.781-.81-7.652 1.11-14.286 5.916-14.471a10.19 10.19 0 017.126 1.98z" stroke="#010101" stroke-width=".5"/><path d="M23.61 26.245a12.25 12.25 0 014.44 1.094c5.118 2.354 7.77 8.188 7.071 14.657-.932 8.067-6.704 14.165-12.964 13.54a8.214 8.214 0 01-3.508-1.17c.789.455 1.697.67 2.609.612 4.706.132 8.724-6.13 9.535-13.78.621-5.857-.367-11.122-3.763-13.377a7.27 7.27 0 00-3.819-1.16c-4.296-.208-6.293-3.098-6.116-6.568.178-3.47 2.442-6.053 5.073-5.922a4.136 4.136 0 012.974 1.576 4.258 4.258 0 00-2.819-1.28c-1.997-.23-3.241 2.386-3.418 5.616-.178 3.228 1.11 6.074 4.706 6.162" fill="#010101"/><path d="M23.61 26.245a12.25 12.25 0 014.44 1.094c5.118 2.354 7.77 8.188 7.071 14.657-.932 8.067-6.704 14.165-12.964 13.54a8.214 8.214 0 01-3.508-1.17c.789.455 1.697.67 2.609.612 4.706.132 8.724-6.13 9.535-13.78.621-5.857-.367-11.122-3.763-13.377a7.27 7.27 0 00-3.819-1.16c-4.296-.208-6.293-3.098-6.116-6.568.178-3.47 2.442-6.053 5.073-5.922a4.136 4.136 0 012.974 1.576 4.258 4.258 0 00-2.819-1.28c-1.997-.23-3.241 2.386-3.418 5.616-.178 3.228 1.11 6.074 4.706 6.162z" stroke="#010101" stroke-width=".5"/></g></svg><svg viewBox="0 0 64 70" id="logo-fml239" xmlns="http://www.w3.org/2000/svg"><g fill="#1D1D1D" fill-rule="nonzero"><path d="M42.738 28.724l.077.078.539.35c.962.702 2 1.52 3.155 1.831.77.195 1.039.078 1.731-.078-.077-.078-.27-.156-.539-.428-.192-.156-.346-.273-.538-.429-.77-.623-1.5-1.13-2.54-1.324-.769-.156-1.27-.078-1.885 0zM25.886 23.466l1.116-.155-.154.272c-.154.195-.423.623-.5.857l.962-.428-.154 1.13.27-.351c.076-.078.153-.273.269-.273l.077 1.13c.192-.195.192-.273.269-.546 0-.156.154-.545.192-.623l.27.623.192.506c0 .078.077.078.077.156.077-.078.077-.078.077-.156v-.428c0-.156-.077-.428 0-.623.192.156.692.545.962.623l-.5-.857.961.273-.153-.195c-.154-.156-.424-.428-.5-.623h.692V23.7l-.192-.195c-.077-.078-.27-.156-.347-.272.27 0 .77.078 1.04 0 .153 0 .191 0 .268-.078l-.077-.078c-.269-.156-1.038-.156-1.154-.35.27-.273.154-.156.5-.351.154-.078.424-.195.5-.35-.076 0-.961.194-1.038.194-.154 0-.154-.078-.154-.078l.538-1.13-.269.079c-.346.155-.5.623-.885.506 0-.273.423-.857.27-1.052-.193.195-.193.273-.347.546-.077.155-.192.506-.423.506l-.192-.78c-.077-.155-.154-.622-.347-.622l-.077 1.246c-.076.078-.076 0-.076 0-.193 0-.847-.701-.885-.779.192.35.269.506.5.857.077.156.154.156.154.273h-.693c-.154 0-.539-.156-.615-.156.192.156.884.545.884.779l-1.462.078.539.272c.154.078.5.156.539.195l-.847.428c-.077.078-.077.04-.077.078zm2.232-1.519c.615-.155 1.116.35 1.154.857.154.623-.27 1.13-.77 1.247-.615.155-1.115-.273-1.154-.857-.077-.623.27-1.09.77-1.247zM27.348 56.455v-1.208h-5.232c1.847-1.558 3.886-3.154 4.732-5.53.077-.273.116-.584.116-.896 0-.74-.27-1.285-.808-1.675-.539-.39-1.309-.623-2.193-.623-.385 0-.808.04-1.155.195-.346.117-.654.311-.923.506-.27.234-.462.468-.577.662-.116.234-.231.507-.231.74 0 .273.038.507.192.623a.775.775 0 00.539.234c.27 0 .5-.078.616-.195.115-.116.23-.272.23-.467s-.038-.39-.077-.584c-.038-.195-.076-.35-.115-.545.115-.234.308-.35.577-.507.27-.117.539-.194.847-.194.5 0 .846.116 1.154.389.308.273.462.662.462 1.285 0 .39-.039.662-.077.896-.231 2.415-3.31 4.635-4.387 5.881v.935h6.349v.078h-.039z"/><g><path d="M41.43 50.457c0-1.09-.192-1.909-.539-2.532-.346-.584-.808-.896-1.385-.896-.538 0-1 .234-1.308.74-.308.468-.5 1.13-.5 1.948 0 .74.192 1.363.5 1.83.346.468.808.662 1.347.662.346 0 .654-.038 1-.194.308-.117.577-.35.808-.623v-.078-.234-.234c.077-.194.077-.272.077-.39zm1.462.117c0 .818-.115 1.558-.346 2.259a5.926 5.926 0 01-1.077 1.87c-.462.544-1.04.934-1.655 1.323a5.78 5.78 0 01-2.193.662l-.115-.623.615-.078c1-.311 1.732-.779 2.27-1.44.539-.624.885-1.442 1.078-2.454-.347.311-.77.545-1.116.74-.346.116-.808.233-1.27.233-.77 0-1.385-.272-1.924-.857-.538-.584-.808-1.324-.808-2.22 0-.934.308-1.752.924-2.414.615-.623 1.423-1.013 2.308-1.013 1.04 0 1.847.35 2.424 1.09.539.624.885 1.636.885 2.922zm-14.466 4.05c0 .273.077.507.23.78.116.233.308.467.578.622.269.156.577.312.885.468.346.078.769.194 1.154.194 1.039 0 1.923-.272 2.655-.817.73-.546 1.038-1.286 1.038-2.143 0-.467-.077-.817-.23-1.13-.116-.31-.347-.544-.578-.74a2.06 2.06 0 00-.77-.389c-.268-.077-.576-.116-.807-.194v-.078c.385-.078.73-.273 1-.468.27-.194.5-.35.616-.584.115-.194.27-.39.308-.623.038-.234.077-.467.077-.662s-.039-.39-.116-.662c-.077-.273-.23-.506-.385-.74-.23-.234-.5-.467-.846-.584-.346-.195-.808-.273-1.385-.273-.5 0-.885.039-1.308.195a2.77 2.77 0 00-.924.545c-.269.234-.461.467-.577.662a1.764 1.764 0 00-.192.74c0 .234.038.39.192.584.077.195.27.273.539.273.27 0 .5-.039.615-.234.116-.117.231-.272.231-.467s-.038-.39-.077-.584a6.354 6.354 0 00-.115-.546l.192-.194c.077-.078.193-.117.27-.234.077-.039.23-.078.346-.195.115-.039.346-.078.577-.078.5 0 .846.117 1.116.468.27.272.385.74.385 1.324 0 .74-.116 1.207-.385 1.597-.27.35-.731.545-1.347.545h-.577v.78h.885c.346 0 .654.038.923.116.231.078.462.234.577.39.116.194.231.389.27.623.038.233.077.506.077.74 0 .467-.039.817-.193 1.129-.077.273-.269.545-.461.74-.193.195-.385.35-.654.467-.27.117-.5.117-.808.117-.27 0-.539 0-.654-.039a.981.981 0 01-.462-.194.836.836 0 01-.308-.195l-.192-.195c.038-.078.038-.273.077-.506.038-.234.077-.39.077-.546 0-.194-.077-.311-.231-.467a.902.902 0 00-.616-.234c-.23 0-.385.078-.538.273-.077.234-.154.39-.154.623z"/></g><g><path d="M43.566 29.934c-.078-.155-.626-.775-.704-.892-.9-.89-2.229-1.395-3.558-.968 0 .426.43.775.625.891.274.194.626.426.978.62.86.271 1.681.426 2.659.349zM43.019 27.221c1.134.271 2.659.349 3.87.194 1.213-.155 2.464-.271 3.52-.775-.352-.155-1.251-.697-1.76-.853-1.407-.27-3.206.698-4.692 1.124l-.938.31zM35.863 23.114l-.43.348c-.157.078-.43.194-.509.35l1.408-.195-.078.155c-.078.156-.548.776-.508.97l.508-.427c.078-.078.352-.349.547-.349l.078 1.163c.196-.349.157-.272.274-.62.078-.155.157-.543.196-.698l.273.194c.157.155.352.775.548.775l-.078-1.124c.273 0 .547.775.86.62.078-.077 0-.155 0-.194-.156-.348-.508-.852-.508-1.046l1.134.271c-.196-.155-.978-.542-.978-.62l1.33-.503-1.252-.078c.274-.155.548-.271.86-.504l-.977-.077.352-.426c.156-.155.274-.272.274-.427l-.9.194c.157-.155.509-.542.509-.697-.274.155-.509.193-.783.426-.273.194-.351.271-.43.271-.078-.271.157-.852 0-1.124l-.508 1.163c-.156-.349-.196-.543-.352-.891-.078-.155-.078-.194-.195-.194l-.079 1.162-.352-.348c-.078-.155-.156-.349-.273-.349l.195 1.046-.977-.504.273.62c.157.194.352.427.274.543l-1.134-.155.9.504-1.056.503 1.564.272zm1.173-1.434c.626-.155 1.056.426 1.134.891.078.62-.352 1.124-.86 1.163-.626.077-1.056-.427-1.134-.892-.04-.62.39-1.123.86-1.162zM41.767 26.873c1.486-.504 2.737-1.396 3.871-2.364-.078-.078-.351-.078-.508-.078-1.76 0-3.793 1.163-4.927 2.364 0 .155-.156.194-.195.349.39.155 1.407-.117 1.76-.272z"/><path d="M62.296 19.859l-1.525-.155.196-.194c.43-.426.977-1.124 1.33-1.589.195-.271.547-.852.43-1.24-.079-.194-.196-.349-.43-.426h-.783a3.37 3.37 0 01.43-.697c.274-.504.704-1.047.704-1.59 0-.348-.195-.62-.508-.697-.548-.155-1.486.155-1.877.349l-.978.426c-2.815 1.318-5.552 3.062-8.211 4.728-.43.271-.782.348-1.173.542-1.525.698-3.207 1.395-4.614 2.287-1.252.813-2.151 1.433-2.855 2.79-.078.038-.117.038-.195.077-.118.077-.235.116-.313.155 0 0-.04 0-.04.039v-.117c.157-1.24.079-2.712-.625-3.758-.196-.349-.43-.504-.626-.698-.156-.155-.273-.271-.508-.349h-.078c-.078-.077-.157-.077-.196-.155l-2.19-.426c.274-.542 3.011-1.744 3.285-2.015l.352-.349c-.156-.193-.9-.193-1.173-.193-1.838 0-3.91.775-5.318 1.743-.782.543-.86.698-1.408 1.395l-.703-.697c-.274-.271-.509-.504-.783-.698-1.134-.89-2.463-1.588-3.91-1.86-.43-.077-.86-.155-1.251-.193h-1.29c0 .271.547.62.782.775.625.426 1.25.852 1.837 1.24.079.077.157.077.196.155.078 0 .156.077.195.155.157.077.196.193.352.348-.156 0-.352.078-.508.078-1.056.155-2.19.62-2.894 1.317l-.156.155c-.195.233-.43.66-.626 1.008-1.055 2.092-.195 5.231.704 7.362.078.155.43.892.43.97 0 .077-.078.154-.078.193l-.078.504c-.156 0-.274-.272-.352-.349-.274-.426-.508-1.046-.704-1.473-.274-.62-.625-1.162-.86-1.937-.43-1.589-.704-2.713-1.76-3.875a2.993 2.993 0 00-.704-.698c-.273-.193-.547-.348-.86-.542-1.407-.891-2.19-1.318-3.636-1.938-.978-.503-2.034-.852-3.011-1.24-.157-.077-.274-.193-.43-.27-1.252-.853-2.581-1.59-3.91-2.365-1.33-.775-4.224-2.363-5.67-2.712-.978-.194-1.682.155-1.252 1.162.157.272.352.62.509.892l.547.852c-.352 0-.86-.077-1.134.194-.078.077-.078.155-.156.271v.271l.078.194c.274.775 1.33 1.821 1.877 2.441-.509 0-1.056-.077-1.486.155-.43.272-.43.698-.157 1.124.352.543 1.134 1.163 1.682 1.589-.352.155-.978.077-1.134.62-.157.543.43.969.626 1.124.43.349.977.775 1.525 1.046.078.078.195.078.273.155.078 0 .078.078.157.078.156.077.078 0 .156.077-.508.078-1.056.194-1.408.504-.43.349-.156.969.274 1.162l2.58 1.124c-.273.155-1.524.426-1.407 1.163.078.193.196.426.43.503.782.427 2.112.543 2.933.698-.078.077-.626.426-.782.504l-.196.193c-.273.349-.352.853.157 1.047.704.27 2.229.27 3.089.193-.352.272-.978.698-1.056 1.163-.156.852 1.056.697 1.525.697.43 0 .9-.077 1.33-.155-.196.078-1.056 1.047-.274 1.395.508.272 2.033-.155 2.58-.348l.548-.194c-.078.155-.156.194-.195.271-.196.271-.43.504-.548.853-.195.62.196.89.86.775.509-.155.9-.272 1.33-.504.43-.194.782-.504 1.173-.698 0 .078-.078.194-.156.271 0 .078-.079.194-.157.272-.078.155-.195.348-.274.542-.195.504.079 1.046.704.853.782-.271 1.525-.853 2.19-1.318-.156.426-.547.891-.43 1.395.078.194.274.426.547.349.352 0 .9-.426 1.173-.62.157-.155.352-.271.509-.426.156-.194.273-.272.43-.504l.43-.504c-.156.426-.86 1.666-.43 2.093.508.542 1.681-.775 1.955-1.163.274-.426.508-.852.704-1.317.195-.698.352-1.473.508-2.209l.43.194c0 .775 0 1.317.196 2.015.195.775.508 1.317.86 1.937.196.194.235.194.235.388 0 .348.078.62.195.891.078.271.196.504.352.775l.352.775-.195.194c-.274.193-.509.426-.704.62-.274.348-.548.62-.704 1.123 0 .155-.157.62-.078.775.078.194.273.504.43.504.547 0 .977-.426 1.33-.504.077.155.195.35.351.427.157.155.43.155.626.077.352-.194.625-.504.86-.775.078 0 .196.155.274.194.274.194.43.542.782.697.508.155.704-.426.704-.775v-.426h.156c0 .155-.156.426-.156.698 0 .271.156.503.43.426.274-.078.704-.543.9-.775.273.077.508.775.781.775.626-.078.626-.426.9-.62.43.077.977.504 1.486.426.195 0 .43-.194.351-.504 0-1.046-.625-1.82-1.955-2.712.079-.155.509-.853.626-1.473l.352-1.743c.078-.078.195-.155.274-.272.273-.27.625-.775.703-1.162l.274-2.17.274-.194c.078.155.156.504.156.698 0 .271.078.503.157.775.156.852.625 1.86 1.173 2.441.273.271.547.542.977.852.548.35.978 0 .86-.697-.078-.194-.195-.504-.273-.698-.157-.348-.157-.426-.196-.542.43.697 1.056 1.317 2.23 1.86.195.155.703.426.977.194.352-.194.195-.775.078-1.047l-.274-.542.157.155c.547.504 1.486.969 2.111 1.162.352.078.548-.077.626-.348.156-.543-.274-1.163-.626-1.667.078.078.157.155.274.194.274.271 1.681.853 2.033.891.352.155.704.194.9 0 .273-.193.195-.503.078-.775-.274-.426-.274-.503-.626-.89.548.27 2.464.89 3.167.62.548-.195.274-.776 0-1.125l-.273-.27c.625 0 1.681.542 2.659 0 .625-.505-.157-1.163-.548-1.473l-.508-.349c.626 0 .86.077 1.681.077.509 0 1.134 0 1.525-.193.548-.272.43-.775.079-1.124l-1.134-.698c.273-.077.547-.077.86-.077.704-.078 1.681-.271 2.229-.543.547-.27.625-.775.156-1.123l-1.251-.62c.547-.194.782-.194 1.486-.504.508-.194 1.525-.62 1.76-1.124.078-.271-.079-.542-.196-.697-.352-.272-.9-.427-1.33-.504l-.156-.078h.078l.508-.27c.548-.272 1.134-.698 1.604-1.047.195-.194.782-.62.625-1.124l-1.173-.62.157-.077c.352-.272.625-.543.977-.853a2.37 2.37 0 00.626-.62c.156-.31.156-.814-.274-1.007zM24.72 33.46h.195c-.078.155-.156.271-.195.426-.079.194-.196.427-.274.504l.274-.93zM2.82 13.62c1.173-.194 5.905 2.558 6.804 3.139l2.307 1.395c.508.271.508.271.626.62.547 1.162 1.055 2.208 1.681 3.332-.352-.077-1.525-.504-1.877-.542-.625-.194-1.173-.427-1.838-.698-.547-.271-1.173-.504-1.681-.852-.782-.504-1.525-.892-2.229-1.512a19.784 19.784 0 01-1.603-1.51c-.352-.427-.508-.543-.86-1.047-.274-.388-1.33-1.86-1.33-2.325zm1.408 5.038l-.548-.62c-.156-.156-.899-1.124-.899-1.396.196-.155.86 0 1.056.078.195.077.195.155.352.271.352.504.9.969 1.33 1.395.273.271.508.504.86.698 2.463 1.937 5.2 2.983 8.211 3.836.352.077.196 0 .547.62-1.016-.078-3.206-.543-4.027-.853-1.76-.503-3.441-1.24-4.927-2.286-.196-.155-.508-.349-.704-.542-.39-.427-.821-.698-1.251-1.202zM2.82 20.13c.352-.194 1.486 0 1.877 0 .196 0 .43.271.626.426.195.155.43.271.625.426 1.877 1.24 3.715 2.015 5.944 2.52 1.173.27 2.307.503 3.558.62l.196.27c-2.464.155-5.396-.077-7.703-.89-1.134-.427-2.034-.853-2.894-1.473-.274 0-2.229-1.473-2.229-1.899zm2.464 4.185c-.43-.271-1.525-.969-1.682-1.24.196-.078 1.173-.271 1.408-.155.352.194.626.426 1.056.62.782.349 1.486.697 2.385.969l5.904.775 1.838-.078.274.426-4.34.427c-1.838 0-3.363-.272-4.927-.853-.743-.271-1.369-.542-1.916-.891zm.156 2.402c-.274-.193-.43-.27-.626-.426.352-.271 1.877-.504 2.112-.504.156.078.43.155.626.194 1.955.62 4.144.775 6.178.543.508-.078 1.056-.078 1.525-.155l1.525-.194.195.271c-.156.155-1.134.426-1.407.504-2.66.891-5.357 1.317-8.095.542a11.589 11.589 0 01-2.033-.775zm2.737 2.946l-1.681-.504c0-.078 0-.078.078-.078l.078-.077c.43-.272 1.134-.504 1.603-.62.274-.078.196-.078.509-.078 1.838.271 3.714.078 5.396-.349 1.134-.27 2.111-.62 3.206-.968l.196.348c-.157.155-1.486.775-1.603.853-1.76.969-3.715 1.666-5.827 1.666-.586 0-1.486-.077-1.955-.194zm2.307 2.208c-.156 0-1.603-.155-1.838-.194.157-.27 1.838-1.123 2.112-1.162.978-.078 1.877-.194 2.815-.504l4.575-2.015.352.427c-.195.193-1.407 1.046-1.603 1.24-.547.348-1.134.774-1.76 1.046-1.446.697-2.893 1.162-4.653 1.162zm.743 1.822h-.195c.156-.272 1.76-1.396 1.955-1.512.195-.077.547-.155.9-.271a14.428 14.428 0 003.088-1.589c.352-.194.626-.426.9-.62.43-.349.43-.349.899-.62l.352.504-.782.775c-1.33 1.317-2.66 2.441-4.614 3.061-.509.116-1.643.349-2.503.271zm4.497.697c-.626.349-1.603.543-2.307.62.078-.271.978-.969 1.251-1.24.078-.078.078-.078.196-.155 1.056-.504 2.19-1.162 3.01-1.938.157-.154.274-.193.353-.348.156-.155.625-.62.782-.698l.899-.542c.078.155.274.271.352.349-.078.155-.86 1.046-.9 1.162l-.351.349c-.079.077-.079.155-.157.194-.274.348-.977.89-1.33 1.162-.469.465-1.094.814-1.798 1.085zm2.112 1.162c-.43.155-1.174.543-1.76.62.078-.193.626-.852.782-1.046.078-.077.078-.155.156-.155.079-.077.157-.077.157-.155.43-.504 2.111-2.092 2.659-2.557l.156-.155c.078-.078.157-.078.157-.155.273-.272.547-.504.86-.698l.352.271c-.078.194-.86 1.318-.9 1.512-.743 1.007-1.642 1.976-2.62 2.518zm3.362-.348c-.508.542-.977 1.046-1.681 1.395-.156.077-.547.349-.704.349.196-.698 2.033-2.868 2.58-3.527.275-.348.627-.775.9-1.123l.352.193c0 .194-.508 1.163-.625 1.473-.196.504-.548.891-.822 1.24zm2.542-.465c-.352.891-.704 1.317-1.33 2.015-.273 0-.782.426-1.055.542.078-.271.43-.852.547-1.046.196-.349.43-.698.626-.969.43-.697.86-1.317 1.33-1.937l.273.155c0 .271-.352.968-.391 1.24zm1.72 0a5.887 5.887 0 01-.899 1.86c-.195.271-.508.542-.704.697.157-.697 1.525-3.139 1.838-3.758 0 .27-.156.93-.234 1.2zm25.183-13.137c.508-.852 1.055-2.015 1.407-2.867.196-.543.157-.426.548-.698.273-.155.508-.348.782-.503.508-.272 1.056-.62 1.525-.892a60.813 60.813 0 013.167-1.743l3.558-1.318c.079.504-1.525 2.635-1.877 3.061-2.19 2.558-5.122 4.185-8.328 5.154-.274 0-.626.155-.978.194.078-.116.156-.271.196-.388zm-.743 1.434c.156-.194.078-.194.352-.271.273-.078.625-.155.899-.271 2.659-.775 5.044-1.822 7.156-3.527.078-.077.547-.503.625-.542l.626-.543c.352-.348.626-.697.978-1.123.078-.078.078-.078.195-.078l1.056-.077c0 .271-.509.852-.704 1.123-.196.194-.626.775-.86.97l-.157.154c-2.385 2.558-5.943 3.836-9.463 4.456-.195 0-.625.155-.977.155.117-.116.195-.348.274-.426zM36.997 19.51c1.838-.155 3.284 1.317 3.363 2.984.078 1.743-1.252 3.332-2.933 3.41-1.838.155-3.206-1.318-3.363-2.984-.156-1.821 1.251-3.255 2.933-3.41zm-4.028 3.875l.196.271.9 1.589c.156.271.156.155-.08.697-.038.04-.077.155-.195.388l-.508 1.395c-.235.581-.43 1.124-.47 1.162-.077-.077-1.133-2.712-1.172-2.906-.196-.542-.157-.271.508-1.317.156-.194.274-.427.43-.62l.391-.659zm-4.34-4.03c1.877-.194 3.284 1.24 3.52 2.906.195 1.86-1.174 3.333-2.895 3.488-1.876.271-3.362-1.163-3.519-2.868-.117-1.782 1.29-3.294 2.894-3.526zm-2.307 10.036c-.196.155-.196.155-.43 0-.196-.155-.509-.426-.509-.775.157-.077 1.134-.542 1.408-.697.978-.504 2.112-.969 3.167-1.124l1.877-.194.352.969c-.352-.078-1.681.194-2.111.271-.626.155-1.252.349-1.838.543-.548.193-1.134.503-1.603.775a2.167 2.167 0 00-.313.232zm5.396 13.834c-.196-.194-.547-.698-.86-.698-.274 0-.548.543-.782.698-.079.077-.274.077-.352 0-.157 0-.352-.426-.43-.543-.196-.193-.43 0-.626.155-.156.078-.156.155-.274.194-.078 0-.273.194-.352.194-.273-.155-.078-.543 0-.698.352-.697 1.486-1.743 2.464-1.395.195.078.508.272.625.35.352.27.626.62.9 1.123.078.155.078.155.078.349-.04.31-.117.542-.391.271zm.9-4.611c-.705-.892-.86 2.363-2.112 1.046-.43-.426-.626-1.046-.9-1.589-.078-.194-.195-.349-.195-.62 0-.891 1.134.271 1.251.504.43.504.704-.504 1.251-.969.43-.349.86.155 1.056.349.196.271.509.697.704.891.508.426.704-.155.9-.504.195-.155.547-.697.899-.697.43.426-.626 2.015-.782 2.286-.939 1.473-1.369.155-2.073-.697zm4.3 4.534c0 .193-.625-.078-.781-.156a8.95 8.95 0 01-.509-.426c-.195-.077-.547.853-.9.775-.156 0-.195-.155-.195-.194l-.195-.193c-.548-.62-.704-.155-.978.077 0 .155-.273.426-.43.426-.156-.503.274-1.162.508-1.472.196-.349.704-.697 1.33-.697.352 0 .547.077.86.155.587.154 1.408 1.007 1.29 1.704zm-1.915-6.666c-.704-.62-.782-3.177-1.877-.775-.196.543-.626 1.24-1.173.504-.196-.271-.43-.775-.626-1.124-.352-.62-.704-.077-.86.35-.157.27-.274.542-.43.774-.509.504-1.056-.155-1.33-.62-.195-.155-.86-1.24-.86-1.511-.078-.969.977 0 1.173.194.352.348.274.503.977-.194.626-.775.9-1.046 1.525.077.86 1.395 1.056.775 1.76-.155.156-.155.43-.503.626-.542.704-.271.86.891 1.251.969.274.077.547-.349.704-.427.078-.077.625-.542.782-.27.274.425-.939 3.293-1.642 2.75zm2.737-5.386c-.157.426-.352.853-.548 1.124-.195.271-.508.697-.9.775-.546.077-1.055-.853-1.25-1.24-.079-.194-.196-.543-.43-.349-.43.349-.86 2.17-1.604 1.395-.547-.542-.704-2.209-1.486-.891-.156.271-.43.891-.782.891-.703 0-1.055-2.17-1.681-1.162-.196.348-.352.852-.547 1.123-.43.543-.704 0-.978-.27-.196-.272-.508-.62-.626-1.047 0-.194-.352-1.046-.156-1.318.195 0 .43.35.547.504.274.271.704.775 1.056-.077.196-.427.508-1.318.978-1.047.508.272.977 1.24 1.251 1.667.352.503.86-.853.9-1.124.078-.271.43-.775.781-.504.626.504.978 2.558 1.525 1.318.157-.427.548-1.124.9-1.318.625-.271.625 1.124 1.486 1.318.43.077.782-.155 1.055-.427.509-.426.157-.193.782-.697.157.349-.117 1.046-.273 1.356zm.273-2.557c-.078-.078-.156-.155-.273-.194a7.17 7.17 0 00-1.252-.543l-3.05-.31c.04-.116.118-.232.196-.387.078-.194.117-.349.156-.504v-.077c.509 0 1.29.155 1.682.232.547.078 1.173.271 1.76.426.547.155.508.194.781.078.783-.426 1.252-.775 1.956-1.318a8.816 8.816 0 011.837-1.2c.079-.04.235-.117.391-.156.235-.116.47-.194.47-.194h.039c1.33-.426 2.463-.542 3.87-.503.08.968-.86 1.395-1.602 1.743l-.548.272c.196.193.157.193.078.271.352-.078 1.408-.504 1.76-.62 1.486-.543 2.385-.62 3.871.155.274.155.509.349.704.504.196.155.508.348.704.542-.078.194-.704.62-.978.775-.43.194-.899.272-1.407.349-1.056.155-2.23.155-3.285.194.9.077 1.877.697 2.464 1.124.351.27.625.542.977.852.43.271.548.504.978.853-.274.155-1.604.503-1.955.503a4.196 4.196 0 01-2.112-.348c-.86-.427-1.525-.97-2.229-1.512l-.782-.542c.078.155.548.542.626.697l.547.775c-.195.155-1.173.272-1.525.272a6.983 6.983 0 01-1.603-.194c-1.33-.543-2.385-1.163-3.246-2.015zm2.112 5.851c-.078-.078-.078-.194-.156-.271-.157-.194-.196-.349-.352-.543h.195c.117.233.274.543.313.814zm-.196 2.131c-.195-.194-.351-.542-.508-.852a8.208 8.208 0 01-.547-2.093c.156.078.782 1.473.9 1.666.43.853.547 1.124.86 1.938-.235-.078-.548-.426-.705-.659zm2.308-.039c-.548-.542-.978-1.162-1.252-1.937-.078-.194-.156-.426-.195-.543-.078-.155-.196-.503-.196-.62l.157-.077c.43.542 1.525 2.286 1.877 2.867l.547 1.047c-.313-.194-.782-.62-.938-.737zm2.19-.348c-1.056-.775-1.878-2.287-2.308-3.604l.157-.078.156.156.156.155a.695.695 0 01.196.27c.43.543.9 1.047 1.33 1.59.273.348.547.697.86 1.123l.782 1.163c-.43-.078-1.134-.581-1.33-.775zm2.385-.698c-.43-.271-.978-.697-1.33-1.123-.43-.504-.626-.776-1.056-1.318-.273-.504-.547-.852-.86-1.24-.078-.155-.156-.155-.156-.194l.156-.155.352.272c.156.077.195.193.352.27.156.078.195.195.352.272.078.078.195.194.352.271l.156.155c.626.543 2.307 2.17 2.737 2.635.352.427.352.349.626.853-.587-.078-1.29-.504-1.681-.698zm2.228-1.046c-.625-.271-1.173-.698-1.681-1.046-.078-.078-.156-.078-.196-.155-.078-.078-.156-.078-.195-.155-.196-.155-.86-.853-1.056-.969l-1.251-1.473.274-.155-.079-.155c.079 0 .704.427.86.504.86.543.978.891 1.76 1.473.274.193 1.056.62 1.33.852l.9.504c.195.155.547.504.781.62.078.078.157.078.196.155l.508.543c-.665 0-1.642-.35-2.15-.543zm4.497-.775c-.9.077-2.385-.271-3.167-.62-.548-.271-1.251-.62-1.838-1.046a1.989 1.989 0 01-.508-.349c.156 0 .352 0 .508-.078.547-.077 1.173-.27 1.251-.27.079 0 .548.27.704.27.43.194 1.603.892 1.877 1.163l1.173.93zm2.385-2.015c-.195.155-1.134.155-1.407.155-.509 0-.978 0-1.486-.155-.626-.078-1.251-.271-1.838-.504l-.547-.271c.078 0 .078 0 .156-.078h.078l.078-.077c-.156-.078-.195-.155-.273-.194-.196-.194-.86-.697-.978-.891l-.43-.349c-.274-.077-.43-.194-.704-.426.274.077.548.194.9.349.86.348 1.955.697 2.893.891.196.077.352.077.508.155.157 0 .352.077.548.077.078 0 .782.35.9.35l1.602.968zm2.112-2.441l-3.206.542c-1.134 0-2.23-.194-3.285-.504a23.191 23.191 0 01-2.112-.775c-.078-.077-.547-.193-.625-.27.508-.078.9-.078 1.407-.195.352-.077.196-.155.626-.077.196.077.43.077.704.155l3.01.271c.978 0 1.057-.155 1.956.155l1.525.698zm1.681-2.907c-.352.35-1.76.853-2.307 1.047-.977.271-1.955.426-3.01.426-.9 0-1.76-.078-2.66-.271-.156 0-.273 0-.351-.078l.195-.194c.156-.155.43-.503.547-.697h.352a17.5 17.5 0 003.793-.426c.274-.078.548-.155.86-.194.353-.155.43-.155.9 0l1.681.388zm1.056-3.332c-.156.271-1.173.969-1.603 1.162-1.955 1.318-4.067 1.744-6.647 1.744h-.783c-.547 0-.351-.077-1.055-.504l-.509-.27c1.838-.078 3.52-.195 5.201-.62 1.134-.272 2.19-.62 3.167-1.163.157-.078.9-.504.978-.504l1.251.155zm.47-2.286c-.196.193-.9.775-1.135.968-.977.775-2.19 1.396-3.519 1.822-2.19.852-5.279 1.123-7.586 1.046l.196-.349c.274-.077.625-.077.9-.155.273-.077.547-.077.86-.155 3.089-.542 5.943-1.511 8.406-3.487.157-.155.157-.155.352-.194l1.877-.078c.079.155-.273.504-.352.582z"/></g></g></svg><svg viewBox="0 0 66 70" id="logo-jetbrains" xmlns="http://www.w3.org/2000/svg"><defs><linearGradient x1="9.612%" y1="85.627%" x2="89.899%" y2="14.383%" id="ea"><stop stop-color="#FCEE39" offset="0%"/><stop stop-color="#F37B3D" offset="100%"/></linearGradient><linearGradient x1="8.602%" y1="9.463%" x2="99.641%" y2="95.276%" id="eb"><stop stop-color="#EF5A6B" offset="0%"/><stop stop-color="#F26F4E" offset="57%"/><stop stop-color="#F37B3D" offset="100%"/></linearGradient><linearGradient x1="90.119%" y1="91.33%" x2="17.938%" y2="26.418%" id="ec"><stop stop-color="#7C59A4" offset="0%"/><stop stop-color="#AF4C92" offset="38.5%"/><stop stop-color="#DC4183" offset="76.5%"/><stop stop-color="#ED3D7D" offset="95.7%"/></linearGradient><linearGradient x1="91.376%" y1="7.597%" x2="18.896%" y2="77.772%" id="ed"><stop stop-color="#EF5A6B" offset="0%"/><stop stop-color="#EE4E72" offset="36.4%"/><stop stop-color="#ED3D7D" offset="100%"/></linearGradient></defs><g fill-rule="nonzero" fill="none"><path d="M61.23 37.153c.46-.41.717-.973.768-1.638.051-1.331-.922-2.406-2.253-2.508-.614-.052-1.229.204-1.69.563L15.146 57.067a5.03 5.03 0 00-2.406 2.099c-1.485 2.457-.666 5.63 1.843 7.115 1.741 1.024 3.84.922 5.479-.102.102-.102.256-.154.358-.256L60.36 37.87c.204-.154.768-.563.87-.717z" fill="url(#ea)" transform="translate(2 2)"/><path d="M61.288 32.994L28.819 1.267A3.958 3.958 0 0025.92 0 3.912 3.912 0 0022 3.903c0 1.064.407 1.976 1.069 2.686.203.202.407.354.61.507l34.3 29.243c.408.355.917.608 1.527.66 1.324.05 2.392-.913 2.494-2.23 0-.66-.254-1.319-.712-1.775z" fill="url(#eb)" transform="translate(2 2)"/><path d="M30.156 31.048c-.05 0-20.118-15.955-20.526-16.213l-.92-.463c-2.96-1.132-6.228.412-7.352 3.397-.97 2.625.102 5.507 2.349 6.897.357.206.664.36 1.021.463.204.103 23.182 9.676 23.182 9.676.919.412 1.99.155 2.604-.617a2.232 2.232 0 00-.358-3.14z" fill="url(#ec)" transform="translate(2 2)"/><path d="M25.04 0c-.863 0-1.675.308-2.335.77L2.499 14.52c-.05.05-.101.05-.101.102h-.051c-.863.616-1.574 1.539-1.98 2.616-1.117 2.976.406 6.31 3.35 7.388 1.828.719 3.808.36 5.28-.718.356-.256.66-.513.914-.82L27.477 7.08A3.977 3.977 0 0029 3.95C29 1.796 27.223 0 25.04 0z" fill="url(#ed)" transform="translate(2 2)"/><path fill="#000" d="M20 21h26v26H20z"/><path fill="#FFF" d="M22 42h10v2H22z"/><g fill="#FFF"><path d="M22.41 27.9l.767-.7c.204.25.409.4.665.4.307 0 .46-.2.46-.6v-2.65h1.177V27c0 .5-.153.9-.41 1.15-.255.25-.664.4-1.176.4-.767.05-1.177-.25-1.484-.65zm3.325-3.5h3.428v.95h-2.251V26h2.046v.9h-2.046v.65h2.302v1h-3.428l-.051-4.15zm4.963 1h-1.28v-1h3.735v1h-1.279v3.15h-1.176V25.4zm-8.186 4.1h2.2c.511 0 .92.15 1.176.35.154.15.256.4.256.7 0 .5-.256.75-.665.95.512.15.819.45.819 1 0 .7-.614 1.15-1.586 1.15h-2.2V29.5zm2.455 1.3c0-.25-.204-.35-.511-.35h-.768v.75h.717c.358-.05.562-.15.562-.4zm-.409 1.2h-.92v.75h.92c.358 0 .563-.15.563-.4s-.205-.35-.563-.35zm1.944-2.5h1.996c.665 0 1.074.15 1.381.45.256.25.358.55.358.95 0 .65-.358 1.05-.87 1.3l1.024 1.45h-1.33l-.87-1.25h-.512v1.25h-1.177V29.5zm1.945 2c.409 0 .613-.2.613-.5 0-.35-.255-.5-.613-.5h-.768v1h.768z"/><path d="M31.619 29.5h1.125l1.79 4.2h-1.278l-.307-.75h-1.637l-.307.75h-1.228l1.842-4.2zm1.023 2.5l-.46-1.15L31.72 32h.92zm2.046-2.5h1.177v4.15h-1.177V29.5zm1.484 0h1.075l1.739 2.2v-2.2h1.177v4.15H39.14l-1.791-2.25v2.3h-1.177v-4.2zm4.093 3.55l.665-.75c.41.35.87.5 1.382.5.307 0 .511-.1.511-.3 0-.2-.153-.25-.716-.4-.921-.2-1.586-.45-1.586-1.3 0-.75.614-1.35 1.637-1.35.716 0 1.28.2 1.74.55l-.614.8c-.41-.25-.819-.4-1.177-.4-.307 0-.41.1-.41.25 0 .2.154.25.717.4.972.2 1.586.5 1.586 1.3 0 .85-.665 1.35-1.74 1.35-.767.05-1.483-.2-1.995-.65z"/></g></g></svg><svg viewBox="0 0 92 70" id="logo-shad" xmlns="http://www.w3.org/2000/svg"><defs><path id="fa" d="M0 37.447h87.388V0H0z"/></defs><g transform="translate(2 16)" fill="none" fill-rule="evenodd"><path d="M44.52.983c-6.44 0-11.66 5.219-11.66 11.657s5.22 11.656 11.66 11.656 11.661-5.218 11.661-11.656c0-6.438-5.22-11.657-11.66-11.657" fill="#DA3229"/><mask id="fb" fill="#fff"><use xlink:href="#fa"/></mask><path fill="#000" mask="url(#fb)" d="M65.438 23.447h21.67V1.785h-21.67z"/><path fill="#FACB26" mask="url(#fb)" d="M7.01 11.705L.23 23.447h27.077L20.54 11.705 13.775 0z"/><path fill="#000" mask="url(#fb)" d="M2.162 35.941v-3.85h.608v3.85h1.554v-3.85h.608v4.336H0v-4.371h.608v3.885zM6.96 33.877h.146c.233.012.463-.052.656-.183.137-.154.248-.331.328-.522l.134-.388c.045-.203.141-.39.28-.546a.958.958 0 01.752-.231v.474a.616.616 0 00-.376.145.707.707 0 00-.183.377l-.182.424c-.065.16-.16.303-.279.426a.759.759 0 01-.474.23c.21.036.405.133.559.28.136.155.247.331.328.522l.28.607c.044.157.123.302.23.425.092.074.21.11.328.097v.522a.926.926 0 01-.692-.11 1.628 1.628 0 01-.292-.618l-.28-.705a2.164 2.164 0 00-.327-.522 1.03 1.03 0 00-.607-.182h-.28v2.028h-.607v-4.371h.607v1.82h-.048zM13.532 36.038a1.917 1.917 0 01-1.36.522 1.688 1.688 0 01-1.36-.522 2.912 2.912 0 010-3.57c.36-.34.839-.527 1.335-.521.51-.041 1.01.15 1.361.522a2.912 2.912 0 010 3.569m-2.223-3.145c-.307.384-.458.87-.425 1.36-.01.487.138.965.425 1.36a1.214 1.214 0 001.785 0 1.96 1.96 0 00.425-1.36 2.233 2.233 0 00-.425-1.36 1.216 1.216 0 00-.899-.376 1.07 1.07 0 00-.898.376M16.363 32.614v1.627a3.642 3.642 0 01-.571 1.992 1.212 1.212 0 01-.9.327l-.097-.522a.977.977 0 00.523-.182 2.79 2.79 0 00.474-1.748v-2.065h2.49v4.384h-.608v-3.861h-1.311v.048zM19.885 36.427h-.656l1.835-4.371h.522l1.822 4.37h-.656l-.474-1.214H20.36l-.474 1.215zm1.409-3.643l-.753 1.93h1.506l-.753-1.93zM26.42 36.427h-.704l1.834-4.371h.523l1.822 4.37h-.656l-.474-1.214h-1.92l-.424 1.215zm1.41-3.643l-.753 1.93h1.506l-.754-1.93zM31.45 36.427h-.608v-4.371h.608v1.833h2.016v-1.797h.608v4.335h-.608v-1.98H31.45zM35.677 36.427h-.656l1.834-4.371h.523l1.822 4.37h-.657l-.473-1.214h-1.92l-.473 1.215zm1.408-3.643l-.752 1.93h1.506l-.754-1.93zM41.3 32.614v1.627a3.64 3.64 0 01-.522 2.016 1.212 1.212 0 01-.899.328l-.097-.523a.982.982 0 00.523-.181 2.788 2.788 0 00.425-1.737V32.08h2.515v4.348h-.608v-3.861h-1.336v.048zM47.241 32.517v-.425h.608v4.335h-.608v-3.109l-1.98 2.72v.474h-.607V32.14h.607v3.145zM49.124 32.469c.388-.345.89-.531 1.409-.523.439-.039.875.097 1.215.377.215.23.333.535.328.85a.862.862 0 01-.28.704 1.113 1.113 0 01-.522.28c.222.044.43.14.607.278.193.202.293.475.28.753.006.385-.169.75-.474.984-.36.235-.785.35-1.215.328a3.245 3.245 0 01-1.032-.146 1.954 1.954 0 01-.608-.377l.329-.424c.163.124.338.234.522.328.24.093.495.143.752.146.25.025.5-.04.705-.183a.86.86 0 00.28-.656.656.656 0 00-.28-.558 2.02 2.02 0 00-1.033-.182h-.145v-.45h.145c.276.013.55-.036.803-.145a.607.607 0 00.376-.608.56.56 0 00-.267-.461 1.226 1.226 0 00-.656-.182c-.406.01-.8.141-1.13.377l-.11-.51zM53.546 36.427h-.657l1.774-4.335h.523l1.907 4.335h-.657l-.473-1.215h-1.956l-.461 1.215zm1.457-3.643l-.753 1.93h1.506l-.753-1.93zM59.85 35.953c.207-.384.367-.791.474-1.214a7.894 7.894 0 00.17-1.955v-.704h2.49v3.86h.523v1.507h-.56v-1.02h-2.963v.983h-.56v-1.47l.426.013zm1.215-3.339v.17c.022.71-.04 1.418-.182 2.113-.1.375-.243.738-.425 1.08h1.882v-3.363h-1.275zM64.685 36.427h-.656l1.834-4.371h.523l1.822 4.37h-.657l-.473-1.214h-1.931l-.462 1.215zm1.457-3.643l-.753 1.93h1.506l-.753-1.93zM69.762 36.427h-.607v-4.371h.607v1.833h2.017v-1.797h.607v4.335h-.607v-1.98h-2.017zM74.366 36.427h-.607v-4.371h.607v1.833h2.016v-1.797h.608v4.335h-.608v-1.98h-2.016zM78.958 33.78h.802c.47-.056.943.08 1.311.376.238.252.357.59.329.935a1.32 1.32 0 01-.329.935c-.385.3-.875.436-1.36.377h-1.3v-4.371h.547v1.748zm.814 2.16c.301.025.602-.056.85-.23a.813.813 0 00.23-.559.727.727 0 00-.23-.606 1.444 1.444 0 00-.85-.231h-.814v1.627h.814zm2.308.487h.607v-4.335h-.607v4.335zM85.505 34.63l-1.215 1.833h-.704l1.506-2.307-1.275-2.064h.656l1.032 1.603 1.032-1.603h.657l-1.312 2.064 1.506 2.271h-.705z"/></g></svg><svg viewBox="0 0 115 78" id="se" xmlns="http://www.w3.org/2000/svg"><defs><ellipse id="ga" cx="37" cy="39" rx="37" ry="39"/></defs><g fill-rule="evenodd"><path d="M82 21v-4a4 4 0 00-4-4H6a4 4 0 00-4 4v48a4 4 0 004 4h72a4 4 0 004-4V23H2v-2h80zM6 11h72a6 6 0 016 6v48a6 6 0 01-6 6H6a6 6 0 01-6-6V17a6 6 0 016-6zm71 8a2 2 0 110-4 2 2 0 010 4zm-6 0a2 2 0 110-4 2 2 0 010 4zm-6 0a2 2 0 110-4 2 2 0 010 4z" fill-rule="nonzero"/><g transform="translate(41)"><mask id="gb" fill="#fff"><use xlink:href="#ga"/></mask><use fill="#07C39F" xlink:href="#ga"/><path d="M42.18 21v-4c0-2.21-1.7-4-3.795-4h-68.308c-2.096 0-3.795 1.79-3.795 4v48c0 2.21 1.7 4 3.795 4h68.308c2.095 0 3.794-1.79 3.794-4V23h-75.897v-2H42.18zm-72.103-10h68.308c3.143 0 5.692 2.686 5.692 6v48c0 3.314-2.549 6-5.692 6h-68.308c-3.144 0-5.692-2.686-5.692-6V17c0-3.314 2.548-6 5.692-6zm67.359 8c-1.048 0-1.898-.895-1.898-2s.85-2 1.898-2 1.897.895 1.897 2-.85 2-1.897 2zm-5.692 0c-1.048 0-1.898-.895-1.898-2s.85-2 1.898-2 1.897.895 1.897 2-.85 2-1.897 2zm-5.693 0c-1.048 0-1.897-.895-1.897-2s.85-2 1.897-2c1.048 0 1.898.895 1.898 2s-.85 2-1.898 2z" fill="#FFF" fill-rule="nonzero" mask="url(#gb)"/></g></g></svg></defs></svg>