<?xml version="1.0" encoding="utf-8"?><svg xmlns="http://www.w3.org/2000/svg" xmlns:xlink="http://www.w3.org/1999/xlink"><defs><svg viewBox="0 0 72 58" id="presentation" xmlns="http://www.w3.org/2000/svg"><g fill="none" fill-rule="nonzero"><path fill="#8899A4" d="M59 13v24a3 3 0 0 1-3 3H41.062l4.1 11.266a1 1 0 0 1-1.879.684L38.934 40H37v12a1 1 0 0 1-2 0V40h-1.934l-4.35 11.95a1 1 0 0 1-1.879-.684L30.937 40H16a3 3 0 0 1-3-3V13a3 3 0 0 1-3-3V8a3 3 0 0 1 3-3h46a3 3 0 0 1 3 3v2a3 3 0 0 1-3 3zm-2 0H15v24a1 1 0 0 0 1 1h40a1 1 0 0 0 1-1V13zM36 45.5V52v-6.5zm6 0l2.223 6.108L42 45.5zm-12 0l-2.223 6.108L30 45.5zM13 7a1 1 0 0 0-1 1v2a1 1 0 0 0 1 1h46a1 1 0 0 0 1-1V8a1 1 0 0 0-1-1H13z"/><path fill="#374148" d="M34 20h19a1 1 0 0 1 0 2H34a1 1 0 0 1 0-2zm9.5 1H53h-9.5zM34 24h19a1 1 0 0 1 0 2H34a1 1 0 0 1 0-2zm9.5 1H53h-9.5zM34 28h15a1 1 0 0 1 0 2H34a1 1 0 0 1 0-2zm7.5 1H49h-7.5zM19 19h10a1 1 0 0 1 1 1v10a1 1 0 0 1-1 1H19a1 1 0 0 1-1-1V20a1 1 0 0 1 1-1zm1 2v8h8v-8h-8z"/></g></svg><svg viewBox="0 0 72 58" id="report" xmlns="http://www.w3.org/2000/svg"><g fill="none" fill-rule="evenodd"><path fill="#8899A4" fill-rule="nonzero" d="M52 45v1a3 3 0 0 1-3 3h-1v1a3 3 0 0 1-3 3H19a3 3 0 0 1-3-3V16a3 3 0 0 1 3-3h1v-1a3 3 0 0 1 3-3h1V8a3 3 0 0 1 3-3h26a3 3 0 0 1 3 3v34a3 3 0 0 1-3 3h-1zM24 11h-1a1 1 0 0 0-1 1v34a1 1 0 0 0 1 1h26a1 1 0 0 0 1-1v-1H27a3 3 0 0 1-3-3V11zm-4 4h-1a1 1 0 0 0-1 1v34a1 1 0 0 0 1 1h26a1 1 0 0 0 1-1v-1H23a3 3 0 0 1-3-3V15zm7-8a1 1 0 0 0-1 1v34a1 1 0 0 0 1 1h26a1 1 0 0 0 1-1V8a1 1 0 0 0-1-1H27z"/><path fill="#D8D8D8" stroke="#374148" d="M43 9.5a.5.5 0 1 0 0 1h8a.5.5 0 1 0 0-1h-8zm0 4a.5.5 0 1 0 0 1h8a.5.5 0 1 0 0-1h-8zm0 4a.5.5 0 1 0 0 1h8a.5.5 0 1 0 0-1h-8zm-14 6a.5.5 0 1 0 0 1h22a.5.5 0 1 0 0-1H29zm0 4a.5.5 0 1 0 0 1h22a.5.5 0 1 0 0-1H29zm0 4a.5.5 0 1 0 0 1h14a.5.5 0 1 0 0-1H29zm0-22a.5.5 0 0 0-.5.5v10a.5.5 0 0 0 .5.5h10a.5.5 0 0 0 .5-.5V10a.5.5 0 0 0-.5-.5H29zm.5 1h9v9h-9v-9z"/></g></svg><svg viewBox="0 0 72 58" id="select" xmlns="http://www.w3.org/2000/svg"><g fill="none" fill-rule="nonzero"><path fill="#8899A4" d="M46 15.093a4.832 4.832 0 0 0-2 .022V9a1 1 0 0 0-1-1H17a1 1 0 0 0-1 1v34a1 1 0 0 0 1 1h20.305l1.117 2H17a3 3 0 0 1-3-3V9a3 3 0 0 1 3-3h26a3 3 0 0 1 3 3v6.093zm9.414 11.17c2.01 0 3.07 1.152 3.404 2.962.461-.282 1.012-.436 1.653-.436 2.165 0 3.529 1.468 3.529 3.527V42.42c0 5.3-3.282 8.579-8.586 8.579H48.67c-2.56 0-4.71-1.068-6.446-2.823-1.026-1.038-1.698-2.075-2.015-2.745l-5.65-10.194c-.95-1.923-.76-3.755 1.014-4.656 2.265-1.15 4.367-.043 6.197 2.334V20.579c0-1.98 1.554-3.579 3.528-3.579 1.975 0 3.53 1.598 3.53 3.579v3.406c.423-.169.928-.248 1.528-.248 2.113 0 3.053.781 3.382 2.85.456-.212 1.01-.324 1.676-.324zm-1.53 5.21h-.38c-.355.262-.883.26-1.238 0h-.381l-.001-.242c-.002-.263-.002-.401 0-.57v-1.714c0-2.9-.17-3.21-1.528-3.21-1.224 0-1.529.7-1.529 4.052 0 1.334-2 1.334-2 0v-9.21c0-.888-.671-1.579-1.529-1.579-.857 0-1.528.69-1.528 1.579v15.947c0 1.084-1.484 1.394-1.917.4a12.068 12.068 0 0 0-.381-.77 14.945 14.945 0 0 0-1.072-1.732c-1.378-1.902-2.711-2.673-3.92-2.059-.588.299-.653.925-.15 1.945l5.656 10.207c.058.12.19.36.394.676a9.91 9.91 0 0 0 1.266 1.577C45.034 48.173 46.7 49 48.67 49h6.744c4.2 0 6.586-2.384 6.586-6.579V32.316c0-.985-.503-1.527-1.529-1.527-1.137 0-1.529 1.272-1.529 3.817 0 1.334-2 1.334-2 0v-3.132l.001-.255c.004-.635-.004-.958-.047-1.327-.134-1.16-.506-1.629-1.482-1.629-1.143 0-1.5.682-1.53 2.414v.797z"/><path fill="#374148" d="M19 11h22a1 1 0 0 1 0 2H19a1 1 0 0 1 0-2zm0 4h22a1 1 0 0 1 0 2H19a1 1 0 0 1 0-2zm0 4h14a1 1 0 0 1 0 2H19a1 1 0 0 1 0-2z"/></g></svg><svg viewBox="0 0 73 59" id="work" xmlns="http://www.w3.org/2000/svg"><g fill="none" fill-rule="nonzero"><path fill="#374148" d="M38 44c8.837 0 16-7.163 16-16s-7.163-16-16-16-16 7.163-16 16 7.163 16 16 16zm0-2c-7.732 0-14-6.268-14-14s6.268-14 14-14 14 6.268 14 14-6.268 14-14 14z"/><g fill="#8899A4"><path d="M56.255 12.41l-1.52 1.299a22.033 22.033 0 0 0-6.747-5.31 21.924 21.924 0 0 0-16.786-1.322c-11.556 3.755-17.88 16.166-14.125 27.722l-1.902.618C11.079 22.81 17.978 9.27 30.584 5.175a23.924 23.924 0 0 1 18.312 1.441 24.033 24.033 0 0 1 7.359 5.794zM19.746 43.59l1.52-1.299c1.877 2.197 4.173 4 6.747 5.311a21.924 21.924 0 0 0 16.786 1.321c11.555-3.754 17.88-16.166 14.125-27.721l1.902-.618c4.096 12.606-2.803 26.146-15.41 30.242a23.924 23.924 0 0 1-18.311-1.442 24.033 24.033 0 0 1-7.359-5.793z"/><path d="M60.053 21.482l4.455 2.27.908-1.782-6.238-3.178-3.177 6.237 1.782.908zM16.176 33.642l2.27-4.455 1.781.908-3.177 6.237-6.237-3.178.907-1.782z"/></g><path fill="#374148" d="M37 17a1 1 0 0 1 1 1v11a1 1 0 0 1-2 0V18a1 1 0 0 1 1-1zm0 6.5V29v-5.5z"/><path fill="#374148" d="M47 29a1 1 0 0 1-1 1h-9a1 1 0 0 1 0-2h9a1 1 0 0 1 1 1zm-5.5 0H37h4.5z"/></g></svg></defs></svg>