<?xml version="1.0" encoding="utf-8"?><svg xmlns="http://www.w3.org/2000/svg" xmlns:xlink="http://www.w3.org/1999/xlink"><defs><svg viewBox="0 0 16 16" id="calendar" xmlns="http://www.w3.org/2000/svg"><path d="M12 3h1a3 3 0 0 1 3 3v7a3 3 0 0 1-3 3H3a3 3 0 0 1-3-3V6a3 3 0 0 1 3-3h1V2a1 1 0 1 1 2 0v1h4V2a1 1 0 0 1 2 0v1zm0 2a1 1 0 0 1-2 0H6a1 1 0 1 1-2 0H3a1 1 0 0 0-1 1v7a1 1 0 0 0 1 1h10a1 1 0 0 0 1-1V6a1 1 0 0 0-1-1h-1zM5 9a1 1 0 1 1 0-2 1 1 0 0 1 0 2zm0 3a1 1 0 1 1 0-2 1 1 0 0 1 0 2zm3-3a1 1 0 1 1 0-2 1 1 0 0 1 0 2zm0 3a1 1 0 1 1 0-2 1 1 0 0 1 0 2zm3-3a1 1 0 1 1 0-2 1 1 0 0 1 0 2zm0 3a1 1 0 1 1 0-2 1 1 0 0 1 0 2z"/></svg><svg viewBox="0 0 24 24" id="cross" xmlns="http://www.w3.org/2000/svg"><path fill-rule="evenodd" d="M13.414 12l4.95 4.95a1 1 0 0 1-1.414 1.414L12 13.414l-4.95 4.95a1 1 0 0 1-1.414-1.414l4.95-4.95-4.95-4.95A1 1 0 0 1 7.05 5.636l4.95 4.95 4.95-4.95a1 1 0 0 1 1.414 1.414L13.414 12z"/></svg><svg viewBox="0 0 16 16" id="location" xmlns="http://www.w3.org/2000/svg"><path fill-rule="evenodd" d="M8.767 15.634C12.256 11.467 14 8.319 14 6.19 14 2.77 11.314 0 8 0 4.687 0 2 2.772 2 6.19c0 2.13 1.744 5.277 5.233 9.444a1 1 0 0 0 1.534 0zM4 6.174c0-2.28 1.792-4.127 4-4.127 2.21 0 4 1.847 4 4.127 0 2.278-1.79 4.126-4 4.126-2.208 0-4-1.848-4-4.126zm2-.017c0 1.14.896 2.063 2 2.063 1.105 0 2-.924 2-2.063 0-1.14-.895-2.064-2-2.064-1.104 0-2 .924-2 2.064z"/></svg><svg viewBox="0 0 20 20" id="password-hidden" xmlns="http://www.w3.org/2000/svg"><path d="M13.155 10.546c-.695.215-1.414.355-2.155.416V13a1 1 0 1 1-2 0v-2.057a10.396 10.396 0 0 1-2.13-.446l-.976 1.95a1 1 0 0 1-1.788-.894l.922-1.845a12.585 12.585 0 0 1-1.982-1.34l-1.339 1.34A1 1 0 1 1 .293 8.292L2.29 6.296l.003-.003a1 1 0 0 1 1.393-.02c1.959 1.829 4.085 2.726 6.418 2.726 2.326 0 4.372-.89 6.189-2.706a.997.997 0 0 1 1.414 0l2 2a1 1 0 1 1-1.414 1.414l-1.32-1.319c-.63.542-1.288 1-1.974 1.375l.895 1.79a1 1 0 0 1-1.788.894l-.951-1.901z" fill="#8B9CA7" fill-rule="nonzero"/></svg><svg viewBox="0 0 20 20" id="search" xmlns="http://www.w3.org/2000/svg"><path d="M8.28 13.63a1.015 1.015 0 0 1-.048.052L3.99 17.925a1 1 0 0 1-1.415-1.415l4.243-4.242c.017-.017.034-.033.052-.048a7.002 7.002 0 0 1 10.555-9.145A7 7 0 0 1 8.28 13.63zm.66-2.07a5 5 0 1 0 7.07-7.07 5 5 0 0 0-7.07 7.07z" fill="#8B9CA7" fill-rule="evenodd"/></svg></defs></svg>