<?xml version="1.0" encoding="utf-8"?><svg xmlns="http://www.w3.org/2000/svg" xmlns:xlink="http://www.w3.org/1999/xlink"><defs><svg viewBox="0 0 24 24" id="calendar" xmlns="http://www.w3.org/2000/svg"><path d="M18 3h1a4 4 0 0 1 4 4v10a4 4 0 0 1-4 4H5a4 4 0 0 1-4-4V7a4 4 0 0 1 4-4h1V1.5a1.5 1.5 0 0 1 3 0V3h6V1.5a1.5 1.5 0 0 1 3 0V3zm-.085 3a1.5 1.5 0 0 1-2.83 0h-6.17a1.5 1.5 0 0 1-2.83 0H5a1 1 0 0 0-1 1v10a1 1 0 0 0 1 1h14a1 1 0 0 0 1-1V7a1 1 0 0 0-1-1h-1.085zM7.5 11.267c-.828 0-1.5-.687-1.5-1.534S6.672 8.2 7.5 8.2 9 8.886 9 9.733c0 .847-.672 1.534-1.5 1.534zm0 4.6c-.828 0-1.5-.687-1.5-1.534S6.672 12.8 7.5 12.8s1.5.686 1.5 1.533c0 .847-.672 1.534-1.5 1.534zm4.5-4.6c-.828 0-1.5-.687-1.5-1.534S11.172 8.2 12 8.2s1.5.686 1.5 1.533c0 .847-.672 1.534-1.5 1.534zm0 4.6c-.828 0-1.5-.687-1.5-1.534S11.172 12.8 12 12.8s1.5.686 1.5 1.533c0 .847-.672 1.534-1.5 1.534zm4.5-4.6c-.828 0-1.5-.687-1.5-1.534S15.672 8.2 16.5 8.2s1.5.686 1.5 1.533c0 .847-.672 1.534-1.5 1.534zm0 4.6c-.828 0-1.5-.687-1.5-1.534s.672-1.533 1.5-1.533 1.5.686 1.5 1.533c0 .847-.672 1.534-1.5 1.534z"/></svg><svg viewBox="0 0 24 24" id="cross" xmlns="http://www.w3.org/2000/svg"><path fill-rule="evenodd" d="M14.621 12.5l6.01 6.01a1.5 1.5 0 0 1-2.12 2.122l-6.011-6.01-6.01 6.01a1.5 1.5 0 0 1-2.122-2.122l6.01-6.01-6.01-6.01A1.5 1.5 0 0 1 6.49 4.368l6.01 6.01 6.01-6.01a1.5 1.5 0 0 1 2.122 2.122l-6.01 6.01z"/></svg><svg viewBox="0 0 24 24" id="files" xmlns="http://www.w3.org/2000/svg"><path d="M17 20H7c-.552 0-1-.407-1-.91V6H4v16h13v-2zm4-7V2H8v16.07h8v-3.356c0-.946.768-1.714 1.714-1.714H21zm0 2.068V15h-3v3h.058L21 15.135v-.067zM6 4V.91C6 .406 6.448 0 7 0h15c.552 0 1 .407 1 .91v14.66c0 .235-.1.46-.278.63l-3.711 3.52a.957.957 0 0 1-.011.01v3.112c0 .64-.476 1.158-1.063 1.158H3.063C2.477 24 2 23.482 2 22.842V5.158C2 4.518 2.476 4 3.063 4H6zm4 0h9v2h-9V4zm0 4h9v2h-9V8z"/></svg><svg viewBox="0 0 24 24" id="graduate" xmlns="http://www.w3.org/2000/svg"><path fill-rule="evenodd" d="M19 13l-.002 2.762C19.086 16.995 15.86 18 12 18c-3.86 0-7.086-1.005-6.998-2.238L5 13l6.475 1.582c.175.044.35.061.525.061.175 0 .35-.017.525-.06L19 13zm5-4.743a.37.37 0 0 1-.23.343l-11.666 3.903c-.041.01-.073.01-.104.01s-.063 0-.104-.01L4.5 10.192c-.594.499-1.01 1.718-1.094 3.214.396.244.656.688.656 1.209 0 .499-.24.931-.604 1.186l.604 4.8c.01.1-.02.2-.083.277a.325.325 0 0 1-.25.122h-2a.325.325 0 0 1-.25-.122.38.38 0 0 1-.083-.277L2 15.8a1.437 1.437 0 0 1-.604-1.186c0-.532.281-.987.677-1.23.062-1.298.375-2.694 1.02-3.659L.23 8.6A.37.37 0 0 1 0 8.257a.37.37 0 0 1 .23-.344l11.666-3.902C11.937 4 11.969 4 12 4s.063 0 .104.011l11.667 3.902a.37.37 0 0 1 .229.344z"/></svg><svg viewBox="0 0 24 24" id="info" xmlns="http://www.w3.org/2000/svg"><path d="M11 10h2v7h-2v-5h-1v-2h1zm1 13C5.925 23 1 18.075 1 12S5.925 1 12 1s11 4.925 11 11-4.925 11-11 11zm0-2a9 9 0 1 0 0-18 9 9 0 0 0 0 18zm0-12a1 1 0 1 1 0-2 1 1 0 0 1 0 2z"/></svg><svg viewBox="0 0 24 24" id="location" xmlns="http://www.w3.org/2000/svg"><path fill-rule="evenodd" d="M12.751 23.154a1 1 0 0 1-1.502 0C5.749 16.89 3 12.172 3 9a9 9 0 1 1 18 0c0 3.172-2.75 7.89-8.249 14.154zM12 15a6 6 0 1 0 0-12 6 6 0 0 0 0 12zm0-3a3 3 0 1 0 0-6 3 3 0 0 0 0 6z"/></svg><svg viewBox="0 0 24 24" id="mail" xmlns="http://www.w3.org/2000/svg"><path fill-rule="evenodd" d="M2 15.64V6.021l6.717 4.81L2 15.64zM3.417 5h17.167l-5.15 3.714-1.51 1.096-1.415 1.013-.475.346-.476-.338-1.416-1.021-.967-.692L3.417 5zm11.916 5.823L22 6.022v9.61l-6.666-4.81zm-3.3 2.38l1.883-1.359L22 17.666v.511a.831.831 0 0 1-.834.823H2.833A.825.825 0 0 1 2 18.177v-.503l8.133-5.83 1.9 1.358z"/></svg><svg viewBox="0 0 20 20" id="password-hidden" xmlns="http://www.w3.org/2000/svg"><path d="M13.155 10.546c-.695.215-1.414.355-2.155.416V13a1 1 0 1 1-2 0v-2.057a10.396 10.396 0 0 1-2.13-.446l-.976 1.95a1 1 0 0 1-1.788-.894l.922-1.845a12.585 12.585 0 0 1-1.982-1.34l-1.339 1.34A1 1 0 1 1 .293 8.292L2.29 6.296l.003-.003a1 1 0 0 1 1.393-.02c1.959 1.829 4.085 2.726 6.418 2.726 2.326 0 4.372-.89 6.189-2.706a.997.997 0 0 1 1.414 0l2 2a1 1 0 1 1-1.414 1.414l-1.32-1.319c-.63.542-1.288 1-1.974 1.375l.895 1.79a1 1 0 0 1-1.788.894l-.951-1.901z" fill="#8B9CA7" fill-rule="nonzero"/></svg><svg viewBox="0 0 24 24" id="pause" xmlns="http://www.w3.org/2000/svg"><path fill-rule="evenodd" d="M9 6h1a1 1 0 0 1 1 1v10a1 1 0 0 1-1 1H9a1 1 0 0 1-1-1V7a1 1 0 0 1 1-1zm5 0h1a1 1 0 0 1 1 1v10a1 1 0 0 1-1 1h-1a1 1 0 0 1-1-1V7a1 1 0 0 1 1-1zm-2 18C5.373 24 0 18.627 0 12S5.373 0 12 0s12 5.373 12 12-5.373 12-12 12zm0-1c6.075 0 11-4.925 11-11S18.075 1 12 1 1 5.925 1 12s4.925 11 11 11z"/></svg><svg viewBox="0 0 24 24" id="phone" xmlns="http://www.w3.org/2000/svg"><path fill-rule="evenodd" d="M11.067 3C4.843 3 0 4.96 0 10.98c0 1.257 1.023 1.48 2.286 1.48 1.262 0 2.285-.223 2.285-1.48 0-2.502.848-3.803 2.858-4.305v2.14c0 .024 0 .048.003.07a6.845 6.845 0 0 0-2.037 3.345l-1.407 5.344A2.738 2.738 0 0 0 6.64 21h10.746a2.732 2.732 0 0 0 2.658-3.406L18.68 12.24a6.79 6.79 0 0 0-1.994-3.333V6.731c1.895.538 2.743 1.834 2.743 4.248 0 1.258 1.023 1.48 2.285 1.48 1.263 0 2.286-.222 2.286-1.48C24 4.96 19.157 3 12.933 3h-1.866zM9.029 6.45c.283-.017.581-.025.895-.025h4.037c.399 0 .773.013 1.125.04v1.348c-.92-.454-2.008-.46-3.086-.46-1.077 0-2.05.004-2.971.453V6.45zM12 9.726a4.45 4.45 0 0 1 4.457 4.44A4.45 4.45 0 0 1 12 18.61a4.45 4.45 0 0 1-4.457-4.441A4.45 4.45 0 0 1 12 9.727zm0 7.515a3.08 3.08 0 0 0 3.086-3.074A3.08 3.08 0 0 0 12 11.093a3.08 3.08 0 0 0-3.086 3.075A3.08 3.08 0 0 0 12 17.242z"/></svg><svg viewBox="0 0 24 24" id="play" xmlns="http://www.w3.org/2000/svg"><path d="M9 6.934a.5.5 0 0 1 .777-.416l7.599 5.066a.5.5 0 0 1 0 .832l-7.599 5.066A.5.5 0 0 1 9 17.066V6.934zM12 24C5.373 24 0 18.627 0 12S5.373 0 12 0s12 5.373 12 12-5.373 12-12 12zm0-1c6.075 0 11-4.925 11-11S18.075 1 12 1 1 5.925 1 12s4.925 11 11 11z"/></svg><svg viewBox="0 0 24 24" id="search" xmlns="http://www.w3.org/2000/svg"><path d="M7.218 14.867a7.501 7.501 0 0 1 11.267-9.852 7.5 7.5 0 0 1-9.002 11.83L5.05 21.278a1.5 1.5 0 0 1-2.121-2.121l4.29-4.29zM10 13.5a4.5 4.5 0 1 0 6.364-6.364A4.5 4.5 0 0 0 10 13.5z"/></svg><svg viewBox="0 0 24 24" id="skype" xmlns="http://www.w3.org/2000/svg"><path d="M21.426 14.124c.144-.652.22-1.326.22-2.019 0-5.194-4.27-9.404-9.54-9.404-.555 0-1.1.047-1.631.137A5.555 5.555 0 0 0 7.532 2C4.477 2 2 4.442 2 7.456c0 1.006.278 1.948.76 2.758a9.28 9.28 0 0 0-.193 1.891c0 5.195 4.27 9.406 9.54 9.406a9.73 9.73 0 0 0 1.746-.158c.78.413 1.67.647 2.615.647C19.524 22 22 19.558 22 16.546c0-.87-.206-1.692-.574-2.422zM17 16.6c-.44.615-1.093 1.103-1.938 1.45-.836.342-1.84.517-2.98.517-1.37 0-2.52-.239-3.416-.707a4.437 4.437 0 0 1-1.57-1.375c-.405-.575-.61-1.147-.61-1.699 0-.344.133-.643.397-.887.261-.243.596-.366.996-.366.327 0 .61.097.84.288.22.184.407.456.56.806.169.383.352.705.547.958.188.245.457.45.8.61.346.161.813.243 1.385.243.79 0 1.436-.165 1.923-.493.475-.32.705-.704.705-1.173 0-.372-.12-.663-.367-.893-.261-.24-.603-.424-1.02-.553a20.198 20.198 0 0 0-1.749-.428c-.99-.209-1.831-.457-2.5-.737-.685-.287-1.236-.685-1.64-1.182-.409-.507-.617-1.14-.617-1.885 0-.71.218-1.352.648-1.903.427-.55 1.05-.976 1.852-1.268.791-.288 1.733-.435 2.8-.435.851 0 1.6.098 2.225.289.63.192 1.159.453 1.575.774.42.324.732.668.928 1.028.197.362.298.724.298 1.072 0 .337-.132.642-.392.91a1.32 1.32 0 0 1-.98.402c-.352 0-.63-.085-.821-.251-.178-.157-.364-.4-.57-.749-.237-.444-.525-.796-.855-1.044-.321-.241-.857-.362-1.594-.362-.683 0-1.24.135-1.652.403-.398.256-.592.551-.592.901 0 .215.063.393.192.547.135.164.327.306.568.426.25.125.51.224.768.293.265.074.71.18 1.32.32.771.163 1.482.346 2.108.544.636.201 1.184.447 1.633.735.457.293.818.67 1.075 1.12.258.451.388 1.008.388 1.656 0 .774-.225 1.48-.668 2.098z"/></svg><svg viewBox="0 0 24 24" id="slides" xmlns="http://www.w3.org/2000/svg"><path d="M20.91 18H21V7H3v11h.714L8 13l3 2 5-6 4.91 9zM1 4h22a1 1 0 0 1 1 1v15a1 1 0 0 1-1 1H1a1 1 0 0 1-1-1V5a1 1 0 0 1 1-1zm5.5 8a1.5 1.5 0 1 1 0-3 1.5 1.5 0 0 1 0 3zm12.13 6l-2.977-5.46-4.267 5.121-3.02-2.014L6.347 18h12.283z"/></svg><svg viewBox="0 0 24 24" id="time" xmlns="http://www.w3.org/2000/svg"><path d="M13 11h5v2h-7V6h2v5zm-1 12C5.925 23 1 18.075 1 12S5.925 1 12 1s11 4.925 11 11-4.925 11-11 11zm0-2a9 9 0 1 0 0-18 9 9 0 0 0 0 18z"/></svg><svg viewBox="0 0 24 24" id="video" xmlns="http://www.w3.org/2000/svg"><path fill-rule="evenodd" d="M2 6h12.667a1 1 0 0 1 1 1v10a1 1 0 0 1-1 1H2a1 1 0 0 1-1-1V7a1 1 0 0 1 1-1zm16.046 3.56l3.238-3.32A1 1 0 0 1 23 6.938v10.124a1 1 0 0 1-1.716.698l-3.238-3.32a1 1 0 0 1-.284-.699V10.26a1 1 0 0 1 .284-.699z"/></svg><svg viewBox="0 0 24 24" id="web" xmlns="http://www.w3.org/2000/svg"><path fill-rule="evenodd" d="M17.96 11a14.32 14.32 0 0 0-.51-3.03c.7-.27 1.38-.59 2.03-.97.78 1.17 1.3 2.53 1.46 4h-2.98zm1.52 6c-.65-.38-1.33-.7-2.03-.97.27-.97.45-1.99.51-3.03h2.98a8.947 8.947 0 0 1-1.46 4zm-3.98 3.29c.5-.75.93-1.54 1.29-2.38.47.19.93.4 1.37.64-.77.73-1.67 1.32-2.66 1.74zm-2.5.01v-3.25c.63.04 1.26.13 1.86.27-.48 1.08-1.11 2.08-1.86 2.98zm0-7.3h2.96c-.06.83-.2 1.64-.42 2.42-.82-.2-1.67-.33-2.54-.38V13zm0-4.04c.87-.05 1.72-.18 2.54-.38.22.78.36 1.59.42 2.42H13V8.96zm0-5.26c.75.9 1.38 1.9 1.86 2.98-.6.14-1.23.23-1.86.28V3.7zm5.16 1.75c-.44.24-.9.45-1.37.64-.36-.84-.79-1.63-1.28-2.38a8.89 8.89 0 0 1 2.65 1.74zM11 6.96c-.63-.05-1.26-.14-1.86-.28C9.62 5.6 10.25 4.6 11 3.7v3.26zM11 11H8.05c.05-.83.19-1.64.41-2.42.82.2 1.67.33 2.54.38V11zm0 4.04c-.87.05-1.72.18-2.54.38-.22-.78-.36-1.59-.41-2.42H11v2.04zm0 5.26c-.75-.9-1.38-1.9-1.86-2.98.6-.14 1.23-.23 1.86-.27v3.25zm-5.16-1.75c.44-.24.9-.45 1.37-.64.36.84.79 1.63 1.29 2.38a8.937 8.937 0 0 1-2.66-1.74zM3.06 13h2.98c.06 1.04.24 2.06.51 3.03-.7.27-1.38.59-2.03.97a8.947 8.947 0 0 1-1.46-4zm1.46-6c.65.38 1.33.7 2.03.97-.27.97-.45 1.98-.51 3.03H3.06c.16-1.47.68-2.83 1.46-4zm3.97-3.29c-.49.75-.92 1.54-1.28 2.38-.47-.19-.93-.4-1.37-.64a8.89 8.89 0 0 1 2.65-1.74zm12.65 2.18c-.36-.56-.79-1.08-1.26-1.56a10.829 10.829 0 0 0-6.05-3.17c-.18-.04-.36-.06-.54-.08C12.86 1.03 12.44 1 12 1c-.44 0-.87.03-1.29.08-.18.02-.37.04-.54.08-2.36.39-4.46 1.53-6.05 3.17-.47.48-.9 1-1.26 1.56A10.881 10.881 0 0 0 1 12c0 2.26.68 4.36 1.85 6.11.37.56.8 1.08 1.27 1.56a10.886 10.886 0 0 0 6.05 3.17c.18.04.36.06.55.08.42.05.85.08 1.28.08.43 0 .86-.02 1.28-.08.18-.01.37-.04.55-.08 2.36-.39 4.46-1.53 6.05-3.17.47-.48.9-1 1.27-1.56C22.32 16.36 23 14.26 23 12c0-2.26-.68-4.36-1.86-6.11z"/></svg></defs></svg>