<?xml version="1.0" encoding="utf-8"?><svg xmlns="http://www.w3.org/2000/svg" xmlns:xlink="http://www.w3.org/1999/xlink"><defs><svg viewBox="0 0 24 24" id="calendar" xmlns="http://www.w3.org/2000/svg"><path d="M18 3h1a4 4 0 0 1 4 4v10a4 4 0 0 1-4 4H5a4 4 0 0 1-4-4V7a4 4 0 0 1 4-4h1V1.5a1.5 1.5 0 0 1 3 0V3h6V1.5a1.5 1.5 0 0 1 3 0V3zm-.085 3a1.5 1.5 0 0 1-2.83 0h-6.17a1.5 1.5 0 0 1-2.83 0H5a1 1 0 0 0-1 1v10a1 1 0 0 0 1 1h14a1 1 0 0 0 1-1V7a1 1 0 0 0-1-1h-1.085zM7.5 11.267c-.828 0-1.5-.687-1.5-1.534S6.672 8.2 7.5 8.2 9 8.886 9 9.733c0 .847-.672 1.534-1.5 1.534zm0 4.6c-.828 0-1.5-.687-1.5-1.534S6.672 12.8 7.5 12.8s1.5.686 1.5 1.533c0 .847-.672 1.534-1.5 1.534zm4.5-4.6c-.828 0-1.5-.687-1.5-1.534S11.172 8.2 12 8.2s1.5.686 1.5 1.533c0 .847-.672 1.534-1.5 1.534zm0 4.6c-.828 0-1.5-.687-1.5-1.534S11.172 12.8 12 12.8s1.5.686 1.5 1.533c0 .847-.672 1.534-1.5 1.534zm4.5-4.6c-.828 0-1.5-.687-1.5-1.534S15.672 8.2 16.5 8.2s1.5.686 1.5 1.533c0 .847-.672 1.534-1.5 1.534zm0 4.6c-.828 0-1.5-.687-1.5-1.534s.672-1.533 1.5-1.533 1.5.686 1.5 1.533c0 .847-.672 1.534-1.5 1.534z"/></svg><svg viewBox="0 0 24 24" id="cross" xmlns="http://www.w3.org/2000/svg"><path fill-rule="evenodd" d="M14.621 12.5l6.01 6.01a1.5 1.5 0 0 1-2.12 2.122l-6.011-6.01-6.01 6.01a1.5 1.5 0 0 1-2.122-2.122l6.01-6.01-6.01-6.01A1.5 1.5 0 0 1 6.49 4.368l6.01 6.01 6.01-6.01a1.5 1.5 0 0 1 2.122 2.122l-6.01 6.01z"/></svg><svg viewBox="0 0 24 24" id="graduate" xmlns="http://www.w3.org/2000/svg"><path fill-rule="evenodd" d="M19 13l-.002 2.762C19.086 16.995 15.86 18 12 18c-3.86 0-7.086-1.005-6.998-2.238L5 13l6.475 1.582c.175.044.35.061.525.061.175 0 .35-.017.525-.06L19 13zm5-4.743a.37.37 0 0 1-.23.343l-11.666 3.903c-.041.01-.073.01-.104.01s-.063 0-.104-.01L4.5 10.192c-.594.499-1.01 1.718-1.094 3.214.396.244.656.688.656 1.209 0 .499-.24.931-.604 1.186l.604 4.8c.01.1-.02.2-.083.277a.325.325 0 0 1-.25.122h-2a.325.325 0 0 1-.25-.122.38.38 0 0 1-.083-.277L2 15.8a1.437 1.437 0 0 1-.604-1.186c0-.532.281-.987.677-1.23.062-1.298.375-2.694 1.02-3.659L.23 8.6A.37.37 0 0 1 0 8.257a.37.37 0 0 1 .23-.344l11.666-3.902C11.937 4 11.969 4 12 4s.063 0 .104.011l11.667 3.902a.37.37 0 0 1 .229.344z"/></svg><svg viewBox="0 0 24 24" id="location" xmlns="http://www.w3.org/2000/svg"><path fill-rule="evenodd" d="M12.751 23.154a1 1 0 0 1-1.502 0C5.749 16.89 3 12.172 3 9a9 9 0 1 1 18 0c0 3.172-2.75 7.89-8.249 14.154zM12 15a6 6 0 1 0 0-12 6 6 0 0 0 0 12zm0-3a3 3 0 1 0 0-6 3 3 0 0 0 0 6z"/></svg><svg viewBox="0 0 20 20" id="password-hidden" xmlns="http://www.w3.org/2000/svg"><path d="M13.155 10.546c-.695.215-1.414.355-2.155.416V13a1 1 0 1 1-2 0v-2.057a10.396 10.396 0 0 1-2.13-.446l-.976 1.95a1 1 0 0 1-1.788-.894l.922-1.845a12.585 12.585 0 0 1-1.982-1.34l-1.339 1.34A1 1 0 1 1 .293 8.292L2.29 6.296l.003-.003a1 1 0 0 1 1.393-.02c1.959 1.829 4.085 2.726 6.418 2.726 2.326 0 4.372-.89 6.189-2.706a.997.997 0 0 1 1.414 0l2 2a1 1 0 1 1-1.414 1.414l-1.32-1.319c-.63.542-1.288 1-1.974 1.375l.895 1.79a1 1 0 0 1-1.788.894l-.951-1.901z" fill="#8B9CA7" fill-rule="nonzero"/></svg><svg viewBox="0 0 24 24" id="pause" xmlns="http://www.w3.org/2000/svg"><path fill-rule="evenodd" d="M9 6h1a1 1 0 0 1 1 1v10a1 1 0 0 1-1 1H9a1 1 0 0 1-1-1V7a1 1 0 0 1 1-1zm5 0h1a1 1 0 0 1 1 1v10a1 1 0 0 1-1 1h-1a1 1 0 0 1-1-1V7a1 1 0 0 1 1-1zm-2 18C5.373 24 0 18.627 0 12S5.373 0 12 0s12 5.373 12 12-5.373 12-12 12zm0-1c6.075 0 11-4.925 11-11S18.075 1 12 1 1 5.925 1 12s4.925 11 11 11z"/></svg><svg viewBox="0 0 24 24" id="play" xmlns="http://www.w3.org/2000/svg"><path d="M9 6.934a.5.5 0 0 1 .777-.416l7.599 5.066a.5.5 0 0 1 0 .832l-7.599 5.066A.5.5 0 0 1 9 17.066V6.934zM12 24C5.373 24 0 18.627 0 12S5.373 0 12 0s12 5.373 12 12-5.373 12-12 12zm0-1c6.075 0 11-4.925 11-11S18.075 1 12 1 1 5.925 1 12s4.925 11 11 11z"/></svg><svg viewBox="0 0 24 24" id="search" xmlns="http://www.w3.org/2000/svg"><path d="M7.218 14.867a7.501 7.501 0 0 1 11.267-9.852 7.5 7.5 0 0 1-9.002 11.83L5.05 21.278a1.5 1.5 0 0 1-2.121-2.121l4.29-4.29zM10 13.5a4.5 4.5 0 1 0 6.364-6.364A4.5 4.5 0 0 0 10 13.5z"/></svg><svg viewBox="0 0 24 24" id="slides" xmlns="http://www.w3.org/2000/svg"><path d="M20.91 18H21V7H3v11h.714L8 13l3 2 5-6 4.91 9zM1 4h22a1 1 0 0 1 1 1v15a1 1 0 0 1-1 1H1a1 1 0 0 1-1-1V5a1 1 0 0 1 1-1zm5.5 8a1.5 1.5 0 1 1 0-3 1.5 1.5 0 0 1 0 3zm12.13 6l-2.977-5.46-4.267 5.121-3.02-2.014L6.347 18h12.283z"/></svg><svg viewBox="0 0 24 24" id="video" xmlns="http://www.w3.org/2000/svg"><path fill-rule="evenodd" d="M2 6h12.667a1 1 0 0 1 1 1v10a1 1 0 0 1-1 1H2a1 1 0 0 1-1-1V7a1 1 0 0 1 1-1zm16.046 3.56l3.238-3.32A1 1 0 0 1 23 6.938v10.124a1 1 0 0 1-1.716.698l-3.238-3.32a1 1 0 0 1-.284-.699V10.26a1 1 0 0 1 .284-.699z"/></svg></defs></svg>