<svg xmlns="http://www.w3.org/2000/svg" viewBox="0 0 76.21 77.94"><defs><style>.cls-1{fill:#22b573;}</style></defs><title>Asset 14</title><g id="Layer_2" data-name="Layer 2"><g id="Текст"><path class="cls-1" d="M63.84,35.23a12.31,12.31,0,0,0-4.92,1v-19H40.81a12.37,12.37,0,1,0-22.71,0H0V42.44H4.15A7.49,7.49,0,0,1,9.68,40a7.57,7.57,0,1,1,0,15.14,7.49,7.49,0,0,1-5.53-2.41H0V77.94H58.91v-19a12.37,12.37,0,1,0,4.92-23.71Zm0,19.94a7.49,7.49,0,0,1-5.56-2.45H54.11V73.14H4.8V59a12.37,12.37,0,1,0,0-22.71V22.05H24.3V17.9a7.5,7.5,0,0,1-2.41-5.53,7.57,7.57,0,0,1,15.14,0,7.49,7.49,0,0,1-2.41,5.53v4.15h19.5V42.47h4.16A7.49,7.49,0,0,1,63.84,40a7.57,7.57,0,1,1,0,15.14Z"/></g></g></svg>