<svg xmlns="http://www.w3.org/2000/svg" width="24" height="24" viewBox="0 0 24 24">
  <path d="M18,3 L19,3 C21.209139,3 23,4.790861 23,7 L23,17 C23,19.209139 21.209139,21 19,21 L5,21 C2.790861,21 1,19.209139 1,17 L1,7 C1,4.790861 2.790861,3 5,3 L6,3 L6,1.5 C6,0.671572875 6.67157288,1.52179594e-16 7.5,0 C8.32842712,-1.52179594e-16 9,0.671572875 9,1.5 L9,3 L15,3 L15,1.5 C15,0.671572875 15.6715729,1.52179594e-16 16.5,0 C17.3284271,-1.52179594e-16 18,0.671572875 18,1.5 L18,3 Z M17.9146471,6 C17.7087289,6.58259619 17.1531094,7 16.5,7 C15.8468906,7 15.2912711,6.58259619 15.0853529,6 L8.91464715,6 C8.70872894,6.58259619 8.15310941,7 7.5,7 C6.84689059,7 6.29127106,6.58259619 6.08535285,6 L5,6 C4.44771525,6 4,6.44771525 4,7 L4,17 C4,17.5522847 4.44771525,18 5,18 L19,18 C19.5522847,18 20,17.5522847 20,17 L20,7 C20,6.44771525 19.5522847,6 19,6 L17.9146471,6 Z M7.5,11.2666667 C6.67157288,11.2666667 6,10.5801699 6,9.73333333 C6,8.88649672 6.67157288,8.2 7.5,8.2 C8.32842712,8.2 9,8.88649672 9,9.73333333 C9,10.5801699 8.32842712,11.2666667 7.5,11.2666667 Z M7.5,15.8666667 C6.67157288,15.8666667 6,15.1801699 6,14.3333333 C6,13.4864967 6.67157288,12.8 7.5,12.8 C8.32842712,12.8 9,13.4864967 9,14.3333333 C9,15.1801699 8.32842712,15.8666667 7.5,15.8666667 Z M12,11.2666667 C11.1715729,11.2666667 10.5,10.5801699 10.5,9.73333333 C10.5,8.88649672 11.1715729,8.2 12,8.2 C12.8284271,8.2 13.5,8.88649672 13.5,9.73333333 C13.5,10.5801699 12.8284271,11.2666667 12,11.2666667 Z M12,15.8666667 C11.1715729,15.8666667 10.5,15.1801699 10.5,14.3333333 C10.5,13.4864967 11.1715729,12.8 12,12.8 C12.8284271,12.8 13.5,13.4864967 13.5,14.3333333 C13.5,15.1801699 12.8284271,15.8666667 12,15.8666667 Z M16.5,11.2666667 C15.6715729,11.2666667 15,10.5801699 15,9.73333333 C15,8.88649672 15.6715729,8.2 16.5,8.2 C17.3284271,8.2 18,8.88649672 18,9.73333333 C18,10.5801699 17.3284271,11.2666667 16.5,11.2666667 Z M16.5,15.8666667 C15.6715729,15.8666667 15,15.1801699 15,14.3333333 C15,13.4864967 15.6715729,12.8 16.5,12.8 C17.3284271,12.8 18,13.4864967 18,14.3333333 C18,15.1801699 17.3284271,15.8666667 16.5,15.8666667 Z"/>
</svg>
