<svg xmlns="http://www.w3.org/2000/svg" width="24" height="24" viewBox="0 0 24 24">
  <path fill-rule="evenodd" d="M14,11 L22.5,11 C23.3284271,11 24,11.6715729 24,12.5 C24,13.3284271 23.3284271,14 22.5,14 L14,14 L14,22.5 C14,23.3284271 13.3284271,24 12.5,24 C11.6715729,24 11,23.3284271 11,22.5 L11,14 L2.5,14 C1.67157288,14 1,13.3284271 1,12.5 C1,11.6715729 1.67157288,11 2.5,11 L11,11 L11,2.5 C11,1.67157288 11.6715729,1 12.5,1 C13.3284271,1 14,1.67157288 14,2.5 L14,11 Z" transform="rotate(45 12.5 12.5)"/>
</svg>
