<svg xmlns="http://www.w3.org/2000/svg" width="24" height="24" viewBox="0 0 24 24">
  <path fill-rule="evenodd" d="M10.2549446,8.61309081 C9.21304885,7.88489236 7.90073968,7.54510978 6.55475525,7.66946784 C4.44973708,7.7450998 3.3160164,10.5884059 3.77593123,14.6303562 C4.21619211,18.5030156 6.34677,21.4371806 8.6328673,21.3797466 C9.04402431,21.4033665 9.45199437,21.3140683 9.80238667,21.1251319 L10.3824243,22.2827232 C9.69091425,22.671808 8.91197097,22.9065181 8.12105244,22.9684993 C4.19437033,23.3716414 0.599786991,19.856944 0.0667886957,15.1984939 C-0.467545718,10.5331536 2.26096304,6.4003918 6.2205689,6.02072497 C7.97516484,5.88224042 9.71295861,6.44223577 11,7.56672562 L10.2549446,8.61309081 Z M14.5187979,6.63082603 C15.5241347,6.68137948 16.4908013,6.90398022 17.3878866,7.28788036 C20.6334023,8.68262011 22.37851,12.1174542 21.9306442,15.9835422 C21.3422353,20.7399482 17.6533552,24.3512949 13.5855224,23.9727526 C12.7537136,23.8980632 11.9517228,23.648041 11.2418098,23.2414523 L11.916795,22.1522218 C12.2678189,22.3417376 12.67263,22.4306104 13.1382543,22.4059162 C15.4032156,22.4650456 17.6057251,19.422889 18.061703,15.4039194 C18.4334284,12.1305343 17.7578688,9.65495506 16.1542945,8.66017033 C15.5908241,8.31991003 14.932587,8.13318657 14.2363917,8.12151206 C11.484137,7.99726938 9.87625587,6.24664136 10.0074557,3.85208058 C10.1286653,1.63985548 11.7250067,-0.0883602932 13.7010691,0.00349887267 C14.5776908,0.0609773429 15.3879002,0.461983991 15.9261949,1.10733701 L14.9281113,1.94207338 C14.609444,1.63549416 14.1736714,1.45056003 13.671068,1.42342032 C13.0828505,1.3602163 12.495444,2.32894637 12.4025341,3.91450731 C12.3030086,5.59684253 13.0153061,6.59678438 14.5187979,6.63082603 Z" transform="translate(1)"/>
</svg>
