<svg xmlns="http://www.w3.org/2000/svg" width="18" height="18" viewBox="0 0 18 18">
  <path fill-rule="evenodd" d="M14,10 L13.9987582,12.3397779 C14.0612427,13.3837927 11.7571276,14.2352941 9,14.2352941 C6.24287241,14.2352941 3.93875728,13.3837927 4.00124175,12.3397779 L4,10 L8.62509313,11.3401892 C8.75006209,11.377211 8.87503104,11.3920197 9,11.3920197 C9.12496896,11.3920197 9.24993791,11.377211 9.37490687,11.3401892 L14,10 Z M18,7.18155475 C18,7.29754893 17.9296875,7.39697252 17.828125,7.43839901 L9.078125,10.3548242 C9.046875,10.3631095 9.0234375,10.3631095 9,10.3631095 C8.9765625,10.3631095 8.953125,10.3631095 8.921875,10.3548242 L3.375,8.627716 C2.9296875,9.00055445 2.6171875,9.91193732 2.5546875,11.0304527 C2.8515625,11.2127292 3.046875,11.5441412 3.046875,11.9335502 C3.046875,12.3063887 2.8671875,12.6295153 2.59375,12.8200772 L3.046875,16.4076116 C3.0546875,16.4821793 3.03125,16.556747 2.984375,16.6147441 C2.9375,16.6727412 2.8671875,16.7058824 2.796875,16.7058824 L1.296875,16.7058824 C1.2265625,16.7058824 1.15625,16.6727412 1.109375,16.6147441 C1.0625,16.556747 1.0390625,16.4821793 1.046875,16.4076116 L1.5,12.8200772 C1.2265625,12.6295153 1.046875,12.3063887 1.046875,11.9335502 C1.046875,11.5358559 1.2578125,11.1961586 1.5546875,11.0138821 C1.6015625,10.0445021 1.8359375,9.00055445 2.3203125,8.27973345 L0.171875,7.43839901 C0.0703125,7.39697252 0,7.29754893 0,7.18155475 C0,7.06556057 0.0703125,6.96613698 0.171875,6.92471049 L8.921875,4.0082853 C8.953125,4 8.9765625,4 9,4 C9.0234375,4 9.046875,4 9.078125,4.0082853 L17.828125,6.92471049 C17.9296875,6.96613698 18,7.06556057 18,7.18155475 Z"/>
</svg>
