<svg xmlns="http://www.w3.org/2000/svg" width="24" height="24" viewBox="0 0 24 24">
  <path fill-rule="evenodd" d="M19,13 L18.9982615,15.7622378 C19.0857398,16.9947552 15.8599786,18 12,18 C8.14002137,18 4.91426019,16.9947552 5.00173846,15.7622378 L5,13 L11.4751304,14.5821678 C11.6500869,14.6258741 11.8250435,14.6433566 12,14.6433566 C12.1749565,14.6433566 12.3499131,14.6258741 12.5248696,14.5821678 L19,13 Z M24,8.25680242 C24,8.41199834 23.90625,8.54502342 23.7708333,8.60045053 L12.1041667,12.5025194 C12.0625,12.5136048 12.03125,12.5136048 12,12.5136048 C11.96875,12.5136048 11.9375,12.5136048 11.8958333,12.5025194 L4.5,10.1917126 C3.90625,10.6905566 3.48958333,11.9099532 3.40625,13.4064853 C3.80208333,13.6503646 4.0625,14.0937815 4.0625,14.6147964 C4.0625,15.1136404 3.82291667,15.5459719 3.45833333,15.8009366 L4.0625,20.6009248 C4.07291667,20.7006936 4.04166667,20.8004624 3.97916667,20.8780603 C3.91666667,20.9556583 3.82291667,21 3.72916667,21 L1.72916667,21 C1.63541667,21 1.54166667,20.9556583 1.47916667,20.8780603 C1.41666667,20.8004624 1.38541667,20.7006936 1.39583333,20.6009248 L2,15.8009366 C1.63541667,15.5459719 1.39583333,15.1136404 1.39583333,14.6147964 C1.39583333,14.0826961 1.67708333,13.6281937 2.07291667,13.3843144 C2.13541667,12.0873199 2.44791667,10.6905566 3.09375,9.72612484 L0.229166667,8.60045053 C0.09375,8.54502342 0,8.41199834 0,8.25680242 C0,8.1016065 0.09375,7.96858142 0.229166667,7.91315431 L11.8958333,4.01108542 C11.9375,4 11.96875,4 12,4 C12.03125,4 12.0625,4 12.1041667,4.01108542 L23.7708333,7.91315431 C23.90625,7.96858142 24,8.1016065 24,8.25680242 Z"/>
</svg>
