<svg xmlns="http://www.w3.org/2000/svg" width="16" height="16" viewBox="0 0 16 16">
  <path fill-rule="evenodd" d="M8.76672608,15.6337139 C12.2555754,11.4668861 14,8.31928722 14,6.19091714 C14,2.77176225 11.3140996,0 8,0 C4.68659842,0 2,2.77176225 2,6.19091714 C2,8.31928779 3.74442557,11.4668878 7.23327672,15.6337172 L7.23328064,15.6337139 C7.58783113,16.0571632 8.21852454,16.1130167 8.64197379,15.7584662 C8.68715212,15.7206387 8.72889865,15.6788922 8.76672608,15.6337139 Z M4,6.17413637 C4,3.8943523 5.7916594,2.04661827 8,2.04661827 L8,2.04661827 C10.2097365,2.04661827 12,3.8943523 12,6.17413637 L12,6.17413637 C12,8.45248027 10.2097365,10.3002143 8,10.3002143 L8,10.3002143 C5.7916594,10.3002143 4,8.45248027 4,6.17413637 L4,6.17413637 Z M6,6.15699559 C6,7.29616755 6.89617868,8.22003456 7.99965102,8.22003456 L7.99965102,8.22003456 C9.10451928,8.22003456 10,7.29616755 10,6.15699559 L10,6.15699559 C10,5.01710356 9.10451928,4.09323655 7.99965102,4.09323655 L7.99965102,4.09323655 C6.89617868,4.09323655 6,5.01710356 6,6.15699559 L6,6.15699559 Z"/>
</svg>
