<svg xmlns="http://www.w3.org/2000/svg" width="24" height="24" viewBox="0 0 24 24">
  <path fill-rule="evenodd" d="M12.7514681,23.1535326 C12.7229177,23.1860512 12.6922866,23.2166823 12.659768,23.2452327 C12.2447502,23.609606 11.6129289,23.5685505 11.2485556,23.1535327 L11.2485423,23.1535444 C5.7495141,16.8902022 3,12.172354 3,9 C3,4.02943725 7.02943725,0 12,0 C16.9705627,0 21,4.02943725 21,9 C21,12.1723521 18.2504894,16.8901962 12.7514681,23.1535326 Z M12,15 C15.3137085,15 18,12.3137085 18,9 C18,5.6862915 15.3137085,3 12,3 C8.6862915,3 6,5.6862915 6,9 C6,12.3137085 8.6862915,15 12,15 Z M12,12 C13.6568542,12 15,10.6568542 15,9 C15,7.34314575 13.6568542,6 12,6 C10.3431458,6 9,7.34314575 9,9 C9,10.6568542 10.3431458,12 12,12 Z"/>
</svg>
