<svg xmlns="http://www.w3.org/2000/svg" width="16" height="16" viewBox="0 0 16 16">
  <path fill-rule="evenodd" d="M8.75926519,15.2863122 C12.2530884,11.2100753 14,8.13127094 14,6.04989921 C14,2.7086265 11.3140996,0 8,0 C4.68659842,0 2,2.7086265 2,6.04989921 C2,8.13127103 3.74691175,11.2100756 7.24073525,15.2863128 L7.24073585,15.2863123 C7.60015214,15.7056426 8.23145098,15.7542125 8.65078127,15.3947962 C8.68966724,15.3614662 8.72593526,15.3251982 8.75926519,15.2863122 Z M4,6.03350067 C4,3.80564598 5.7916594,2 8,2 L8,2 C10.2097365,2 12,3.80564598 12,6.03350067 L12,6.03350067 C12,8.25994801 10.2097365,10.065594 8,10.065594 L8,10.065594 C5.7916594,10.065594 4,8.25994801 4,6.03350067 L4,6.03350067 Z M6,6.01675034 C6,7.12997401 6.89617868,8.03279699 7.99965102,8.03279699 L7.99965102,8.03279699 C9.10451928,8.03279699 10,7.12997401 10,6.01675034 L10,6.01675034 C10,4.90282299 9.10451928,4 7.99965102,4 L7.99965102,4 C6.89617868,4 6,4.90282299 6,6.01675034 L6,6.01675034 Z"/>
</svg>
