<?xml version="1.0" encoding="UTF-8"?>
<svg width="20px" height="20px" viewBox="0 0 20 20" version="1.1" xmlns="http://www.w3.org/2000/svg" xmlns:xlink="http://www.w3.org/1999/xlink">
    <!-- Generator: Sketch 51.1 (57501) - http://www.bohemiancoding.com/sketch -->
    <title>icons/eye-close</title>
    <desc>Created with Sketch.</desc>
    <defs></defs>
    <g id="icons/eye-close" stroke="none" stroke-width="1" fill="none" fill-rule="evenodd">
        <path d="M13.1547694,10.5456077 C12.4597653,10.7614471 11.7412064,10.9005562 11,10.9622682 L11,13.0000009 C11,13.5522857 10.5522847,14.0000009 10,14.0000009 C9.44771525,14.0000009 9,13.5522857 9,13.0000009 L9,10.9431753 C8.27228143,10.8686087 7.56191718,10.719621 6.86961308,10.4968427 L5.89442719,12.4472145 C5.64743794,12.941193 5.0467649,13.1414173 4.5527864,12.8944281 C4.05880791,12.6474388 3.85858356,12.0467658 4.10557281,11.5527873 L5.02819916,9.70753461 C4.34710125,9.33921692 3.68598531,8.8926677 3.0456309,8.36858357 L1.70710678,9.70710769 C1.31658249,10.097632 0.683417511,10.097632 0.292893219,9.70710769 C-0.0976310729,9.3165834 -0.0976310729,8.68341842 0.292893219,8.29289413 L2.28997967,6.29580768 C2.29094674,6.29483154 2.29191537,6.2938578 2.29288554,6.29288645 C2.67638317,5.90940417 3.29385138,5.90249654 3.68577043,6.27217123 C5.64460525,8.10202077 7.7708309,8.99913029 10.1043202,8.99913029 C12.4296736,8.99913029 14.4762407,8.10901943 16.2929958,6.29279152 C16.4882692,6.09757481 16.744178,5.99998087 17.0000779,6.00000091 C17.2559672,6.00001801 17.5118617,6.09764908 17.7071068,6.29289413 L19.7071068,8.29289413 C20.0976311,8.68341842 20.0976311,9.3165834 19.7071068,9.70710769 C19.3165825,10.097632 18.6834175,10.097632 18.2928932,9.70710769 L16.9737941,8.38800854 C16.3433845,8.9300743 15.6848987,9.38857163 14.9993948,9.76272258 L15.8944272,11.5527873 C16.1414164,12.0467658 15.9411921,12.6474388 15.4472136,12.8944281 C14.9532351,13.1414173 14.3525621,12.941193 14.1055728,12.4472145 L13.1547694,10.5456077 Z" id="password-hidden" fill="#8B9CA7" fill-rule="nonzero"></path>
    </g>
</svg>