<svg xmlns="http://www.w3.org/2000/svg" width="24" height="24" viewBox="0 0 24 24">
  <path d="M9,6.93425855 C9,6.83554605 9.02921901,6.73904221 9.08397485,6.65690845 C9.23715108,6.4271441 9.54758575,6.36505717 9.7773501,6.5182334 L17.3759623,11.5839749 C17.4308884,11.6205923 17.4780199,11.6677238 17.5146373,11.7226499 C17.6678136,11.9524142 17.6057266,12.2628489 17.3759623,12.4160251 L9.7773501,17.4817666 C9.69521634,17.5365224 9.59871249,17.5657415 9.5,17.5657415 C9.22385763,17.5657415 9,17.3418838 9,17.0657415 L9,6.93425855 Z M12,24 C5.372583,24 8.8817842e-15,18.627417 8.8817842e-15,12 C8.8817842e-15,5.372583 5.372583,1.77635684e-15 12,1.77635684e-15 C18.627417,1.77635684e-15 24,5.372583 24,12 C24,18.627417 18.627417,24 12,24 Z M12,23 C18.0751322,23 23,18.0751322 23,12 C23,5.92486775 18.0751322,1 12,1 C5.92486775,1 1,5.92486775 1,12 C1,18.0751322 5.92486775,23 12,23 Z"/>
</svg>
