<?xml version="1.0" encoding="UTF-8"?>
<svg width="20px" height="20px" viewBox="0 0 20 20" version="1.1" xmlns="http://www.w3.org/2000/svg" xmlns:xlink="http://www.w3.org/1999/xlink">
    <!-- Generator: Sketch 51.1 (57501) - http://www.bohemiancoding.com/sketch -->
    <title>icons/search/normal copy</title>
    <desc>Created with Sketch.</desc>
    <defs></defs>
    <g id="icons/search/normal" stroke="none" stroke-width="1" fill="none" fill-rule="evenodd">
        <path d="M10.9975507,13.929461 C10.9991745,13.9527631 11,13.9762852 11,14 L11,20 C11,20.5522847 10.5522847,21 10,21 C9.44771525,21 9,20.5522847 9,20 L9,14 C9,13.9762852 9.0008255,13.9527631 9.00244933,13.929461 C5.60896116,13.4452857 3,10.5273206 3,7 C3,3.13400675 6.13400675,2.84217094e-14 10,2.84217094e-14 C13.8659932,2.84217094e-14 17,3.13400675 17,7 C17,10.5273206 14.3910388,13.4452857 10.9975507,13.929461 Z M10,12 C12.7614237,12 15,9.76142375 15,7 C15,4.23857625 12.7614237,2 10,2 C7.23857625,2 5,4.23857625 5,7 C5,9.76142375 7.23857625,12 10,12 Z" id="Combined-Shape" fill="#8B9CA7" transform="translate(10.000000, 10.500000) rotate(45.000000) translate(-10.000000, -10.500000) "></path>
    </g>
</svg>