<svg xmlns="http://www.w3.org/2000/svg" width="24" height="24" viewBox="0 0 24 24">
  <path d="M7,15.4339143 C3.33064054,14.9450222 0.5,11.8030768 0.5,8 C0.5,3.85786438 3.85786438,0.5 8,0.5 C12.1421356,0.5 15.5,3.85786438 15.5,8 C15.5,11.449531 13.171187,14.3551385 10,15.2303836 L10,21.5 C10,22.3284271 9.32842712,23 8.5,23 C7.67157288,23 7,22.3284271 7,21.5 L7,15.4339143 Z M8,12.5 C10.4852814,12.5 12.5,10.4852814 12.5,8 C12.5,5.51471863 10.4852814,3.5 8,3.5 C5.51471863,3.5 3.5,5.51471863 3.5,8 C3.5,10.4852814 5.51471863,12.5 8,12.5 Z" transform="rotate(45 7.793 15.414)"/>
</svg>
