<svg xmlns="http://www.w3.org/2000/svg" width="24" height="24" viewBox="0 0 24 24">
  <path d="M21.426314,14.1238032 C21.5704479,13.4718693 21.6457721,12.7978563 21.6457721,12.1049758 C21.6457721,6.91118203 17.3755009,2.70050782 12.1068786,2.70050782 C11.5511082,2.70050782 11.006331,2.74827884 10.4749901,2.83779932 C9.62321591,2.30790229 8.61387167,2 7.53246049,2 C4.47674103,2 2,4.44234359 2,7.4555308 C2,8.46193372 2.27808879,9.4041067 2.76016365,10.2138054 C2.63313041,10.8243913 2.56717085,11.4574577 2.56717085,12.1049758 C2.56717085,17.2999739 6.83744209,21.5106481 12.1064715,21.5106481 C12.703772,21.5106481 13.2864148,21.4564541 13.8527714,21.3532848 C14.6320714,21.7655607 15.5221184,22 16.4683532,22 C19.5236655,22 21.9999994,19.5580578 21.9999994,16.5456735 C22.0004066,15.6753578 21.7935704,14.8540174 21.426314,14.1238032 Z M16.999287,16.5998675 C16.5587423,17.2152707 15.9064754,17.7034182 15.0612158,18.0494571 C14.2245065,18.3922844 13.2216767,18.5665081 12.0808205,18.5665081 C10.7107345,18.5665081 9.56132792,18.3284559 8.66517355,17.8595773 C8.02389998,17.5187572 7.49581629,17.0571044 7.09435868,16.4850565 C6.6896438,15.9097971 6.48443626,15.3381506 6.48443626,14.7861745 C6.48443626,14.4421429 6.61798402,14.1430722 6.88182229,13.898597 C7.14321761,13.6561289 7.47790134,13.5332892 7.87773033,13.5332892 C8.20549237,13.5332892 8.48846706,13.6296341 8.71810407,13.8207182 C8.93756214,14.0049778 9.12526189,14.2767508 9.27713176,14.6272054 C9.44650942,15.009775 9.63013759,15.332129 9.82516619,15.584633 C10.0128659,15.8295096 10.2815901,16.034644 10.6252313,16.1952189 C10.9713155,16.3561952 11.4379183,16.4384898 12.0103822,16.4384898 C12.7994541,16.4384898 13.4464279,16.2726963 13.9325743,15.9451235 C14.4081346,15.6255796 14.6377717,15.2414042 14.6377717,14.7717228 C14.6377717,14.4003934 14.5176601,14.1093515 14.2705153,13.879328 C14.0095271,13.63967 13.6679217,13.4546075 13.2518064,13.3257462 C12.8185905,13.1928705 12.2298403,13.0483531 11.5022493,12.8978142 C10.5112271,12.6890669 9.67085338,12.4409787 9.00189307,12.161177 C8.31705362,11.873748 7.76576192,11.4755224 7.36267568,10.9785432 C6.95348207,10.4723309 6.74542442,9.839666 6.74542442,9.09379579 C6.74542442,8.38325204 6.96325386,7.74215692 7.39321252,7.19058228 C7.81950676,6.64181771 8.44286538,6.21468859 9.24496629,5.92324522 C10.0360739,5.63461191 10.97783,5.48808735 12.0441763,5.48808735 C12.8959505,5.48808735 13.6443066,5.58603802 14.2701081,5.77672066 C14.899167,5.96941049 15.4288793,6.23034463 15.8454018,6.55109291 C16.2643672,6.87465125 16.5770644,7.21948576 16.7733144,7.57917344 C16.9703788,7.94126975 17.0705396,8.30256318 17.0705396,8.65141206 C17.0705396,8.98781638 16.9394348,9.29331005 16.679261,9.56026575 C16.4174585,9.82762289 16.088475,9.96330864 15.6996393,9.96330864 C15.3466334,9.96330864 15.0697661,9.87780253 14.8779948,9.71160756 C14.6996596,9.55464563 14.5144028,9.3121776 14.3087881,8.96332872 C14.071008,8.51853636 13.7831474,8.16687742 13.4529424,7.9191907 C13.1316949,7.67792698 12.5958752,7.5570944 11.8593267,7.5570944 C11.1761158,7.5570944 10.6195311,7.69197728 10.2066731,7.95973585 C9.80887988,8.21625419 9.61507275,8.51131049 9.61507275,8.86096224 C9.61507275,9.07573112 9.67777506,9.25396921 9.80684409,9.40812107 C9.94202049,9.57230887 10.1337918,9.71441762 10.3748293,9.83444732 C10.6252313,9.95929427 10.8845908,10.0576464 11.1431361,10.1274964 C11.4077886,10.200558 11.852405,10.3077417 12.4623274,10.446639 C13.2342986,10.6104253 13.944789,10.7930792 14.5714049,10.9913892 C15.2073854,11.1921077 15.7554199,11.4381887 16.2041078,11.7260191 C16.6605317,12.0190683 17.022495,12.3952149 17.2794116,12.8456273 C17.5371425,13.2972441 17.667433,13.8544389 17.667433,14.5023584 C17.667433,15.2755264 17.4422747,15.9828586 16.999287,16.5998675 Z"/>
</svg>
