<svg xmlns="http://www.w3.org/2000/svg" width="24" height="24" viewBox="0 0 24 24">
  <path d="M20.9090909,18 L21,18 L21,7 L3,7 L3,18 L3.71428571,18 L8,13 L11,15 L16,9 L20.9090909,18 Z M1,4 L23,4 C23.5522847,4 24,4.44771525 24,5 L24,20 C24,20.5522847 23.5522847,21 23,21 L1,21 C0.44771525,21 6.76353751e-17,20.5522847 0,20 L0,5 C-6.76353751e-17,4.44771525 0.44771525,4 1,4 Z M6.5,12 C5.67157288,12 5,11.3284271 5,10.5 C5,9.67157288 5.67157288,9 6.5,9 C7.32842712,9 8,9.67157288 8,10.5 C8,11.3284271 7.32842712,12 6.5,12 Z M18.6309156,18 L15.6530039,12.5404952 L11.385928,17.6609862 L8.36517126,15.6471484 L6.34844127,18 L18.6309156,18 Z"/>
</svg>
