<svg xmlns="http://www.w3.org/2000/svg" width="24" height="24" viewBox="0 0 24 24">
  <path fill-rule="evenodd" d="M2,6 L14.6666667,6 C15.2189514,6 15.6666667,6.44771525 15.6666667,7 L15.6666667,17 C15.6666667,17.5522847 15.2189514,18 14.6666667,18 L2,18 C1.44771525,18 1,17.5522847 1,17 L1,7 C1,6.44771525 1.44771525,6 2,6 Z M18.0460106,9.56038804 L21.2841058,6.24027282 C21.6697159,5.84489537 22.3028313,5.83697734 22.6982088,6.2225874 C22.89118,6.41079149 23,6.66892886 23,6.9384816 L23,17.0615184 C23,17.6138032 22.5522847,18.0615184 22,18.0615184 C21.7304473,18.0615184 21.4723099,17.9526984 21.2841058,17.7597272 L18.0460106,14.439612 C17.8638579,14.2528455 17.7619048,14.0022888 17.7619048,13.7414032 L17.7619048,10.2585968 C17.7619048,9.99771118 17.8638579,9.74715455 18.0460106,9.56038804 Z"/>
</svg>