<svg xmlns="http://www.w3.org/2000/svg" width="24" height="24" viewBox="0 0 24 24">
  <path fill-rule="evenodd" d="M17.9601,11.0001 C17.9001,9.9501 17.7201,8.9401 17.4501,7.9701 C18.1501,7.7001 18.8301,7.3801 19.4801,7.0001 C20.2601,8.1701 20.7801,9.5301 20.9401,11.0001 L17.9601,11.0001 Z M19.4801,17.0001 C18.8301,16.6201 18.1501,16.3001 17.4501,16.0301 C17.7201,15.0601 17.9001,14.0401 17.9601,13.0001 L20.9401,13.0001 C20.7801,14.4701 20.2601,15.8301 19.4801,17.0001 L19.4801,17.0001 Z M15.5001,20.2901 C16.0001,19.5401 16.4301,18.7501 16.7901,17.9101 C17.2601,18.1001 17.7201,18.3101 18.1601,18.5501 C17.3901,19.2801 16.4901,19.8701 15.5001,20.2901 L15.5001,20.2901 Z M13.0001,20.3001 L13.0001,17.0501 C13.6301,17.0901 14.2601,17.1801 14.8601,17.3201 C14.3801,18.4001 13.7501,19.4001 13.0001,20.3001 L13.0001,20.3001 Z M13.0001,13.0001 L15.9601,13.0001 C15.9001,13.8301 15.7601,14.6401 15.5401,15.4201 C14.7201,15.2201 13.8701,15.0901 13.0001,15.0401 L13.0001,13.0001 Z M13.0001,8.9601 C13.8701,8.9101 14.7201,8.7801 15.5401,8.5801 C15.7601,9.3601 15.9001,10.1701 15.9601,11.0001 L13.0001,11.0001 L13.0001,8.9601 Z M13.0001,3.7001 C13.7501,4.6001 14.3801,5.6001 14.8601,6.6801 C14.2601,6.8201 13.6301,6.9101 13.0001,6.9601 L13.0001,3.7001 Z M18.1601,5.4501 C17.7201,5.6901 17.2601,5.9001 16.7901,6.0901 C16.4301,5.2501 16.0001,4.4601 15.5101,3.7101 C16.5001,4.1301 17.3901,4.7201 18.1601,5.4501 L18.1601,5.4501 Z M11.0001,6.9601 C10.3701,6.9101 9.7401,6.8201 9.1401,6.6801 C9.6201,5.6001 10.2501,4.6001 11.0001,3.7001 L11.0001,6.9601 Z M11.0001,11.0001 L8.0501,11.0001 C8.1001,10.1701 8.2401,9.3601 8.4601,8.5801 C9.2801,8.7801 10.1301,8.9101 11.0001,8.9601 L11.0001,11.0001 Z M11.0001,15.0401 C10.1301,15.0901 9.2801,15.2201 8.4601,15.4201 C8.2401,14.6401 8.1001,13.8301 8.0501,13.0001 L11.0001,13.0001 L11.0001,15.0401 Z M11.0001,20.3001 C10.2501,19.4001 9.6201,18.4001 9.1401,17.3201 C9.7401,17.1801 10.3701,17.0901 11.0001,17.0501 L11.0001,20.3001 Z M5.8401,18.5501 C6.2801,18.3101 6.7401,18.1001 7.2101,17.9101 C7.5701,18.7501 8.0001,19.5401 8.5001,20.2901 C7.5101,19.8701 6.6101,19.2801 5.8401,18.5501 L5.8401,18.5501 Z M3.0601,13.0001 L6.0401,13.0001 C6.1001,14.0401 6.2801,15.0601 6.5501,16.0301 C5.8501,16.3001 5.1701,16.6201 4.5201,17.0001 C3.7401,15.8301 3.2201,14.4701 3.0601,13.0001 L3.0601,13.0001 Z M4.5201,7.0001 C5.1701,7.3801 5.8501,7.7001 6.5501,7.9701 C6.2801,8.9401 6.1001,9.9501 6.0401,11.0001 L3.0601,11.0001 C3.2201,9.5301 3.7401,8.1701 4.5201,7.0001 L4.5201,7.0001 Z M8.4901,3.7101 C8.0001,4.4601 7.5701,5.2501 7.2101,6.0901 C6.7401,5.9001 6.2801,5.6901 5.8401,5.4501 C6.6101,4.7201 7.5001,4.1301 8.4901,3.7101 L8.4901,3.7101 Z M21.1401,5.8901 C20.7801,5.3301 20.3501,4.8101 19.8801,4.3301 C18.2901,2.6901 16.1901,1.5401 13.8301,1.1601 C13.6501,1.1201 13.4701,1.1001 13.2901,1.0801 C12.8601,1.0301 12.4401,1.0001 12.0001,1.0001 C11.5601,1.0001 11.1301,1.0301 10.7101,1.0801 C10.5301,1.1001 10.3401,1.1201 10.1701,1.1601 C7.8101,1.5501 5.7101,2.6901 4.1201,4.3301 C3.6501,4.8101 3.2201,5.3301 2.8601,5.8901 C1.6801,7.6401 1.0001,9.7401 1.0001,12.0001 C1.0001,14.2601 1.6801,16.3601 2.8501,18.1101 C3.2201,18.6691 3.6501,19.1901 4.1201,19.6691 C5.7101,21.3101 7.8101,22.4501 10.1701,22.8401 C10.3501,22.8801 10.5301,22.9001 10.7201,22.9191 C11.1401,22.9701 11.5701,23.0001 12.0001,23.0001 C12.4301,23.0001 12.8601,22.9801 13.2801,22.9191 C13.4601,22.9101 13.6501,22.8801 13.8301,22.8401 C16.1901,22.4501 18.2901,21.3101 19.8801,19.6691 C20.3501,19.1901 20.7801,18.6691 21.1501,18.1101 C22.3201,16.3601 23.0001,14.2601 23.0001,12.0001 C23.0001,9.7401 22.3201,7.6401 21.1401,5.8901 L21.1401,5.8901 Z"/>
</svg>
