<?xml version="1.0" encoding="UTF-8"?>
<svg width="115px" height="78px" viewBox="0 0 115 78" version="1.1" xmlns="http://www.w3.org/2000/svg" xmlns:xlink="http://www.w3.org/1999/xlink">
    <!-- Generator: Sketch 48.1 (47250) - http://www.bohemiancoding.com/sketch -->
    <title>computer-science</title>
    <desc>Created with Sketch.</desc>
    <defs>
        <circle id="cs-path-1" cx="39" cy="39" r="39"></circle>
    </defs>
    <g id="redisign-1.1-copy-10000" stroke="none" stroke-width="1" fill-rule="evenodd" transform="translate(-1075.000000, -681.000000)">
        <g id="cs-Group-23" transform="translate(0.000000, 510.000000)">
            <g id="computer-science" transform="translate(1075.000000, 171.000000)">
                <path d="M11.3518555,40.9383363 L7.19126392,35.217523 C6.86642566,34.7708704 6.9651757,34.1454534 7.4118283,33.8206152 C7.85848091,33.4957769 8.48389783,33.594527 8.80873608,34.0411796 L12.5883528,39.2381525 L13.764761,37.6205912 C17.3379819,32.7074125 24.217568,31.6211621 29.1307466,35.1943829 C30.4428771,36.1486597 31.5271217,37.3809733 32.3064361,38.8024911 C35.1644835,33.472718 41.7952536,31.4471801 47.1467649,34.2803331 C49.0782277,35.3028723 50.6609178,36.8773381 51.6935192,38.8024149 C54.5762965,33.5363983 61.1647635,31.5475702 66.4876299,34.3655583 C67.9681285,35.1493517 69.2500567,36.2609302 70.2356263,37.6155005 L71.4165999,39.2386349 L75.1983295,34.0410126 C75.5232599,33.5944271 76.1486972,33.4958062 76.5952827,33.8207366 C77.0418683,34.145667 77.1404892,34.7711043 76.8155588,35.2176899 L72.6532829,40.9383363 L76.8155588,46.6589828 C77.1404892,47.1055683 77.0418683,47.7310056 76.5952827,48.0559361 C76.1486972,48.3808665 75.5232599,48.2822456 75.1983295,47.83566 L71.4165999,42.6380378 L70.2356263,44.2611721 C69.2500567,45.6157424 67.9681285,46.727321 66.4876299,47.5111144 C61.1647635,50.3291025 54.5762965,48.3402744 51.6935192,43.0742577 C50.6609178,44.9993345 49.0782277,46.5738004 47.1467649,47.5963395 C41.7952536,50.4294926 35.1644835,48.4039547 32.3064361,43.0741816 C31.5271217,44.4956994 30.4428771,45.728013 29.1307466,46.6822897 C24.217568,50.2555106 17.3379819,49.1692602 13.764761,44.2560815 L12.5883528,42.6385202 L8.80873608,47.8354931 C8.48389783,48.2821457 7.85848091,48.3808958 7.4118283,48.0560575 C6.9651757,47.7312192 6.86642566,47.1058023 7.19126392,46.6591497 L11.3518555,40.9383363 Z M33.4385011,40.9383363 L34.0459088,42.0856619 C36.371574,46.4785852 41.8180662,48.154429 46.2109895,45.8287637 C47.8057066,44.9845017 49.1098293,43.6803791 49.9540912,42.0856619 L50.5614989,40.9383363 L49.9540912,39.7910107 C49.1098293,38.1962936 47.8057066,36.892171 46.2109895,36.047909 C41.8180662,33.7222437 36.371574,35.3980874 34.0459088,39.7910107 L33.4385011,40.9383363 Z M70.1799169,40.9383363 L68.6183969,38.7921778 C67.8120218,37.683893 66.7631715,36.7744196 65.5518545,36.1331341 C61.1589312,33.8074688 55.712439,35.4833126 53.3867738,39.8762359 L52.8244853,40.9383363 L53.3867738,42.0004368 C55.712439,46.3933601 61.1589312,48.0692038 65.5518545,45.7435386 C66.7631715,45.1022531 67.8120218,44.1927797 68.6183969,43.0844949 L70.1799169,40.9383363 Z M31.1755147,40.9383363 L30.6149492,39.8794904 C29.9733702,38.6676189 29.0633618,37.6183704 27.9544032,36.8118551 C23.9345298,33.8883108 18.3057775,34.7770611 15.3822332,38.7969346 L13.8248501,40.9383363 L15.3822332,43.0797381 C18.3057775,47.0996116 23.9345298,47.9883619 27.9544032,45.0648176 C29.0633618,44.2583023 29.9733702,43.2090538 30.6149492,41.9971823 L31.1755147,40.9383363 Z M41,68 L41,76 L54,76 C54.5522847,76 55,76.4477153 55,77 C55,77.5522847 54.5522847,78 54,78 L26,78 C25.4477153,78 25,77.5522847 25,77 C25,76.4477153 25.4477153,76 26,76 L39,76 L39,68 L3.40425532,68 C1.52413702,68 0,66.209139 0,64 L0,18 C0,15.790861 1.52413702,14 3.40425532,14 L76.5957447,14 C78.475863,14 80,15.790861 80,18 L80,64 C80,66.209139 78.475863,68 76.5957447,68 L41,68 Z M3.68888889,16 C2.75614131,16 2,16.8954305 2,18 L2,64 C2,65.1045695 2.75614131,66 3.68888889,66 L76.3111111,66 C77.2438587,66 78,65.1045695 78,64 L78,18 C78,16.8954305 77.2438587,16 76.3111111,16 L3.68888889,16 Z" id="Combined-Shape"></path>
                <g id="Group-14" transform="translate(37.000000, 0.000000)">
                    <mask id="cs-mask-2" fill="white">
                        <use xlink:href="#cs-path-1"></use>
                    </mask>
                    <use id="cs-Oval-7" fill="#07C39F" xlink:href="#cs-path-1"></use>
                    <path d="M-30,34.6182732 C-29.9963837,34.3132942 -29.853801,34.0138001 -29.5881717,33.8206152 C-29.1415191,33.4957769 -28.5161022,33.594527 -28.1912639,34.0411796 L-24.4116472,39.2381525 L-23.235239,37.6205912 C-19.6620181,32.7074125 -12.782432,31.6211621 -7.86925336,35.1943829 C-6.55712286,36.1486597 -5.47287829,37.3809733 -4.69356386,38.8024911 C-1.83551647,33.472718 4.79525362,31.4471801 10.1467649,34.2803331 C12.0782277,35.3028723 13.6609178,36.8773381 14.6935192,38.8024149 C17.5762965,33.5363983 24.1647635,31.5475702 29.4876299,34.3655583 C30.9681285,35.1493517 32.2500567,36.2609302 33.2356263,37.6155005 L34.4165999,39.2386349 L38.1983295,34.0410126 C38.5232599,33.5944271 39.1486972,33.4958062 39.5952827,33.8207366 C40.0418683,34.145667 40.1404892,34.7711043 39.8155588,35.2176899 L35.6532829,40.9383363 L39.8155588,46.6589828 C40.1404892,47.1055683 40.0418683,47.7310056 39.5952827,48.0559361 C39.1486972,48.3808665 38.5232599,48.2822456 38.1983295,47.83566 L34.4165999,42.6380378 L33.2356263,44.2611721 C32.2500567,45.6157424 30.9681285,46.727321 29.4876299,47.5111144 C24.1647635,50.3291025 17.5762965,48.3402744 14.6935192,43.0742577 C13.6609178,44.9993345 12.0782277,46.5738004 10.1467649,47.5963395 C4.79525362,50.4294926 -1.83551647,48.4039547 -4.69356386,43.0741816 C-5.47287829,44.4956994 -6.55712286,45.728013 -7.86925336,46.6822897 C-12.782432,50.2555106 -19.6620181,49.1692602 -23.235239,44.2560815 L-24.4116472,42.6385202 L-28.1912639,47.8354931 C-28.5161022,48.2821457 -29.1415191,48.3808958 -29.5881717,48.0560575 C-29.853801,47.8628725 -29.9963837,47.5633785 -30,47.2583995 L-30,64 C-30,65.1045695 -29.2438587,66 -28.3111111,66 L44.3111111,66 C45.2438587,66 46,65.1045695 46,64 L46,18 C46,16.8954305 45.2438587,16 44.3111111,16 L-28.3111111,16 C-29.2438587,16 -30,16.8954305 -30,18 L-30,34.6182731 Z M-30,34.6420699 L-30,47.2346028 C-29.9976272,47.034551 -29.9353671,46.8332673 -29.8087361,46.6591497 L-25.6481445,40.9383363 L-29.8087361,35.217523 C-29.9353671,35.0434053 -29.9976272,34.8421217 -30,34.6420684 Z M-3.56149892,40.9383363 L-2.95409125,42.0856619 C-0.628425974,46.4785852 4.81806619,48.154429 9.21098948,45.8287637 C10.8057066,44.9845017 12.1098293,43.6803791 12.9540912,42.0856619 L13.5614989,40.9383363 L12.9540912,39.7910107 C12.1098293,38.1962936 10.8057066,36.892171 9.21098948,36.047909 C4.81806619,33.7222437 -0.628425974,35.3980874 -2.95409125,39.7910107 L-3.56149892,40.9383363 Z M33.1799169,40.9383363 L31.6183969,38.7921778 C30.8120218,37.683893 29.7631715,36.7744196 28.5518545,36.1331341 C24.1589312,33.8074688 18.712439,35.4833126 16.3867738,39.8762359 L15.8244853,40.9383363 L16.3867738,42.0004368 C18.712439,46.3933601 24.1589312,48.0692038 28.5518545,45.7435386 C29.7631715,45.1022531 30.8120218,44.1927797 31.6183969,43.0844949 L33.1799169,40.9383363 Z M-5.82448528,40.9383363 L-6.38505079,39.8794904 C-7.02662979,38.6676189 -7.93663821,37.6183704 -9.04559676,36.8118551 C-13.0654702,33.8883108 -18.6942225,34.7770611 -21.6177668,38.7969346 L-23.1751499,40.9383363 L-21.6177668,43.0797381 C-18.6942225,47.0996116 -13.0654702,47.9883619 -9.04559676,45.0648176 C-7.93663821,44.2583023 -7.02662979,43.2090538 -6.38505079,41.9971823 L-5.82448528,40.9383363 Z M-28.5957447,14 L44.5957447,14 C46.475863,14 48,15.790861 48,18 L48,64 C48,66.209139 46.475863,68 44.5957447,68 L-28.5957447,68 C-30.475863,68 -32,66.209139 -32,64 L-32,18 C-32,15.790861 -30.475863,14 -28.5957447,14 Z" id="Combined-Shape" fill="#FFFFFF" mask="url(#cs-mask-2)"></path>
                </g>
            </g>
        </g>
    </g>
</svg>