<svg xmlns="http://www.w3.org/2000/svg" width="80" height="68"><g fill="none" fill-rule="evenodd"><path fill="#FFF" d="M.116 56.833a4.064 4.064 0 01-.117-1V13.182C0 5.825 17.88 1 40 1c22.122 0 40 4.825 40 12.182v42.651a4.53 4.53 0 01-.116 1C78.32 63.615 61.087 68 40 68S1.681 63.615.116 56.833z"/><path fill="#000" d="M40 1c22.122 0 40.001 4.825 40.001 12.182v42.651a4.53 4.53 0 01-.116 1C78.319 63.615 61.088 68 40.001 68S1.682 63.615.117 56.833a4.064 4.064 0 01-.117-1V13.182C0 5.825 17.88 1 40 1zm38 44.663c-5.251 5.022-20.261 8.125-38 8.125-17.737 0-32.747-3.103-38-8.125v10.155h76V45.663zM2 41.606h76V31.451c-5.251 5.022-20.261 8.125-38 8.125-17.737 0-32.747-3.103-38-8.125v10.155zm0-14.212h76V17.239c-5.251 5.022-20.261 8.125-38 8.125-17.737 0-32.747-3.103-38-8.125v10.155zm38-4.06c20.773 0 37.613-4.546 37.613-10.152C77.613 7.575 60.773 3.03 40 3.03c-20.773 0-37.612 4.545-37.612 10.152 0 5.606 16.84 10.151 37.612 10.151zm-38 4.06C2 33 19.015 37.545 40 37.545c20.987 0 38-4.545 38-10.151H2zm0 14.212c0 5.607 17.014 10.152 38 10.152 20.987 0 38-4.545 38-10.152H2zm0 14.212C2 61.425 19.015 65.97 40 65.97c20.987 0 38-4.545 38-10.152H2z"/></g></svg>