<?xml version="1.0" encoding="UTF-8"?>
<svg width="115px" height="78px" viewBox="0 0 115 78" version="1.1" xmlns="http://www.w3.org/2000/svg" xmlns:xlink="http://www.w3.org/1999/xlink">
    <!-- Generator: Sketch 49.1 (51147) - http://www.bohemiancoding.com/sketch -->
    <title>data-science</title>
    <desc>Created with Sketch.</desc>
    <defs>
        <circle id="path-1" cx="76" cy="39" r="39"></circle>
    </defs>
    <g id="Page-1" stroke="none" stroke-width="1" fill-rule="evenodd">
        <g id="data-science">
            <g id="Group-13">
                <path d="M2,65 C2,70.1716596 20.2160117,75 42.5,75 C64.7839883,75 83,70.1716596 83,65 L83,53.78729 C77.5429355,58.724257 61.5255723,62 42.5,62 C23.4744277,62 7.45706449,58.724257 2,53.78729 L2,65 Z M0,65 L0,22 C6.30973743e-15,15.0213951 18.9443541,10 42.5,10 C66.0556459,10 85,15.0213951 85,22 L85,65 C85,71.9786049 66.0556459,77 42.5,77 C18.9443541,77 0,71.9786049 0,65 Z M2,50 C2,55.1716596 20.2160117,60 42.5,60 C64.7839883,60 83,55.1716596 83,50 L83,39.78729 C77.5429355,44.724257 61.5255723,48 42.5,48 C23.4744277,48 7.45706449,44.724257 2,39.78729 L2,50 Z M2,36 C2,41.1716596 20.2160117,46 42.5,46 C64.7839883,46 83,41.1716596 83,36 L83,25.78729 C77.5429355,30.724257 61.5255723,34 42.5,34 C23.4744277,34 7.45706449,30.724257 2,25.78729 L2,36.0000005 Z M42.5,32 C64.7839883,32 83,27.1716596 83,22 C83,16.8283404 64.7839883,12 42.5,12 C20.2160117,12 2,16.8283404 2,22 C2,27.1716596 20.2160117,32 42.5,32 Z" id="Combined-Shape-Copy-2" fill-rule="nonzero"></path>
                <mask id="mask-2" fill="white">
                    <use xlink:href="#path-1"></use>
                </mask>
                <use id="Oval-7" fill="#07C39F" xlink:href="#path-1"></use>
                <path d="M2,65 C2,70.1716596 20.2160117,75 42.5,75 C64.7839883,75 83,70.1716596 83,65 L83,53.78729 C77.5429355,58.724257 61.5255723,62 42.5,62 C23.4744277,62 7.45706449,58.724257 2,53.78729 L2,65 Z M0,65 L0,22 C6.30973743e-15,15.0213951 18.9443541,10 42.5,10 C66.0556459,10 85,15.0213951 85,22 L85,65 C85,71.9786049 66.0556459,77 42.5,77 C18.9443541,77 0,71.9786049 0,65 Z M2,50 C2,55.1716596 20.2160117,60 42.5,60 C64.7839883,60 83,55.1716596 83,50 L83,39.78729 C77.5429355,44.724257 61.5255723,48 42.5,48 C23.4744277,48 7.45706449,44.724257 2,39.78729 L2,50 Z M2,36 C2,41.1716596 20.2160117,46 42.5,46 C64.7839883,46 83,41.1716596 83,36 L83,25.78729 C77.5429355,30.724257 61.5255723,34 42.5,34 C23.4744277,34 7.45706449,30.724257 2,25.78729 L2,36.0000005 Z M42.5,32 C64.7839883,32 83,27.1716596 83,22 C83,16.8283404 64.7839883,12 42.5,12 C20.2160117,12 2,16.8283404 2,22 C2,27.1716596 20.2160117,32 42.5,32 Z" id="Combined-Shape" fill="#FFFFFF" fill-rule="nonzero" mask="url(#mask-2)"></path>
            </g>
        </g>
    </g>
</svg>