<?xml version="1.0" encoding="UTF-8"?>
<svg width="66px" height="70px" viewBox="0 0 66 70" version="1.1" xmlns="http://www.w3.org/2000/svg" xmlns:xlink="http://www.w3.org/1999/xlink">
    <!-- Generator: Sketch 48.1 (47250) - http://www.bohemiancoding.com/sketch -->
    <title>jetbrains</title>
    <desc>Created with Sketch.</desc>
    <defs>
        <linearGradient x1="9.61167414%" y1="85.6274482%" x2="89.8986889%" y2="14.3830882%" id="linearGradient-1">
            <stop stop-color="#FCEE39" offset="0%"></stop>
            <stop stop-color="#F37B3D" offset="100%"></stop>
        </linearGradient>
        <linearGradient x1="8.60178117%" y1="9.46252494%" x2="99.6412214%" y2="95.2759008%" id="linearGradient-2">
            <stop stop-color="#EF5A6B" offset="0%"></stop>
            <stop stop-color="#F26F4E" offset="57%"></stop>
            <stop stop-color="#F37B3D" offset="100%"></stop>
        </linearGradient>
        <linearGradient x1="90.1189909%" y1="91.3299636%" x2="17.9384535%" y2="26.4175203%" id="linearGradient-3">
            <stop stop-color="#7C59A4" offset="0%"></stop>
            <stop stop-color="#AF4C92" offset="38.5%"></stop>
            <stop stop-color="#DC4183" offset="76.5%"></stop>
            <stop stop-color="#ED3D7D" offset="95.7%"></stop>
        </linearGradient>
        <linearGradient x1="91.3764494%" y1="7.5972181%" x2="18.8955589%" y2="77.7719541%" id="linearGradient-4">
            <stop stop-color="#EF5A6B" offset="0%"></stop>
            <stop stop-color="#EE4E72" offset="36.4%"></stop>
            <stop stop-color="#ED3D7D" offset="100%"></stop>
        </linearGradient>
    </defs>
    <g id="redisign-1.1-copy-10" stroke="none" stroke-width="1" fill="none" fill-rule="evenodd" transform="translate(-1050.000000, -1288.000000)">
        <g id="jetbrains.e0285ef3ec7e" transform="translate(1052.000000, 1290.000000)" fill-rule="nonzero">
            <path d="M61.2300077,37.1530836 C61.6908447,36.7435467 61.9468652,36.1804335 61.9980693,35.5149361 C62.0492734,34.1839413 61.0763954,33.108907 59.7450886,33.0065227 C59.1306394,32.9553306 58.5161901,33.2112912 58.0553531,33.5696359 L15.146312,57.0668142 C14.173434,57.4763511 13.3029642,58.1930406 12.739719,59.1656907 C11.2547999,61.622912 12.0740656,64.7968228 14.5830668,66.2813939 C16.3240064,67.3052361 18.4233748,67.2028519 20.0619062,66.1790097 C20.1643144,66.0766255 20.3179267,66.0254334 20.4203349,65.9230492 L60.3595379,37.8697732 C60.5643543,37.7161968 61.1275995,37.3066599 61.2300077,37.1530836 Z" id="Shape" fill="url(#linearGradient-1)"></path>
            <path d="M61.2875318,32.9941862 L28.8193384,1.26705784 C28.1068702,0.506823137 27.0890585,0 25.9185751,0 C23.7302799,0 22,1.77388098 22,3.90253815 C22,4.96686674 22.4071247,5.87914839 23.0687023,6.58870078 C23.2722646,6.79143003 23.475827,6.94347697 23.6793893,7.09552392 L57.9796438,36.3392189 C58.3867684,36.6939951 58.8956743,36.9474067 59.5063613,36.998089 C60.8295165,37.0487713 61.8982188,36.0858073 62,34.7680672 C62,34.1091971 61.7455471,33.450327 61.2875318,32.9941862 Z" id="Shape" fill="url(#linearGradient-2)"></path>
            <path d="M30.1562314,31.0479535 C30.1051711,31.0479535 10.0384745,15.0925068 9.62999214,14.8351609 L8.7109068,14.3719382 C5.74940959,13.2396162 2.4815506,14.7836917 1.35822408,17.7689043 C0.388078442,20.3938326 1.46034467,23.2761069 3.70699772,24.6657748 C4.0644198,24.8716515 4.37078158,25.0260591 4.72820366,25.1289975 C4.93244484,25.2319358 27.9095783,34.8052039 27.9095783,34.8052039 C28.8286637,35.2169573 29.9009299,34.9596114 30.5136535,34.1875737 C31.2795579,33.2096592 31.126377,31.8199912 30.1562314,31.0479535 Z" id="Shape" fill="url(#linearGradient-3)"></path>
            <path d="M25.0400992,0 C24.1770439,0 23.3647565,0.307828934 22.704773,0.769572335 L2.49912518,14.5192647 C2.44835722,14.5705696 2.39758926,14.5705696 2.39758926,14.6218744 L2.3468213,14.6218744 C1.48376599,15.2375322 0.773014559,16.161019 0.366870884,17.2384203 C-0.750024223,20.2141 0.773014559,23.5489135 3.71755621,24.6263147 C5.54520275,25.3445822 7.52515316,24.9854485 8.99742399,23.9080472 C9.3527997,23.6515231 9.65740746,23.394999 9.91124726,23.0871701 L27.4769612,7.08006549 C28.3907845,6.36179797 29,5.23309188 29,3.95047132 C29,1.79566878 27.2231214,4.5567836e-16 25.0400992,4.5567836e-16 Z" id="Shape" fill="url(#linearGradient-4)"></path>
            <polygon id="Shape" fill="#000000" points="18 19 44 19 44 45 18 45"></polygon>
            <polygon id="Shape" fill="#FFFFFF" points="20 40 30 40 30 42 20 42"></polygon>
            <g id="Group" transform="translate(20.000000, 22.000000)" fill="#FFFFFF">
                <path d="M0.409302326,3.9 L1.17674419,3.2 C1.38139535,3.45 1.58604651,3.6 1.84186047,3.6 C2.14883721,3.6 2.30232558,3.4 2.30232558,3 L2.30232558,0.35 L3.47906977,0.35 L3.47906977,3 C3.47906977,3.5 3.3255814,3.9 3.06976744,4.15 C2.81395349,4.4 2.40465116,4.55 1.89302326,4.55 C1.1255814,4.6 0.71627907,4.3 0.409302326,3.9 Z M3.73488372,0.4 L7.1627907,0.4 L7.1627907,1.35 L4.91162791,1.35 L4.91162791,2 L6.95813953,2 L6.95813953,2.9 L4.91162791,2.9 L4.91162791,3.55 L7.21395349,3.55 L7.21395349,4.55 L3.78604651,4.55 L3.73488372,0.4 Z M8.69767442,1.4 L7.41860465,1.4 L7.41860465,0.4 L11.1534884,0.4 L11.1534884,1.4 L9.8744186,1.4 L9.8744186,4.55 L8.69767442,4.55 L8.69767442,1.4 Z M0.511627907,5.5 L2.71162791,5.5 C3.22325581,5.5 3.63255814,5.65 3.88837209,5.85 C4.04186047,6 4.14418605,6.25 4.14418605,6.55 C4.14418605,7.05 3.88837209,7.3 3.47906977,7.5 C3.99069767,7.65 4.29767442,7.95 4.29767442,8.5 C4.29767442,9.2 3.68372093,9.65 2.71162791,9.65 L0.511627907,9.65 L0.511627907,5.5 Z M2.96744186,6.8 C2.96744186,6.55 2.7627907,6.45 2.45581395,6.45 L1.68837209,6.45 L1.68837209,7.2 L2.40465116,7.2 C2.7627907,7.15 2.96744186,7.05 2.96744186,6.8 Z M2.55813953,8 L1.6372093,8 L1.6372093,8.75 L2.55813953,8.75 C2.91627907,8.75 3.12093023,8.6 3.12093023,8.35 C3.12093023,8.1 2.91627907,8 2.55813953,8 Z M4.50232558,5.5 L6.49767442,5.5 C7.1627907,5.5 7.57209302,5.65 7.87906977,5.95 C8.13488372,6.2 8.2372093,6.5 8.2372093,6.9 C8.2372093,7.55 7.87906977,7.95 7.36744186,8.2 L8.39069767,9.65 L7.06046512,9.65 L6.19069767,8.4 L5.67906977,8.4 L5.67906977,9.65 L4.50232558,9.65 L4.50232558,5.5 Z M6.44651163,7.5 C6.85581395,7.5 7.06046512,7.3 7.06046512,7 C7.06046512,6.65 6.80465116,6.5 6.44651163,6.5 L5.67906977,6.5 L5.67906977,7.5 L6.44651163,7.5 Z" id="Shape"></path>
                <path d="M9.61860465,5.5 L10.744186,5.5 L12.5348837,9.7 L11.255814,9.7 L10.9488372,8.95 L9.31162791,8.95 L9.00465116,9.7 L7.77674419,9.7 L9.61860465,5.5 Z M10.6418605,8 L10.1813953,6.85 L9.72093023,8 L10.6418605,8 Z M12.6883721,5.5 L13.8651163,5.5 L13.8651163,9.65 L12.6883721,9.65 L12.6883721,5.5 Z M14.172093,5.5 L15.2465116,5.5 L16.9860465,7.7 L16.9860465,5.5 L18.1627907,5.5 L18.1627907,9.65 L17.1395349,9.65 L15.3488372,7.4 L15.3488372,9.7 L14.172093,9.7 L14.172093,5.5 Z M18.2651163,9.05 L18.9302326,8.3 C19.3395349,8.65 19.8,8.8 20.3116279,8.8 C20.6186047,8.8 20.8232558,8.7 20.8232558,8.5 C20.8232558,8.3 20.6697674,8.25 20.1069767,8.1 C19.1860465,7.9 18.5209302,7.65 18.5209302,6.8 C18.5209302,6.05 19.1348837,5.45 20.1581395,5.45 C20.8744186,5.45 21.4372093,5.65 21.8976744,6 L21.2837209,6.8 C20.8744186,6.55 20.4651163,6.4 20.1069767,6.4 C19.8,6.4 19.6976744,6.5 19.6976744,6.65 C19.6976744,6.85 19.8511628,6.9 20.4139535,7.05 C21.3860465,7.25 22,7.55 22,8.35 C22,9.2 21.3348837,9.7 20.2604651,9.7 C19.4930233,9.75 18.7767442,9.5 18.2651163,9.05 Z" id="Shape"></path>
            </g>
        </g>
    </g>
</svg>