<?xml version="1.0" encoding="UTF-8"?>
<svg width="92px" height="70px" viewBox="0 0 92 70" version="1.1" xmlns="http://www.w3.org/2000/svg" xmlns:xlink="http://www.w3.org/1999/xlink">
    <!-- Generator: Sketch 48.1 (47250) - http://www.bohemiancoding.com/sketch -->
    <title>shad</title>
    <desc>Created with Sketch.</desc>
    <defs>
        <polygon id="path-1" points="0 37.4466778 87.388224 37.4466778 87.388224 -0.000211111111 0 -0.000211111111"></polygon>
    </defs>
    <g id="redisign-1.1-copy-10" stroke="none" stroke-width="1" fill="none" fill-rule="evenodd" transform="translate(-938.000000, -1288.000000)">
        <g id="Page-1" transform="translate(940.000000, 1304.000000)">
            <path d="M44.5201152,0.983355556 C38.0799232,0.983355556 32.8590592,6.20202222 32.8590592,12.6395037 C32.8590592,19.0776889 38.0799232,24.2963556 44.5201152,24.2963556 C50.9603072,24.2963556 56.1811712,19.0776889 56.1811712,12.6395037 C56.1811712,6.20202222 50.9603072,0.983355556 44.5201152,0.983355556" id="Fill-1" fill="#DA3229"></path>
            <mask id="mask-2" fill="white">
                <use xlink:href="#path-1"></use>
            </mask>
            <g id="Clip-4"></g>
            <polygon id="Fill-3" fill="#000000" mask="url(#mask-2)" points="65.438208 23.4471963 87.108736 23.4471963 87.108736 1.78508519 65.438208 1.78508519"></polygon>
            <polygon id="Fill-5" fill="#FACB26" mask="url(#mask-2)" points="7.0090944 11.7052667 0.2309824 23.4472667 27.3075264 23.4472667 20.5413824 11.7052667 13.7752384 -0.000140740741"></polygon>
            <polygon id="Fill-6" fill="#000000" mask="url(#mask-2)" points="2.1621952 35.9411037 2.1621952 32.0918444 2.7697472 32.0918444 2.7697472 35.9411037 4.3241792 35.9411037 4.3241792 32.0918444 4.9317312 32.0918444 4.9317312 36.4266593 0.0002112 36.4266593 0.0002112 32.0559556 0.6077632 32.0559556 0.6077632 35.9411037"></polygon>
            <path d="M6.9605888,33.8767185 L7.1063168,33.8767185 C7.3386368,33.8886815 7.5688448,33.8246444 7.7624448,33.6944593 C7.8990208,33.5396444 8.0095488,33.3630148 8.0898048,33.1723111 L8.2235648,32.7838667 C8.2686208,32.5812 8.3650688,32.3933111 8.5030528,32.2377926 C8.7093248,32.056237 8.9838848,31.9724963 9.2563328,32.0069778 L9.2563328,32.4805704 C9.1176448,32.4854963 8.9852928,32.5368667 8.8796928,32.626237 C8.7818368,32.7303852 8.7191808,32.8619778 8.6973568,33.0027185 L8.5150208,33.4270519 C8.4502528,33.5860889 8.3552128,33.7303481 8.2362368,33.8527926 C8.1109248,33.9836815 7.9426688,34.0660148 7.7624448,34.0836074 C7.9722368,34.1187926 8.1665408,34.2159037 8.3207168,34.3622741 C8.4572928,34.5177926 8.5678208,34.6944222 8.6487808,34.8851259 L8.9282688,35.4917185 C8.9733248,35.6486444 9.0521728,35.7936074 9.1591808,35.9167556 C9.2514048,35.9913481 9.3689728,36.0265333 9.4872448,36.0138667 L9.4872448,36.5360148 C9.2507008,36.5916074 9.0021888,36.5529037 8.7945088,36.4269407 C8.6544128,36.2432741 8.5551488,36.032163 8.5030528,35.8076815 L8.2235648,35.1032741 C8.1397888,34.9146815 8.0299648,34.7387556 7.8962048,34.5811259 C7.7173888,34.4579778 7.5047808,34.3939407 7.2886528,34.3988667 L7.0091648,34.3988667 L7.0091648,36.4269407 L6.4016128,36.4269407 L6.4016128,32.0555333 L7.0091648,32.0555333 L7.0091648,33.8767185 L6.9605888,33.8767185 Z" id="Fill-7" fill="#000000" mask="url(#mask-2)"></path>
            <path d="M13.5320768,36.0380037 C13.1652928,36.3842259 12.6760128,36.5721148 12.1712448,36.5601519 C11.6622528,36.6009667 11.1624128,36.4088556 10.8111168,36.0380037 C9.9965888,34.9873741 9.9965888,33.5194481 10.8111168,32.4688185 C11.1722688,32.1282259 11.6509888,31.9410407 12.1473088,31.9466704 C12.6563008,31.9058556 13.1568448,32.097263 13.5081408,32.4688185 C14.3226688,33.5194481 14.3226688,34.9873741 13.5081408,36.0380037 M11.2849088,32.8931519 C10.9779648,33.2773741 10.8266048,33.7629296 10.8596928,34.2534111 C10.8491328,34.7403741 10.9983808,35.2181889 11.2849088,35.6129667 C11.7396928,36.106263 12.5084608,36.1372259 13.0012608,35.6819296 C13.0251968,35.6601148 13.0484288,35.6375963 13.0702528,35.6129667 C13.3771968,35.2294481 13.5292608,34.7438926 13.4954688,34.2534111 C13.5060288,33.7657444 13.3567808,33.2879296 13.0702528,32.8931519 C12.8365248,32.648263 12.5105728,32.5110407 12.1712448,32.5166704 C11.8291008,32.4906333 11.4939968,32.6306704 11.2729408,32.8931519" id="Fill-8" fill="#000000" mask="url(#mask-2)"></path>
            <path d="M16.3625088,32.6142741 L16.3625088,32.7838667 L16.3625088,34.241237 C16.3688448,34.9456444 16.1710208,35.6380889 15.7915648,36.2327185 C15.5493888,36.4600148 15.2248448,36.5789407 14.8925568,36.5599407 L14.7954048,36.0377926 C14.9833728,36.0286444 15.1650048,35.9653111 15.3177728,35.8555333 C15.6655488,35.3418296 15.8323968,34.7267926 15.7915648,34.1075333 L15.7915648,32.7472741 L15.7915648,32.0428667 L18.2816128,32.0428667 L18.2816128,36.4269407 L17.6740608,36.4269407 L17.6740608,32.5657185 L16.3625088,32.5657185 L16.3625088,32.6142741 Z" id="Fill-9" fill="#000000" mask="url(#mask-2)"></path>
            <path d="M19.8852544,36.4269407 L19.2291264,36.4269407 L21.0637504,32.0555333 L21.5861184,32.0555333 L23.4080704,36.4269407 L22.7519424,36.4269407 L22.2781504,35.2123481 L20.3590464,35.2123481 L19.8852544,36.4269407 Z M21.2939584,32.7838667 L20.5413824,34.7141259 L22.0472384,34.7141259 L21.2939584,32.7838667 Z" id="Fill-10" fill="#000000" mask="url(#mask-2)"></path>
            <path d="M26.4206272,36.4269407 L25.7159232,36.4269407 L27.5498432,32.0555333 L28.0729152,32.0555333 L29.8948672,36.4269407 L29.2387392,36.4269407 L28.7649472,35.2123481 L26.8458432,35.2123481 L26.4206272,36.4269407 Z M27.8293312,32.7838667 L27.0767552,34.7141259 L28.5826112,34.7141259 L27.8293312,32.7838667 Z" id="Fill-11" fill="#000000" mask="url(#mask-2)"></path>
            <polygon id="Fill-12" fill="#000000" mask="url(#mask-2)" points="31.4497216 36.4269407 30.8421696 36.4269407 30.8421696 32.0555333 31.4497216 32.0555333 31.4497216 33.8893852 33.4659776 33.8893852 33.4659776 32.0921259 34.0735296 32.0921259 34.0735296 36.4269407 33.4659776 36.4269407 33.4659776 34.4474222 31.4497216 34.4474222"></polygon>
            <path d="M35.6767488,36.4269407 L35.0206208,36.4269407 L36.8552448,32.0555333 L37.3776128,32.0555333 L39.1995648,36.4269407 L38.5434368,36.4269407 L38.0696448,35.2123481 L36.1505408,35.2123481 L35.6767488,36.4269407 Z M37.0854528,32.7838667 L36.3328768,34.7141259 L37.8387328,34.7141259 L37.0854528,32.7838667 Z" id="Fill-13" fill="#000000" mask="url(#mask-2)"></path>
            <path d="M41.300864,32.6142741 L41.300864,32.7838667 L41.300864,34.241237 C41.326912,34.949163 41.14528,35.6493481 40.778496,36.2566444 C40.537024,36.4846444 40.211776,36.6028667 39.879488,36.5845704 L39.782336,36.0624222 C39.970304,36.0532741 40.151936,35.9899407 40.304704,35.8808667 C40.633472,35.3636444 40.78272,34.7535333 40.72992,34.1441259 L40.72992,32.7838667 L40.72992,32.0794593 L43.244608,32.0794593 L43.244608,36.4269407 L42.637056,36.4269407 L42.637056,32.5657185 L41.300864,32.5657185 L41.300864,32.6142741 Z" id="Fill-14" fill="#000000" mask="url(#mask-2)"></path>
            <polygon id="Fill-15" fill="#000000" mask="url(#mask-2)" points="47.241216 32.5167407 47.241216 32.0917037 47.848768 32.0917037 47.848768 36.4272222 47.241216 36.4272222 47.241216 33.3182593 45.260864 36.0380741 45.260864 36.5116667 44.654016 36.5116667 44.654016 32.140963 45.260864 32.140963 45.260864 35.2858148"></polygon>
            <path d="M49.1239232,32.4686074 C49.5118272,32.1244963 50.0144832,31.9380148 50.5326272,31.9464593 C50.9719232,31.9070519 51.4084032,32.0428667 51.7477312,32.3229407 C51.9631552,32.5523481 52.0807232,32.8577556 52.0757952,33.1723111 C52.0962112,33.4376074 51.9934272,33.6979778 51.7963072,33.8767185 C51.6505792,34.0153481 51.4703552,34.1117556 51.2739392,34.1560889 C51.4956992,34.2011259 51.7033792,34.2968296 51.8814912,34.4354593 C52.0736832,34.6374222 52.1743552,34.9097556 52.1602752,35.1877185 C52.1673152,35.5726444 51.9920192,35.9378667 51.6871872,36.1722 C51.3267392,36.4065333 50.9015232,36.521237 50.4720832,36.5001259 C50.1221952,36.507163 49.7737152,36.4579037 49.4400192,36.3537556 C49.2161472,36.2664963 49.0098752,36.1391259 48.8324672,35.9772741 L49.1605312,35.5529407 C49.3238592,35.6774963 49.4991552,35.7872741 49.6828992,35.8808667 C49.9229632,35.9737556 50.1778112,36.0237185 50.4354752,36.0265333 C50.6846912,36.0518667 50.9346112,35.9871259 51.1401792,35.8442741 C51.3239232,35.6760889 51.4260032,35.4368296 51.4196672,35.1877185 C51.4267072,34.9667556 51.3218112,34.7570519 51.1401792,34.6296815 C50.8184512,34.4790889 50.4622272,34.417163 50.1074112,34.4481259 L49.9616832,34.4481259 L49.9616832,33.9984593 L50.1074112,33.9984593 C50.3826752,34.0111259 50.6572352,33.9618667 50.9099712,33.8527926 C51.1535552,33.7528667 51.3056192,33.5086815 51.2859072,33.2454963 C51.2809792,33.0562 51.1803072,32.8830889 51.0190912,32.7838667 C50.8219712,32.6621259 50.5945792,32.5994963 50.3629632,32.6016074 C49.9574592,32.6114593 49.5639232,32.7430519 49.2330432,32.9787926 L49.1239232,32.4686074 Z" id="Fill-16" fill="#000000" mask="url(#mask-2)"></path>
            <path d="M53.5456064,36.4269407 L52.8894784,36.4269407 L54.6628544,32.0921259 L55.1859264,32.0921259 L57.0930624,36.4269407 L56.4362304,36.4269407 L55.9631424,35.2123481 L54.0074304,35.2123481 L53.5456064,36.4269407 Z M55.0028864,32.7838667 L54.2503104,34.7141259 L55.7561664,34.7141259 L55.0028864,32.7838667 Z" id="Fill-17" fill="#000000" mask="url(#mask-2)"></path>
            <path d="M59.8499968,35.9534889 C60.0569728,35.5692667 60.2167808,35.1618222 60.3237888,34.7388963 C60.4617728,34.0964148 60.5187968,33.440563 60.4941568,32.7840074 L60.4941568,32.0796 L62.9842048,32.0796 L62.9842048,35.9408222 L63.5065728,35.9408222 L63.5065728,37.4467481 L62.9475968,37.4467481 L62.9475968,36.4270815 L59.9837568,36.4270815 L59.9837568,37.4101556 L59.4247808,37.4101556 L59.4247808,35.9408222 L59.8499968,35.9534889 Z M61.0651008,32.6144148 L61.0651008,32.7840074 C61.0869248,33.4933407 61.0256768,34.2019704 60.8827648,34.8965259 C60.7820928,35.2716 60.6398848,35.6347111 60.4575488,35.9774148 L62.3400448,35.9774148 L62.3400448,32.6144148 L61.0651008,32.6144148 Z" id="Fill-18" fill="#000000" mask="url(#mask-2)"></path>
            <path d="M64.6847872,36.4269407 L64.0286592,36.4269407 L65.8625792,32.0555333 L66.3856512,32.0555333 L68.2076032,36.4269407 L67.5514752,36.4269407 L67.0776832,35.2123481 L65.1466112,35.2123481 L64.6847872,36.4269407 Z M66.1420672,32.7838667 L65.3887872,34.7141259 L66.8953472,34.7141259 L66.1420672,32.7838667 Z" id="Fill-19" fill="#000000" mask="url(#mask-2)"></path>
            <polygon id="Fill-20" fill="#000000" mask="url(#mask-2)" points="69.7623168 36.4269407 69.1547648 36.4269407 69.1547648 32.0555333 69.7623168 32.0555333 69.7623168 33.8893852 71.7785728 33.8893852 71.7785728 32.0921259 72.3861248 32.0921259 72.3861248 36.4269407 71.7785728 36.4269407 71.7785728 34.4474222 69.7623168 34.4474222"></polygon>
            <polygon id="Fill-21" fill="#000000" mask="url(#mask-2)" points="74.3661952 36.4269407 73.7586432 36.4269407 73.7586432 32.0555333 74.3661952 32.0555333 74.3661952 33.8893852 76.3824512 33.8893852 76.3824512 32.0921259 76.9900032 32.0921259 76.9900032 36.4269407 76.3824512 36.4269407 76.3824512 34.4474222 74.3661952 34.4474222"></polygon>
            <path d="M78.9580352,33.7798185 L79.7598912,33.7798185 C80.2301632,33.7242259 80.7025472,33.859337 81.0714432,34.1563 C81.3086912,34.4075222 81.4283712,34.7467074 81.3995072,35.0908185 C81.4156992,35.4335222 81.2981312,35.7684852 81.0714432,36.0260407 C80.6856512,36.3265222 80.1963712,36.462337 79.7113152,36.4025222 L78.4110272,36.4025222 L78.4110272,32.0318185 L78.9580352,32.0318185 L78.9580352,33.7671519 L78.9580352,33.7798185 Z M79.7718592,35.9408926 C80.0731712,35.9648185 80.3744832,35.8838926 80.6222912,35.7100778 C80.7680192,35.5601889 80.8503872,35.360337 80.8524992,35.151337 C80.8757312,34.9247444 80.7898432,34.700263 80.6222912,34.5447444 C80.3695552,34.3807815 80.0724672,34.3005593 79.7718592,34.3139296 L78.9580352,34.3139296 L78.9580352,35.9408926 L79.7718592,35.9408926 Z M82.0795712,36.4271519 L82.6871232,36.4271519 L82.6871232,32.092337 L82.0795712,32.092337 L82.0795712,36.4271519 Z" id="Fill-22" fill="#000000" mask="url(#mask-2)"></path>
            <polygon id="Fill-23" fill="#000000" mask="url(#mask-2)" points="85.505376 34.6298926 84.290272 36.4630407 83.585568 36.4630407 85.092128 34.1563 83.817184 32.092337 84.472608 32.092337 85.505376 33.6946704 86.53744 32.092337 87.193568 32.092337 85.882016 34.1563 87.387872 36.4271519 86.683168 36.4271519"></polygon>
        </g>
    </g>
</svg>