<svg xmlns="http://www.w3.org/2000/svg" viewBox="0 0 36 36"><defs><style>.cls-1{fill:#662d91;}.cls-2{fill:#fff;}</style></defs><title>16</title><g id="Layer_2" data-name="Layer 2"><g id="Текст"><rect class="cls-1" width="36" height="36" rx="18" ry="18"/><path class="cls-2" d="M25.06,15.95v.89H24v-.89H21.44v-.87l2.72-4.16h.9v4h.62v1ZM24,12.71h0l-1.39,2.22H24Z"/><path class="cls-2" d="M28,17a2,2,0,0,1-2-1.88h1.06a1,1,0,0,0,.94.87,1,1,0,0,0,0-2.09,1,1,0,0,0-.8.42l-1-.26.56-3.09h2.68v1H27.63L27.44,13a1.92,1.92,0,0,1,.76-.17,2,2,0,0,1,1.89,2A2.05,2.05,0,0,1,28,17Z"/><path class="cls-2" d="M7.48,24.83V14.52H5.92V12.4h3.8V24.83Z"/><path class="cls-2" d="M16.89,25.08a4.32,4.32,0,0,1-4.32-4.45,5.34,5.34,0,0,1,1-2.94L17,12.42h2.62l-2.76,4.2a1.76,1.76,0,0,1,.52-.05,3.9,3.9,0,0,1,3.76,4A4.36,4.36,0,0,1,16.89,25.08Zm-.05-6.45a2.08,2.08,0,0,0-2,2.1A2.15,2.15,0,0,0,16.89,23,2.11,2.11,0,0,0,19,20.82,2.15,2.15,0,0,0,16.84,18.63Z"/></g></g></svg>