<svg xmlns="http://www.w3.org/2000/svg" viewBox="0 0 36 36"><defs><style>.cls-1{fill:#662d91;}.cls-2{fill:#fff;}</style></defs><title>18</title><g id="Layer_2" data-name="Layer 2"><g id="Текст"><rect class="cls-1" width="36" height="36" rx="18" ry="18"/><path class="cls-2" d="M23.57,17a2,2,0,0,1-2-1.9h1.06a1,1,0,0,0,1.9-.06c0-.69-.55-1-1.18-1h-.18v-1h.18c.4,0,.74-.19.74-.63a.49.49,0,0,0-.53-.56.55.55,0,0,0-.53.54H22A1.56,1.56,0,0,1,23,11a1.75,1.75,0,0,1,.54-.1,1.62,1.62,0,0,1,1.61,1.6,1.2,1.2,0,0,1-.51,1A1.56,1.56,0,0,1,25.6,15,2,2,0,0,1,23.57,17Z"/><path class="cls-2" d="M30.06,15a1.9,1.9,0,0,1-2,2,2,2,0,0,1-1.5-.65A1.85,1.85,0,0,1,26.08,15V12.85a2,2,0,1,1,4,0ZM29,12.85a.93.93,0,1,0-1.85,0v2c0,.59.29,1.1.93,1.1s.92-.48.92-1.07Z"/><path class="cls-2" d="M7.5,24.89V14.58H5.94V12.46h3.8V24.89Z"/><path class="cls-2" d="M16.91,25.14a4.12,4.12,0,0,1-4.15-4A3.36,3.36,0,0,1,14.61,18a3.11,3.11,0,0,1-1.11-2.35,3.42,3.42,0,1,1,6.84,0A3.1,3.1,0,0,1,19.21,18a3.36,3.36,0,0,1,1.85,3.12A4.12,4.12,0,0,1,16.91,25.14Zm0-5.95a1.92,1.92,0,1,0,1.92,1.92A1.91,1.91,0,0,0,16.91,19.2Zm0-4.87a1.34,1.34,0,1,0,1.33,1.34A1.33,1.33,0,0,0,16.91,14.32Z"/></g></g></svg>