<svg xmlns="http://www.w3.org/2000/svg" viewBox="0 0 74.43 81.58"><defs><style>.cls-1{fill:#fcee21;}</style></defs><title>courses</title><g id="Layer_2" data-name="Layer 2"><g id="Текст"><rect class="cls-1" x="27.31" y="71.19" width="19.81" height="3.46"/><rect class="cls-1" x="30.77" y="78.11" width="12.89" height="3.46"/><path class="cls-1" d="M37.21,14a23.24,23.24,0,0,0-9.91,44.27v9.49H47.12V58.24A23.24,23.24,0,0,0,37.21,14Zm7.52,41.54L43.66,56v8.32H38.94v-20a7.29,7.29,0,1,0-3.46,0v20H30.77V56l-1.07-.44a19.78,19.78,0,1,1,15,0ZM37.21,41A3.83,3.83,0,1,1,41,37.21,3.83,3.83,0,0,1,37.21,41Z"/><rect class="cls-1" y="35.48" width="10.51" height="3.46"/><rect class="cls-1" x="63.92" y="35.48" width="10.51" height="3.46"/><rect class="cls-1" x="35.48" width="3.46" height="10.51"/><rect class="cls-1" x="58.08" y="54.56" width="3.46" height="10.51" transform="translate(-24.77 59.81) rotate(-45)"/><rect class="cls-1" x="12.89" y="9.36" width="3.46" height="10.51" transform="translate(-6.05 14.62) rotate(-45)"/><rect class="cls-1" x="9.36" y="58.08" width="10.51" height="3.46" transform="translate(-38.01 27.85) rotate(-45)"/><rect class="cls-1" x="54.56" y="12.88" width="10.51" height="3.46" transform="translate(7.18 46.57) rotate(-44.99)"/></g></g></svg>