<svg xmlns="http://www.w3.org/2000/svg" viewBox="0 0 353.86 122.26"><defs><style>.cls-1,.cls-4{fill:#4f86a0;}.cls-2{font-size:20px;}.cls-2,.cls-3{fill:#fff;}.cls-2,.cls-3,.cls-4{font-family:HelveticaNeue-Medium, Helvetica Neue;}.cls-3,.cls-4{font-size:10px;}</style></defs><title>rules</title><g id="Layer_2" data-name="Layer 2"><g id="Текст"><path class="cls-1" d="M353.86,17,312.26,0,270.67,17l21.12,8.63V48.36a4.76,4.76,0,0,0,.27,8.88l-3.65,10.15h10.48l-3.65-10.15a4.76,4.76,0,0,0,.1-8.95V44.36c3.63,2.63,9.73,4.29,16.92,4.29,11.67,0,20.48-4.36,20.48-10.15V25.61ZM312.26,3.84,344.46,17,312.25,30.14l-13.93-5.69,14.61-5.81-1.31-3.3-18,7.17L280.07,17ZM329.19,38.5c0,3.11-7.24,6.6-16.92,6.6s-16.92-3.48-16.92-6.6V27.07L312.25,34l16.94-6.92Z"/><rect class="cls-1" y="3.39" width="64" height="64" rx="32" ry="32"/><rect class="cls-1" x="135" y="1.39" width="64" height="64" rx="32" ry="32"/><polygon class="cls-1" points="111.91 34.13 101.11 34.13 101.11 23.33 98.29 23.33 98.29 34.13 87.49 34.13 87.49 36.95 98.29 36.95 98.29 47.75 101.11 47.75 101.11 36.95 111.91 36.95 111.91 34.13"/><rect class="cls-1" x="224.18" y="30.91" width="22.1" height="2.83"/><rect class="cls-1" x="224.18" y="37.91" width="22.1" height="2.83"/><text class="cls-2" transform="translate(21 33.72)">12</text><text class="cls-2" transform="translate(162 34.72)">3</text><text class="cls-3" transform="translate(16 48.39)">курсов</text><text class="cls-3"><tspan x="145" y="48.39">практики</tspan></text><text class="cls-4" transform="translate(59 119.39)">два года обучения</text><path class="cls-1" d="M151.82,93.36q-3.34,1.84-10.31,1.7l-19.94-.38a40.17,40.17,0,0,0-12.63,1.47,16.23,16.23,0,0,0-8.69,6.93l-2.45,0a6.44,6.44,0,0,0-2.13-3.65,16,16,0,0,0-4.6-2.91,29.83,29.83,0,0,0-6.33-1.89,41.76,41.76,0,0,0-7.2-.76l-20.06-.38q-7-.13-10.12-2.09t-3-7.1l.12-6.11,2.44,0-.11,5.87a5.46,5.46,0,0,0,2.65,5.26Q52.13,90.88,59.72,91l19.94.38a36.28,36.28,0,0,1,5.75.6,28.06,28.06,0,0,1,5.84,1.7,21.27,21.27,0,0,1,5,2.85,9.62,9.62,0,0,1,3.1,4q2-4,7.65-6.28a31.54,31.54,0,0,1,12.58-2.14l19.82.38a43,43,0,0,0,6.68-.3,13.25,13.25,0,0,0,4.12-1.15,4.32,4.32,0,0,0,2.06-2,7.55,7.55,0,0,0,.61-3l.12-5.87,2.44,0-.12,6.11Q155.15,91.52,151.82,93.36Z"/><text class="cls-4" transform="translate(292.83 107.39)">выпуск <tspan x="-13.53" y="12">из CS центра</tspan></text></g></g></svg>