<svg xmlns="http://www.w3.org/2000/svg" width="72" height="58" viewBox="0 0 72 58">
  <g fill="none" transform="translate(6 5)">
    <path fill="#8B9CA7" d="M59.246726,25.4497739 C58.6255569,25.2579173 57.9568781,25.0832924 57.246726,24.927002 L57.246726,3.77021639 C57.246726,3.21793164 56.7990108,2.77021639 56.246726,2.77021639 L3.24672603,2.77021639 C2.69444128,2.77021639 2.24672603,3.21793164 2.24672603,3.77021639 L2.24672603,44.7702164 C2.24672603,45.3225011 2.69444128,45.7702164 3.24672603,45.7702164 L31.0368379,45.7702164 L31.0413524,47.7702164 L3.24672603,47.7702164 C1.58987178,47.7702164 0.246726027,46.4270706 0.246726027,44.7702164 L0.246726027,3.77021639 C0.246726027,2.11336214 1.58987178,0.770216393 3.24672603,0.770216393 L56.246726,0.770216393 C57.9035803,0.770216393 59.246726,2.11336214 59.246726,3.77021639 L59.246726,25.4497739 Z M35.0487487,25.7702164 C33.5406684,26.3267001 32.3891633,27.0002187 31.7066111,27.7702164 L12.246726,27.7702164 L12.246726,25.7702164 L35.0487487,25.7702164 Z M31.0210368,38.7702164 L31.0255514,40.7702164 L28.246726,40.7702164 L28.246726,38.7702164 L31.0210368,38.7702164 Z M53.746726,7.77021639 C52.9182989,7.77021639 52.246726,7.09864352 52.246726,6.27021639 C52.246726,5.44178927 52.9182989,4.77021639 53.746726,4.77021639 C54.5751532,4.77021639 55.246726,5.44178927 55.246726,6.27021639 C55.246726,7.09864352 54.5751532,7.77021639 53.746726,7.77021639 Z M48.746726,7.77021639 C47.9182989,7.77021639 47.246726,7.09864352 47.246726,6.27021639 C47.246726,5.44178927 47.9182989,4.77021639 48.746726,4.77021639 C49.5751532,4.77021639 50.246726,5.44178927 50.246726,6.27021639 C50.246726,7.09864352 49.5751532,7.77021639 48.746726,7.77021639 Z M43.746726,7.77021639 C42.9182989,7.77021639 42.246726,7.09864352 42.246726,6.27021639 C42.246726,5.44178927 42.9182989,4.77021639 43.746726,4.77021639 C44.5751532,4.77021639 45.246726,5.44178927 45.246726,6.27021639 C45.246726,7.09864352 44.5751532,7.77021639 43.746726,7.77021639 Z M5.24672603,10.7702164 L9.24672603,10.7702164 L9.24672603,12.7702164 L5.24672603,12.7702164 L5.24672603,10.7702164 Z M5.24672603,15.7702164 L9.24672603,15.7702164 L9.24672603,17.7702164 L5.24672603,17.7702164 L5.24672603,15.7702164 Z M12.246726,15.7702164 L30.246726,15.7702164 L30.246726,17.7702164 L12.246726,17.7702164 L12.246726,15.7702164 Z M12.246726,20.7702164 L19.246726,20.7702164 L19.246726,22.7702164 L12.246726,22.7702164 L12.246726,20.7702164 Z M12.246726,33.7702164 L23.246726,33.7702164 L23.246726,35.7702164 L12.246726,35.7702164 L12.246726,33.7702164 Z M21.246726,20.7702164 L29.246726,20.7702164 L29.246726,22.7702164 L21.246726,22.7702164 L21.246726,20.7702164 Z M25.246726,33.7702164 L30.246726,33.7702164 L30.246726,35.7702164 L25.246726,35.7702164 L25.246726,33.7702164 Z M32.246726,15.7702164 L38.246726,15.7702164 L38.246726,17.7702164 L32.246726,17.7702164 L32.246726,15.7702164 Z M5.24672603,20.7702164 L9.24672603,20.7702164 L9.24672603,22.7702164 L5.24672603,22.7702164 L5.24672603,20.7702164 Z M5.24672603,25.7702164 L9.24672603,25.7702164 L9.24672603,27.7702164 L5.24672603,27.7702164 L5.24672603,25.7702164 Z M5.24672603,33.7702164 L9.24672603,33.7702164 L9.24672603,35.7702164 L5.24672603,35.7702164 L5.24672603,33.7702164 Z M5.24672603,38.7702164 L9.24672603,38.7702164 L9.24672603,40.7702164 L5.24672603,40.7702164 L5.24672603,38.7702164 Z M12.246726,38.7702164 L17.246726,38.7702164 L17.246726,40.7702164 L12.246726,40.7702164 L12.246726,38.7702164 Z M19.246726,38.7702164 L26.246726,38.7702164 L26.246726,40.7702164 L19.246726,40.7702164 L19.246726,38.7702164 Z M12.246726,10.7702164 L21.246726,10.7702164 L21.246726,12.7702164 L12.246726,12.7702164 L12.246726,10.7702164 Z M23.246726,10.7702164 L39.246726,10.7702164 L39.246726,12.7702164 L23.246726,12.7702164 L23.246726,10.7702164 Z"/>
    <path fill="#314451" d="M15.4982503,9.00224251 L15.4982503,8.50224251 C22.7113533,8.50224251 28.6324263,6.92044014 28.6324263,5.36060499 C28.6324263,3.80462622 22.7113712,2.2259875 15.4982503,2.2259875 C8.28512931,2.2259875 2.36407425,3.80462622 2.36407425,5.36060499 C2.36407425,6.92044014 8.28514722,8.50224251 15.4982503,8.50224251 L15.4982503,9.00224251 Z M15.4982503,9.00224251 L15.4982503,9.50224251 C7.65291025,9.50224251 1.36407425,7.82219301 1.36407425,5.36060499 C1.36407425,2.90243436 7.6519817,1.2259875 15.4982503,1.2259875 C23.3445188,1.2259875 29.6324263,2.90243436 29.6324263,5.36060499 C29.6324263,7.82219301 23.3435903,9.50224251 15.4982503,9.50224251 L15.4982503,9.00224251 Z M29.1324263,10.4548025 L28.6324263,10.4548025 L28.6324263,7.89917629 C26.1257538,9.36150033 21.2248226,10.2250125 15.4982503,10.2250125 C9.77194128,10.2250125 4.87248824,9.36145021 2.36407425,7.89867324 L2.36407425,10.4548025 C2.36407425,12.0128204 8.28109881,13.58942 15.4982503,13.58942 C22.7154017,13.58942 28.6324263,12.0128204 28.6324263,10.4548025 L29.1324263,10.4548025 Z M29.1324263,10.4548025 L29.6324263,10.4548025 C29.6324263,12.9151465 23.3488286,14.58942 15.4982503,14.58942 C7.64767196,14.58942 1.36407425,12.9151465 1.36407425,10.4548025 L1.36407425,5.86008405 L2.18836237,6.56246058 C4.07646247,8.1713121 9.27952644,9.22501249 15.4982503,9.22501249 C21.718061,9.22501249 26.9236861,8.17098788 28.8078127,6.56273813 L29.6324263,5.85886582 L29.6324263,10.4548025 L29.1324263,10.4548025 Z M29.1324263,15.5487075 L28.6324263,15.5487075 L28.6324263,12.9930915 C26.1256621,14.4555203 21.2245568,15.31921 15.4982503,15.31921 C9.77220702,15.31921 4.87258009,14.4554702 2.36407425,12.9925884 L2.36407425,15.5487075 C2.36407425,17.1046863 8.28512931,18.683325 15.4982503,18.683325 C22.7113712,18.683325 28.6324263,17.1046863 28.6324263,15.5487075 L29.1324263,15.5487075 Z M29.1324263,15.5487075 L29.6324263,15.5487075 C29.6324263,18.0068781 23.3445188,19.683325 15.4982503,19.683325 C7.6519817,19.683325 1.36407425,18.0068781 1.36407425,15.5487075 L1.36407425,10.9539891 L2.18836237,11.6563656 C4.07656633,13.2653056 9.27984523,14.31921 15.4982503,14.31921 C21.7177422,14.31921 26.9235826,13.2649813 28.8078127,11.6566431 L29.6324263,10.9527708 L29.6324263,15.5487075 L29.1324263,15.5487075 Z M29.1324263,20.6355925 L28.6324263,20.6355925 L28.6324263,18.080186 C26.1256208,19.5424384 21.224406,20.406095 15.4982503,20.406095 C9.77235783,20.406095 4.87262155,19.5423884 2.36407425,18.079683 L2.36407425,20.6355925 C2.36407425,22.1917566 8.2847631,23.77021 15.4982503,23.77021 C22.7117374,23.77021 28.6324263,22.1917566 28.6324263,20.6355925 L29.1324263,20.6355925 Z M29.1324263,20.6355925 L29.6324263,20.6355925 C29.6324263,23.0939607 23.3449104,24.77021 15.4982503,24.77021 C7.65159012,24.77021 1.36407425,23.0939607 1.36407425,20.6355925 L1.36407425,16.0412858 L2.18833046,16.7435159 C4.07660261,18.3522408 9.28002985,19.406095 15.4982503,19.406095 C21.7175575,19.406095 26.9235465,18.3519164 28.8078446,16.7437934 L29.6324263,16.0400678 L29.6324263,20.6355925 L29.1324263,20.6355925 Z M29.5,5.36060499 C29.5,3.24691941 23.481084,1.5 15.4982503,1.5 L15.4982503,1 L15.4982503,1.5 C7.51610701,1.5 1.5,3.24668675 1.5,5.36060499 L1.5,20.7782748 L1.52544154,20.8874268 C1.99816755,22.9155668 7.89140271,24.5 15.4982503,24.5 C23.1042641,24.5 28.9952937,22.9158698 29.4709098,20.8868176 L29.5,20.7627142 L29.5,5.36060499 Z M15.4982503,1 L15.4982503,0.5 C24.0782387,0.5 30.5,2.36384053 30.5,5.36060499 L30.5,21.5009263 C29.3901297,23.9870634 23.2054186,25.5 15.4982503,25.5 C7.7901482,25.5 1.6077095,23.9869981 0.5,21.5009263 L0.5,5.36060499 C0.5,2.36368485 6.91908314,0.5 15.4982503,0.5 L15.4982503,1 Z" transform="translate(33 26)"/>
  </g>
</svg>
