<svg xmlns="http://www.w3.org/2000/svg" width="112" height="92" viewBox="0 0 112 92">
  <path fill="#FFF" d="M85,36.6541353 L83,35.6390977 L83,15.77 C83,15.2177153 82.5522847,14.77 82,14.77 L29,14.77 C28.4477153,14.77 28,15.2177153 28,15.77 L28,56.77 C28,57.3222847 28.4477153,57.77 29,57.77 L60.5867037,57.77 L61.5718889,59.77 L29,59.77 C27.3431458,59.77 26,58.4268542 26,56.77 L26,15.77 C26,14.1131458 27.3431458,12.77 29,12.77 L82,12.77 C83.6568542,12.77 85,14.1131458 85,15.77 L85,36.6541353 Z M50,89.77 L50,76 L5,76 C2.23857625,76 3.33066907e-16,73.7614237 0,71 L0,5 C-3.33066907e-16,2.23857625 2.23857625,5.55111512e-16 5,0 L107,0 C109.761424,9.32587341e-15 112,2.23857625 112,5 L112,71 C112,73.7614237 109.761424,76 107,76 L60,76 L60,89.77 L77,89.77 C77.5522847,89.77 78,90.2177153 78,90.77 C78,91.3222847 77.5522847,91.77 77,91.77 L34,91.77 C33.4477153,91.77 33,91.3222847 33,90.77 C33,90.2177153 33.4477153,89.77 34,89.77 L50,89.77 Z M5,2 C3.34314575,2 2,3.34314575 2,5 L2,71 C2,72.6568542 3.34314575,74 5,74 L107,74 C108.656854,74 110,72.6568542 110,71 L110,5 C110,3.34314575 108.656854,2 107,2 L5,2 Z M79.5,19.77 C78.6715729,19.77 78,19.0984271 78,18.27 C78,17.4415729 78.6715729,16.77 79.5,16.77 C80.3284271,16.77 81,17.4415729 81,18.27 C81,19.0984271 80.3284271,19.77 79.5,19.77 Z M74.5,19.77 C73.6715729,19.77 73,19.0984271 73,18.27 C73,17.4415729 73.6715729,16.77 74.5,16.77 C75.3284271,16.77 76,17.4415729 76,18.27 C76,19.0984271 75.3284271,19.77 74.5,19.77 Z M69.5,19.77 C68.6715729,19.77 68,19.0984271 68,18.27 C68,17.4415729 68.6715729,16.77 69.5,16.77 C70.3284271,16.77 71,17.4415729 71,18.27 C71,19.0984271 70.3284271,19.77 69.5,19.77 Z M85.4712078,41.0350877 C87.6408311,41.0350877 89,42.5281864 89,44.6140351 L89,54.9298246 C89,60.3243084 85.7226436,63.6666667 80.4136234,63.6666667 L73.6701775,63.6666667 C71.1059105,63.6666667 68.9532623,62.5754841 67.2170912,60.7835664 C66.1921265,59.7256912 65.5219673,58.6690985 65.20502,57.9859973 L59.5557441,47.5809604 C58.6106022,45.6303213 58.799362,43.7826942 60.5658534,42.8666553 C62.8372008,41.6887702 64.9410097,42.8173175 66.7696624,45.2394104 L66.7696624,32.6326576 C66.7696624,30.6264017 68.3194868,29 70.2984546,29 C72.2774225,29 73.8272468,30.6264017 73.8272468,32.6326576 L73.8272468,36.1276033 C74.250651,35.9574987 74.7558972,35.877193 75.356039,35.877193 C77.4863611,35.877193 78.4218047,36.6777795 78.7442923,38.8098364 C79.2048617,38.5797888 79.7586365,38.4561404 80.4136234,38.4561404 C82.4323845,38.4561404 83.4896716,39.6307496 83.8199194,41.4749209 C84.2807415,41.1902818 84.8303817,41.0350877 85.4712078,41.0350877 Z M87,44.6140351 C87,43.5929988 86.4921331,43.0350877 85.4712078,43.0350877 C84.3389332,43.0350877 83.9424156,44.3491308 83.9424156,46.9522089 L81.9424156,46.9522089 L81.9424156,43.754386 C81.9426851,43.6262222 81.9426851,43.6262222 81.9434662,43.4946451 C81.9472622,42.8450949 81.938736,42.5138949 81.8957998,42.135141 C81.7603119,40.9399587 81.3839305,40.4561404 80.4136234,40.4561404 C79.4433163,40.4561404 79.066935,40.9399587 78.931447,42.135141 C78.8885109,42.5138949 78.8799847,42.8450949 78.8837806,43.4946451 C78.8845617,43.6262222 78.8845617,43.6262222 78.8848312,43.754386 L76.8848312,43.754386 L76.8848312,41.1754386 C76.8848312,38.2050385 76.7072487,37.877193 75.356039,37.877193 C74.137604,37.877193 73.8272468,38.6054406 73.8272468,42.0350877 L71.8272468,42.0350877 L71.8272468,32.6326576 C71.8272468,31.7099724 71.1507027,31 70.2984546,31 C69.4462065,31 68.7696624,31.7099724 68.7696624,32.6326576 L68.7696624,53.7970118 L66.850111,49.3052504 C66.7863045,49.1559428 66.6565685,48.8785128 66.4679622,48.516747 C66.1522034,47.9110899 65.7911211,47.3058045 65.3938828,46.7458001 C64.0166329,44.8042303 62.6869328,44.0196324 61.4865656,44.642124 C60.891789,44.9505537 60.8241985,45.6121457 61.3344519,46.6676941 L66.9898851,57.0856743 C67.047903,57.2099226 67.1797629,57.4547162 67.3854952,57.7790798 C67.7342741,58.3289748 68.15753,58.8800069 68.6534711,59.3918722 C70.0406953,60.8236387 71.7037924,61.6666667 73.6701775,61.6666667 L80.4136234,61.6666667 C84.6091869,61.6666667 87,59.2284351 87,54.9298246 L87,44.6140351 Z"/>
</svg>
