<svg xmlns="http://www.w3.org/2000/svg" width="72" height="58" viewBox="0 0 72 58">
  <g fill="none" transform="translate(7 6)">
    <path fill="#8B9CA7" d="M3,0 L56,0 C57.6568542,-3.33066907e-16 59,1.34314575 59,3 L59,44 C59,45.6568542 57.6568542,47 56,47 L3,47 C1.34314575,47 2.22044605e-16,45.6568542 0,44 L0,3 C-2.22044605e-16,1.34314575 1.34314575,3.33066907e-16 3,0 Z M3,2 C2.44771525,2 2,2.44771525 2,3 L2,44 C2,44.5522847 2.44771525,45 3,45 L56,45 C56.5522847,45 57,44.5522847 57,44 L57,3 C57,2.44771525 56.5522847,2 56,2 L3,2 Z M53.5,7 C52.6715729,7 52,6.32842712 52,5.5 C52,4.67157288 52.6715729,4 53.5,4 C54.3284271,4 55,4.67157288 55,5.5 C55,6.32842712 54.3284271,7 53.5,7 Z M48.5,7 C47.6715729,7 47,6.32842712 47,5.5 C47,4.67157288 47.6715729,4 48.5,4 C49.3284271,4 50,4.67157288 50,5.5 C50,6.32842712 49.3284271,7 48.5,7 Z M43.5,7 C42.6715729,7 42,6.32842712 42,5.5 C42,4.67157288 42.6715729,4 43.5,4 C44.3284271,4 45,4.67157288 45,5.5 C45,6.32842712 44.3284271,7 43.5,7 Z"/>
    <path fill="#314451" d="M22.1923882,32.263456 C22.5829124,32.6539803 22.5829124,33.2871452 22.1923882,33.6776695 C21.8018639,34.0681938 21.1686989,34.0681938 20.7781746,33.6776695 L12.2928932,25.1923882 C11.9023689,24.8018639 11.9023689,24.1686989 12.2928932,23.7781746 L20.7781746,15.2928932 C21.1686989,14.9023689 21.8018639,14.9023689 22.1923882,15.2928932 C22.5829124,15.6834175 22.5829124,16.3165825 22.1923882,16.7071068 L14.4142136,24.4852814 L22.1923882,32.263456 Z M36.7781746,32.263456 L44.5563492,24.4852814 L36.7781746,16.7071068 C36.3876503,16.3165825 36.3876503,15.6834175 36.7781746,15.2928932 C37.1686989,14.9023689 37.8018639,14.9023689 38.1923882,15.2928932 L46.6776695,23.7781746 C47.0681938,24.1686989 47.0681938,24.8018639 46.6776695,25.1923882 L38.1923882,33.6776695 C37.8018639,34.0681938 37.1686989,34.0681938 36.7781746,33.6776695 C36.3876503,33.2871452 36.3876503,32.6539803 36.7781746,32.263456 Z M32.7800955,15.3420201 C33.2990734,15.5309127 33.5666605,16.104755 33.377768,16.6237329 L27.2214054,33.5382001 C27.0325129,34.057178 26.4586705,34.3247651 25.9396926,34.1358726 C25.4207147,33.94698 25.1531276,33.3731377 25.3420201,32.8541598 L31.4983827,15.9396926 C31.6872752,15.4207147 32.2611176,15.1531276 32.7800955,15.3420201 Z"/>
  </g>
</svg>
