<?xml version="1.0" encoding="utf-8"?>
<!-- Generator: Adobe Illustrator 20.0.0, SVG Export Plug-In . SVG Version: 6.00 Build 0)  -->
<svg version="1.1" xmlns="http://www.w3.org/2000/svg" xmlns:xlink="http://www.w3.org/1999/xlink" x="0px" y="0px"
	 viewBox="0 0 374 374" style="enable-background:new 0 0 374 374;" xml:space="preserve">
<style type="text/css">
	.st0{fill:#4F86A0;}
	.st1{fill:#FFFFFF;}
	.st2{display:none;}
	.st3{display:inline;}
</style>
<!-- <g id="Layer_2">
	<rect x="0.4" class="st0" width="373.6" height="374"/>
</g> -->
<g id="Layer_3">
	<g>
		<path class="st1" d="M192.6,356.9c31,0,61.6-8.9,87.2-26.3c37.9-25.7,62.4-66.7,62.4-112.9c0-1.9-0.1-3.8-0.2-5.7
			c-0.1-1.6-0.2-3.2-0.3-4.8l0,0c-61.6-1.5-99.9-51.5-120.3-75.6c-24.7,34.3-57.5,53.4-89.2,63.8c18.8,3.4,35.6,13.4,38.6,30.9
			c10.5-3.5,21.8-3.5,32.3,0c3.8-22.1,29.7-32.2,53.8-32.2c26.1,0,54.3,11.9,54.3,38c0,34.2-27.3,52-54.3,52
			c-26.3,0-53-17-54.2-49.6c-5-2.1-10.3-3.1-15.7-3c-5.4-0.1-10.8,0.9-15.8,3c-0.6,15-6.4,27.6-17,36.6c-9.8,8.4-23,12.9-37.2,12.9
			l0,0c-27,0-54.3-17.9-54.3-52c0-10.9,5-19.4,12.6-25.5c-7.4,0.6-14.4,0.8-20.6,0.8c-9.4,0-17.1-0.5-22.5-1l0,0
			c-0.2,1.8-0.3,3.6-0.4,5.4c-0.1,2-0.2,3.9-0.2,5.9c0,46.2,24.5,87.2,62.4,112.9c25.7,17.4,56.2,26.3,87.2,26.3H192.6z M94.7,303
			c-2.6,0-4.7-2.1-4.7-4.7c0-2.6,2.1-4.7,4.7-4.7c2.6,0,4.7,2.1,4.7,4.7C99.4,300.8,97.3,302.9,94.7,303C94.7,303,94.7,303,94.7,303
			z M106.2,321.4c-2.6,0-4.7-2.1-4.7-4.7c0-2.6,2.1-4.7,4.7-4.7c2.6,0,4.7,2.1,4.7,4.7C111,319.3,108.8,321.4,106.2,321.4
			L106.2,321.4L106.2,321.4z M117.8,303c-2.6,0-4.7-2.1-4.7-4.7c0-2.6,2.1-4.7,4.7-4.7c2.6,0,4.7,2.1,4.7,4.7
			C122.5,300.8,120.4,302.9,117.8,303L117.8,303z M190.4,257.8v7.7c-5.8,0-10.4,4.7-10.4,10.4c0,5.8,4.7,10.4,10.4,10.4v7.7
			c-10-0.2-18-8.6-17.7-18.6C172.9,265.8,180.7,258,190.4,257.8L190.4,257.8L190.4,257.8z M187,325.9c-14.2,0-26.1-7.7-27.7-17.8
			l7.7-1.2c1,6.3,9.8,11.3,20.1,11.3s19.1-5,20.1-11.3l7.7,1.2C213.1,318.3,201.2,325.9,187,325.9L187,325.9z M256.2,303
			c-2.6,0-4.7-2.1-4.7-4.7c0-2.6,2.1-4.7,4.7-4.7c2.6,0,4.7,2.1,4.7,4.7C260.9,300.8,258.8,303,256.2,303L256.2,303z M267.8,321.4
			c-2.6,0-4.7-2.1-4.7-4.7c0-2.6,2.1-4.7,4.7-4.7c2.6,0,4.7,2.1,4.7,4.7c0,0,0,0,0,0C272.5,319.3,270.4,321.4,267.8,321.4
			L267.8,321.4L267.8,321.4z M279.3,303c-2.6,0-4.7-2.1-4.7-4.7c0-2.6,2.1-4.7,4.7-4.7c2.6,0,4.7,2.1,4.7,4.7c0,0,0,0,0,0
			C284,300.8,281.9,302.9,279.3,303L279.3,303L279.3,303z"/>
		<path class="st1" d="M117.1,276.4L117.1,276.4c12.3,0,23.7-3.9,32.1-11.1c9.4-8,14.4-19.5,14.4-33.2c0-20.8-24.1-30.2-46.6-30.2
			c-22.5,0-46.6,9.5-46.6,30.2C70.5,262.5,94.6,276.4,117.1,276.4z M91.5,232.3c0.3,14.1,11.9,25.3,26,25c13.7-0.3,24.7-11.3,25-25
			h7.7c-0.3,18.4-15.5,33-33.8,32.7c-17.9-0.3-32.4-14.8-32.7-32.7L91.5,232.3L91.5,232.3z"/>
		<path class="st1" d="M256.9,276.4c22.4,0,46.6-13.9,46.6-44.3c0-20.8-24.1-30.2-46.6-30.2s-46.6,9.5-46.6,30.2
			C210.4,262.5,234.5,276.4,256.9,276.4z M231.4,232.3c0.3,14.1,11.9,25.3,26,25c13.7-0.3,24.7-11.3,25-25h7.8
			c-0.3,18.4-15.5,33-33.8,32.7c-17.9-0.3-32.4-14.8-32.7-32.7L231.4,232.3L231.4,232.3L231.4,232.3z"/>
		<path class="st1" d="M222.6,31.5c-39.2-15.1-76.1-20.6-113.8-2C45.5,64.3,1.7,140.2,1.7,228.2c0,54.6,22.8,99.8,79.9,102.8
			C46.4,303.7,24,263,24,217.7c0-3.7,0.2-7.6,0.6-12.1l0.7-7.7l7.7,0.7c4.8,0.4,12.4,0.9,21.8,0.9c40.4,0,114.9-9.4,160.4-72.5
			l5.8-8l6.4,7.6l3.4,4c21.1,25.3,56.3,67.6,111.2,68.9l7,0.2l0.5,7c0.3,4.2,0.5,7.7,0.5,11.1c0,45.3-22.4,85.9-57.6,113.2
			C450.7,322.5,345.2-9.4,222.6,31.5z"/>
	</g>
</g>
<g id="Layer_1" class="st2">
	<g class="st3">
		<path class="st1" d="M247.8,135.8c-21.8,0-39.4,17.7-39.4,39.4s17.7,39.4,39.4,39.4s39.4-17.7,39.4-39.4c0,0,0,0,0,0
			C287.2,153.4,269.6,135.8,247.8,135.8z M247.8,204.3c-16.9,0-30.6-13.7-30.6-30.6h9c0,11.9,9.7,21.6,21.6,21.6
			c11.9,0,21.6-9.7,21.6-21.6h9C278.5,190.6,264.7,204.3,247.8,204.3z"/>
		<path class="st1" d="M128.4,135.8c-21.8,0-39.4,17.7-39.4,39.4s17.7,39.4,39.4,39.4s39.4-17.7,39.4-39.4c0,0,0,0,0,0
			C167.8,153.4,150.2,135.8,128.4,135.8z M128.4,204.3c-16.9,0-30.6-13.7-30.6-30.6h9c0,11.9,9.7,21.6,21.6,21.6s21.6-9.7,21.6-21.6
			h9C159.1,190.6,145.4,204.3,128.4,204.3z"/>
		<path class="st1" d="M65.6,142.6l17.5,15.7c9.3-25,37.2-37.8,62.2-28.5c16.5,6.2,28.4,20.8,31,38.3H200
			c3.9-26.4,28.4-44.7,54.9-40.8c17.5,2.6,32.2,14.4,38.3,31l18-16.1c-3.7-5.8-7.8-11.3-12.3-16.5c30.1-8.2,51-35.5,51-66.7h-48.7
			c-1.4,0-2.7,0-4,0.1c9.4-12.1,14.5-26.9,14.4-42.2H193.2c-26.6,0-52.5,8-74.4,22.9v-23c-41.2,0-74.5,33.3-74.5,74.5c0,0,0,0,0,0
			C44.3,110,51.5,129.9,65.6,142.6z"/>
		<path class="st1" d="M217.6,354.3c65.2-9.9,114.8-64.8,116.2-130.7c0-1.1,0-2.2,0-3.3c0-5.4-0.3-10.7-0.9-16l0,0
			c15.2,0,27.6-12.3,27.6-27.5c0,0,0-0.1,0-0.1c0-15.2-12.3-27.6-27.6-27.6c0,0,0,0,0,0h-16.1l-21.2,19c4,26.4-14.1,51.1-40.6,55.1
			c-26.4,4-51.1-14.1-55.1-40.6c-0.3-1.8-0.5-3.7-0.5-5.5h-22.7c-0.8,26.7-23.1,47.7-49.8,47c-26.7-0.8-47.7-23.1-47-49.8
			c0.1-2.1,0.3-4.1,0.6-6.2l-21.2-19H43.3C28,149.5,16,162.2,16.4,177.4c0.4,14.6,12.2,26.4,26.8,26.8l0,0c-0.6,5.3-0.9,10.7-0.9,16
			c0,1.1,0,2.2,0,3.3c1.5,65.9,51.1,120.9,116.4,130.7l9.2,1.4c13.6,2.1,27.5,2,41.1,0L217.6,354.3z M73.8,240.6
			c-3.1,0-5.7-2.5-5.7-5.7s2.5-5.7,5.7-5.7s5.7,2.5,5.7,5.7C79.5,238,77,240.6,73.8,240.6C73.9,240.6,73.9,240.6,73.8,240.6z
			 M87.7,262.8c-3.1,0-5.7-2.5-5.7-5.7c0-3.1,2.5-5.7,5.7-5.7s5.7,2.5,5.7,5.7C93.4,260.3,90.9,262.8,87.7,262.8L87.7,262.8z
			 M194.5,205.9v9c-7.3,0-13.3,6-13.3,13.3c0,7.3,6,13.3,13.3,13.3v9c-12.3,0-22.3-10-22.3-22.3S182.2,205.9,194.5,205.9
			L194.5,205.9z M101.6,240.6c-3.1,0-5.7-2.5-5.7-5.7s2.5-5.7,5.7-5.7s5.7,2.5,5.7,5.7C107.3,238,104.8,240.6,101.6,240.6
			L101.6,240.6z M258.4,250.5h-12.6c-2.5,31.9-30.3,55.7-62.2,53.2c-28.4-2.2-51-24.8-53.2-53.2h-12.6v-9h33.8v9h-12.2
			c2.5,26.9,26.3,46.6,53.1,44.2c23.4-2.2,42-20.7,44.2-44.2h-12.2v-9h33.8V250.5z M274.6,240.6c-3.1,0-5.7-2.5-5.7-5.7
			s2.5-5.7,5.7-5.7c3.1,0,5.7,2.5,5.7,5.7C280.3,238,277.8,240.6,274.6,240.6C274.6,240.6,274.6,240.6,274.6,240.6z M288.5,262.8
			c-3.1,0-5.7-2.5-5.7-5.7c0-3.1,2.5-5.7,5.7-5.7s5.7,2.5,5.7,5.7c0,0,0,0,0,0C294.2,260.3,291.6,262.8,288.5,262.8L288.5,262.8z
			 M302.4,240.6c-3.1,0-5.7-2.5-5.7-5.7c0-3.1,2.5-5.7,5.7-5.7c3.1,0,5.7,2.5,5.7,5.7c0,0,0,0,0,0
			C308.1,238,305.5,240.6,302.4,240.6z"/>
	</g>
</g>
</svg>
