<?xml version="1.0" encoding="utf-8"?>
<!-- Generator: Adobe Illustrator 16.0.0, SVG Export Plug-In . SVG Version: 6.00 Build 0)  -->
<!DOCTYPE svg PUBLIC "-//W3C//DTD SVG 1.1//EN" "http://www.w3.org/Graphics/SVG/1.1/DTD/svg11.dtd" [
	<!ENTITY st0 "fill:#4F86A0;">
	<!ENTITY st1 "fill:#FFFFFF;">
]>
<svg version="1.1" id="Layer_1" xmlns="http://www.w3.org/2000/svg" xmlns:xlink="http://www.w3.org/1999/xlink" x="0px" y="0px"
	 width="500px" height="700px" viewBox="0 0 500 700" style="enable-background:new 0 0 500 700;" xml:space="preserve">
<rect x="0.287" style="&st0;" width="499.713" height="701.229"/>
<path style="&st1;" d="M110.78,575.909h9.006v69.923h262.68v-69.923h9.006v69.923h66.417v-78.518
	c-0.003-72.096-55.935-131.826-127.874-136.56c-0.482,42.874-35.121,77.513-77.995,77.995c-43.566,0.49-79.281-34.43-79.771-77.995
	c-66.337,4.36-119.063,55.483-126.882,119.942v95.135h65.415V575.909z M315.519,543.593c11.083,0.006,21.394,5.674,27.338,15.026
	l-9.546,6.09c-6.208-9.82-19.202-12.75-29.022-6.543c-9.821,6.208-12.751,19.201-6.543,29.022s19.201,12.751,29.022,6.543
	c2.639-1.668,4.874-3.903,6.543-6.543l9.546,5.931c-5.919,9.38-16.246,15.056-27.338,15.026c-18.281,0-33.058-14.024-33.058-32.276
	S297.277,543.593,315.519,543.593z M325.396,575.949c0,5.433-4.404,9.837-9.837,9.837c-5.434,0-9.838-4.404-9.838-9.837
	c0-5.434,4.404-9.837,9.838-9.837C320.992,566.112,325.396,570.516,325.396,575.949z M256.045,581.318l-10.539-2.715
	c-9.016-2.384-15.146-8.475-15.146-17.12c-0.25-9.877,10.128-18.111,21.738-17.861c7.583-0.075,14.978,2.354,21.037,6.913
	l-6.501,9.216c-4.134-3.288-9.297-5.009-14.576-4.858c-9.637,0-14.485,9.797-3.626,12.922l9.877,2.555
	c9.467,2.385,17.12,8.476,17.12,18.522c0.251,10.699-10.618,19.515-23.381,19.264c-8.307,0.102-16.383-2.737-22.8-8.014l6.631-9.246
	c4.399,4.085,10.217,6.291,16.218,6.15C263.538,597.046,268.728,584.774,256.045,581.318z M192.493,543.633
	c8.426,0.005,16.516,3.305,22.54,9.195l8.404-8.404v24.804l-24.733-0.021l8.384-8.385c-1.022-0.982-2.14-1.859-3.338-2.617
	c-9.819-6.211-22.814-3.285-29.024,6.534s-3.285,22.813,6.535,29.024c9.819,6.21,22.813,3.284,29.024-6.535l9.546,5.931
	c-5.919,9.38-16.246,15.056-27.338,15.026c-18.242,0-33.058-14.024-33.058-32.276S174.211,543.633,192.493,543.633z"/>
<path style="&st1;" d="M310.831,188.721c-21.776,0-39.43,17.653-39.43,39.429c0,21.776,17.653,39.429,39.43,39.429
	s39.429-17.653,39.429-39.429c0-0.003,0-0.007,0-0.01C350.232,206.376,332.594,188.743,310.831,188.721z M310.831,257.261
	c-16.904-0.022-30.602-13.72-30.624-30.624h9.016c0,11.942,9.682,21.623,21.623,21.623c11.942,0,21.623-9.681,21.623-21.623h9.016
	C341.462,243.553,327.746,257.255,310.831,257.261z"/>
<path style="&st1;" d="M191.441,188.721c-21.776,0-39.429,17.653-39.429,39.429c0,21.776,17.653,39.429,39.429,39.429
	c21.776,0,39.429-17.653,39.429-39.429c0-0.003,0-0.007,0-0.01C230.843,206.376,213.205,188.743,191.441,188.721z M191.441,257.261
	c-16.903-0.022-30.601-13.72-30.624-30.624h9.016c0,11.942,9.681,21.623,21.623,21.623s21.623-9.681,21.623-21.623h9.016
	C222.073,243.553,208.357,257.255,191.441,257.261z"/>
<path style="&st1;" d="M128.632,195.513l17.51,15.667c9.313-25.029,37.154-37.769,62.183-28.455
	c16.547,6.157,28.423,20.844,30.981,38.313h23.671c3.87-26.424,28.428-44.708,54.852-40.838
	c17.469,2.558,32.154,14.434,38.312,30.98l18.032-16.108c-3.692-5.783-7.786-11.3-12.252-16.509
	c30.099-8.182,50.988-35.506,50.99-66.697h-48.726c-1.362,0-2.705,0-4.008,0.13c9.374-12.085,14.453-26.95,14.436-42.244H256.245
	c-26.561-0.039-52.512,7.962-74.44,22.95v-22.96c-41.151-0.006-74.515,33.349-74.521,74.5c0,0.003,0,0.006,0,0.01
	C107.284,162.945,114.487,182.87,128.632,195.513z"/>
<path style="&st1;" d="M423.568,229.602c0-15.22-12.338-27.558-27.559-27.558c-0.01,0-0.02,0-0.029,0h-16.139l-21.188,18.963
	c4.016,26.414-14.141,51.081-40.554,55.097c-26.413,4.015-51.081-14.142-55.097-40.555c-0.278-1.831-0.451-3.676-0.518-5.526h-22.71
	c-0.783,26.716-23.074,47.74-49.791,46.958c-26.716-0.783-47.74-23.075-46.958-49.791c0.061-2.071,0.254-4.136,0.58-6.183
	l-21.177-18.963h-16.178c-15.215,0.41-27.216,13.077-26.806,28.291c0.395,14.638,12.168,26.411,26.806,26.806l0,0
	c-0.592,5.322-0.893,10.673-0.902,16.028c-0.018,53.309,29.078,102.372,75.863,127.924v29.302l0,0
	c0,38.598,31.29,69.887,69.888,69.887c38.598,0,69.888-31.289,69.888-69.887v-29.262c46.784-25.553,75.881-74.616,75.862-127.924
	c-0.009-5.355-0.31-10.706-0.901-16.028l0,0c15.22,0.033,27.585-12.278,27.618-27.498
	C423.568,229.656,423.568,229.629,423.568,229.602z M136.846,293.514c-3.137,0-5.68-2.543-5.68-5.68c0-3.137,2.543-5.68,5.68-5.68
	c3.137,0,5.68,2.543,5.68,5.68c0.005,3.131-2.528,5.675-5.66,5.68C136.859,293.514,136.853,293.514,136.846,293.514z
	 M150.74,315.783c-3.137,0-5.68-2.543-5.68-5.68c0-3.137,2.543-5.68,5.68-5.68c3.137,0,5.68,2.543,5.68,5.68
	c-0.017,3.125-2.555,5.65-5.68,5.65V315.783z M257.527,258.884v9.016c-7.342,0-13.293,5.952-13.293,13.293
	c0,7.342,5.952,13.293,13.293,13.293v9.016c-12.329,0-22.324-9.995-22.324-22.324s9.995-22.324,22.324-22.324V258.884z
	 M164.635,293.514c-3.137,0-5.68-2.543-5.68-5.68c0-3.137,2.543-5.68,5.68-5.68c3.137,0,5.68,2.543,5.68,5.68
	C170.314,290.971,167.771,293.514,164.635,293.514L164.635,293.514z M321.409,303.472h-12.582
	c-2.485,31.865-30.332,55.681-62.197,53.195c-28.41-2.217-50.979-24.785-53.195-53.195h-12.592v-9.016h33.819v9.016h-12.181
	c2.471,26.869,26.256,46.647,53.125,44.175c23.446-2.156,42.02-20.729,44.176-44.175H287.61v-9.016h33.799V303.472z
	 M337.617,293.514c-3.137,0-5.68-2.543-5.68-5.68c0-3.137,2.543-5.68,5.68-5.68c3.138,0,5.681,2.543,5.681,5.68
	c0.005,3.131-2.528,5.675-5.66,5.68C337.631,293.514,337.625,293.514,337.617,293.514z M351.512,315.783
	c-3.137,0.005-5.684-2.533-5.689-5.67s2.533-5.685,5.67-5.69s5.685,2.533,5.689,5.67c0,0.003,0,0.007,0,0.01
	c-0.016,3.121-2.548,5.645-5.67,5.65V315.783z M365.406,293.514c-3.137,0.006-5.685-2.533-5.689-5.67
	c-0.006-3.137,2.532-5.685,5.67-5.69c3.137-0.005,5.685,2.533,5.689,5.67c0,0.003,0,0.007,0,0.01
	C371.076,290.967,368.539,293.509,365.406,293.514z"/>
</svg>
