<svg xmlns="http://www.w3.org/2000/svg" width="24" height="24" viewBox="0 0 24 24">
  <path d="M6,2 L18,2 C20.209139,2 22,3.790861 22,6 L22,18 C22,20.209139 20.209139,22 18,22 L6,22 C3.790861,22 2,20.209139 2,18 L2,6 C2,3.790861 3.790861,2 6,2 Z M12,17 C14.7614237,17 17,14.7614237 17,12 C17,9.23857625 14.7614237,7 12,7 C9.23857625,7 7,9.23857625 7,12 C7,14.7614237 9.23857625,17 12,17 Z M12,15 C10.3431458,15 9,13.6568542 9,12 C9,10.3431458 10.3431458,9 12,9 C13.6568542,9 15,10.3431458 15,12 C15,13.6568542 13.6568542,15 12,15 Z M18,7 C18.5522847,7 19,6.55228475 19,6 C19,5.44771525 18.5522847,5 18,5 C17.4477153,5 17,5.44771525 17,6 C17,6.55228475 17.4477153,7 18,7 Z"/>
</svg>
