<svg xmlns="http://www.w3.org/2000/svg" width="24" height="24" viewBox="0 0 24 24">
  <path fill-rule="evenodd" d="M17.3200032,19.8121471 C17.5883378,20.0059473 17.9341727,20.0543974 18.2425074,19.9353972 C18.5508422,19.8155471 18.7775099,19.5469468 18.8458435,19.2213964 C19.5700134,15.7499924 21.3266881,6.96353232 21.9858577,3.80577869 C22.035858,3.56777842 21.9525243,3.32042814 21.7691901,3.16147795 C21.5858559,3.00252777 21.3316881,2.95662772 21.1050204,3.04247782 C17.6108379,4.36167933 6.84995571,8.47993406 2.45160241,10.139986 C2.17243448,10.2453861 1.99076698,10.5190864 1.99993369,10.8191368 C2.00993374,11.1200371 2.20826797,11.3809874 2.4941026,11.4685375 C4.46661156,12.0703382 7.05578998,12.9075892 7.05578998,12.9075892 C7.05578998,12.9075892 8.26579547,16.6348434 8.89663167,18.5303456 C8.97579869,18.7683459 9.15829952,18.9553461 9.39913395,19.0199462 C9.63913504,19.0836962 9.89580287,19.0165462 10.0749703,18.843996 C11.0883083,17.8681949 12.6549821,16.3594431 12.6549821,16.3594431 C12.6549821,16.3594431 15.6316622,18.5855957 17.3200032,19.8121471 Z M8.14496159,12.4366886 L9.5441346,17.143994 L9.85496935,14.1630406 C9.85496935,14.1630406 15.2608272,9.18968488 18.3425079,6.35493162 C18.4325083,6.27163153 18.4450083,6.13223137 18.370008,6.03448126 C18.295841,5.93673114 18.1591737,5.91378112 18.0566732,5.98008119 C14.4849904,8.30653387 8.14496159,12.4366886 8.14496159,12.4366886 Z"/>
</svg>
