<svg xmlns="http://www.w3.org/2000/svg" width="24" height="24" viewBox="0 0 24 24">
  <path fill-rule="evenodd" d="M19.6439514,5.68763542 C20.4915185,5.15722952 21.1418677,4.3161924 21.4470858,3.3143146 C20.6535188,3.80665896 19.7766039,4.16271847 18.8409931,4.35548173 C18.0943828,3.52058356 17.0272935,3 15.8463344,3 C13.5806773,3 11.7446734,4.92149357 11.7446734,7.29113101 C11.7446734,7.62754586 11.7787169,7.95536617 11.8491518,8.26845298 C8.44010096,8.08919544 5.4172683,6.38256536 3.3922639,3.78455872 C3.0389153,4.42055467 2.83700182,5.15722952 2.83700182,5.94301603 C2.83700182,7.43109923 3.56130774,8.74483605 4.66244057,9.51588907 C3.98978693,9.49378882 3.35704643,9.29856998 2.80295827,8.97934421 L2.80295827,9.03213925 C2.80295827,11.1120179 4.21635264,12.8468872 6.09579151,13.2397804 C5.75066033,13.3404593 5.38909432,13.3907988 5.01344133,13.3907988 C4.74931032,13.3907988 4.49104889,13.3650152 4.24217879,13.3146757 C4.76339731,15.0188502 6.27892235,16.2613751 8.07501321,16.2945255 C6.66983624,17.4461938 4.90074544,18.1313015 2.97904561,18.1313015 C2.64800141,18.1313015 2.32047896,18.1128846 2,18.0723675 C3.81604743,19.2891088 5.97253038,20 8.28983976,20 C15.838117,20 19.9632564,13.4607829 19.9632564,7.78961433 C19.9632564,7.60299003 19.9609086,7.41759353 19.9526912,7.23465261 C20.7544756,6.62935144 21.4517814,5.87303192 22,5.01235014 C21.2639549,5.35367615 20.4727358,5.58450094 19.6439514,5.68763542 Z"/>
</svg>
