<svg xmlns="http://www.w3.org/2000/svg" width="24" height="24" viewBox="0 0 24 24">
  <path d="M22.3125,6.34204545 C22.7628125,8.0125 22.7628125,11.5 22.7628125,11.5 C22.7628125,11.5 22.7628125,14.9875 22.3125,16.6579545 C22.0615625,17.5818182 21.329375,18.3079545 20.40125,18.5534091 C18.716875,19 11.95875,19 11.95875,19 C11.95875,19 5.2040625,19 3.51625,18.5534091 C2.5846875,18.3045455 1.8525,17.5784091 1.605,16.6579545 C1.1546875,14.9875 1.1546875,11.5 1.1546875,11.5 C1.1546875,11.5 1.1546875,8.0125 1.605,6.34204545 C1.8559375,5.41818182 2.588125,4.69204545 3.51625,4.44659091 C5.2040625,4 11.95875,4 11.95875,4 C11.95875,4 18.716875,4 20.40125,4.44659091 C21.3328125,4.69545455 22.065,5.42159091 22.3125,6.34204545 Z M9.8,14.7147727 L15.4134375,11.5 L9.8,8.28522727 L9.8,14.7147727 Z"/>
</svg>
