<?xml version="1.0" encoding="UTF-8"?>
<svg width="115px" height="78px" viewBox="0 0 115 78" version="1.1" xmlns="http://www.w3.org/2000/svg" xmlns:xlink="http://www.w3.org/1999/xlink">
    <!-- Generator: Sketch 48.1 (47250) - http://www.bohemiancoding.com/sketch -->
    <title>data-science</title>
    <desc>Created with Sketch.</desc>
    <defs>
        <circle id="path-1" cx="39" cy="39" r="39"></circle>
    </defs>
    <g id="redisign-1.1-copy-10" stroke="none" stroke-width="1" fill="none" fill-rule="evenodd" transform="translate(-685.000000, -685.000000)">
        <g id="Group-23" transform="translate(0.000000, 510.000000)">
            <g id="data-science" transform="translate(685.000000, 175.000000)">
                <g id="Group-11" transform="translate(0.000000, 10.000000)" fill="#1D1D1D">
                    <path d="M2.3880597,54 L77.6119403,54 L77.6119403,44.3437192 C72.0378525,49.0863463 57.3193235,52 40,52 C22.6806765,52 7.9621475,49.0863463 2.3880597,44.3437192 L2.3880597,54 Z M0.11588762,55 L0,55 L0,12 C0,4.75341022 17.8784981,0 40,0 C62.1215019,0 80,4.75341022 80,12 L80,55 L79.8841124,55 C78.318668,61.6807498 61.0870652,66 40,66 C18.9129348,66 1.68133201,61.6807498 0.11588762,55 Z M2.3880597,40 L77.6119403,40 L77.6119403,30.3437192 C72.0378525,35.0863463 57.3193235,38 40,38 C22.6806765,38 7.9621475,35.0863463 2.3880597,30.3437192 L2.3880597,40 Z M2.3880597,26 L77.6119403,26 L77.6119403,16.3437192 C72.0378525,21.0863463 57.3193235,24 40,24 C22.6806765,24 7.9621475,21.0863463 2.3880597,16.3437192 L2.3880597,26 Z M40,22 C60.772501,22 77.6119403,17.5228475 77.6119403,12 C77.6119403,6.4771525 60.772501,2 40,2 C19.227499,2 2.3880597,6.4771525 2.3880597,12 C2.3880597,17.5228475 19.227499,22 40,22 Z M2.3880597,26 C2.3880597,31.5228475 19.227499,36 40,36 C60.772501,36 77.6119403,31.5228475 77.6119403,26 L2.3880597,26 Z M2.3880597,40 C2.3880597,45.5228475 19.227499,50 40,50 C60.772501,50 77.6119403,45.5228475 77.6119403,40 L2.3880597,40 Z M2.3880597,54 C2.3880597,59.5228475 19.227499,64 40,64 C60.772501,64 77.6119403,59.5228475 77.6119403,54 L2.3880597,54 Z" id="Combined-Shape"></path>
                </g>
                <g id="Group-13" transform="translate(37.000000, 0.000000)">
                    <mask id="mask-2" fill="white">
                        <use xlink:href="#path-1"></use>
                    </mask>
                    <use id="Oval-7" fill="#07C39F" xlink:href="#path-1"></use>
                    <g id="Group-11" mask="url(#mask-2)" fill="#FFFFFF">
                        <g transform="translate(-32.000000, 10.000000)" id="Combined-Shape">
                            <path d="M2.3880597,54 L77.6119403,54 L77.6119403,44.3437192 C72.0378525,49.0863463 57.3193235,52 40,52 C22.6806765,52 7.9621475,49.0863463 2.3880597,44.3437192 L2.3880597,54 Z M0.11588762,55 L0,55 L0,12 C0,4.75341022 17.8784981,0 40,0 C62.1215019,0 80,4.75341022 80,12 L80,55 L79.8841124,55 C78.318668,61.6807498 61.0870652,66 40,66 C18.9129348,66 1.68133201,61.6807498 0.11588762,55 Z M2.3880597,40 L77.6119403,40 L77.6119403,30.3437192 C72.0378525,35.0863463 57.3193235,38 40,38 C22.6806765,38 7.9621475,35.0863463 2.3880597,30.3437192 L2.3880597,40 Z M2.3880597,26 L77.6119403,26 L77.6119403,16.3437192 C72.0378525,21.0863463 57.3193235,24 40,24 C22.6806765,24 7.9621475,21.0863463 2.3880597,16.3437192 L2.3880597,26 Z M40,22 C60.772501,22 77.6119403,17.5228475 77.6119403,12 C77.6119403,6.4771525 60.772501,2 40,2 C19.227499,2 2.3880597,6.4771525 2.3880597,12 C2.3880597,17.5228475 19.227499,22 40,22 Z M2.3880597,26 C2.3880597,31.5228475 19.227499,36 40,36 C60.772501,36 77.6119403,31.5228475 77.6119403,26 L2.3880597,26 Z M2.3880597,40 C2.3880597,45.5228475 19.227499,50 40,50 C60.772501,50 77.6119403,45.5228475 77.6119403,40 L2.3880597,40 Z M2.3880597,54 C2.3880597,59.5228475 19.227499,64 40,64 C60.772501,64 77.6119403,59.5228475 77.6119403,54 L2.3880597,54 Z"></path>
                        </g>
                    </g>
                </g>
            </g>
        </g>
    </g>
</svg>