<?xml version="1.0" encoding="UTF-8"?>
<svg width="115px" height="78px" viewBox="0 0 115 78" version="1.1" xmlns="http://www.w3.org/2000/svg" xmlns:xlink="http://www.w3.org/1999/xlink">
    <!-- Generator: Sketch 48.1 (47250) - http://www.bohemiancoding.com/sketch -->
    <title>software-engineering</title>
    <desc>Created with Sketch.</desc>
    <defs>
        <ellipse id="path-1" cx="37" cy="39" rx="37" ry="39"></ellipse>
    </defs>
    <g id="redisign-1.1-copy-10" stroke="none" stroke-width="1" fill="none" fill-rule="evenodd" transform="translate(-276.000000, -689.000000)">
        <g id="Group-23" transform="translate(0.000000, 510.000000)">
            <g id="software-engineering" transform="translate(276.000000, 179.000000)">
                <g id="Group-4" transform="translate(0.000000, 11.000000)" fill="#1D1D1D" fill-rule="nonzero">
                    <path d="M82,10 L82,6 C82,3.790861 80.209139,2 78,2 L6,2 C3.790861,2 2,3.790861 2,6 L2,54 C2,56.209139 3.790861,58 6,58 L78,58 C80.209139,58 82,56.209139 82,54 L82,12 L2,12 L2,10 L82,10 Z M6,0 L78,0 C81.3137085,-4.4408921e-16 84,2.6862915 84,6 L84,54 C84,57.3137085 81.3137085,60 78,60 L6,60 C2.6862915,60 4.4408921e-16,57.3137085 0,54 L0,6 C-4.4408921e-16,2.6862915 2.6862915,6.66133815e-16 6,0 Z M77,8 C75.8954305,8 75,7.1045695 75,6 C75,4.8954305 75.8954305,4 77,4 C78.1045695,4 79,4.8954305 79,6 C79,7.1045695 78.1045695,8 77,8 Z M71,8 C69.8954305,8 69,7.1045695 69,6 C69,4.8954305 69.8954305,4 71,4 C72.1045695,4 73,4.8954305 73,6 C73,7.1045695 72.1045695,8 71,8 Z M65,8 C63.8954305,8 63,7.1045695 63,6 C63,4.8954305 63.8954305,4 65,4 C66.1045695,4 67,4.8954305 67,6 C67,7.1045695 66.1045695,8 65,8 Z" id="Combined-Shape"></path>
                </g>
                <g id="Group-6" transform="translate(41.000000, 0.000000)">
                    <mask id="mask-2" fill="white">
                        <use xlink:href="#path-1"></use>
                    </mask>
                    <use id="Oval-7" fill="#07C39F" xlink:href="#path-1"></use>
                    <path d="M42.1794872,21 L42.1794872,17 C42.1794872,14.790861 40.4804652,13 38.3846154,13 L-29.9230769,13 C-32.0189267,13 -33.7179487,14.790861 -33.7179487,17 L-33.7179487,65 C-33.7179487,67.209139 -32.0189267,69 -29.9230769,69 L38.3846154,69 C40.4804652,69 42.1794872,67.209139 42.1794872,65 L42.1794872,23 L-33.7179487,23 L-33.7179487,21 L42.1794872,21 Z M-29.9230769,11 L38.3846154,11 C41.5283901,11 44.0769231,13.6862915 44.0769231,17 L44.0769231,65 C44.0769231,68.3137085 41.5283901,71 38.3846154,71 L-29.9230769,71 C-33.0668517,71 -35.6153846,68.3137085 -35.6153846,65 L-35.6153846,17 C-35.6153846,13.6862915 -33.0668517,11 -29.9230769,11 Z M37.4358974,19 C36.3879725,19 35.5384615,18.1045695 35.5384615,17 C35.5384615,15.8954305 36.3879725,15 37.4358974,15 C38.4838223,15 39.3333333,15.8954305 39.3333333,17 C39.3333333,18.1045695 38.4838223,19 37.4358974,19 Z M31.7435897,19 C30.6956648,19 29.8461538,18.1045695 29.8461538,17 C29.8461538,15.8954305 30.6956648,15 31.7435897,15 C32.7915147,15 33.6410256,15.8954305 33.6410256,17 C33.6410256,18.1045695 32.7915147,19 31.7435897,19 Z M26.0512821,19 C25.0033571,19 24.1538462,18.1045695 24.1538462,17 C24.1538462,15.8954305 25.0033571,15 26.0512821,15 C27.099207,15 27.9487179,15.8954305 27.9487179,17 C27.9487179,18.1045695 27.099207,19 26.0512821,19 Z" id="Combined-Shape" fill="#FFFFFF" fill-rule="nonzero" mask="url(#mask-2)"></path>
                </g>
            </g>
        </g>
    </g>
</svg>