<?xml version="1.0" encoding="UTF-8"?>
<svg width="562px" height="442px" viewBox="0 0 562 442" version="1.1" xmlns="http://www.w3.org/2000/svg" xmlns:xlink="http://www.w3.org/1999/xlink">
    <!-- Generator: Sketch 50.2 (55047) - http://www.bohemiancoding.com/sketch -->
    <title>Group 51</title>
    <desc>Created with Sketch.</desc>
    <defs></defs>
    <g id="Page-1" stroke="none" stroke-width="1" fill="none" fill-rule="evenodd">
        <g id="Group-51" transform="translate(-10.000000, -11.000000)">
            <text id="оценок-по-курсам-copy" font-size="14" font-weight="normal" line-spacing="16" fill="#1D1D1D">
                <tspan x="230.672" y="276.543945">оценок по курсам</tspan>
            </text>
            <text id="оценок-отлично-copy" font-family="FiraSans-Regular, Fira Sans" font-size="14" font-weight="normal" line-spacing="25" fill="#1D1D1D">
                <tspan x="9.58" y="411">оценок отлично</tspan>
            </text>
            <text id="оценок-удовлетворите-copy" font-family="FiraSans-Regular, Fira Sans" font-size="14" font-weight="normal" line-spacing="15" fill="#1D1D1D">
                <tspan x="442" y="436">оценок </tspan>
                <tspan x="442" y="451">удовлетворительно</tspan>
            </text>
            <text id="оценок-хорошо-copy" font-family="FiraSans-Regular, Fira Sans" font-size="14" font-weight="normal" line-spacing="25" fill="#1D1D1D">
                <tspan x="464.519" y="65">оценок хорошо</tspan>
            </text>
            <text id="381-copy" font-size="97" font-weight="bold" fill="#304452">
                <tspan x="226" y="254">381</tspan>
            </text>
            <text id="169-copy" font-family="FiraSans-Bold, Fira Sans" font-size="42" font-weight="bold" fill="#00C49F">
                <tspan x="48.934" y="395">169</tspan>
            </text>
            <text id="101-copy" font-family="FiraSans-Bold, Fira Sans" font-size="42" font-weight="bold" fill="#C7D3DA">
                <tspan x="442" y="415">101</tspan>
            </text>
            <text id="111-copy" font-family="FiraSans-Bold, Fira Sans" font-size="42" font-weight="bold" fill="#4D86A1">
                <tspan x="458.024" y="49">111</tspan>
            </text>
            <g id="Group" transform="translate(68.000000, 11.000000)">
                <path d="M58.1632,117.0637 C113.5302,21.1657 236.1542,-11.6913 332.0512,43.6757 C427.9492,99.0427 460.8062,221.6667 405.4392,317.5637 C350.0732,413.4607 227.4492,446.3187 131.5512,390.9517 C35.6542,335.5847 2.7972,212.9607 58.1632,117.0637 M115.3282,150.0677 C78.1892,214.3937 100.2292,296.6477 164.5562,333.7867 C228.8822,370.9257 311.1362,348.8857 348.2752,284.5597 C385.4132,220.2327 363.3732,137.9787 299.0472,100.8397 C234.7212,63.7017 152.4672,85.7407 115.3282,150.0677" id="Fill-1" fill="#DEE4E8"></path>
                <path d="M58.1632,117.0637 C113.5302,21.1657 236.1542,-11.6913 332.0512,43.6757 C427.9492,99.0427 460.8062,221.6667 405.4392,317.5637 C350.0732,413.4607 227.4492,446.3187 131.5512,390.9517 C35.6542,335.5847 2.7972,212.9607 58.1632,117.0637 Z M115.3282,150.0677 C78.1892,214.3937 100.2292,296.6477 164.5562,333.7867 C228.8822,370.9257 311.1362,348.8857 348.2752,284.5597 C385.4132,220.2327 363.3732,137.9787 299.0472,100.8397 C234.7212,63.7017 152.4672,85.7407 115.3282,150.0677 Z" id="Stroke-3" stroke="#282727"></path>
                <path d="M321.8922,120.9075 L321.8832,120.8985 C302.6632,102.9755 278.9852,91.5085 253.5872,87.3995 L259.4412,53.1315 L262.7412,16.5375 L264.0172,15.2045 L265.8382,15.5045 C304.0542,21.8035 339.7482,38.8105 369.0552,65.2405 L369.0752,65.2185 L371.6202,67.5925 L374.1642,69.9655 L374.1442,69.9875 C434.4782,128.1995 452.9962,217.3265 421.0402,294.5915 L419.7032,297.8265 L352.3022,269.9085 L353.6392,266.6765 C374.4362,216.3875 361.9272,158.2555 321.9022,120.9165 L321.8922,120.9075 Z" id="Fill-5" fill="#4C85A2"></path>
                <path d="M321.8922,120.9075 L321.8832,120.8985 C302.6632,102.9755 278.9852,91.5085 253.5872,87.3995 L259.4412,53.1315 L262.7412,16.5375 L264.0172,15.2045 L265.8382,15.5045 C304.0542,21.8035 339.7482,38.8105 369.0552,65.2405 L369.0752,65.2185 L371.6202,67.5925 L374.1642,69.9655 L374.1442,69.9875 C434.4782,128.1995 452.9962,217.3265 421.0402,294.5915 L419.7032,297.8265 L352.3022,269.9085 L353.6392,266.6765 C374.4362,216.3875 361.9272,158.2555 321.9022,120.9165 L321.8922,120.9075 Z" id="Stroke-7" stroke="#282727"></path>
                <path d="M38.3912,95.0085 C86.6872,26.1385 169.5502,-10.5025 253.0712,3.4275 L269.3552,6.1435 L253.0232,103.7405 L236.7572,101.0275 C188.4152,92.9655 139.9302,115.7225 115.2682,158.4195 L115.2622,158.4285 L115.2562,158.4395 C83.2382,213.8965 101.3212,284.7765 155.8982,317.9995 L169.9922,326.5785 L118.5382,411.1105 L104.4432,402.5315 C8.6932,344.2445 -26.0228,223.1025 21.9052,123.5475 C21.9052,123.5475 31.2682,104.0775 38.3912,95.0085" id="Fill-9" fill="#2AB899"></path>
                <path d="M38.3912,95.0085 C86.6872,26.1385 169.5502,-10.5025 253.0712,3.4275 L269.3552,6.1435 L253.0232,103.7405 L236.7572,101.0275 C188.4152,92.9655 139.9302,115.7225 115.2682,158.4195 L115.2622,158.4285 L115.2562,158.4395 C83.2382,213.8965 101.3212,284.7765 155.8982,317.9995 L169.9922,326.5785 L118.5382,411.1105 L104.4432,402.5315 C8.6932,344.2445 -26.0228,223.1025 21.9052,123.5475 C21.9052,123.5475 31.2682,104.0775 38.3912,95.0085 Z" id="Stroke-11" stroke="#282727"></path>
            </g>
        </g>
    </g>
</svg>