<?xml version="1.0" encoding="UTF-8"?>
<svg width="100px" height="80px" viewBox="0 0 100 80" version="1.1" xmlns="http://www.w3.org/2000/svg" xmlns:xlink="http://www.w3.org/1999/xlink">
    <!-- Generator: Sketch 51.1 (57501) - http://www.bohemiancoding.com/sketch -->
    <title>se_white@3x</title>
    <desc>Created with Sketch.</desc>
    <defs></defs>
    <g id="Layouts" stroke="none" stroke-width="1" fill="none" fill-rule="evenodd">
        <path d="M12.3880597,61 L87.6119403,61 L87.6119403,51.3437192 C82.0378525,56.0863463 67.3193235,59 50,59 C32.6806765,59 17.9621475,56.0863463 12.3880597,51.3437192 L12.3880597,61 Z M10.1158876,62 L10,62 L10,19 C10,11.7534102 27.8784981,7 50,7 C72.1215019,7 90,11.7534102 90,19 L90,62 L89.8841124,62 C88.318668,68.6807498 71.0870652,73 50,73 C28.9129348,73 11.681332,68.6807498 10.1158876,62 Z M12.3880597,47 L87.6119403,47 L87.6119403,37.3437192 C82.0378525,42.0863463 67.3193235,45 50,45 C32.6806765,45 17.9621475,42.0863463 12.3880597,37.3437192 L12.3880597,47 Z M12.3880597,33 L87.6119403,33 L87.6119403,23.3437192 C82.0378525,28.0863463 67.3193235,31 50,31 C32.6806765,31 17.9621475,28.0863463 12.3880597,23.3437192 L12.3880597,33 Z M50,29 C70.772501,29 87.6119403,24.5228475 87.6119403,19 C87.6119403,13.4771525 70.772501,9 50,9 C29.227499,9 12.3880597,13.4771525 12.3880597,19 C12.3880597,24.5228475 29.227499,29 50,29 Z M12.3880597,33 C12.3880597,38.5228475 29.227499,43 50,43 C70.772501,43 87.6119403,38.5228475 87.6119403,33 L12.3880597,33 Z M12.3880597,47 C12.3880597,52.5228475 29.227499,57 50,57 C70.772501,57 87.6119403,52.5228475 87.6119403,47 L12.3880597,47 Z M12.3880597,61 C12.3880597,66.5228475 29.227499,71 50,71 C70.772501,71 87.6119403,66.5228475 87.6119403,61 L12.3880597,61 Z" id="se" fill="#FFFFFF"></path>
    </g>
</svg>