<svg xmlns="http://www.w3.org/2000/svg" width="70" height="64" viewBox="0 0 70 64">
  <path fill="#F7F4EC" d="M63.2782787,51.987041 L39.8719412,51.987041 L39.8719412,45.8063789 L39.0693123,45.8063789 L39.0693123,51.987041 L33.3612317,51.987041 L33.3612317,42.7999902 C34.3746638,37.445173 38.9453118,33.3344741 44.5458573,32.9708583 C44.5625545,36.8049332 47.7092958,39.9191409 51.5754114,39.9191409 C55.4412952,39.9191409 58.5878045,36.8049332 58.604038,32.9708583 C64.9652372,33.3828028 69.9999305,38.629916 69.9999305,45.0465831 L69.9999305,51.987041 L64.0809076,51.987041 L64.0809076,45.8063789 L63.2782787,45.8063789 L63.2782787,51.987041 Z M38.757537,7.63544838 C38.757537,3.99675948 41.7303483,1.04640898 45.3970242,1.04640898 L45.3970242,3.07851467 C47.2870634,1.79941576 49.5690247,1.04640898 52.0318733,1.04640898 L62.5743493,1.04640898 C62.5743493,2.45484464 62.0943026,3.75051338 61.2895865,4.78382646 C61.4078589,4.7771525 61.5284503,4.77277991 61.6490418,4.77277991 L65.9905661,4.77277991 C65.9905661,7.59195258 64.065509,9.96673158 61.447283,10.6707193 C61.8438434,11.1289211 62.2056177,11.6193421 62.5349252,12.129785 L60.9301312,13.5545603 C60.3155786,11.9320977 58.7409325,10.7722095 56.8926365,10.7722095 C54.7289476,10.7722095 52.9365411,12.362453 52.6299605,14.4267778 L50.519842,14.4267778 C50.2134933,12.362453 48.4210868,10.7722095 46.2573979,10.7722095 C44.4091019,10.7722095 42.8344558,11.9320977 42.2201351,13.5545603 L40.6591715,12.1689082 C39.4001503,11.0506747 38.757537,9.2899 38.757537,7.63544838 Z M36.2088134,15.183881 C36.2088134,13.8373521 37.31037,12.7465049 38.6649367,12.7465049 L40.104845,12.7465049 L41.9925651,14.4218989 C41.9626492,14.6294821 41.9417776,14.8386762 41.9417776,15.0547744 C41.9417776,17.4159753 43.8779661,19.3380758 46.2573283,19.3380758 C48.5789457,19.3380758 50.4738549,17.5061889 50.5638347,15.2230042 L52.5860606,15.2230042 C52.676968,17.5061889 54.5716453,19.3380758 56.892567,19.3380758 C59.2719291,19.3380758 61.2083496,17.4159753 61.2083496,15.0547744 C61.2083496,14.8386762 61.187478,14.6294821 61.1573301,14.4242003 L63.0452821,12.7465049 L64.4856543,12.7465049 C65.8418443,12.7465049 66.9413137,13.8373521 66.9413137,15.183881 C66.9413137,16.5304099 65.8418443,17.6212571 64.4856543,17.6212571 L64.4828714,17.6212571 C64.5341228,18.0879741 64.5621835,18.5599841 64.5621835,19.0411996 C64.5621835,23.9173327 61.8298594,28.163352 57.801641,30.3519505 L57.801641,32.9435181 C57.801641,36.3564431 55.0143551,39.1226843 51.5754114,39.1226843 C49.8569832,39.1226843 48.2981067,38.4322747 47.1712724,37.313581 C46.0439742,36.1955776 45.3482542,34.6485998 45.3482542,32.9435181 L45.3482542,30.3519505 C41.3200358,28.163352 38.5886394,23.9173327 38.5886394,19.0411996 C38.5886394,18.5599841 38.6160044,18.0879741 38.6674877,17.6212571 L38.6649367,17.6212571 C37.31037,17.6212571 36.2088134,16.5304099 36.2088134,15.183881 Z M49.107716,45.2155724 L49.107716,43.0226012 L48.3588895,43.7652519 C47.8380272,43.2630939 47.1290885,42.9526397 46.3505779,42.9526397 C44.7221295,42.9526397 43.401885,44.1903141 43.401885,45.8061027 C43.401885,47.422812 44.7221295,48.6602562 46.3505779,48.6602562 C47.3705034,48.6602562 48.2726202,48.135775 48.7860615,47.3282258 L47.935196,46.8035145 C47.6051929,47.3204012 47.0182372,47.6702087 46.3505779,47.6702087 C45.3160424,47.6702087 44.4797871,46.8403364 44.4797871,45.8061027 C44.4797871,44.7796937 45.3160424,43.9500515 46.3505779,43.9500515 C46.8556706,43.9500515 47.314382,44.146358 47.6504147,44.4687793 L46.9032115,45.2105094 L49.107716,45.2155724 Z M52.2196713,45.3180752 L51.338426,45.0925414 C50.3713753,44.8161474 50.8031855,43.9510641 51.6607763,43.9510641 C52.1760728,43.9510641 52.6069554,44.0955899 52.9594535,44.3791181 L53.5392201,43.5644347 C53.0406208,43.1775752 52.3727297,42.9522715 51.6607763,42.9522715 C50.6264726,42.9315592 49.7034842,43.6587907 49.7243558,44.5333096 C49.7243558,45.2971328 50.2762936,45.8358824 51.0745163,46.047608 L52.0132744,46.28695 C53.1426597,46.5930316 52.6811655,47.6769748 51.6607763,47.6769748 C51.0810097,47.6769748 50.568496,47.4744546 50.2159979,47.1315511 L49.6292741,47.9529085 C50.1580212,48.3973021 50.8769318,48.6596578 51.6607763,48.6596578 C52.7994379,48.6826715 53.7664886,47.9022784 53.745617,46.9566474 C53.745617,46.0683203 53.0642753,45.5298008 52.2196713,45.3180752 Z M57.312318,47.6700016 C56.2780144,47.6700016 55.4431504,46.8394388 55.4431504,45.8056655 C55.4431504,44.7792565 56.2780144,43.9509951 57.312318,43.9509951 C57.9802091,43.9509951 58.5669329,44.291367 58.8987913,44.8165386 L59.7473377,44.2846931 C59.2348241,43.484048 58.3327072,42.9522025 57.312318,42.9522025 C55.6843334,42.9522025 54.3647845,44.1903371 54.3647845,45.8056655 C54.3647845,47.4239857 55.6843334,48.6595888 57.312318,48.6595888 C58.3327072,48.6595888 59.2348241,48.1369487 59.7473377,47.3270982 L58.8987913,46.8044581 C58.5669329,47.3199639 57.9802091,47.6700016 57.312318,47.6700016 Z M57.3166315,44.94026 C56.8324104,44.94026 56.4402562,45.3294209 56.4402562,45.809946 C56.4402562,46.290241 56.8324104,46.6803224 57.3166315,46.6803224 C57.8008525,46.6803224 58.1932386,46.290241 58.1932386,45.809946 C58.1932386,45.3294209 57.8008525,44.94026 57.3166315,44.94026 Z M46.2573515,11.5684589 C48.1942358,11.5684589 49.7707371,13.1336175 49.7707371,15.0547974 C49.7707371,16.9766677 48.1942358,18.5418263 46.2573515,18.5418263 C44.3188438,18.5418263 42.7444296,16.9766677 42.7444296,15.0547974 C42.7444296,13.1336175 44.3188438,11.5684589 46.2573515,11.5684589 Z M56.8925902,11.5684589 C58.8315616,11.5684589 60.4064396,13.1336175 60.4064396,15.0547974 C60.4064396,16.9766677 58.8315616,18.5418263 56.8925902,18.5418263 C54.9566335,18.5418263 53.3792045,16.9766677 53.3792045,15.0547974 C53.3792045,13.1336175 54.9566335,11.5684589 56.8925902,11.5684589 Z M56.8926829,17.6302095 C58.397757,17.6302095 59.622456,16.4153186 59.622456,14.9212722 L58.820059,14.9212722 C58.820059,15.9757578 57.9548153,16.833937 56.8926829,16.833937 C55.8305505,16.833937 54.9676259,15.9757578 54.9676259,14.9212722 L54.1629098,14.9212722 C54.1629098,16.4153186 55.3876088,17.6302095 56.8926829,17.6302095 Z M46.2249773,17.6302095 C47.7300514,17.6302095 48.9547504,16.4153186 48.9547504,14.9212722 L48.1523534,14.9212722 C48.1523534,15.9757578 47.2871097,16.833937 46.2249773,16.833937 C45.1628449,16.833937 44.2999203,15.9757578 44.2999203,14.9212722 L43.4952042,14.9212722 C43.4952042,16.4153186 44.7199032,17.6302095 46.2249773,17.6302095 Z M61.7579683,20.8339173 C62.0385754,20.8339173 62.2639886,20.6083835 62.2639886,20.3317593 C62.2639886,20.0532941 62.0385754,19.8282206 61.7579683,19.8282206 C61.4773613,19.8282206 61.2524119,20.0532941 61.2524119,20.3317593 C61.2524119,20.6083835 61.4773613,20.8339173 61.7579683,20.8339173 Z M60.5195869,22.8015847 C60.8001939,22.8015847 61.0253753,22.5781221 61.0253753,22.2994268 C61.0253753,22.0209616 60.8001939,21.7977291 60.5195869,21.7977291 C60.2412989,21.7977291 60.0140304,22.0209616 60.0140304,22.2994268 C60.0140304,22.5781221 60.2412989,22.8015847 60.5195869,22.8015847 Z M59.2812054,20.8339173 C59.5618124,20.8339173 59.7895448,20.6083835 59.7895448,20.3317593 C59.7895448,20.0532941 59.5618124,19.8282206 59.2812054,19.8282206 C59.0029174,19.8282206 58.7758808,20.0532941 58.7758808,20.3317593 C58.7758808,20.6083835 59.0029174,20.8339173 59.2812054,20.8339173 Z M57.8392099,21.7125786 L57.8392099,20.9163062 L54.8262788,20.9163062 L54.8262788,21.7125786 L55.9092828,21.7125786 C55.707524,23.9103826 53.8406755,25.6364067 51.5751795,25.6364067 C49.3092197,25.6364067 47.4426031,23.9103826 47.2406125,21.7125786 L48.3236165,21.7125786 L48.3236165,20.9163062 L45.3137002,20.9163062 L45.3137002,21.7125786 L46.4338092,21.7125786 C46.6404381,24.3499434 48.866278,26.4354408 51.5751795,26.4354408 C54.2838491,26.4354408 56.509921,24.3499434 56.7167817,21.7125786 L57.8392099,21.7125786 Z M43.8686899,20.8339173 C44.1474416,20.8339173 44.3742463,20.6083835 44.3742463,20.3317593 C44.3742463,20.0532941 44.1474416,19.8282206 43.8686899,19.8282206 C43.5880828,19.8282206 43.3610462,20.0532941 43.3610462,20.3317593 C43.3610462,20.6083835 43.5880828,20.8339173 43.8686899,20.8339173 Z M52.145438,17.7703396 C51.0508386,17.7703396 50.157998,18.6540639 50.157998,19.7430701 C50.157998,20.8290844 51.0508386,21.7125786 52.145438,21.7125786 L52.145438,20.9163062 C51.4914612,20.9163062 50.960395,20.3892935 50.960395,19.7430701 C50.960395,19.0936247 51.4914612,18.566612 52.145438,18.566612 L52.145438,17.7703396 Z M42.6305403,22.8015847 C42.9088283,22.8015847 43.1358649,22.5781221 43.1358649,22.2994268 C43.1358649,22.0209616 42.9088283,21.7977291 42.6305403,21.7977291 C42.3501652,21.7977291 42.1249838,22.0209616 42.1249838,22.2994268 C42.1249838,22.5781221 42.3501652,22.8015847 42.6305403,22.8015847 Z M41.3923907,20.8339173 C41.6727658,20.8339173 41.8974834,20.6083835 41.8974834,20.3317593 C41.8974834,20.0532941 41.6727658,19.8282206 41.3923907,19.8282206 C41.1115518,19.8282206 40.8863704,20.0532941 40.8863704,20.3317593 C40.8863704,20.6083835 41.1115518,20.8339173 41.3923907,20.8339173 Z M24.0367062,38.705861 L23.7976105,38.8140252 L26.6621213,52.0001588 L4.55701196,52.0001588 L7.42175473,38.8140252 L7.18242708,38.705861 C4.00020411,37.2709597 4.00089983,34.3305051 4.05725315,33.5733558 L8.62697356,31.6418198 C10.6642734,32.6532699 13.0747111,33.187647 15.6094507,33.187647 C18.1446541,33.187647 20.5548599,32.6532699 22.5923916,31.6418198 L27.1611844,33.5733558 C27.2184654,34.3316557 27.2182335,37.2711898 24.0367062,38.705861 Z M6.67401814,39.1830261 L4.05045828,51.2594413 C1.07532795,44.6004404 3.01615465,39.3473436 4.2603338,37.0231947 C4.74756965,37.8243 5.50404913,38.6028519 6.67401814,39.1830261 Z M26.9590546,37.0234939 C28.2030018,39.3474127 30.1433647,44.6005094 27.1686982,51.2590501 L24.5449064,39.1830952 C25.7151074,38.602921 26.471123,37.8241389 26.9590546,37.0234939 Z M21.1459899,42.7831902 C21.1459899,42.3756184 20.8132039,42.0460628 20.402961,42.0460628 C19.9927182,42.0460628 19.6603959,42.3756184 19.6603959,42.7831902 C19.6603959,43.1905319 19.9927182,43.5200874 20.402961,43.5200874 C20.8132039,43.5200874 21.1459899,43.1905319 21.1459899,42.7831902 Z M20.3999462,41.2065247 C20.9660304,41.2065247 21.4630063,41.4967269 21.7426857,41.9411206 L22.4641473,41.4907434 C22.0290904,40.8123008 21.2642623,40.3619236 20.3999462,40.3619236 C19.0198698,40.3619236 17.9011521,41.4101956 17.9011521,42.7797381 C17.9011521,44.1495108 19.0198698,45.1982431 20.3999462,45.1982431 C21.2642623,45.1982431 22.0290904,44.7540796 22.4641473,44.0696535 L21.7426857,43.6250297 C21.4630063,44.0632096 20.9660304,44.3596255 20.3999462,44.3596255 C19.5233391,44.3596255 18.8146324,43.6560981 18.8146324,42.7797381 C18.8146324,41.9102823 19.5233391,41.2065247 20.3999462,41.2065247 Z M15.6113059,45.1980129 C16.5744142,45.216654 17.3948999,44.5568525 17.3763474,43.7548267 C17.3763474,43.00205 16.7982042,42.5456893 16.0834679,42.3664129 L15.3374242,42.1751694 C14.5167066,41.9411206 14.8835829,41.2067549 15.6113059,41.2067549 C16.0463628,41.2067549 16.4127753,41.3305683 16.7112392,41.5706007 L17.2024174,40.8797308 C16.7796516,40.5531671 16.2137994,40.3619236 15.6113059,40.3619236 C14.7346988,40.3430524 13.9515501,40.9600485 13.9701026,41.7006279 C13.9701026,42.348002 14.4360031,42.804823 15.1136343,42.983409 L15.909306,43.18731 C16.8666166,43.4464437 16.4749263,44.3656091 15.6113059,44.3656091 C15.1201277,44.3656091 14.6850708,44.1927765 14.386607,43.9025743 L13.8889353,44.6001182 C14.336747,44.9759312 14.9459658,45.1980129 15.6113059,45.1980129 Z M13.4469212,42.2794213 L13.4469212,40.4206084 L12.8117289,41.0514127 C12.3701787,40.6254299 11.7697724,40.3619236 11.1106937,40.3619236 C9.73015347,40.3619236 8.610972,41.4101956 8.610972,42.7797381 C8.610972,44.1495108 9.73015347,45.1982431 11.1106937,45.1982431 C11.9743141,45.1982431 12.7389103,44.7538494 13.174199,44.0696535 L12.4534332,43.6250297 C12.1737538,44.0632096 11.6760821,44.3596255 11.1106937,44.3596255 C10.2336228,44.3596255 9.5253799,43.6560981 9.5253799,42.7797381 C9.5253799,41.9102823 10.2336228,41.2065247 11.1106937,41.2065247 C11.5380977,41.2065247 11.9267732,41.3733737 12.2120184,41.6465458 L11.5784494,42.2748186 L13.4469212,42.2794213 Z M28.6865736,16.7220216 C28.6865736,22.6063829 23.8895846,27.4822859 17.6232352,28.3542732 C17.8553738,30.4584117 19.4597039,31.227528 21.5719096,31.3946071 C19.7876199,32.1455427 17.7468415,32.5397666 15.6093579,32.5397666 C13.4711787,32.5397666 11.4287769,32.1448523 9.64355952,31.3932263 C11.7335022,31.222465 13.3577763,30.4439131 13.5947849,28.3540431 C7.32913122,27.4818256 2.53260611,22.6061528 2.53260611,16.7220216 C2.53260611,16.5556329 2.53863568,16.3913154 2.5460567,16.2269979 C2.55417343,16.0755681 2.56484113,15.9252889 2.57805981,15.7759303 C2.57805981,15.77547 2.57805981,15.7752399 2.57829172,15.7750097 C3.03468399,15.815974 3.68471832,15.8562479 4.47412853,15.8562479 C4.99684611,15.8562479 5.58078703,15.8376069 6.2078626,15.7901987 C5.56061116,16.3020224 5.14271538,17.0071608 5.14271538,17.9228741 C5.14271538,20.7770275 7.44392501,22.2706137 9.71800156,22.271074 L9.71846537,22.271074 C10.9086103,22.271074 12.0206026,21.8865158 12.8499008,21.1882815 C13.7445966,20.4350446 14.2341515,19.3782576 14.2830838,18.1272354 C14.6460177,17.9656795 15.1184116,17.8747756 15.6093579,17.8747756 C16.1434389,17.8747756 16.597744,17.9778767 16.9319215,18.1263148 C17.0388305,20.8481397 19.2825273,22.271074 21.5011781,22.271074 C23.7745589,22.271074 26.0764643,20.7777179 26.0764643,17.9228741 C26.0764643,15.7409495 23.7059146,14.7476802 21.5028015,14.7476802 C19.4673569,14.7476802 17.2902173,15.5955032 16.9690266,17.4432695 C16.5738577,17.3044972 16.108421,17.2269412 15.6093579,17.2269412 C15.1191073,17.2269412 14.652743,17.3040369 14.2508488,17.4460312 C13.9980706,15.9858148 12.5862229,15.1515698 11.0013729,14.8641293 C13.6720098,13.9907611 16.4291479,12.3933834 18.5116696,9.52818338 C20.2284745,11.5526946 23.4577745,15.729903 28.6471494,15.8514151 C28.6580491,15.9832833 28.6663977,16.1153817 28.673123,16.2481705 C28.680544,16.405814 28.6865736,16.5634575 28.6865736,16.7220216 Z M23.3824048,23.8468189 C23.6013247,23.8468189 23.7787333,23.6703042 23.7787333,23.4532854 C23.7787333,23.2358064 23.6013247,23.0590615 23.3824048,23.0590615 C23.163253,23.0590615 22.9853806,23.2358064 22.9853806,23.4532854 C22.9853806,23.6703042 23.163253,23.8468189 23.3824048,23.8468189 Z M22.4116436,25.3905748 C22.6307954,25.3905748 22.8079721,25.2140601 22.8079721,24.9963509 C22.8079721,24.7793322 22.6307954,24.6025873 22.4116436,24.6025873 C22.1922599,24.6025873 22.0150832,24.7793322 22.0150832,24.9963509 C22.0150832,25.2140601 22.1922599,25.3905748 22.4116436,25.3905748 Z M21.4411143,23.8468189 C21.6598023,23.8468189 21.8376747,23.6703042 21.8376747,23.4532854 C21.8376747,23.2358064 21.6598023,23.0590615 21.4411143,23.0590615 C21.2221944,23.0590615 21.044322,23.2358064 21.044322,23.4532854 C21.044322,23.6703042 21.2221944,23.8468189 21.4411143,23.8468189 Z M15.6093579,25.7666179 C16.8071557,25.7666179 17.8117753,25.1254575 17.9462812,24.2746427 L17.3011169,24.1749936 C17.2176305,24.7043077 16.4746016,25.1185534 15.6093579,25.1185534 C14.7445781,25.1185534 14.0015492,24.7043077 13.917599,24.1749936 L13.2728985,24.2748729 C13.4071724,25.1254575 14.4115601,25.7666179 15.6093579,25.7666179 Z M15.8959945,20.07327 C15.0513905,20.07327 14.3644831,20.7544741 14.3644831,21.5924013 C14.3644831,22.4307887 15.0513905,23.1124532 15.8959945,23.1124532 L15.8959945,22.4643887 C15.4113097,22.4643887 15.0173003,22.0733867 15.0173003,21.5924013 C15.0173003,21.1116461 15.4113097,20.7208742 15.8959945,20.7208742 L15.8959945,20.07327 Z M9.77806538,23.8468189 C9.99721716,23.8468189 10.1746257,23.6703042 10.1746257,23.4532854 C10.1746257,23.2358064 9.99721716,23.0590615 9.77806538,23.0590615 C9.55937741,23.0590615 9.38127311,23.2358064 9.38127311,23.4532854 C9.38127311,23.6703042 9.55937741,23.8468189 9.77806538,23.8468189 Z M8.80707226,25.3905748 C9.02715167,25.3905748 9.20409643,25.2140601 9.20409643,24.9963509 C9.20409643,24.7793322 9.02715167,24.6025873 8.80707226,24.6025873 C8.5883843,24.6025873 8.41074381,24.7793322 8.41074381,24.9963509 C8.41074381,25.2140601 8.5883843,25.3905748 8.80707226,25.3905748 Z M7.83654296,23.8468189 C8.05592664,23.8468189 8.23379904,23.6703042 8.23379904,23.4532854 C8.23379904,23.2358064 8.05592664,23.0590615 7.83654296,23.0590615 C7.61762309,23.0590615 7.4402145,23.2358064 7.4402145,23.4532854 C7.4402145,23.6703042 7.61762309,23.8468189 7.83654296,23.8468189 Z M9.71790879,21.6236999 C7.82856537,21.6234697 5.7947441,20.4654226 5.7947441,17.9228741 C5.7947441,16.1862637 7.82763774,15.3948242 9.71674926,15.3948242 C11.6060927,15.3948242 13.6401459,16.1862637 13.6401459,17.9228741 C13.6401459,19.0680335 13.2206267,20.0265523 12.427506,20.6948688 C11.7164802,21.2936841 10.7542996,21.6236999 9.71837261,21.6236999 L9.71790879,21.6236999 Z M7.56767039,17.9399042 L6.91531701,17.9399042 C6.91531701,19.4730739 8.17201911,20.7208742 9.71767689,20.7208742 C11.2628709,20.7208742 12.5198049,19.4730739 12.5198049,17.9399042 L11.8672196,17.9399042 C11.8672196,19.1159019 10.9027198,20.07327 9.71767689,20.07327 C8.53193822,20.07327 7.56767039,19.1159019 7.56767039,17.9399042 Z M21.5012013,21.6236999 C19.6120898,21.6236999 17.5789642,20.4656528 17.5789642,17.9228741 C17.5789642,16.1862637 19.6127855,15.3948242 21.5023608,15.3948242 C23.3912405,15.3948242 25.424366,16.1862637 25.424366,17.9228741 C25.424366,20.4656528 23.3903128,21.6236999 21.5012013,21.6236999 Z M19.3518905,17.9399042 L18.6995371,17.9399042 C18.6995371,19.4730739 19.9562393,20.7208742 21.501897,20.7208742 C23.047091,20.7208742 24.304025,19.4730739 24.304025,17.9399042 L23.6512078,17.9399042 C23.6512078,19.1159019 22.68694,20.07327 21.501897,20.07327 C20.3161584,20.07327 19.3518905,19.1159019 19.3518905,17.9399042 Z M18.6092791,1.15478028 C28.9344586,-2.26182685 37.8227445,25.481824 24.486953,26.1851212 C27.4523432,23.9049284 29.3395995,20.5101842 29.3395995,16.7221367 C29.3395995,16.4409098 29.3261489,16.1472556 29.2978563,15.7992891 L29.2507792,15.2172738 L28.6628959,15.2039259 C24.0412284,15.0955316 21.0702724,11.5606343 19.2952589,9.44844106 C19.1962348,9.33038102 19.1016169,9.21807438 19.0109414,9.11106089 L18.4719904,8.47588403 L17.9824354,9.14926356 C14.1499462,14.4214616 7.87408864,15.2087588 4.47410534,15.2087588 C3.68168034,15.2087588 3.03767559,15.1659534 2.63717282,15.1300521 L1.98528324,15.0713673 L1.9280023,15.7178208 C1.89576728,16.0858091 1.87953381,16.414214 1.87953381,16.7221367 C1.87953381,20.5101842 3.76655817,23.9046982 6.73194842,26.1848911 C1.91849413,25.9305902 -6.95364238e-05,22.1547399 -6.95364238e-05,17.5918227 C-6.95364238e-05,10.23873 3.69489902,3.90169008 9.02411369,0.987010742 C12.1959009,-0.571013662 15.3076242,-0.107748799 18.6092791,1.15478028 Z" transform="translate(0 12)"/>
</svg>