<?xml version="1.0" encoding="UTF-8"?>
<svg width="35px" height="35px" viewBox="0 0 35 35" version="1.1" xmlns="http://www.w3.org/2000/svg" xmlns:xlink="http://www.w3.org/1999/xlink">
    <!-- Generator: Sketch 49 (51002) - http://www.bohemiancoding.com/sketch -->
    <title>instagram - FontAwesome</title>
    <desc>Created with Sketch.</desc>
    <defs></defs>
    <g id="Page-1" stroke="none" stroke-width="1" fill="none" fill-rule="evenodd">
        <g id="redisign-1.1-copy-10" transform="translate(-156.000000, -3943.000000)" fill="#FFFFFF">
            <g id="Group-21" transform="translate(126.000000, 3563.000000)">
                <path d="M52.8571701,397.714269 C52.8571701,394.566944 50.2902028,391.999976 47.1428776,391.999976 C43.9955524,391.999976 41.4285851,394.566944 41.4285851,397.714269 C41.4285851,400.861594 43.9955524,403.428561 47.1428776,403.428561 C50.2902028,403.428561 52.8571701,400.861594 52.8571701,397.714269 Z M55.9375309,397.714269 C55.9375309,402.580346 52.0089548,406.508922 47.1428776,406.508922 C42.2768003,406.508922 38.3482242,402.580346 38.3482242,397.714269 C38.3482242,392.848191 42.2768003,388.919615 47.1428776,388.919615 C52.0089548,388.919615 55.9375309,392.848191 55.9375309,397.714269 Z M58.3482481,388.562472 C58.3482481,389.700866 57.4330684,390.616046 56.2946742,390.616046 C55.15628,390.616046 54.2411003,389.700866 54.2411003,388.562472 C54.2411003,387.424078 55.15628,386.508898 56.2946742,386.508898 C57.4330684,386.508898 58.3482481,387.424078 58.3482481,388.562472 Z M47.1428776,383.651752 C44.6428746,383.651752 39.2857254,383.450859 37.0312584,384.343717 C36.2500075,384.656217 35.6696496,385.035682 35.0669703,385.638361 C34.464291,386.241041 34.0848263,386.821399 33.7723259,387.602649 C32.8794677,389.857116 33.0803608,395.214266 33.0803608,397.714269 C33.0803608,400.214272 32.8794677,405.571421 33.7723259,407.825888 C34.0848263,408.607139 34.464291,409.187497 35.0669703,409.790176 C35.6696496,410.392855 36.2500075,410.77232 37.0312584,411.08482 C39.2857254,411.977679 44.6428746,411.776785 47.1428776,411.776785 C49.6428806,411.776785 55.0000298,411.977679 57.2544968,411.08482 C58.0357477,410.77232 58.6161055,410.392855 59.2187848,409.790176 C59.8214641,409.187497 60.2009289,408.607139 60.5134292,407.825888 C61.4062874,405.571421 61.2053943,400.214272 61.2053943,397.714269 C61.2053943,395.214266 61.4062874,389.857116 60.5134292,387.602649 C60.2009289,386.821399 59.8214641,386.241041 59.2187848,385.638361 C58.6161055,385.035682 58.0357477,384.656217 57.2544968,384.343717 C55.0000298,383.450859 49.6428806,383.651752 47.1428776,383.651752 Z M64.2857552,397.714269 C64.2857552,400.080343 64.3080766,402.424096 64.1741479,404.79017 C64.0402192,407.535709 63.4152184,409.968748 61.4062874,411.977679 C59.3973565,413.98661 56.9643179,414.61161 54.2187789,414.745539 C51.8527046,414.879468 49.5089518,414.857146 47.1428776,414.857146 C44.7768033,414.857146 42.4330505,414.879468 40.0669763,414.745539 C37.3214373,414.61161 34.8883987,413.98661 32.8794677,411.977679 C30.8705368,409.968748 30.245536,407.535709 30.1116073,404.79017 C29.9776785,402.424096 30,400.080343 30,397.714269 C30,395.348194 29.9776785,393.004442 30.1116073,390.638367 C30.245536,387.892828 30.8705368,385.45979 32.8794677,383.450859 C34.8883987,381.441928 37.3214373,380.816927 40.0669763,380.682998 C42.4330505,380.54907 44.7768033,380.571391 47.1428776,380.571391 C49.5089518,380.571391 51.8527046,380.54907 54.2187789,380.682998 C56.9643179,380.816927 59.3973565,381.441928 61.4062874,383.450859 C63.4152184,385.45979 64.0402192,387.892828 64.1741479,390.638367 C64.3080766,393.004442 64.2857552,395.348194 64.2857552,397.714269 Z" id="instagram---FontAwesome"></path>
            </g>
        </g>
    </g>
</svg>