<?xml version="1.0" encoding="UTF-8"?>
<svg width="34px" height="34px" viewBox="0 0 34 34" version="1.1" xmlns="http://www.w3.org/2000/svg" xmlns:xlink="http://www.w3.org/1999/xlink">
    <!-- Generator: Sketch 49.1 (51147) - http://www.bohemiancoding.com/sketch -->
    <title>instagram - FontAwesome</title>
    <desc>Created with Sketch.</desc>
    <defs></defs>
    <g id="Page-1" stroke="none" stroke-width="1" fill="none" fill-rule="evenodd">
        <g id="redisign-1.1-copy-10" transform="translate(-156.000000, -3943.000000)" fill="#FFFFFF">
            <g id="Group-21" transform="translate(126.000000, 3563.000000)">
                <path d="M52.6648105,397 C52.6648105,393.87916 50.1194447,391.333794 46.9986049,391.333794 C43.8777651,391.333794 41.3323994,393.87916 41.3323994,397 C41.3323994,400.12084 43.8777651,402.666206 46.9986049,402.666206 C50.1194447,402.666206 52.6648105,400.12084 52.6648105,397 Z M55.7192494,397 C55.7192494,401.825128 51.8237331,405.720644 46.9986049,405.720644 C42.1734767,405.720644 38.2779604,401.825128 38.2779604,397 C38.2779604,392.174872 42.1734767,388.279356 46.9986049,388.279356 C51.8237331,388.279356 55.7192494,392.174872 55.7192494,397 Z M58.1096799,387.925218 C58.1096799,389.054032 57.2022016,389.96151 56.0733872,389.96151 C54.9445728,389.96151 54.0370946,389.054032 54.0370946,387.925218 C54.0370946,386.796403 54.9445728,385.888925 56.0733872,385.888925 C57.2022016,385.888925 58.1096799,386.796403 58.1096799,387.925218 Z M46.9986049,383.055822 C44.51964,383.055822 39.2075723,382.85662 36.9720771,383.741964 C36.1974006,384.051835 35.6219266,384.428106 35.024319,385.025714 C34.4267113,385.623322 34.0504399,386.198796 33.7405693,386.973472 C32.8552247,389.208967 33.0544272,394.521035 33.0544272,397 C33.0544272,399.478965 32.8552247,404.791033 33.7405693,407.026528 C34.0504399,407.801204 34.4267113,408.376678 35.024319,408.974286 C35.6219266,409.571894 36.1974006,409.948165 36.9720771,410.258036 C39.2075723,411.14338 44.51964,410.944178 46.9986049,410.944178 C49.4775698,410.944178 54.7896375,411.14338 57.0251327,410.258036 C57.7998092,409.948165 58.3752832,409.571894 58.9728909,408.974286 C59.5704985,408.376678 59.9467699,407.801204 60.2566406,407.026528 C61.1419852,404.791033 60.9427826,399.478965 60.9427826,397 C60.9427826,394.521035 61.1419852,389.208967 60.2566406,386.973472 C59.9467699,386.198796 59.5704985,385.623322 58.9728909,385.025714 C58.3752832,384.428106 57.7998092,384.051835 57.0251327,383.741964 C54.7896375,382.85662 49.4775698,383.055822 46.9986049,383.055822 Z M63.9972216,397 C63.9972216,399.346163 64.0193552,401.670193 63.8865535,404.016356 C63.7537518,406.738791 63.1340106,409.151355 61.1419852,411.14338 C59.1499598,413.135406 56.7373957,413.755147 54.014961,413.887949 C51.6687978,414.02075 49.3447681,413.998617 46.9986049,413.998617 C44.6524417,413.998617 42.3284121,414.02075 39.9822488,413.887949 C37.2598141,413.755147 34.84725,413.135406 32.8552247,411.14338 C30.8631993,409.151355 30.243458,406.738791 30.1106563,404.016356 C29.9778546,401.670193 29.9999883,399.346163 29.9999883,397 C29.9999883,394.653837 29.9778546,392.329807 30.1106563,389.983644 C30.243458,387.261209 30.8631993,384.848645 32.8552247,382.85662 C34.84725,380.864594 37.2598141,380.244853 39.9822488,380.112051 C42.3284121,379.97925 44.6524417,380.001383 46.9986049,380.001383 C49.3447681,380.001383 51.6687978,379.97925 54.014961,380.112051 C56.7373957,380.244853 59.1499598,380.864594 61.1419852,382.85662 C63.1340106,384.848645 63.7537518,387.261209 63.8865535,389.983644 C64.0193552,392.329807 63.9972216,394.653837 63.9972216,397 Z" id="instagram---FontAwesome"></path>
            </g>
        </g>
    </g>
</svg>