<?xml version="1.0" encoding="UTF-8"?>
<svg width="37px" height="30px" viewBox="0 0 37 30" version="1.1" xmlns="http://www.w3.org/2000/svg" xmlns:xlink="http://www.w3.org/1999/xlink">
    <!-- Generator: Sketch 49 (51002) - http://www.bohemiancoding.com/sketch -->
    <title>ion-social-twitter - Ionicons</title>
    <desc>Created with Sketch.</desc>
    <defs></defs>
    <g id="Page-1" stroke="none" stroke-width="1" fill="none" fill-rule="evenodd">
        <g id="redisign-1.1-copy-10" transform="translate(-760.000000, -3999.000000)" fill="#BBC9D3">
            <g id="Group-27" transform="translate(730.000000, 3865.000000)">
                <path d="M66.875,137.59375 C65.9374953,139.052091 64.6875078,140.354161 63.125,141.5 L63.125,142.4375 C63.125,147.906277 61.1588738,152.867165 57.2265625,157.320312 C53.2942512,161.77346 48.0729492,164 41.5625,164 C37.3958125,164 33.5416844,162.854178 30,160.5625 C30.8333375,160.666667 31.4322898,160.71875 31.796875,160.71875 C35.2864758,160.71875 38.4114445,159.625011 41.171875,157.4375 C39.5572836,157.385416 38.0989648,156.877609 36.796875,155.914062 C35.4947852,154.950516 34.6093773,153.713549 34.140625,152.203125 C34.7656281,152.307292 35.2343734,152.359375 35.546875,152.359375 C36.0677109,152.359375 36.7447875,152.255209 37.578125,152.046875 C35.8593664,151.68229 34.4140684,150.809903 33.2421875,149.429688 C32.0703066,148.049472 31.484375,146.447926 31.484375,144.625 L31.484375,144.546875 C32.6302141,145.171878 33.7760359,145.484375 34.921875,145.484375 C32.6822805,144.026034 31.5625,141.91668 31.5625,139.15625 C31.5625,137.85416 31.9010383,136.604173 32.578125,135.40625 C36.5885617,140.354191 41.7708016,142.984373 48.125,143.296875 C48.0208328,142.93229 47.96875,142.359379 47.96875,141.578125 C47.96875,139.442698 48.6979094,137.645841 50.15625,136.1875 C51.6145906,134.729159 53.4114477,134 55.546875,134 C57.6823023,134 59.5052008,134.807284 61.015625,136.421875 C62.5781328,136.161457 64.1927,135.536463 65.859375,134.546875 C65.3385391,136.369801 64.2187586,137.776037 62.5,138.765625 C64.1145914,138.609374 65.5729102,138.218753 66.875,137.59375 Z" id="ion-social-twitter---Ionicons"></path>
            </g>
        </g>
    </g>
</svg>