<?xml version="1.0" encoding="UTF-8"?>
<svg width="43px" height="25px" viewBox="0 0 43 25" version="1.1" xmlns="http://www.w3.org/2000/svg" xmlns:xlink="http://www.w3.org/1999/xlink">
    <!-- Generator: Sketch 49 (51002) - http://www.bohemiancoding.com/sketch -->
    <title>vk - FontAwesome</title>
    <desc>Created with Sketch.</desc>
    <defs></defs>
    <g id="Page-1" stroke="none" stroke-width="1" fill="none" fill-rule="evenodd">
        <g id="redisign-1.1-copy-10" transform="translate(-760.000000, -3599.000000)" fill="#BBC9D3">
            <g id="Group-13" transform="translate(730.000000, 3562.000000)">
                <g id="Group-24">
                    <path d="M72.7902296,39.3214015 C73.1250514,40.2365812 72.075943,42.3794409 69.4420113,45.8839094 C65.111649,51.6428448 64.6428984,51.1071299 68.2143313,54.4330267 C71.6518354,57.6249948 72.3661219,59.1651752 72.4777292,59.3660683 C72.4777292,59.3660683 73.9063023,61.8660713 70.8929059,61.8883927 L65.1786134,61.9776785 C63.9509333,62.2232146 62.3214671,61.1071418 62.3214671,61.1071418 C60.1786074,59.6339258 58.1696764,55.8169569 56.6071746,56.3080289 C56.6071746,56.3080289 55.0000298,56.8214224 55.0446727,60.2589265 C55.0669942,60.9955345 54.7098509,61.3973207 54.7098509,61.3973207 C54.7098509,61.3973207 54.3080647,61.8214284 53.5268138,61.8883927 L50.9598464,61.8883927 C45.3125183,62.245536 40.3348337,57.0446369 40.3348337,57.0446369 C40.3348337,57.0446369 34.8883987,51.4196302 30.1116073,40.1919383 C29.7991069,39.4553303 30.1339287,39.098187 30.1339287,39.098187 C30.1339287,39.098187 30.4687506,38.6740793 31.4062517,38.6740793 L37.5223304,38.6294364 C38.1026882,38.7187222 38.5044744,39.0312226 38.5044744,39.0312226 C38.5044744,39.0312226 38.8616177,39.2767586 39.0401893,39.7455092 C40.0446548,42.2455122 41.3392992,44.5223006 41.3392992,44.5223006 C43.5714447,49.1205204 45.0893037,49.9017713 45.9598405,49.4330207 C45.9598405,49.4330207 47.0982347,48.7410556 46.8526987,43.1830133 C46.7634128,41.1740823 46.2053765,40.2589027 46.2053765,40.2589027 C45.691983,39.5669375 44.7321604,39.3660444 44.3080528,39.2990801 C43.9732309,39.2544372 44.5312673,38.4508648 45.2678753,38.0937215 C46.3616266,37.5580066 48.3035932,37.5356851 50.6027031,37.5580066 C52.410741,37.580328 52.9241345,37.6919353 53.6160996,37.8481855 C55.7366378,38.361579 55.0223513,40.325867 55.0223513,45.0580155 C55.0223513,46.5758745 54.7321723,48.6964127 55.8259236,49.3883778 C56.2946742,49.7008782 57.4553899,49.4330207 60.3125361,44.5669435 C60.3125361,44.5669435 61.6518234,42.2455122 62.7009318,39.5446161 C62.8795035,39.0535441 63.2589682,38.852651 63.2589682,38.852651 C63.2589682,38.852651 63.6161115,38.6517579 64.1071835,38.7187222 L70.5357626,38.6740793 C72.4777292,38.4285433 72.7902296,39.3214015 72.7902296,39.3214015 Z" id="vk---FontAwesome"></path>
                </g>
            </g>
        </g>
    </g>
</svg>