<?xml version="1.0" encoding="UTF-8"?>
<svg width="302px" height="226px" viewBox="0 0 302 226" version="1.1" xmlns="http://www.w3.org/2000/svg" xmlns:xlink="http://www.w3.org/1999/xlink">
    <!-- Generator: Sketch 49 (51002) - http://www.bohemiancoding.com/sketch -->
    <title>Page 1</title>
    <desc>Created with Sketch.</desc>
    <defs></defs>
    <g id="Page-1" stroke="none" stroke-width="1" fill="none" fill-rule="evenodd">
        <g fill="#F7F4EC" id="Combined-Shape">
            <path d="M272.861,225.8965 L171.931,225.8965 L171.931,199.04 L168.47,199.04 L168.47,225.8965 L143.8563,225.8965 L143.8563,185.9765 C148.2263,162.7085 167.9353,144.8465 192.0853,143.2665 C192.1573,159.9265 205.7263,173.4585 222.3973,173.4585 C239.0673,173.4585 252.6353,159.9265 252.7053,143.2665 C280.1353,145.0565 301.8453,167.8565 301.8453,195.7385 L301.8453,225.8965 L276.322,225.8965 L276.322,199.04 L272.861,199.04 L272.861,225.8965 Z M167.1256,33.1779 C167.1256,17.3669 179.9446,4.5469 195.7556,4.5469 L195.7556,13.3769 C203.9056,7.8189 213.7456,4.5469 224.3656,4.5469 L269.8256,4.5469 C269.8256,10.6669 267.7556,16.2969 264.2856,20.7869 C264.7956,20.7579 265.3156,20.7389 265.8356,20.7389 L284.5566,20.7389 C284.5566,32.9889 276.2556,43.3079 264.9656,46.3669 C266.6756,48.3579 268.2356,50.4889 269.6556,52.7069 L262.7356,58.8979 C260.0856,51.8479 253.2956,46.8079 245.3256,46.8079 C235.9956,46.8079 228.2666,53.7179 226.9446,62.6879 L217.8456,62.6879 C216.5246,53.7179 208.7956,46.8079 199.4656,46.8079 C191.4956,46.8079 184.7056,51.8479 182.0566,58.8979 L175.3256,52.8769 C169.8966,48.0179 167.1256,40.3669 167.1256,33.1779 Z M156.1353,65.9777 C156.1353,60.1267 160.8853,55.3867 166.7263,55.3867 L172.9353,55.3867 L181.0753,62.6667 C180.9463,63.5687 180.8563,64.4777 180.8563,65.4167 C180.8563,75.6767 189.2053,84.0287 199.4653,84.0287 C209.4763,84.0287 217.6473,76.0687 218.0353,66.1477 L226.7553,66.1477 C227.1473,76.0687 235.3173,84.0287 245.3253,84.0287 C255.5853,84.0287 263.9353,75.6767 263.9353,65.4167 C263.9353,64.4777 263.8453,63.5687 263.7153,62.6767 L271.8563,55.3867 L278.0673,55.3867 C283.9153,55.3867 288.6563,60.1267 288.6563,65.9777 C288.6563,71.8287 283.9153,76.5687 278.0673,76.5687 L278.0553,76.5687 C278.2763,78.5967 278.3973,80.6477 278.3973,82.7387 C278.3973,103.9267 266.6153,122.3767 249.2453,131.8867 L249.2453,143.1477 C249.2453,157.9777 237.2263,169.9977 222.3973,169.9977 C214.9873,169.9977 208.2653,166.9977 203.4063,162.1367 C198.5453,157.2787 195.5453,150.5567 195.5453,143.1477 L195.5453,131.8867 C178.1753,122.3767 166.3973,103.9267 166.3973,82.7387 C166.3973,80.6477 166.5153,78.5967 166.7373,76.5687 L166.7263,76.5687 C160.8853,76.5687 156.1353,71.8287 156.1353,65.9777 Z M211.7564,196.4728 L211.7564,186.9438 L208.5274,190.1708 C206.2814,187.9888 203.2244,186.6398 199.8674,186.6398 C192.8454,186.6398 187.1524,192.0178 187.1524,199.0388 C187.1524,206.0638 192.8454,211.4408 199.8674,211.4408 C204.2654,211.4408 208.1554,209.1618 210.3694,205.6528 L206.7004,203.3728 C205.2774,205.6188 202.7464,207.1388 199.8674,207.1388 C195.4064,207.1388 191.8004,203.5328 191.8004,199.0388 C191.8004,194.5788 195.4064,190.9738 199.8674,190.9738 C202.0454,190.9738 204.0234,191.8268 205.4724,193.2278 L202.2504,196.4508 L211.7564,196.4728 Z M225.1754,196.9182 L221.3754,195.9382 C217.2054,194.7372 219.0674,190.9782 222.7654,190.9782 C224.9874,190.9782 226.8454,191.6062 228.3654,192.8382 L230.8654,189.2982 C228.7154,187.6172 225.8354,186.6382 222.7654,186.6382 C218.3054,186.5482 214.3254,189.7082 214.4154,193.5082 C214.4154,196.8272 216.7954,199.1682 220.2374,200.0882 L224.2854,201.1282 C229.1554,202.4582 227.1654,207.1682 222.7654,207.1682 C220.2654,207.1682 218.0554,206.2882 216.5354,204.7982 L214.0054,208.3672 C216.2854,210.2982 219.3854,211.4382 222.7654,211.4382 C227.6754,211.5382 231.8454,208.1472 231.7554,204.0382 C231.7554,200.1782 228.8174,197.8382 225.1754,196.9182 Z M247.1353,207.1379 C242.6753,207.1379 239.0753,203.5289 239.0753,199.0369 C239.0753,194.5769 242.6753,190.9779 247.1353,190.9779 C250.0153,190.9779 252.5453,192.4569 253.9763,194.7389 L257.6353,192.4279 C255.4253,188.9489 251.5353,186.6379 247.1353,186.6379 C240.1153,186.6379 234.4253,192.0179 234.4253,199.0369 C234.4253,206.0689 240.1153,211.4379 247.1353,211.4379 C251.5353,211.4379 255.4253,209.1669 257.6353,205.6479 L253.9763,203.3769 C252.5453,205.6169 250.0153,207.1379 247.1353,207.1379 Z M247.1539,195.2765 C245.0659,195.2765 243.3749,196.9675 243.3749,199.0555 C243.3749,201.1425 245.0659,202.8375 247.1539,202.8375 C249.2419,202.8375 250.9339,201.1425 250.9339,199.0555 C250.9339,196.9675 249.2419,195.2765 247.1539,195.2765 Z M199.4654,50.2678 C207.8174,50.2678 214.6154,57.0688 214.6154,65.4168 C214.6154,73.7678 207.8174,80.5688 199.4654,80.5688 C191.1064,80.5688 184.3174,73.7678 184.3174,65.4168 C184.3174,57.0688 191.1064,50.2678 199.4654,50.2678 Z M245.3254,50.2678 C253.6864,50.2678 260.4774,57.0688 260.4774,65.4168 C260.4774,73.7678 253.6864,80.5688 245.3254,80.5688 C236.9774,80.5688 230.1754,73.7678 230.1754,65.4168 C230.1754,57.0688 236.9774,50.2678 245.3254,50.2678 Z M245.3258,76.6076 C251.8158,76.6076 257.0968,71.3286 257.0968,64.8366 L253.6368,64.8366 C253.6368,69.4186 249.9058,73.1476 245.3258,73.1476 C240.7458,73.1476 237.0248,69.4186 237.0248,64.8366 L233.5548,64.8366 C233.5548,71.3286 238.8358,76.6076 245.3258,76.6076 Z M199.3258,76.6076 C205.8158,76.6076 211.0968,71.3286 211.0968,64.8366 L207.6368,64.8366 C207.6368,69.4186 203.9058,73.1476 199.3258,73.1476 C194.7458,73.1476 191.0248,69.4186 191.0248,64.8366 L187.5548,64.8366 C187.5548,71.3286 192.8358,76.6076 199.3258,76.6076 Z M266.3053,90.5285 C267.5153,90.5285 268.4873,89.5485 268.4873,88.3465 C268.4873,87.1365 267.5153,86.1585 266.3053,86.1585 C265.0953,86.1585 264.1253,87.1365 264.1253,88.3465 C264.1253,89.5485 265.0953,90.5285 266.3053,90.5285 Z M260.9653,99.0785 C262.1753,99.0785 263.1463,98.1075 263.1463,96.8965 C263.1463,95.6865 262.1753,94.7165 260.9653,94.7165 C259.7653,94.7165 258.7853,95.6865 258.7853,96.8965 C258.7853,98.1075 259.7653,99.0785 260.9653,99.0785 Z M255.6253,90.5285 C256.8353,90.5285 257.8173,89.5485 257.8173,88.3465 C257.8173,87.1365 256.8353,86.1585 255.6253,86.1585 C254.4253,86.1585 253.4463,87.1365 253.4463,88.3465 C253.4463,89.5485 254.4253,90.5285 255.6253,90.5285 Z M249.4073,94.3465 L249.4073,90.8865 L236.4153,90.8865 L236.4153,94.3465 L241.0853,94.3465 C240.2153,103.8965 232.1653,111.3965 222.3963,111.3965 C212.6253,111.3965 204.5763,103.8965 203.7053,94.3465 L208.3753,94.3465 L208.3753,90.8865 L195.3963,90.8865 L195.3963,94.3465 L200.2263,94.3465 C201.1173,105.8065 210.7153,114.8685 222.3963,114.8685 C234.0763,114.8685 243.6753,105.8065 244.5673,94.3465 L249.4073,94.3465 Z M189.1653,90.5285 C190.3673,90.5285 191.3453,89.5485 191.3453,88.3465 C191.3453,87.1365 190.3673,86.1585 189.1653,86.1585 C187.9553,86.1585 186.9763,87.1365 186.9763,88.3465 C186.9763,89.5485 187.9553,90.5285 189.1653,90.5285 Z M224.8553,77.2165 C220.1353,77.2165 216.2853,81.0565 216.2853,85.7885 C216.2853,90.5075 220.1353,94.3465 224.8553,94.3465 L224.8553,90.8865 C222.0353,90.8865 219.7453,88.5965 219.7453,85.7885 C219.7453,82.9665 222.0353,80.6765 224.8553,80.6765 L224.8553,77.2165 Z M183.8263,99.0785 C185.0263,99.0785 186.0053,98.1075 186.0053,96.8965 C186.0053,95.6865 185.0263,94.7165 183.8263,94.7165 C182.6173,94.7165 181.6463,95.6865 181.6463,96.8965 C181.6463,98.1075 182.6173,99.0785 183.8263,99.0785 Z M178.4873,90.5285 C179.6963,90.5285 180.6653,89.5485 180.6653,88.3465 C180.6653,87.1365 179.6963,86.1585 178.4873,86.1585 C177.2763,86.1585 176.3053,87.1365 176.3053,88.3465 C176.3053,89.5485 177.2763,90.5285 178.4873,90.5285 Z"></path>
            <path d="M103.6482,168.1865 L102.6172,168.6565 L114.9692,225.9535 L19.6502,225.9535 L32.0032,168.6565 L30.9712,168.1865 C17.2492,161.9515 17.2522,149.1745 17.4952,145.8845 L37.2002,137.4915 C45.9852,141.8865 56.3792,144.2085 67.3092,144.2085 C78.2412,144.2085 88.6342,141.8865 97.4202,137.4915 L117.1212,145.8845 C117.3682,149.1795 117.3672,161.9525 103.6482,168.1865 Z M28.7789,170.2599 L17.4659,222.7349 C4.6369,193.7999 13.0059,170.9739 18.3709,160.8749 C20.4719,164.3559 23.7339,167.7389 28.7789,170.2599 Z M116.2496,160.8762 C121.6136,170.9742 129.9806,193.8002 117.1536,222.7332 L105.8396,170.2602 C110.8856,167.7392 114.1456,164.3552 116.2496,160.8762 Z M91.1832,185.9035 C91.1832,184.1325 89.7482,182.7005 87.9792,182.7005 C86.2102,182.7005 84.7772,184.1325 84.7772,185.9035 C84.7772,187.6735 86.2102,189.1055 87.9792,189.1055 C89.7482,189.1055 91.1832,187.6735 91.1832,185.9035 Z M87.9662,179.0525 C90.4072,179.0525 92.5502,180.3135 93.7562,182.2445 L96.8672,180.2875 C94.9912,177.3395 91.6932,175.3825 87.9662,175.3825 C82.0152,175.3825 77.1912,179.9375 77.1912,185.8885 C77.1912,191.8405 82.0152,196.3975 87.9662,196.3975 C91.6932,196.3975 94.9912,194.4675 96.8672,191.4935 L93.7562,189.5615 C92.5502,191.4655 90.4072,192.7535 87.9662,192.7535 C84.1862,192.7535 81.1302,189.6965 81.1302,185.8885 C81.1302,182.1105 84.1862,179.0525 87.9662,179.0525 Z M67.3172,196.3965 C71.4702,196.4775 75.0082,193.6105 74.9282,190.1255 C74.9282,186.8545 72.4352,184.8715 69.3532,184.0925 L66.1362,183.2615 C62.5972,182.2445 64.1792,179.0535 67.3172,179.0535 C69.1932,179.0535 70.7732,179.5915 72.0602,180.6345 L74.1782,177.6325 C72.3552,176.2135 69.9152,175.3825 67.3172,175.3825 C63.5372,175.3005 60.1602,177.9815 60.2402,181.1995 C60.2402,184.0125 62.2492,185.9975 65.1712,186.7735 L68.6022,187.6595 C72.7302,188.7855 71.0412,192.7795 67.3172,192.7795 C65.1992,192.7795 63.3232,192.0285 62.0362,190.7675 L59.8902,193.7985 C61.8212,195.4315 64.4482,196.3965 67.3172,196.3965 Z M57.9842,183.7145 L57.9842,175.6375 L55.2452,178.3785 C53.3412,176.5275 50.7522,175.3825 47.9102,175.3825 C41.9572,175.3825 37.1312,179.9375 37.1312,185.8885 C37.1312,191.8405 41.9572,196.3975 47.9102,196.3975 C51.6342,196.3975 54.9312,194.4665 56.8082,191.4935 L53.7002,189.5615 C52.4942,191.4655 50.3482,192.7535 47.9102,192.7535 C44.1282,192.7535 41.0742,189.6965 41.0742,185.8885 C41.0742,182.1105 44.1282,179.0525 47.9102,179.0525 C49.7532,179.0525 51.4292,179.7775 52.6592,180.9645 L49.9272,183.6945 L57.9842,183.7145 Z M123.6988,72.6613 C123.6988,98.2303 103.0138,119.4173 75.9928,123.2063 C76.9938,132.3493 83.9118,135.6913 93.0198,136.4173 C85.3258,139.6803 76.5258,141.3933 67.3088,141.3933 C58.0888,141.3933 49.2818,139.6773 41.5838,136.4113 C50.5958,135.6693 57.5998,132.2863 58.6218,123.2053 C31.6038,119.4153 10.9208,98.2293 10.9208,72.6613 C10.9208,71.9383 10.9468,71.2243 10.9788,70.5103 C11.0138,69.8523 11.0598,69.1993 11.1168,68.5503 C11.1168,68.5483 11.1168,68.5473 11.1178,68.5463 C13.0858,68.7243 15.8888,68.8993 19.2928,68.8993 C21.5468,68.8993 24.0648,68.8183 26.7688,68.6123 C23.9778,70.8363 22.1758,73.9003 22.1758,77.8793 C22.1758,90.2813 32.0988,96.7713 41.9048,96.7733 L41.9068,96.7733 C47.0388,96.7733 51.8338,95.1023 55.4098,92.0683 C59.2678,88.7953 61.3788,84.2033 61.5898,78.7673 C63.1548,78.0653 65.1918,77.6703 67.3088,77.6703 C69.6118,77.6703 71.5708,78.1183 73.0118,78.7633 C73.4728,90.5903 83.1478,96.7733 92.7148,96.7733 C102.5178,96.7733 112.4438,90.2843 112.4438,77.8793 C112.4438,68.3983 102.2218,64.0823 92.7218,64.0823 C83.9448,64.0823 74.5568,67.7663 73.1718,75.7953 C71.4678,75.1923 69.4608,74.8553 67.3088,74.8553 C65.1948,74.8553 63.1838,75.1903 61.4508,75.8073 C60.3608,69.4623 54.2728,65.8373 47.4388,64.5883 C58.9548,60.7933 70.8438,53.8523 79.8238,41.4023 C87.2268,50.1993 101.1518,68.3503 123.5288,68.8783 C123.5758,69.4513 123.6118,70.0253 123.6408,70.6023 C123.6728,71.2873 123.6988,71.9723 123.6988,72.6613 Z M100.8268,103.6203 C101.7708,103.6203 102.5358,102.8533 102.5358,101.9103 C102.5358,100.9653 101.7708,100.1973 100.8268,100.1973 C99.8818,100.1973 99.1148,100.9653 99.1148,101.9103 C99.1148,102.8533 99.8818,103.6203 100.8268,103.6203 Z M96.6408,110.3283 C97.5858,110.3283 98.3498,109.5613 98.3498,108.6153 C98.3498,107.6723 97.5858,106.9043 96.6408,106.9043 C95.6948,106.9043 94.9308,107.6723 94.9308,108.6153 C94.9308,109.5613 95.6948,110.3283 96.6408,110.3283 Z M92.4558,103.6203 C93.3988,103.6203 94.1658,102.8533 94.1658,101.9103 C94.1658,100.9653 93.3988,100.1973 92.4558,100.1973 C91.5118,100.1973 90.7448,100.9653 90.7448,101.9103 C90.7448,102.8533 91.5118,103.6203 92.4558,103.6203 Z M67.3088,111.9623 C72.4738,111.9623 76.8058,109.1763 77.3858,105.4793 L74.6038,105.0463 C74.2438,107.3463 71.0398,109.1463 67.3088,109.1463 C63.5798,109.1463 60.3758,107.3463 60.0138,105.0463 L57.2338,105.4803 C57.8128,109.1763 62.1438,111.9623 67.3088,111.9623 Z M68.5448,87.2233 C64.9028,87.2233 61.9408,90.1833 61.9408,93.8243 C61.9408,97.4673 64.9028,100.4293 68.5448,100.4293 L68.5448,97.6133 C66.4548,97.6133 64.7558,95.9143 64.7558,93.8243 C64.7558,91.7353 66.4548,90.0373 68.5448,90.0373 L68.5448,87.2233 Z M42.1638,103.6203 C43.1088,103.6203 43.8738,102.8533 43.8738,101.9103 C43.8738,100.9653 43.1088,100.1973 42.1638,100.1973 C41.2208,100.1973 40.4528,100.9653 40.4528,101.9103 C40.4528,102.8533 41.2208,103.6203 42.1638,103.6203 Z M37.9768,110.3283 C38.9258,110.3283 39.6888,109.5613 39.6888,108.6153 C39.6888,107.6723 38.9258,106.9043 37.9768,106.9043 C37.0338,106.9043 36.2678,107.6723 36.2678,108.6153 C36.2678,109.5613 37.0338,110.3283 37.9768,110.3283 Z M33.7918,103.6203 C34.7378,103.6203 35.5048,102.8533 35.5048,101.9103 C35.5048,100.9653 34.7378,100.1973 33.7918,100.1973 C32.8478,100.1973 32.0828,100.9653 32.0828,101.9103 C32.0828,102.8533 32.8478,103.6203 33.7918,103.6203 Z M41.9044,93.9603 C33.7574,93.9593 24.9874,88.9273 24.9874,77.8793 C24.9874,70.3333 33.7534,66.8943 41.8994,66.8943 C50.0464,66.8943 58.8174,70.3333 58.8174,77.8793 C58.8174,82.8553 57.0084,87.0203 53.5884,89.9243 C50.5224,92.5263 46.3734,93.9603 41.9064,93.9603 L41.9044,93.9603 Z M32.6324,77.9533 L29.8194,77.9533 C29.8194,84.6153 35.2384,90.0373 41.9034,90.0373 C48.5664,90.0373 53.9864,84.6153 53.9864,77.9533 L51.1724,77.9533 C51.1724,83.0633 47.0134,87.2233 41.9034,87.2233 C36.7904,87.2233 32.6324,83.0633 32.6324,77.9533 Z M92.7149,93.9603 C84.5689,93.9603 75.8019,88.9283 75.8019,77.8793 C75.8019,70.3333 84.5719,66.8943 92.7199,66.8943 C100.8649,66.8943 109.6319,70.3333 109.6319,77.8793 C109.6319,88.9283 100.8609,93.9603 92.7149,93.9603 Z M83.4469,77.9533 L80.6339,77.9533 C80.6339,84.6153 86.0529,90.0373 92.7179,90.0373 C99.3809,90.0373 104.8009,84.6153 104.8009,77.9533 L101.9859,77.9533 C101.9859,83.0633 97.8279,87.2233 92.7179,87.2233 C87.6049,87.2233 83.4469,83.0633 83.4469,77.9533 Z M80.2447,5.0178 C124.7677,-9.8282 163.0947,110.7248 105.5897,113.7808 C118.3767,103.8728 126.5147,89.1218 126.5147,72.6618 C126.5147,71.4398 126.4567,70.1638 126.3347,68.6518 L126.1317,66.1228 L123.5967,66.0648 C103.6677,65.5938 90.8567,50.2338 83.2027,41.0558 C82.7757,40.5428 82.3677,40.0548 81.9767,39.5898 L79.6527,36.8298 L77.5417,39.7558 C61.0157,62.6648 33.9537,66.0858 19.2927,66.0858 C15.8757,66.0858 13.0987,65.8998 11.3717,65.7438 L8.5607,65.4888 L8.3137,68.2978 C8.1747,69.8968 8.1047,71.3238 8.1047,72.6618 C8.1047,89.1218 16.2417,103.8718 29.0287,113.7798 C8.2727,112.6748 -0.0003,96.2678 -0.0003,76.4408 C-0.0003,44.4898 15.9327,16.9538 38.9127,4.2888 C52.5897,-2.4812 66.0077,-0.4682 80.2447,5.0178 Z"></path>
        </g>
    </g>
</svg>