<svg xmlns="http://www.w3.org/2000/svg" width="84" height="68"><g fill="none" fill-rule="evenodd"><rect width="82" height="54" x="1" y="2" fill="#FFF" rx="2"/><path fill="#1D1D1D" d="M80.596 1C82.476 1 84 2.79 84 5v48c0 2.21-1.524 4-3.404 4H43v8h13a1 1 0 010 2H28a1 1 0 010-2h13v-8H3.404C1.524 57 0 55.21 0 53V5c0-2.21 1.524-4 3.404-4h77.192zm-.285 2H3.69C2.756 3 2 3.895 2 5v48c0 1.105.756 2 1.689 2H80.31c.933 0 1.689-.895 1.689-2V5c0-1.105-.756-2-1.689-2zM32.424 26.59c2.918-5.17 9.443-7.105 14.723-4.31a11 11 0 014.575 4.575l-.029-.051.071-.13c2.92-5.17 9.444-7.104 14.724-4.308a11 11 0 013.748 3.25l1.18 1.622 3.782-5.197a1 1 0 011.291-.288l.106.068a1 1 0 01.22 1.397l-4.162 5.72 4.163 5.721a1 1 0 01-1.618 1.177l-3.782-5.198-1.18 1.623a11 11 0 01-3.41 3.063l-.338.187c-5.37 2.843-12.026.794-14.869-4.575l.074.135-.16.29a11 11 0 01-4.386 4.235c-5.353 2.834-11.984.807-14.842-4.524a10.964 10.964 0 01-3.174 3.61c-4.913 3.574-11.793 2.487-15.366-2.426l-1.177-1.618-3.78 5.197a1 1 0 11-1.617-1.176l4.16-5.721-4.16-5.72a1 1 0 01.124-1.317l.097-.08a1 1 0 011.397.22l3.779 5.196 1.177-1.616c3.573-4.914 10.453-6 15.366-2.427a11 11 0 013.177 3.61zm13.787-2.542a9 9 0 00-12.165 3.743l-.608 1.147.608 1.148a9 9 0 0015.908 0l.607-1.148-.607-1.147a9 9 0 00-3.447-3.58zm7.176 3.828l-.563 1.062.563 1.062a9 9 0 0011.924 3.866l.24-.122a9 9 0 003.067-2.66l1.562-2.146-1.562-2.146a9 9 0 00-15.231 1.084zm-38.005-1.08l-1.558 2.142 1.558 2.142a9 9 0 0012.347 2.143l.225-.158a9 9 0 002.66-3.068l.561-1.059-.56-1.059a9 9 0 00-15.233-1.082z"/></g></svg>