<svg xmlns="http://www.w3.org/2000/svg" width="88" height="68"><g fill="none" fill-rule="evenodd"><g transform="translate(0 7)"><rect width="81" height="57" x="1" y="2" fill="#FFF" rx="2"/><path fill="#1D1D1D" fill-rule="nonzero" d="M82 54a6 6 0 01-6 6H6a6 6 0 01-6-6V6a6 6 0 016-6h70a6 6 0 016 6v48zM2 12v42a4 4 0 004 4h70a4 4 0 004-4V12H2zm0-2h78V6a4 4 0 00-4-4H6a4 4 0 00-4 4v4z"/></g><g transform="translate(6 1)"><rect width="80" height="56" x="2" y="2" fill="#FFF" rx="2"/><path fill="#1D1D1D" fill-rule="nonzero" d="M76 0a6 6 0 016 6v48a6 6 0 01-6 6H6a6 6 0 01-6-6V6a6 6 0 016-6h70zm4 12H2v42a4 4 0 004 4h70a4 4 0 004-4V12zM76 2H6a4 4 0 00-4 4v4h78V6a4 4 0 00-4-4zm0 2a2 2 0 110 4 2 2 0 010-4zm-6 0a2 2 0 110 4 2 2 0 010-4zm-6 0a2 2 0 110 4 2 2 0 010-4z"/></g></g></svg>