<?xml version="1.0" encoding="UTF-8"?>
<svg width="13px" height="13px" viewBox="0 0 13 13" version="1.1" xmlns="http://www.w3.org/2000/svg" xmlns:xlink="http://www.w3.org/1999/xlink">
    <!-- Generator: Sketch 47 (45396) - http://www.bohemiancoding.com/sketch -->
    <title>Combined Shape</title>
    <desc>Created with Sketch.</desc>
    <defs></defs>
    <g id="release" stroke="none" stroke-width="1" fill="none" fill-rule="evenodd">
        <g id="spb-2017-all-search" transform="translate(-237.000000, -310.000000)" fill="#2F79BB">
            <path d="M242.170851,315.170851 L236.456566,315.170851 L236.456566,315.170851 C235.825383,315.170851 235.313708,315.682526 235.313708,316.313708 C235.313708,316.944891 235.825383,317.456566 236.456566,317.456566 L242.170851,317.456566 L242.170851,323.170851 C242.170851,323.802034 242.682526,324.313708 243.313708,324.313708 L243.313708,324.313708 C243.944891,324.313708 244.456566,323.802034 244.456566,323.170851 L244.456566,323.170851 L244.456566,317.456566 L250.170851,317.456566 C250.802034,317.456566 251.313708,316.944891 251.313708,316.313708 L251.313708,316.313708 C251.313708,315.682526 250.802034,315.170851 250.170851,315.170851 L250.170851,315.170851 L244.456566,315.170851 L244.456566,309.456566 L244.456566,309.456566 C244.456566,308.825383 243.944891,308.313708 243.313708,308.313708 C242.682526,308.313708 242.170851,308.825383 242.170851,309.456566 L242.170851,315.170851 Z" id="Combined-Shape" transform="translate(243.313708, 316.313708) rotate(45.000000) translate(-243.313708, -316.313708) "></path>
        </g>
    </g>
</svg>