<svg xmlns="http://www.w3.org/2000/svg" width="92" height="32" viewBox="0 0 92 32">
  <path fill-rule="evenodd" d="M32,12.6862814 L19.6369034,12.6575956 L23.8293588,8.49815912 C21.9427539,6.69095566 19.3704863,5.591676 16.5385137,5.591676 C10.7372293,5.591676 6.04756527,10.2449176 6.04756527,16 C6.04756527,21.7960621 10.7372293,26.4487914 16.5385137,26.4487914 C20.2822937,26.4487914 23.5732679,24.4894509 25.4247636,21.591676 L30.1970377,24.5304306 C27.317048,29.0607332 22.2566717,32 16.5385137,32 C7.40546646,32 0,25.0611173 0,16 C0,6.93888266 7.40546646,0 16.5385137,0 C20.902901,0 24.8805705,1.73907476 27.8013489,4.55745158 L32,0.391868097 L32,12.6862814 Z M37.7958486,23.4274383 C39.7967485,25.3456091 42.714139,26.4883164 46.0066003,26.4883164 C51.8000556,26.4883164 54.4265964,20.4075359 48.0075002,18.693731 L42.6722902,17.3466578 C38.1290703,16.1629749 35.0034816,13.1430724 35.0034816,8.85804798 C34.8779349,3.96095038 40.1299703,-0.120220384 46.0066003,0.00270644609 C50.0497259,0.00270644609 53.8422813,1.26731621 56.6770203,3.43031623 L53.384036,8.00114553 C51.3836592,6.40975528 48.9239908,5.59331625 46.0066003,5.59331625 C41.1301587,5.59331625 38.6710134,10.4499504 44.1730959,12.0003651 L49.1740379,13.2659992 C53.967828,14.44917 57.8440812,17.4690724 57.8440812,22.4481213 C57.9685816,27.7534384 52.4670222,32.1199018 46.0066003,31.9974872 C41.5465551,31.9974872 37.4621037,30.5285116 34.4615385,28.0387311 L37.7958486,23.4274383 Z M86.408729,10.4487914 C84.5981182,7.51003682 81.3784127,5.591676 77.7162819,5.591676 C72.0420245,5.591676 67.4541337,10.2449176 67.4541337,16 C67.4541337,21.7955499 72.0420245,26.4487914 77.7162819,26.4487914 C81.3784127,26.4487914 84.5981182,24.4899632 86.408729,21.591676 L91.0769231,24.5304306 C88.2597439,29.0607332 83.310236,32 77.7162819,32 C68.78242,32 61.5384615,25.0611173 61.5384615,16 C61.5384615,6.93888266 68.78242,0 77.7162819,0 C83.310236,0 88.2597439,2.97922203 91.0769231,7.46956939 L86.408729,10.4487914 Z M77.5384615,11.0769231 C80.2574766,11.0769231 82.4615385,13.2809849 82.4615385,16 C82.4615385,18.7190151 80.2574766,20.9230769 77.5384615,20.9230769 C74.8194465,20.9230769 72.6153846,18.7190151 72.6153846,16 C72.6153846,13.2809849 74.8194465,11.0769231 77.5384615,11.0769231 Z"/>
</svg>