<svg xmlns="http://www.w3.org/2000/svg" width="32" height="32" viewBox="0 0 32 32">
    <g fill="none" fill-rule="evenodd">
        <circle cx="16" cy="16" r="16" fill="#FF6C0D"/>
        <path fill="#FFF" d="M22.696 15.321l.161 2.822c.072 1.259-2.562 2.286-5.714 2.286-3.152 0-5.786-1.027-5.714-2.286l.16-2.822 5.125 1.617c.143.044.286.062.429.062.143 0 .286-.018.428-.063l5.125-1.616zm4.733-2.892c0 .125-.08.232-.197.276l-10 3.143c-.036.01-.062.01-.09.01-.026 0-.053 0-.088-.01l-5.822-1.84c-.509.403-.866 1.385-.937 2.59.339.197.562.554.562.973 0 .402-.205.75-.518.956l.518 3.866a.294.294 0 0 1-.071.223.285.285 0 0 1-.215.098H8.857a.285.285 0 0 1-.214-.098.294.294 0 0 1-.072-.223l.518-3.866a1.137 1.137 0 0 1 .063-1.947c.053-1.044.321-2.17.875-2.946l-2.973-.929a.298.298 0 0 1-.197-.276c0-.125.08-.233.197-.277l10-3.143C17.089 9 17.116 9 17.143 9c.027 0 .053 0 .09.009l10 3.143a.298.298 0 0 1 .196.277z"/>
    </g>
</svg>
