<svg xmlns="http://www.w3.org/2000/svg" width="72" height="58" viewBox="0 0 72 58">
  <g fill="none" fill-rule="evenodd">
    <path fill="#8899A4" fill-rule="nonzero" d="M46,15.0930871 C45.6942803,15.0320174 45.377556,15 45.0527106,15 C44.6903691,15 44.3381316,15.0398353 44,15.1153912 L44,9 C44,8.44771525 43.5522847,8 43,8 L17,8 C16.4477153,8 16,8.44771525 16,9 L16,43 C16,43.5522847 16.4477153,44 17,44 L37.3054256,44 L38.4216609,46 L17,46 C15.3431458,46 14,44.6568542 14,43 L14,9 C14,7.34314575 15.3431458,6 17,6 L43,6 C44.6568542,6 46,7.34314575 46,9 L46,15.0930871 Z M55.4136234,26.2631579 C57.4234006,26.2631579 58.4841711,27.4151344 58.8177256,29.2251657 C59.2794596,28.9431798 59.8299986,28.7894737 60.4712078,28.7894737 C62.6358235,28.7894737 64,30.2574898 64,32.3157895 L64,42.4210526 C64,47.7211949 60.7179808,51 55.4136234,51 L48.6701775,51 C46.1109161,51 43.9603491,49.9321199 42.2243014,48.1768967 C41.1979332,47.1391917 40.5264324,46.1020903 40.2092029,45.4322171 L34.5593244,35.2383773 C33.6081524,33.3153558 33.7992174,31.4833318 35.5733054,30.5821285 C37.838304,29.4315071 39.940109,30.5385948 41.7696624,32.9160273 L41.7696624,20.5789299 C41.7696624,18.5981462 43.3242887,17 45.2984546,17 C47.2726205,17 48.8272468,18.5981462 48.8272468,20.5789299 L48.8272468,23.9846628 C49.2507733,23.8163951 49.7560531,23.7368421 50.356039,23.7368421 C52.4693068,23.7368421 53.4085837,24.5180912 53.7377536,26.5863185 C54.1936012,26.3748678 54.7473473,26.2631579 55.4136234,26.2631579 Z M53.8848312,31.4736842 L53.5044196,31.4736842 C53.1490535,31.734775 52.6214362,31.7338646 52.2658785,31.4736842 L51.8848312,31.4736842 C51.8845844,31.3583931 51.8845844,31.3583931 51.8838155,31.2309345 C51.8822483,30.9682396 51.8822239,30.8299302 51.8848312,30.6613259 L51.8848312,28.9473684 C51.8848312,26.0472513 51.7131904,25.7368421 50.356039,25.7368421 C49.1319277,25.7368421 48.8272468,26.4371798 48.8272468,29.7894737 C48.8272468,31.122807 46.8272468,31.122807 46.8272468,29.7894737 L46.8272468,20.5789299 C46.8272468,19.6905468 46.1555047,19 45.2984546,19 C44.4414046,19 43.7696624,19.6905468 43.7696624,20.5789299 L43.7696624,36.5263158 C43.7696624,37.6101824 42.2864794,37.9196216 41.8530857,36.9261747 C41.7895741,36.7805901 41.6601624,36.5095014 41.4719247,36.155811 C41.1566784,35.5634772 40.796166,34.9714805 40.39957,34.4237919 C39.0222262,32.5217161 37.6885684,31.7508428 36.4791136,32.365247 C35.8919336,32.6635234 35.8266483,33.2895098 36.330269,34.3101744 L41.9864899,44.5170747 C42.044014,44.6377513 42.1753221,44.8765457 42.3804413,45.1933426 C42.7285223,45.7309375 43.1510333,46.2697741 43.6462609,46.7704718 C45.0336085,48.1731433 46.6987868,49 48.6701775,49 L55.4136234,49 C59.6138497,49 62,46.6161865 62,42.4210526 L62,32.3157895 C62,31.33061 61.4971407,30.7894737 60.4712078,30.7894737 C59.3340435,30.7894737 58.9424156,32.0608259 58.9424156,34.6062454 C58.9424156,35.9395788 56.9424156,35.9395788 56.9424156,34.6062454 L56.9424156,31.4736842 C56.9426856,31.3479245 56.9426856,31.3479245 56.9434669,31.2190032 C56.9472535,30.5842852 56.9387583,30.2610247 56.8960651,29.8920999 C56.7617177,28.7311653 56.3900513,28.2631579 55.4136234,28.2631579 C54.2706332,28.2631579 53.9133471,28.9450687 53.8848312,30.6772359 L53.8848312,31.4736842 Z"/>
    <path fill="#374148" fill-rule="nonzero" d="M19,11 L41,11 C41.5522847,11 42,11.4477153 42,12 C42,12.5522847 41.5522847,13 41,13 L19,13 C18.4477153,13 18,12.5522847 18,12 C18,11.4477153 18.4477153,11 19,11 Z M19,15 L41,15 C41.5522847,15 42,15.4477153 42,16 C42,16.5522847 41.5522847,17 41,17 L19,17 C18.4477153,17 18,16.5522847 18,16 C18,15.4477153 18.4477153,15 19,15 Z M19,19 L33,19 C33.5522847,19 34,19.4477153 34,20 C34,20.5522847 33.5522847,21 33,21 L19,21 C18.4477153,21 18,20.5522847 18,20 C18,19.4477153 18.4477153,19 19,19 Z"/>
  </g>
</svg>
