<?xml version="1.0" encoding="UTF-8"?>
<svg width="54px" height="44px" viewBox="0 0 54 44" version="1.1" xmlns="http://www.w3.org/2000/svg" xmlns:xlink="http://www.w3.org/1999/xlink">
    <!-- Generator: Sketch 50.2 (55047) - http://www.bohemiancoding.com/sketch -->
    <title>all-correct_svg</title>
    <desc>Created with Sketch.</desc>
    <defs></defs>
    <g id="Page-1" stroke="none" stroke-width="1" fill="none" fill-rule="evenodd">
        <g id="achieves" transform="translate(-53.000000, -747.000000)">
            <g id="Group-29-Copy-3" transform="translate(60.000000, 749.000000)">
                <g id="Group-28">
                    <g id="Group-21-Copy-4">
                        <g id="Group-8-Copy-8">
                            <g id="Group-9">
                                <g id="Group-45">
                                    <circle id="Oval-3-Copy" stroke-opacity="0.5" stroke="#323232" fill="#B32323" cx="20" cy="20" r="19.5"></circle>
                                    <path d="M41.0429293,9.24513522 C41.0429293,9.81034376 40.8168459,10.3755523 40.4098957,10.7825024 L20.9667221,30.2256761 C20.5597719,30.6326263 19.9945634,30.8587097 19.4293548,30.8587097 C18.8641463,30.8587097 18.2989378,30.6326263 17.8919876,30.2256761 L6.63303356,18.9667221 C6.22608341,18.5597719 6,17.9945634 6,17.4293548 C6,16.8641463 6.22608341,16.2989378 6.63303356,15.8919876 L9.707768,12.8172532 C10.1147181,12.410303 10.6799267,12.1842196 11.2451352,12.1842196 C11.8103438,12.1842196 12.3755523,12.410303 12.7825024,12.8172532 L19.4293548,19.4867139 L34.2604268,4.63303356 C34.667377,4.22608341 35.2325855,4 35.7977941,4 C36.3630026,4 36.9282111,4.22608341 37.3351613,4.63303356 L40.4098957,7.707768 C40.8168459,8.11471815 41.0429293,8.67992669 41.0429293,9.24513522 Z" id="check---FontAwesome" stroke="#242424" fill="#F2D802"></path>
                                </g>
                            </g>
                        </g>
                    </g>
                </g>
            </g>
        </g>
    </g>
</svg>