<?xml version="1.0" encoding="UTF-8"?>
<svg width="54px" height="44px" viewBox="0 0 54 44" version="1.1" xmlns="http://www.w3.org/2000/svg" xmlns:xlink="http://www.w3.org/1999/xlink">
    <!-- Generator: Sketch 50.2 (55047) - http://www.bohemiancoding.com/sketch -->
    <title>cs-club_svg</title>
    <desc>Created with Sketch.</desc>
    <defs>
        <path d="M9,7.53272465 C7.95329056,6.43480115 6.53009671,5.8840141 5.09118152,6.02045596 C1.8621036,6.39190639 -0.389355988,10.4952015 0.056219531,15.1725564 C0.502208769,19.849455 3.4851238,23.3668259 6.70840966,22.9693648 C7.35588012,22.9082169 7.9822509,22.6818786 8.53704828,22.3076902 C8.13077608,22.5700784 7.66368716,22.6932868 7.19411593,22.6604312 C4.7709629,22.7361815 2.70195346,19.1307395 2.28533828,14.7248993 C1.86789567,10.3186029 2.8562707,6.4991433 5.33113863,6.39190639 C6.64097344,6.24588165 7.95204941,6.65338193 9,7.53272465 Z" id="path-1"></path>
        <path d="M13.5963098,6.70795575 C14.4434097,6.75372562 15.2736828,6.96013014 16.0428478,7.31572684 C18.8631195,8.62280877 20.3244001,11.8627876 19.9391534,15.4557226 C19.4254911,19.935889 16.2447702,23.3219793 12.7948195,22.9756246 C12.109346,22.9091703 11.4473416,22.6869223 10.8623865,22.3247242 C11.2967854,22.5782189 11.7971633,22.6966044 12.2997553,22.6653577 C14.893307,22.7384134 17.1073686,19.2607833 17.5541663,15.0116668 C17.8964602,11.7598054 17.351801,8.83537462 15.4804762,7.58330456 C14.8543395,7.17533656 14.1245848,6.95176834 13.376232,6.93856549 C11.0089574,6.82326062 9.90812595,5.21823442 10.0059875,3.29105874 C10.103849,1.36432315 11.3516941,-0.0703863068 12.8010188,0.00266945095 C13.4484104,0.0479992284 14.0453214,0.366627955 14.44031,0.878018259 C14.0320371,0.45376675 13.4767504,0.199391883 12.8864816,0.166824858 C11.7856502,0.0391973298 11.1006195,1.49195068 11.0032008,3.28533751 C10.9053393,5.07872433 11.6142818,6.65954531 13.5963098,6.70795575 Z" id="path-2"></path>
    </defs>
    <g id="Page-1" stroke="none" stroke-width="1" fill="none" fill-rule="evenodd">
        <g id="achieves" transform="translate(-52.000000, -97.000000)">
            <g id="Group-18" transform="translate(59.000000, 99.000000)">
                <g id="Group-8-Copy">
                    <g id="Group-9">
                        <circle id="Oval-3-Copy" stroke-opacity="0.5" stroke="#323232" fill="#902424" cx="20" cy="20" r="19.5"></circle>
                        <g id="Group-7" transform="translate(10.000000, 7.000000)" stroke-linecap="square" stroke-linejoin="bevel">
                            <g id="Stroke-3">
                                <use fill="#FFFFFF" fill-rule="evenodd" xlink:href="#path-1"></use>
                                <path stroke="#000000" stroke-width="1.3" d="M8.58218589,8.03065173 C7.66912851,7.26449885 6.53461453,6.91176569 5.35927696,7.04129705 C3.55825789,7.11933585 2.5153467,10.2609764 2.93245162,14.6637085 C3.33106316,18.8791543 5.26061679,22.0705569 7.23948505,22.0120165 C7.56698944,22.0349317 7.89472692,21.9487524 8.18440288,21.7616671 L8.90050553,22.8465768 C8.25653622,23.2809081 7.52641487,23.5450037 6.7879582,23.6144787 C3.14170858,24.0640952 -0.113323982,20.2418202 -0.590851049,15.2341978 C-1.06657276,10.2403883 1.37796172,5.79331221 5.02982198,5.37335859 C6.66982942,5.21784861 8.28808698,5.84398286 9.47046105,7.08420887 L8.58218589,8.03065173 Z"></path>
                                <use stroke="#FFFFFF" stroke-width="1.5" xlink:href="#path-1"></use>
                            </g>
                            <g id="Stroke-7">
                                <use fill="#FFFFFF" fill-rule="evenodd" xlink:href="#path-2"></use>
                                <path stroke="#000000" stroke-width="1.3" d="M13.5702135,7.35750053 C13.5736192,7.3575915 13.5770275,7.35767864 13.5804384,7.35776195 L13.5612406,7.35700902 C13.5642318,7.35717064 13.5672227,7.35733448 13.5702135,7.35750053 Z M13.6121811,6.05814955 L13.6313789,6.05890247 C14.560459,6.10910183 15.4714212,6.33544482 16.3161693,6.72598506 C19.3677013,8.14024683 21.0044883,11.6169234 20.5849229,15.5297617 C20.0327412,20.3458946 16.5661687,24.0075133 12.7320982,23.6225914 C11.9465257,23.5464328 11.189051,23.2915075 10.5201993,22.8773614 L11.1899946,21.7633216 C11.5128103,21.9517015 11.8850722,22.039884 12.3180574,22.0156154 C14.4202031,22.0748291 16.4808296,19.0035861 16.9077376,14.9436231 C17.2560949,11.6341583 16.6226596,9.1295939 15.1256352,8.12790341 C14.6018729,7.7866388 13.9911348,7.59951509 13.3446094,7.58779581 C10.7475301,7.46129765 9.23369423,5.6828728 9.35682428,3.25808686 C9.47067573,1.01653526 10.9744296,-0.740228238 12.8464201,-0.645743015 C13.6786412,-0.587471639 14.4462745,-0.17760852 14.9547312,0.480688653 L13.9719555,1.32873324 C13.6775649,1.02282111 13.2768013,0.839348623 12.8116237,0.812499929 C12.2856574,0.751520768 11.7389396,1.72460863 11.6522352,3.32075401 C11.5595032,5.0201387 12.2221386,6.02419817 13.6121811,6.05814955 Z"></path>
                                <use stroke="#FFFFFF" stroke-width="1.5" xlink:href="#path-2"></use>
                            </g>
                        </g>
                    </g>
                </g>
            </g>
        </g>
    </g>
</svg>