<?xml version="1.0" encoding="UTF-8"?>
<svg width="54px" height="44px" viewBox="0 0 54 44" version="1.1" xmlns="http://www.w3.org/2000/svg" xmlns:xlink="http://www.w3.org/1999/xlink">
    <!-- Generator: Sketch 50.2 (55047) - http://www.bohemiancoding.com/sketch -->
    <title>less-letters_svg</title>
    <desc>Created with Sketch.</desc>
    <defs>
        <rect id="path-1" x="0" y="0" width="24" height="15" rx="3"></rect>
    </defs>
    <g id="Page-1" stroke="none" stroke-width="1" fill="none" fill-rule="evenodd">
        <g id="achieves" transform="translate(-53.000000, -305.000000)">
            <g id="Group-40" transform="translate(60.000000, 307.000000)">
                <g id="Group-29-Copy-4" fill="#237691" stroke="#323232" stroke-opacity="0.5">
                    <g id="Group-28">
                        <g id="Group-21-Copy-4">
                            <g id="Group-8-Copy-8">
                                <g id="Group-9">
                                    <circle id="Oval-3-Copy" cx="20" cy="20" r="19.5"></circle>
                                </g>
                            </g>
                        </g>
                    </g>
                </g>
                <g id="Group-38-Copy" transform="translate(8.000000, 13.000000)">
                    <rect id="Rectangle-7" stroke="#222121" fill="#FFFFFF" x="-0.5" y="-0.5" width="25" height="16" rx="3"></rect>
                    <mask id="mask-2" fill="white">
                        <use xlink:href="#path-1"></use>
                    </mask>
                    <rect stroke="#222121" x="-0.5" y="-0.5" width="25" height="16" rx="3"></rect>
                    <g id="Group-2" mask="url(#mask-2)" fill="#FFFFFF" stroke="#222121">
                        <g transform="translate(0.000000, -13.000000)" id="Rectangle-8">
                            <rect transform="translate(12.020815, 28.020815) rotate(45.000000) translate(-12.020815, -28.020815) " x="3.02081528" y="19.0208153" width="18" height="18" rx="2"></rect>
                            <rect transform="translate(12.020815, 12.020815) rotate(45.000000) translate(-12.020815, -12.020815) " x="3.02081528" y="3.02081528" width="18" height="18" rx="1"></rect>
                        </g>
                    </g>
                </g>
                <rect id="Rectangle-10" stroke="#292929" fill="#A9A9A9" x="21.5" y="5.5" width="17" height="12" rx="6"></rect>
                <path d="M30.3242188,7.5 C31.1665732,7.5 31.854438,7.81398035 32.3416884,8.43116797 C32.8909866,9.12259223 33.1484375,10.1974048 33.1484375,11.6572266 C33.1484375,13.1135034 32.8892189,14.1899805 32.3370175,14.8879011 C31.8517064,15.4996377 31.1657222,15.8095703 30.3242188,15.8095703 C29.4760873,15.8095703 28.7703062,15.4730457 28.2485191,14.8178245 C27.7355317,14.1736534 27.5,13.1191544 27.5,11.6425781 C27.5,10.1928034 27.7593357,9.11944179 28.31142,8.42166925 C28.7967311,7.80993262 29.4827153,7.5 30.3242188,7.5 Z M30.3242188,9.63769531 C30.2733688,9.63769531 30.236517,9.65085666 30.1951791,9.68444372 C30.1610964,9.7121359 30.1079598,9.81198142 30.0603394,9.99378977 C29.9799312,10.2960137 29.9355469,10.857705 29.9355469,11.6572266 C29.9355469,12.4552162 29.9754134,12.9987807 30.0452837,13.2581072 C30.1050118,13.4797902 30.168181,13.6037176 30.1970648,13.6271171 C30.2365295,13.6590885 30.2726912,13.671875 30.3242188,13.671875 C30.3750687,13.671875 30.4119205,13.6587137 30.4532584,13.6251266 C30.4873411,13.5974344 30.5404777,13.4975889 30.5883949,13.3146699 C30.6685255,13.0162529 30.7128906,12.4563338 30.7128906,11.6572266 C30.7128906,10.8592369 30.6730241,10.3156724 30.6031538,10.056346 C30.5431161,9.83351373 30.4793534,9.70793539 30.448431,9.68249288 C30.4092714,9.65027298 30.3742475,9.63769531 30.3242188,9.63769531 Z" id="0" stroke="#222121" fill="#FFFFFF"></path>
            </g>
        </g>
    </g>
</svg>