<?xml version="1.0" encoding="UTF-8"?>
<svg width="54px" height="44px" viewBox="0 0 54 44" version="1.1" xmlns="http://www.w3.org/2000/svg" xmlns:xlink="http://www.w3.org/1999/xlink">
    <!-- Generator: Sketch 50.2 (55047) - http://www.bohemiancoding.com/sketch -->
    <title>young_svg</title>
    <desc>Created with Sketch.</desc>
    <defs></defs>
    <g id="Page-1" stroke="none" stroke-width="1" fill="none" fill-rule="evenodd">
        <g id="achieves" transform="translate(-52.000000, -165.000000)">
            <g id="Group-19" transform="translate(59.000000, 167.000000)">
                <g id="Group-8-Copy-2" fill="#0C7446" stroke="#323232" stroke-opacity="0.5">
                    <g id="Group-9">
                        <circle id="Oval-3-Copy" cx="20" cy="20" r="19.5"></circle>
                    </g>
                </g>
                <path d="M9.5,15.5 L12.5,15.5 L12.5,26.5 L9.5,26.5 L9.5,15.5 Z M15.5,15.5 L18.5,15.5 L18.5,26.5 L15.5,26.5 L15.5,15.5 Z M21.5,15.5 L24.5,15.5 L24.5,26.5 L21.5,26.5 L21.5,15.5 Z M27.5,15.5 L30.5,15.5 L30.5,26.5 L27.5,26.5 L27.5,15.5 Z M9,12.5 L31,12.5 C31.8284271,12.5 32.5,13.1715729 32.5,14 C32.5,14.8284271 31.8284271,15.5 31,15.5 L9,15.5 C8.17157288,15.5 7.5,14.8284271 7.5,14 C7.5,13.1715729 8.17157288,12.5 9,12.5 Z M20,5.39907479 L30.6513878,12.5 L9.34861218,12.5 L20,5.39907479 Z M9,26.5 L31,26.5 C31.8284271,26.5 32.5,27.1715729 32.5,28 C32.5,28.8284271 31.8284271,29.5 31,29.5 L9,29.5 C8.17157288,29.5 7.5,28.8284271 7.5,28 C7.5,27.1715729 8.17157288,26.5 9,26.5 Z" id="Combined-Shape" stroke="#222121" fill="#FFFFFF"></path>
                <circle id="Oval-3" stroke="#222121" fill="#D8D8D8" cx="20" cy="9" r="1"></circle>
            </g>
        </g>
    </g>
</svg>