<?xml version="1.0" encoding="UTF-8"?>
<svg width="54px" height="44px" viewBox="0 0 54 44" version="1.1" xmlns="http://www.w3.org/2000/svg" xmlns:xlink="http://www.w3.org/1999/xlink">
    <!-- Generator: Sketch 50.2 (55047) - http://www.bohemiancoding.com/sketch -->
    <title>half-night</title>
    <desc>Created with Sketch.</desc>
    <defs></defs>
    <g id="Page-1" stroke="none" stroke-width="1" fill="none" fill-rule="evenodd">
        <g id="achieves" transform="translate(-53.000000, -679.000000)">
            <g id="Group-47" transform="translate(60.000000, 680.000000)">
                <g id="Group-46">
                    <g id="Group-29-Copy-6" transform="translate(0.000000, 2.000000)" fill="#1D578F" stroke="#323232" stroke-opacity="0.5">
                        <g id="Group-28">
                            <g id="Group-21-Copy-4">
                                <g id="Group-8-Copy-8">
                                    <g id="Group-9">
                                        <circle id="Oval-3-Copy" cx="20" cy="20" r="19.5"></circle>
                                    </g>
                                </g>
                            </g>
                        </g>
                    </g>
                    <path d="M18.6022023,20.6191305 L18.7666094,21.5759239 C18.7716461,21.6175414 18.7716461,21.6175414 18.7733686,21.6514565 C18.7740704,21.6793056 18.7740704,21.6793056 18.7740385,21.6947115 C18.7740385,22.0130516 18.557847,22.3149038 18.1754808,22.3149038 C18.0475605,22.3149038 17.9303423,22.2780018 17.8466975,22.228645 L16.9999942,21.7836072 L16.157723,22.2262932 C16.0554107,22.2813845 15.9509092,22.3149038 15.8245192,22.3149038 C15.4468758,22.3149038 15.2235577,22.0144394 15.2235577,21.6947115 C15.2247578,21.6480144 15.2247578,21.6480144 15.2283556,21.613361 C15.2317521,21.5868824 15.2317521,21.5868824 15.2356012,21.5618792 L15.3977174,20.6193434 L14.6926944,19.9328901 C14.5748475,19.8052226 14.5,19.6771939 14.5,19.4783654 C14.5,19.0953859 14.7613524,18.921151 15.062663,18.8729927 L16.0095644,18.7352959 L16.4303426,17.8845145 C16.5317834,17.6703618 16.7102577,17.5 17,17.5 C17.2897423,17.5 17.4682166,17.6703618 17.5659828,17.8769231 L17.9904665,18.7353236 L18.9475841,18.8745915 C19.240526,18.9234152 19.5,19.0944321 19.5,19.4783654 C19.5,19.6824357 19.4161183,19.8222385 19.286588,19.9517131 L18.6022023,20.6191305 Z" id="star---FontAwesome-Copy-5" stroke="#222121" fill="#F2F2F2"></path>
                    <path d="M16.6022023,7.61913055 L16.7666094,8.57592394 C16.7716461,8.61754136 16.7716461,8.61754136 16.7733686,8.65145652 C16.7740704,8.67930556 16.7740704,8.67930556 16.7740385,8.69471154 C16.7740385,9.01305158 16.557847,9.31490385 16.1754808,9.31490385 C16.0475605,9.31490385 15.9303423,9.27800181 15.8466975,9.22864503 L14.9999942,8.7836072 L14.157723,9.22629324 C14.0554107,9.2813845 13.9509092,9.31490385 13.8245192,9.31490385 C13.4468758,9.31490385 13.2235577,9.01443942 13.2235577,8.69471154 C13.2247578,8.64801436 13.2247578,8.64801436 13.2283556,8.61336102 C13.2317521,8.58688244 13.2317521,8.58688244 13.2356012,8.56187918 L13.3977174,7.61934336 L12.6926944,6.93289005 C12.5748475,6.80522258 12.5,6.6771939 12.5,6.47836538 C12.5,6.09538591 12.7613524,5.92115099 13.062663,5.87299269 L14.0095644,5.73529587 L14.4303426,4.88451452 C14.5317834,4.67036183 14.7102577,4.5 15,4.5 C15.2897423,4.5 15.4682166,4.67036183 15.5659828,4.87692315 L15.9904665,5.73532357 L16.9475841,5.8745915 C17.240526,5.92341515 17.5,6.09443209 17.5,6.47836538 C17.5,6.68243567 17.4161183,6.82223845 17.286588,6.9517131 L16.6022023,7.61913055 Z" id="star---FontAwesome-Copy-6" stroke="#222121" fill="#F2F2F2"></path>
                    <path d="M29.1346666,34.8414742 L29.4024267,36.3992412 C29.4082146,36.4470185 29.4082146,36.4470185 29.4102376,36.4867931 C29.4110896,36.5205015 29.4110896,36.5205015 29.4110577,36.5420673 C29.4110577,36.8960115 29.1773246,37.2223558 28.7632212,37.2223558 C28.6196052,37.2223558 28.4857551,37.1802178 28.386361,37.1216739 L26.9999961,36.3929832 L25.6180595,37.1193221 C25.4978305,37.1840608 25.3784403,37.2223558 25.2367788,37.2223558 C24.827187,37.2223558 24.5853365,36.8969569 24.5853365,36.5420673 C24.5866869,36.4892103 24.5866869,36.4892103 24.5908857,36.4486976 C24.5950333,36.4163596 24.5950333,36.4163596 24.5997839,36.3851965 L24.8652551,34.8417594 L23.7227425,33.7297651 C23.5854547,33.5810366 23.5,33.4348641 23.5,33.2175481 C23.5,32.8037192 23.7883324,32.6114976 24.1299707,32.5568869 L25.6802313,32.3314506 L26.3714484,30.9337934 C26.486706,30.6904717 26.6862478,30.5 27,30.5 C27.3137522,30.5 27.513294,30.6904717 27.624877,30.926202 L28.3197893,32.3314691 L29.8802764,32.5584857 C30.2131592,32.6139662 30.5,32.8030204 30.5,33.2175481 C30.5,33.4404485 30.4047001,33.5992817 30.255338,33.7485881 L29.1346666,34.8414742 Z" id="star---FontAwesome-Copy-7" stroke="#222121" fill="#F2F2F2"></path>
                    <path d="M17.2487574,12.5854465 C12.4286165,13.9432326 10.432527,17.2372299 11.1792701,22.6074607 C11.6453143,24.9367817 13.2854135,26.777257 16.0603571,28.1088207 C20.2942979,29.2014506 23.4347013,28.2326027 25.5925223,25.1981669 L27.4737589,22.5526779 L26.4757853,25.641644 C24.5180558,31.7012827 21.053384,33.9111103 16.3636982,33.9111103 C12.3665552,33.9111103 10.1595331,33.1407061 7.4325689,30.2189587 C5.33875785,27.9755898 4.36647354,25.0961324 4.51519175,21.6031605 C4.66575692,19.1188353 5.86194175,16.7264657 8.08121558,14.433216 C10.3370094,12.1022291 13.3835308,11.1619447 17.1716089,11.6076009 L19.6747003,11.9020823 L17.2487574,12.5854465 Z" id="Path-7-Copy" stroke="#222121" fill="#FFE082" stroke-linecap="round" stroke-linejoin="round"></path>
                    <g id="Group-37-Copy" transform="translate(20.000000, 0.000000)">
                        <g id="Group-32">
                            <path d="M27.0000322,9.99998808 C27.0000322,15.5312447 20.9581723,20 13.5000161,20 C12.761734,20 12.0234518,19.9531249 11.3153037,19.8749999 C9.34152899,21.687502 6.99107976,22.9687535 4.38449183,23.6562544 C3.84208047,23.8125045 3.25446817,23.9218797 2.66685586,24.0000048 C2.63672189,24.0000048 2.60658793,24.0000048 2.59152095,24.0000048 C2.2901813,24.0000048 2.01897562,23.7500045 1.94364071,23.4062541 C1.94364071,23.390629 1.94364071,23.390629 1.94364071,23.390629 C1.8683058,23.0000036 2.1244445,22.7656283 2.35044923,22.484378 C3.29966911,21.3750016 4.38449183,20.4375005 5.09264,17.8281224 C1.98884166,15.9999952 0,13.1718669 0,9.99998808 C0,4.46873149 6.04185988,-2.38418579e-05 13.5000161,-2.38418579e-05 C20.9581723,-2.38418579e-05 27.0000322,4.46873149 27.0000322,9.99998808 Z" id="Path" fill="#1A1A1A"></path>
                            <path d="M13.5000161,1.99997854 C7.23215148,1.99997854 1.92857373,5.6562329 1.92857373,9.99998808 C1.92857373,12.3281159 3.43527195,14.5468685 6.04185988,16.0781203 L7.35268734,16.8593713 L6.94587882,18.359373 C6.65960615,19.4687494 6.2829316,20.3281254 5.89119006,21.0468762 C7.41295527,20.3906255 8.79911763,19.4999994 10.0346102,18.3749981 L10.6824904,17.7812474 L11.5413084,17.8749975 C12.1891886,17.9531226 12.8521359,17.9999976 13.5000161,17.9999976 C19.7678807,17.9999976 25.0714585,14.3437433 25.0714585,9.99998808 C25.0714585,5.6562329 19.7678807,1.99997854 13.5000161,1.99997854 Z" id="Path" fill="#FFFFFF"></path>
                        </g>
                    </g>
                    <path d="M33.5650252,26.5894771 L33.7269251,27.531691 C33.7319435,27.573159 33.7319435,27.573159 33.7336588,27.606932 C33.7343569,27.6346389 33.7343569,27.6346389 33.734325,27.6498954 C33.734325,27.9673717 33.5185591,28.2686298 33.1369628,28.2686298 C33.0094233,28.2686298 32.8926086,28.2318548 32.8093459,28.1827209 L31.9757345,27.7445644 L31.1465554,28.1803691 C31.0446777,28.2352263 30.9405374,28.2686298 30.814518,28.2686298 C30.4376496,28.2686298 30.2147811,27.9687703 30.2147811,27.6498954 C30.2159776,27.6033477 30.2159776,27.6033477 30.2195608,27.5688365 C30.222939,27.5425 30.222939,27.5425 30.2267663,27.5176462 L30.3863752,26.5896873 L29.6919655,25.9135582 C29.5745902,25.7864016 29.5,25.6588131 29.5,25.4604331 C29.5,25.078202 29.7606979,24.9044034 30.0610302,24.8564017 L30.9932944,24.7208334 L31.4075118,23.883319 C31.5086173,23.669874 31.6865805,23.5 31.9757404,23.5 C32.2649003,23.5 32.4428635,23.669874 32.5402944,23.8757277 L32.9582177,24.7208614 L33.9006977,24.8580005 C34.1926707,24.9066627 34.4514808,25.077242 34.4514808,25.4604331 C34.4514808,25.6640466 34.3678761,25.8033877 34.2388269,25.9323812 L33.5650252,26.5894771 Z" id="star---FontAwesome-Copy-8" stroke="#222121" fill="#F2F2F2"></path>
                    <circle id="Oval-6-Copy-3" fill="#353535" cx="28.5" cy="9.5" r="1.5"></circle>
                    <circle id="Oval-6-Copy-4" fill="#353535" cx="33.5" cy="9.5" r="1.5"></circle>
                    <circle id="Oval-6-Copy-5" fill="#353535" cx="38.5" cy="9.5" r="1.5"></circle>
                </g>
            </g>
        </g>
    </g>
</svg>