<?xml version="1.0" encoding="UTF-8"?>
<svg width="54px" height="46px" viewBox="0 0 54 46" version="1.1" xmlns="http://www.w3.org/2000/svg" xmlns:xlink="http://www.w3.org/1999/xlink">
    <!-- Generator: Sketch 50.2 (55047) - http://www.bohemiancoding.com/sketch -->
    <title>spring_svg</title>
    <desc>Created with Sketch.</desc>
    <defs>
        <circle id="path-1" cx="20" cy="20" r="20"></circle>
    </defs>
    <g id="Page-1" stroke="none" stroke-width="1" fill="none" fill-rule="evenodd">
        <g id="achieves" transform="translate(-53.000000, -812.000000)">
            <g id="Group-43" transform="translate(60.000000, 813.000000)">
                <g id="Group-19-Copy" transform="translate(0.000000, 4.000000)">
                    <g id="Group-8-Copy-2">
                        <g id="Group-9">
                            <circle id="Oval-3-Copy" stroke-opacity="0.5" stroke="#323232" fill="#0C7446" cx="20" cy="20" r="19.5"></circle>
                            <mask id="mask-2" fill="white">
                                <use xlink:href="#path-1"></use>
                            </mask>
                            <circle stroke-opacity="0.5" stroke="#323232" cx="20" cy="20" r="19.5"></circle>
                            <path d="M15,40 C15,35.3333333 15.3333333,31.3333333 16,28 C17,23 17,11 19,7 C20.3333333,4.33333333 21.6666667,3 23,3 L21,8 C20.3333333,9.33333333 19.6666667,13.3333333 19,20 C18,30 18,31 20,42 C21.3333333,49.3333333 19.6666667,48.6666667 15,40 Z" id="Path-14" stroke="#1C1C1C" fill="#744E0C" mask="url(#mask-2)"></path>
                        </g>
                    </g>
                </g>
                <g id="Group-39" transform="translate(30.507134, 26.091507) rotate(9.000000) translate(-30.507134, -26.091507) translate(19.507134, 15.591507)" stroke="#1C1C1C">
                    <path d="M0.48544997,19.3259395 C0.00890784505,18.6970909 -0.0231004759,18.6970909 0.00890784505,17.6702592 C0.156119364,12.9476917 1.14147011,5.11382097 7.56057601,4.39225899 C15.3753933,3.51380719 16.3159662,3.98261106 20.3255026,0 C22.0942841,2.63535539 22.9786748,9.66296977 20.3255026,14.0552288 C17.8529794,18.1484278 13.8443401,22.2416269 2.57348429,20.6471781 C1.75000582,20.5306835 1.36984073,20.2043913 0.48544997,19.3259395 Z" id="Path-12" fill="#5FB104"></path>
                    <path d="M3.84356553,16.0123117 C10.9023891,14.7900894 15.9023891,11.1234228 18.8435655,5.01231166" id="Path-13" stroke-linecap="round"></path>
                </g>
                <g id="Group-39" transform="translate(9.500000, 14.500000) scale(-1, 1) translate(-9.500000, -14.500000) translate(2.000000, 7.000000)" stroke="#1C1C1C">
                    <path d="M0.330988616,13.8042425 C0.00607353072,13.3550649 -0.0157503245,13.3550649 0.00607353072,12.6216137 C0.106445021,9.2483512 0.778275076,3.65272927 5.15493819,3.13732785 C10.4832227,2.50986228 11.1245224,2.84472219 13.8582972,0 C15.0642846,1.88239671 15.6672783,6.90212127 13.8582972,10.0394491 C12.1724859,12.9631627 9.43932278,15.8868763 1.75464838,14.7479843 C1.19318579,14.6647739 0.933982313,14.4317081 0.330988616,13.8042425 Z" id="Path-12" fill="#5FB104"></path>
                    <path d="M3,12 C7.23529412,11.2222222 10.2352941,8.88888889 12,5" id="Path-13" stroke-linecap="round"></path>
                </g>
                <g id="Group-39-Copy" transform="translate(23.000000, 0.000000)" fill="#5FB104" stroke="#1C1C1C">
                    <path d="M0.176527262,7.36226268 C0.00323921638,7.12270128 -0.00840017305,7.12270128 0.00323921638,6.7315273 C0.056770678,4.93245398 0.41508004,1.94812228 2.74930037,1.67324152 C5.59105213,1.33859322 5.93307863,1.51718517 7.39109184,0 C8.03428512,1.00394491 8.35588176,3.68113134 7.39109184,5.35437286 C6.4919925,6.91368679 5.03430548,8.47300072 0.93581247,7.86559165 C0.636365754,7.82121274 0.4981239,7.69691099 0.176527262,7.36226268 Z" id="Path-12"></path>
                </g>
            </g>
        </g>
    </g>
</svg>