<?xml version="1.0" encoding="UTF-8"?>
<svg width="54px" height="45px" viewBox="0 0 54 45" version="1.1" xmlns="http://www.w3.org/2000/svg" xmlns:xlink="http://www.w3.org/1999/xlink">
    <!-- Generator: Sketch 50.2 (55047) - http://www.bohemiancoding.com/sketch -->
    <title>double-diplom</title>
    <desc>Created with Sketch.</desc>
    <defs>
        <circle id="path-1" cx="20" cy="20" r="20"></circle>
    </defs>
    <g id="Page-1" stroke="none" stroke-width="1" fill="none" fill-rule="evenodd">
        <g id="Group-20" transform="translate(-5.000000, -3.000000)">
            <g id="Group-8-Copy-5">
                <g id="Group-9" transform="translate(12.000000, 7.000000)">
                    <mask id="mask-2" fill="white">
                        <use xlink:href="#path-1"></use>
                    </mask>
                    <circle stroke="#323232" cx="20" cy="20" r="20.5"></circle>
                    <rect id="Rectangle" fill="#9F2944" mask="url(#mask-2)" transform="translate(17.500000, 20.500000) rotate(45.000000) translate(-17.500000, -20.500000) " x="-12" y="-7" width="59" height="55"></rect>
                    <g id="Group-14" mask="url(#mask-2)">
                        <g transform="translate(5.000000, 15.000000)" id="Group-13">
                            <g>
                                <g id="Human-Head-595b40b65ba036ed117d4266" fill-rule="nonzero">
                                    <path d="M6.82352941,20.5714286 C6.82352941,22.464 5.29591176,24 3.41176471,24 C1.52761765,24 0,22.464 0,20.5714286 C0,18.678 1.52761765,17.1428571 3.41176471,17.1428571 C5.29591176,17.1428571 6.82352941,18.678 6.82352941,20.5714286 M29,20.5714286 C29,18.678 27.4723824,17.1428571 25.5882353,17.1428571 C23.7040882,17.1428571 22.1764706,18.678 22.1764706,20.5714286 C22.1764706,22.464 23.7040882,24 25.5882353,24 C27.4723824,24 29,22.464 29,20.5714286" id="Shape" fill="#FFA726"></path>
                                    <path d="M2.55882353,13.7142857 C2.55882353,2.80714286 26.4411765,4.89857143 26.4411765,12 L26.4411765,23.1428571 C26.4411765,30.2451429 19.4752059,36 14.5,36 C9.52479412,36 2.55882353,30.2451429 2.55882353,23.1428571 L2.55882353,13.7142857 Z" id="Shape" stroke="#222121" fill="#F9BB61"></path>
                                    <path d="M0.852941176,14.004 C1.25723529,8.88428571 2.27735294,3.84171429 8.52941176,2.57142857 L10.2352941,0 L14.5,0 C22.3717941,0 28.1470588,6.41228571 28.1470588,15.4285714 L28.1470588,18.3428571 L25.5882353,21.4285714 C25.5882353,21.4285714 25.5882353,21.8571429 25.5882353,16.2857143 C25.5882353,7.28571429 14.0735294,20.0357143 8.52941176,8.57142857 C8.31617647,13.2857143 3.41176471,15.4285714 3.41176471,15.4285714 L3.41176471,21.4285714 L0.852941176,18.3428571 L0.852941176,15.4285714 C0.852941176,14.9442857 0.796647059,14.4711429 0.852941176,14.004" id="Shape" stroke="#222121" fill="#733F1A"></path>
                                    <path d="M20.75,20.2142857 C20.75,21.0430357 20.0820404,21.7142857 19.2573529,21.7142857 C18.4326654,21.7142857 17.7647059,21.0430357 17.7647059,20.2142857 C17.7647059,19.3855357 18.4326654,18.7142857 19.2573529,18.7142857 C20.0820404,18.7142857 20.75,19.3855357 20.75,20.2142857 M11.8088235,20.2142857 C11.8088235,19.3855357 11.1401176,18.7142857 10.3161765,18.7142857 C9.49074265,18.7142857 8.82352941,19.3855357 8.82352941,20.2142857 C8.82352941,21.0430357 9.49074265,21.7142857 10.3161765,21.7142857 C11.1401176,21.7142857 11.8088235,21.0430357 11.8088235,20.2142857" id="Shape" stroke="#222121" fill="#733F1A"></path>
                                </g>
                            </g>
                        </g>
                    </g>
                </g>
                <g id="graduation-cap-copy" transform="translate(46.000000, 17.500000) scale(-1, 1) translate(-46.000000, -17.500000) translate(28.000000, 0.000000)">
                    <g id="Group-12" transform="translate(17.933013, 15.183824) rotate(-30.000000) translate(-17.933013, -15.183824) translate(2.933013, 6.948529)" stroke="#222121" stroke-linejoin="round">
                        <path d="M28.5625921,5.96073826 L17.8508729,9.41903762 C17.0691112,9.65943594 16.2371992,9.65943594 15.448779,9.41693908 L7.92880741,6.98905192 C7.61707805,7.17620957 7.20253563,7.2082413 6.82375898,7.10358136 C6.41817157,6.99151332 6.10881435,6.72306327 6.03879277,6.37886681 L4.74647479,5.96161073 C3.39059452,5.53980222 3.39324909,3.55875203 4.74138099,3.13934019 L15.4553987,-0.319701257 C16.2371604,-0.560099581 17.0690724,-0.560099581 17.8574918,-0.317602972 L28.5597521,3.13772379 C29.9147365,3.55923517 29.9130385,5.5378648 28.5625921,5.96073826 Z M17.9816266,9.6742844 L17.9818936,9.67419809 L24.4048765,7.60016931 L24.489037,8.18728703 L24.9825748,11.6659436 C24.9825748,13.5261624 21.2806442,14.7657598 16.7184703,14.7657598 C12.1562964,14.7657598 8.45436589,13.5261624 8.45942581,11.5949907 L9.03210935,7.60017138 L9.59652555,7.78242555 L15.4553529,9.6742844 L15.4568147,9.67480729 L15.4644769,9.67717019 C16.2833602,9.92898166 17.1536193,9.92898166 17.972129,9.67728524 L17.9735908,9.67688422 L17.9816266,9.6742844 Z" id="Shape" fill="#4C4C4C" fill-rule="nonzero"></path>
                        <path d="M7.64500418,8.70717933 C7.73953714,9.18681188 7.63286885,9.71546068 7.34153483,10.1640757 C7.04570919,10.6196073 6.59720145,10.9342851 6.11299721,11.0383518 L3.84828621,15.5332759 C3.63091339,15.9647578 3.09693746,16.1679834 2.68135742,15.8981025 L1.24532459,14.9655319 C0.829853278,14.6957217 0.798169891,14.125312 1.10398696,13.7510823 L4.28916661,9.85391162 C4.18728068,9.36926186 4.29232862,8.83154004 4.58815382,8.37600919 C4.89684561,7.90066551 5.3717319,7.57874682 5.87970454,7.48932308 C6.35573053,6.8521254 6.8113486,6.40572132 7.36294287,6.06618512 L7.75259928,5.82633047 L9.11493961,7.65472452 L8.55886923,7.91438585 C8.21943601,8.07288679 7.96204779,8.29648774 7.64500418,8.70717933 Z" id="Path-Copy" fill="#F8DD01" transform="translate(4.876260, 11.012089) rotate(-19.000000) translate(-4.876260, -11.012089) "></path>
                    </g>
                    <g id="Group-11" transform="translate(7.000000, 19.558824)"></g>
                </g>
                <g id="graduation-cap-copy">
                    <g id="Group-12" transform="translate(17.933013, 15.183824) rotate(-30.000000) translate(-17.933013, -15.183824) translate(2.933013, 6.948529)" stroke="#222121" stroke-linejoin="round">
                        <path d="M28.5625921,5.96073826 L17.8508729,9.41903762 C17.0691112,9.65943594 16.2371992,9.65943594 15.448779,9.41693908 L7.92880741,6.98905192 C7.61707805,7.17620957 7.20253563,7.2082413 6.82375898,7.10358136 C6.41817157,6.99151332 6.10881435,6.72306327 6.03879277,6.37886681 L4.74647479,5.96161073 C3.39059452,5.53980222 3.39324909,3.55875203 4.74138099,3.13934019 L15.4553987,-0.319701257 C16.2371604,-0.560099581 17.0690724,-0.560099581 17.8574918,-0.317602972 L28.5597521,3.13772379 C29.9147365,3.55923517 29.9130385,5.5378648 28.5625921,5.96073826 Z M17.9816266,9.6742844 L17.9818936,9.67419809 L24.4048765,7.60016931 L24.489037,8.18728703 L24.9825748,11.6659436 C24.9825748,13.5261624 21.2806442,14.7657598 16.7184703,14.7657598 C12.1562964,14.7657598 8.45436589,13.5261624 8.45942581,11.5949907 L9.03210935,7.60017138 L9.59652555,7.78242555 L15.4553529,9.6742844 L15.4568147,9.67480729 L15.4644769,9.67717019 C16.2833602,9.92898166 17.1536193,9.92898166 17.972129,9.67728524 L17.9735908,9.67688422 L17.9816266,9.6742844 Z" id="Shape" fill="#4C4C4C" fill-rule="nonzero"></path>
                        <path d="M7.64500418,8.70717933 C7.73953714,9.18681188 7.63286885,9.71546068 7.34153483,10.1640757 C7.04570919,10.6196073 6.59720145,10.9342851 6.11299721,11.0383518 L3.84828621,15.5332759 C3.63091339,15.9647578 3.09693746,16.1679834 2.68135742,15.8981025 L1.24532459,14.9655319 C0.829853278,14.6957217 0.798169891,14.125312 1.10398696,13.7510823 L4.28916661,9.85391162 C4.18728068,9.36926186 4.29232862,8.83154004 4.58815382,8.37600919 C4.89684561,7.90066551 5.3717319,7.57874682 5.87970454,7.48932308 C6.35573053,6.8521254 6.8113486,6.40572132 7.36294287,6.06618512 L7.75259928,5.82633047 L9.11493961,7.65472452 L8.55886923,7.91438585 C8.21943601,8.07288679 7.96204779,8.29648774 7.64500418,8.70717933 Z" id="Path-Copy" fill="#F8DD01" transform="translate(4.876260, 11.012089) rotate(-19.000000) translate(-4.876260, -11.012089) "></path>
                    </g>
                    <g id="Group-11" transform="translate(8.000000, 19.558824)"></g>
                </g>
            </g>
        </g>
    </g>
</svg>